<?xml version="1.0" encoding="UTF-8"?>
<svg width="350px" height="128px" viewBox="0 0 350 128" version="1.1" xmlns="http://www.w3.org/2000/svg" xmlns:xlink="http://www.w3.org/1999/xlink">
    <!-- Generator: Sketch 52.4 (67378) - http://www.bohemiancoding.com/sketch -->
    <title>white-logo</title>
    <desc>Created with Sketch.</desc>
    <g id="white-logo" stroke="none" stroke-width="1" fill="none" fill-rule="evenodd">
        <g id="Group" transform="translate(6.000000, 5.000000)" fill="#FFFFFF" fill-rule="nonzero">
            <path d="M239.9,31 C229.5,47.7 219.3,78.3 215.5,85.8 C214.9,87 216.4,88 220.4,86.1 C220.4,86.1 228.9,62.4 236.5,59.6 C243.5,57 236.4,69.2 234.8,72.8 C233.4,76 229.4,85 233.8,87 C236.5,88.3 241.3,86.4 244.6,84.7 C245.3,85.7 246.4,86.3 247.8,86.7 C254.6,88.3 257.5,80.1 257.7,79.5 C257.5,80.2 254.2,90.5 262.6,87.3 C262.6,87.3 266.5,85.7 268.3,83.7 C268.9,85.1 269.8,86.1 272,86.6 C279.2,88.2 282,79.2 282,79.2 C282,79.2 278.5,89.3 287.4,86.5 C289.2,85.9 290.9,84.9 292.2,83.9 C293.6,87.5 299.2,89.7 307.3,86.1 C318.9,80.9 326.8,63 326.8,63 C333.1,61.7 332,63 332,63 C316.9,85.8 326.2,88.3 330.7,88 C330.7,88 336.8,87.4 337.8,81.5 C338,80.4 338,78.4 337.6,77.4 C336.8,75.7 334.6,76.1 334.6,76.1 C334.6,76.1 335.8,83.8 330.7,86.2 C330.3,86.4 329.8,86.6 329.4,86.4 C324.2,84.3 338,63 338.1,60.1 C338.2,57 327.8,59.8 327.8,59.8 C327.8,59.8 331,52.7 326.4,53.6 C321.8,54.5 323.1,59.5 323.1,59.5 C321.8,64.6 311.9,78.4 307.6,81.7 C303.2,85 297.1,85.6 298.2,77.6 C298.4,75.9 299,74.1 299.7,72.2 C309.7,74.5 315.3,66.9 316.2,65.4 C317.1,63.9 321.3,51.8 309.5,53.8 C297.8,55.8 292.1,73 291.6,78.9 C291.5,80 291.5,81 291.7,82 C291.7,82 288.8,83.9 287,83.9 C284.5,84 290.4,67.6 296.8,58.2 C299.1,56.4 338.4,25.8 319.4,20.6 C311.2,18.4 300.5,37.8 291.9,56.2 C290.7,55.4 282.7,50.5 275.5,61.6 C269.9,70.3 267.2,77.4 267.8,81.9 C267.8,81.9 264.8,84.2 262.8,84.5 C260,84.9 268.1,61.8 275.5,54.8 C275.5,54.8 269.4,52.2 267.6,56.8 C267.6,56.8 258.9,50.1 251.2,62.1 C245.7,70.6 243.1,77.6 243.6,82.1 C242.2,82.9 240.5,83.9 239.1,83.7 C234.7,83.2 240.7,71.9 244.1,64.9 C245.2,62.8 251.4,49.4 232.7,58.5 C236.1,55.6 247.3,45.6 253.8,36.6 L255.3,34.4 C259.5,27.8 260.5,22.1 253.3,20.5 C249.6,19.6 245.6,23.3 241.5,29.2 L239.9,31 Z M308.2,57 C308.2,57 313.4,54 310.7,62.5 C308.3,70.2 301.6,70 300.3,69.9 C303.4,63.3 308.2,57 308.2,57 Z M319.6,22.5 C325.2,26.2 306,46.7 298.5,53.4 C303.4,43.1 315.1,19.6 319.6,22.5 Z M251.3,32.8 L249.9,34.9 C245.1,41.9 238,49.9 234.1,53.7 C236.3,48.4 240.2,39.6 244.1,32.6 L245.3,30.5 C248.6,24.9 251.7,21.1 253.7,22.3 C255.9,23.6 254.4,27.8 251.3,32.8 Z M258.4,74.6 C256.8,79.3 251.3,83.9 250.1,84.5 C250.1,84.5 246.5,76.6 258.4,59.8 C258.4,59.8 262.2,55.3 266.3,58 C266.3,58 260,70 258.4,74.6 Z M282.7,74.3 C281.1,79 275.5,83.7 274.3,84.3 C274.3,84.3 270.6,76.3 282.7,59.3 C282.7,59.3 286.6,54.8 290.7,57.5 C290.7,57.6 284.3,69.6 282.7,74.3 Z" id="Shape"></path>
            <g id="Ghader_5_" transform="translate(161.000000, 11.000000)">
                <g id="XMLID_15_-link">
                    <path d="M140.1,12.7 C138.1,14.4 131.2,16.5 127.8,17 C118.1,18.4 111.1,18.2 94.4,16.5 C86.6,15.7 68.2,14.2 68.2,14.2 C63.7,-8.9 37,3.6 37,3.6 C13.8,12.4 3.7,40.8 1.5,50.2 C-0.7,59.7 1.5,71.9 13.1,76.2 C24.8,80.5 41.4,68.5 41.4,68.5 C40.8,71.2 36.3,81.8 36,82.6 C30.5,82.1 26.1,81.5 21.7,81.3 C2.3,80.2 0.2,93.4 0.2,93.4 C0.2,93.4 -2.3,106.6 15.8,106.6 C27.9,106.6 36.3,94.7 40.1,87.4 C53.1,89.3 65.9,92.7 72.6,91.6 C80.9,90.2 84.8,83.1 85,82.7 C85.2,82.4 84.6,81 79.1,83.7 C74.1,86.2 59.5,84.7 42.1,83 C42.3,82.6 42.4,82.3 42.5,82.2 C43.6,79.9 44.9,74.5 48.8,66.2 C52.5,58.3 56.1,54.3 56.7,53.6 C58,52.2 58.8,51.9 58.8,51.9 C58.8,51.9 55.8,49.1 51.1,51.9 C45.6,55.2 43.5,61 43.5,61 C27.3,78.5 6.6,80.7 8.8,60.1 C11.1,39.2 31.1,8.8 47.8,4.2 C63.6,-0.1 63.9,13.5 63.9,13.5 C62.4,13.3 48.9,11.5 42.6,21.1 C35.2,32.4 49.1,42.7 60.1,34.4 C67,29.2 68,21.8 68.2,18 C73.7,18.6 79.1,19.6 89.3,21.2 C98.8,22.7 110.9,25.1 122.5,25.4 C127,25.5 135.6,24 139.6,17.3 C141.6,14.1 142.3,10.9 140.1,12.7 Z M5.5,100.2 C-3.1,97.7 4.3,88.6 10.6,86.3 C15.5,84.5 25.6,84.9 35.1,86.2 C29.5,95.7 15.1,103 5.5,100.2 Z M49.1,31.7 C37.6,30 45.2,19.6 52.4,17.3 C55.8,16.2 60.6,16.9 64,17.5 C64,25.7 55.7,32.7 49.1,31.7 Z" id="XMLID_15_"></path>
                </g>
            </g>
            <g id="IMan_8_" transform="translate(59.000000, 54.000000)">
                <g id="XMLID_14_-link">
                    <path d="M0.7,14.9 L8.3,11.6 C8.3,11.6 0.4,26.6 1.6,31.4 C2.8,36.3 6.5,33.8 6.5,33.8 C8,17 23.5,3.1 22.1,4.7 C20.7,6.3 11.6,26.1 12,30.8 C12.4,35.5 17.1,33.8 17.1,33.8 C19.1,17.4 33.9,3 33.5,4.5 C33.1,5.9 31.3,10 26.8,18.5 C22.3,27 23,33.5 27.4,33.7 C30.8,33.9 34.3,28.9 35.9,26.5 C35.7,30.2 37.1,32.7 40.3,33.4 C47.4,35 50.2,26.1 50.2,26.1 C50.2,26.1 46.4,37.3 55.1,34 C58.4,32.8 60.9,31.3 63.3,29.8 C63.2,30.4 63.2,31 63.2,31.5 C63.2,33.5 65.7,33.1 67.2,33.2 C67.2,33.2 67.6,30.4 68.8,26.5 C71.1,25.3 73.8,24.3 77.2,23.7 C77.5,23.6 77.9,23.6 78.2,23.6 C77.1,27.9 76.5,31.8 77.3,33.2 C79.7,37.1 85.8,29.6 86.7,28.2 L87.2,26.4 C87.2,26.4 82.9,30.4 81.5,31 C81.5,31 82.2,28.2 83.4,24.1 C88.9,25.9 91.6,31.3 91.8,32.6 C92,34.2 97.9,35.2 96.9,29.8 C96.1,25.5 92,21.2 84.6,20.6 C85.7,17.1 87.2,13.1 88.8,9.3 C93.1,-0.5 87.7,0.3 83.8,2.2 C79.9,4.1 74.5,8 74.5,8 L78.4,0.9 C78.4,0.9 74.9,-2.2 63.5,7.3 C65,4.9 66.5,2.8 68,1.3 C68,1.3 61.9,-1.3 60.1,3.3 C60.1,3.3 51.4,-3.4 43.7,8.6 C41.1,12.6 39.1,16.3 37.8,19.6 L37.8,19.4 C37.8,19.4 36.2,21.4 32.7,26.9 C29.3,32.4 28.7,31.1 30.3,26.1 C31.9,21 43,3.8 38.6,0.8 C35.1,-1.6 28.2,6.2 25.4,9.6 C27.4,6.9 30.9,1.4 26.6,1 C20.9,0.2 14.4,10 14.4,10 C15,8 19.5,3.5 19.3,1.9 C19.1,0.3 15.3,1.9 13.4,3.7 C12.3,4.8 7.9,7.3 4.8,9.1 L0.7,14.9 Z M51,21.2 C49.4,25.9 43.9,30.5 42.7,31.1 C42.7,31.1 39.1,23.2 51,6.4 C51,6.4 54.8,1.9 58.9,4.6 C58.9,4.6 52.6,16.6 51,21.2 Z M64,25.6 C59.5,28.1 56.7,30.6 55.1,30.9 C53.2,31.2 56.3,20.7 60.8,11.7 C63.7,9.6 70.5,4.9 71.9,4.7 C71.8,4.7 66.1,16.6 64,25.6 Z M82.4,11 C81.3,13.4 80,17 79,20.6 C78.5,20.7 78.1,20.7 77.6,20.8 C74.8,21.3 72.3,22 70.1,22.8 C72.4,16.9 76.5,9.7 83.6,5.1 C83.6,5.2 85.6,3.7 82.4,11 Z" id="XMLID_14_"></path>
                </g>
            </g>
            <g id="IMan_7_">
                <g id="XMLID_13_-link">
                    <path d="M66.5,63.5 C74.7,50.9 79.3,37 79.9,26.6 C80.8,10.2 75.2,4 70.1,1.7 C65,-0.6 46.7,1.4 40.8,26.9 C38.6,26.7 36.2,26.8 33.4,27.5 C12.3,32.8 1.8,53.8 0.2,66.7 C-1.4,79.8 6.9,102.8 34.7,91.4 C46,86.8 55.3,78.6 62.6,69.1 C63,68.7 66.5,63.5 66.5,63.5 Z M47.1,32.8 C51.3,36.7 52.4,44.1 48.9,52.1 C46.8,45.3 46.4,38.7 47.1,32.8 Z M14.4,90.7 C-3.8,82.2 4.8,52.1 25.4,35.9 C31,31.5 36.1,29.8 40.3,30 C37.7,44.4 41.8,52.7 46.1,57.3 C45.7,57.8 45.4,58.3 45,58.8 C30.3,77.8 16.8,78.9 16.4,69.7 C15.9,60.5 32.8,42.9 33.9,50.8 C34.8,57.7 26.8,61.7 26.8,61.7 C26.8,61.7 28.7,64.2 34.2,60.6 C39,57.5 39.2,49.6 32.6,46.8 C25.7,44 10,59.7 13.5,71.7 C17,83.8 37.4,75.7 47.7,61 C48,60.5 48.3,60.1 48.6,59.6 C51.1,61.6 53.2,62.3 53.2,62.3 C52.1,60.3 51.2,58.3 50.4,56.4 C55,46.6 54.3,34.8 47.6,29.6 C50.5,14.7 59.9,4.5 63.3,3.8 C68.9,2.8 74.7,12.8 69.5,39.1 C64.4,65.5 32.6,99.2 14.4,90.7 Z" id="XMLID_13_"></path>
                </g>
            </g>
        </g>
    </g>
</svg>