<?xml version="1.0" encoding="utf-8"?>
<!-- Generator: Adobe Illustrator 23.0.1, SVG Export Plug-In . SVG Version: 6.00 Build 0)  -->
<svg version="1.1" id="Layer_1" xmlns="http://www.w3.org/2000/svg" xmlns:xlink="http://www.w3.org/1999/xlink" x="0px" y="0px"
	 viewBox="0 0 360 360" style="enable-background:new 0 0 360 360;" xml:space="preserve">
<style type="text/css">
	.st0{fill:#FF6300;}
	.st1{opacity:0.1;fill:url(#SVGID_1_);enable-background:new    ;}
	.st2{opacity:0.1;fill:url(#SVGID_2_);enable-background:new    ;}
	.st3{fill:#F9E531;}
	.st4{fill:#5E5E5E;}
	.st5{fill:#F1F1F2;}
	.st6{fill:#005CFF;}
	.st7{fill:#FFC2DE;}
	.st8{enable-background:new    ;}
	.st9{fill:#FFFEE6;}
</style>
<g id="bg">
	<rect class="st0" width="360" height="360"/>
	
		<radialGradient id="SVGID_1_" cx="180.9" cy="52.617" r="99.4475" gradientTransform="matrix(1 0 0 -1 0 362)" gradientUnits="userSpaceOnUse">
		<stop  offset="0" style="stop-color:#603813"/>
		<stop  offset="1" style="stop-color:#FFFFFF"/>
	</radialGradient>
	<ellipse class="st1" cx="180.9" cy="309.4" rx="93.3" ry="4.4"/>
	
		<radialGradient id="SVGID_2_" cx="180.9" cy="52.617" r="99.4475" gradientTransform="matrix(1 0 0 -1 0 362)" gradientUnits="userSpaceOnUse">
		<stop  offset="0" style="stop-color:#603813"/>
		<stop  offset="1" style="stop-color:#FFFFFF"/>
	</radialGradient>
	<ellipse class="st2" cx="180.9" cy="309.4" rx="93.3" ry="4.4"/>
</g>
<g id="Layer_3">
</g>
<g id="Layer_10">
</g>
<g id="Layer_4">
</g>
<g id="Layer_5">
</g>
<g id="Layer_6">
	<rect x="174.9" y="235" class="st3" width="2.8" height="72.9"/>
	<rect x="182.6" y="235" class="st3" width="2.8" height="72.9"/>
	<path class="st3" d="M220.6,162.6c0,57.3-17.3,75.8-39.7,75.8s-41.4-18.5-41.4-75.8s17.7-78.3,40.1-78.3S220.6,105.3,220.6,162.6z"
		/>
	<g>
		<ellipse class="st4" cx="175.8" cy="128.9" rx="2.5" ry="4"/>
		<ellipse class="st4" cx="184.2" cy="128.9" rx="2.5" ry="4"/>
	</g>
	<g>
		<rect x="209.3" y="213.2" class="st3" width="3.6" height="40.9"/>
		<ellipse class="st3" cx="211.1" cy="252.9" rx="4" ry="3.8"/>
	</g>
	<g>
		<rect x="147.6" y="213.2" class="st3" width="3.6" height="40.9"/>
		<ellipse class="st3" cx="149.4" cy="252.9" rx="4" ry="3.8"/>
	</g>
	<g>
		<rect x="175.3" y="159.9" class="st5" width="4" height="6.2"/>
		<rect x="180.7" y="159.9" class="st5" width="4" height="6.2"/>
	</g>
	<g>
		<path class="st6" d="M174.9,308.5h-6.1v-0.6c0-1.1,0.9-2,2-2h4.1V308.5z"/>
		<path class="st6" d="M185.4,308.5h6.1v-0.6c0-1.1-0.9-2-2-2h-4.1V308.5z"/>
		<rect x="174.9" y="305.5" class="st6" width="2.8" height="3.3"/>
		<rect x="182.6" y="305.5" class="st6" width="2.8" height="3.3"/>
	</g>
	<g>
		<rect x="182.6" y="276.4" class="st7" width="2.8" height="29.2"/>
		<rect x="174.9" y="276.4" class="st7" width="2.8" height="29.2"/>
	</g>
</g>
<g id="Layer_7">
</g>
<g id="Layer_8">
</g>
<g id="Layer_11">
</g>
<g class="st8">
	<path class="st9" d="M155.8,37.7c-0.3-0.2-0.6-0.4-0.8-0.7c-0.2-0.3-0.4-0.6-0.5-1.1s-0.3-0.9-0.4-1.3c-0.2-0.8-0.3-1.8-0.3-3.1
		c0-0.3,0-0.8,0-1.6v-1.3c0-0.4,0-0.7,0-1.1c0-0.8,0-1.4,0.1-1.9c0-0.2-0.1-0.4-0.1-0.6c0-0.8,0.3-1.4,0.9-1.9
		c0.6-0.5,1.4-0.7,2.3-0.7c0.3,0,0.7,0.1,1,0.3s0.4,0.4,0.4,0.7c0,0.1-0.1,0.2-0.2,0.3c-0.1,0.1-0.2,0.1-0.4,0.1
		c-0.1,0-0.3,0-0.4-0.1s-0.2-0.1-0.3-0.2h-0.3v0c-0.5,0-0.9,0.1-1.2,0.3c-0.2,0.2-0.4,0.5-0.6,0.9c-0.1,0.1-0.1,0.3-0.1,0.6
		c0,0.2,0,0.4,0,0.6c0,0.1,0,0.3,0,0.6l0,0.7l0,0.7c0,0.2,0,0.4-0.1,0.7c-0.1,0.3-0.1,0.6-0.1,0.7v0.5c0,0.5,0,1.2,0.1,2.1
		c0,0.8,0.1,1.5,0.3,2.3c0.1,0.7,0.3,1.3,0.7,1.8c0.3,0.5,0.8,0.8,1.3,0.8c0.2,0,0.5-0.1,0.8-0.4c0.4-0.2,0.6-0.4,0.8-0.4
		c0.2,0,0.4,0.1,0.6,0.3c0,0.5-0.2,0.9-0.6,1.1c-0.3,0.2-0.8,0.4-1.2,0.5c-0.3,0-0.5,0-0.6,0C156.4,38,156.1,37.9,155.8,37.7z"/>
	<path class="st9" d="M163.5,37c-0.3-0.7-0.5-1.4-0.6-2.1l-0.1-0.7c-0.4-1.9-0.6-3-0.7-3.3h-0.2c0,0.4,0,0.7,0,1.1v1.1
		c0,1.8,0.1,3.2,0.4,4.2l-0.2,0.5h-0.6l-0.3-0.3l0-1.3c0-1.2-0.1-3-0.2-5.5c-0.1-2.6-0.2-4.4-0.2-5.5c0-0.6,0.2-1,0.7-1
		c0.7,0,1.3,0.2,1.8,0.6c0.5,0.4,0.7,0.9,0.7,1.6v1.4c0,0.2,0,0.4-0.1,0.7c-0.1,0.3-0.1,0.5-0.2,0.6l-0.4,0.7l-0.3,0.6l0.1,0.5
		l0.3,1.4c0.2,1,0.4,1.9,0.5,2.5c0.2,0.6,0.4,1.2,0.6,1.7l0.1,0.2c0.1,0.3,0.2,0.5,0.2,0.6c0,0.1,0,0.2-0.1,0.4
		c-0.1,0.1-0.2,0.1-0.3,0.1C164,38,163.8,37.7,163.5,37z M162.6,28.8c0.2-0.7,0.3-1.3,0.3-1.8c0-0.4-0.1-0.8-0.2-1.2
		c-0.1-0.2-0.2-0.4-0.3-0.5c-0.2-0.1-0.3-0.2-0.6-0.2l0,0.1l0,0.2l0,2.4c0,0.7,0,1.4,0,2.3C162.2,29.8,162.4,29.4,162.6,28.8z"/>
	<path class="st9" d="M166,37c0-0.3,0.2-0.5,0.6-0.5h0.2l0.2,0c0.1,0,0.2,0,0.2-0.1s0.1-0.2,0.1-0.4c0-0.2,0-0.6,0-1.1
		c0-0.3-0.1-0.9-0.1-1.7c-0.1-2-0.2-3.6-0.2-4.6c0-0.4,0-0.7,0-1l0-1c0-0.4,0-0.8-0.1-1.1c-0.2,0.1-0.4,0.1-0.5,0.1
		c-0.3,0-0.5-0.2-0.5-0.5c0-0.2,0.1-0.3,0.3-0.4c0.2-0.1,0.5-0.2,0.8-0.3c0.5-0.1,1-0.2,1.4-0.2c0.2,0,0.3,0.1,0.4,0.2
		c0.1,0.1,0.2,0.2,0.2,0.4s0,0.3-0.1,0.4s-0.2,0.2-0.3,0.2c-0.1,0-0.1,0-0.2,0h-0.2c-0.1,0-0.2,0-0.3,0.1c-0.1,0.1-0.1,0.2-0.1,0.3
		c0,1.3,0.1,3.2,0.2,5.8c0,0.5,0.1,1.2,0.2,2.1c0.1,0.6,0.1,1.2,0.1,1.9v0.8c0.1,0,0.2,0,0.4,0c0.6,0,0.8,0.2,0.8,0.7v0.1l-0.5,0.3
		c0,0-0.1,0-0.1,0c-0.1,0-0.2,0-0.4,0c-0.4,0-0.7,0-0.8,0C166.6,37.6,166,37.4,166,37z"/>
	<path class="st9" d="M173,37.8c-0.3-0.1-0.6-0.2-0.8-0.3c-0.9-0.6-1.3-2.1-1.3-4.7v-0.5v-0.6v-0.5c0-0.5,0-1,0-1.4
		c0-0.4,0-0.9,0.1-1.4c0-0.5,0.1-0.9,0.2-1.3s0.2-0.7,0.4-1.1c0.2-0.4,0.4-0.7,0.6-0.9c0.2-0.2,0.5-0.4,0.9-0.5
		c0.3-0.1,0.7-0.2,1.2-0.2c0.2,0,0.4,0,0.5,0.1c0.1,0.1,0.2,0.2,0.2,0.4c0,0.1,0,0.3-0.1,0.4c-0.1,0.1-0.2,0.2-0.3,0.2h-0.9
		c-0.3,0-0.5,0.2-0.7,0.5c-0.2,0.3-0.3,0.8-0.4,1.3c-0.2,1-0.3,1.8-0.3,2.4v0.1l0,1.9c0,0.6,0,1.2,0,1.9c0,0.5,0,0.9,0.1,1.2
		c0.1,0.5,0.2,0.9,0.3,1.2c0.2,0.4,0.4,0.6,0.8,0.8c0.2,0.1,0.4,0.1,0.7,0.1c0.1,0,0.3-0.1,0.4-0.2c0.2,0,0.3,0,0.4,0.1
		s0.2,0.2,0.2,0.3c0,0.5-0.4,0.8-1.1,0.8C173.6,37.9,173.3,37.9,173,37.8z"/>
	<path class="st9" d="M180.6,37c-0.5-1-1-2.6-1.5-4.9c-0.1-0.6-0.3-1.2-0.4-1.7c-0.5,1-0.7,2.1-0.7,3.5v3.7c0,0.3-0.1,0.5-0.4,0.5
		c-0.2,0-0.4-0.1-0.5-0.2c-0.1-0.1-0.2-0.3-0.2-0.5v-6.1c0-0.6,0.1-1.7,0.2-3.2c0.1-1.4,0.2-2.5,0.2-3.2c0.1-0.3,0.3-0.4,0.6-0.4
		c0.2,0,0.3,0.1,0.4,0.2s0.2,0.3,0.2,0.4v0.1c-0.2,0.3-0.3,1.5-0.3,3.6v0.7l0.7-1.5c0.5-0.9,0.9-1.8,1.3-2.4c0.4-0.7,0.6-1,0.8-1
		c0.2,0,0.4,0,0.6,0.1c0.2,0.1,0.2,0.2,0.2,0.4l-0.5,0.8c-1,1.6-1.6,2.5-1.7,2.8c0,0.2,0,0.4,0,0.6l0,0.6c0,0.6,0.2,1.6,0.7,3.2
		c0.5,1.6,0.8,2.6,1.1,3.1l0.3,0.4c0.3,0.3,0.4,0.7,0.4,0.9c0,0.1-0.1,0.3-0.2,0.4c-0.1,0.1-0.2,0.1-0.4,0.1
		C181.2,38,180.9,37.6,180.6,37z"/>
	<path class="st9" d="M184.3,37.7c-0.1-0.1-0.2-0.3-0.2-0.4v-0.5v-0.4c0-0.1,0-0.3,0-0.4c0-0.3,0-0.7-0.1-1.3l0-1.3
		c0-0.7,0-1.6,0.1-2.9c0.1-1.2,0.1-2.1,0.1-2.9c0-0.2,0-0.5-0.1-0.8c0-0.4-0.1-0.7-0.1-0.8c0-0.9,0.3-1.4,0.8-1.4
		c0.4,0,0.9,0.1,1.5,0.3c0.6,0.2,0.9,0.4,0.9,0.6c0,0.1-0.1,0.3-0.2,0.4s-0.2,0.2-0.4,0.3c-0.6-0.2-1.1-0.3-1.5-0.4
		c0,0.2,0,0.5,0,0.9c0,0.5,0,1,0,1.4c0,0.6-0.1,1.1-0.1,1.4l0.1,0.3l0.3,0c0.1,0,0.2,0,0.4,0c0.6,0,1,0.2,1,0.6
		c0,0.1-0.1,0.3-0.2,0.4c-0.1,0.1-0.3,0.1-0.5,0.1c-0.2,0-0.4,0-0.6,0h-0.5c0,0.3,0,0.9,0,1.5s0,1.3,0,1.8c0,0.8-0.1,1.4-0.1,1.8
		c0,0.7,0,1.1,0,1.1l0.7,0c0.2,0,0.5,0,0.8,0c0.5,0,0.8,0.2,0.8,0.5c0,0.2-0.1,0.3-0.2,0.4c-0.2,0.1-0.4,0.1-0.6,0.1h-1.7
		C184.6,37.9,184.4,37.8,184.3,37.7z"/>
	<path class="st9" d="M190.6,37.3l0-0.8c0-0.2,0-0.5,0-0.8l0-0.7c0-0.1-0.1-1.6-0.3-4.4s-0.3-4.6-0.3-5.3c-0.8,0-1.3-0.1-1.5-0.2
		c-0.1-0.1-0.2-0.2-0.2-0.4c0-0.1,0.1-0.2,0.2-0.3c0.1-0.1,0.3-0.1,0.4-0.1c0.4,0,0.8,0,1.4,0.1c0.5,0.1,1,0.1,1.4,0.1h0.2h0.2
		c0.4,0,0.6,0.2,0.6,0.5c0,0.2-0.1,0.3-0.2,0.4c-0.1,0.1-0.3,0.2-0.5,0.2c-0.1,0-0.3,0-0.5-0.1l-0.4-0.1l0,0.1l0,0.1
		c0,1.2,0.1,3.1,0.3,5.7c0.2,2.4,0.3,4.3,0.3,5.7c0,0.2-0.1,0.3-0.2,0.4c-0.1,0.1-0.3,0.2-0.5,0.2L190.6,37.3z"/>
	<path class="st9" d="M195.7,37.7c-0.1-0.1-0.2-0.3-0.2-0.5c0-0.2,0.1-0.4,0.2-0.5c0.1-0.2,0.3-0.2,0.5-0.2c0.2,0,0.4,0.1,0.5,0.2
		c0.1,0.2,0.2,0.3,0.2,0.5c0,0.2-0.1,0.4-0.2,0.5c-0.2,0.1-0.3,0.2-0.6,0.2C196,38,195.8,37.9,195.7,37.7z"/>
	<path class="st9" d="M200.3,37.7c-0.1-0.1-0.2-0.3-0.2-0.5c0-0.2,0.1-0.4,0.2-0.5c0.1-0.2,0.3-0.2,0.5-0.2c0.2,0,0.4,0.1,0.5,0.2
		c0.1,0.2,0.2,0.3,0.2,0.5c0,0.2-0.1,0.4-0.2,0.5c-0.2,0.1-0.3,0.2-0.6,0.2C200.5,38,200.4,37.9,200.3,37.7z"/>
	<path class="st9" d="M204.8,37.7c-0.1-0.1-0.2-0.3-0.2-0.5c0-0.2,0.1-0.4,0.2-0.5c0.1-0.2,0.3-0.2,0.5-0.2c0.2,0,0.4,0.1,0.5,0.2
		c0.1,0.2,0.2,0.3,0.2,0.5c0,0.2-0.1,0.4-0.2,0.5c-0.2,0.1-0.3,0.2-0.6,0.2C205.1,38,205,37.9,204.8,37.7z"/>
</g>
</svg>
