<?xml version="1.0" encoding="utf-8"?>
<!-- Generator: Adobe Illustrator 23.0.1, SVG Export Plug-In . SVG Version: 6.00 Build 0)  -->
<svg version="1.1" id="Layer_1" xmlns="http://www.w3.org/2000/svg" xmlns:xlink="http://www.w3.org/1999/xlink" x="0px" y="0px"
	 viewBox="0 0 360 360" style="enable-background:new 0 0 360 360;" xml:space="preserve">
<style type="text/css">
	.st0{fill:#F9E531;}
	.st1{opacity:0.1;fill:url(#SVGID_1_);enable-background:new    ;}
	.st2{opacity:0.1;fill:url(#SVGID_2_);enable-background:new    ;}
	.st3{fill:#FFC2DE;}
	.st4{fill:#FFFEE6;}
	.st5{fill:#5E5E5E;}
	.st6{fill:#FF6300;}
	.st7{fill:#005CFF;}
	.st8{fill:none;stroke:#563200;stroke-width:2;stroke-linecap:round;stroke-miterlimit:10;}
	.st9{enable-background:new    ;}
</style>
<g id="bg">
	<rect x="0.5" class="st0" width="360" height="360"/>
	
		<radialGradient id="SVGID_1_" cx="140.2132" cy="54.3445" r="99.4183" gradientTransform="matrix(1.4397 0 0 -1 -23.065 362)" gradientUnits="userSpaceOnUse">
		<stop  offset="0" style="stop-color:#754C28"/>
		<stop  offset="1" style="stop-color:#FFFFFF;stop-opacity:0.5"/>
	</radialGradient>
	<ellipse class="st1" cx="178.8" cy="307.7" rx="134.2" ry="4.4"/>
	
		<radialGradient id="SVGID_2_" cx="180.9" cy="52.617" r="99.4475" gradientTransform="matrix(1 0 0 -1 0 362)" gradientUnits="userSpaceOnUse">
		<stop  offset="0" style="stop-color:#603813"/>
		<stop  offset="1" style="stop-color:#FFFFFF"/>
	</radialGradient>
	<ellipse class="st2" cx="180.9" cy="309.4" rx="93.3" ry="4.4"/>
</g>
<g id="Layer_3">
</g>
<g id="Layer_10">
</g>
<g id="Layer_4">
</g>
<g id="Layer_5">
	<path class="st3" d="M220,166.1c0-67.4-19.2-92.2-42.2-92.2s-41.1,24.7-41.1,92.2v133.3H220V166.1z"/>
	<path class="st4" d="M211.4,141.2c0,42.7-14.1,56.5-32.4,56.5s-33.7-13.8-33.7-56.5s14.4-58.3,32.6-58.3S211.4,98.5,211.4,141.2z"
		/>
	<g>
		<path class="st3" d="M178,73.9c-9,0-16.8,8.6-21.1,29.8h42.6C195,82.5,187,73.9,178,73.9z"/>
	</g>
	<g>
		<ellipse class="st5" cx="172.6" cy="120.2" rx="2.4" ry="3.8"/>
		<ellipse class="st5" cx="183.5" cy="120.2" rx="2.4" ry="3.8"/>
	</g>
	<g>
		<path class="st6" d="M176.1,308.4h-9.3v-1.9c0-1.1,0.9-2,2-2h7.3V308.4z"/>
		<path class="st6" d="M182.4,308.4h9.3v-1.9c0-1.1-0.9-2-2-2h-7.3V308.4z"/>
	</g>
	<polyline class="st7" points="176.1,193.5 176.1,304.5 172.4,304.5 172.4,193.5 	"/>
	<polyline class="st7" points="186,193.5 186,304.5 182.4,304.5 182.4,193.5 	"/>
	<g>
		<path class="st7" d="M179,197.6c13.9,0,25.4-8,30.1-30.7h-61.3C152.9,189.6,165.1,197.6,179,197.6z"/>
	</g>
	<line class="st8" x1="120.4" y1="251.7" x2="120.4" y2="256.4"/>
	<rect x="205.1" y="168" class="st7" width="3.6" height="42.5"/>
	<ellipse class="st4" cx="206.9" cy="208.3" rx="4" ry="3.8"/>
	<g>
		<rect x="149.5" y="168" class="st7" width="3.6" height="42.5"/>
		<ellipse class="st4" cx="151.3" cy="209.3" rx="4" ry="3.8"/>
	</g>
	<rect x="114.4" y="256.4" class="st6" width="12" height="52"/>
	<rect x="236.7" y="266.4" class="st6" width="42" height="42"/>
	<line class="st8" x1="100.4" y1="231.7" x2="100.4" y2="236.4"/>
	<rect x="94.4" y="236.4" class="st6" width="12" height="72"/>
</g>
<g id="Layer_6">
</g>
<g id="Layer_7">
</g>
<g id="Layer_8">
</g>
<g id="Layer_11">
</g>
<g class="st9">
	<path class="st5" d="M125.2,36.4c0-0.3,0.2-0.5,0.6-0.5h0.2c0.1,0,0.1,0,0.2,0c0.1,0,0.2,0,0.2-0.1c0-0.1,0.1-0.2,0.1-0.4
		c0-1.1-0.1-2.7-0.2-4.6c-0.1-2-0.2-3.6-0.2-4.6c0-0.4,0-0.7,0-1l0-1c0-0.4,0-0.8-0.1-1.1c-0.1,0.1-0.3,0.1-0.5,0.1
		c-0.3,0-0.5-0.2-0.5-0.5c0-0.2,0.1-0.3,0.3-0.4s0.4-0.2,0.8-0.3c0.6-0.1,1-0.1,1.4-0.1c0.2,0,0.3,0.1,0.4,0.2s0.2,0.2,0.2,0.4
		c0,0.1,0,0.3-0.1,0.4c-0.1,0.1-0.2,0.2-0.3,0.2c-0.1,0-0.1,0-0.2,0h-0.2c-0.1,0-0.2,0-0.3,0.1c-0.1,0.1-0.1,0.2-0.1,0.3
		c0,1.4,0.1,3.4,0.3,5.8c0.2,2.6,0.2,4.6,0.2,5.9v0.8c0.1,0,0.2,0,0.4,0c0.6,0,0.8,0.2,0.8,0.7v0.1l-0.5,0.3c0,0-0.1,0-0.1,0
		c-0.1,0-0.2,0-0.4,0c-0.5,0-0.7,0-0.8,0C125.7,37,125.2,36.8,125.2,36.4z"/>
	<path class="st5" d="M131.5,26.1c0-0.3,0.1-0.8,0.2-1.4c0.1-0.7,0.3-1.3,0.6-1.9c0.3-0.7,0.5-1,0.8-1c0.2,0,0.4,0.1,0.4,0.4
		c0,0.6-0.1,1.2-0.3,1.9s-0.4,1.3-0.7,1.8c-0.3,0.5-0.6,0.7-0.8,0.7C131.5,26.5,131.5,26.3,131.5,26.1z"/>
	<path class="st5" d="M144,36.8v-1.3v-1.3c0-0.7,0-1.5-0.1-2.6c-0.1-1.2-0.2-2-0.2-2.5l0-1.2c0-0.4,0-0.8,0-1.2
		c-0.1,0.2-0.3,1.1-0.7,2.8c-0.4,1.6-0.8,3.1-1.2,4.5c-0.4,1.3-0.7,2-1,2c-0.3,0-0.5-0.1-0.6-0.2c-0.2-0.2-0.2-0.4-0.2-0.6
		c0-0.6-0.2-1.8-0.7-3.7c-0.5-1.9-0.9-3.5-1.3-4.7l-0.1,2.3c-0.1,1.9-0.2,3.5-0.2,4.8c0,1.2,0,2.1,0,2.5c0,0.1,0,0.2,0,0.3v0.3
		c0,0.2,0,0.4-0.1,0.5c-0.1,0.1-0.3,0.2-0.5,0.2c-0.1,0-0.3-0.1-0.4-0.2c-0.1-0.1-0.2-0.2-0.2-0.3c0-1.4,0.1-3.4,0.3-6.1
		s0.3-4.8,0.3-6.1c-0.1-0.1-0.1-0.2-0.1-0.4c0-0.2,0.1-0.3,0.2-0.4c0.2-0.1,0.3-0.1,0.5-0.1c0.2,0,0.5,0.6,1,1.9
		c0.5,1.3,0.9,2.7,1.4,4.3s0.8,2.7,0.9,3.4c0.1-0.4,0.2-0.7,0.3-1l0.1-0.5c0.4-1.9,0.9-3.6,1.3-5.1c0.3-0.9,0.5-1.6,0.7-2.2
		c0.2-0.6,0.5-0.8,0.7-0.8c0.2,0,0.4,0,0.5,0.2c0.2,0.1,0.2,0.2,0.2,0.4c0,1,0,2.4,0.1,4.3c0.1,1.8,0.1,3.2,0.1,4.2l0,1.1l0,1.1
		c0,0.2,0,0.4,0.1,0.7l0.1,0.7c0,0.1,0,0.2,0,0.3c0,0.1,0,0.1,0,0.1c0.1,0.2,0.1,0.3,0.1,0.4c0,0.2-0.1,0.4-0.2,0.6
		c-0.1,0.2-0.3,0.3-0.5,0.3C144.2,38.1,144,37.7,144,36.8z"/>
	<path class="st5" d="M156.5,37c-0.1-0.1-0.1-0.2-0.2-0.4l-0.1-0.4v0V36c0-0.4-0.5-1.9-1.4-4.5c-0.9-2.6-1.6-4.5-2.1-5.7v10.1
		l0.1,0.1c0,0,0,0.1,0.1,0.1s0.1,0.1,0.1,0.2c0,0.2-0.1,0.3-0.2,0.4s-0.3,0.2-0.4,0.2c-0.4,0-0.6-0.4-0.6-1.2l0-3.4c0-1,0-2.2,0-3.4
		c0-0.4,0-1,0.1-1.9c0-0.8,0.1-1.5,0.1-1.9c0-0.6,0.2-1.1,0.7-1.5v0.1c0.1,0,0.1,0,0.2,0c0.3,0,0.7,0.5,1.2,1.6
		c0.4,0.9,0.7,1.8,1,2.7c0.3,0.9,0.7,2.3,1.2,4l0.2,0.7c0.3,1.1,0.5,1.9,0.7,2.3c0.3-2.9,0.4-6.3,0.4-10.2v-0.3c0-0.1,0-0.2,0-0.3
		c0-0.4,0.2-0.6,0.5-0.6c0.2,0,0.3,0.1,0.4,0.2c0.1,0.1,0.1,0.3,0.1,0.6v1.5c0,2.1-0.1,4.3-0.2,6.7c-0.1,2.4-0.3,3.8-0.5,4.1
		c-0.4,0.1-0.6,0.2-0.7,0.2C156.7,37.1,156.6,37.1,156.5,37z"/>
	<path class="st5" d="M162.4,37.1c-0.3-0.2-0.5-0.5-0.7-0.9c-0.4-0.8-0.6-1.7-0.7-2.7c-0.1-0.9-0.2-1.8-0.2-2.6c0-0.2,0-0.3,0-0.4
		v-0.4c0-0.1,0-0.1,0-0.1v-0.4l0-1.4c0-0.4,0.1-1.1,0.2-2c0.1-0.6,0.2-1.3,0.5-1.9c0.1-0.3,0.2-0.5,0.4-0.6c0.1-0.1,0.3-0.2,0.5-0.2
		c0.5,0,1,0.1,1.4,0.3s0.8,0.5,1.1,0.8c0.3,0.3,0.5,0.7,0.7,1.2c0.2,0.5,0.3,1,0.4,1.5c0.1,0.6,0.1,1.2,0.1,1.8v0.2
		c0,0.4,0,0.8,0,1.1l0,1.1c0,3.8-0.9,5.8-2.7,5.8C163,37.4,162.7,37.3,162.4,37.1z M163.9,36.3c0.2-0.2,0.4-0.5,0.5-0.8
		c0.3-0.7,0.4-1.4,0.5-2.2c0.1-0.7,0.1-1.3,0.1-1.8c0-0.6,0-1.4-0.1-2.4c-0.1-1-0.1-1.8-0.1-2.3v-0.4c0-0.5-0.2-0.9-0.5-1.3
		c-0.3-0.4-0.7-0.6-1.1-0.6c-0.5,0-0.8,0.3-0.9,0.8c-0.1,0.4-0.2,0.9-0.2,1.6c0,0.3,0,0.5,0,0.6v0.5l0,0.9c0,0.3,0,0.6,0,0.9
		c0,0.7,0,1.4,0.1,2.1c0.1,1,0.2,2,0.4,2.9c0.2,1,0.5,1.5,0.9,1.5C163.5,36.6,163.7,36.5,163.9,36.3z"/>
	<path class="st5" d="M169.3,36.7l0-0.8c0-0.2,0-0.5,0-0.8l0-0.7c0-0.1-0.1-1.6-0.3-4.4s-0.3-4.6-0.3-5.3c-0.8,0-1.3-0.1-1.5-0.2
		c-0.1-0.1-0.2-0.2-0.2-0.4c0-0.1,0.1-0.2,0.2-0.3c0.1-0.1,0.3-0.1,0.4-0.1c0.4,0,0.8,0,1.4,0.1c0.5,0.1,1,0.1,1.4,0.1h0.2h0.2
		c0.4,0,0.6,0.2,0.6,0.5c0,0.2-0.1,0.3-0.2,0.4c-0.1,0.1-0.3,0.2-0.5,0.2c-0.1,0-0.3,0-0.5-0.1l-0.4-0.1l0,0.1l0,0.1
		c0,1.2,0.1,3.1,0.3,5.7c0.2,2.4,0.3,4.3,0.3,5.7c0,0.2-0.1,0.3-0.2,0.4s-0.3,0.2-0.5,0.2L169.3,36.7z"/>
	<path class="st5" d="M177.1,34.5l0-3.2c0-0.9,0-2,0-3.1c0-0.4,0-1.1-0.1-2c-0.1-1-0.1-1.6-0.1-1.8c0-0.2,0.1-0.3,0.2-0.5
		c0.1-0.1,0.3-0.2,0.5-0.2c0.5,0,0.9,0.1,1.4,0.3c0.4,0.2,0.8,0.5,1.1,0.9c0.7,0.8,1.2,1.7,1.4,2.7c0.1,0.5,0.2,1,0.2,1.5
		c0,0.2,0,0.3,0,0.5l0,0.5v1.1c0,0.9,0,1.5-0.1,2c-0.1,0.7-0.2,1.3-0.5,1.8c-0.3,0.6-0.7,1.1-1.2,1.5c-0.2,0.2-0.5,0.4-0.9,0.6h-1.4
		C177.3,37.2,177.1,36.3,177.1,34.5z M179.3,35.9c0.2-0.1,0.4-0.3,0.6-0.6c0.1-0.2,0.3-0.5,0.4-0.8c0.1-0.3,0.2-0.6,0.2-1
		c0.1-0.6,0.2-1.2,0.2-1.8c0-0.2,0-0.4,0-0.7c0-4-0.8-6.1-2.3-6.3c-0.1,0.6-0.1,1.3-0.1,2.1c0,0.8,0.1,2.3,0.2,4.4
		c0.1,1.9,0.1,3.3,0.1,4.4v0.5C178.8,36.1,179,36.1,179.3,35.9z"/>
	<path class="st5" d="M185.3,37.1c-0.3-0.2-0.5-0.5-0.7-0.9c-0.4-0.8-0.6-1.7-0.7-2.7c-0.1-0.9-0.2-1.8-0.2-2.6c0-0.2,0-0.3,0-0.4
		v-0.4c0-0.1,0-0.1,0-0.1v-0.4l0-1.4c0-0.4,0.1-1.1,0.2-2c0.1-0.6,0.2-1.3,0.5-1.9c0.1-0.3,0.2-0.5,0.4-0.6s0.3-0.2,0.5-0.2
		c0.5,0,1,0.1,1.4,0.3s0.8,0.5,1.1,0.8c0.3,0.3,0.5,0.7,0.7,1.2s0.3,1,0.4,1.5c0.1,0.6,0.1,1.2,0.1,1.8v0.2c0,0.4,0,0.8,0,1.1l0,1.1
		c0,3.8-0.9,5.8-2.7,5.8C185.9,37.4,185.6,37.3,185.3,37.1z M186.8,36.3c0.2-0.2,0.4-0.5,0.5-0.8c0.3-0.7,0.4-1.4,0.5-2.2
		c0.1-0.7,0.1-1.3,0.1-1.8c0-0.6,0-1.4-0.1-2.4c-0.1-1-0.1-1.8-0.1-2.3v-0.4c0-0.5-0.2-0.9-0.5-1.3s-0.7-0.6-1.1-0.6
		c-0.5,0-0.8,0.3-0.9,0.8c-0.1,0.4-0.2,0.9-0.2,1.6c0,0.3,0,0.5,0,0.6v0.5l0,0.9c0,0.3,0,0.6,0,0.9c0,0.7,0,1.4,0.1,2.1
		c0.1,1,0.2,2,0.4,2.9c0.2,1,0.5,1.5,0.9,1.5C186.4,36.6,186.6,36.5,186.8,36.3z"/>
	<path class="st5" d="M196.2,37c-0.1-0.1-0.1-0.2-0.2-0.4l-0.1-0.4v0V36c0-0.4-0.5-1.9-1.4-4.5c-0.9-2.6-1.6-4.5-2.2-5.7v10.1
		l0.1,0.1c0,0,0,0.1,0.1,0.1s0.1,0.1,0.1,0.2c0,0.2-0.1,0.3-0.2,0.4S192.2,37,192,37c-0.4,0-0.6-0.4-0.6-1.2l0-3.4c0-1,0-2.2,0-3.4
		c0-0.4,0-1,0.1-1.9c0-0.8,0.1-1.5,0.1-1.9c0-0.6,0.2-1.1,0.7-1.5v0.1c0.1,0,0.1,0,0.2,0c0.3,0,0.7,0.5,1.2,1.6
		c0.4,0.9,0.7,1.8,1,2.7c0.3,0.9,0.7,2.3,1.2,4l0.2,0.7c0.3,1.1,0.5,1.9,0.7,2.3c0.3-2.9,0.4-6.3,0.4-10.2v-0.3c0-0.1,0-0.2,0-0.3
		c0-0.4,0.2-0.6,0.5-0.6c0.2,0,0.3,0.1,0.4,0.2c0.1,0.1,0.1,0.3,0.1,0.6v1.5c0,2.1-0.1,4.3-0.2,6.7c-0.1,2.4-0.3,3.8-0.5,4.1
		c-0.4,0.1-0.6,0.2-0.7,0.2C196.4,37.1,196.3,37.1,196.2,37z"/>
	<path class="st5" d="M201.1,37.1c-0.1-0.1-0.2-0.3-0.2-0.4v-0.5v-0.4c0-0.1,0-0.3,0-0.4c0-0.3,0-0.7-0.1-1.3l0-1.3
		c0-0.7,0-1.6,0.1-2.9c0.1-1.2,0.1-2.1,0.1-2.9c0-0.2,0-0.5-0.1-0.8c0-0.4-0.1-0.7-0.1-0.8c0-0.9,0.3-1.4,0.8-1.4
		c0.4,0,0.9,0.1,1.5,0.3c0.6,0.2,0.9,0.4,0.9,0.6c0,0.1-0.1,0.3-0.2,0.4s-0.2,0.2-0.4,0.3c-0.6-0.2-1.1-0.3-1.5-0.4
		c0,0.2,0,0.5,0,0.9c0,0.5,0,1,0,1.4c0,0.6-0.1,1.1-0.1,1.4L202,29l0.3,0c0.1,0,0.2,0,0.4,0c0.6,0,1,0.2,1,0.6
		c0,0.1-0.1,0.3-0.2,0.4c-0.1,0.1-0.3,0.1-0.5,0.1c-0.2,0-0.4,0-0.6,0h-0.5c0,0.3,0,0.9,0,1.5s0,1.3,0,1.8c0,0.8-0.1,1.4-0.1,1.8
		c0,0.7,0,1.1,0,1.1l0.7,0c0.2,0,0.5,0,0.8,0c0.5,0,0.8,0.2,0.8,0.5c0,0.2-0.1,0.3-0.2,0.4c-0.2,0.1-0.4,0.1-0.6,0.1h-1.7
		C201.4,37.3,201.3,37.2,201.1,37.1z"/>
	<path class="st5" d="M211.1,36.9c0.1-0.3,0.2-1.4,0.2-3.4c0-0.5,0-1-0.1-1.5l-0.1-0.6c0-0.4-0.1-0.6-0.1-0.8V30
		c-0.1-0.3-0.4-1-0.7-1.9c-0.4-0.9-0.6-1.7-0.8-2.3c-0.3-0.7-0.4-1.2-0.4-1.4v-0.1l0.5-0.3c0.2,0,0.5,0.3,0.7,0.9
		c0.2,0.5,0.5,1.2,0.7,2.1c0.3,0.9,0.4,1.4,0.4,1.5c0.1-0.1,0.2-0.6,0.3-1.5c0.2-0.9,0.3-1.6,0.5-2.3c0.2-0.7,0.5-1,0.7-1
		c0.1,0,0.2,0,0.3,0.1s0.2,0.2,0.2,0.3c0,0.7-0.2,1.6-0.6,2.9c-0.4,1.3-0.6,2.3-0.6,2.9v6c0,0.9-0.2,1.3-0.7,1.3
		C211.5,37.3,211.3,37.2,211.1,36.9z"/>
	<path class="st5" d="M216.1,37.1c-0.1-0.1-0.2-0.3-0.2-0.4v-0.5v-0.4c0-0.1,0-0.3,0-0.4c0-0.3,0-0.7-0.1-1.3l0-1.3
		c0-0.7,0-1.6,0.1-2.9c0.1-1.2,0.1-2.1,0.1-2.9c0-0.2,0-0.5-0.1-0.8c0-0.4-0.1-0.7-0.1-0.8c0-0.9,0.3-1.4,0.8-1.4
		c0.4,0,1,0.1,1.5,0.3c0.6,0.2,0.9,0.4,0.9,0.6c0,0.1-0.1,0.3-0.2,0.4c-0.1,0.1-0.2,0.2-0.4,0.3c-0.6-0.2-1.1-0.3-1.5-0.4
		c0,0.2,0,0.5,0,0.9c0,0.5,0,1,0,1.4c0,0.6-0.1,1.1-0.1,1.4L217,29l0.3,0c0.1,0,0.2,0,0.4,0c0.6,0,1,0.2,1,0.6
		c0,0.1-0.1,0.3-0.2,0.4c-0.1,0.1-0.3,0.1-0.5,0.1c-0.2,0-0.4,0-0.6,0h-0.5c0,0.3,0,0.9,0,1.5s0,1.3,0,1.8c0,0.8-0.1,1.4-0.1,1.8
		c0,0.7,0,1.1,0,1.1l0.7,0c0.2,0,0.5,0,0.8,0c0.5,0,0.8,0.2,0.8,0.5c0,0.2-0.1,0.3-0.2,0.4c-0.2,0.1-0.4,0.1-0.6,0.1h-1.7
		C216.4,37.3,216.3,37.2,216.1,37.1z"/>
	<path class="st5" d="M222.5,36.7l0-0.8c0-0.2,0-0.5,0-0.8l0-0.7c0-0.1-0.1-1.6-0.3-4.4s-0.3-4.6-0.3-5.3c-0.8,0-1.3-0.1-1.5-0.2
		c-0.1-0.1-0.2-0.2-0.2-0.4c0-0.1,0.1-0.2,0.2-0.3c0.1-0.1,0.3-0.1,0.4-0.1c0.4,0,0.8,0,1.4,0.1c0.5,0.1,1,0.1,1.4,0.1h0.2h0.2
		c0.4,0,0.6,0.2,0.6,0.5c0,0.2-0.1,0.3-0.2,0.4c-0.1,0.1-0.3,0.2-0.5,0.2c-0.1,0-0.3,0-0.5-0.1l-0.4-0.1l0,0.1l0,0.1
		c0,1.2,0.1,3.1,0.3,5.7c0.2,2.4,0.3,4.3,0.3,5.7c0,0.2-0.1,0.3-0.2,0.4c-0.1,0.1-0.3,0.2-0.5,0.2L222.5,36.7z"/>
	<path class="st5" d="M227.6,37.1c-0.1-0.1-0.2-0.3-0.2-0.5c0-0.2,0.1-0.4,0.2-0.5c0.1-0.2,0.3-0.2,0.5-0.2c0.2,0,0.4,0.1,0.5,0.2
		c0.1,0.2,0.2,0.3,0.2,0.5c0,0.2-0.1,0.4-0.2,0.5c-0.2,0.1-0.3,0.2-0.6,0.2C227.8,37.4,227.7,37.3,227.6,37.1z"/>
	<path class="st5" d="M230.9,37.1c-0.1-0.1-0.2-0.3-0.2-0.5c0-0.2,0.1-0.4,0.2-0.5c0.1-0.2,0.3-0.2,0.5-0.2c0.2,0,0.4,0.1,0.5,0.2
		c0.1,0.2,0.2,0.3,0.2,0.5c0,0.2-0.1,0.4-0.2,0.5c-0.2,0.1-0.3,0.2-0.6,0.2C231.2,37.4,231.1,37.3,230.9,37.1z"/>
	<path class="st5" d="M234.3,37.1c-0.1-0.1-0.2-0.3-0.2-0.5c0-0.2,0.1-0.4,0.2-0.5c0.1-0.2,0.3-0.2,0.5-0.2c0.2,0,0.4,0.1,0.5,0.2
		c0.1,0.2,0.2,0.3,0.2,0.5c0,0.2-0.1,0.4-0.2,0.5c-0.2,0.1-0.3,0.2-0.6,0.2C234.6,37.4,234.5,37.3,234.3,37.1z"/>
</g>
</svg>
