<?xml version="1.0" encoding="utf-8"?>
<!-- Generator: Adobe Illustrator 23.0.1, SVG Export Plug-In . SVG Version: 6.00 Build 0)  -->
<svg version="1.1" id="Layer_1" xmlns="http://www.w3.org/2000/svg" xmlns:xlink="http://www.w3.org/1999/xlink" x="0px" y="0px"
	 viewBox="0 0 360 360" style="enable-background:new 0 0 360 360;" xml:space="preserve">
<style type="text/css">
	.st0{fill:#FFC2DE;}
	.st1{opacity:0.1;fill:url(#SVGID_1_);enable-background:new    ;}
	.st2{opacity:0.1;fill:url(#SVGID_2_);enable-background:new    ;}
	.st3{enable-background:new    ;}
	.st4{fill:#5E5E5E;}
	.st5{fill:#FF6300;}
	.st6{fill:#FFFEE6;}
	.st7{fill:#58595B;}
	.st8{fill:#F9E531;}
	.st9{fill:#005CFF;}
</style>
<rect class="st0" width="360" height="360"/>
<radialGradient id="SVGID_1_" cx="180.6" cy="54.3445" r="99.4249" gradientTransform="matrix(1 0 0 -1 0 362)" gradientUnits="userSpaceOnUse">
	<stop  offset="0" style="stop-color:#603813"/>
	<stop  offset="1" style="stop-color:#FFFFFF"/>
</radialGradient>
<ellipse class="st1" cx="180.6" cy="307.7" rx="93.3" ry="4.4"/>
<radialGradient id="SVGID_2_" cx="180.9" cy="52.617" r="99.4475" gradientTransform="matrix(1 0 0 -1 0 362)" gradientUnits="userSpaceOnUse">
	<stop  offset="0" style="stop-color:#603813"/>
	<stop  offset="1" style="stop-color:#FFFFFF"/>
</radialGradient>
<ellipse class="st2" cx="180.9" cy="309.4" rx="93.3" ry="4.4"/>
<g class="st3">
	<path class="st4" d="M93.7,35.8c0-0.6-0.3-2.9-0.8-6.9c-0.6-3.9-0.9-6.1-1-6.4c0.2-0.3,0.4-0.5,0.7-0.5c0.3,0,0.6,0.7,0.9,2.1
		c0.3,1.5,0.5,3.1,0.6,5l0.1,1.6c0.1,0.9,0.1,1.4,0.1,1.4l0.2-1.7l0.1-1c0.2-1.5,0.3-2.6,0.3-3.2c0.1-0.8,0.1-1.4,0.1-1.7v-0.4
		c0-0.1,0.1-0.3,0.2-0.4c0.1-0.1,0.2-0.2,0.4-0.2c0.5,0,0.7,0.2,0.7,0.6v0.3c0,0.8,0.1,1.6,0.2,2.5s0.4,1.9,0.7,3.1
		c0.2,0.7,0.4,1.6,0.6,2.6c0-0.4,0.2-1.5,0.4-3.2c0.2-1.5,0.4-2.9,0.5-4c0.1-1.1,0.1-2.1,0.1-3c0-0.3,0-0.5,0.1-0.6s0.3-0.2,0.6-0.2
		c0.2,0,0.3,0,0.4,0.2c0.1,0.1,0.2,0.2,0.2,0.4c0,0.1-0.1,0.3-0.2,0.5c0,1-0.1,2.1-0.2,3.4c-0.1,1.3-0.3,2.5-0.5,3.7
		c-0.2,1.1-0.4,2.3-0.5,3.7c-0.1,1.3-0.2,2.4-0.2,3.4c0,0.2-0.1,0.4-0.1,0.5c-0.1,0.1-0.2,0.2-0.5,0.2c-0.1,0-0.3-0.3-0.5-0.8
		c-0.3-0.8-0.6-2.3-0.9-4.5L96,29.6l-0.2-1.3c-0.2,1.2-0.3,2.2-0.4,2.9c-0.1,0.7-0.2,1.6-0.2,2.6c-0.1,1-0.1,1.9-0.1,2.9
		c0,0.1-0.1,0.3-0.2,0.4c-0.1,0.1-0.2,0.2-0.4,0.2C94,37.3,93.7,36.8,93.7,35.8z"/>
	<path class="st4" d="M105.2,33.7l0-1.1l0-0.9v-0.1v-0.2c0-0.1,0-0.2,0-0.4c0,0,0-0.1-0.1-0.1s-0.1-0.1-0.1-0.1v0
		c-0.1,0-0.2,0-0.4,0c-0.2,0-0.4,0-0.6-0.1c-0.1,0-0.3,0-0.6-0.1V33c0,0.3,0,0.9,0.1,1.6c0,0.7,0.1,1.3,0.1,1.6
		c0,0.2-0.1,0.4-0.2,0.5S103.2,37,103,37c-0.3,0-0.4-0.2-0.5-0.7c-0.1-0.5-0.2-1.2-0.2-2l0-1.6c0-0.5,0-0.9,0-1.4v-0.3v-0.3
		c0-0.2,0-0.4,0-0.4v-0.1l0.1-1.2c0-0.5,0-1.3-0.1-2.3c0-1-0.1-1.8-0.1-2.3c0-0.2,0.1-0.3,0.2-0.4c0.1-0.1,0.2-0.2,0.4-0.2
		c0.4,0,0.6,0.4,0.6,1.2l0,2.5c0,0.7,0,1.6,0,2.5c0.2,0.1,0.6,0.1,1.1,0.1h0.7c0-0.1,0-0.2,0-0.2c0-0.6,0-1.6-0.1-2.8
		c-0.1-1.2-0.1-2.1-0.1-2.9c0-0.1,0.1-0.3,0.2-0.4c0.1-0.1,0.2-0.2,0.4-0.2c0.1,0,0.2,0,0.4,0.1l0.2,0.1c0,1.9,0.1,4.4,0.2,7.6
		l0.2,5.1c0,0.2-0.1,0.3-0.2,0.4c-0.1,0.1-0.3,0.2-0.5,0.2C105.4,37,105.2,35.9,105.2,33.7z"/>
	<path class="st4" d="M112.2,37.1c-0.1-0.1-0.2-0.3-0.2-0.5c0-0.4-0.1-1.1-0.2-2l-0.1-0.4l-2-0.3c-0.1,0.3-0.2,0.9-0.3,1.9
		c-0.1,0.7-0.2,1.1-0.4,1.3c-0.1,0.1-0.2,0.2-0.4,0.2c-0.2,0-0.3,0-0.4-0.1c-0.1-0.1-0.2-0.2-0.2-0.4l0-0.1l0-0.1
		c0.9-3.4,1.5-6.8,2-10.1c0-0.1,0-0.1,0-0.3s0-0.3,0-0.5c0-0.5,0.1-0.9,0.1-1.2c0-0.3,0.1-0.5,0.2-0.7h0.7c0.2,0,0.3,0,0.5,0.1
		c0.1,0.1,0.2,0.2,0.2,0.4c0,1,0.1,2.5,0.4,4.5c0.3,2.1,0.4,3.5,0.4,4.3c0,0.1,0,0.3,0.1,0.6c0.1,0.3,0.1,0.5,0.1,0.6
		s0.1,0.5,0.2,1.2c0.1,0.6,0.2,1.1,0.2,1.2v0c0,0.3-0.1,0.5-0.3,0.6C112.6,37.2,112.4,37.2,112.2,37.1z M111.5,32.6
		c0-1.2-0.1-2.7-0.3-4.6L111,26c-0.6,3.1-1,5.5-1.2,7.1c0.2,0.1,0.8,0.2,1.8,0.3C111.6,33.2,111.5,32.9,111.5,32.6z"/>
	<path class="st4" d="M116.1,36.7l0-0.8c0-0.2,0-0.5,0-0.8l0-0.7c0-0.1-0.1-1.6-0.3-4.4s-0.3-4.6-0.3-5.3c-0.8,0-1.3-0.1-1.5-0.2
		c-0.1-0.1-0.2-0.2-0.2-0.4c0-0.1,0.1-0.2,0.2-0.3c0.1-0.1,0.3-0.1,0.4-0.1c0.4,0,0.8,0,1.4,0.1c0.5,0.1,1,0.1,1.4,0.1h0.2h0.2
		c0.4,0,0.6,0.2,0.6,0.5c0,0.2-0.1,0.3-0.2,0.4c-0.1,0.1-0.3,0.2-0.5,0.2c-0.1,0-0.3,0-0.5-0.1l-0.4-0.1l0,0.1l0,0.1
		c0,1.2,0.1,3.1,0.3,5.7c0.2,2.4,0.3,4.3,0.3,5.7c0,0.2-0.1,0.3-0.2,0.4s-0.3,0.2-0.5,0.2L116.1,36.7z"/>
	<path class="st4" d="M127,37.1c-0.1-0.1-0.2-0.3-0.2-0.5c0-0.4-0.1-1.1-0.2-2l-0.1-0.4l-2-0.3c-0.1,0.3-0.2,0.9-0.3,1.9
		c-0.1,0.7-0.2,1.1-0.4,1.3c-0.1,0.1-0.2,0.2-0.4,0.2c-0.2,0-0.3,0-0.4-0.1c-0.1-0.1-0.2-0.2-0.2-0.4l0-0.1l0-0.1
		c0.9-3.4,1.5-6.8,2-10.1c0-0.1,0-0.1,0-0.3s0-0.3,0-0.5c0-0.5,0.1-0.9,0.1-1.2c0-0.3,0.1-0.5,0.2-0.7h0.7c0.2,0,0.3,0,0.5,0.1
		c0.1,0.1,0.2,0.2,0.2,0.4c0,1,0.1,2.5,0.4,4.5c0.3,2.1,0.4,3.5,0.4,4.3c0,0.1,0,0.3,0.1,0.6c0.1,0.3,0.1,0.5,0.1,0.6
		s0.1,0.5,0.2,1.2c0.1,0.6,0.2,1.1,0.2,1.2v0c0,0.3-0.1,0.5-0.3,0.6C127.4,37.2,127.1,37.2,127,37.1z M126.3,32.6
		c0-1.2-0.1-2.7-0.3-4.6l-0.2-2.1c-0.6,3.1-1,5.5-1.2,7.1c0.2,0.1,0.8,0.2,1.8,0.3C126.3,33.2,126.3,32.9,126.3,32.6z"/>
	<path class="st4" d="M137.2,36.8v-1.3v-1.3c0-0.7,0-1.5-0.1-2.6c-0.1-1.2-0.2-2-0.2-2.5l0-1.2c0-0.4,0-0.8,0-1.2
		c-0.1,0.2-0.3,1.1-0.7,2.8c-0.4,1.6-0.8,3.1-1.2,4.5c-0.4,1.3-0.7,2-1,2c-0.3,0-0.5-0.1-0.6-0.2c-0.2-0.2-0.2-0.4-0.2-0.6
		c0-0.6-0.2-1.8-0.7-3.7c-0.5-1.9-0.9-3.5-1.3-4.7l-0.1,2.3c-0.1,1.9-0.2,3.5-0.2,4.8c0,1.2,0,2.1,0,2.5c0,0.1,0,0.2,0,0.3v0.3
		c0,0.2,0,0.4-0.1,0.5c-0.1,0.1-0.3,0.2-0.5,0.2c-0.1,0-0.3-0.1-0.4-0.2c-0.1-0.1-0.2-0.2-0.2-0.3c0-1.4,0.1-3.4,0.3-6.1
		s0.3-4.8,0.3-6.1c-0.1-0.1-0.1-0.2-0.1-0.4c0-0.2,0.1-0.3,0.2-0.4c0.2-0.1,0.3-0.1,0.5-0.1c0.2,0,0.5,0.6,1,1.9
		c0.5,1.3,0.9,2.7,1.4,4.3s0.8,2.7,0.9,3.4c0.1-0.4,0.2-0.7,0.3-1l0.1-0.5c0.4-1.9,0.9-3.6,1.3-5.1c0.3-0.9,0.5-1.6,0.7-2.2
		c0.2-0.6,0.5-0.8,0.7-0.8c0.2,0,0.4,0,0.5,0.2c0.2,0.1,0.2,0.2,0.2,0.4c0,1,0,2.4,0.1,4.3c0.1,1.8,0.1,3.2,0.1,4.2l0,1.1l0,1.1
		c0,0.2,0,0.4,0.1,0.7l0.1,0.7c0,0.1,0,0.2,0,0.3c0,0.1,0,0.1,0,0.1c0.1,0.2,0.1,0.3,0.1,0.4c0,0.2-0.1,0.4-0.2,0.6
		c-0.1,0.2-0.3,0.3-0.5,0.3C137.4,38.1,137.2,37.7,137.2,36.8z"/>
	<path class="st4" d="M144.1,36.4c0-0.3,0.2-0.5,0.6-0.5h0.2c0.1,0,0.1,0,0.2,0c0.1,0,0.2,0,0.2-0.1c0-0.1,0.1-0.2,0.1-0.4
		c0-1.1-0.1-2.7-0.2-4.6c-0.1-2-0.2-3.6-0.2-4.6c0-0.4,0-0.7,0-1l0-1c0-0.4,0-0.8-0.1-1.1c-0.1,0.1-0.3,0.1-0.5,0.1
		c-0.3,0-0.5-0.2-0.5-0.5c0-0.2,0.1-0.3,0.3-0.4s0.4-0.2,0.8-0.3c0.6-0.1,1-0.1,1.4-0.1c0.2,0,0.3,0.1,0.4,0.2s0.2,0.2,0.2,0.4
		c0,0.1,0,0.3-0.1,0.4c-0.1,0.1-0.2,0.2-0.3,0.2c-0.1,0-0.1,0-0.2,0h-0.2c-0.1,0-0.2,0-0.3,0.1c-0.1,0.1-0.1,0.2-0.1,0.3
		c0,1.4,0.1,3.4,0.3,5.8c0.2,2.6,0.2,4.6,0.2,5.9v0.8c0.1,0,0.2,0,0.4,0c0.6,0,0.8,0.2,0.8,0.7v0.1l-0.5,0.3c0,0-0.1,0-0.1,0
		c-0.1,0-0.2,0-0.4,0c-0.5,0-0.7,0-0.8,0C144.7,37,144.1,36.8,144.1,36.4z"/>
	<path class="st4" d="M156.7,37.1c-0.1-0.1-0.2-0.3-0.2-0.5c0-0.4-0.1-1.1-0.2-2l-0.1-0.4l-2-0.3c-0.1,0.3-0.2,0.9-0.3,1.9
		c-0.1,0.7-0.2,1.1-0.4,1.3c-0.1,0.1-0.2,0.2-0.4,0.2c-0.2,0-0.3,0-0.4-0.1c-0.1-0.1-0.2-0.2-0.2-0.4l0-0.1l0-0.1
		c0.9-3.4,1.5-6.8,2-10.1c0-0.1,0-0.1,0-0.3s0-0.3,0-0.5c0-0.5,0.1-0.9,0.1-1.2c0-0.3,0.1-0.5,0.2-0.7h0.7c0.2,0,0.3,0,0.5,0.1
		c0.1,0.1,0.2,0.2,0.2,0.4c0,1,0.1,2.5,0.4,4.5c0.3,2.1,0.4,3.5,0.4,4.3c0,0.1,0,0.3,0.1,0.6c0.1,0.3,0.1,0.5,0.1,0.6
		s0.1,0.5,0.2,1.2c0.1,0.6,0.2,1.1,0.2,1.2v0c0,0.3-0.1,0.5-0.3,0.6C157,37.2,156.8,37.2,156.7,37.1z M156,32.6
		c0-1.2-0.1-2.7-0.3-4.6l-0.2-2.1c-0.6,3.1-1,5.5-1.2,7.1c0.2,0.1,0.8,0.2,1.8,0.3C156,33.2,156,32.9,156,32.6z"/>
	<path class="st4" d="M159.8,37.2c-0.2-0.7-0.3-1.7-0.3-2.9l0-1.8c0-0.5,0-1.1,0-1.8c-0.1-0.2-0.1-0.4-0.1-0.5v-0.1
		c0.1-0.3,0.2-0.8,0.2-1.7l0-0.9c0-0.3,0-0.6,0-1c0-0.8-0.1-1.4-0.2-1.9c0-0.2,0.1-0.3,0.2-0.5c0.1-0.1,0.2-0.2,0.3-0.2h0.9
		c0.4,0,0.7,0.1,1,0.2c0.3,0.2,0.5,0.4,0.6,0.7c0.3,0.5,0.4,1.2,0.4,1.9c0,0.5,0,1,0,1.3c0,0.4-0.1,0.7-0.2,1.1
		c0,0.2-0.1,0.3-0.2,0.4c-0.1,0.1-0.2,0.2-0.3,0.4c-0.2,0.2-0.5,0.4-0.9,0.6c-0.2,0.1-0.4,0.2-0.7,0.3V33l0,1.3l0,0.6
		c0.1,0.7,0.1,1.4,0.1,1.9c0,0.2-0.1,0.3-0.2,0.4s-0.3,0.2-0.5,0.2L159.8,37.2z M161.9,26.7c0-0.4,0-0.7-0.1-0.9
		c0-0.2-0.1-0.3-0.2-0.4c-0.1-0.1-0.2-0.2-0.3-0.2c-0.1-0.1-0.3-0.1-0.5-0.1c0,0-0.1,0-0.2,0v1.1c0,0.8,0,1.5,0,2.1
		c0,0.7,0,1.1,0,1.4V30v0C161.5,30,161.9,28.8,161.9,26.7z"/>
	<path class="st4" d="M165.4,37.2c-0.2-0.7-0.3-1.7-0.3-2.9l0-1.8c0-0.5,0-1.1,0-1.8c-0.1-0.2-0.1-0.4-0.1-0.5v-0.1
		c0.1-0.3,0.2-0.8,0.2-1.7l0-0.9c0-0.3,0-0.6,0-1c0-0.8-0.1-1.4-0.2-1.9c0-0.2,0.1-0.3,0.2-0.5c0.1-0.1,0.2-0.2,0.3-0.2h0.9
		c0.4,0,0.7,0.1,1,0.2c0.3,0.2,0.5,0.4,0.6,0.7c0.3,0.5,0.4,1.2,0.4,1.9c0,0.5,0,1,0,1.3c0,0.4-0.1,0.7-0.2,1.1
		c0,0.2-0.1,0.3-0.2,0.4c-0.1,0.1-0.2,0.2-0.3,0.4c-0.2,0.2-0.5,0.4-0.9,0.6c-0.2,0.1-0.4,0.2-0.7,0.3V33l0,1.3l0,0.6
		c0.1,0.7,0.1,1.4,0.1,1.9c0,0.2-0.1,0.3-0.2,0.4s-0.3,0.2-0.5,0.2L165.4,37.2z M167.6,26.7c0-0.4,0-0.7-0.1-0.9
		c0-0.2-0.1-0.3-0.2-0.4c-0.1-0.1-0.2-0.2-0.3-0.2c-0.1-0.1-0.3-0.1-0.5-0.1c0,0-0.1,0-0.2,0v1.1c0,0.8,0,1.5,0,2.1
		c0,0.7,0,1.1,0,1.4V30v0C167.2,30,167.6,28.8,167.6,26.7z"/>
	<path class="st4" d="M171.9,37.1c-0.2,0.1-0.4,0.2-0.7,0.2c-0.2,0-0.3-0.1-0.4-0.2c-0.1-0.1-0.2-0.3-0.2-0.5c0-1.1,0-2.6,0.1-4.5
		c0.1-2,0.1-3.5,0.1-4.5v-0.1c-0.1-0.8-0.1-1.5-0.1-1.9c0-1.3,0.2-1.9,0.7-1.9c0.1,0,0.2,0,0.4,0.2c0.1,0.1,0.1,0.2,0.1,0.3
		c0,0.2,0,0.4-0.1,0.8c0,0.3-0.1,0.6-0.1,0.8c0,0.9,0,1.7,0,2.4c0,0.7,0,1.5,0,2.4c-0.1,0.2-0.1,0.5-0.1,0.8v0.2l0,1.6
		c0,0.5,0,1,0,1.6c0,0.9,0.2,1.4,0.7,1.4c0,0,0.1,0,0.1,0s0.1,0,0.2,0c0.1,0,0.3,0,0.5,0c0.7,0,1.1,0.2,1.1,0.6
		c0,0.1-0.1,0.2-0.2,0.3c-0.1,0.1-0.3,0.2-0.4,0.2C173.2,37.2,172.6,37.1,171.9,37.1z"/>
	<path class="st4" d="M177,36.9c0.1-0.3,0.2-1.4,0.2-3.4c0-0.5,0-1-0.1-1.5l-0.1-0.6c0-0.4-0.1-0.6-0.1-0.8V30
		c-0.1-0.3-0.4-1-0.7-1.9c-0.4-0.9-0.6-1.7-0.8-2.3c-0.3-0.7-0.4-1.2-0.4-1.4v-0.1l0.5-0.3c0.2,0,0.5,0.3,0.7,0.9
		c0.2,0.5,0.5,1.2,0.7,2.1c0.3,0.9,0.4,1.4,0.4,1.5c0.1-0.1,0.2-0.6,0.3-1.5c0.2-0.9,0.3-1.6,0.5-2.3c0.2-0.7,0.5-1,0.7-1
		c0.1,0,0.2,0,0.3,0.1c0.1,0.1,0.2,0.2,0.2,0.3c0,0.7-0.2,1.6-0.6,2.9c-0.4,1.3-0.6,2.3-0.6,2.9v6c0,0.9-0.2,1.3-0.7,1.3
		C177.4,37.3,177.2,37.2,177,36.9z"/>
	<path class="st4" d="M180.9,36.4c0-0.3,0.2-0.5,0.6-0.5h0.2l0.2,0c0.1,0,0.2,0,0.2-0.1s0.1-0.2,0.1-0.4c0-0.2,0-0.6,0-1.1
		c0-0.3-0.1-0.9-0.1-1.7c-0.1-2-0.2-3.6-0.2-4.6c0-0.4,0-0.7,0-1l0-1c0-0.4,0-0.8-0.1-1.1c-0.2,0.1-0.4,0.1-0.5,0.1
		c-0.3,0-0.5-0.2-0.5-0.5c0-0.2,0.1-0.3,0.3-0.4c0.2-0.1,0.5-0.2,0.8-0.3c0.5-0.1,1-0.2,1.4-0.2c0.2,0,0.3,0.1,0.4,0.2
		c0.1,0.1,0.2,0.2,0.2,0.4s0,0.3-0.1,0.4s-0.2,0.2-0.3,0.2c-0.1,0-0.1,0-0.2,0h-0.2c-0.1,0-0.2,0-0.3,0.1c-0.1,0.1-0.1,0.2-0.1,0.3
		c0,1.3,0.1,3.2,0.2,5.8c0,0.5,0.1,1.2,0.2,2.1c0.1,0.6,0.1,1.2,0.1,1.9v0.8c0.1,0,0.2,0,0.4,0c0.6,0,0.8,0.2,0.8,0.7v0.1L184,37
		c0,0-0.1,0-0.1,0c-0.1,0-0.2,0-0.4,0c-0.4,0-0.7,0-0.8,0C181.5,37,180.9,36.8,180.9,36.4z"/>
	<path class="st4" d="M191.2,37c-0.1-0.1-0.1-0.2-0.2-0.4l-0.1-0.4v0V36c0-0.4-0.5-1.9-1.4-4.5c-0.9-2.6-1.6-4.5-2.2-5.7v10.1
		l0.1,0.1c0,0,0,0.1,0.1,0.1s0.1,0.1,0.1,0.2c0,0.2-0.1,0.3-0.2,0.4S187.2,37,187,37c-0.4,0-0.6-0.4-0.6-1.2l0-3.4c0-1,0-2.2,0-3.4
		c0-0.4,0-1,0.1-1.9c0-0.8,0.1-1.5,0.1-1.9c0-0.6,0.2-1.1,0.7-1.5v0.1c0.1,0,0.1,0,0.2,0c0.3,0,0.7,0.5,1.2,1.6
		c0.4,0.9,0.7,1.8,1,2.7c0.3,0.9,0.7,2.3,1.2,4l0.2,0.7c0.3,1.1,0.5,1.9,0.7,2.3c0.3-2.9,0.4-6.3,0.4-10.2v-0.3c0-0.1,0-0.2,0-0.3
		c0-0.4,0.2-0.6,0.5-0.6c0.2,0,0.3,0.1,0.4,0.2c0.1,0.1,0.1,0.3,0.1,0.6v1.5c0,2.1-0.1,4.3-0.2,6.7c-0.1,2.4-0.3,3.8-0.5,4.1
		c-0.4,0.1-0.6,0.2-0.7,0.2C191.5,37.1,191.3,37.1,191.2,37z"/>
	<path class="st4" d="M197.3,37c-0.3-0.1-0.6-0.3-0.8-0.5c-0.2-0.2-0.3-0.5-0.5-0.8s-0.3-0.7-0.3-1c-0.1-0.3-0.1-0.6-0.2-1.1
		c0-0.5-0.1-0.9-0.1-1.2v-1.2v-0.8c0-0.8,0-1.4,0-1.9c0-0.6,0.1-1.2,0.3-1.9c0.1-0.6,0.3-1.1,0.6-1.6c0.3-0.5,0.7-0.8,1.2-0.9
		c0.2-0.1,0.5-0.1,0.8-0.1c0.6,0,0.9,0.2,0.9,0.5c0,0.2-0.1,0.3-0.2,0.4s-0.3,0.2-0.4,0.2c-0.1,0-0.2,0-0.2,0c-0.1,0-0.1,0-0.2,0
		c-0.2,0-0.4,0.1-0.6,0.4c-0.2,0.2-0.3,0.6-0.4,1c-0.2,0.8-0.4,1.7-0.4,2.7c-0.1,0.9-0.1,1.6-0.1,2c0,0.5,0,1.1,0.1,1.9
		c0.1,0.7,0.2,1.4,0.3,1.9c0.1,0.3,0.2,0.6,0.3,0.8c0.1,0.2,0.3,0.4,0.5,0.5c0.2,0.1,0.5,0.2,0.7,0.2c0.6,0,1-1.1,1-3.2V32
		c-0.1,0-0.2-0.1-0.5-0.1h-0.2h-0.2c-0.5,0-0.7-0.2-0.7-0.5c0-0.2,0.1-0.3,0.2-0.4c0.1-0.1,0.3-0.1,0.5-0.1v0h0.3
		c1.2,0,1.8,0.2,1.8,0.6c0,0.1,0,0.4-0.1,0.7c-0.1,0.3-0.1,0.6-0.1,0.7c0,0.2,0,0.6,0.1,1.1l0,1.1c0,0.6-0.2,1.1-0.7,1.5
		c-0.4,0.4-1,0.5-1.6,0.5C198,37.2,197.6,37.1,197.3,37z"/>
	<path class="st4" d="M206,36.9c0.1-1.1,0.2-2.8,0.3-5.1c0.1-2.4,0.1-3.8,0.1-4.3V27c0.1-1.3,0.1-2.2,0.1-2.7c0-0.2,0.1-0.3,0.2-0.4
		c0.2-0.1,0.3-0.2,0.5-0.2c0.5,0,1,0,1.5,0.1c0.3,0.1,0.6,0.1,0.8,0.3c0.2,0.1,0.3,0.3,0.3,0.4c0,0.4-0.3,0.6-1,0.6
		c-0.3-0.1-0.6-0.2-1-0.2h-0.2v0.2c0,0.5,0,1.2-0.1,2c-0.1,0.7-0.1,1.4-0.1,2v0.5h0.2h0.2c0.7,0,1,0.2,1,0.5c0,0.2-0.1,0.3-0.2,0.4
		c-0.1,0.1-0.3,0.2-0.5,0.2c-0.3,0-0.6,0-0.8-0.1v5.7c0,0.6-0.2,0.9-0.5,0.9C206.5,37.2,206.3,37.1,206,36.9z"/>
	<path class="st4" d="M212.6,37.1c-0.3-0.2-0.5-0.5-0.7-0.9c-0.4-0.8-0.6-1.7-0.7-2.7c-0.1-0.9-0.2-1.8-0.2-2.6c0-0.2,0-0.3,0-0.4
		v-0.4c0-0.1,0-0.1,0-0.1v-0.4l0-1.4c0-0.4,0.1-1.1,0.2-2c0.1-0.6,0.2-1.3,0.5-1.9c0.1-0.3,0.2-0.5,0.4-0.6c0.1-0.1,0.3-0.2,0.5-0.2
		c0.5,0,1,0.1,1.4,0.3s0.8,0.5,1.1,0.8c0.3,0.3,0.5,0.7,0.7,1.2c0.2,0.5,0.3,1,0.4,1.5c0.1,0.6,0.1,1.2,0.1,1.8v0.2
		c0,0.4,0,0.8,0,1.1l0,1.1c0,3.8-0.9,5.8-2.7,5.8C213.2,37.4,212.9,37.3,212.6,37.1z M214.2,36.3c0.2-0.2,0.4-0.5,0.5-0.8
		c0.3-0.7,0.4-1.4,0.5-2.2c0.1-0.7,0.1-1.3,0.1-1.8c0-0.6,0-1.4-0.1-2.4c-0.1-1-0.1-1.8-0.1-2.3v-0.4c0-0.5-0.2-0.9-0.5-1.3
		c-0.3-0.4-0.7-0.6-1.2-0.6s-0.8,0.3-0.9,0.8c-0.1,0.4-0.2,0.9-0.2,1.6c0,0.3,0,0.5,0,0.6v0.5l0,0.9c0,0.3,0,0.6,0,0.9
		c0,0.7,0,1.4,0.1,2.1c0.1,1,0.2,2,0.4,2.9c0.2,1,0.5,1.5,0.9,1.5C213.8,36.6,214,36.5,214.2,36.3z"/>
	<path class="st4" d="M221.1,36.4c-0.3-0.7-0.5-1.4-0.6-2.1l-0.1-0.7c-0.4-1.9-0.6-3-0.7-3.3h-0.2c0,0.4,0,0.7,0,1.1v1.1
		c0,1.8,0.1,3.2,0.4,4.2l-0.2,0.5H219l-0.3-0.3l0-1.3c0-1.2-0.1-3-0.2-5.5c-0.1-2.6-0.2-4.4-0.2-5.5c0-0.6,0.2-1,0.7-1
		c0.7,0,1.3,0.2,1.8,0.6c0.5,0.4,0.7,0.9,0.7,1.6v1.4c0,0.2,0,0.4-0.1,0.7c-0.1,0.3-0.1,0.5-0.2,0.6l-0.4,0.7l-0.3,0.6l0.1,0.5
		l0.3,1.4c0.2,1,0.4,1.9,0.5,2.5c0.2,0.6,0.4,1.2,0.6,1.7l0.1,0.2c0.1,0.3,0.2,0.5,0.2,0.6c0,0.1,0,0.2-0.1,0.4
		c-0.1,0.1-0.2,0.1-0.3,0.1C221.7,37.4,221.4,37.1,221.1,36.4z M220.2,28.2c0.2-0.7,0.3-1.3,0.3-1.8c0-0.4-0.1-0.8-0.2-1.2
		c-0.1-0.2-0.2-0.4-0.3-0.5c-0.2-0.1-0.3-0.2-0.6-0.2l0,0.1l0,0.2l0,2.4c0,0.7,0,1.4,0,2.3C219.8,29.2,220,28.8,220.2,28.2z"/>
	<path class="st4" d="M231.3,37.1c-0.1-0.1-0.2-0.3-0.2-0.5c0-0.4-0.1-1.1-0.2-2l-0.1-0.4l-2-0.3c-0.1,0.3-0.2,0.9-0.3,1.9
		c-0.1,0.7-0.2,1.1-0.4,1.3c-0.1,0.1-0.2,0.2-0.4,0.2c-0.2,0-0.3,0-0.4-0.1c-0.1-0.1-0.2-0.2-0.2-0.4l0-0.1l0-0.1
		c0.9-3.4,1.5-6.8,2-10.1c0-0.1,0-0.1,0-0.3c0-0.1,0-0.3,0-0.5c0-0.5,0.1-0.9,0.1-1.2c0-0.3,0.1-0.5,0.2-0.7h0.7
		c0.2,0,0.3,0,0.5,0.1c0.1,0.1,0.2,0.2,0.2,0.4c0,1,0.1,2.5,0.4,4.5c0.3,2.1,0.4,3.5,0.4,4.3c0,0.1,0,0.3,0.1,0.6
		c0.1,0.3,0.1,0.5,0.1,0.6s0.1,0.5,0.2,1.2c0.1,0.6,0.2,1.1,0.2,1.2v0c0,0.3-0.1,0.5-0.3,0.6C231.6,37.2,231.4,37.2,231.3,37.1z
		 M230.6,32.6c0-1.2-0.1-2.7-0.3-4.6L230,26c-0.6,3.1-1,5.5-1.2,7.1c0.2,0.1,0.8,0.2,1.8,0.3C230.6,33.2,230.6,32.9,230.6,32.6z"/>
	<path class="st4" d="M235.6,37c-0.3-0.1-0.6-0.3-0.8-0.5c-0.2-0.2-0.3-0.5-0.5-0.8c-0.1-0.4-0.3-0.7-0.3-1
		c-0.1-0.3-0.1-0.6-0.2-1.1c0-0.5-0.1-0.9-0.1-1.2v-1.2v-0.8c0-0.8,0-1.4,0-1.9c0-0.6,0.1-1.2,0.3-1.9c0.1-0.6,0.3-1.1,0.6-1.6
		c0.3-0.5,0.7-0.8,1.2-0.9c0.2-0.1,0.5-0.1,0.8-0.1c0.6,0,0.9,0.2,0.9,0.5c0,0.2-0.1,0.3-0.2,0.4s-0.3,0.2-0.5,0.2
		c-0.1,0-0.2,0-0.2,0c-0.1,0-0.1,0-0.2,0c-0.2,0-0.4,0.1-0.6,0.4c-0.2,0.2-0.3,0.6-0.4,1c-0.2,0.8-0.4,1.7-0.4,2.7
		c-0.1,0.9-0.1,1.6-0.1,2c0,0.5,0,1.1,0.1,1.9c0.1,0.7,0.2,1.4,0.3,1.9c0.1,0.3,0.2,0.6,0.3,0.8s0.3,0.4,0.5,0.5
		c0.2,0.1,0.5,0.2,0.7,0.2c0.6,0,1-1.1,1-3.2V32c-0.1,0-0.2-0.1-0.5-0.1h-0.2h-0.2c-0.5,0-0.7-0.2-0.7-0.5c0-0.2,0.1-0.3,0.2-0.4
		c0.1-0.1,0.3-0.1,0.5-0.1v0h0.3c1.2,0,1.8,0.2,1.8,0.6c0,0.1,0,0.4-0.1,0.7c-0.1,0.3-0.1,0.6-0.1,0.7c0,0.2,0,0.6,0.1,1.1l0,1.1
		c0,0.6-0.2,1.1-0.7,1.5c-0.4,0.4-1,0.5-1.6,0.5C236.2,37.2,235.9,37.1,235.6,37z"/>
	<path class="st4" d="M244.2,37.1c-0.1-0.1-0.2-0.3-0.2-0.5c0-0.4-0.1-1.1-0.2-2l-0.1-0.4l-2-0.3c-0.1,0.3-0.2,0.9-0.3,1.9
		c-0.1,0.7-0.2,1.1-0.4,1.3c-0.1,0.1-0.2,0.2-0.4,0.2c-0.2,0-0.3,0-0.4-0.1c-0.1-0.1-0.2-0.2-0.2-0.4l0-0.1l0-0.1
		c0.9-3.4,1.5-6.8,2-10.1c0-0.1,0-0.1,0-0.3c0-0.1,0-0.3,0-0.5c0-0.5,0.1-0.9,0.1-1.2c0-0.3,0.1-0.5,0.2-0.7h0.7
		c0.2,0,0.3,0,0.5,0.1c0.1,0.1,0.2,0.2,0.2,0.4c0,1,0.1,2.5,0.4,4.5c0.3,2.1,0.4,3.5,0.4,4.3c0,0.1,0,0.3,0.1,0.6
		c0.1,0.3,0.1,0.5,0.1,0.6s0.1,0.5,0.2,1.2c0.1,0.6,0.2,1.1,0.2,1.2v0c0,0.3-0.1,0.5-0.3,0.6C244.5,37.2,244.3,37.2,244.2,37.1z
		 M243.5,32.6c0-1.2-0.1-2.7-0.3-4.6l-0.2-2.1c-0.6,3.1-1,5.5-1.2,7.1c0.2,0.1,0.8,0.2,1.8,0.3C243.5,33.2,243.5,32.9,243.5,32.6z"
		/>
	<path class="st4" d="M246.1,36.4c0-0.3,0.2-0.5,0.6-0.5h0.2l0.2,0c0.1,0,0.2,0,0.2-0.1s0.1-0.2,0.1-0.4c0-0.2,0-0.6,0-1.1
		c0-0.3-0.1-0.9-0.1-1.7c-0.1-2-0.2-3.6-0.2-4.6c0-0.4,0-0.7,0-1l0-1c0-0.4,0-0.8-0.1-1.1c-0.2,0.1-0.4,0.1-0.5,0.1
		c-0.3,0-0.5-0.2-0.5-0.5c0-0.2,0.1-0.3,0.3-0.4c0.2-0.1,0.5-0.2,0.8-0.3c0.5-0.1,1-0.2,1.4-0.2c0.2,0,0.3,0.1,0.4,0.2
		c0.1,0.1,0.2,0.2,0.2,0.4s0,0.3-0.1,0.4s-0.2,0.2-0.3,0.2c-0.1,0-0.1,0-0.2,0h-0.2c-0.1,0-0.2,0-0.3,0.1c-0.1,0.1-0.1,0.2-0.1,0.3
		c0,1.3,0.1,3.2,0.2,5.8c0,0.5,0.1,1.2,0.2,2.1c0.1,0.6,0.1,1.2,0.1,1.9v0.8c0.1,0,0.2,0,0.4,0c0.6,0,0.8,0.2,0.8,0.7v0.1l-0.5,0.3
		c0,0-0.1,0-0.1,0c-0.1,0-0.2,0-0.4,0c-0.4,0-0.7,0-0.8,0C246.7,37,246.1,36.8,246.1,36.4z"/>
	<path class="st4" d="M256.5,37c-0.1-0.1-0.1-0.2-0.2-0.4l-0.1-0.4v0V36c0-0.4-0.5-1.9-1.4-4.5c-0.9-2.6-1.6-4.5-2.2-5.7v10.1
		l0.1,0.1c0,0,0,0.1,0.1,0.1s0.1,0.1,0.1,0.2c0,0.2-0.1,0.3-0.2,0.4s-0.3,0.2-0.4,0.2c-0.4,0-0.6-0.4-0.6-1.2l0-3.4c0-1,0-2.2,0-3.4
		c0-0.4,0-1,0.1-1.9c0-0.8,0.1-1.5,0.1-1.9c0-0.6,0.2-1.1,0.7-1.5v0.1c0.1,0,0.1,0,0.2,0c0.3,0,0.7,0.5,1.2,1.6
		c0.4,0.9,0.7,1.8,1,2.7c0.3,0.9,0.7,2.3,1.2,4l0.2,0.7c0.3,1.1,0.5,1.9,0.7,2.3c0.3-2.9,0.4-6.3,0.4-10.2v-0.3c0-0.1,0-0.2,0-0.3
		c0-0.4,0.2-0.6,0.5-0.6c0.2,0,0.3,0.1,0.4,0.2c0.1,0.1,0.1,0.3,0.1,0.6v1.5c0,2.1-0.1,4.3-0.2,6.7c-0.1,2.4-0.3,3.8-0.5,4.1
		c-0.4,0.1-0.6,0.2-0.7,0.2C256.7,37.1,256.6,37.1,256.5,37z"/>
	<path class="st4" d="M261.8,34.4c0-0.8,0.1-1.7,0.2-2.7s0.3-2.1,0.5-3.5l0.1-0.6c0.2-1.2,0.3-2.1,0.3-2.9c0-1.2-0.2-1.9-0.6-1.9
		c-0.3,0-0.4,0.3-0.4,0.9c0,0.1,0,0.5,0.1,1.1c0,0,0,0.1-0.1,0.1c-0.2,0.2-0.4,0.3-0.5,0.3c-0.4,0-0.6-0.4-0.6-1.3v-0.2
		c0-0.3,0-0.6,0.1-0.9s0.2-0.5,0.4-0.7c0.2-0.2,0.5-0.3,0.8-0.3c0.3,0,0.5,0.1,0.8,0.2c0.2,0.1,0.4,0.3,0.5,0.4
		c0.2,0.3,0.3,0.8,0.4,1.4c0,0.1,0,0.4,0,0.8c0,1.2-0.2,2.5-0.6,3.8c-0.2,0.6-0.3,1.3-0.4,2.2s-0.2,1.8-0.2,2.7c0,0.7,0,1.2,0,1.3
		c-0.2,0-0.4,0-0.4,0c0,0-0.1,0-0.1,0C262,34.9,261.9,34.7,261.8,34.4z M261.8,36.9c-0.1-0.1-0.2-0.3-0.2-0.5c0-0.2,0.1-0.4,0.2-0.5
		c0.2-0.2,0.3-0.2,0.5-0.2c0.2,0,0.3,0.1,0.5,0.3c0.2,0.2,0.2,0.3,0.2,0.5c0,0.5-0.3,0.8-0.8,0.8C262.1,37.1,261.9,37,261.8,36.9z"
		/>
</g>
<g id="Layer_3">
</g>
<g id="Layer_10">
</g>
<g id="Layer_4">
</g>
<g id="Layer_5">
</g>
<g id="Layer_6">
</g>
<g id="Layer_7">
</g>
<g id="Layer_8">
	<g>
		<path class="st5" d="M178.9,308.5h-9.3v-1.9c0-1.1,0.9-2,2-2h7.3V308.5z"/>
		<path class="st5" d="M185.3,308.5h9.3v-1.9c0-1.1-0.9-2-2-2h-7.3V308.5z"/>
	</g>
	<g>
		<rect x="175.3" y="193.6" class="st5" width="3.6" height="110.9"/>
		<rect x="185.3" y="193.6" class="st5" width="3.6" height="110.9"/>
	</g>
	<ellipse class="st4" cx="183.5" cy="111.4" rx="60.5" ry="41.6"/>
	<circle class="st6" cx="183.5" cy="143.8" r="56.8"/>
	<g>
		<ellipse class="st7" cx="179.6" cy="123.4" rx="1.9" ry="3.9"/>
		<ellipse class="st7" cx="187.4" cy="123.4" rx="1.9" ry="3.9"/>
	</g>
	<path class="st5" d="M136.5,175.7c10.2,15,27.5,24.9,47,24.9c19.6,0,36.8-9.9,47-24.9H136.5z"/>
	<g>
		<path class="st8" d="M127.7,154.4c1.5,7.8,4.5,15,8.8,21.3h94c4.3-6.3,7.3-13.5,8.8-21.3H127.7z"/>
	</g>
	<rect x="145.5" y="154.4" class="st9" width="3.5" height="21.1"/>
	<rect x="216.7" y="154.4" class="st9" width="3.5" height="21.5"/>
	<g>
		<circle class="st9" cx="183.5" cy="158.7" r="1.4"/>
		<circle class="st9" cx="183.5" cy="165" r="1.4"/>
		<circle class="st9" cx="183.5" cy="171.4" r="1.4"/>
	</g>
	<path class="st4" d="M143.4,94.7c9.2,8.4,23.7,13.8,40.1,13.8c16.7,0,31.5-5.6,40.6-14.2c0,0-19.2-16.3-42-14.5
		S143.4,94.7,143.4,94.7z"/>
	<g>
		<rect x="235.5" y="154.7" class="st8" width="3.6" height="40.9"/>
		<ellipse class="st6" cx="237.3" cy="194.4" rx="4" ry="3.8"/>
	</g>
	<g>
		<g>
			<path class="st8" d="M129.5,159c-0.4,0-0.8-0.1-1.1-0.4l-11.8-9.6c-0.6-0.5-0.8-1.2-0.6-1.9l10.9-33.9c0.3-0.9,1.3-1.4,2.2-1.1
				s1.4,1.3,1.1,2.2l-10.5,32.8l10.8,8.9c0.7,0.6,0.9,1.7,0.2,2.5C130.5,158.8,130,159,129.5,159z"/>
		</g>
		<path class="st6" d="M128.4,109.2c-0.3-0.5-0.4-1.1-0.5-1.6c-1.9,1-2.7,3.3-1.7,5.2c1,1.9,3.3,2.6,5.3,1.6
			c0.8-0.4,1.4-1.1,1.8-1.8C131.2,112.3,129.4,111.1,128.4,109.2z"/>
	</g>
</g>
<g id="Layer_11">
</g>
<g id="Layer_9">
</g>
</svg>
