<?xml version="1.0" encoding="utf-8"?>
<!-- Generator: Adobe Illustrator 23.0.1, SVG Export Plug-In . SVG Version: 6.00 Build 0)  -->
<svg version="1.1" id="Layer_1" xmlns="http://www.w3.org/2000/svg" xmlns:xlink="http://www.w3.org/1999/xlink" x="0px" y="0px"
	 viewBox="0 0 360 360" style="enable-background:new 0 0 360 360;" xml:space="preserve">
<style type="text/css">
	.st0{fill:#FFC2DE;}
	.st1{opacity:0.1;fill:url(#SVGID_1_);enable-background:new    ;}
	.st2{fill:#005CFF;}
	.st3{fill:#003E99;}
	.st4{fill:#FFFEE6;}
	.st5{fill:#5E5E5E;}
	.st6{clip-path:url(#SVGID_3_);}
	.st7{clip-path:url(#SVGID_5_);}
	.st8{clip-path:url(#SVGID_7_);}
	.st9{clip-path:url(#SVGID_9_);}
	.st10{fill:#FF6300;}
	.st11{fill:none;stroke:#FF6300;stroke-width:4;stroke-miterlimit:10;}
	.st12{fill:#F9E531;}
	.st13{opacity:0.1;fill:url(#SVGID_10_);enable-background:new    ;}
	.st14{enable-background:new    ;}
</style>
<rect class="st0" width="360" height="360"/>
<radialGradient id="SVGID_1_" cx="180.9" cy="52.617" r="99.4475" gradientTransform="matrix(1 0 0 -1 0 362)" gradientUnits="userSpaceOnUse">
	<stop  offset="0" style="stop-color:#603813"/>
	<stop  offset="1" style="stop-color:#FFFFFF"/>
</radialGradient>
<ellipse class="st1" cx="180.9" cy="309.4" rx="93.3" ry="4.4"/>
<g id="Layer_3">
</g>
<g id="Layer_10">
</g>
<g id="Layer_4">
</g>
<g id="Layer_5">
</g>
<g id="Layer_6">
</g>
<g id="Layer_7">
	<path class="st2" d="M209.2,82.5l-55.3,1.4c0,0,1.8,10.9-17,19.5c-13,6-12.7,25.3-9.7,41S116,163.5,116,163.5s50.4,63.2,107.2,12.5
		C244,157.3,254.5,97,209.2,82.5z"/>
	<g>
		<path class="st3" d="M155.5,91.3c0,0-0.5,1.3-1.8,3.3c-0.6,1-1.5,2.2-2.5,3.5s-2.3,2.7-3.7,4.2c-1.5,1.4-3.1,2.9-5.1,4.3
			c-0.9,0.7-1.8,1.5-2.7,2.2c-0.8,0.9-1.7,1.6-2.3,2.7c-0.8,0.9-1.3,2.1-1.9,3.2c-0.2,0.6-0.4,1.2-0.7,1.8c-0.2,0.6-0.3,1.2-0.5,1.8
			c-0.6,2.5-0.9,5.1-0.9,7.8c0,2.7,0.2,5.3,0.4,8c0.3,2.6,0.6,5.2,0.9,7.8c0.3,2.5,0.6,4.9,0.8,7.3c0.2,2.3,0.2,4.7-0.3,6.7
			c-0.4,2.1-1.3,3.9-2.4,5.2c-1.1,1.3-2.4,2.1-3.5,2.7c-0.3,0.1-0.5,0.2-0.8,0.3s-0.5,0.2-0.7,0.2c-0.4,0.1-0.8,0.2-1.1,0.3
			c-0.6,0.1-1,0.2-1,0.2s0.3-0.1,0.9-0.3c0.3-0.1,0.7-0.2,1.1-0.4s0.9-0.4,1.4-0.7c1-0.6,2.1-1.5,3-2.8s1.6-3,1.9-4.9
			c0.1-1,0.2-2,0.2-3.1s-0.1-2.1-0.3-3.3c-0.4-2.3-0.7-4.7-1.1-7.2c-0.4-2.5-0.8-5.1-1.1-7.8s-0.5-5.4-0.5-8.2s0.3-5.6,1-8.2
			c0.2-0.7,0.3-1.3,0.6-2c0.3-0.6,0.5-1.3,0.8-1.9c0.7-1.2,1.3-2.4,2.2-3.4c0.7-1.1,1.8-2,2.7-2.9c1-0.8,1.9-1.4,2.9-2.2
			c1.9-1.3,3.6-2.6,5.1-3.9c3-2.6,5.3-5.2,6.7-7.1C154.8,92.5,155.5,91.3,155.5,91.3z"/>
	</g>
	<ellipse class="st2" cx="182.5" cy="82.5" rx="32.5" ry="28.7"/>
	<g>
		<path class="st3" d="M157.3,94.1c0,0-0.2,0.7-0.6,1.9c-0.5,1.2-1.2,2.9-2.3,4.9c-0.5,1-1.2,2-1.9,3.1c-0.8,1.1-1.6,2.2-2.5,3.2
			c-0.9,1.1-2,2.1-3.2,3c-0.5,0.4-1.1,0.9-1.6,1.4l-0.7,0.7c-0.2,0.3-0.4,0.5-0.7,0.8c-0.5,0.5-0.8,1.1-1.2,1.7
			c-0.3,0.6-0.7,1.2-0.9,1.8c-0.6,1.3-0.9,2.6-1.2,3.9c-0.2,1.3-0.4,2.6-0.4,3.8c0,0.6,0,1.2,0,1.8c0,0.6,0,1.2,0,1.7
			c0.1,2.2,0.3,4,0.4,5.3c0.1,1.3,0.2,2,0.2,2s-0.2-0.7-0.6-1.9c-0.2-0.6-0.4-1.4-0.6-2.3c-0.2-0.9-0.4-1.9-0.6-3
			c-0.1-0.6-0.2-1.1-0.2-1.7c-0.1-0.6-0.1-1.2-0.1-1.9c-0.1-1.3,0-2.7,0.2-4.1s0.5-2.9,1.1-4.3c0.3-0.7,0.7-1.4,1-2.1
			c0.4-0.6,0.8-1.3,1.3-1.9c0.3-0.3,0.5-0.6,0.8-0.9l0.9-0.8c0.6-0.6,1.1-0.9,1.7-1.5c1.1-0.9,2.2-1.7,3.1-2.7
			c1-0.9,1.8-1.9,2.6-2.9s1.5-1.9,2.1-2.8c1.3-1.8,2.2-3.4,2.9-4.5C156.9,94.8,157.3,94.1,157.3,94.1z"/>
	</g>
	<g>
		<rect x="175.4" y="226.3" class="st4" width="3.6" height="72.9"/>
		<rect x="185.3" y="226.3" class="st4" width="3.6" height="72.9"/>
	</g>
	<path class="st4" d="M223.2,156.3c0,11.8-7.2,19.3-8.3,28c-1,7.8,2.7,11.1,2.8,17.6c0.2,25.9-18.8,30.1-34.3,30.2
		c-15,0-35.6-2.2-35.5-30.2c0-4.4,2.9-9.7,2-15.1c-1.5-8.7-9.5-7.2-7.9-30.5c3.7-57.2,17.7-78.3,40.1-78.3S223.2,99,223.2,156.3z"/>
	<path class="st5" d="M222.3,136.4c-10.4,22-32.8,37.2-58.8,37.2c-7.4,0-14.5-1.3-21.1-3.5c0.4,6.8,6.4,11.7,7.2,16.7
		c1,5.8-3.2,10.6-1.7,15.1l0,0l0,0c16.9,2.4,24.1,27.8,24,29.5c0,0,4.1,0.6,9.9,0.6c5.7,0,10.1-0.5,10.1-0.5
		c3.4-19.2,25.6-29.6,25.6-29.6c1.6-5.2-3.7-10.8-2.8-17.6c1.1-8,8.4-13.3,8.6-26.7C223.7,150.1,223.2,142.9,222.3,136.4z"/>
	<g>
		<path class="st5" d="M179,303.1h-9.3v-1.9c0-1.1,0.9-2,2-2h7.3V303.1z"/>
		<path class="st5" d="M185.3,303.1h9.3v-1.9c0-1.1-0.9-2-2-2h-7.3V303.1z"/>
	</g>
	<rect x="176.9" y="299.4" class="st5" width="2.1" height="8.8"/>
	<path class="st5" d="M173.2,308.6h1.5v-6.5h-4.9v3.1C169.8,307.1,171.3,308.6,173.2,308.6z"/>
	<g>
		<rect x="185.3" y="299.4" class="st5" width="2.1" height="8.8"/>
		<path class="st5" d="M189.7,302.1v3.1c0,1.9,1.5,3.4,3.4,3.4h1.5v-6.5H189.7z"/>
	</g>
	<g>
		<path class="st4" d="M146,200.7c-0.5,0-0.9-0.2-1.3-0.5l-9.2-9.7c-0.5-0.5-0.6-1.2-0.4-1.8l7.2-18.7c0.3-0.9,1.4-1.3,2.3-1
			c0.9,0.3,1.4,1.4,1,2.3l-6.8,17.6l8.5,8.9c0.7,0.7,0.6,1.8-0.1,2.5C146.9,200.5,146.5,200.7,146,200.7z"/>
	</g>
	<ellipse transform="matrix(0.8258 -0.5639 0.5639 0.8258 -86.7538 116.9773)" class="st4" cx="146" cy="198.9" rx="4" ry="3.8"/>
	<g>
		<path class="st5" d="M228.8,190.2c-0.1,0-0.1,0-0.2,0c-0.7-0.1-1.2-0.5-1.5-1.1l-9.2-25c-0.3-0.9,0.1-1.9,1-2.2s1.9,0.1,2.2,1
			l8,21.6l7.1-11.8c0.5-0.8,1.6-1.1,2.4-0.6s1.1,1.6,0.6,2.4l-9,15C229.9,189.9,229.4,190.2,228.8,190.2z"/>
	</g>
	<g>
		<ellipse transform="matrix(0.1932 -0.9812 0.9812 0.1932 23.3259 375.5281)" class="st4" cx="240" cy="173.6" rx="3.8" ry="4"/>
	</g>
	<g>
		<ellipse class="st5" cx="178.8" cy="115.2" rx="2.1" ry="3.8"/>
		<ellipse class="st5" cx="186.4" cy="115.2" rx="2.1" ry="3.8"/>
	</g>
	<g>
		<g>
			<defs>
				<path id="SVGID_2_" d="M182.1,78c11.3,0,21.6,5.3,29.1,18c2.4-4,3.8-8.6,3.8-13.5c0-15.9-14.6-28.7-32.5-28.7S150,66.6,150,82.5
					c0,5.3,1.6,10.2,4.4,14.5C161.2,83.7,170.5,78,182.1,78z"/>
			</defs>
			<clipPath id="SVGID_3_">
				<use xlink:href="#SVGID_2_"  style="overflow:visible;"/>
			</clipPath>
			<g class="st6">
				<path class="st3" d="M166.5,83.9c0,0-1-1.9-1.8-5.2c-0.4-1.6-0.7-3.5-0.9-5.6c-0.1-1-0.1-2.1,0-3.2c0-1.1,0.2-2.2,0.3-3.3
					c0.2-1.1,0.5-2.2,0.8-3.3c0.2-0.5,0.4-1,0.6-1.5c0.2-0.5,0.5-1,0.7-1.5c0.5-0.9,1.1-1.8,1.7-2.6c0.6-0.8,1.2-1.4,1.8-2
					s1.2-1,1.8-1.4s1.1-0.7,1.5-0.9c0.9-0.4,1.4-0.7,1.4-0.7s-0.4,0.4-1.1,1c-0.4,0.3-0.7,0.7-1.2,1.2c-0.4,0.5-1,1-1.4,1.6
					c-0.5,0.6-1,1.3-1.5,2.1s-0.9,1.6-1.3,2.5c-0.4,0.9-0.7,1.8-1,2.8s-0.5,2-0.7,3s-0.3,2.1-0.4,3.1c-0.1,1-0.1,2.1-0.1,3
					c0,1,0,2,0.1,2.9s0.1,1.8,0.2,2.6C166.1,81.8,166.5,83.9,166.5,83.9z"/>
			</g>
		</g>
		<g>
			<defs>
				<path id="SVGID_4_" d="M182.1,78c11.3,0,21.6,5.3,29.1,18c2.4-4,3.8-8.6,3.8-13.5c0-15.9-14.6-28.7-32.5-28.7S150,66.6,150,82.5
					c0,5.3,1.6,10.2,4.4,14.5C161.2,83.7,170.5,78,182.1,78z"/>
			</defs>
			<clipPath id="SVGID_5_">
				<use xlink:href="#SVGID_4_"  style="overflow:visible;"/>
			</clipPath>
			<g class="st7">
				<path class="st3" d="M160.8,60.2c0,0-0.2,1.7-0.4,4.2c-0.1,1.3-0.2,2.7-0.3,4.3c0,0.8,0,1.6,0,2.4s0,1.6,0.1,2.4
					c0,0.8,0.1,1.6,0.2,2.4c0.1,0.8,0.2,1.6,0.4,2.3c0.2,0.7,0.4,1.4,0.6,2.1c0.2,0.6,0.5,1.3,0.8,1.8s0.5,1,0.8,1.5
					c0.3,0.4,0.5,0.8,0.7,1.1c0.5,0.6,0.7,0.9,0.7,0.9s-0.4-0.2-1-0.6c-0.3-0.2-0.7-0.5-1.1-0.9c-0.2-0.2-0.4-0.4-0.6-0.6
					c-0.2-0.2-0.4-0.5-0.6-0.7c-0.4-0.5-0.8-1.1-1.1-1.8c-0.4-0.7-0.7-1.4-0.9-2.2c-0.2-0.8-0.5-1.6-0.6-2.5
					c-0.2-0.9-0.3-1.7-0.3-2.6c-0.1-1.7,0-3.5,0.2-5.1c0.1-0.8,0.2-1.6,0.4-2.3c0.1-0.7,0.3-1.4,0.5-2
					C160,61.7,160.8,60.2,160.8,60.2z"/>
			</g>
		</g>
		<g>
			<defs>
				<path id="SVGID_6_" d="M182.1,78c11.3,0,21.6,5.3,29.1,18c2.4-4,3.8-8.6,3.8-13.5c0-15.9-14.6-28.7-32.5-28.7S150,66.6,150,82.5
					c0,5.3,1.6,10.2,4.4,14.5C161.2,83.7,170.5,78,182.1,78z"/>
			</defs>
			<clipPath id="SVGID_7_">
				<use xlink:href="#SVGID_6_"  style="overflow:visible;"/>
			</clipPath>
			<g class="st8">
				<path class="st3" d="M198.4,83.9c0,0,0.4-2.2,0.7-5.4c0.1-0.8,0.1-1.7,0.2-2.6c0.1-0.9,0.1-1.9,0.1-2.9s-0.1-2-0.1-3
					c-0.1-1-0.2-2.1-0.4-3.1s-0.4-2-0.7-3s-0.6-1.9-1-2.8c-0.4-0.9-0.8-1.7-1.3-2.5s-1-1.5-1.5-2.1s-1-1.1-1.4-1.6
					c-0.5-0.4-0.9-0.9-1.2-1.2c-0.7-0.6-1.1-1-1.1-1s0.5,0.2,1.4,0.7c0.4,0.2,0.9,0.5,1.5,0.9c0.5,0.4,1.2,0.8,1.8,1.4
					c0.6,0.6,1.3,1.2,1.8,2c0.6,0.8,1.2,1.6,1.7,2.6c0.2,0.5,0.5,1,0.7,1.5s0.4,1,0.6,1.5c0.4,1.1,0.6,2.2,0.8,3.3s0.3,2.2,0.3,3.3
					c0.1,1.1,0,2.2,0,3.2c-0.1,2.1-0.5,4-0.9,5.6C199.4,82,198.4,83.9,198.4,83.9z"/>
			</g>
		</g>
		<g>
			<defs>
				<path id="SVGID_8_" d="M182.1,78c11.3,0,21.6,5.3,29.1,18c2.4-4,3.8-8.6,3.8-13.5c0-15.9-14.6-28.7-32.5-28.7S150,66.6,150,82.5
					c0,5.3,1.6,10.2,4.4,14.5C161.2,83.7,170.5,78,182.1,78z"/>
			</defs>
			<clipPath id="SVGID_9_">
				<use xlink:href="#SVGID_8_"  style="overflow:visible;"/>
			</clipPath>
			<g class="st9">
				<path class="st3" d="M204,60.2c0,0,0.8,1.5,1.5,4c0.2,0.6,0.4,1.3,0.5,2s0.3,1.5,0.4,2.3c0.2,1.6,0.3,3.3,0.2,5.1
					c-0.1,0.9-0.2,1.7-0.3,2.6s-0.4,1.7-0.6,2.5c-0.3,0.8-0.6,1.5-0.9,2.2c-0.3,0.7-0.8,1.3-1.1,1.8c-0.2,0.3-0.4,0.5-0.6,0.7
					c-0.2,0.2-0.4,0.4-0.6,0.6c-0.4,0.4-0.8,0.6-1.1,0.9c-0.6,0.4-1,0.6-1,0.6s0.3-0.3,0.7-0.9c0.2-0.3,0.5-0.7,0.7-1.1
					c0.3-0.4,0.5-0.9,0.8-1.5s0.5-1.2,0.8-1.8c0.2-0.7,0.4-1.4,0.6-2.1c0.2-0.7,0.3-1.5,0.4-2.3c0.1-0.8,0.2-1.6,0.2-2.4
					c0.1-0.8,0.1-1.6,0.1-2.4s0-1.6,0-2.4c-0.1-1.5-0.2-3-0.3-4.3C204.2,61.9,204,60.2,204,60.2z"/>
			</g>
		</g>
	</g>
	<rect x="175.4" y="294.3" class="st10" width="3.6" height="1.4"/>
	<rect x="185.3" y="294.3" class="st10" width="3.6" height="1.4"/>
	<g>
		<path class="st3" d="M212,88.1c0,0,3.1,2.3,6.9,6.6c1,1.1,2,2.3,3,3.6c1,1.3,2,2.7,3,4.2s1.9,3.1,2.8,4.8c0.9,1.7,1.7,3.4,2.4,5.2
			c0.7,1.8,1.4,3.6,1.9,5.4c0.3,0.9,0.5,1.8,0.7,2.7c0.2,0.9,0.4,1.8,0.6,2.7c0.1,0.9,0.3,1.8,0.4,2.6c0.1,0.9,0.2,1.7,0.2,2.5
			c0,0.8,0.1,1.6,0.1,2.4c0,0.8,0,1.5,0,2.2c0,1.4-0.2,2.8-0.3,3.9c-0.2,1.2-0.3,2.2-0.5,3c-0.4,1.6-0.6,2.6-0.6,2.6
			s0.1-0.9,0.2-2.6c0.1-0.8,0-1.8,0.1-3c0-0.6,0-1.2,0-1.8s0-1.3-0.1-2s-0.1-1.4-0.2-2.2c-0.1-0.8-0.2-1.5-0.3-2.3s-0.3-1.6-0.4-2.4
			c-0.2-0.8-0.3-1.7-0.5-2.5c-0.2-0.9-0.4-1.7-0.6-2.6c-0.3-0.9-0.5-1.7-0.8-2.6c-0.6-1.7-1.2-3.5-1.9-5.2s-1.5-3.4-2.3-5.1
			c-0.4-0.8-0.9-1.6-1.3-2.4c-0.5-0.8-0.9-1.6-1.3-2.3c-1.8-3-3.7-5.7-5.3-8C214.7,90.8,212,88.1,212,88.1z"/>
	</g>
	<path class="st10" d="M188.5,128.3c0-1.7-1.3-3-3-3s-3,1.3-3,3c0,0.1,0,0.3,0,0.4l0,0l0,0c0-0.1,0-0.3,0-0.4c0-1.7-1.3-3-3-3
		s-3,1.3-3,3v0.1c0,0.1,0,0.2,0,0.3c0,3.3,2.7,6,6,6s6-2.7,6-6c0-0.1,0-0.2,0-0.3C188.5,128.4,188.5,128.4,188.5,128.3z"/>
	
		<ellipse transform="matrix(0.1602 -0.9871 0.9871 0.1602 45.8122 387.4457)" class="st11" cx="250.6" cy="166.8" rx="8.7" ry="8.7"/>
	<polygon class="st12" points="258.4,158.5 258.4,144 267.1,144 273.4,151.3 273.4,158.5 	"/>
	<line class="st11" x1="262.8" y1="139.1" x2="262.8" y2="132.7"/>
	<line class="st11" x1="285" y1="156.3" x2="278.6" y2="156.3"/>
	<line class="st11" x1="274.7" y1="144" x2="281.8" y2="137.7"/>
	
		<radialGradient id="SVGID_10_" cx="180.9" cy="52.617" r="99.4475" gradientTransform="matrix(1 0 0 -1 0 362)" gradientUnits="userSpaceOnUse">
		<stop  offset="0" style="stop-color:#603813"/>
		<stop  offset="1" style="stop-color:#FFFFFF"/>
	</radialGradient>
	<ellipse class="st13" cx="180.9" cy="309.4" rx="93.3" ry="4.4"/>
</g>
<g id="Layer_8">
</g>
<g id="Layer_11">
</g>
<g id="Layer_9">
</g>
<g class="st14">
	<path class="st5" d="M34.1,36.4c0-0.3,0.2-0.5,0.6-0.5H35l0.2,0c0.1,0,0.2,0,0.2-0.1c0-0.1,0.1-0.2,0.1-0.4c0-0.2,0-0.6,0-1.1
		c0-0.3-0.1-0.9-0.1-1.7c-0.1-2-0.2-3.6-0.2-4.6c0-0.4,0-0.7,0-1l0-1c0-0.4,0-0.8-0.1-1.1C34.9,25,34.7,25,34.6,25
		c-0.3,0-0.5-0.2-0.5-0.5c0-0.2,0.1-0.3,0.3-0.4c0.2-0.1,0.5-0.2,0.8-0.3c0.5-0.1,1-0.2,1.4-0.2c0.2,0,0.3,0.1,0.4,0.2
		c0.1,0.1,0.2,0.2,0.2,0.4s0,0.3-0.1,0.4c-0.1,0.1-0.2,0.2-0.3,0.2c-0.1,0-0.1,0-0.2,0h-0.2c-0.1,0-0.2,0-0.3,0.1
		C36,25,36,25.1,36,25.2c0,1.3,0.1,3.2,0.2,5.8c0,0.5,0.1,1.2,0.2,2.1c0.1,0.6,0.1,1.2,0.1,1.9v0.8c0.1,0,0.2,0,0.4,0
		c0.6,0,0.8,0.2,0.8,0.7v0.1L37.2,37c0,0-0.1,0-0.1,0c-0.1,0-0.2,0-0.4,0c-0.4,0-0.7,0-0.8,0C34.7,37,34.1,36.8,34.1,36.4z"/>
	<path class="st5" d="M39.1,36.9c0.1-1.1,0.2-2.8,0.3-5.1c0.1-2.4,0.1-3.8,0.1-4.3V27c0.1-1.3,0.1-2.2,0.1-2.7
		c0-0.2,0.1-0.3,0.2-0.4c0.2-0.1,0.3-0.2,0.5-0.2c0.5,0,1,0,1.5,0.1c0.3,0.1,0.6,0.1,0.8,0.3c0.2,0.1,0.3,0.3,0.3,0.4
		c0,0.4-0.3,0.6-1,0.6c-0.3-0.1-0.6-0.2-1-0.2h-0.2v0.2c0,0.5,0,1.2-0.1,2c-0.1,0.7-0.1,1.4-0.1,2v0.5h0.2h0.2c0.7,0,1,0.2,1,0.5
		c0,0.2-0.1,0.3-0.2,0.4c-0.1,0.1-0.3,0.2-0.5,0.2c-0.3,0-0.6,0-0.8-0.1v5.7c0,0.6-0.2,0.9-0.5,0.9C39.6,37.2,39.4,37.1,39.1,36.9z"
		/>
	<path class="st5" d="M49.1,36.9c0.1-0.3,0.2-1.4,0.2-3.4c0-0.5,0-1-0.1-1.5l-0.1-0.6c0-0.4-0.1-0.6-0.1-0.8V30
		c-0.1-0.3-0.4-1-0.7-1.9c-0.4-0.9-0.6-1.7-0.8-2.3c-0.3-0.7-0.4-1.2-0.4-1.4v-0.1l0.5-0.3c0.2,0,0.5,0.3,0.7,0.9
		c0.2,0.5,0.5,1.2,0.7,2.1c0.3,0.9,0.4,1.4,0.4,1.5c0.1-0.1,0.2-0.6,0.3-1.5c0.2-0.9,0.3-1.6,0.5-2.3c0.2-0.7,0.5-1,0.7-1
		c0.1,0,0.2,0,0.3,0.1c0.1,0.1,0.2,0.2,0.2,0.3c0,0.7-0.2,1.6-0.6,2.9c-0.4,1.3-0.6,2.3-0.6,2.9v6c0,0.9-0.2,1.3-0.7,1.3
		C49.4,37.3,49.2,37.2,49.1,36.9z"/>
	<path class="st5" d="M55,37.1c-0.3-0.2-0.5-0.5-0.7-0.9c-0.4-0.8-0.6-1.7-0.7-2.7c-0.1-0.9-0.2-1.8-0.2-2.6c0-0.2,0-0.3,0-0.4v-0.4
		c0-0.1,0-0.1,0-0.1v-0.4l0-1.4c0-0.4,0.1-1.1,0.2-2c0.1-0.6,0.2-1.3,0.5-1.9c0.1-0.3,0.2-0.5,0.4-0.6c0.1-0.1,0.3-0.2,0.5-0.2
		c0.5,0,1,0.1,1.4,0.3s0.8,0.5,1.1,0.8c0.3,0.3,0.5,0.7,0.7,1.2c0.2,0.5,0.3,1,0.4,1.5c0.1,0.6,0.1,1.2,0.1,1.8v0.2
		c0,0.4,0,0.8,0,1.1l0,1.1c0,3.8-0.9,5.8-2.7,5.8C55.6,37.4,55.3,37.3,55,37.1z M56.6,36.3c0.2-0.2,0.4-0.5,0.5-0.8
		c0.3-0.7,0.4-1.4,0.5-2.2c0.1-0.7,0.1-1.3,0.1-1.8c0-0.6,0-1.4-0.1-2.4c-0.1-1-0.1-1.8-0.1-2.3v-0.4c0-0.5-0.2-0.9-0.5-1.3
		c-0.3-0.4-0.7-0.6-1.1-0.6c-0.5,0-0.8,0.3-0.9,0.8c-0.1,0.4-0.2,0.9-0.2,1.6c0,0.3,0,0.5,0,0.6v0.5l0,0.9c0,0.3,0,0.6,0,0.9
		c0,0.7,0,1.4,0.1,2.1c0.1,1,0.2,2,0.4,2.9c0.2,1,0.5,1.5,0.9,1.5C56.2,36.6,56.4,36.5,56.6,36.3z"/>
	<path class="st5" d="M62.1,37.1c-0.3-0.1-0.5-0.3-0.6-0.6c-0.3-0.6-0.5-1.2-0.6-1.9c-0.1-0.6-0.1-1.3-0.1-2.2
		c0-1.4-0.1-3.2-0.1-5.3l0-1.5c0-0.1,0-0.2,0-0.4c0-0.5,0-0.8,0-0.9c0.1-0.3,0.3-0.4,0.4-0.4c0.2,0,0.3,0.1,0.4,0.4
		c0.1,0.2,0.2,0.5,0.2,0.8v5.4c0,0.5,0,1.2,0.1,2.1c0.1,1.1,0.1,1.8,0.1,2.1c0,1,0.4,1.5,1.3,1.5c1,0,1.4-3.6,1.4-10.8v-1.1v-0.2
		c0,0,0-0.1,0-0.2c0-0.2,0-0.3,0.1-0.4s0.2-0.1,0.4-0.1c0.2,0,0.3,0,0.4,0.1c0.1,0.1,0.2,0.2,0.2,0.4c0,0.1,0,0.2,0,0.5
		c0,0.2,0,0.6-0.1,1c-0.1,0.4-0.1,0.7-0.1,1c0,0.3,0,0.6,0,0.8l0,0.8v0.2c0,0.1,0,0.1,0,0.2c0,5.9-0.9,8.9-2.6,8.9
		C62.7,37.3,62.4,37.3,62.1,37.1z"/>
	<path class="st5" d="M73,37.1c-0.2,0.1-0.4,0.2-0.7,0.2c-0.2,0-0.3-0.1-0.4-0.2c-0.1-0.1-0.2-0.3-0.2-0.5c0-1.1,0-2.6,0.1-4.5
		c0.1-2,0.1-3.5,0.1-4.5v-0.1c-0.1-0.8-0.1-1.5-0.1-1.9c0-1.3,0.2-1.9,0.7-1.9c0.1,0,0.2,0,0.4,0.2c0.1,0.1,0.1,0.2,0.1,0.3
		c0,0.2,0,0.4-0.1,0.8c0,0.3-0.1,0.6-0.1,0.8c0,0.9,0,1.7,0,2.4c0,0.7,0,1.5,0,2.4c-0.1,0.2-0.1,0.5-0.1,0.8v0.2l0,1.6
		c0,0.5,0,1,0,1.6c0,0.9,0.2,1.4,0.7,1.4c0,0,0.1,0,0.1,0s0.1,0,0.2,0c0.1,0,0.3,0,0.5,0c0.7,0,1.1,0.2,1.1,0.6
		c0,0.1-0.1,0.2-0.2,0.3c-0.1,0.1-0.3,0.2-0.4,0.2C74.3,37.2,73.7,37.1,73,37.1z"/>
	<path class="st5" d="M76.4,36.4c0-0.3,0.2-0.5,0.6-0.5h0.2l0.2,0c0.1,0,0.2,0,0.2-0.1c0-0.1,0.1-0.2,0.1-0.4c0-0.2,0-0.6,0-1.1
		c0-0.3-0.1-0.9-0.1-1.7c-0.1-2-0.2-3.6-0.2-4.6c0-0.4,0-0.7,0-1l0-1c0-0.4,0-0.8-0.1-1.1C77.1,25,76.9,25,76.8,25
		c-0.3,0-0.5-0.2-0.5-0.5c0-0.2,0.1-0.3,0.3-0.4c0.2-0.1,0.5-0.2,0.8-0.3c0.5-0.1,1-0.2,1.4-0.2c0.2,0,0.3,0.1,0.4,0.2
		c0.1,0.1,0.2,0.2,0.2,0.4s0,0.3-0.1,0.4c-0.1,0.1-0.2,0.2-0.3,0.2c-0.1,0-0.1,0-0.2,0h-0.2c-0.1,0-0.2,0-0.3,0.1
		c-0.1,0.1-0.1,0.2-0.1,0.3c0,1.3,0.1,3.2,0.2,5.8c0,0.5,0.1,1.2,0.2,2.1c0.1,0.6,0.1,1.2,0.1,1.9v0.8c0.1,0,0.2,0,0.4,0
		c0.6,0,0.8,0.2,0.8,0.7v0.1L79.5,37c0,0-0.1,0-0.1,0c-0.1,0-0.2,0-0.4,0c-0.4,0-0.7,0-0.8,0C76.9,37,76.4,36.8,76.4,36.4z"/>
	<path class="st5" d="M85.4,36.4c-0.5-1-1-2.6-1.5-4.9c-0.1-0.6-0.3-1.2-0.4-1.7c-0.5,1-0.7,2.1-0.7,3.5v3.7c0,0.3-0.1,0.5-0.4,0.5
		c-0.2,0-0.4-0.1-0.5-0.2c-0.1-0.1-0.2-0.3-0.2-0.5v-6.1c0-0.6,0.1-1.7,0.2-3.2c0.1-1.4,0.2-2.5,0.2-3.2c0.1-0.3,0.3-0.4,0.6-0.4
		c0.2,0,0.3,0.1,0.4,0.2c0.1,0.1,0.2,0.3,0.2,0.4v0.1C83.1,24.8,83,26,83,28.1v0.7l0.7-1.5c0.5-0.9,0.9-1.8,1.3-2.4
		c0.4-0.7,0.6-1,0.8-1c0.2,0,0.4,0,0.6,0.1c0.2,0.1,0.2,0.2,0.2,0.4l-0.5,0.8c-1,1.6-1.6,2.5-1.7,2.8c0,0.2,0,0.4,0,0.6l0,0.6
		c0,0.6,0.2,1.6,0.7,3.2c0.5,1.6,0.8,2.6,1.1,3.1l0.3,0.4c0.3,0.3,0.4,0.7,0.4,0.9c0,0.1-0.1,0.3-0.2,0.4c-0.1,0.1-0.2,0.1-0.4,0.1
		C86,37.4,85.7,37,85.4,36.4z"/>
	<path class="st5" d="M89.1,37.1c-0.1-0.1-0.2-0.3-0.2-0.4v-0.5v-0.4c0-0.1,0-0.3,0-0.4c0-0.3,0-0.7-0.1-1.3l0-1.3
		c0-0.7,0-1.6,0.1-2.9c0.1-1.2,0.1-2.1,0.1-2.9c0-0.2,0-0.5-0.1-0.8c0-0.4-0.1-0.7-0.1-0.8c0-0.9,0.3-1.4,0.8-1.4
		c0.4,0,0.9,0.1,1.5,0.3c0.6,0.2,0.9,0.4,0.9,0.6c0,0.1-0.1,0.3-0.2,0.4c-0.1,0.1-0.2,0.2-0.4,0.3c-0.6-0.2-1.1-0.3-1.5-0.4
		c0,0.2,0,0.5,0,0.9c0,0.5,0,1,0,1.4c0,0.6-0.1,1.1-0.1,1.4l0.1,0.3l0.3,0c0.1,0,0.2,0,0.4,0c0.6,0,1,0.2,1,0.6
		c0,0.1-0.1,0.3-0.2,0.4c-0.1,0.1-0.3,0.1-0.5,0.1c-0.2,0-0.4,0-0.6,0h-0.5c0,0.3,0,0.9,0,1.5s0,1.3,0,1.8c0,0.8-0.1,1.4-0.1,1.8
		c0,0.7,0,1.1,0,1.1l0.7,0c0.2,0,0.5,0,0.8,0c0.5,0,0.8,0.2,0.8,0.5c0,0.2-0.1,0.3-0.2,0.4c-0.2,0.1-0.4,0.1-0.6,0.1h-1.7
		C89.4,37.3,89.2,37.2,89.1,37.1z"/>
	<path class="st5" d="M94.4,34.5l0-3.2c0-0.9,0-2,0-3.1c0-0.4,0-1.1-0.1-2c-0.1-1-0.1-1.6-0.1-1.8c0-0.2,0.1-0.3,0.2-0.5
		c0.1-0.1,0.3-0.2,0.5-0.2c0.5,0,0.9,0.1,1.4,0.3c0.4,0.2,0.8,0.5,1.1,0.9c0.7,0.8,1.2,1.7,1.4,2.7c0.1,0.5,0.2,1,0.2,1.5
		c0,0.2,0,0.3,0,0.5l0,0.5v1.1c0,0.9,0,1.5-0.1,2c-0.1,0.7-0.2,1.3-0.5,1.8c-0.3,0.6-0.7,1.1-1.2,1.5c-0.2,0.2-0.5,0.4-0.9,0.6h-1.4
		C94.6,37.2,94.4,36.3,94.4,34.5z M96.5,35.9c0.2-0.1,0.4-0.3,0.6-0.6c0.1-0.2,0.3-0.5,0.4-0.8c0.1-0.3,0.2-0.6,0.2-1
		c0.1-0.6,0.2-1.2,0.2-1.8c0-0.2,0-0.4,0-0.7c0-4-0.8-6.1-2.3-6.3c-0.1,0.6-0.1,1.3-0.1,2.1c0,0.8,0.1,2.3,0.2,4.4
		c0.1,1.9,0.1,3.3,0.1,4.4v0.5C96.1,36.1,96.3,36.1,96.5,35.9z"/>
	<path class="st5" d="M104.1,36.4c0-0.3,0.2-0.5,0.6-0.5h0.2l0.2,0c0.1,0,0.2,0,0.2-0.1c0-0.1,0.1-0.2,0.1-0.4c0-0.2,0-0.6,0-1.1
		c0-0.3-0.1-0.9-0.1-1.7c-0.1-2-0.2-3.6-0.2-4.6c0-0.4,0-0.7,0-1l0-1c0-0.4,0-0.8-0.1-1.1c-0.2,0.1-0.4,0.1-0.5,0.1
		c-0.3,0-0.5-0.2-0.5-0.5c0-0.2,0.1-0.3,0.3-0.4c0.2-0.1,0.5-0.2,0.8-0.3c0.5-0.1,1-0.2,1.4-0.2c0.2,0,0.3,0.1,0.4,0.2
		c0.1,0.1,0.2,0.2,0.2,0.4s0,0.3-0.1,0.4c-0.1,0.1-0.2,0.2-0.3,0.2c-0.1,0-0.1,0-0.2,0h-0.2c-0.1,0-0.2,0-0.3,0.1
		c-0.1,0.1-0.1,0.2-0.1,0.3c0,1.3,0.1,3.2,0.2,5.8c0,0.5,0.1,1.2,0.2,2.1c0.1,0.6,0.1,1.2,0.1,1.9v0.8c0.1,0,0.2,0,0.4,0
		c0.6,0,0.8,0.2,0.8,0.7v0.1l-0.5,0.3c0,0-0.1,0-0.1,0c-0.1,0-0.2,0-0.4,0c-0.4,0-0.7,0-0.8,0C104.7,37,104.1,36.8,104.1,36.4z"/>
	<path class="st5" d="M110.5,36.7l0-0.8c0-0.2,0-0.5,0-0.8l0-0.7c0-0.1-0.1-1.6-0.3-4.4s-0.3-4.6-0.3-5.3c-0.8,0-1.3-0.1-1.5-0.2
		c-0.1-0.1-0.2-0.2-0.2-0.4c0-0.1,0.1-0.2,0.2-0.3c0.1-0.1,0.3-0.1,0.4-0.1c0.4,0,0.8,0,1.4,0.1c0.5,0.1,1,0.1,1.4,0.1h0.2h0.2
		c0.4,0,0.6,0.2,0.6,0.5c0,0.2-0.1,0.3-0.2,0.4c-0.1,0.1-0.3,0.2-0.5,0.2c-0.1,0-0.3,0-0.5-0.1l-0.4-0.1l0,0.1l0,0.1
		c0,1.2,0.1,3.1,0.3,5.7c0.2,2.4,0.3,4.3,0.3,5.7c0,0.2-0.1,0.3-0.2,0.4S111,37,110.9,37L110.5,36.7z"/>
	<path class="st5" d="M119.3,36.7l0-0.8c0-0.2,0-0.5,0-0.8l0-0.7c0-0.1-0.1-1.6-0.3-4.4s-0.3-4.6-0.3-5.3c-0.8,0-1.3-0.1-1.5-0.2
		c-0.1-0.1-0.2-0.2-0.2-0.4c0-0.1,0.1-0.2,0.2-0.3c0.1-0.1,0.3-0.1,0.4-0.1c0.4,0,0.8,0,1.4,0.1c0.5,0.1,1,0.1,1.4,0.1h0.2h0.2
		c0.4,0,0.6,0.2,0.6,0.5c0,0.2-0.1,0.3-0.2,0.4c-0.1,0.1-0.3,0.2-0.5,0.2c-0.1,0-0.3,0-0.5-0.1l-0.4-0.1l0,0.1l0,0.1
		c0,1.2,0.1,3.1,0.3,5.7c0.2,2.4,0.3,4.3,0.3,5.7c0,0.2-0.1,0.3-0.2,0.4s-0.3,0.2-0.5,0.2L119.3,36.7z"/>
	<path class="st5" d="M126.1,33.7l0-1.1l0-0.9v-0.1v-0.2c0-0.1,0-0.2,0-0.4c0,0,0-0.1-0.1-0.1s-0.1-0.1-0.1-0.1v0
		c-0.1,0-0.2,0-0.4,0c-0.2,0-0.4,0-0.6-0.1c-0.1,0-0.3,0-0.6-0.1V33c0,0.3,0,0.9,0.1,1.6c0,0.7,0.1,1.3,0.1,1.6
		c0,0.2-0.1,0.4-0.2,0.5S124.1,37,124,37c-0.3,0-0.4-0.2-0.5-0.7c-0.1-0.5-0.2-1.2-0.2-2l0-1.6c0-0.5,0-0.9,0-1.4v-0.3v-0.3
		c0-0.2,0-0.4,0-0.4v-0.1l0.1-1.2c0-0.5,0-1.3-0.1-2.3c0-1-0.1-1.8-0.1-2.3c0-0.2,0.1-0.3,0.2-0.4c0.1-0.1,0.2-0.2,0.4-0.2
		c0.4,0,0.6,0.4,0.6,1.2l0,2.5c0,0.7,0,1.6,0,2.5c0.2,0.1,0.6,0.1,1.1,0.1h0.7c0-0.1,0-0.2,0-0.2c0-0.6,0-1.6-0.1-2.8
		c-0.1-1.2-0.1-2.1-0.1-2.9c0-0.1,0.1-0.3,0.2-0.4c0.1-0.1,0.2-0.2,0.4-0.2c0.1,0,0.2,0,0.4,0.1l0.2,0.1c0,1.9,0.1,4.4,0.2,7.6
		l0.2,5.1c0,0.2-0.1,0.3-0.2,0.4c-0.1,0.1-0.3,0.2-0.5,0.2C126.4,37,126.1,35.9,126.1,33.7z"/>
	<path class="st5" d="M130.4,37.1c-0.1-0.1-0.2-0.3-0.2-0.4v-0.5v-0.4c0-0.1,0-0.3,0-0.4c0-0.3,0-0.7-0.1-1.3l0-1.3
		c0-0.7,0-1.6,0.1-2.9c0.1-1.2,0.1-2.1,0.1-2.9c0-0.2,0-0.5-0.1-0.8c0-0.4-0.1-0.7-0.1-0.8c0-0.9,0.3-1.4,0.8-1.4
		c0.4,0,0.9,0.1,1.5,0.3c0.6,0.2,0.9,0.4,0.9,0.6c0,0.1-0.1,0.3-0.2,0.4c-0.1,0.1-0.2,0.2-0.4,0.3c-0.6-0.2-1.1-0.3-1.5-0.4
		c0,0.2,0,0.5,0,0.9c0,0.5,0,1,0,1.4c0,0.6-0.1,1.1-0.1,1.4l0.1,0.3l0.3,0c0.1,0,0.2,0,0.4,0c0.6,0,1,0.2,1,0.6
		c0,0.1-0.1,0.3-0.2,0.4c-0.1,0.1-0.3,0.1-0.5,0.1c-0.2,0-0.4,0-0.6,0h-0.5c0,0.3,0,0.9,0,1.5s0,1.3,0,1.8c0,0.8-0.1,1.4-0.1,1.8
		c0,0.7,0,1.1,0,1.1l0.7,0c0.2,0,0.5,0,0.8,0c0.5,0,0.8,0.2,0.8,0.5c0,0.2-0.1,0.3-0.2,0.4c-0.2,0.1-0.4,0.1-0.6,0.1h-1.7
		C130.7,37.3,130.5,37.2,130.4,37.1z"/>
	<path class="st5" d="M140.7,37c-0.1-0.1-0.1-0.2-0.2-0.4l-0.1-0.4v0V36c0-0.4-0.5-1.9-1.4-4.5c-0.9-2.6-1.6-4.5-2.1-5.7v10.1
		l0.1,0.1c0,0,0,0.1,0.1,0.1s0.1,0.1,0.1,0.2c0,0.2-0.1,0.3-0.2,0.4s-0.3,0.2-0.4,0.2c-0.4,0-0.6-0.4-0.6-1.2l0-3.4c0-1,0-2.2,0-3.4
		c0-0.4,0-1,0.1-1.9c0-0.8,0.1-1.5,0.1-1.9c0-0.6,0.2-1.1,0.7-1.5v0.1c0.1,0,0.1,0,0.2,0c0.3,0,0.7,0.5,1.2,1.6
		c0.4,0.9,0.7,1.8,1,2.7c0.3,0.9,0.7,2.3,1.2,4l0.2,0.7c0.3,1.1,0.5,1.9,0.7,2.3c0.3-2.9,0.4-6.3,0.4-10.2v-0.3c0-0.1,0-0.2,0-0.3
		c0-0.4,0.2-0.6,0.5-0.6c0.2,0,0.3,0.1,0.4,0.2c0.1,0.1,0.1,0.3,0.1,0.6v1.5c0,2.1-0.1,4.3-0.2,6.7c-0.1,2.4-0.3,3.8-0.5,4.1
		c-0.4,0.1-0.6,0.2-0.7,0.2C140.9,37.1,140.8,37.1,140.7,37z"/>
	<path class="st5" d="M149.9,36.9c0.1-0.3,0.2-1.4,0.2-3.4c0-0.5,0-1-0.1-1.5l-0.1-0.6c0-0.4-0.1-0.6-0.1-0.8V30
		c-0.1-0.3-0.4-1-0.7-1.9c-0.4-0.9-0.6-1.7-0.8-2.3c-0.3-0.7-0.4-1.2-0.4-1.4v-0.1l0.5-0.3c0.2,0,0.5,0.3,0.7,0.9
		c0.2,0.5,0.5,1.2,0.7,2.1c0.3,0.9,0.4,1.4,0.4,1.5c0.1-0.1,0.2-0.6,0.3-1.5c0.2-0.9,0.3-1.6,0.5-2.3c0.2-0.7,0.5-1,0.7-1
		c0.1,0,0.2,0,0.3,0.1c0.1,0.1,0.2,0.2,0.2,0.3c0,0.7-0.2,1.6-0.6,2.9c-0.4,1.3-0.6,2.3-0.6,2.9v6c0,0.9-0.2,1.3-0.7,1.3
		C150.2,37.3,150.1,37.2,149.9,36.9z"/>
	<path class="st5" d="M155.9,37.1c-0.3-0.2-0.5-0.5-0.7-0.9c-0.4-0.8-0.6-1.7-0.7-2.7c-0.1-0.9-0.2-1.8-0.2-2.6c0-0.2,0-0.3,0-0.4
		v-0.4c0-0.1,0-0.1,0-0.1v-0.4l0-1.4c0-0.4,0.1-1.1,0.2-2c0.1-0.6,0.2-1.3,0.5-1.9c0.1-0.3,0.2-0.5,0.4-0.6c0.1-0.1,0.3-0.2,0.5-0.2
		c0.5,0,1,0.1,1.4,0.3s0.8,0.5,1.1,0.8c0.3,0.3,0.5,0.7,0.7,1.2c0.2,0.5,0.3,1,0.4,1.5c0.1,0.6,0.1,1.2,0.1,1.8v0.2
		c0,0.4,0,0.8,0,1.1l0,1.1c0,3.8-0.9,5.8-2.7,5.8C156.5,37.4,156.2,37.3,155.9,37.1z M157.4,36.3c0.2-0.2,0.4-0.5,0.5-0.8
		c0.3-0.7,0.4-1.4,0.5-2.2c0.1-0.7,0.1-1.3,0.1-1.8c0-0.6,0-1.4-0.1-2.4c-0.1-1-0.1-1.8-0.1-2.3v-0.4c0-0.5-0.2-0.9-0.5-1.3
		c-0.3-0.4-0.7-0.6-1.1-0.6c-0.5,0-0.8,0.3-0.9,0.8c-0.1,0.4-0.2,0.9-0.2,1.6c0,0.3,0,0.5,0,0.6v0.5l0,0.9c0,0.3,0,0.6,0,0.9
		c0,0.7,0,1.4,0.1,2.1c0.1,1,0.2,2,0.4,2.9c0.2,1,0.5,1.5,0.9,1.5C157,36.6,157.2,36.5,157.4,36.3z"/>
	<path class="st5" d="M163,37.1c-0.3-0.1-0.5-0.3-0.6-0.6c-0.3-0.6-0.5-1.2-0.6-1.9c-0.1-0.6-0.1-1.3-0.1-2.2c0-1.4-0.1-3.2-0.1-5.3
		l0-1.5c0-0.1,0-0.2,0-0.4c0-0.5,0-0.8,0-0.9c0.1-0.3,0.3-0.4,0.4-0.4c0.2,0,0.3,0.1,0.4,0.4c0.1,0.2,0.2,0.5,0.2,0.8v5.4
		c0,0.5,0,1.2,0.1,2.1c0.1,1.1,0.1,1.8,0.1,2.1c0,1,0.4,1.5,1.3,1.5c1,0,1.4-3.6,1.4-10.8v-1.1v-0.2c0,0,0-0.1,0-0.2
		c0-0.2,0-0.3,0.1-0.4s0.2-0.1,0.4-0.1c0.2,0,0.3,0,0.4,0.1c0.1,0.1,0.2,0.2,0.2,0.4c0,0.1,0,0.2,0,0.5c0,0.2,0,0.6-0.1,1
		c-0.1,0.4-0.1,0.7-0.1,1c0,0.3,0,0.6,0,0.8l0,0.8v0.2c0,0.1,0,0.1,0,0.2c0,5.9-0.9,8.9-2.6,8.9C163.5,37.3,163.2,37.3,163,37.1z"/>
	<path class="st5" d="M172.3,37.1c-0.2-0.1-0.3-0.3-0.3-0.5l0.2-0.3c0.1,0,0.2,0,0.4,0.1c0.2,0,0.4,0.1,0.5,0.1
		c0.2,0,0.5-0.1,0.6-0.3c0.2-0.2,0.3-0.5,0.4-0.8c0.2-0.6,0.3-1.2,0.3-1.7c0-0.9-0.3-1.8-0.8-2.8l-0.2-0.4c-0.3-0.4-0.5-0.8-0.6-1.2
		s-0.3-0.7-0.4-1.1c-0.2-0.5-0.2-1-0.2-1.6c0-0.6,0.1-1.2,0.4-1.8c0.1-0.3,0.3-0.6,0.6-0.8c0.2-0.2,0.5-0.3,0.8-0.3
		c0.2,0,0.5,0.1,0.7,0.2c0.2,0.2,0.3,0.3,0.3,0.5c0,0.1,0,0.2-0.1,0.3s-0.2,0.1-0.3,0.1c-0.1,0-0.3,0-0.4-0.1
		c-0.3,0-0.5,0.3-0.7,0.8c-0.1,0.5-0.2,0.9-0.2,1.2c0,0.4,0.1,0.8,0.2,1.2c0.1,0.4,0.3,0.8,0.5,1.1l0.4,0.8l0.7,1.3
		c0.2,0.4,0.3,0.8,0.5,1.3c0.1,0.5,0.2,1,0.2,1.5c0,0.8-0.2,1.6-0.6,2.3c-0.2,0.4-0.5,0.7-0.8,0.9s-0.7,0.3-1.1,0.3v0.1
		C172.7,37.3,172.5,37.2,172.3,37.1z"/>
	<path class="st5" d="M180.3,33.7l0-1.1l0-0.9v-0.1v-0.2c0-0.1,0-0.2,0-0.4c0,0,0-0.1-0.1-0.1s-0.1-0.1-0.1-0.1v0
		c-0.1,0-0.2,0-0.4,0c-0.2,0-0.4,0-0.6-0.1c-0.1,0-0.3,0-0.6-0.1V33c0,0.3,0,0.9,0.1,1.6c0,0.7,0.1,1.3,0.1,1.6
		c0,0.2-0.1,0.4-0.2,0.5s-0.2,0.2-0.4,0.2c-0.3,0-0.4-0.2-0.5-0.7c-0.1-0.5-0.2-1.2-0.2-2l0-1.6c0-0.5,0-0.9,0-1.4v-0.3v-0.3
		c0-0.2,0-0.4,0-0.4v-0.1l0.1-1.2c0-0.5,0-1.3-0.1-2.3c0-1-0.1-1.8-0.1-2.3c0-0.2,0.1-0.3,0.2-0.4c0.1-0.1,0.2-0.2,0.4-0.2
		c0.4,0,0.6,0.4,0.6,1.2l0,2.5c0,0.7,0,1.6,0,2.5c0.2,0.1,0.6,0.1,1.1,0.1h0.7c0-0.1,0-0.2,0-0.2c0-0.6,0-1.6-0.1-2.8
		c-0.1-1.2-0.1-2.1-0.1-2.9c0-0.1,0.1-0.3,0.2-0.4c0.1-0.1,0.2-0.2,0.4-0.2c0.1,0,0.2,0,0.4,0.1l0.2,0.1c0,1.9,0.1,4.4,0.2,7.6
		l0.2,5.1c0,0.2-0.1,0.3-0.2,0.4c-0.1,0.1-0.3,0.2-0.5,0.2C180.6,37,180.3,35.9,180.3,33.7z"/>
	<path class="st5" d="M185.5,37.1c-0.3-0.2-0.5-0.5-0.7-0.9c-0.4-0.8-0.6-1.7-0.7-2.7c-0.1-0.9-0.2-1.8-0.2-2.6c0-0.2,0-0.3,0-0.4
		v-0.4c0-0.1,0-0.1,0-0.1v-0.4l0-1.4c0-0.4,0.1-1.1,0.2-2c0.1-0.6,0.2-1.3,0.5-1.9c0.1-0.3,0.2-0.5,0.4-0.6c0.1-0.1,0.3-0.2,0.5-0.2
		c0.5,0,1,0.1,1.4,0.3s0.8,0.5,1.1,0.8c0.3,0.3,0.5,0.7,0.7,1.2c0.2,0.5,0.3,1,0.4,1.5c0.1,0.6,0.1,1.2,0.1,1.8v0.2
		c0,0.4,0,0.8,0,1.1l0,1.1c0,3.8-0.9,5.8-2.7,5.8C186.1,37.4,185.8,37.3,185.5,37.1z M187,36.3c0.2-0.2,0.4-0.5,0.5-0.8
		c0.3-0.7,0.4-1.4,0.5-2.2c0.1-0.7,0.1-1.3,0.1-1.8c0-0.6,0-1.4-0.1-2.4c-0.1-1-0.1-1.8-0.1-2.3v-0.4c0-0.5-0.2-0.9-0.5-1.3
		c-0.3-0.4-0.7-0.6-1.2-0.6s-0.8,0.3-0.9,0.8c-0.1,0.4-0.2,0.9-0.2,1.6c0,0.3,0,0.5,0,0.6v0.5l0,0.9c0,0.3,0,0.6,0,0.9
		c0,0.7,0,1.4,0.1,2.1c0.1,1,0.2,2,0.4,2.9c0.2,1,0.5,1.5,0.9,1.5C186.6,36.6,186.8,36.5,187,36.3z"/>
	<path class="st5" d="M192.6,37.1c-0.3-0.1-0.5-0.3-0.6-0.6c-0.3-0.6-0.5-1.2-0.6-1.9c-0.1-0.6-0.1-1.3-0.1-2.2
		c0-1.4-0.1-3.2-0.1-5.3l0-1.5c0-0.1,0-0.2,0-0.4c0-0.5,0-0.8,0-0.9c0.1-0.3,0.3-0.4,0.4-0.4c0.2,0,0.3,0.1,0.4,0.4
		c0.1,0.2,0.2,0.5,0.2,0.8v5.4c0,0.5,0,1.2,0.1,2.1c0.1,1.1,0.1,1.8,0.1,2.1c0,1,0.4,1.5,1.3,1.5c1,0,1.4-3.6,1.4-10.8v-1.1v-0.2
		c0,0,0-0.1,0-0.2c0-0.2,0-0.3,0.1-0.4s0.2-0.1,0.4-0.1c0.2,0,0.3,0,0.4,0.1c0.1,0.1,0.2,0.2,0.2,0.4c0,0.1,0,0.2,0,0.5
		c0,0.2,0,0.6-0.1,1c-0.1,0.4-0.1,0.7-0.1,1c0,0.3,0,0.6,0,0.8l0,0.8v0.2c0,0.1,0,0.1,0,0.2c0,5.9-0.9,8.9-2.6,8.9
		C193.1,37.3,192.9,37.3,192.6,37.1z"/>
	<path class="st5" d="M199.8,37.1c-0.2,0.1-0.4,0.2-0.7,0.2c-0.2,0-0.3-0.1-0.4-0.2c-0.1-0.1-0.2-0.3-0.2-0.5c0-1.1,0-2.6,0.1-4.5
		c0.1-2,0.1-3.5,0.1-4.5v-0.1c-0.1-0.8-0.1-1.5-0.1-1.9c0-1.3,0.2-1.9,0.7-1.9c0.1,0,0.2,0,0.4,0.2c0.1,0.1,0.1,0.2,0.1,0.3
		c0,0.2,0,0.4-0.1,0.8c0,0.3-0.1,0.6-0.1,0.8c0,0.9,0,1.7,0,2.4c0,0.7,0,1.5,0,2.4c-0.1,0.2-0.1,0.5-0.1,0.8v0.2l0,1.6
		c0,0.5,0,1,0,1.6c0,0.9,0.2,1.4,0.7,1.4c0,0,0.1,0,0.1,0c0.1,0,0.1,0,0.2,0c0.1,0,0.3,0,0.5,0c0.7,0,1.1,0.2,1.1,0.6
		c0,0.1-0.1,0.2-0.2,0.3c-0.1,0.1-0.3,0.2-0.4,0.2C201.1,37.2,200.6,37.1,199.8,37.1z"/>
	<path class="st5" d="M204,34.5l0-3.2c0-0.9,0-2,0-3.1c0-0.4,0-1.1-0.1-2c-0.1-1-0.1-1.6-0.1-1.8c0-0.2,0.1-0.3,0.2-0.5
		c0.1-0.1,0.3-0.2,0.5-0.2c0.5,0,0.9,0.1,1.4,0.3c0.4,0.2,0.8,0.5,1.1,0.9c0.7,0.8,1.2,1.7,1.4,2.7c0.1,0.5,0.2,1,0.2,1.5
		c0,0.2,0,0.3,0,0.5l0,0.5v1.1c0,0.9,0,1.5-0.1,2c-0.1,0.7-0.2,1.3-0.5,1.8c-0.3,0.6-0.7,1.1-1.2,1.5c-0.2,0.2-0.5,0.4-0.9,0.6h-1.4
		C204.2,37.2,204,36.3,204,34.5z M206.2,35.9c0.2-0.1,0.4-0.3,0.6-0.6c0.1-0.2,0.3-0.5,0.4-0.8c0.1-0.3,0.2-0.6,0.2-1
		c0.1-0.6,0.2-1.2,0.2-1.8c0-0.2,0-0.4,0-0.7c0-4-0.8-6.1-2.3-6.3c-0.1,0.6-0.1,1.3-0.1,2.1c0,0.8,0.1,2.3,0.2,4.4
		c0.1,1.9,0.1,3.3,0.1,4.4v0.5C205.7,36.1,205.9,36.1,206.2,35.9z"/>
	<path class="st5" d="M214.1,37.1c-0.1-0.1-0.2-0.3-0.2-0.5c0-0.4-0.1-1.1-0.2-2l-0.1-0.4l-2-0.3c-0.1,0.3-0.2,0.9-0.3,1.9
		c-0.1,0.7-0.2,1.1-0.4,1.3c-0.1,0.1-0.2,0.2-0.4,0.2c-0.2,0-0.3,0-0.4-0.1c-0.1-0.1-0.2-0.2-0.2-0.4l0-0.1l0-0.1
		c0.9-3.4,1.5-6.8,2-10.1c0-0.1,0-0.1,0-0.3c0-0.1,0-0.3,0-0.5c0-0.5,0.1-0.9,0.1-1.2c0-0.3,0.1-0.5,0.2-0.7h0.7
		c0.2,0,0.3,0,0.5,0.1c0.1,0.1,0.2,0.2,0.2,0.4c0,1,0.1,2.5,0.4,4.5c0.3,2.1,0.4,3.5,0.4,4.3c0,0.1,0,0.3,0.1,0.6
		c0.1,0.3,0.1,0.5,0.1,0.6s0.1,0.5,0.2,1.2c0.1,0.6,0.2,1.1,0.2,1.2v0c0,0.3-0.1,0.5-0.3,0.6C214.5,37.2,214.2,37.2,214.1,37.1z
		 M213.4,32.6c0-1.2-0.1-2.7-0.3-4.6l-0.2-2.1c-0.6,3.1-1,5.5-1.2,7.1c0.2,0.1,0.8,0.2,1.8,0.3C213.4,33.2,213.4,32.9,213.4,32.6z"
		/>
	<path class="st5" d="M220.9,37.2c-0.2-0.7-0.3-1.7-0.3-2.9l0-1.8c0-0.5,0-1.1,0-1.8c-0.1-0.2-0.1-0.4-0.1-0.5v-0.1
		c0.1-0.3,0.2-0.8,0.2-1.7l0-0.9c0-0.3,0-0.6,0-1c0-0.8-0.1-1.4-0.2-1.9c0-0.2,0.1-0.3,0.2-0.5c0.1-0.1,0.2-0.2,0.3-0.2h0.9
		c0.4,0,0.7,0.1,1,0.2c0.3,0.2,0.5,0.4,0.6,0.7c0.3,0.5,0.4,1.2,0.4,1.9c0,0.5,0,1,0,1.3c0,0.4-0.1,0.7-0.2,1.1
		c0,0.2-0.1,0.3-0.2,0.4c-0.1,0.1-0.2,0.2-0.3,0.4c-0.2,0.2-0.5,0.4-0.9,0.6c-0.2,0.1-0.4,0.2-0.7,0.3V33l0,1.3l0,0.6
		c0.1,0.7,0.1,1.4,0.1,1.9c0,0.2-0.1,0.3-0.2,0.4c-0.1,0.1-0.3,0.2-0.5,0.2L220.9,37.2z M223,26.7c0-0.4,0-0.7-0.1-0.9
		c0-0.2-0.1-0.3-0.2-0.4c-0.1-0.1-0.2-0.2-0.3-0.2c-0.1-0.1-0.3-0.1-0.5-0.1c0,0-0.1,0-0.2,0v1.1c0,0.8,0,1.5,0,2.1
		c0,0.7,0,1.1,0,1.4V30v0C222.6,30,223,28.8,223,26.7z"/>
	<path class="st5" d="M227.4,37.1c-0.3-0.1-0.5-0.3-0.6-0.6c-0.3-0.6-0.5-1.2-0.6-1.9c-0.1-0.6-0.1-1.3-0.1-2.2
		c0-1.4-0.1-3.2-0.1-5.3l0-1.5c0-0.1,0-0.2,0-0.4c0-0.5,0-0.8,0-0.9c0.1-0.3,0.3-0.4,0.4-0.4s0.3,0.1,0.4,0.4
		c0.1,0.2,0.2,0.5,0.2,0.8v5.4c0,0.5,0,1.2,0.1,2.1c0.1,1.1,0.1,1.8,0.1,2.1c0,1,0.4,1.5,1.3,1.5c1,0,1.4-3.6,1.4-10.8v-1.1v-0.2
		c0,0,0-0.1,0-0.2c0-0.2,0-0.3,0.1-0.4s0.2-0.1,0.4-0.1c0.2,0,0.3,0,0.4,0.1c0.1,0.1,0.2,0.2,0.2,0.4c0,0.1,0,0.2,0,0.5
		c0,0.2,0,0.6-0.1,1c-0.1,0.4-0.1,0.7-0.1,1c0,0.3,0,0.6,0,0.8l0,0.8v0.2c0,0.1,0,0.1,0,0.2c0,5.9-0.9,8.9-2.6,8.9
		C227.9,37.3,227.6,37.3,227.4,37.1z"/>
	<path class="st5" d="M234.4,36.7l0-0.8c0-0.2,0-0.5,0-0.8l0-0.7c0-0.1-0.1-1.6-0.3-4.4s-0.3-4.6-0.3-5.3c-0.8,0-1.3-0.1-1.5-0.2
		c-0.1-0.1-0.2-0.2-0.2-0.4c0-0.1,0.1-0.2,0.2-0.3c0.1-0.1,0.3-0.1,0.4-0.1c0.4,0,0.8,0,1.4,0.1c0.5,0.1,1,0.1,1.4,0.1h0.2h0.2
		c0.4,0,0.6,0.2,0.6,0.5c0,0.2-0.1,0.3-0.2,0.4c-0.1,0.1-0.3,0.2-0.5,0.2c-0.1,0-0.3,0-0.5-0.1l-0.4-0.1l0,0.1l0,0.1
		c0,1.2,0.1,3.1,0.3,5.7c0.2,2.4,0.3,4.3,0.3,5.7c0,0.2-0.1,0.3-0.2,0.4c-0.1,0.1-0.3,0.2-0.5,0.2L234.4,36.7z"/>
	<path class="st5" d="M245.3,37.1c-0.1-0.1-0.2-0.3-0.2-0.5c0-0.4-0.1-1.1-0.2-2l-0.1-0.4l-2-0.3c-0.1,0.3-0.2,0.9-0.3,1.9
		c-0.1,0.7-0.2,1.1-0.4,1.3c-0.1,0.1-0.2,0.2-0.4,0.2c-0.2,0-0.3,0-0.4-0.1c-0.1-0.1-0.2-0.2-0.2-0.4l0-0.1l0-0.1
		c0.9-3.4,1.5-6.8,2-10.1c0-0.1,0-0.1,0-0.3c0-0.1,0-0.3,0-0.5c0-0.5,0.1-0.9,0.1-1.2c0-0.3,0.1-0.5,0.2-0.7h0.7
		c0.2,0,0.3,0,0.5,0.1c0.1,0.1,0.2,0.2,0.2,0.4c0,1,0.1,2.5,0.4,4.5c0.3,2.1,0.4,3.5,0.4,4.3c0,0.1,0,0.3,0.1,0.6
		c0.1,0.3,0.1,0.5,0.1,0.6s0.1,0.5,0.2,1.2c0.1,0.6,0.2,1.1,0.2,1.2v0c0,0.3-0.1,0.5-0.3,0.6C245.7,37.2,245.5,37.2,245.3,37.1z
		 M244.6,32.6c0-1.2-0.1-2.7-0.3-4.6l-0.2-2.1c-0.6,3.1-1,5.5-1.2,7.1c0.2,0.1,0.8,0.2,1.8,0.3C244.7,33.2,244.6,32.9,244.6,32.6z"
		/>
	<path class="st5" d="M254.4,36.4c-0.3-0.7-0.5-1.4-0.6-2.1l-0.1-0.7c-0.4-1.9-0.6-3-0.7-3.3h-0.2c0,0.4,0,0.7,0,1.1v1.1
		c0,1.8,0.1,3.2,0.4,4.2l-0.2,0.5h-0.6l-0.3-0.3l0-1.3c0-1.2-0.1-3-0.2-5.5c-0.1-2.6-0.2-4.4-0.2-5.5c0-0.6,0.2-1,0.7-1
		c0.7,0,1.3,0.2,1.8,0.6c0.5,0.4,0.7,0.9,0.7,1.6v1.4c0,0.2,0,0.4-0.1,0.7s-0.1,0.5-0.2,0.6l-0.4,0.7l-0.3,0.6l0.1,0.5l0.3,1.4
		c0.2,1,0.4,1.9,0.5,2.5c0.2,0.6,0.4,1.2,0.6,1.7l0.1,0.2c0.1,0.3,0.2,0.5,0.2,0.6c0,0.1,0,0.2-0.1,0.4c-0.1,0.1-0.2,0.1-0.3,0.1
		C254.9,37.4,254.7,37.1,254.4,36.4z M253.5,28.2c0.2-0.7,0.3-1.3,0.3-1.8c0-0.4-0.1-0.8-0.2-1.2c-0.1-0.2-0.2-0.4-0.3-0.5
		s-0.3-0.2-0.6-0.2l0,0.1l0,0.2l0,2.4c0,0.7,0,1.4,0,2.3C253.1,29.2,253.3,28.8,253.5,28.2z"/>
	<path class="st5" d="M256.9,36.4c0-0.3,0.2-0.5,0.6-0.5h0.2l0.2,0c0.1,0,0.2,0,0.2-0.1c0-0.1,0.1-0.2,0.1-0.4c0-0.2,0-0.6,0-1.1
		c0-0.3-0.1-0.9-0.1-1.7c-0.1-2-0.2-3.6-0.2-4.6c0-0.4,0-0.7,0-1l0-1c0-0.4,0-0.8-0.1-1.1c-0.2,0.1-0.4,0.1-0.5,0.1
		c-0.3,0-0.5-0.2-0.5-0.5c0-0.2,0.1-0.3,0.3-0.4c0.2-0.1,0.5-0.2,0.8-0.3c0.5-0.1,1-0.2,1.4-0.2c0.2,0,0.3,0.1,0.4,0.2
		c0.1,0.1,0.2,0.2,0.2,0.4s0,0.3-0.1,0.4c-0.1,0.1-0.2,0.2-0.3,0.2c-0.1,0-0.1,0-0.2,0h-0.2c-0.1,0-0.2,0-0.3,0.1
		c-0.1,0.1-0.1,0.2-0.1,0.3c0,1.3,0.1,3.2,0.2,5.8c0,0.5,0.1,1.2,0.2,2.1c0.1,0.6,0.1,1.2,0.1,1.9v0.8c0.1,0,0.2,0,0.4,0
		c0.6,0,0.8,0.2,0.8,0.7v0.1L260,37c0,0-0.1,0-0.1,0c-0.1,0-0.2,0-0.4,0c-0.4,0-0.7,0-0.8,0C257.5,37,256.9,36.8,256.9,36.4z"/>
	<path class="st5" d="M267.2,37c-0.1-0.1-0.1-0.2-0.2-0.4l-0.1-0.4v0V36c0-0.4-0.5-1.9-1.4-4.5c-0.9-2.6-1.6-4.5-2.2-5.7v10.1
		l0.1,0.1c0,0,0,0.1,0.1,0.1s0.1,0.1,0.1,0.2c0,0.2-0.1,0.3-0.2,0.4S263.2,37,263,37c-0.4,0-0.6-0.4-0.6-1.2l0-3.4c0-1,0-2.2,0-3.4
		c0-0.4,0-1,0.1-1.9c0-0.8,0.1-1.5,0.1-1.9c0-0.6,0.2-1.1,0.7-1.5v0.1c0.1,0,0.1,0,0.2,0c0.3,0,0.7,0.5,1.2,1.6
		c0.4,0.9,0.7,1.8,1,2.7c0.3,0.9,0.7,2.3,1.2,4l0.2,0.7c0.3,1.1,0.5,1.9,0.7,2.3c0.3-2.9,0.4-6.3,0.4-10.2v-0.3c0-0.1,0-0.2,0-0.3
		c0-0.4,0.2-0.6,0.5-0.6c0.2,0,0.3,0.1,0.4,0.2c0.1,0.1,0.1,0.3,0.1,0.6v1.5c0,2.1-0.1,4.3-0.2,6.7c-0.1,2.4-0.3,3.8-0.5,4.1
		c-0.4,0.1-0.6,0.2-0.7,0.2C267.4,37.1,267.3,37.1,267.2,37z"/>
	<path class="st5" d="M273.3,37c-0.3-0.1-0.6-0.3-0.8-0.5c-0.2-0.2-0.3-0.5-0.5-0.8c-0.1-0.4-0.3-0.7-0.3-1
		c-0.1-0.3-0.1-0.6-0.2-1.1c0-0.5-0.1-0.9-0.1-1.2v-1.2v-0.8c0-0.8,0-1.4,0-1.9c0-0.6,0.1-1.2,0.3-1.9c0.1-0.6,0.3-1.1,0.6-1.6
		c0.3-0.5,0.7-0.8,1.2-0.9c0.2-0.1,0.5-0.1,0.8-0.1c0.6,0,0.9,0.2,0.9,0.5c0,0.2-0.1,0.3-0.2,0.4s-0.3,0.2-0.5,0.2
		c-0.1,0-0.2,0-0.2,0c-0.1,0-0.1,0-0.2,0c-0.2,0-0.4,0.1-0.6,0.4c-0.2,0.2-0.3,0.6-0.4,1c-0.2,0.8-0.4,1.7-0.4,2.7
		c-0.1,0.9-0.1,1.6-0.1,2c0,0.5,0,1.1,0.1,1.9c0.1,0.7,0.2,1.4,0.3,1.9c0.1,0.3,0.2,0.6,0.3,0.8s0.3,0.4,0.5,0.5
		c0.2,0.1,0.5,0.2,0.7,0.2c0.6,0,1-1.1,1-3.2V32c-0.1,0-0.2-0.1-0.5-0.1h-0.2h-0.2c-0.5,0-0.7-0.2-0.7-0.5c0-0.2,0.1-0.3,0.2-0.4
		c0.1-0.1,0.3-0.1,0.5-0.1v0h0.3c1.2,0,1.8,0.2,1.8,0.6c0,0.1,0,0.4-0.1,0.7c-0.1,0.3-0.1,0.6-0.1,0.7c0,0.2,0,0.6,0.1,1.1l0,1.1
		c0,0.6-0.2,1.1-0.7,1.5c-0.4,0.4-1,0.5-1.6,0.5C274,37.2,273.6,37.1,273.3,37z"/>
	<path class="st5" d="M283.7,37.1c-0.3-0.2-0.5-0.5-0.7-0.9c-0.4-0.8-0.6-1.7-0.7-2.7c-0.1-0.9-0.2-1.8-0.2-2.6c0-0.2,0-0.3,0-0.4
		v-0.4c0-0.1,0-0.1,0-0.1v-0.4l0-1.4c0-0.4,0.1-1.1,0.2-2c0.1-0.6,0.2-1.3,0.5-1.9c0.1-0.3,0.2-0.5,0.4-0.6s0.3-0.2,0.5-0.2
		c0.5,0,1,0.1,1.4,0.3s0.8,0.5,1.1,0.8c0.3,0.3,0.5,0.7,0.7,1.2s0.3,1,0.4,1.5c0.1,0.6,0.1,1.2,0.1,1.8v0.2c0,0.4,0,0.8,0,1.1l0,1.1
		c0,3.8-0.9,5.8-2.7,5.8C284.3,37.4,284,37.3,283.7,37.1z M285.2,36.3c0.2-0.2,0.4-0.5,0.5-0.8c0.3-0.7,0.4-1.4,0.5-2.2
		c0.1-0.7,0.1-1.3,0.1-1.8c0-0.6,0-1.4-0.1-2.4c-0.1-1-0.1-1.8-0.1-2.3v-0.4c0-0.5-0.2-0.9-0.5-1.3s-0.7-0.6-1.1-0.6
		c-0.5,0-0.8,0.3-0.9,0.8c-0.1,0.4-0.2,0.9-0.2,1.6c0,0.3,0,0.5,0,0.6v0.5l0,0.9c0,0.3,0,0.6,0,0.9c0,0.7,0,1.4,0.1,2.1
		c0.1,1,0.2,2,0.4,2.9c0.2,1,0.5,1.5,0.9,1.5C284.8,36.6,285,36.5,285.2,36.3z"/>
	<path class="st5" d="M294.6,37c-0.1-0.1-0.1-0.2-0.2-0.4l-0.1-0.4v0V36c0-0.4-0.5-1.9-1.4-4.5c-0.9-2.6-1.6-4.5-2.2-5.7v10.1
		l0.1,0.1c0,0,0,0.1,0.1,0.1s0.1,0.1,0.1,0.2c0,0.2-0.1,0.3-0.2,0.4s-0.3,0.2-0.4,0.2c-0.4,0-0.6-0.4-0.6-1.2l0-3.4c0-1,0-2.2,0-3.4
		c0-0.4,0-1,0.1-1.9c0-0.8,0.1-1.5,0.1-1.9c0-0.6,0.2-1.1,0.7-1.5v0.1c0.1,0,0.1,0,0.2,0c0.3,0,0.7,0.5,1.2,1.6
		c0.4,0.9,0.7,1.8,1,2.7c0.3,0.9,0.7,2.3,1.2,4l0.2,0.7c0.3,1.1,0.5,1.9,0.7,2.3c0.3-2.9,0.4-6.3,0.4-10.2v-0.3c0-0.1,0-0.2,0-0.3
		c0-0.4,0.2-0.6,0.5-0.6c0.2,0,0.3,0.1,0.4,0.2c0.1,0.1,0.1,0.3,0.1,0.6v1.5c0,2.1-0.1,4.3-0.2,6.7c-0.1,2.4-0.3,3.8-0.5,4.1
		c-0.4,0.1-0.6,0.2-0.7,0.2C294.8,37.1,294.7,37.1,294.6,37z"/>
	<path class="st5" d="M302,36.4c0-0.3,0.2-0.5,0.6-0.5h0.2l0.2,0c0.1,0,0.2,0,0.2-0.1c0-0.1,0.1-0.2,0.1-0.4c0-0.2,0-0.6,0-1.1
		c0-0.3-0.1-0.9-0.1-1.7c-0.1-2-0.2-3.6-0.2-4.6c0-0.4,0-0.7,0-1l0-1c0-0.4,0-0.8-0.1-1.1c-0.2,0.1-0.4,0.1-0.5,0.1
		c-0.3,0-0.5-0.2-0.5-0.5c0-0.2,0.1-0.3,0.3-0.4c0.2-0.1,0.5-0.2,0.8-0.3c0.5-0.1,1-0.2,1.4-0.2c0.2,0,0.3,0.1,0.4,0.2
		c0.1,0.1,0.2,0.2,0.2,0.4s0,0.3-0.1,0.4c-0.1,0.1-0.2,0.2-0.3,0.2c-0.1,0-0.1,0-0.2,0h-0.2c-0.1,0-0.2,0-0.3,0.1
		c-0.1,0.1-0.1,0.2-0.1,0.3c0,1.3,0.1,3.2,0.2,5.8c0,0.5,0.1,1.2,0.2,2.1c0.1,0.6,0.1,1.2,0.1,1.9v0.8c0.1,0,0.2,0,0.4,0
		c0.6,0,0.8,0.2,0.8,0.7v0.1l-0.5,0.3c0,0-0.1,0-0.1,0c-0.1,0-0.2,0-0.4,0c-0.4,0-0.7,0-0.8,0C302.6,37,302,36.8,302,36.4z"/>
	<path class="st5" d="M308.4,36.7l0-0.8c0-0.2,0-0.5,0-0.8l0-0.7c0-0.1-0.1-1.6-0.3-4.4s-0.3-4.6-0.3-5.3c-0.8,0-1.3-0.1-1.5-0.2
		c-0.1-0.1-0.2-0.2-0.2-0.4c0-0.1,0.1-0.2,0.2-0.3c0.1-0.1,0.3-0.1,0.4-0.1c0.4,0,0.8,0,1.4,0.1c0.5,0.1,1,0.1,1.4,0.1h0.2h0.2
		c0.4,0,0.6,0.2,0.6,0.5c0,0.2-0.1,0.3-0.2,0.4c-0.1,0.1-0.3,0.2-0.5,0.2c-0.1,0-0.3,0-0.5-0.1l-0.4-0.1l0,0.1l0,0.1
		c0,1.2,0.1,3.1,0.3,5.7c0.2,2.4,0.3,4.3,0.3,5.7c0,0.2-0.1,0.3-0.2,0.4c-0.1,0.1-0.3,0.2-0.5,0.2L308.4,36.7z"/>
</g>
<path class="st5" d="M323.1,24.5c-0.4,0.1-0.7,0.2-1.1,0.3c-0.7,0.2-1.4,0.4-2.1,0.6c-0.6,0.2-2.3,0.6-2.4,0.7
	c-0.4,0.4-0.3,1-0.3,1.4c0,1.2,0,2.8,0,4.1c-2,0.4-2.6,2.5-1.5,4c0.5,0.6,1.6,0.5,2.1-0.2c0.3-0.4,0.2-1,0.2-1.5l-0.1-2.1
	c0,0,0-0.1,0-0.1c0,0,0,0,0,0c0-0.9,0-1.8,0-2.8c0-0.4,0-0.7,0-1c1.4-0.4,2.8-0.8,4.2-1.2c0.2,0,0.4-0.2,0.6-0.2c0,1.2,0,1.4,0,2.6
	c0,0.5,0,0.7,0,1.2c-2.4,0.2-2.5,4.1-0.4,4.1c1.1,0,1.2-1.3,1.2-2.1c0-2.2-0.1-4.5-0.1-6.7c0-0.3,0-0.6,0-0.9
	C323.6,24.6,323.3,24.5,323.1,24.5z"/>
<path class="st5" d="M330,32.8c-0.2,0-0.4,0-0.6,0c-0.4,0-0.8,0-1.3,0c-0.4,0-1.3-0.1-1.5,0c-0.3,0.1-0.4,0.5-0.4,0.7
	c-0.2,0.7-0.5,1.6-0.7,2.2c-1.2-0.1-1.9,0.9-1.5,1.9c0.2,0.4,0.8,0.6,1.2,0.3c0.2-0.2,0.3-0.5,0.4-0.8l0.3-1.2c0,0,0,0,0-0.1
	c0,0,0,0,0,0c0.2-0.5,0.3-1,0.5-1.5c0.1-0.2,0.1-0.4,0.2-0.5c0.8,0,1.7,0,2.5,0.1c0.1,0,0.3,0,0.4,0c-0.2,0.7-0.3,0.8-0.5,1.5
	c-0.1,0.3-0.1,0.4-0.2,0.7c-1.4-0.3-2.1,1.8-1,2.2c0.6,0.2,0.9-0.5,1-0.9c0.4-1.2,0.7-2.5,1.2-3.7c0.1-0.2,0.1-0.3,0.2-0.5
	C330.3,32.9,330.2,32.8,330,32.8z"/>
</svg>
