<?xml version="1.0" encoding="utf-8"?>
<!-- Generator: Adobe Illustrator 23.0.1, SVG Export Plug-In . SVG Version: 6.00 Build 0)  -->
<svg version="1.1" id="Layer_1" xmlns="http://www.w3.org/2000/svg" xmlns:xlink="http://www.w3.org/1999/xlink" x="0px" y="0px"
	 viewBox="0 0 360 360" style="enable-background:new 0 0 360 360;" xml:space="preserve">
<style type="text/css">
	.st0{fill:#FF6300;}
	.st1{opacity:0.1;fill:url(#SVGID_1_);enable-background:new    ;}
	.st2{opacity:0.1;fill:url(#SVGID_2_);enable-background:new    ;}
	.st3{fill:none;}
	.st4{fill:#005CFF;}
	.st5{fill:#A6A8AB;}
	.st6{fill:#FFF6C5;}
	.st7{fill:#5E5E5E;}
	.st8{fill:#FFFEE6;}
	.st9{fill:#F9E531;}
	.st10{fill:#58595B;}
	.st11{fill:#1C75F7;}
	.st12{fill:#FFC2DE;}
	.st13{enable-background:new    ;}
</style>
<g id="bg">
	<rect class="st0" width="360" height="360"/>
	
		<radialGradient id="SVGID_1_" cx="180.9" cy="52.617" r="99.4475" gradientTransform="matrix(1 0 0 -1 0 362)" gradientUnits="userSpaceOnUse">
		<stop  offset="0" style="stop-color:#603813"/>
		<stop  offset="1" style="stop-color:#FFFFFF"/>
	</radialGradient>
	<ellipse class="st1" cx="180.9" cy="309.4" rx="93.3" ry="4.4"/>
</g>
<g id="Layer_3">
</g>
<g id="Layer_10">
	
		<radialGradient id="SVGID_2_" cx="180.9" cy="52.617" r="99.4475" gradientTransform="matrix(1 0 0 -1 0 362)" gradientUnits="userSpaceOnUse">
		<stop  offset="0" style="stop-color:#603813"/>
		<stop  offset="1" style="stop-color:#FFFFFF"/>
	</radialGradient>
	<ellipse class="st2" cx="180.9" cy="309.4" rx="93.3" ry="4.4"/>
	<rect class="st3" width="360" height="360"/>
	<g>
		<path class="st4" d="M177.2,309.7H168v-1.9c0-1.1,0.9-2,2-2h7.3v3.9H177.2z"/>
		<path class="st4" d="M183.6,309.7h9.3v-1.9c0-1.1-0.9-2-2-2h-7.3V309.7z"/>
	</g>
	<g>
		<rect x="173.6" y="234.8" class="st4" width="3.6" height="72.9"/>
		<rect x="183.6" y="234.8" class="st4" width="3.6" height="72.9"/>
	</g>
	<rect x="168" y="172.6" class="st5" width="12.4" height="15.3"/>
	<rect x="97" y="193.9" class="st6" width="40.9" height="3.6"/>
	<rect x="101" y="193.8" class="st7" width="3.9" height="3.6"/>
	<ellipse class="st8" cx="98.3" cy="195.7" rx="3.8" ry="4"/>
	<rect x="222" y="193.9" class="st6" width="40.9" height="3.6"/>
	<rect x="255.1" y="193.8" class="st7" width="3.9" height="3.6"/>
	<ellipse class="st8" cx="261.7" cy="195.7" rx="3.8" ry="4"/>
	<ellipse class="st8" cx="180.4" cy="150.4" rx="74.2" ry="90"/>
	<path class="st9" d="M111.7,184.5c3,8.7,7,16.8,12,23.9c1.1,1.6,2.4,3.2,3.6,4.8h106.2c1.2-1.5,2.5-3.1,3.6-4.8
		c5-7.1,9-15.2,12-23.9H111.7z"/>
	<g>
		<ellipse class="st10" cx="175.3" cy="122.2" rx="2.5" ry="5.1"/>
		<ellipse class="st10" cx="185.5" cy="122.2" rx="2.5" ry="5.1"/>
	</g>
	<path class="st7" d="M181.5,60.4c-0.4,0-0.8,0-1.1,0c-0.4,0-0.8,0-1.1,0c-24.6,0.4-46.4,15.4-59.6,38.2c6.5,4.9,14.6,7.8,23.4,7.8
		c17.5,0,32.4-11.5,37.3-27.4c5,15.9,19.8,27.4,37.3,27.4c8.8,0,16.9-2.9,23.4-7.8C227.9,75.8,206.2,60.8,181.5,60.4z"/>
	<path class="st7" d="M186.5,188.2l-1.7-3.7h-3.6h-3.6l-1.7,3.7l3.8,3.2l-3.5,12.6c-0.2,0.7,0,1.4,0.5,1.9l3.1,3.2
		c0.8,0.8,2.1,0.8,2.9,0l3.1-3.2c0.5-0.5,0.7-1.2,0.5-1.9l-3.5-12.6L186.5,188.2z"/>
	<path class="st4" d="M180.4,240.4c20.8,0,39.6-10.4,53.1-27.2H127.3C140.8,229.9,159.6,240.4,180.4,240.4z"/>
	<path class="st11" d="M214,213.2c-12.2,10.8-27.3,17.2-43.6,17.2c-15.6,0-30-5.8-42-15.8c13.4,15.9,31.7,25.8,52,25.8
		c20.8,0,39.6-10.4,53.1-27.2H214z"/>
	<path class="st12" d="M219.8,209h-8.6c-3.1,0-5.6-2.5-5.6-5.6v-10.3h19.8v10.3C225.4,206.5,222.9,209,219.8,209z"/>
	<rect x="205.6" y="193.1" class="st7" width="19.8" height="2.6"/>
	<path class="st12" d="M177.6,184.5l-2.2,5.4c-0.4,0.9-1.3,1.4-2.2,1.2l-37.1-6.6L177.6,184.5L177.6,184.5z"/>
	<path class="st12" d="M184.9,184.5l2.2,5.4c0.4,0.9,1.3,1.4,2.2,1.2l37.1-6.6L184.9,184.5L184.9,184.5z"/>
</g>
<g id="Layer_4">
</g>
<g id="Layer_5">
</g>
<g id="Layer_6">
</g>
<g id="Layer_7">
</g>
<g id="Layer_8">
</g>
<g id="Layer_11">
</g>
<g class="st13">
	<path class="st8" d="M130.5,37.1c-0.1-0.1-0.1-0.2-0.1-0.3l0-1.9c0-0.9,0.1-1.5,0.1-1.9c0-0.4-0.1-1-0.2-1.7
		c-0.1-0.7-0.2-1.3-0.2-1.7c0-0.5-0.1-1.1-0.2-1.7c-0.1-0.7-0.3-1.3-0.6-1.9c-0.2-0.6-0.4-1.2-0.5-1.8c-0.1-0.7-0.2-1.2-0.2-1.7
		c0-0.1,0.1-0.2,0.2-0.2c0.1-0.1,0.2-0.1,0.3-0.1c0.1,0,0.3,0.2,0.4,0.5c0.2,0.3,0.3,0.8,0.5,1.5c0.1,0.6,0.2,1,0.3,1.1l0.3,1.4
		l0.2,0.9c0-0.2,0.1-0.5,0.1-0.8c0.1-1.1,0.2-2,0.3-2.8c0.1-0.5,0.2-0.9,0.3-1.2c0.1-0.3,0.3-0.4,0.5-0.4c0.4,0,0.5,0.1,0.5,0.2
		c0,0.8-0.2,1.9-0.5,3.4c-0.3,1.5-0.5,2.6-0.5,3.4l0,0.3c0,0.2,0,0.3,0,0.4V30c0,0.6,0,1.5,0.1,2.6l0,2.7l0,0.5l0,0.5v0.5
		c0,0.2-0.1,0.3-0.2,0.4c-0.1,0.1-0.3,0.2-0.5,0.2C130.7,37.3,130.6,37.2,130.5,37.1z"/>
	<path class="st8" d="M136.1,37.1c-0.3-0.2-0.5-0.5-0.7-0.9c-0.4-0.8-0.6-1.7-0.7-2.7c-0.1-0.9-0.2-1.8-0.2-2.6c0-0.2,0-0.3,0-0.4
		v-0.4c0-0.1,0-0.1,0-0.1v-0.4l0-1.4c0-0.4,0.1-1.1,0.2-2c0.1-0.6,0.2-1.3,0.5-1.9c0.1-0.3,0.2-0.5,0.4-0.6c0.1-0.1,0.3-0.2,0.5-0.2
		c0.5,0,1,0.1,1.4,0.3s0.8,0.5,1.1,0.8c0.3,0.3,0.5,0.7,0.7,1.2c0.2,0.5,0.3,1,0.4,1.5c0.1,0.6,0.1,1.2,0.1,1.8v0.2
		c0,0.4,0,0.8,0,1.1l0,1.1c0,3.8-0.9,5.8-2.7,5.8C136.7,37.4,136.4,37.3,136.1,37.1z M137.7,36.3c0.2-0.2,0.4-0.5,0.5-0.8
		c0.3-0.7,0.4-1.4,0.5-2.2c0.1-0.7,0.1-1.3,0.1-1.8c0-0.6,0-1.4-0.1-2.4c-0.1-1-0.1-1.8-0.1-2.3v-0.4c0-0.5-0.2-0.9-0.5-1.3
		c-0.3-0.4-0.7-0.6-1.1-0.6c-0.5,0-0.8,0.3-0.9,0.8c-0.1,0.4-0.2,0.9-0.2,1.6c0,0.3,0,0.5,0,0.6v0.5l0,0.9c0,0.3,0,0.6,0,0.9
		c0,0.7,0,1.4,0.1,2.1c0.1,1,0.2,2,0.4,2.9c0.2,1,0.5,1.5,0.9,1.5C137.2,36.6,137.5,36.5,137.7,36.3z"/>
	<path class="st8" d="M143.2,37.1c-0.3-0.1-0.5-0.3-0.6-0.6c-0.3-0.6-0.5-1.2-0.6-1.9c-0.1-0.6-0.1-1.3-0.1-2.2
		c0-1.4-0.1-3.2-0.1-5.3l0-1.5c0-0.1,0-0.2,0-0.4c0-0.5,0-0.8,0-0.9c0.1-0.3,0.3-0.4,0.4-0.4c0.2,0,0.3,0.1,0.4,0.4
		c0.1,0.2,0.2,0.5,0.2,0.8v5.4c0,0.5,0,1.2,0.1,2.1c0.1,1.1,0.1,1.8,0.1,2.1c0,1,0.4,1.5,1.3,1.5c1,0,1.4-3.6,1.4-10.8v-1.1v-0.2
		c0,0,0-0.1,0-0.2c0-0.2,0-0.3,0.1-0.4s0.2-0.1,0.4-0.1c0.2,0,0.3,0,0.4,0.1c0.1,0.1,0.2,0.2,0.2,0.4c0,0.1,0,0.2,0,0.5
		c0,0.2,0,0.6-0.1,1c-0.1,0.4-0.1,0.7-0.1,1c0,0.3,0,0.6,0,0.8l0,0.8v0.2c0,0.1,0,0.1,0,0.2c0,5.9-0.9,8.9-2.6,8.9
		C143.8,37.3,143.5,37.3,143.2,37.1z"/>
	<path class="st8" d="M154.4,37c-0.3-0.1-0.6-0.3-0.8-0.5c-0.2-0.2-0.3-0.5-0.5-0.8c-0.1-0.4-0.3-0.7-0.3-1
		c-0.1-0.3-0.1-0.6-0.2-1.1c0-0.5-0.1-0.9-0.1-1.2v-1.2v-0.8c0-0.8,0-1.4,0-1.9c0-0.6,0.1-1.2,0.3-1.9c0.1-0.6,0.3-1.1,0.6-1.6
		c0.3-0.5,0.7-0.8,1.2-0.9c0.2-0.1,0.5-0.1,0.8-0.1c0.6,0,0.9,0.2,0.9,0.5c0,0.2-0.1,0.3-0.2,0.4s-0.3,0.2-0.4,0.2
		c-0.1,0-0.2,0-0.2,0c-0.1,0-0.1,0-0.2,0c-0.2,0-0.4,0.1-0.6,0.4c-0.2,0.2-0.3,0.6-0.4,1c-0.2,0.8-0.4,1.7-0.4,2.7
		c-0.1,0.9-0.1,1.6-0.1,2c0,0.5,0,1.1,0.1,1.9c0.1,0.7,0.2,1.4,0.3,1.9c0.1,0.3,0.2,0.6,0.3,0.8c0.1,0.2,0.3,0.4,0.5,0.5
		c0.2,0.1,0.5,0.2,0.7,0.2c0.6,0,1-1.1,1-3.2V32c-0.1,0-0.2-0.1-0.5-0.1H156h-0.2c-0.5,0-0.7-0.2-0.7-0.5c0-0.2,0.1-0.3,0.2-0.4
		c0.1-0.1,0.3-0.1,0.5-0.1v0h0.3c1.2,0,1.8,0.2,1.8,0.6c0,0.1,0,0.4-0.1,0.7c-0.1,0.3-0.1,0.6-0.1,0.7c0,0.2,0,0.6,0.1,1.1l0,1.1
		c0,0.6-0.2,1.1-0.7,1.5c-0.4,0.4-1,0.5-1.6,0.5C155,37.2,154.7,37.1,154.4,37z"/>
	<path class="st8" d="M161,37.1c-0.3-0.1-0.5-0.3-0.6-0.6c-0.3-0.6-0.5-1.2-0.6-1.9c-0.1-0.6-0.1-1.3-0.1-2.2c0-1.4-0.1-3.2-0.1-5.3
		l0-1.5c0-0.1,0-0.2,0-0.4c0-0.5,0-0.8,0-0.9c0.1-0.3,0.3-0.4,0.4-0.4c0.2,0,0.3,0.1,0.4,0.4c0.1,0.2,0.2,0.5,0.2,0.8v5.4
		c0,0.5,0,1.2,0.1,2.1c0.1,1.1,0.1,1.8,0.1,2.1c0,1,0.4,1.5,1.3,1.5c1,0,1.4-3.6,1.4-10.8v-1.1v-0.2c0,0,0-0.1,0-0.2
		c0-0.2,0-0.3,0.1-0.4s0.2-0.1,0.4-0.1c0.2,0,0.3,0,0.4,0.1c0.1,0.1,0.2,0.2,0.2,0.4c0,0.1,0,0.2,0,0.5c0,0.2,0,0.6-0.1,1
		c-0.1,0.4-0.1,0.7-0.1,1c0,0.3,0,0.6,0,0.8l0,0.8v0.2c0,0.1,0,0.1,0,0.2c0,5.9-0.9,8.9-2.6,8.9C161.6,37.3,161.3,37.3,161,37.1z"/>
	<path class="st8" d="M168,36.9c0.1-0.3,0.2-1.4,0.2-3.4c0-0.5,0-1-0.1-1.5l-0.1-0.6c0-0.4-0.1-0.6-0.1-0.8V30
		c-0.1-0.3-0.4-1-0.7-1.9c-0.4-0.9-0.6-1.7-0.8-2.3c-0.3-0.7-0.4-1.2-0.4-1.4v-0.1l0.5-0.3c0.2,0,0.5,0.3,0.7,0.9
		c0.2,0.5,0.5,1.2,0.7,2.1c0.3,0.9,0.4,1.4,0.4,1.5c0.1-0.1,0.2-0.6,0.3-1.5c0.2-0.9,0.3-1.6,0.5-2.3c0.2-0.7,0.5-1,0.7-1
		c0.1,0,0.2,0,0.3,0.1c0.1,0.1,0.2,0.2,0.2,0.3c0,0.7-0.2,1.6-0.6,2.9c-0.4,1.3-0.6,2.3-0.6,2.9v6c0,0.9-0.2,1.3-0.7,1.3
		C168.4,37.3,168.2,37.2,168,36.9z"/>
	<path class="st8" d="M172.4,37.1c-0.2-0.1-0.3-0.3-0.3-0.5l0.2-0.3c0.1,0,0.2,0,0.4,0.1c0.2,0,0.4,0.1,0.5,0.1
		c0.2,0,0.5-0.1,0.6-0.3c0.2-0.2,0.3-0.5,0.4-0.8c0.2-0.6,0.3-1.2,0.3-1.7c0-0.9-0.3-1.8-0.8-2.8l-0.2-0.4c-0.3-0.4-0.5-0.8-0.6-1.2
		s-0.3-0.7-0.4-1.1c-0.2-0.5-0.2-1-0.2-1.6c0-0.6,0.1-1.2,0.4-1.8c0.1-0.3,0.3-0.6,0.6-0.8c0.2-0.2,0.5-0.3,0.8-0.3
		c0.2,0,0.5,0.1,0.7,0.2c0.2,0.2,0.3,0.3,0.3,0.5c0,0.1,0,0.2-0.1,0.3s-0.2,0.1-0.3,0.1c-0.1,0-0.3,0-0.4-0.1
		c-0.3,0-0.5,0.3-0.7,0.8c-0.1,0.5-0.2,0.9-0.2,1.2c0,0.4,0.1,0.8,0.2,1.2c0.1,0.4,0.3,0.8,0.5,1.1l0.4,0.8l0.7,1.3
		c0.2,0.4,0.3,0.8,0.5,1.3c0.1,0.5,0.2,1,0.2,1.5c0,0.8-0.2,1.6-0.6,2.3c-0.2,0.4-0.5,0.7-0.8,0.9s-0.7,0.3-1.1,0.3v0.1
		C172.7,37.3,172.5,37.2,172.4,37.1z"/>
	<path class="st8" d="M184.5,37.1c-0.1-0.1-0.2-0.3-0.2-0.5c0-0.4-0.1-1.1-0.2-2l-0.1-0.4l-2-0.3c-0.1,0.3-0.2,0.9-0.3,1.9
		c-0.1,0.7-0.2,1.1-0.4,1.3c-0.1,0.1-0.2,0.2-0.4,0.2c-0.2,0-0.3,0-0.4-0.1c-0.1-0.1-0.2-0.2-0.2-0.4l0-0.1l0-0.1
		c0.9-3.4,1.5-6.8,2-10.1c0-0.1,0-0.1,0-0.3c0-0.1,0-0.3,0-0.5c0-0.5,0.1-0.9,0.1-1.2c0-0.3,0.1-0.5,0.2-0.7h0.7
		c0.2,0,0.3,0,0.5,0.1c0.1,0.1,0.2,0.2,0.2,0.4c0,1,0.1,2.5,0.4,4.5c0.3,2.1,0.4,3.5,0.4,4.3c0,0.1,0,0.3,0.1,0.6
		c0.1,0.3,0.1,0.5,0.1,0.6s0.1,0.5,0.2,1.2c0.1,0.6,0.2,1.1,0.2,1.2v0c0,0.3-0.1,0.5-0.3,0.6C184.8,37.2,184.6,37.2,184.5,37.1z
		 M183.8,32.6c0-1.2-0.1-2.7-0.3-4.6l-0.2-2.1c-0.6,3.1-1,5.5-1.2,7.1c0.2,0.1,0.8,0.2,1.8,0.3C183.8,33.2,183.8,32.9,183.8,32.6z"
		/>
	<path class="st8" d="M189.9,36.4c-0.3-0.7-0.5-1.4-0.6-2.1l-0.1-0.7c-0.4-1.9-0.6-3-0.7-3.3h-0.2c0,0.4,0,0.7,0,1.1v1.1
		c0,1.8,0.1,3.2,0.4,4.2l-0.2,0.5h-0.6l-0.3-0.3l0-1.3c0-1.2-0.1-3-0.2-5.5c-0.1-2.6-0.2-4.4-0.2-5.5c0-0.6,0.2-1,0.7-1
		c0.7,0,1.3,0.2,1.8,0.6c0.5,0.4,0.7,0.9,0.7,1.6v1.4c0,0.2,0,0.4-0.1,0.7s-0.1,0.5-0.2,0.6l-0.4,0.7l-0.3,0.6l0.1,0.5l0.3,1.4
		c0.2,1,0.4,1.9,0.5,2.5c0.2,0.6,0.4,1.2,0.6,1.7l0.1,0.2c0.1,0.3,0.2,0.5,0.2,0.6c0,0.1,0,0.2-0.1,0.4c-0.1,0.1-0.2,0.1-0.3,0.1
		C190.4,37.4,190.1,37.1,189.9,36.4z M189,28.2c0.2-0.7,0.3-1.3,0.3-1.8c0-0.4-0.1-0.8-0.2-1.2c-0.1-0.2-0.2-0.4-0.3-0.5
		s-0.3-0.2-0.6-0.2l0,0.1l0,0.2l0,2.4c0,0.7,0,1.4,0,2.3C188.5,29.2,188.8,28.8,189,28.2z"/>
	<path class="st8" d="M193.5,37.1c-0.1-0.1-0.2-0.3-0.2-0.4v-0.5v-0.4c0-0.1,0-0.3,0-0.4c0-0.3,0-0.7-0.1-1.3l0-1.3
		c0-0.7,0-1.6,0.1-2.9c0.1-1.2,0.1-2.1,0.1-2.9c0-0.2,0-0.5-0.1-0.8c0-0.4-0.1-0.7-0.1-0.8c0-0.9,0.3-1.4,0.8-1.4
		c0.4,0,1,0.1,1.5,0.3c0.6,0.2,0.9,0.4,0.9,0.6c0,0.1-0.1,0.3-0.2,0.4c-0.1,0.1-0.2,0.2-0.4,0.3c-0.6-0.2-1.1-0.3-1.5-0.4
		c0,0.2,0,0.5,0,0.9c0,0.5,0,1,0,1.4c0,0.6-0.1,1.1-0.1,1.4l0.1,0.3l0.3,0c0.1,0,0.2,0,0.4,0c0.6,0,1,0.2,1,0.6
		c0,0.1-0.1,0.3-0.2,0.4c-0.1,0.1-0.3,0.1-0.5,0.1c-0.2,0-0.4,0-0.6,0h-0.5c0,0.3,0,0.9,0,1.5s0,1.3,0,1.8c0,0.8-0.1,1.4-0.1,1.8
		c0,0.7,0,1.1,0,1.1l0.7,0c0.2,0,0.5,0,0.8,0c0.5,0,0.8,0.2,0.8,0.5c0,0.2-0.1,0.3-0.2,0.4c-0.2,0.1-0.4,0.1-0.6,0.1H194
		C193.8,37.3,193.7,37.2,193.5,37.1z"/>
	<path class="st8" d="M205.3,33.7l0-1.1l0-0.9v-0.1v-0.2c0-0.1,0-0.2,0-0.4c0,0,0-0.1-0.1-0.1s-0.1-0.1-0.1-0.1v0
		c-0.1,0-0.2,0-0.4,0s-0.4,0-0.6-0.1c-0.1,0-0.3,0-0.6-0.1V33c0,0.3,0,0.9,0.1,1.6c0,0.7,0.1,1.3,0.1,1.6c0,0.2-0.1,0.4-0.2,0.5
		c-0.1,0.1-0.2,0.2-0.4,0.2c-0.3,0-0.4-0.2-0.5-0.7c-0.1-0.5-0.2-1.2-0.2-2l0-1.6c0-0.5,0-0.9,0-1.4v-0.3v-0.3c0-0.2,0-0.4,0-0.4
		v-0.1l0.1-1.2c0-0.5,0-1.3-0.1-2.3c0-1-0.1-1.8-0.1-2.3c0-0.2,0.1-0.3,0.2-0.4c0.1-0.1,0.2-0.2,0.4-0.2c0.4,0,0.6,0.4,0.6,1.2
		l0,2.5c0,0.7,0,1.6,0,2.5c0.2,0.1,0.6,0.1,1.1,0.1h0.7c0-0.1,0-0.2,0-0.2c0-0.6,0-1.6-0.1-2.8c-0.1-1.2-0.1-2.1-0.1-2.9
		c0-0.1,0.1-0.3,0.2-0.4c0.1-0.1,0.2-0.2,0.4-0.2c0.1,0,0.2,0,0.4,0.1l0.2,0.1c0,1.9,0.1,4.4,0.2,7.6l0.2,5.1c0,0.2-0.1,0.3-0.2,0.4
		c-0.1,0.1-0.3,0.2-0.5,0.2C205.5,37,205.3,35.9,205.3,33.7z"/>
	<path class="st8" d="M210.3,37.1c-0.3-0.1-0.5-0.3-0.6-0.6c-0.3-0.6-0.5-1.2-0.6-1.9c-0.1-0.6-0.1-1.3-0.1-2.2
		c0-1.4-0.1-3.2-0.1-5.3l0-1.5c0-0.1,0-0.2,0-0.4c0-0.5,0-0.8,0-0.9c0.1-0.3,0.3-0.4,0.4-0.4c0.2,0,0.3,0.1,0.4,0.4
		c0.1,0.2,0.2,0.5,0.2,0.8v5.4c0,0.5,0,1.2,0.1,2.1c0.1,1.1,0.1,1.8,0.1,2.1c0,1,0.4,1.5,1.3,1.5c1,0,1.4-3.6,1.4-10.8v-1.1v-0.2
		c0,0,0-0.1,0-0.2c0-0.2,0-0.3,0.1-0.4s0.2-0.1,0.4-0.1c0.2,0,0.3,0,0.4,0.1c0.1,0.1,0.2,0.2,0.2,0.4c0,0.1,0,0.2,0,0.5
		c0,0.2,0,0.6-0.1,1c-0.1,0.4-0.1,0.7-0.1,1c0,0.3,0,0.6,0,0.8l0,0.8v0.2c0,0.1,0,0.1,0,0.2c0,5.9-0.9,8.9-2.6,8.9
		C210.9,37.3,210.6,37.3,210.3,37.1z"/>
	<path class="st8" d="M217.8,37c-0.3-0.1-0.6-0.3-0.8-0.5c-0.2-0.2-0.3-0.5-0.5-0.8c-0.1-0.4-0.3-0.7-0.3-1
		c-0.1-0.3-0.1-0.6-0.2-1.1c0-0.5-0.1-0.9-0.1-1.2v-1.2v-0.8c0-0.8,0-1.4,0-1.9c0-0.6,0.1-1.2,0.3-1.9c0.1-0.6,0.3-1.1,0.6-1.6
		c0.3-0.5,0.7-0.8,1.2-0.9c0.2-0.1,0.5-0.1,0.8-0.1c0.6,0,0.9,0.2,0.9,0.5c0,0.2-0.1,0.3-0.2,0.4s-0.3,0.2-0.5,0.2
		c-0.1,0-0.2,0-0.2,0c-0.1,0-0.1,0-0.2,0c-0.2,0-0.4,0.1-0.6,0.4c-0.2,0.2-0.3,0.6-0.4,1c-0.2,0.8-0.4,1.7-0.4,2.7
		c-0.1,0.9-0.1,1.6-0.1,2c0,0.5,0,1.1,0.1,1.9c0.1,0.7,0.2,1.4,0.3,1.9c0.1,0.3,0.2,0.6,0.3,0.8s0.3,0.4,0.5,0.5
		c0.2,0.1,0.5,0.2,0.7,0.2c0.6,0,1-1.1,1-3.2V32c-0.1,0-0.2-0.1-0.5-0.1h-0.2h-0.2c-0.5,0-0.7-0.2-0.7-0.5c0-0.2,0.1-0.3,0.2-0.4
		c0.1-0.1,0.3-0.1,0.5-0.1v0h0.3c1.2,0,1.8,0.2,1.8,0.6c0,0.1,0,0.4-0.1,0.7c-0.1,0.3-0.1,0.6-0.1,0.7c0,0.2,0,0.6,0.1,1.1l0,1.1
		c0,0.6-0.2,1.1-0.7,1.5c-0.4,0.4-1,0.5-1.6,0.5C218.5,37.2,218.2,37.1,217.8,37z"/>
	<path class="st8" d="M223.6,37.1c-0.1-0.1-0.2-0.3-0.2-0.4v-0.5v-0.4c0-0.1,0-0.3,0-0.4c0-0.3,0-0.7-0.1-1.3l0-1.3
		c0-0.7,0-1.6,0.1-2.9c0.1-1.2,0.1-2.1,0.1-2.9c0-0.2,0-0.5-0.1-0.8c0-0.4-0.1-0.7-0.1-0.8c0-0.9,0.3-1.4,0.8-1.4
		c0.4,0,1,0.1,1.5,0.3c0.6,0.2,0.9,0.4,0.9,0.6c0,0.1-0.1,0.3-0.2,0.4c-0.1,0.1-0.2,0.2-0.4,0.3c-0.6-0.2-1.1-0.3-1.5-0.4
		c0,0.2,0,0.5,0,0.9c0,0.5,0,1,0,1.4c0,0.6-0.1,1.1-0.1,1.4l0.1,0.3l0.3,0c0.1,0,0.2,0,0.4,0c0.6,0,1,0.2,1,0.6
		c0,0.1-0.1,0.3-0.2,0.4c-0.1,0.1-0.3,0.1-0.5,0.1c-0.2,0-0.4,0-0.6,0h-0.5c0,0.3,0,0.9,0,1.5s0,1.3,0,1.8c0,0.8-0.1,1.4-0.1,1.8
		c0,0.7,0,1.1,0,1.1l0.7,0c0.2,0,0.5,0,0.8,0c0.5,0,0.8,0.2,0.8,0.5c0,0.2-0.1,0.3-0.2,0.4c-0.2,0.1-0.4,0.1-0.6,0.1h-1.7
		C223.9,37.3,223.8,37.2,223.6,37.1z"/>
	<path class="st8" d="M229,37.3c-0.1-0.1-0.2-0.3-0.2-0.5c0-0.2,0.1-0.4,0.2-0.6c0.2-0.2,0.4-0.3,0.6-0.3c0.2,0,0.4,0.1,0.6,0.3
		c0.2,0.2,0.2,0.4,0.2,0.7c0,0.5-0.3,0.7-1,0.7C229.3,37.5,229.2,37.4,229,37.3z M229.5,33.6c-0.1-0.3-0.2-0.9-0.2-1.5
		c0-0.2,0-0.7,0-1.4c0-0.5,0-1,0-1.6l0-3.3l0-3.3c0-0.2,0.1-0.4,0.3-0.5c0.2-0.2,0.4-0.2,0.6-0.2c0.1,0,0.2,0,0.3,0.1
		c0.1,0.1,0.1,0.2,0.1,0.4c0,1.2-0.1,2.8-0.2,4.8c-0.1,2.2-0.2,3.8-0.2,4.8c0,0.7,0,1.2,0,1.5c0,0.3-0.1,0.5-0.1,0.6
		c0,0.1-0.1,0.2-0.2,0.2C229.7,34.1,229.6,33.9,229.5,33.6z"/>
</g>
</svg>
