<?xml version="1.0" encoding="utf-8"?>
<!-- Generator: Adobe Illustrator 23.0.1, SVG Export Plug-In . SVG Version: 6.00 Build 0)  -->
<svg version="1.1" id="Layer_1" xmlns="http://www.w3.org/2000/svg" xmlns:xlink="http://www.w3.org/1999/xlink" x="0px" y="0px"
	 viewBox="0 0 360 360" style="enable-background:new 0 0 360 360;" xml:space="preserve">
<style type="text/css">
	.st0{opacity:0.1;fill:url(#SVGID_1_);enable-background:new    ;}
	.st1{fill:#005CFF;}
	.st2{clip-path:url(#SVGID_3_);fill:#FF6300;}
	.st3{clip-path:url(#SVGID_5_);fill:none;stroke:#FFFFFF;stroke-miterlimit:10;}
	.st4{clip-path:url(#SVGID_7_);fill:none;stroke:#FFFFFF;stroke-miterlimit:10;}
	.st5{fill:none;}
	.st6{fill:#FFFEE6;}
	.st7{fill:#FFC2DE;}
	.st8{clip-path:url(#SVGID_9_);}
	.st9{clip-path:url(#SVGID_11_);}
	.st10{fill:#F4CD86;}
	.st11{fill:#F9E531;}
	.st12{fill:none;stroke:#FFFFFF;stroke-width:3;stroke-linecap:round;stroke-miterlimit:10;}
	.st13{fill:#FF6300;}
	.st14{fill:none;stroke:#EE4036;stroke-width:0.5;stroke-linecap:round;stroke-miterlimit:10;}
	.st15{fill:#5E5E5E;}
	.st16{fill:#FFFFFF;}
	.st17{fill:#404041;}
	.st18{opacity:0.1;fill:url(#SVGID_12_);enable-background:new    ;}
	.st19{enable-background:new    ;}
	.st20{display:none;fill:#A6A8AB;enable-background:new    ;}
	.st21{font-family:'ArialMT';}
	.st22{font-size:12px;}
</style>
<g id="bg">
	
		<radialGradient id="SVGID_1_" cx="180.9" cy="52.617" r="99.4475" gradientTransform="matrix(1 0 0 -1 0 362)" gradientUnits="userSpaceOnUse">
		<stop  offset="0" style="stop-color:#603813"/>
		<stop  offset="1" style="stop-color:#FFFFFF"/>
	</radialGradient>
	<ellipse class="st0" cx="180.9" cy="309.4" rx="93.3" ry="4.4"/>
</g>
<g id="Layer_3">
</g>
<g id="Layer_10">
</g>
<g id="Layer_4">
</g>
<rect class="st1" width="360" height="360"/>
<g>
	<g>
		<defs>
			
				<ellipse id="SVGID_2_" transform="matrix(0.9951 -9.853758e-02 9.853758e-02 0.9951 -30.5248 13.3511)" cx="119.9" cy="315.7" rx="9.8" ry="9.8"/>
		</defs>
		<clipPath id="SVGID_3_">
			<use xlink:href="#SVGID_2_"  style="overflow:visible;"/>
		</clipPath>
		
			<ellipse transform="matrix(0.9951 -9.853758e-02 9.853758e-02 0.9951 -30.5248 13.3511)" class="st2" cx="119.9" cy="315.7" rx="9.8" ry="9.8"/>
	</g>
	<g>
		<defs>
			
				<ellipse id="SVGID_4_" transform="matrix(0.9951 -9.853758e-02 9.853758e-02 0.9951 -30.5248 13.3511)" cx="119.9" cy="315.7" rx="9.8" ry="9.8"/>
		</defs>
		<clipPath id="SVGID_5_">
			<use xlink:href="#SVGID_4_"  style="overflow:visible;"/>
		</clipPath>
		<path class="st3" d="M127.3,308.6c0,0-5.3,7.4,0.5,14.1"/>
	</g>
	<g>
		<defs>
			
				<ellipse id="SVGID_6_" transform="matrix(0.9951 -9.853758e-02 9.853758e-02 0.9951 -30.5248 13.3511)" cx="119.9" cy="315.7" rx="9.8" ry="9.8"/>
		</defs>
		<clipPath id="SVGID_7_">
			<use xlink:href="#SVGID_6_"  style="overflow:visible;"/>
		</clipPath>
		<path class="st4" d="M113.2,308.4c0,0,5.3,7.4-0.5,14.1"/>
	</g>
</g>
<ellipse id="XMLID_6_" class="st5" cx="119.9" cy="315.7" rx="9.4" ry="8.2"/>
<path class="st6" d="M243.2,148.6c0,57.3-27.9,86.6-62.3,86.6s-62.3-29.3-62.3-86.6s27.9-87.2,62.3-87.2S243.2,91.3,243.2,148.6z"/>
<g>
	<g>
		<path id="XMLID_2_" class="st7" d="M125.4,191.9c-0.5,3.8-1.6,9.2,1.8,14.1c1.2,1.7,4.5,4.8,5.7,6.5c1,1.4,6.3,2.2,16.8,3
			c5.2,0.4,9.5,0,10.6,0.3c9.9,2.7,27.9,4.9,42.6-0.6c1.1-0.4,22.1-1.2,24.1-1.6c4.9-1.2,7.1-7,7.4-7.4c3.9-5.6,2.1-11.7,2.1-14.2
			L125.4,191.9z"/>
	</g>
	<g>
		<defs>
			<path id="SVGID_8_" d="M125.4,191.9c-0.5,3.8-1.6,9.2,1.8,14.1c1.2,1.7,4.5,4.8,5.7,6.5c1,1.4,6.3,2.2,16.8,3
				c5.2,0.4,9.5,0,10.6,0.3c9.9,2.7,27.9,4.9,42.6-0.6c1.1-0.4,22.1-1.2,24.1-1.6c4.9-1.2,7.1-7,7.4-7.4c3.9-5.6,2.1-11.7,2.1-14.2
				L125.4,191.9z"/>
		</defs>
		<clipPath id="SVGID_9_">
			<use xlink:href="#SVGID_8_"  style="overflow:visible;"/>
		</clipPath>
		<g class="st8">
			<polygon class="st1" points="134.9,195.9 133.6,198.1 134.9,200.3 136.2,198.1 			"/>
			<polygon class="st1" points="134.9,205.7 133.6,208 134.9,210.2 136.2,208 			"/>
			<polygon class="st1" points="152.6,196.9 151.3,199.1 152.6,201.3 153.9,199.1 			"/>
			<polygon class="st1" points="152.6,206.7 151.3,209 152.6,211.2 153.9,209 			"/>
			<g>
				<polygon class="st1" points="143.7,199.8 142.4,202 143.7,204.2 145,202 				"/>
				<polygon class="st1" points="143.7,209.7 142.4,211.9 143.7,214.1 145,211.9 				"/>
			</g>
		</g>
	</g>
	<g>
		<defs>
			<path id="SVGID_10_" d="M125.4,191.9c-0.5,3.8-1.6,9.2,1.8,14.1c1.2,1.7,4.5,4.8,5.7,6.5c1,1.4,6.3,2.2,16.8,3
				c5.2,0.4,9.5,0,10.6,0.3c9.9,2.7,27.9,4.9,42.6-0.6c1.1-0.4,22.1-1.2,24.1-1.6c4.9-1.2,7.1-7,7.4-7.4c3.9-5.6,2.1-11.7,2.1-14.2
				L125.4,191.9z"/>
		</defs>
		<clipPath id="SVGID_11_">
			<use xlink:href="#SVGID_10_"  style="overflow:visible;"/>
		</clipPath>
		<g class="st9">
			<polygon class="st1" points="228.1,195.9 229.4,198.1 228.1,200.3 226.8,198.1 			"/>
			<polygon class="st1" points="228.1,205.7 229.4,208 228.1,210.2 226.8,208 			"/>
			<polygon class="st1" points="210.4,196.9 211.7,199.1 210.4,201.3 209,199.1 			"/>
			<polygon class="st1" points="210.4,206.7 211.7,209 210.4,211.2 209,209 			"/>
			<g>
				<polygon class="st1" points="219.2,199.8 220.5,202 219.2,204.2 217.9,202 				"/>
				<polygon class="st1" points="219.2,209.7 220.5,211.9 219.2,214.1 217.9,211.9 				"/>
			</g>
		</g>
	</g>
</g>
<rect x="231.9" y="200.5" class="st7" width="3.6" height="40.9"/>
<ellipse class="st10" cx="233.7" cy="240.2" rx="4" ry="3.8"/>
<rect x="126.4" y="200.5" class="st7" width="3.6" height="31.8"/>
<g>
	<path class="st11" d="M181,235.3c18,0,34.2-7.4,46.1-21.7H135C146.7,228,163,235.3,181,235.3z"/>
</g>
<path class="st12" d="M135.9,235.2h-5.5c-9.8,0-10.6,7.5-10.6,16.7v58.8"/>
<path class="st13" d="M117.5,309.2c0,0,0.9,0.5,2.1,0.7c0.7,0.1,1.5,0.3,2.5-0.1l0.4,2.6h-5.2L117.5,309.2z"/>
<path class="st14" d="M117.5,309c0,0,2.9,1.6,4.6,0.6"/>
<g>
	<ellipse class="st15" cx="166.6" cy="115" rx="2.5" ry="4"/>
	<ellipse class="st15" cx="195.4" cy="115" rx="2.5" ry="4"/>
</g>
<polygon class="st16" points="152.2,191.9 181,200.5 209.7,191.9 "/>
<g>
	<path class="st1" d="M152.2,193c2.5,0.6,4.9,1.3,7.3,1.9c0.6,0.2,1.2,0.4,1.8,0.6l1.8,0.6l3.6,1.2l14.4,4.8h-0.3l15.2-4.8l7.6-2.4
		c2.6-0.6,5.2-1.3,7.7-1.9c-2.5,1-5,1.9-7.4,2.9l-7.6,2.4l-15.2,4.8h-0.2l-0.2-0.1l-14.4-4.8l-3.6-1.2l-1.8-0.6
		c-0.6-0.2-1.2-0.4-1.8-0.6C156.9,194.9,154.5,194,152.2,193z"/>
</g>
<g>
	<g>
		<path class="st13" d="M174.6,138.4h-52V95.8h52V138.4z M125.6,135.4h46V98.8h-46C125.6,98.8,125.6,135.4,125.6,135.4z"/>
	</g>
	<g>
		<path class="st13" d="M239.4,138.4h-52V95.8h52V138.4z M190.3,135.4h46V98.8h-46V135.4z"/>
	</g>
	<rect x="173.4" y="105.3" class="st13" width="15.5" height="7.9"/>
</g>
<g>
	<path class="st11" d="M176.6,309h-8.1v-1.4c0-1.1,0.9-2,2-2h6.1V309z"/>
	<path class="st11" d="M182.9,309h8.1v-1.4c0-1.1-0.9-2-2-2h-6.1V309z"/>
</g>
<g>
	<polyline class="st11" points="186.6,231.4 186.6,305.5 182.9,305.5 182.9,231.4 	"/>
	<polyline class="st11" points="176.6,231.4 176.6,305.5 173,305.5 173,231.4 	"/>
</g>
<circle class="st17" cx="169.1" cy="66.5" r="1.2"/>
<circle class="st17" cx="190.3" cy="68.9" r="1.2"/>
<circle class="st17" cx="201.3" cy="75.7" r="1.2"/>
<circle class="st17" cx="178.1" cy="72.5" r="1.2"/>
<circle class="st17" cx="164.6" cy="75.1" r="1.2"/>
<radialGradient id="SVGID_12_" cx="180.9" cy="52.617" r="99.4475" gradientTransform="matrix(1 0 0 -1 0 362)" gradientUnits="userSpaceOnUse">
	<stop  offset="0" style="stop-color:#603813"/>
	<stop  offset="1" style="stop-color:#FFFFFF"/>
</radialGradient>
<ellipse class="st18" cx="180.9" cy="309.4" rx="93.3" ry="4.4"/>
<ellipse class="st10" cx="128.2" cy="235.2" rx="4" ry="3.8"/>
<g class="st19">
	<path class="st6" d="M104.6,35.8c0-1.5-0.1-4-0.2-7.4c-0.1-3.4-0.3-5.2-0.4-5.4c0-0.4,0.1-0.7,0.4-0.9c0.1-0.1,0.3-0.1,0.5-0.2
		c0.2,0,0.4-0.1,0.5-0.1c0.1,0,0.2,0,0.5,0c0.3,0,0.5,0,0.7,0.1c0.1,0.1,0.2,0.3,0.2,0.5c0,0.1-0.1,0.3-0.2,0.3
		c-0.1,0.1-0.2,0.1-0.4,0.1l-0.2,0h-0.3c-0.4,0-0.6,0.1-0.6,0.2c0,0.7,0,1.6,0.1,2.7c0.1,0.9,0.1,1.8,0.2,2.7c0.1,0,0.3-0.1,0.5-0.1
		c0.3-0.1,0.5-0.1,0.6-0.1c0.1,0,0.3,0.1,0.4,0.2c0.1,0.1,0.2,0.3,0.2,0.4c0,0.2-0.1,0.3-0.3,0.4c0,0-0.1,0-0.2,0.1
		s-0.2,0.1-0.4,0.1c-0.1,0-0.3,0-0.6,0.1h-0.2c0,0.8,0.1,1.9,0.2,3.3c0.1,1.4,0.2,2.5,0.2,3.3l0,0.1l0,0c0,0.1,0,0.1,0,0.3
		c0,0.2-0.1,0.3-0.2,0.4c-0.1,0.1-0.3,0.1-0.5,0.1C104.8,37.1,104.6,36.6,104.6,35.8z"/>
	<path class="st6" d="M110.7,37.1c-0.2,0.1-0.4,0.2-0.7,0.2c-0.2,0-0.3-0.1-0.4-0.2c-0.1-0.1-0.2-0.3-0.2-0.5c0-1.1,0-2.6,0.1-4.5
		c0.1-2,0.1-3.5,0.1-4.5v-0.1c-0.1-0.8-0.1-1.5-0.1-1.9c0-1.3,0.2-1.9,0.7-1.9c0.1,0,0.2,0,0.4,0.2c0.1,0.1,0.1,0.2,0.1,0.3
		c0,0.2,0,0.4-0.1,0.8c0,0.3-0.1,0.6-0.1,0.8c0,0.9,0,1.7,0,2.4c0,0.7,0,1.5,0,2.4c-0.1,0.2-0.1,0.5-0.1,0.8v0.2l0,1.6
		c0,0.5,0,1,0,1.6c0,0.9,0.2,1.4,0.7,1.4c0,0,0.1,0,0.1,0s0.1,0,0.2,0c0.1,0,0.3,0,0.5,0c0.7,0,1.1,0.2,1.1,0.6
		c0,0.1-0.1,0.2-0.2,0.3c-0.1,0.1-0.3,0.2-0.4,0.2C112,37.2,111.4,37.1,110.7,37.1z"/>
	<path class="st6" d="M118.1,37.1c-0.1-0.1-0.2-0.3-0.2-0.5c0-0.4-0.1-1.1-0.2-2l-0.1-0.4l-2-0.3c-0.1,0.3-0.2,0.9-0.3,1.9
		c-0.1,0.7-0.2,1.1-0.4,1.3c-0.1,0.1-0.2,0.2-0.4,0.2c-0.2,0-0.3,0-0.4-0.1c-0.1-0.1-0.2-0.2-0.2-0.4l0-0.1l0-0.1
		c0.9-3.4,1.5-6.8,2-10.1c0-0.1,0-0.1,0-0.3s0-0.3,0-0.5c0-0.5,0.1-0.9,0.1-1.2c0-0.3,0.1-0.5,0.2-0.7h0.7c0.2,0,0.3,0,0.5,0.1
		c0.1,0.1,0.2,0.2,0.2,0.4c0,1,0.1,2.5,0.4,4.5c0.3,2.1,0.4,3.5,0.4,4.3c0,0.1,0,0.3,0.1,0.6c0.1,0.3,0.1,0.5,0.1,0.6
		s0.1,0.5,0.2,1.2c0.1,0.6,0.2,1.1,0.2,1.2v0c0,0.3-0.1,0.5-0.3,0.6C118.4,37.2,118.2,37.2,118.1,37.1z M117.4,32.6
		c0-1.2-0.1-2.7-0.3-4.6l-0.2-2.1c-0.6,3.1-1,5.5-1.2,7.1c0.2,0.1,0.8,0.2,1.8,0.3C117.4,33.2,117.4,32.9,117.4,32.6z"/>
	<path class="st6" d="M120.5,37.1c-0.2-0.1-0.3-0.3-0.3-0.5l0.2-0.3c0.1,0,0.2,0,0.4,0.1c0.2,0,0.4,0.1,0.5,0.1
		c0.2,0,0.5-0.1,0.6-0.3c0.2-0.2,0.3-0.5,0.4-0.8c0.2-0.6,0.3-1.2,0.3-1.7c0-0.9-0.3-1.8-0.8-2.8l-0.2-0.4c-0.3-0.4-0.5-0.8-0.6-1.2
		s-0.3-0.7-0.4-1.1c-0.2-0.5-0.2-1-0.2-1.6c0-0.6,0.1-1.2,0.4-1.8c0.1-0.3,0.3-0.6,0.6-0.8c0.2-0.2,0.5-0.3,0.8-0.3
		c0.2,0,0.5,0.1,0.7,0.2c0.2,0.2,0.3,0.3,0.3,0.5c0,0.1,0,0.2-0.1,0.3s-0.2,0.1-0.3,0.1c-0.1,0-0.3,0-0.4-0.1
		c-0.3,0-0.5,0.3-0.7,0.8c-0.1,0.5-0.2,0.9-0.2,1.2c0,0.4,0.1,0.8,0.2,1.2c0.1,0.4,0.3,0.8,0.5,1.1l0.4,0.8l0.7,1.3
		c0.2,0.4,0.3,0.8,0.5,1.3c0.1,0.5,0.2,1,0.2,1.5c0,0.8-0.2,1.6-0.6,2.3c-0.2,0.4-0.5,0.7-0.8,0.9s-0.7,0.3-1.1,0.3v0.1
		C120.9,37.3,120.7,37.2,120.5,37.1z"/>
	<path class="st6" d="M128.6,33.7l0-1.1l0-0.9v-0.1v-0.2c0-0.1,0-0.2,0-0.4c0,0,0-0.1-0.1-0.1s-0.1-0.1-0.1-0.1v0
		c-0.1,0-0.2,0-0.4,0c-0.2,0-0.4,0-0.6-0.1c-0.1,0-0.3,0-0.6-0.1V33c0,0.3,0,0.9,0.1,1.6c0,0.7,0.1,1.3,0.1,1.6
		c0,0.2-0.1,0.4-0.2,0.5s-0.2,0.2-0.4,0.2c-0.3,0-0.4-0.2-0.5-0.7c-0.1-0.5-0.2-1.2-0.2-2l0-1.6c0-0.5,0-0.9,0-1.4v-0.3v-0.3
		c0-0.2,0-0.4,0-0.4v-0.1l0.1-1.2c0-0.5,0-1.3-0.1-2.3c0-1-0.1-1.8-0.1-2.3c0-0.2,0.1-0.3,0.2-0.4c0.1-0.1,0.2-0.2,0.4-0.2
		c0.4,0,0.6,0.4,0.6,1.2l0,2.5c0,0.7,0,1.6,0,2.5c0.2,0.1,0.6,0.1,1.1,0.1h0.7c0-0.1,0-0.2,0-0.2c0-0.6,0-1.6-0.1-2.8
		c-0.1-1.2-0.1-2.1-0.1-2.9c0-0.1,0.1-0.3,0.2-0.4c0.1-0.1,0.2-0.2,0.4-0.2c0.1,0,0.2,0,0.4,0.1l0.2,0.1c0,1.9,0.1,4.4,0.2,7.6
		l0.2,5.1c0,0.2-0.1,0.3-0.2,0.4c-0.1,0.1-0.3,0.2-0.5,0.2C128.8,37,128.6,35.9,128.6,33.7z"/>
	<path class="st6" d="M139.5,36.9c-0.1-0.1-0.1-0.2-0.1-0.4v-2.6c-0.2-0.1-0.5-0.2-1-0.3c-0.5-0.1-0.9-0.2-1.4-0.2
		c-0.1,0.3-0.3,0.6-0.3,1l-0.1,0.4c0,0.1-0.1,0.3-0.1,0.6c-0.1,0.3-0.1,0.6-0.2,0.8s-0.2,0.4-0.2,0.5c-0.5,0-0.8-0.1-0.9-0.4
		c0.1-0.2,0.3-0.8,0.5-1.9l0.7-3.7c0.3-1.7,0.6-3.2,0.8-4.4c0.2-1.2,0.5-2.3,0.8-3.1c0.3-0.9,0.6-1.4,0.9-1.4s0.5,0.1,0.6,0.2
		c0,0.5,0.1,1.8,0.4,3.9c0.3,2,0.4,3.4,0.4,4.1c0,0.7,0.1,1.7,0.2,3c0.1,1.3,0.2,2.4,0.2,3.2c0,0.5-0.2,0.7-0.7,0.7
		C139.7,37,139.6,37,139.5,36.9z M139.3,32.7c0-0.6-0.1-1.3-0.2-2.2c-0.3-3-0.5-4.9-0.5-5.5v-0.2c-0.1,0.1-0.3,0.7-0.5,1.8
		c-0.2,1.1-0.5,2.2-0.6,3.4c-0.2,1.2-0.3,2-0.3,2.4c0.6,0.2,1.2,0.2,1.8,0.2C139,32.7,139.1,32.7,139.3,32.7z"/>
	<path class="st6" d="M148.1,37c-0.1-0.1-0.1-0.2-0.2-0.4l-0.1-0.4v0V36c0-0.4-0.5-1.9-1.4-4.5c-0.9-2.6-1.6-4.5-2.1-5.7v10.1
		l0.1,0.1c0,0,0,0.1,0.1,0.1s0.1,0.1,0.1,0.2c0,0.2-0.1,0.3-0.2,0.4S144,37,143.9,37c-0.4,0-0.6-0.4-0.6-1.2l0-3.4c0-1,0-2.2,0-3.4
		c0-0.4,0-1,0.1-1.9c0-0.8,0.1-1.5,0.1-1.9c0-0.6,0.2-1.1,0.7-1.5v0.1c0.1,0,0.1,0,0.2,0c0.3,0,0.7,0.5,1.2,1.6
		c0.4,0.9,0.7,1.8,1,2.7c0.3,0.9,0.7,2.3,1.2,4l0.2,0.7c0.3,1.1,0.5,1.9,0.7,2.3c0.3-2.9,0.4-6.3,0.4-10.2v-0.3c0-0.1,0-0.2,0-0.3
		c0-0.4,0.2-0.6,0.5-0.6c0.2,0,0.3,0.1,0.4,0.2c0.1,0.1,0.1,0.3,0.1,0.6v1.5c0,2.1-0.1,4.3-0.2,6.7c-0.1,2.4-0.3,3.8-0.5,4.1
		c-0.4,0.1-0.6,0.2-0.7,0.2C148.3,37.1,148.2,37.1,148.1,37z"/>
	<path class="st6" d="M151.8,36.4c0-0.3,0.2-0.5,0.6-0.5h0.2l0.2,0c0.1,0,0.2,0,0.2-0.1c0-0.1,0.1-0.2,0.1-0.4c0-0.2,0-0.6,0-1.1
		c0-0.3-0.1-0.9-0.1-1.7c-0.1-2-0.2-3.6-0.2-4.6c0-0.4,0-0.7,0-1l0-1c0-0.4,0-0.8-0.1-1.1c-0.2,0.1-0.4,0.1-0.5,0.1
		c-0.3,0-0.5-0.2-0.5-0.5c0-0.2,0.1-0.3,0.3-0.4c0.2-0.1,0.5-0.2,0.8-0.3c0.5-0.1,1-0.2,1.4-0.2c0.2,0,0.3,0.1,0.4,0.2
		c0.1,0.1,0.2,0.2,0.2,0.4s0,0.3-0.1,0.4c-0.1,0.1-0.2,0.2-0.3,0.2c-0.1,0-0.1,0-0.2,0h-0.2c-0.1,0-0.2,0-0.3,0.1
		c-0.1,0.1-0.1,0.2-0.1,0.3c0,1.3,0.1,3.2,0.2,5.8c0,0.5,0.1,1.2,0.2,2.1c0.1,0.6,0.1,1.2,0.1,1.9v0.8c0.1,0,0.2,0,0.4,0
		c0.6,0,0.8,0.2,0.8,0.7v0.1l-0.5,0.3c0,0-0.1,0-0.1,0c-0.1,0-0.2,0-0.4,0c-0.4,0-0.7,0-0.8,0C152.4,37,151.8,36.8,151.8,36.4z"/>
	<path class="st6" d="M164.5,36.8v-1.3v-1.3c0-0.7,0-1.5-0.1-2.6c-0.1-1.2-0.2-2-0.2-2.5l0-1.2c0-0.4,0-0.8,0-1.2
		c-0.1,0.2-0.3,1.1-0.7,2.8c-0.4,1.6-0.8,3.1-1.2,4.5c-0.4,1.3-0.7,2-1,2c-0.3,0-0.5-0.1-0.6-0.2c-0.2-0.2-0.2-0.4-0.2-0.6
		c0-0.6-0.2-1.8-0.7-3.7c-0.5-1.9-0.9-3.5-1.3-4.7l-0.1,2.3c-0.1,1.9-0.2,3.5-0.2,4.8c0,1.2,0,2.1,0,2.5c0,0.1,0,0.2,0,0.3v0.3
		c0,0.2,0,0.4-0.1,0.5c-0.1,0.1-0.3,0.2-0.5,0.2c-0.1,0-0.3-0.1-0.4-0.2c-0.1-0.1-0.2-0.2-0.2-0.3c0-1.4,0.1-3.4,0.3-6.1
		s0.3-4.8,0.3-6.1c-0.1-0.1-0.1-0.2-0.1-0.4c0-0.2,0.1-0.3,0.2-0.4c0.2-0.1,0.3-0.1,0.5-0.1c0.2,0,0.5,0.6,1,1.9
		c0.5,1.3,0.9,2.7,1.4,4.3s0.8,2.7,0.9,3.4c0.1-0.4,0.2-0.7,0.3-1l0.1-0.5c0.4-1.9,0.9-3.6,1.3-5.1c0.3-0.9,0.5-1.6,0.7-2.2
		c0.2-0.6,0.5-0.8,0.7-0.8c0.2,0,0.4,0,0.5,0.2c0.2,0.1,0.2,0.2,0.2,0.4c0,1,0,2.4,0.1,4.3c0.1,1.8,0.1,3.2,0.1,4.2l0,1.1l0,1.1
		c0,0.2,0,0.4,0.1,0.7l0.1,0.7c0,0.1,0,0.2,0,0.3c0,0.1,0,0.1,0,0.1c0.1,0.2,0.1,0.3,0.1,0.4c0,0.2-0.1,0.4-0.2,0.6
		c-0.1,0.2-0.3,0.3-0.5,0.3C164.7,38.1,164.5,37.7,164.5,36.8z"/>
	<path class="st6" d="M171.6,37.1c-0.1-0.1-0.2-0.3-0.2-0.5c0-0.4-0.1-1.1-0.2-2l-0.1-0.4l-2-0.3c-0.1,0.3-0.2,0.9-0.3,1.9
		c-0.1,0.7-0.2,1.1-0.4,1.3c-0.1,0.1-0.2,0.2-0.4,0.2c-0.2,0-0.3,0-0.4-0.1c-0.1-0.1-0.2-0.2-0.2-0.4l0-0.1l0-0.1
		c0.9-3.4,1.5-6.8,2-10.1c0-0.1,0-0.1,0-0.3s0-0.3,0-0.5c0-0.5,0.1-0.9,0.1-1.2c0-0.3,0.1-0.5,0.2-0.7h0.7c0.2,0,0.3,0,0.5,0.1
		c0.1,0.1,0.2,0.2,0.2,0.4c0,1,0.1,2.5,0.4,4.5c0.3,2.1,0.4,3.5,0.4,4.3c0,0.1,0,0.3,0.1,0.6c0.1,0.3,0.1,0.5,0.1,0.6
		s0.1,0.5,0.2,1.2c0.1,0.6,0.2,1.1,0.2,1.2v0c0,0.3-0.1,0.5-0.3,0.6C171.9,37.2,171.7,37.2,171.6,37.1z M170.9,32.6
		c0-1.2-0.1-2.7-0.3-4.6l-0.2-2.1c-0.6,3.1-1,5.5-1.2,7.1c0.2,0.1,0.8,0.2,1.8,0.3C170.9,33.2,170.9,32.9,170.9,32.6z"/>
	<path class="st6" d="M175.4,36.7l0-0.8c0-0.2,0-0.5,0-0.8l0-0.7c0-0.1-0.1-1.6-0.3-4.4s-0.3-4.6-0.3-5.3c-0.8,0-1.3-0.1-1.5-0.2
		c-0.1-0.1-0.2-0.2-0.2-0.4c0-0.1,0.1-0.2,0.2-0.3c0.1-0.1,0.3-0.1,0.4-0.1c0.4,0,0.8,0,1.4,0.1c0.5,0.1,1,0.1,1.4,0.1h0.2h0.2
		c0.4,0,0.6,0.2,0.6,0.5c0,0.2-0.1,0.3-0.2,0.4c-0.1,0.1-0.3,0.2-0.5,0.2c-0.1,0-0.3,0-0.5-0.1l-0.4-0.1l0,0.1l0,0.1
		c0,1.2,0.1,3.1,0.3,5.7c0.2,2.4,0.3,4.3,0.3,5.7c0,0.2-0.1,0.3-0.2,0.4s-0.3,0.2-0.5,0.2L175.4,36.7z"/>
	<path class="st6" d="M178.7,36.4c0-0.3,0.2-0.5,0.6-0.5h0.2l0.2,0c0.1,0,0.2,0,0.2-0.1c0-0.1,0.1-0.2,0.1-0.4c0-0.2,0-0.6,0-1.1
		c0-0.3-0.1-0.9-0.1-1.7c-0.1-2-0.2-3.6-0.2-4.6c0-0.4,0-0.7,0-1l0-1c0-0.4,0-0.8-0.1-1.1c-0.2,0.1-0.4,0.1-0.5,0.1
		c-0.3,0-0.5-0.2-0.5-0.5c0-0.2,0.1-0.3,0.3-0.4c0.2-0.1,0.5-0.2,0.8-0.3c0.5-0.1,1-0.2,1.4-0.2c0.2,0,0.3,0.1,0.4,0.2
		c0.1,0.1,0.2,0.2,0.2,0.4s0,0.3-0.1,0.4s-0.2,0.2-0.3,0.2c-0.1,0-0.1,0-0.2,0h-0.2c-0.1,0-0.2,0-0.3,0.1c-0.1,0.1-0.1,0.2-0.1,0.3
		c0,1.3,0.1,3.2,0.2,5.8c0,0.5,0.1,1.2,0.2,2.1c0.1,0.6,0.1,1.2,0.1,1.9v0.8c0.1,0,0.2,0,0.4,0c0.6,0,0.8,0.2,0.8,0.7v0.1l-0.5,0.3
		c0,0-0.1,0-0.1,0c-0.1,0-0.2,0-0.4,0c-0.4,0-0.7,0-0.8,0C179.3,37,178.7,36.8,178.7,36.4z"/>
	<path class="st6" d="M185.3,37.1c-0.3-0.2-0.5-0.5-0.7-0.9c-0.4-0.8-0.6-1.7-0.7-2.7c-0.1-0.9-0.2-1.8-0.2-2.6c0-0.2,0-0.3,0-0.4
		v-0.4c0-0.1,0-0.1,0-0.1v-0.4l0-1.4c0-0.4,0.1-1.1,0.2-2c0.1-0.6,0.2-1.3,0.5-1.9c0.1-0.3,0.2-0.5,0.4-0.6c0.1-0.1,0.3-0.2,0.5-0.2
		c0.5,0,1,0.1,1.4,0.3s0.8,0.5,1.1,0.8c0.3,0.3,0.5,0.7,0.7,1.2c0.2,0.5,0.3,1,0.4,1.5c0.1,0.6,0.1,1.2,0.1,1.8v0.2
		c0,0.4,0,0.8,0,1.1l0,1.1c0,3.8-0.9,5.8-2.7,5.8C185.9,37.4,185.6,37.3,185.3,37.1z M186.9,36.3c0.2-0.2,0.4-0.5,0.5-0.8
		c0.3-0.7,0.4-1.4,0.5-2.2c0.1-0.7,0.1-1.3,0.1-1.8c0-0.6,0-1.4-0.1-2.4c-0.1-1-0.1-1.8-0.1-2.3v-0.4c0-0.5-0.2-0.9-0.5-1.3
		c-0.3-0.4-0.7-0.6-1.2-0.6s-0.8,0.3-0.9,0.8c-0.1,0.4-0.2,0.9-0.2,1.6c0,0.3,0,0.5,0,0.6v0.5l0,0.9c0,0.3,0,0.6,0,0.9
		c0,0.7,0,1.4,0.1,2.1c0.1,1,0.2,2,0.4,2.9c0.2,1,0.5,1.5,0.9,1.5C186.4,36.6,186.7,36.5,186.9,36.3z"/>
	<path class="st6" d="M196.2,37c-0.1-0.1-0.1-0.2-0.2-0.4l-0.1-0.4v0V36c0-0.4-0.5-1.9-1.4-4.5c-0.9-2.6-1.6-4.5-2.2-5.7v10.1
		l0.1,0.1c0,0,0,0.1,0.1,0.1s0.1,0.1,0.1,0.2c0,0.2-0.1,0.3-0.2,0.4S192.2,37,192,37c-0.4,0-0.6-0.4-0.6-1.2l0-3.4c0-1,0-2.2,0-3.4
		c0-0.4,0-1,0.1-1.9c0-0.8,0.1-1.5,0.1-1.9c0-0.6,0.2-1.1,0.7-1.5v0.1c0.1,0,0.1,0,0.2,0c0.3,0,0.7,0.5,1.2,1.6
		c0.4,0.9,0.7,1.8,1,2.7c0.3,0.9,0.7,2.3,1.2,4l0.2,0.7c0.3,1.1,0.5,1.9,0.7,2.3c0.3-2.9,0.4-6.3,0.4-10.2v-0.3c0-0.1,0-0.2,0-0.3
		c0-0.4,0.2-0.6,0.5-0.6c0.2,0,0.3,0.1,0.4,0.2c0.1,0.1,0.1,0.3,0.1,0.6v1.5c0,2.1-0.1,4.3-0.2,6.7c-0.1,2.4-0.3,3.8-0.5,4.1
		c-0.4,0.1-0.6,0.2-0.7,0.2C196.4,37.1,196.3,37.1,196.2,37z"/>
	<path class="st6" d="M200.5,37.1c-0.2-0.1-0.3-0.3-0.3-0.5l0.2-0.3c0.1,0,0.2,0,0.4,0.1c0.2,0,0.4,0.1,0.5,0.1
		c0.2,0,0.5-0.1,0.6-0.3c0.2-0.2,0.3-0.5,0.4-0.8c0.2-0.6,0.3-1.2,0.3-1.7c0-0.9-0.3-1.8-0.8-2.8l-0.2-0.4c-0.3-0.4-0.5-0.8-0.6-1.2
		c-0.2-0.3-0.3-0.7-0.4-1.1c-0.2-0.5-0.2-1-0.2-1.6c0-0.6,0.1-1.2,0.4-1.8c0.1-0.3,0.3-0.6,0.6-0.8c0.2-0.2,0.5-0.3,0.8-0.3
		c0.2,0,0.5,0.1,0.7,0.2c0.2,0.2,0.3,0.3,0.3,0.5c0,0.1,0,0.2-0.1,0.3c-0.1,0.1-0.2,0.1-0.3,0.1c-0.1,0-0.3,0-0.4-0.1
		c-0.3,0-0.5,0.3-0.7,0.8c-0.1,0.5-0.2,0.9-0.2,1.2c0,0.4,0.1,0.8,0.2,1.2c0.1,0.4,0.3,0.8,0.5,1.1l0.4,0.8l0.7,1.3
		c0.2,0.4,0.3,0.8,0.5,1.3s0.2,1,0.2,1.5c0,0.8-0.2,1.6-0.6,2.3c-0.2,0.4-0.5,0.7-0.8,0.9s-0.7,0.3-1.1,0.3v0.1
		C200.8,37.3,200.6,37.2,200.5,37.1z"/>
	<path class="st6" d="M212.6,37.1c-0.1-0.1-0.2-0.3-0.2-0.5c0-0.4-0.1-1.1-0.2-2l-0.1-0.4l-2-0.3c-0.1,0.3-0.2,0.9-0.3,1.9
		c-0.1,0.7-0.2,1.1-0.4,1.3c-0.1,0.1-0.2,0.2-0.4,0.2c-0.2,0-0.3,0-0.4-0.1c-0.1-0.1-0.2-0.2-0.2-0.4l0-0.1l0-0.1
		c0.9-3.4,1.5-6.8,2-10.1c0-0.1,0-0.1,0-0.3c0-0.1,0-0.3,0-0.5c0-0.5,0.1-0.9,0.1-1.2c0-0.3,0.1-0.5,0.2-0.7h0.7
		c0.2,0,0.3,0,0.5,0.1c0.1,0.1,0.2,0.2,0.2,0.4c0,1,0.1,2.5,0.4,4.5c0.3,2.1,0.4,3.5,0.4,4.3c0,0.1,0,0.3,0.1,0.6
		c0.1,0.3,0.1,0.5,0.1,0.6s0.1,0.5,0.2,1.2c0.1,0.6,0.2,1.1,0.2,1.2v0c0,0.3-0.1,0.5-0.3,0.6C212.9,37.2,212.7,37.2,212.6,37.1z
		 M211.9,32.6c0-1.2-0.1-2.7-0.3-4.6l-0.2-2.1c-0.6,3.1-1,5.5-1.2,7.1c0.2,0.1,0.8,0.2,1.8,0.3C211.9,33.2,211.9,32.9,211.9,32.6z"
		/>
	<path class="st6" d="M220.4,37c-0.1-0.1-0.1-0.2-0.2-0.4l-0.1-0.4v0V36c0-0.4-0.5-1.9-1.4-4.5c-0.9-2.6-1.6-4.5-2.2-5.7v10.1
		l0.1,0.1c0,0,0,0.1,0.1,0.1s0.1,0.1,0.1,0.2c0,0.2-0.1,0.3-0.2,0.4s-0.3,0.2-0.4,0.2c-0.4,0-0.6-0.4-0.6-1.2l0-3.4c0-1,0-2.2,0-3.4
		c0-0.4,0-1,0.1-1.9c0-0.8,0.1-1.5,0.1-1.9c0-0.6,0.2-1.1,0.7-1.5v0.1c0.1,0,0.1,0,0.2,0c0.3,0,0.7,0.5,1.2,1.6
		c0.4,0.9,0.7,1.8,1,2.7c0.3,0.9,0.7,2.3,1.2,4l0.2,0.7c0.3,1.1,0.5,1.9,0.7,2.3c0.3-2.9,0.4-6.3,0.4-10.2v-0.3c0-0.1,0-0.2,0-0.3
		c0-0.4,0.2-0.6,0.5-0.6c0.2,0,0.3,0.1,0.4,0.2c0.1,0.1,0.1,0.3,0.1,0.6v1.5c0,2.1-0.1,4.3-0.2,6.7c-0.1,2.4-0.3,3.8-0.5,4.1
		c-0.4,0.1-0.6,0.2-0.7,0.2C220.6,37.1,220.5,37.1,220.4,37z"/>
	<path class="st6" d="M225.9,36.9c0.1-0.3,0.2-1.4,0.2-3.4c0-0.5,0-1-0.1-1.5l-0.1-0.6c0-0.4-0.1-0.6-0.1-0.8V30
		c-0.1-0.3-0.4-1-0.7-1.9c-0.4-0.9-0.6-1.7-0.8-2.3c-0.3-0.7-0.4-1.2-0.4-1.4v-0.1l0.5-0.3c0.2,0,0.5,0.3,0.7,0.9
		c0.2,0.5,0.5,1.2,0.7,2.1c0.3,0.9,0.4,1.4,0.4,1.5c0.1-0.1,0.2-0.6,0.3-1.5c0.2-0.9,0.3-1.6,0.5-2.3c0.2-0.7,0.5-1,0.7-1
		c0.1,0,0.2,0,0.3,0.1s0.2,0.2,0.2,0.3c0,0.7-0.2,1.6-0.6,2.9c-0.4,1.3-0.6,2.3-0.6,2.9v6c0,0.9-0.2,1.3-0.7,1.3
		C226.3,37.3,226.1,37.2,225.9,36.9z"/>
	<path class="st6" d="M231.9,37.1c-0.3-0.2-0.5-0.5-0.7-0.9c-0.4-0.8-0.6-1.7-0.7-2.7c-0.1-0.9-0.2-1.8-0.2-2.6c0-0.2,0-0.3,0-0.4
		v-0.4c0-0.1,0-0.1,0-0.1v-0.4l0-1.4c0-0.4,0.1-1.1,0.2-2c0.1-0.6,0.2-1.3,0.5-1.9c0.1-0.3,0.2-0.5,0.4-0.6s0.3-0.2,0.5-0.2
		c0.5,0,1,0.1,1.4,0.3s0.8,0.5,1.1,0.8c0.3,0.3,0.5,0.7,0.7,1.2s0.3,1,0.4,1.5c0.1,0.6,0.1,1.2,0.1,1.8v0.2c0,0.4,0,0.8,0,1.1l0,1.1
		c0,3.8-0.9,5.8-2.7,5.8C232.5,37.4,232.2,37.3,231.9,37.1z M233.4,36.3c0.2-0.2,0.4-0.5,0.5-0.8c0.3-0.7,0.4-1.4,0.5-2.2
		c0.1-0.7,0.1-1.3,0.1-1.8c0-0.6,0-1.4-0.1-2.4c-0.1-1-0.1-1.8-0.1-2.3v-0.4c0-0.5-0.2-0.9-0.5-1.3s-0.7-0.6-1.1-0.6
		c-0.5,0-0.8,0.3-0.9,0.8c-0.1,0.4-0.2,0.9-0.2,1.6c0,0.3,0,0.5,0,0.6v0.5l0,0.9c0,0.3,0,0.6,0,0.9c0,0.7,0,1.4,0.1,2.1
		c0.1,1,0.2,2,0.4,2.9c0.2,1,0.5,1.5,0.9,1.5C233,36.6,233.2,36.5,233.4,36.3z"/>
	<path class="st6" d="M242.8,37c-0.1-0.1-0.1-0.2-0.2-0.4l-0.1-0.4v0V36c0-0.4-0.5-1.9-1.4-4.5c-0.9-2.6-1.6-4.5-2.2-5.7v10.1
		l0.1,0.1c0,0,0,0.1,0.1,0.1s0.1,0.1,0.1,0.2c0,0.2-0.1,0.3-0.2,0.4s-0.3,0.2-0.4,0.2c-0.4,0-0.6-0.4-0.6-1.2l0-3.4c0-1,0-2.2,0-3.4
		c0-0.4,0-1,0.1-1.9c0-0.8,0.1-1.5,0.1-1.9c0-0.6,0.2-1.1,0.7-1.5v0.1c0.1,0,0.1,0,0.2,0c0.3,0,0.7,0.5,1.2,1.6
		c0.4,0.9,0.7,1.8,1,2.7c0.3,0.9,0.7,2.3,1.2,4l0.2,0.7c0.3,1.1,0.5,1.9,0.7,2.3c0.3-2.9,0.4-6.3,0.4-10.2v-0.3c0-0.1,0-0.2,0-0.3
		c0-0.4,0.2-0.6,0.5-0.6c0.2,0,0.3,0.1,0.4,0.2c0.1,0.1,0.1,0.3,0.1,0.6v1.5c0,2.1-0.1,4.3-0.2,6.7c-0.1,2.4-0.3,3.8-0.5,4.1
		c-0.4,0.1-0.6,0.2-0.7,0.2C243,37.1,242.9,37.1,242.8,37z"/>
	<path class="st6" d="M247.8,37.1c-0.1-0.1-0.2-0.3-0.2-0.4v-0.5v-0.4c0-0.1,0-0.3,0-0.4c0-0.3,0-0.7-0.1-1.3l0-1.3
		c0-0.7,0-1.6,0.1-2.9c0.1-1.2,0.1-2.1,0.1-2.9c0-0.2,0-0.5-0.1-0.8c0-0.4-0.1-0.7-0.1-0.8c0-0.9,0.3-1.4,0.8-1.4
		c0.4,0,1,0.1,1.5,0.3c0.6,0.2,0.9,0.4,0.9,0.6c0,0.1-0.1,0.3-0.2,0.4c-0.1,0.1-0.2,0.2-0.4,0.3c-0.6-0.2-1.1-0.3-1.5-0.4
		c0,0.2,0,0.5,0,0.9c0,0.5,0,1,0,1.4c0,0.6-0.1,1.1-0.1,1.4l0.1,0.3l0.3,0c0.1,0,0.2,0,0.4,0c0.6,0,1,0.2,1,0.6
		c0,0.1-0.1,0.3-0.2,0.4c-0.1,0.1-0.3,0.1-0.5,0.1c-0.2,0-0.4,0-0.6,0h-0.5c0,0.3,0,0.9,0,1.5s0,1.3,0,1.8c0,0.8-0.1,1.4-0.1,1.8
		c0,0.7,0,1.1,0,1.1l0.7,0c0.2,0,0.5,0,0.8,0c0.5,0,0.8,0.2,0.8,0.5c0,0.2-0.1,0.3-0.2,0.4c-0.2,0.1-0.4,0.1-0.6,0.1h-1.7
		C248.1,37.3,247.9,37.2,247.8,37.1z"/>
	<path class="st6" d="M253.8,34.4c0-0.8,0.1-1.7,0.2-2.7s0.3-2.1,0.5-3.5l0.1-0.6c0.2-1.2,0.3-2.1,0.3-2.9c0-1.2-0.2-1.9-0.6-1.9
		c-0.3,0-0.4,0.3-0.4,0.9c0,0.1,0,0.5,0.1,1.1c0,0,0,0.1-0.1,0.1c-0.2,0.2-0.4,0.3-0.5,0.3c-0.4,0-0.6-0.4-0.6-1.3v-0.2
		c0-0.3,0-0.6,0.1-0.9s0.2-0.5,0.4-0.7c0.2-0.2,0.5-0.3,0.8-0.3c0.3,0,0.5,0.1,0.8,0.2c0.2,0.1,0.4,0.3,0.5,0.4
		c0.2,0.3,0.3,0.8,0.4,1.4c0,0.1,0,0.4,0,0.8c0,1.2-0.2,2.5-0.6,3.8c-0.2,0.6-0.3,1.3-0.4,2.2s-0.2,1.8-0.2,2.7c0,0.7,0,1.2,0,1.3
		c-0.2,0-0.4,0-0.4,0c0,0-0.1,0-0.1,0C254,34.9,253.9,34.7,253.8,34.4z M253.8,36.9c-0.1-0.1-0.2-0.3-0.2-0.5c0-0.2,0.1-0.4,0.2-0.5
		c0.2-0.2,0.3-0.2,0.5-0.2c0.2,0,0.3,0.1,0.5,0.3c0.2,0.2,0.2,0.3,0.2,0.5c0,0.5-0.3,0.8-0.8,0.8C254.1,37.1,253.9,37,253.8,36.9z"
		/>
</g>
<g id="Layer_6">
</g>
<g id="Layer_7">
	<text transform="matrix(1 0 0 1 100.034 21.5907)" class="st20 st21 st22">May I use Coral for my position?</text>
</g>
<g id="Layer_8">
</g>
<g id="Layer_11">
</g>
<g id="Layer_9">
</g>
</svg>
