<?xml version="1.0" encoding="utf-8"?>
<!-- Generator: Adobe Illustrator 23.0.1, SVG Export Plug-In . SVG Version: 6.00 Build 0)  -->
<svg version="1.1" id="Layer_1" xmlns="http://www.w3.org/2000/svg" xmlns:xlink="http://www.w3.org/1999/xlink" x="0px" y="0px"
	 viewBox="0 0 360 360" style="enable-background:new 0 0 360 360;" xml:space="preserve">
<style type="text/css">
	.st0{fill:#005CFF;}
	.st1{opacity:0.1;fill:url(#SVGID_1_);enable-background:new    ;}
	.st2{fill:#FFFEE6;}
	.st3{fill:#5E5E5E;}
	.st4{fill:#F9E531;}
	.st5{fill:#FFC2DE;}
	.st6{fill:#FF6300;}
	.st7{fill:none;stroke:#005CFF;stroke-width:2;stroke-linecap:round;stroke-miterlimit:10;}
	.st8{fill:none;stroke:#FF6300;stroke-width:3;stroke-linecap:round;stroke-miterlimit:10;}
	.st9{enable-background:new    ;}
</style>
<g id="bg">
	<rect class="st0" width="360" height="360"/>
	
		<radialGradient id="SVGID_1_" cx="180.9" cy="52.617" r="99.4475" gradientTransform="matrix(1 0 0 -1 0 362)" gradientUnits="userSpaceOnUse">
		<stop  offset="0" style="stop-color:#603813"/>
		<stop  offset="1" style="stop-color:#FFFFFF"/>
	</radialGradient>
	<ellipse class="st1" cx="180.9" cy="309.4" rx="93.3" ry="4.4"/>
</g>
<g id="Layer_3">
</g>
<g id="Layer_10">
</g>
<g id="Layer_4">
	<path class="st2" d="M147.6,109c-5.1,12.4-8.2,29.8-8.2,53.6c0,57.3,19,75.8,41.4,75.8s39.7-18.5,39.7-75.8
		c0-23.7-3.2-41.2-8.5-53.6C212,109,147.6,109,147.6,109z"/>
	<g>
		<ellipse class="st3" cx="175.8" cy="128.9" rx="2.5" ry="4"/>
		<ellipse class="st3" cx="184.2" cy="128.9" rx="2.5" ry="4"/>
	</g>
	<g>
		<rect x="182.6" y="235" class="st2" width="2.8" height="72.9"/>
		<rect x="174.9" y="235" class="st2" width="2.8" height="72.9"/>
	</g>
	<g>
		<rect x="213.4" y="213.2" class="st2" width="3.6" height="40.9"/>
		<ellipse class="st2" cx="215.2" cy="252.9" rx="4" ry="3.8"/>
	</g>
	<g>
		<rect x="142.6" y="213.1" class="st2" width="3.6" height="40.9"/>
		<ellipse class="st2" cx="144.4" cy="252.8" rx="4" ry="3.8"/>
	</g>
	<g>
		<path class="st4" d="M174.9,308.4h-6.1v-0.6c0-1.1,0.9-2,2-2h4.1V308.4z"/>
		<path class="st4" d="M185.4,308.4h6.1v-0.6c0-1.1-0.9-2-2-2h-4.1V308.4z"/>
		<rect x="174.9" y="305.5" class="st4" width="2.8" height="3.3"/>
		<rect x="182.6" y="305.5" class="st4" width="2.8" height="3.3"/>
	</g>
	<g>
		<rect x="182.6" y="279.1" class="st5" width="2.8" height="26.4"/>
		<rect x="174.9" y="279.1" class="st5" width="2.8" height="26.4"/>
	</g>
	<g>
		<path class="st3" d="M180.2,144.6c-14.2,0-25.8,11.5-25.8,25.8C168.7,170.4,180.2,158.8,180.2,144.6z"/>
		<path class="st3" d="M179.8,144.6c14.2,0,25.8,11.5,25.8,25.8C191.3,170.4,179.8,158.8,179.8,144.6z"/>
	</g>
	<rect x="152.8" y="220.1" class="st6" width="54.4" height="44.7"/>
	<path class="st4" d="M207.8,191.9h-19l-8.8,24.2l-8.8-24.2H152c-7.9,0-14.2,6.4-14.2,14.2v39h84.3v-38.9
		C222.1,198.3,215.7,191.9,207.8,191.9z"/>
	<polygon class="st5" points="150.2,212 150.2,204.1 165.8,212 	"/>
	<polygon class="st5" points="154.6,212.8 165,205.3 165,212.8 	"/>
	<rect x="149.4" y="210.8" class="st6" width="17.3" height="4"/>
	<polyline class="st7" points="180,264.7 180,256.7 175.6,254.1 	"/>
	<line class="st7" x1="184.4" y1="254.1" x2="180" y2="256.7"/>
	<path class="st6" d="M180,51.2L180,51.2c10,0,18.1,8.1,18.1,18.1V109H162V69.3C161.9,59.3,170,51.2,180,51.2z"/>
	<line class="st8" x1="139.4" y1="109" x2="220.6" y2="109"/>
</g>
<g class="st9">
	<path class="st2" d="M61,37.4c-0.1-0.1-0.1-0.3-0.1-0.6l0-3c0-0.3,0-0.7,0-1.3c0-1.2,0-2.6,0-4.2v-1c-0.1,0.6-0.3,1.5-0.6,2.7
		c-0.3,1.2-0.5,2.2-0.6,3v0.1l-0.1,0.4c0,0.3-0.1,0.6-0.2,0.9c-0.1,0.3-0.3,0.5-0.6,0.5c-0.5,0-0.7-0.6-0.7-1.9
		c0-0.7-0.1-1.4-0.2-2.2c-0.1-0.8-0.4-1.8-0.7-2.9l-0.6-2.2l0,2.4c0,0.7,0,2.1,0.1,4.1l0,1.4l0,2.7c0,0.3-0.1,0.5-0.3,0.8
		c-0.3,0-0.6-0.1-0.7-0.3c-0.1-0.2-0.2-0.5-0.2-0.9l0-1.6c0-0.7,0.1-1.3,0.1-1.6l0-3.9l0-3.9c0-0.6,0-1.4,0-2.6l0.5-0.3
		c0.1,0,0.2,0.1,0.3,0.2c0.1,0.1,0.2,0.4,0.4,0.7c0.3,0.8,0.8,2.5,1.3,5c0.1,0.3,0.1,0.6,0.2,0.9c0.2,0.8,0.3,1.4,0.3,1.8l0.3,1.5
		l0.1-0.7l0.4-1.6c0.2-1,0.4-1.8,0.5-2.5c0.1-0.7,0.3-1.5,0.4-2.3c0.1-1,0.2-1.8,0.3-2.5v-0.1c0-0.2,0.1-0.3,0.2-0.4
		c0.1-0.1,0.3-0.2,0.5-0.2c0.1,0,0.2,0.1,0.3,0.2c0.1,0.1,0.1,0.2,0.1,0.3c0,1.6,0.1,4,0.2,7.2c0.1,1.6,0.1,3.1,0.1,4.6
		c0,0.7,0,1.5,0,2.6c0,0.3-0.1,0.6-0.2,0.8s-0.3,0.4-0.5,0.4C61.2,37.6,61.1,37.5,61,37.4z"/>
	<path class="st2" d="M65.7,36.9c0.1-0.3,0.2-1.4,0.2-3.4c0-0.5,0-1-0.1-1.5l-0.1-0.6c0-0.4-0.1-0.6-0.1-0.8V30
		c-0.1-0.3-0.4-1-0.7-1.9c-0.4-0.9-0.6-1.7-0.8-2.3c-0.3-0.7-0.4-1.2-0.4-1.4v-0.1l0.5-0.3c0.2,0,0.5,0.3,0.7,0.9
		c0.2,0.5,0.5,1.2,0.7,2.1c0.3,0.9,0.4,1.4,0.4,1.5c0.1-0.1,0.2-0.6,0.3-1.5c0.2-0.9,0.3-1.6,0.5-2.3c0.2-0.7,0.5-1,0.7-1
		c0.1,0,0.2,0,0.3,0.1c0.1,0.1,0.2,0.2,0.2,0.3c0,0.7-0.2,1.6-0.6,2.9C67.2,28.4,67,29.4,67,30v6c0,0.9-0.2,1.3-0.7,1.3
		C66.1,37.3,65.9,37.2,65.7,36.9z"/>
	<path class="st2" d="M75.6,37c-0.3-0.1-0.6-0.3-0.8-0.5c-0.2-0.2-0.3-0.5-0.5-0.8c-0.1-0.4-0.3-0.7-0.3-1c-0.1-0.3-0.1-0.6-0.2-1.1
		c0-0.5-0.1-0.9-0.1-1.2v-1.2v-0.8c0-0.8,0-1.4,0-1.9c0-0.6,0.1-1.2,0.3-1.9c0.1-0.6,0.3-1.1,0.6-1.6c0.3-0.5,0.7-0.8,1.2-0.9
		c0.2-0.1,0.5-0.1,0.8-0.1c0.6,0,0.9,0.2,0.9,0.5c0,0.2-0.1,0.3-0.2,0.4s-0.3,0.2-0.4,0.2c-0.1,0-0.2,0-0.2,0c-0.1,0-0.1,0-0.2,0
		c-0.2,0-0.4,0.1-0.6,0.4c-0.2,0.2-0.3,0.6-0.4,1c-0.2,0.8-0.4,1.7-0.4,2.7c-0.1,0.9-0.1,1.6-0.1,2c0,0.5,0,1.1,0.1,1.9
		c0.1,0.7,0.2,1.4,0.3,1.9c0.1,0.3,0.2,0.6,0.3,0.8c0.1,0.2,0.3,0.4,0.5,0.5c0.2,0.1,0.5,0.2,0.7,0.2c0.6,0,1-1.1,1-3.2V32
		c-0.1,0-0.2-0.1-0.5-0.1h-0.2h-0.2c-0.5,0-0.7-0.2-0.7-0.5c0-0.2,0.1-0.3,0.2-0.4c0.1-0.1,0.3-0.1,0.5-0.1v0h0.3
		c1.2,0,1.8,0.2,1.8,0.6c0,0.1,0,0.4-0.1,0.7c-0.1,0.3-0.1,0.6-0.1,0.7c0,0.2,0,0.6,0.1,1.1l0,1.1c0,0.6-0.2,1.1-0.7,1.5
		c-0.4,0.4-1,0.5-1.6,0.5C76.2,37.2,75.9,37.1,75.6,37z"/>
	<path class="st2" d="M83.6,36.4c-0.3-0.7-0.5-1.4-0.6-2.1l-0.1-0.7c-0.4-1.9-0.6-3-0.7-3.3h-0.2c0,0.4,0,0.7,0,1.1v1.1
		c0,1.8,0.1,3.2,0.4,4.2L82,37.2h-0.6l-0.3-0.3l0-1.3c0-1.2-0.1-3-0.2-5.5c-0.1-2.6-0.2-4.4-0.2-5.5c0-0.6,0.2-1,0.7-1
		c0.7,0,1.3,0.2,1.8,0.6c0.5,0.4,0.7,0.9,0.7,1.6v1.4c0,0.2,0,0.4-0.1,0.7c-0.1,0.3-0.1,0.5-0.2,0.6l-0.4,0.7L83,29.9l0.1,0.5
		l0.3,1.4c0.2,1,0.4,1.9,0.5,2.5c0.2,0.6,0.4,1.2,0.6,1.7l0.1,0.2c0.1,0.3,0.2,0.5,0.2,0.6c0,0.1,0,0.2-0.1,0.4
		c-0.1,0.1-0.2,0.1-0.3,0.1C84.1,37.4,83.8,37.1,83.6,36.4z M82.7,28.2c0.2-0.7,0.3-1.3,0.3-1.8c0-0.4-0.1-0.8-0.2-1.2
		c-0.1-0.2-0.2-0.4-0.3-0.5c-0.2-0.1-0.3-0.2-0.6-0.2l0,0.1l0,0.2l0,2.4c0,0.7,0,1.4,0,2.3C82.2,29.2,82.5,28.8,82.7,28.2z"/>
	<path class="st2" d="M87.2,37.1C87.1,37,87,36.9,87,36.7v-0.5v-0.4c0-0.1,0-0.3,0-0.4c0-0.3,0-0.7-0.1-1.3l0-1.3
		c0-0.7,0-1.6,0.1-2.9c0.1-1.2,0.1-2.1,0.1-2.9c0-0.2,0-0.5-0.1-0.8c0-0.4-0.1-0.7-0.1-0.8c0-0.9,0.3-1.4,0.8-1.4
		c0.4,0,0.9,0.1,1.5,0.3c0.6,0.2,0.9,0.4,0.9,0.6c0,0.1-0.1,0.3-0.2,0.4c-0.1,0.1-0.2,0.2-0.4,0.3C89,25.2,88.5,25,88.1,25
		c0,0.2,0,0.5,0,0.9c0,0.5,0,1,0,1.4c0,0.6-0.1,1.1-0.1,1.4l0.1,0.3l0.3,0c0.1,0,0.2,0,0.4,0c0.6,0,1,0.2,1,0.6
		c0,0.1-0.1,0.3-0.2,0.4c-0.1,0.1-0.3,0.1-0.5,0.1c-0.2,0-0.4,0-0.6,0H88c0,0.3,0,0.9,0,1.5s0,1.3,0,1.8c0,0.8-0.1,1.4-0.1,1.8
		c0,0.7,0,1.1,0,1.1l0.7,0c0.2,0,0.5,0,0.8,0c0.5,0,0.8,0.2,0.8,0.5c0,0.2-0.1,0.3-0.2,0.4c-0.2,0.1-0.4,0.1-0.6,0.1h-1.7
		C87.5,37.3,87.4,37.2,87.2,37.1z"/>
	<path class="st2" d="M95.7,37.1c-0.1-0.1-0.2-0.3-0.2-0.5c0-0.4-0.1-1.1-0.2-2l-0.1-0.4l-2-0.3c-0.1,0.3-0.2,0.9-0.3,1.9
		c-0.1,0.7-0.2,1.1-0.4,1.3c-0.1,0.1-0.2,0.2-0.4,0.2c-0.2,0-0.3,0-0.4-0.1c-0.1-0.1-0.2-0.2-0.2-0.4l0-0.1l0-0.1
		c0.9-3.4,1.5-6.8,2-10.1c0-0.1,0-0.1,0-0.3s0-0.3,0-0.5c0-0.5,0.1-0.9,0.1-1.2c0-0.3,0.1-0.5,0.2-0.7h0.7c0.2,0,0.3,0,0.5,0.1
		c0.1,0.1,0.2,0.2,0.2,0.4c0,1,0.1,2.5,0.4,4.5c0.3,2.1,0.4,3.5,0.4,4.3c0,0.1,0,0.3,0.1,0.6c0.1,0.3,0.1,0.5,0.1,0.6
		s0.1,0.5,0.2,1.2c0.1,0.6,0.2,1.1,0.2,1.2v0c0,0.3-0.1,0.5-0.3,0.6C96.1,37.2,95.9,37.2,95.7,37.1z M95,32.6c0-1.2-0.1-2.7-0.3-4.6
		L94.5,26c-0.6,3.1-1,5.5-1.2,7.1c0.2,0.1,0.8,0.2,1.8,0.3C95.1,33.2,95,32.9,95,32.6z"/>
	<path class="st2" d="M99.6,36.7l0-0.8c0-0.2,0-0.5,0-0.8l0-0.7c0-0.1-0.1-1.6-0.3-4.4S99,25.6,99,24.8c-0.8,0-1.3-0.1-1.5-0.2
		c-0.1-0.1-0.2-0.2-0.2-0.4c0-0.1,0.1-0.2,0.2-0.3c0.1-0.1,0.3-0.1,0.4-0.1c0.4,0,0.8,0,1.4,0.1c0.5,0.1,1,0.1,1.4,0.1h0.2h0.2
		c0.4,0,0.6,0.2,0.6,0.5c0,0.2-0.1,0.3-0.2,0.4c-0.1,0.1-0.3,0.2-0.5,0.2c-0.1,0-0.3,0-0.5-0.1l-0.4-0.1l0,0.1l0,0.1
		c0,1.2,0.1,3.1,0.3,5.7c0.2,2.4,0.3,4.3,0.3,5.7c0,0.2-0.1,0.3-0.2,0.4s-0.3,0.2-0.5,0.2L99.6,36.7z"/>
	<path class="st2" d="M104,37.1c-0.1-0.1-0.2-0.3-0.2-0.4v-0.5v-0.4c0-0.1,0-0.3,0-0.4c0-0.3,0-0.7-0.1-1.3l0-1.3
		c0-0.7,0-1.6,0.1-2.9c0.1-1.2,0.1-2.1,0.1-2.9c0-0.2,0-0.5-0.1-0.8c0-0.4-0.1-0.7-0.1-0.8c0-0.9,0.3-1.4,0.8-1.4
		c0.4,0,0.9,0.1,1.5,0.3c0.6,0.2,0.9,0.4,0.9,0.6c0,0.1-0.1,0.3-0.2,0.4c-0.1,0.1-0.2,0.2-0.4,0.3c-0.6-0.2-1.1-0.3-1.5-0.4
		c0,0.2,0,0.5,0,0.9c0,0.5,0,1,0,1.4c0,0.6-0.1,1.1-0.1,1.4l0.1,0.3l0.3,0c0.1,0,0.2,0,0.4,0c0.6,0,1,0.2,1,0.6
		c0,0.1-0.1,0.3-0.2,0.4c-0.1,0.1-0.3,0.1-0.5,0.1c-0.2,0-0.4,0-0.6,0h-0.5c0,0.3,0,0.9,0,1.5s0,1.3,0,1.8c0,0.8-0.1,1.4-0.1,1.8
		c0,0.7,0,1.1,0,1.1l0.7,0c0.2,0,0.5,0,0.8,0c0.5,0,0.8,0.2,0.8,0.5c0,0.2-0.1,0.3-0.2,0.4c-0.2,0.1-0.4,0.1-0.6,0.1h-1.7
		C104.3,37.3,104.2,37.2,104,37.1z"/>
	<path class="st2" d="M109,37.1c-0.2-0.1-0.3-0.3-0.3-0.5l0.2-0.3c0.1,0,0.2,0,0.4,0.1c0.2,0,0.4,0.1,0.5,0.1c0.2,0,0.5-0.1,0.6-0.3
		c0.2-0.2,0.3-0.5,0.4-0.8c0.2-0.6,0.3-1.2,0.3-1.7c0-0.9-0.3-1.8-0.8-2.8l-0.2-0.4c-0.3-0.4-0.5-0.8-0.6-1.2s-0.3-0.7-0.4-1.1
		c-0.2-0.5-0.2-1-0.2-1.6c0-0.6,0.1-1.2,0.4-1.8c0.1-0.3,0.3-0.6,0.6-0.8c0.2-0.2,0.5-0.3,0.8-0.3c0.2,0,0.5,0.1,0.7,0.2
		c0.2,0.2,0.3,0.3,0.3,0.5c0,0.1,0,0.2-0.1,0.3s-0.2,0.1-0.3,0.1c-0.1,0-0.3,0-0.4-0.1c-0.3,0-0.5,0.3-0.7,0.8
		c-0.1,0.5-0.2,0.9-0.2,1.2c0,0.4,0.1,0.8,0.2,1.2c0.1,0.4,0.3,0.8,0.5,1.1l0.4,0.8l0.7,1.3c0.2,0.4,0.3,0.8,0.5,1.3
		c0.1,0.5,0.2,1,0.2,1.5c0,0.8-0.2,1.6-0.6,2.3c-0.2,0.4-0.5,0.7-0.8,0.9s-0.7,0.3-1.1,0.3v0.1C109.4,37.3,109.2,37.2,109,37.1z"/>
	<path class="st2" d="M115.3,36.7l0-0.8c0-0.2,0-0.5,0-0.8l0-0.7c0-0.1-0.1-1.6-0.3-4.4s-0.3-4.6-0.3-5.3c-0.8,0-1.3-0.1-1.5-0.2
		c-0.1-0.1-0.2-0.2-0.2-0.4c0-0.1,0.1-0.2,0.2-0.3c0.1-0.1,0.3-0.1,0.4-0.1c0.4,0,0.8,0,1.4,0.1c0.5,0.1,1,0.1,1.4,0.1h0.2h0.2
		c0.4,0,0.6,0.2,0.6,0.5c0,0.2-0.1,0.3-0.2,0.4c-0.1,0.1-0.3,0.2-0.5,0.2c-0.1,0-0.3,0-0.5-0.1l-0.4-0.1l0,0.1l0,0.1
		c0,1.2,0.1,3.1,0.3,5.7c0.2,2.4,0.3,4.3,0.3,5.7c0,0.2-0.1,0.3-0.2,0.4s-0.3,0.2-0.5,0.2L115.3,36.7z"/>
	<path class="st2" d="M123.7,36.3c-0.2-0.7-0.3-1.6-0.4-2.6s-0.2-2.4-0.3-4c-0.1-1-0.2-2.2-0.3-3.3c-0.1-1-0.2-1.6-0.3-1.9
		c0.1-0.2,0.3-0.4,0.6-0.4c0.4,0,0.6,0.4,0.6,1.3c0,1,0.1,2.6,0.4,4.6c0.3,2,0.4,3.4,0.5,4.3l0.1-0.7c0.1-0.9,0.2-1.7,0.4-2.5
		s0.2-1.7,0.2-2.6c0.1-1,0.1-2,0.1-3l0.5-0.2c0.2,0,0.3,0,0.4,0.1c0.1,0.1,0.2,0.2,0.2,0.4v0.2c0.2,0.7,0.4,1.6,0.5,2.5
		s0.3,1.9,0.4,3.1c0.1,0.9,0.2,1.8,0.3,2.6c0.3-1.8,0.4-4,0.4-6.6c0-0.4,0.1-0.9,0.2-1.5c0.1-0.6,0.1-1.1,0.1-1.5
		c0-0.1-0.1-0.2-0.1-0.3c0-0.3,0.2-0.5,0.6-0.5c0.2,0,0.3,0,0.4,0.1s0.1,0.2,0.1,0.3v0.3c0,0.2,0,0.4-0.1,0.5V25
		c-0.2,0.5-0.3,1.1-0.3,1.8v1.5c0,0.8-0.1,2.1-0.3,3.8c-0.2,1.6-0.3,2.8-0.3,3.6V36c0,0.3,0,0.6-0.1,0.8c-0.1,0.3-0.3,0.4-0.6,0.4
		c-0.2,0-0.4-0.1-0.5-0.2c-0.1-0.1-0.2-0.3-0.2-0.5c0-1.1-0.1-2.5-0.3-4.2c-0.1-0.8-0.2-1.6-0.4-2.3l-0.3-2.1
		c-0.1,0.4-0.1,0.8-0.1,1.1c0,0.7-0.1,1.7-0.2,3c-0.1,1.2-0.3,2.4-0.5,3.6c-0.3,1.3-0.5,1.9-0.9,1.9
		C124.2,37.5,123.9,37.1,123.7,36.3z"/>
	<path class="st2" d="M132,37.1c-0.1-0.1-0.2-0.3-0.2-0.4v-0.5v-0.4c0-0.1,0-0.3,0-0.4c0-0.3,0-0.7-0.1-1.3l0-1.3
		c0-0.7,0-1.6,0.1-2.9c0.1-1.2,0.1-2.1,0.1-2.9c0-0.2,0-0.5-0.1-0.8c0-0.4-0.1-0.7-0.1-0.8c0-0.9,0.3-1.4,0.8-1.4
		c0.4,0,0.9,0.1,1.5,0.3c0.6,0.2,0.9,0.4,0.9,0.6c0,0.1-0.1,0.3-0.2,0.4c-0.1,0.1-0.2,0.2-0.4,0.3c-0.6-0.2-1.1-0.3-1.5-0.4
		c0,0.2,0,0.5,0,0.9c0,0.5,0,1,0,1.4c0,0.6-0.1,1.1-0.1,1.4l0.1,0.3l0.3,0c0.1,0,0.2,0,0.4,0c0.6,0,1,0.2,1,0.6
		c0,0.1-0.1,0.3-0.2,0.4c-0.1,0.1-0.3,0.1-0.5,0.1c-0.2,0-0.4,0-0.6,0h-0.5c0,0.3,0,0.9,0,1.5s0,1.3,0,1.8c0,0.8-0.1,1.4-0.1,1.8
		c0,0.7,0,1.1,0,1.1l0.7,0c0.2,0,0.5,0,0.8,0c0.5,0,0.8,0.2,0.8,0.5c0,0.2-0.1,0.3-0.2,0.4c-0.2,0.1-0.4,0.1-0.6,0.1h-1.7
		C132.3,37.3,132.1,37.2,132,37.1z"/>
	<path class="st2" d="M140.5,37.1c-0.1-0.1-0.2-0.3-0.2-0.5c0-0.4-0.1-1.1-0.2-2l-0.1-0.4l-2-0.3c-0.1,0.3-0.2,0.9-0.3,1.9
		c-0.1,0.7-0.2,1.1-0.4,1.3c-0.1,0.1-0.2,0.2-0.4,0.2c-0.2,0-0.3,0-0.4-0.1c-0.1-0.1-0.2-0.2-0.2-0.4l0-0.1l0-0.1
		c0.9-3.4,1.5-6.8,2-10.1c0-0.1,0-0.1,0-0.3s0-0.3,0-0.5c0-0.5,0.1-0.9,0.1-1.2c0-0.3,0.1-0.5,0.2-0.7h0.7c0.2,0,0.3,0,0.5,0.1
		c0.1,0.1,0.2,0.2,0.2,0.4c0,1,0.1,2.5,0.4,4.5c0.3,2.1,0.4,3.5,0.4,4.3c0,0.1,0,0.3,0.1,0.6c0.1,0.3,0.1,0.5,0.1,0.6
		s0.1,0.5,0.2,1.2c0.1,0.6,0.2,1.1,0.2,1.2v0c0,0.3-0.1,0.5-0.3,0.6C140.9,37.2,140.6,37.2,140.5,37.1z M139.8,32.6
		c0-1.2-0.1-2.7-0.3-4.6l-0.2-2.1c-0.6,3.1-1,5.5-1.2,7.1c0.2,0.1,0.8,0.2,1.8,0.3C139.8,33.2,139.8,32.9,139.8,32.6z"/>
	<path class="st2" d="M147,36.4c-0.5-1-1-2.6-1.5-4.9c-0.1-0.6-0.3-1.2-0.4-1.7c-0.5,1-0.7,2.1-0.7,3.5v3.7c0,0.3-0.1,0.5-0.4,0.5
		c-0.2,0-0.4-0.1-0.5-0.2c-0.1-0.1-0.2-0.3-0.2-0.5v-6.1c0-0.6,0.1-1.7,0.2-3.2c0.1-1.4,0.2-2.5,0.2-3.2c0.1-0.3,0.3-0.4,0.6-0.4
		c0.2,0,0.3,0.1,0.4,0.2c0.1,0.1,0.2,0.3,0.2,0.4v0.1c-0.2,0.3-0.3,1.5-0.3,3.6v0.7l0.7-1.5c0.5-0.9,0.9-1.8,1.3-2.4
		c0.4-0.7,0.6-1,0.8-1c0.2,0,0.4,0,0.6,0.1c0.2,0.1,0.2,0.2,0.2,0.4l-0.5,0.8c-1,1.6-1.6,2.5-1.7,2.8c0,0.2,0,0.4,0,0.6l0,0.6
		c0,0.6,0.2,1.6,0.7,3.2c0.5,1.6,0.8,2.6,1.1,3.1l0.3,0.4c0.3,0.3,0.4,0.7,0.4,0.9c0,0.1-0.1,0.3-0.2,0.4c-0.1,0.1-0.2,0.1-0.4,0.1
		C147.6,37.4,147.3,37,147,36.4z"/>
	<path class="st2" d="M155.3,37c-0.1-0.1-0.1-0.2-0.2-0.4l-0.1-0.4v0V36c0-0.4-0.5-1.9-1.4-4.5c-0.9-2.6-1.6-4.5-2.1-5.7v10.1
		l0.1,0.1c0,0,0,0.1,0.1,0.1s0.1,0.1,0.1,0.2c0,0.2-0.1,0.3-0.2,0.4s-0.3,0.2-0.4,0.2c-0.4,0-0.6-0.4-0.6-1.2l0-3.4c0-1,0-2.2,0-3.4
		c0-0.4,0-1,0.1-1.9c0-0.8,0.1-1.5,0.1-1.9c0-0.6,0.2-1.1,0.7-1.5v0.1c0.1,0,0.1,0,0.2,0c0.3,0,0.7,0.5,1.2,1.6
		c0.4,0.9,0.7,1.8,1,2.7c0.3,0.9,0.7,2.3,1.2,4l0.2,0.7c0.3,1.1,0.5,1.9,0.7,2.3c0.3-2.9,0.4-6.3,0.4-10.2v-0.3c0-0.1,0-0.2,0-0.3
		c0-0.4,0.2-0.6,0.5-0.6c0.2,0,0.3,0.1,0.4,0.2c0.1,0.1,0.1,0.3,0.1,0.6v1.5c0,2.1-0.1,4.3-0.2,6.7c-0.1,2.4-0.3,3.8-0.5,4.1
		c-0.4,0.1-0.6,0.2-0.7,0.2C155.5,37.1,155.4,37.1,155.3,37z"/>
	<path class="st2" d="M160.2,37.1c-0.1-0.1-0.2-0.3-0.2-0.4v-0.5v-0.4c0-0.1,0-0.3,0-0.4c0-0.3,0-0.7-0.1-1.3l0-1.3
		c0-0.7,0-1.6,0.1-2.9c0.1-1.2,0.1-2.1,0.1-2.9c0-0.2,0-0.5-0.1-0.8c0-0.4-0.1-0.7-0.1-0.8c0-0.9,0.3-1.4,0.8-1.4
		c0.4,0,0.9,0.1,1.5,0.3c0.6,0.2,0.9,0.4,0.9,0.6c0,0.1-0.1,0.3-0.2,0.4c-0.1,0.1-0.2,0.2-0.4,0.3c-0.6-0.2-1.1-0.3-1.5-0.4
		c0,0.2,0,0.5,0,0.9c0,0.5,0,1,0,1.4c0,0.6-0.1,1.1-0.1,1.4l0.1,0.3l0.3,0c0.1,0,0.2,0,0.4,0c0.6,0,1,0.2,1,0.6
		c0,0.1-0.1,0.3-0.2,0.4c-0.1,0.1-0.3,0.1-0.5,0.1c-0.2,0-0.4,0-0.6,0H161c0,0.3,0,0.9,0,1.5s0,1.3,0,1.8c0,0.8-0.1,1.4-0.1,1.8
		c0,0.7,0,1.1,0,1.1l0.7,0c0.2,0,0.5,0,0.8,0c0.5,0,0.8,0.2,0.8,0.5c0,0.2-0.1,0.3-0.2,0.4c-0.2,0.1-0.4,0.1-0.6,0.1h-1.7
		C160.5,37.3,160.4,37.2,160.2,37.1z"/>
	<path class="st2" d="M165.2,37.1c-0.2-0.1-0.3-0.3-0.3-0.5l0.2-0.3c0.1,0,0.2,0,0.4,0.1c0.2,0,0.4,0.1,0.5,0.1
		c0.2,0,0.5-0.1,0.6-0.3c0.2-0.2,0.3-0.5,0.4-0.8c0.2-0.6,0.3-1.2,0.3-1.7c0-0.9-0.3-1.8-0.8-2.8l-0.2-0.4c-0.3-0.4-0.5-0.8-0.6-1.2
		s-0.3-0.7-0.4-1.1c-0.2-0.5-0.2-1-0.2-1.6c0-0.6,0.1-1.2,0.4-1.8c0.1-0.3,0.3-0.6,0.6-0.8c0.2-0.2,0.5-0.3,0.8-0.3
		c0.2,0,0.5,0.1,0.7,0.2c0.2,0.2,0.3,0.3,0.3,0.5c0,0.1,0,0.2-0.1,0.3s-0.2,0.1-0.3,0.1c-0.1,0-0.3,0-0.4-0.1
		c-0.3,0-0.5,0.3-0.7,0.8c-0.1,0.5-0.2,0.9-0.2,1.2c0,0.4,0.1,0.8,0.2,1.2c0.1,0.4,0.3,0.8,0.5,1.1l0.4,0.8l0.7,1.3
		c0.2,0.4,0.3,0.8,0.5,1.3c0.1,0.5,0.2,1,0.2,1.5c0,0.8-0.2,1.6-0.6,2.3c-0.2,0.4-0.5,0.7-0.8,0.9s-0.7,0.3-1.1,0.3v0.1
		C165.6,37.3,165.4,37.2,165.2,37.1z"/>
	<path class="st2" d="M170.2,37.1c-0.2-0.1-0.3-0.3-0.3-0.5l0.2-0.3c0.1,0,0.2,0,0.4,0.1c0.2,0,0.4,0.1,0.5,0.1
		c0.2,0,0.5-0.1,0.6-0.3c0.2-0.2,0.3-0.5,0.4-0.8c0.2-0.6,0.3-1.2,0.3-1.7c0-0.9-0.3-1.8-0.8-2.8l-0.2-0.4c-0.3-0.4-0.5-0.8-0.6-1.2
		s-0.3-0.7-0.4-1.1c-0.2-0.5-0.2-1-0.2-1.6c0-0.6,0.1-1.2,0.4-1.8c0.1-0.3,0.3-0.6,0.6-0.8c0.2-0.2,0.5-0.3,0.8-0.3
		c0.2,0,0.5,0.1,0.7,0.2c0.2,0.2,0.3,0.3,0.3,0.5c0,0.1,0,0.2-0.1,0.3s-0.2,0.1-0.3,0.1c-0.1,0-0.3,0-0.4-0.1
		c-0.3,0-0.5,0.3-0.7,0.8c-0.1,0.5-0.2,0.9-0.2,1.2c0,0.4,0.1,0.8,0.2,1.2c0.1,0.4,0.3,0.8,0.5,1.1l0.4,0.8l0.7,1.3
		c0.2,0.4,0.3,0.8,0.5,1.3c0.1,0.5,0.2,1,0.2,1.5c0,0.8-0.2,1.6-0.6,2.3c-0.2,0.4-0.5,0.7-0.8,0.9s-0.7,0.3-1.1,0.3v0.1
		C170.5,37.3,170.3,37.2,170.2,37.1z"/>
	<path class="st2" d="M178.3,36.4c0-0.3,0.2-0.5,0.6-0.5h0.2l0.2,0c0.1,0,0.2,0,0.2-0.1c0-0.1,0.1-0.2,0.1-0.4c0-0.2,0-0.6,0-1.1
		c0-0.3-0.1-0.9-0.1-1.7c-0.1-2-0.2-3.6-0.2-4.6c0-0.4,0-0.7,0-1l0-1c0-0.4,0-0.8-0.1-1.1c-0.2,0.1-0.4,0.1-0.5,0.1
		c-0.3,0-0.5-0.2-0.5-0.5c0-0.2,0.1-0.3,0.3-0.4c0.2-0.1,0.5-0.2,0.8-0.3c0.5-0.1,1-0.2,1.4-0.2c0.2,0,0.3,0.1,0.4,0.2
		c0.1,0.1,0.2,0.2,0.2,0.4s0,0.3-0.1,0.4s-0.2,0.2-0.3,0.2c-0.1,0-0.1,0-0.2,0h-0.2c-0.1,0-0.2,0-0.3,0.1c-0.1,0.1-0.1,0.2-0.1,0.3
		c0,1.3,0.1,3.2,0.2,5.8c0,0.5,0.1,1.2,0.2,2.1c0.1,0.6,0.1,1.2,0.1,1.9v0.8c0.1,0,0.2,0,0.4,0c0.6,0,0.8,0.2,0.8,0.7v0.1l-0.5,0.3
		c0,0-0.1,0-0.1,0c-0.1,0-0.2,0-0.4,0c-0.4,0-0.7,0-0.8,0C178.9,37,178.3,36.8,178.3,36.4z"/>
	<path class="st2" d="M183.3,37.1c-0.2-0.1-0.3-0.3-0.3-0.5l0.2-0.3c0.1,0,0.2,0,0.4,0.1c0.2,0,0.4,0.1,0.5,0.1
		c0.2,0,0.5-0.1,0.6-0.3c0.2-0.2,0.3-0.5,0.4-0.8c0.2-0.6,0.3-1.2,0.3-1.7c0-0.9-0.3-1.8-0.8-2.8l-0.2-0.4c-0.3-0.4-0.5-0.8-0.6-1.2
		c-0.2-0.3-0.3-0.7-0.4-1.1c-0.2-0.5-0.2-1-0.2-1.6c0-0.6,0.1-1.2,0.4-1.8c0.1-0.3,0.3-0.6,0.6-0.8c0.2-0.2,0.5-0.3,0.8-0.3
		c0.2,0,0.5,0.1,0.7,0.2c0.2,0.2,0.3,0.3,0.3,0.5c0,0.1,0,0.2-0.1,0.3c-0.1,0.1-0.2,0.1-0.3,0.1c-0.1,0-0.3,0-0.4-0.1
		c-0.3,0-0.5,0.3-0.7,0.8c-0.1,0.5-0.2,0.9-0.2,1.2c0,0.4,0.1,0.8,0.2,1.2c0.1,0.4,0.3,0.8,0.5,1.1l0.4,0.8l0.7,1.3
		c0.2,0.4,0.3,0.8,0.5,1.3s0.2,1,0.2,1.5c0,0.8-0.2,1.6-0.6,2.3c-0.2,0.4-0.5,0.7-0.8,0.9s-0.7,0.3-1.1,0.3v0.1
		C183.7,37.3,183.4,37.2,183.3,37.1z"/>
	<path class="st2" d="M193.2,36.7l0-0.8c0-0.2,0-0.5,0-0.8l0-0.7c0-0.1-0.1-1.6-0.3-4.4s-0.3-4.6-0.3-5.3c-0.8,0-1.3-0.1-1.5-0.2
		c-0.1-0.1-0.2-0.2-0.2-0.4c0-0.1,0.1-0.2,0.2-0.3c0.1-0.1,0.3-0.1,0.4-0.1c0.4,0,0.8,0,1.4,0.1c0.5,0.1,1,0.1,1.4,0.1h0.2h0.2
		c0.4,0,0.6,0.2,0.6,0.5c0,0.2-0.1,0.3-0.2,0.4c-0.1,0.1-0.3,0.2-0.5,0.2c-0.1,0-0.3,0-0.5-0.1l-0.4-0.1l0,0.1l0,0.1
		c0,1.2,0.1,3.1,0.3,5.7c0.2,2.4,0.3,4.3,0.3,5.7c0,0.2-0.1,0.3-0.2,0.4c-0.1,0.1-0.3,0.2-0.5,0.2L193.2,36.7z"/>
	<path class="st2" d="M200.1,33.7l0-1.1l0-0.9v-0.1v-0.2c0-0.1,0-0.2,0-0.4c0,0,0-0.1-0.1-0.1s-0.1-0.1-0.1-0.1v0
		c-0.1,0-0.2,0-0.4,0s-0.4,0-0.6-0.1c-0.1,0-0.3,0-0.6-0.1V33c0,0.3,0,0.9,0.1,1.6c0,0.7,0.1,1.3,0.1,1.6c0,0.2-0.1,0.4-0.2,0.5
		c-0.1,0.1-0.2,0.2-0.4,0.2c-0.3,0-0.4-0.2-0.5-0.7c-0.1-0.5-0.2-1.2-0.2-2l0-1.6c0-0.5,0-0.9,0-1.4v-0.3v-0.3c0-0.2,0-0.4,0-0.4
		v-0.1l0.1-1.2c0-0.5,0-1.3-0.1-2.3c0-1-0.1-1.8-0.1-2.3c0-0.2,0.1-0.3,0.2-0.4c0.1-0.1,0.2-0.2,0.4-0.2c0.4,0,0.6,0.4,0.6,1.2
		l0,2.5c0,0.7,0,1.6,0,2.5c0.2,0.1,0.6,0.1,1.1,0.1h0.7c0-0.1,0-0.2,0-0.2c0-0.6,0-1.6-0.1-2.8c-0.1-1.2-0.1-2.1-0.1-2.9
		c0-0.1,0.1-0.3,0.2-0.4c0.1-0.1,0.2-0.2,0.4-0.2c0.1,0,0.2,0,0.4,0.1l0.2,0.1c0,1.9,0.1,4.4,0.2,7.6l0.2,5.1c0,0.2-0.1,0.3-0.2,0.4
		c-0.1,0.1-0.3,0.2-0.5,0.2C200.3,37,200.1,35.9,200.1,33.7z"/>
	<path class="st2" d="M207.1,37.1c-0.1-0.1-0.2-0.3-0.2-0.5c0-0.4-0.1-1.1-0.2-2l-0.1-0.4l-2-0.3c-0.1,0.3-0.2,0.9-0.3,1.9
		c-0.1,0.7-0.2,1.1-0.4,1.3c-0.1,0.1-0.2,0.2-0.4,0.2c-0.2,0-0.3,0-0.4-0.1c-0.1-0.1-0.2-0.2-0.2-0.4l0-0.1l0-0.1
		c0.9-3.4,1.5-6.8,2-10.1c0-0.1,0-0.1,0-0.3c0-0.1,0-0.3,0-0.5c0-0.5,0.1-0.9,0.1-1.2c0-0.3,0.1-0.5,0.2-0.7h0.7
		c0.2,0,0.3,0,0.5,0.1c0.1,0.1,0.2,0.2,0.2,0.4c0,1,0.1,2.5,0.4,4.5c0.3,2.1,0.4,3.5,0.4,4.3c0,0.1,0,0.3,0.1,0.6
		c0.1,0.3,0.1,0.5,0.1,0.6s0.1,0.5,0.2,1.2c0.1,0.6,0.2,1.1,0.2,1.2v0c0,0.3-0.1,0.5-0.3,0.6C207.5,37.2,207.3,37.2,207.1,37.1z
		 M206.4,32.6c0-1.2-0.1-2.7-0.3-4.6l-0.2-2.1c-0.6,3.1-1,5.5-1.2,7.1c0.2,0.1,0.8,0.2,1.8,0.3C206.5,33.2,206.4,32.9,206.4,32.6z"
		/>
	<path class="st2" d="M211,36.7l0-0.8c0-0.2,0-0.5,0-0.8l0-0.7c0-0.1-0.1-1.6-0.3-4.4s-0.3-4.6-0.3-5.3c-0.8,0-1.3-0.1-1.5-0.2
		c-0.1-0.1-0.2-0.2-0.2-0.4c0-0.1,0.1-0.2,0.2-0.3c0.1-0.1,0.3-0.1,0.4-0.1c0.4,0,0.8,0,1.4,0.1c0.5,0.1,1,0.1,1.4,0.1h0.2h0.2
		c0.4,0,0.6,0.2,0.6,0.5c0,0.2-0.1,0.3-0.2,0.4c-0.1,0.1-0.3,0.2-0.5,0.2c-0.1,0-0.3,0-0.5-0.1l-0.4-0.1l0,0.1l0,0.1
		c0,1.2,0.1,3.1,0.3,5.7c0.2,2.4,0.3,4.3,0.3,5.7c0,0.2-0.1,0.3-0.2,0.4c-0.1,0.1-0.3,0.2-0.5,0.2L211,36.7z"/>
	<path class="st2" d="M218.2,36.4c0-0.3,0.2-0.5,0.6-0.5h0.2c0.1,0,0.1,0,0.2,0c0.1,0,0.2,0,0.2-0.1c0-0.1,0.1-0.2,0.1-0.4
		c0-1.1-0.1-2.7-0.2-4.6c-0.1-2-0.2-3.6-0.2-4.6c0-0.4,0-0.7,0-1l0-1c0-0.4,0-0.8-0.1-1.1c-0.1,0.1-0.3,0.1-0.5,0.1
		c-0.3,0-0.5-0.2-0.5-0.5c0-0.2,0.1-0.3,0.3-0.4s0.4-0.2,0.8-0.3c0.6-0.1,1-0.1,1.4-0.1c0.2,0,0.3,0.1,0.4,0.2s0.2,0.2,0.2,0.4
		c0,0.1,0,0.3-0.1,0.4c-0.1,0.1-0.2,0.2-0.3,0.2c-0.1,0-0.1,0-0.2,0h-0.2c-0.1,0-0.2,0-0.3,0.1c-0.1,0.1-0.1,0.2-0.1,0.3
		c0,1.4,0.1,3.4,0.3,5.8c0.2,2.6,0.2,4.6,0.2,5.9v0.8c0.1,0,0.2,0,0.4,0c0.6,0,0.8,0.2,0.8,0.7v0.1l-0.5,0.3c0,0-0.1,0-0.1,0
		c-0.1,0-0.2,0-0.4,0c-0.5,0-0.7,0-0.8,0C218.7,37,218.2,36.8,218.2,36.4z"/>
	<path class="st2" d="M230.7,37.1c-0.1-0.1-0.2-0.3-0.2-0.5c0-0.4-0.1-1.1-0.2-2l-0.1-0.4l-2-0.3c-0.1,0.3-0.2,0.9-0.3,1.9
		c-0.1,0.7-0.2,1.1-0.4,1.3c-0.1,0.1-0.2,0.2-0.4,0.2c-0.2,0-0.3,0-0.4-0.1c-0.1-0.1-0.2-0.2-0.2-0.4l0-0.1l0-0.1
		c0.9-3.4,1.5-6.8,2-10.1c0-0.1,0-0.1,0-0.3c0-0.1,0-0.3,0-0.5c0-0.5,0.1-0.9,0.1-1.2c0-0.3,0.1-0.5,0.2-0.7h0.7
		c0.2,0,0.3,0,0.5,0.1c0.1,0.1,0.2,0.2,0.2,0.4c0,1,0.1,2.5,0.4,4.5c0.3,2.1,0.4,3.5,0.4,4.3c0,0.1,0,0.3,0.1,0.6
		c0.1,0.3,0.1,0.5,0.1,0.6s0.1,0.5,0.2,1.2c0.1,0.6,0.2,1.1,0.2,1.2v0c0,0.3-0.1,0.5-0.3,0.6C231.1,37.2,230.8,37.2,230.7,37.1z
		 M230,32.6c0-1.2-0.1-2.7-0.3-4.6l-0.2-2.1c-0.6,3.1-1,5.5-1.2,7.1c0.2,0.1,0.8,0.2,1.8,0.3C230,33.2,230,32.9,230,32.6z"/>
	<path class="st2" d="M240.8,36.8v-1.3v-1.3c0-0.7,0-1.5-0.1-2.6c-0.1-1.2-0.2-2-0.2-2.5l0-1.2c0-0.4,0-0.8,0-1.2
		c-0.1,0.2-0.3,1.1-0.7,2.8c-0.4,1.6-0.8,3.1-1.2,4.5c-0.4,1.3-0.7,2-1,2c-0.3,0-0.5-0.1-0.6-0.2s-0.2-0.4-0.2-0.6
		c0-0.6-0.2-1.8-0.7-3.7c-0.5-1.9-0.9-3.5-1.3-4.7l-0.1,2.3c-0.1,1.9-0.2,3.5-0.2,4.8c0,1.2,0,2.1,0,2.5c0,0.1,0,0.2,0,0.3v0.3
		c0,0.2,0,0.4-0.1,0.5c-0.1,0.1-0.3,0.2-0.5,0.2c-0.1,0-0.3-0.1-0.4-0.2s-0.2-0.2-0.2-0.3c0-1.4,0.1-3.4,0.3-6.1s0.3-4.8,0.3-6.1
		c-0.1-0.1-0.1-0.2-0.1-0.4c0-0.2,0.1-0.3,0.2-0.4c0.2-0.1,0.3-0.1,0.5-0.1c0.2,0,0.5,0.6,1,1.9c0.5,1.3,0.9,2.7,1.4,4.3
		s0.8,2.7,0.9,3.4c0.1-0.4,0.2-0.7,0.3-1l0.1-0.5c0.4-1.9,0.9-3.6,1.3-5.1c0.3-0.9,0.5-1.6,0.7-2.2c0.2-0.6,0.5-0.8,0.7-0.8
		c0.2,0,0.4,0,0.5,0.2c0.2,0.1,0.2,0.2,0.2,0.4c0,1,0,2.4,0.1,4.3c0.1,1.8,0.1,3.2,0.1,4.2l0,1.1l0,1.1c0,0.2,0,0.4,0.1,0.7l0.1,0.7
		c0,0.1,0,0.2,0,0.3c0,0.1,0,0.1,0,0.1c0.1,0.2,0.1,0.3,0.1,0.4c0,0.2-0.1,0.4-0.2,0.6c-0.1,0.2-0.3,0.3-0.5,0.3
		C241.1,38.1,240.8,37.7,240.8,36.8z"/>
	<path class="st2" d="M249.4,36.7l0-0.8c0-0.2,0-0.5,0-0.8l0-0.7c0-0.1-0.1-1.6-0.3-4.4s-0.3-4.6-0.3-5.3c-0.8,0-1.3-0.1-1.5-0.2
		c-0.1-0.1-0.2-0.2-0.2-0.4c0-0.1,0.1-0.2,0.2-0.3c0.1-0.1,0.3-0.1,0.4-0.1c0.4,0,0.8,0,1.4,0.1c0.5,0.1,1,0.1,1.4,0.1h0.2h0.2
		c0.4,0,0.6,0.2,0.6,0.5c0,0.2-0.1,0.3-0.2,0.4c-0.1,0.1-0.3,0.2-0.5,0.2c-0.1,0-0.3,0-0.5-0.1l-0.4-0.1l0,0.1l0,0.1
		c0,1.2,0.1,3.1,0.3,5.7c0.2,2.4,0.3,4.3,0.3,5.7c0,0.2-0.1,0.3-0.2,0.4c-0.1,0.1-0.3,0.2-0.5,0.2L249.4,36.7z"/>
	<path class="st2" d="M254.8,37.1c-0.3-0.2-0.5-0.5-0.7-0.9c-0.4-0.8-0.6-1.7-0.7-2.7c-0.1-0.9-0.2-1.8-0.2-2.6c0-0.2,0-0.3,0-0.4
		v-0.4c0-0.1,0-0.1,0-0.1v-0.4l0-1.4c0-0.4,0.1-1.1,0.2-2c0.1-0.6,0.2-1.3,0.5-1.9c0.1-0.3,0.2-0.5,0.4-0.6s0.3-0.2,0.5-0.2
		c0.5,0,1,0.1,1.4,0.3s0.8,0.5,1.1,0.8c0.3,0.3,0.5,0.7,0.7,1.2s0.3,1,0.4,1.5c0.1,0.6,0.1,1.2,0.1,1.8v0.2c0,0.4,0,0.8,0,1.1l0,1.1
		c0,3.8-0.9,5.8-2.7,5.8C255.4,37.4,255.1,37.3,254.8,37.1z M256.3,36.3c0.2-0.2,0.4-0.5,0.5-0.8c0.3-0.7,0.4-1.4,0.5-2.2
		c0.1-0.7,0.1-1.3,0.1-1.8c0-0.6,0-1.4-0.1-2.4c-0.1-1-0.1-1.8-0.1-2.3v-0.4c0-0.5-0.2-0.9-0.5-1.3s-0.7-0.6-1.1-0.6
		c-0.5,0-0.8,0.3-0.9,0.8c-0.1,0.4-0.2,0.9-0.2,1.6c0,0.3,0,0.5,0,0.6v0.5l0,0.9c0,0.3,0,0.6,0,0.9c0,0.7,0,1.4,0.1,2.1
		c0.1,1,0.2,2,0.4,2.9c0.2,1,0.5,1.5,0.9,1.5C255.9,36.6,256.1,36.5,256.3,36.3z"/>
	<path class="st2" d="M262,37.1c-0.3-0.2-0.5-0.5-0.7-0.9c-0.4-0.8-0.6-1.7-0.7-2.7c-0.1-0.9-0.2-1.8-0.2-2.6c0-0.2,0-0.3,0-0.4
		v-0.4c0-0.1,0-0.1,0-0.1v-0.4l0-1.4c0-0.4,0.1-1.1,0.2-2c0.1-0.6,0.2-1.3,0.5-1.9c0.1-0.3,0.2-0.5,0.4-0.6c0.1-0.1,0.3-0.2,0.5-0.2
		c0.5,0,1,0.1,1.4,0.3s0.8,0.5,1.1,0.8c0.3,0.3,0.5,0.7,0.7,1.2c0.2,0.5,0.3,1,0.4,1.5c0.1,0.6,0.1,1.2,0.1,1.8v0.2
		c0,0.4,0,0.8,0,1.1l0,1.1c0,3.8-0.9,5.8-2.7,5.8C262.6,37.4,262.3,37.3,262,37.1z M263.5,36.3c0.2-0.2,0.4-0.5,0.5-0.8
		c0.3-0.7,0.4-1.4,0.5-2.2c0.1-0.7,0.1-1.3,0.1-1.8c0-0.6,0-1.4-0.1-2.4c-0.1-1-0.1-1.8-0.1-2.3v-0.4c0-0.5-0.2-0.9-0.5-1.3
		c-0.3-0.4-0.7-0.6-1.2-0.6s-0.8,0.3-0.9,0.8c-0.1,0.4-0.2,0.9-0.2,1.6c0,0.3,0,0.5,0,0.6v0.5l0,0.9c0,0.3,0,0.6,0,0.9
		c0,0.7,0,1.4,0.1,2.1c0.1,1,0.2,2,0.4,2.9c0.2,1,0.5,1.5,0.9,1.5C263.1,36.6,263.3,36.5,263.5,36.3z"/>
	<path class="st2" d="M273,37c-0.3-0.1-0.6-0.3-0.8-0.5c-0.2-0.2-0.3-0.5-0.5-0.8c-0.1-0.4-0.3-0.7-0.3-1c-0.1-0.3-0.1-0.6-0.2-1.1
		c0-0.5-0.1-0.9-0.1-1.2v-1.2v-0.8c0-0.8,0-1.4,0-1.9c0-0.6,0.1-1.2,0.3-1.9c0.1-0.6,0.3-1.1,0.6-1.6c0.3-0.5,0.7-0.8,1.2-0.9
		c0.2-0.1,0.5-0.1,0.8-0.1c0.6,0,0.9,0.2,0.9,0.5c0,0.2-0.1,0.3-0.2,0.4s-0.3,0.2-0.5,0.2c-0.1,0-0.2,0-0.2,0c-0.1,0-0.1,0-0.2,0
		c-0.2,0-0.4,0.1-0.6,0.4c-0.2,0.2-0.3,0.6-0.4,1c-0.2,0.8-0.4,1.7-0.4,2.7c-0.1,0.9-0.1,1.6-0.1,2c0,0.5,0,1.1,0.1,1.9
		c0.1,0.7,0.2,1.4,0.3,1.9c0.1,0.3,0.2,0.6,0.3,0.8s0.3,0.4,0.5,0.5c0.2,0.1,0.5,0.2,0.7,0.2c0.6,0,1-1.1,1-3.2V32
		c-0.1,0-0.2-0.1-0.5-0.1h-0.2h-0.2c-0.5,0-0.7-0.2-0.7-0.5c0-0.2,0.1-0.3,0.2-0.4c0.1-0.1,0.3-0.1,0.5-0.1v0h0.3
		c1.2,0,1.8,0.2,1.8,0.6c0,0.1,0,0.4-0.1,0.7c-0.1,0.3-0.1,0.6-0.1,0.7c0,0.2,0,0.6,0.1,1.1l0,1.1c0,0.6-0.2,1.1-0.7,1.5
		c-0.4,0.4-1,0.5-1.6,0.5C273.7,37.2,273.4,37.1,273,37z"/>
	<path class="st2" d="M281.1,36.4c-0.3-0.7-0.5-1.4-0.6-2.1l-0.1-0.7c-0.4-1.9-0.6-3-0.7-3.3h-0.2c0,0.4,0,0.7,0,1.1v1.1
		c0,1.8,0.1,3.2,0.4,4.2l-0.2,0.5h-0.6l-0.3-0.3l0-1.3c0-1.2-0.1-3-0.2-5.5c-0.1-2.6-0.2-4.4-0.2-5.5c0-0.6,0.2-1,0.7-1
		c0.7,0,1.3,0.2,1.8,0.6c0.5,0.4,0.7,0.9,0.7,1.6v1.4c0,0.2,0,0.4-0.1,0.7c-0.1,0.3-0.1,0.5-0.2,0.6l-0.4,0.7l-0.3,0.6l0.1,0.5
		l0.3,1.4c0.2,1,0.4,1.9,0.5,2.5c0.2,0.6,0.4,1.2,0.6,1.7l0.1,0.2c0.1,0.3,0.2,0.5,0.2,0.6c0,0.1,0,0.2-0.1,0.4
		c-0.1,0.1-0.2,0.1-0.3,0.1C281.6,37.4,281.3,37.1,281.1,36.4z M280.2,28.2c0.2-0.7,0.3-1.3,0.3-1.8c0-0.4-0.1-0.8-0.2-1.2
		c-0.1-0.2-0.2-0.4-0.3-0.5c-0.2-0.1-0.3-0.2-0.6-0.2l0,0.1l0,0.2l0,2.4c0,0.7,0,1.4,0,2.3C279.7,29.2,280,28.8,280.2,28.2z"/>
	<path class="st2" d="M284.7,37.1c-0.1-0.1-0.2-0.3-0.2-0.4v-0.5v-0.4c0-0.1,0-0.3,0-0.4c0-0.3,0-0.7-0.1-1.3l0-1.3
		c0-0.7,0-1.6,0.1-2.9c0.1-1.2,0.1-2.1,0.1-2.9c0-0.2,0-0.5-0.1-0.8c0-0.4-0.1-0.7-0.1-0.8c0-0.9,0.3-1.4,0.8-1.4
		c0.4,0,0.9,0.1,1.5,0.3c0.6,0.2,0.9,0.4,0.9,0.6c0,0.1-0.1,0.3-0.2,0.4s-0.2,0.2-0.4,0.3c-0.6-0.2-1.1-0.3-1.5-0.4
		c0,0.2,0,0.5,0,0.9c0,0.5,0,1,0,1.4c0,0.6-0.1,1.1-0.1,1.4l0.1,0.3l0.3,0c0.1,0,0.2,0,0.4,0c0.6,0,1,0.2,1,0.6
		c0,0.1-0.1,0.3-0.2,0.4c-0.1,0.1-0.3,0.1-0.5,0.1c-0.2,0-0.4,0-0.6,0h-0.5c0,0.3,0,0.9,0,1.5s0,1.3,0,1.8c0,0.8-0.1,1.4-0.1,1.8
		c0,0.7,0,1.1,0,1.1l0.7,0c0.2,0,0.5,0,0.8,0c0.5,0,0.8,0.2,0.8,0.5c0,0.2-0.1,0.3-0.2,0.4c-0.2,0.1-0.4,0.1-0.6,0.1h-1.7
		C285,37.3,284.9,37.2,284.7,37.1z"/>
	<path class="st2" d="M293.2,37.1c-0.1-0.1-0.2-0.3-0.2-0.5c0-0.4-0.1-1.1-0.2-2l-0.1-0.4l-2-0.3c-0.1,0.3-0.2,0.9-0.3,1.9
		c-0.1,0.7-0.2,1.1-0.4,1.3c-0.1,0.1-0.2,0.2-0.4,0.2c-0.2,0-0.3,0-0.4-0.1c-0.1-0.1-0.2-0.2-0.2-0.4l0-0.1l0-0.1
		c0.9-3.4,1.5-6.8,2-10.1c0-0.1,0-0.1,0-0.3c0-0.1,0-0.3,0-0.5c0-0.5,0.1-0.9,0.1-1.2c0-0.3,0.1-0.5,0.2-0.7h0.7
		c0.2,0,0.3,0,0.5,0.1c0.1,0.1,0.2,0.2,0.2,0.4c0,1,0.1,2.5,0.4,4.5c0.3,2.1,0.4,3.5,0.4,4.3c0,0.1,0,0.3,0.1,0.6
		c0.1,0.3,0.1,0.5,0.1,0.6s0.1,0.5,0.2,1.2c0.1,0.6,0.2,1.1,0.2,1.2v0c0,0.3-0.1,0.5-0.3,0.6C293.6,37.2,293.4,37.2,293.2,37.1z
		 M292.5,32.6c0-1.2-0.1-2.7-0.3-4.6L292,26c-0.6,3.1-1,5.5-1.2,7.1c0.2,0.1,0.8,0.2,1.8,0.3C292.5,33.2,292.5,32.9,292.5,32.6z"/>
	<path class="st2" d="M297.1,36.7l0-0.8c0-0.2,0-0.5,0-0.8l0-0.7c0-0.1-0.1-1.6-0.3-4.4s-0.3-4.6-0.3-5.3c-0.8,0-1.3-0.1-1.5-0.2
		c-0.1-0.1-0.2-0.2-0.2-0.4c0-0.1,0.1-0.2,0.2-0.3c0.1-0.1,0.3-0.1,0.4-0.1c0.4,0,0.8,0,1.4,0.1c0.5,0.1,1,0.1,1.4,0.1h0.2h0.2
		c0.4,0,0.6,0.2,0.6,0.5c0,0.2-0.1,0.3-0.2,0.4c-0.1,0.1-0.3,0.2-0.5,0.2c-0.1,0-0.3,0-0.5-0.1l-0.4-0.1l0,0.1l0,0.1
		c0,1.2,0.1,3.1,0.3,5.7c0.2,2.4,0.3,4.3,0.3,5.7c0,0.2-0.1,0.3-0.2,0.4c-0.1,0.1-0.3,0.2-0.5,0.2L297.1,36.7z"/>
	<path class="st2" d="M302.1,37.1c-0.1-0.1-0.2-0.3-0.2-0.5c0-0.2,0.1-0.4,0.2-0.5c0.1-0.2,0.3-0.2,0.5-0.2c0.2,0,0.4,0.1,0.5,0.2
		c0.1,0.2,0.2,0.3,0.2,0.5c0,0.2-0.1,0.4-0.2,0.5c-0.2,0.1-0.3,0.2-0.6,0.2C302.4,37.4,302.3,37.3,302.1,37.1z"/>
</g>
<g id="Layer_6">
</g>
<g id="Layer_7">
</g>
<g id="Layer_8">
</g>
<g id="Layer_11">
</g>
<g id="Layer_9">
</g>
</svg>
