<?xml version="1.0" encoding="utf-8"?>
<!-- Generator: Adobe Illustrator 23.0.1, SVG Export Plug-In . SVG Version: 6.00 Build 0)  -->
<svg version="1.1" id="Layer_1" xmlns="http://www.w3.org/2000/svg" xmlns:xlink="http://www.w3.org/1999/xlink" x="0px" y="0px"
	 viewBox="0 0 360 360" style="enable-background:new 0 0 360 360;" xml:space="preserve">
<style type="text/css">
	.st0{fill:#FFFEE6;}
	.st1{opacity:0.1;fill:url(#SVGID_1_);enable-background:new    ;}
	.st2{opacity:0.1;fill:url(#SVGID_2_);enable-background:new    ;}
	.st3{enable-background:new    ;}
	.st4{fill:#5E5E5E;}
	.st5{fill:#F9E531;}
	.st6{fill:#58595B;}
	.st7{fill:#FF6300;}
	.st8{fill:none;stroke:#F9E531;stroke-width:3;stroke-linecap:round;stroke-miterlimit:10;}
</style>
<rect x="0.5" class="st0" width="360" height="360"/>
<radialGradient id="SVGID_1_" cx="178" cy="53.3445" r="99.4725" gradientTransform="matrix(1 0 0 -1 0 362)" gradientUnits="userSpaceOnUse">
	<stop  offset="0" style="stop-color:#808184"/>
	<stop  offset="1" style="stop-color:#FFFFFF"/>
</radialGradient>
<ellipse class="st1" cx="178" cy="308.7" rx="93.3" ry="4.4"/>
<radialGradient id="SVGID_2_" cx="180.9" cy="52.617" r="99.4475" gradientTransform="matrix(1 0 0 -1 0 362)" gradientUnits="userSpaceOnUse">
	<stop  offset="0" style="stop-color:#603813"/>
	<stop  offset="1" style="stop-color:#FFFFFF"/>
</radialGradient>
<ellipse class="st2" cx="180.9" cy="309.4" rx="93.3" ry="4.4"/>
<g class="st3">
	<path class="st4" d="M83.3,36.9c-0.1-0.1-0.1-0.2-0.1-0.4v-2.6c-0.2-0.1-0.5-0.2-1-0.3c-0.5-0.1-0.9-0.2-1.4-0.2
		c-0.1,0.3-0.3,0.6-0.3,1l-0.1,0.4c0,0.1-0.1,0.3-0.1,0.6c-0.1,0.3-0.1,0.6-0.2,0.8s-0.2,0.4-0.2,0.5c-0.5,0-0.8-0.1-0.9-0.4
		c0.1-0.2,0.3-0.8,0.5-1.9l0.7-3.7c0.3-1.7,0.6-3.2,0.8-4.4c0.2-1.2,0.5-2.3,0.8-3.1c0.3-0.9,0.6-1.4,0.9-1.4s0.5,0.1,0.6,0.2
		c0,0.5,0.1,1.8,0.4,3.9c0.3,2,0.4,3.4,0.4,4.1c0,0.7,0.1,1.7,0.2,3c0.1,1.3,0.2,2.4,0.2,3.2c0,0.5-0.2,0.7-0.7,0.7
		C83.6,37,83.4,37,83.3,36.9z M83.2,32.7c0-0.6-0.1-1.3-0.2-2.2c-0.3-3-0.5-4.9-0.5-5.5v-0.2c-0.1,0.1-0.3,0.7-0.5,1.8
		c-0.2,1.1-0.5,2.2-0.6,3.4c-0.2,1.2-0.3,2-0.3,2.4c0.6,0.2,1.2,0.2,1.8,0.2C82.9,32.7,83,32.7,83.2,32.7z"/>
	<path class="st4" d="M94.3,36.8v-1.3v-1.3c0-0.7,0-1.5-0.1-2.6c-0.1-1.2-0.2-2-0.2-2.5l0-1.2c0-0.4,0-0.8,0-1.2
		c-0.1,0.2-0.3,1.1-0.7,2.8c-0.4,1.6-0.8,3.1-1.2,4.5c-0.4,1.3-0.7,2-1,2c-0.3,0-0.5-0.1-0.6-0.2c-0.2-0.2-0.2-0.4-0.2-0.6
		c0-0.6-0.2-1.8-0.7-3.7c-0.5-1.9-0.9-3.5-1.3-4.7l-0.1,2.3c-0.1,1.9-0.2,3.5-0.2,4.8c0,1.2,0,2.1,0,2.5c0,0.1,0,0.2,0,0.3v0.3
		c0,0.2,0,0.4-0.1,0.5c-0.1,0.1-0.3,0.2-0.5,0.2c-0.1,0-0.3-0.1-0.4-0.2c-0.1-0.1-0.2-0.2-0.2-0.3c0-1.4,0.1-3.4,0.3-6.1
		s0.3-4.8,0.3-6.1c-0.1-0.1-0.1-0.2-0.1-0.4c0-0.2,0.1-0.3,0.2-0.4c0.2-0.1,0.3-0.1,0.5-0.1c0.2,0,0.5,0.6,1,1.9
		c0.5,1.3,0.9,2.7,1.4,4.3s0.8,2.7,0.9,3.4c0.1-0.4,0.2-0.7,0.3-1l0.1-0.5c0.4-1.9,0.9-3.6,1.3-5.1c0.3-0.9,0.5-1.6,0.7-2.2
		c0.2-0.6,0.5-0.8,0.7-0.8c0.2,0,0.4,0,0.5,0.2c0.2,0.1,0.2,0.2,0.2,0.4c0,1,0,2.4,0.1,4.3c0.1,1.8,0.1,3.2,0.1,4.2l0,1.1l0,1.1
		c0,0.2,0,0.4,0.1,0.7l0.1,0.7c0,0.1,0,0.2,0,0.3c0,0.1,0,0.1,0,0.1c0.1,0.2,0.1,0.3,0.1,0.4c0,0.2-0.1,0.4-0.2,0.6
		c-0.1,0.2-0.3,0.3-0.5,0.3C94.5,38.1,94.3,37.7,94.3,36.8z"/>
	<path class="st4" d="M101,36.4c0-0.3,0.2-0.5,0.6-0.5h0.2l0.2,0c0.1,0,0.2,0,0.2-0.1c0-0.1,0.1-0.2,0.1-0.4c0-0.2,0-0.6,0-1.1
		c0-0.3-0.1-0.9-0.1-1.7c-0.1-2-0.2-3.6-0.2-4.6c0-0.4,0-0.7,0-1l0-1c0-0.4,0-0.8-0.1-1.1c-0.2,0.1-0.4,0.1-0.5,0.1
		c-0.3,0-0.5-0.2-0.5-0.5c0-0.2,0.1-0.3,0.3-0.4c0.2-0.1,0.5-0.2,0.8-0.3c0.5-0.1,1-0.2,1.4-0.2c0.2,0,0.3,0.1,0.4,0.2
		c0.1,0.1,0.2,0.2,0.2,0.4s0,0.3-0.1,0.4c-0.1,0.1-0.2,0.2-0.3,0.2c-0.1,0-0.1,0-0.2,0h-0.2c-0.1,0-0.2,0-0.3,0.1
		c-0.1,0.1-0.1,0.2-0.1,0.3c0,1.3,0.1,3.2,0.2,5.8c0,0.5,0.1,1.2,0.2,2.1c0.1,0.6,0.1,1.2,0.1,1.9v0.8c0.1,0,0.2,0,0.4,0
		c0.6,0,0.8,0.2,0.8,0.7v0.1l-0.5,0.3c0,0-0.1,0-0.1,0c-0.1,0-0.2,0-0.4,0c-0.4,0-0.7,0-0.8,0C101.6,37,101,36.8,101,36.4z"/>
	<path class="st4" d="M113.2,37.1c-0.1-0.1-0.2-0.3-0.2-0.5c0-0.4-0.1-1.1-0.2-2l-0.1-0.4l-2-0.3c-0.1,0.3-0.2,0.9-0.3,1.9
		c-0.1,0.7-0.2,1.1-0.4,1.3c-0.1,0.1-0.2,0.2-0.4,0.2c-0.2,0-0.3,0-0.4-0.1c-0.1-0.1-0.2-0.2-0.2-0.4l0-0.1l0-0.1
		c0.9-3.4,1.5-6.8,2-10.1c0-0.1,0-0.1,0-0.3s0-0.3,0-0.5c0-0.5,0.1-0.9,0.1-1.2c0-0.3,0.1-0.5,0.2-0.7h0.7c0.2,0,0.3,0,0.5,0.1
		c0.1,0.1,0.2,0.2,0.2,0.4c0,1,0.1,2.5,0.4,4.5c0.3,2.1,0.4,3.5,0.4,4.3c0,0.1,0,0.3,0.1,0.6c0.1,0.3,0.1,0.5,0.1,0.6
		s0.1,0.5,0.2,1.2c0.1,0.6,0.2,1.1,0.2,1.2v0c0,0.3-0.1,0.5-0.3,0.6C113.5,37.2,113.3,37.2,113.2,37.1z M112.5,32.6
		c0-1.2-0.1-2.7-0.3-4.6L112,26c-0.6,3.1-1,5.5-1.2,7.1c0.2,0.1,0.8,0.2,1.8,0.3C112.5,33.2,112.5,32.9,112.5,32.6z"/>
	<path class="st4" d="M117.2,37.1c-0.2,0.1-0.4,0.2-0.7,0.2c-0.2,0-0.3-0.1-0.4-0.2c-0.1-0.1-0.2-0.3-0.2-0.5c0-1.1,0-2.6,0.1-4.5
		c0.1-2,0.1-3.5,0.1-4.5v-0.1c-0.1-0.8-0.1-1.5-0.1-1.9c0-1.3,0.2-1.9,0.7-1.9c0.1,0,0.2,0,0.4,0.2c0.1,0.1,0.1,0.2,0.1,0.3
		c0,0.2,0,0.4-0.1,0.8c0,0.3-0.1,0.6-0.1,0.8c0,0.9,0,1.7,0,2.4c0,0.7,0,1.5,0,2.4c-0.1,0.2-0.1,0.5-0.1,0.8v0.2l0,1.6
		c0,0.5,0,1,0,1.6c0,0.9,0.2,1.4,0.7,1.4c0,0,0.1,0,0.1,0s0.1,0,0.2,0c0.1,0,0.3,0,0.5,0c0.7,0,1.1,0.2,1.1,0.6
		c0,0.1-0.1,0.2-0.2,0.3c-0.1,0.1-0.3,0.2-0.4,0.2C118.5,37.2,117.9,37.1,117.2,37.1z"/>
	<path class="st4" d="M122.6,37.1c-0.2,0.1-0.4,0.2-0.7,0.2c-0.2,0-0.3-0.1-0.4-0.2c-0.1-0.1-0.2-0.3-0.2-0.5c0-1.1,0-2.6,0.1-4.5
		c0.1-2,0.1-3.5,0.1-4.5v-0.1c-0.1-0.8-0.1-1.5-0.1-1.9c0-1.3,0.2-1.9,0.7-1.9c0.1,0,0.2,0,0.4,0.2c0.1,0.1,0.1,0.2,0.1,0.3
		c0,0.2,0,0.4-0.1,0.8c0,0.3-0.1,0.6-0.1,0.8c0,0.9,0,1.7,0,2.4c0,0.7,0,1.5,0,2.4c-0.1,0.2-0.1,0.5-0.1,0.8v0.2l0,1.6
		c0,0.5,0,1,0,1.6c0,0.9,0.2,1.4,0.7,1.4c0,0,0.1,0,0.1,0s0.1,0,0.2,0c0.1,0,0.3,0,0.5,0c0.7,0,1.1,0.2,1.1,0.6
		c0,0.1-0.1,0.2-0.2,0.3c-0.1,0.1-0.3,0.2-0.4,0.2C123.9,37.2,123.3,37.1,122.6,37.1z"/>
	<path class="st4" d="M128,37.1c-0.3-0.2-0.5-0.5-0.7-0.9c-0.4-0.8-0.6-1.7-0.7-2.7c-0.1-0.9-0.2-1.8-0.2-2.6c0-0.2,0-0.3,0-0.4
		v-0.4c0-0.1,0-0.1,0-0.1v-0.4l0-1.4c0-0.4,0.1-1.1,0.2-2c0.1-0.6,0.2-1.3,0.5-1.9c0.1-0.3,0.2-0.5,0.4-0.6c0.1-0.1,0.3-0.2,0.5-0.2
		c0.5,0,1,0.1,1.4,0.3s0.8,0.5,1.1,0.8c0.3,0.3,0.5,0.7,0.7,1.2c0.2,0.5,0.3,1,0.4,1.5c0.1,0.6,0.1,1.2,0.1,1.8v0.2
		c0,0.4,0,0.8,0,1.1l0,1.1c0,3.8-0.9,5.8-2.7,5.8C128.6,37.4,128.3,37.3,128,37.1z M129.5,36.3c0.2-0.2,0.4-0.5,0.5-0.8
		c0.3-0.7,0.4-1.4,0.5-2.2c0.1-0.7,0.1-1.3,0.1-1.8c0-0.6,0-1.4-0.1-2.4c-0.1-1-0.1-1.8-0.1-2.3v-0.4c0-0.5-0.2-0.9-0.5-1.3
		c-0.3-0.4-0.7-0.6-1.1-0.6c-0.5,0-0.8,0.3-0.9,0.8c-0.1,0.4-0.2,0.9-0.2,1.6c0,0.3,0,0.5,0,0.6v0.5l0,0.9c0,0.3,0,0.6,0,0.9
		c0,0.7,0,1.4,0.1,2.1c0.1,1,0.2,2,0.4,2.9c0.2,1,0.5,1.5,0.9,1.5C129.1,36.6,129.3,36.5,129.5,36.3z"/>
	<path class="st4" d="M134.6,36.3c-0.2-0.7-0.3-1.6-0.4-2.6s-0.2-2.4-0.3-4c-0.1-1-0.2-2.2-0.3-3.3c-0.1-1-0.2-1.6-0.3-1.9
		c0.1-0.2,0.3-0.4,0.6-0.4c0.4,0,0.6,0.4,0.6,1.3c0,1,0.1,2.6,0.4,4.6c0.3,2,0.4,3.4,0.5,4.3l0.1-0.7c0.1-0.9,0.2-1.7,0.4-2.5
		s0.2-1.7,0.2-2.6c0.1-1,0.1-2,0.1-3l0.5-0.2c0.2,0,0.3,0,0.4,0.1c0.1,0.1,0.2,0.2,0.2,0.4v0.2c0.2,0.7,0.4,1.6,0.5,2.5
		s0.3,1.9,0.4,3.1c0.1,0.9,0.2,1.8,0.3,2.6c0.3-1.8,0.4-4,0.4-6.6c0-0.4,0.1-0.9,0.2-1.5c0.1-0.6,0.1-1.1,0.1-1.5
		c0-0.1-0.1-0.2-0.1-0.3c0-0.3,0.2-0.5,0.6-0.5c0.2,0,0.3,0,0.4,0.1s0.1,0.2,0.1,0.3v0.3c0,0.2,0,0.4-0.1,0.5V25
		c-0.2,0.5-0.3,1.1-0.3,1.8v1.5c0,0.8-0.1,2.1-0.3,3.8c-0.2,1.6-0.3,2.8-0.3,3.6V36c0,0.3,0,0.6-0.1,0.8c-0.1,0.3-0.3,0.4-0.6,0.4
		c-0.2,0-0.4-0.1-0.5-0.2c-0.1-0.1-0.2-0.3-0.2-0.5c0-1.1-0.1-2.5-0.3-4.2c-0.1-0.8-0.2-1.6-0.4-2.3l-0.3-2.1
		c-0.1,0.4-0.1,0.8-0.1,1.1c0,0.7-0.1,1.7-0.2,3c-0.1,1.2-0.3,2.4-0.5,3.6c-0.3,1.3-0.5,1.9-0.9,1.9C135,37.5,134.8,37.1,134.6,36.3
		z"/>
	<path class="st4" d="M142.8,37.1c-0.1-0.1-0.2-0.3-0.2-0.4v-0.5v-0.4c0-0.1,0-0.3,0-0.4c0-0.3,0-0.7-0.1-1.3l0-1.3
		c0-0.7,0-1.6,0.1-2.9c0.1-1.2,0.1-2.1,0.1-2.9c0-0.2,0-0.5-0.1-0.8c0-0.4-0.1-0.7-0.1-0.8c0-0.9,0.3-1.4,0.8-1.4
		c0.4,0,0.9,0.1,1.5,0.3c0.6,0.2,0.9,0.4,0.9,0.6c0,0.1-0.1,0.3-0.2,0.4c-0.1,0.1-0.2,0.2-0.4,0.3c-0.6-0.2-1.1-0.3-1.5-0.4
		c0,0.2,0,0.5,0,0.9c0,0.5,0,1,0,1.4c0,0.6-0.1,1.1-0.1,1.4l0.1,0.3l0.3,0c0.1,0,0.2,0,0.4,0c0.6,0,1,0.2,1,0.6
		c0,0.1-0.1,0.3-0.2,0.4c-0.1,0.1-0.3,0.1-0.5,0.1c-0.2,0-0.4,0-0.6,0h-0.5c0,0.3,0,0.9,0,1.5s0,1.3,0,1.8c0,0.8-0.1,1.4-0.1,1.8
		c0,0.7,0,1.1,0,1.1l0.7,0c0.2,0,0.5,0,0.8,0c0.5,0,0.8,0.2,0.8,0.5c0,0.2-0.1,0.3-0.2,0.4c-0.2,0.1-0.4,0.1-0.6,0.1h-1.7
		C143.1,37.3,143,37.2,142.8,37.1z"/>
	<path class="st4" d="M148.2,34.5l0-3.2c0-0.9,0-2,0-3.1c0-0.4,0-1.1-0.1-2c-0.1-1-0.1-1.6-0.1-1.8c0-0.2,0.1-0.3,0.2-0.5
		c0.1-0.1,0.3-0.2,0.5-0.2c0.5,0,0.9,0.1,1.4,0.3c0.4,0.2,0.8,0.5,1.1,0.9c0.7,0.8,1.2,1.7,1.4,2.7c0.1,0.5,0.2,1,0.2,1.5
		c0,0.2,0,0.3,0,0.5l0,0.5v1.1c0,0.9,0,1.5-0.1,2c-0.1,0.7-0.2,1.3-0.5,1.8c-0.3,0.6-0.7,1.1-1.2,1.5c-0.2,0.2-0.5,0.4-0.9,0.6h-1.4
		C148.4,37.2,148.2,36.3,148.2,34.5z M150.3,35.9c0.2-0.1,0.4-0.3,0.6-0.6c0.1-0.2,0.3-0.5,0.4-0.8c0.1-0.3,0.2-0.6,0.2-1
		c0.1-0.6,0.2-1.2,0.2-1.8c0-0.2,0-0.4,0-0.7c0-4-0.8-6.1-2.3-6.3c-0.1,0.6-0.1,1.3-0.1,2.1c0,0.8,0.1,2.3,0.2,4.4
		c0.1,1.9,0.1,3.3,0.1,4.4v0.5C149.9,36.1,150.1,36.1,150.3,35.9z"/>
	<path class="st4" d="M159.8,36.7l0-0.8c0-0.2,0-0.5,0-0.8l0-0.7c0-0.1-0.1-1.6-0.3-4.4s-0.3-4.6-0.3-5.3c-0.8,0-1.3-0.1-1.5-0.2
		c-0.1-0.1-0.2-0.2-0.2-0.4c0-0.1,0.1-0.2,0.2-0.3c0.1-0.1,0.3-0.1,0.4-0.1c0.4,0,0.8,0,1.4,0.1c0.5,0.1,1,0.1,1.4,0.1h0.2h0.2
		c0.4,0,0.6,0.2,0.6,0.5c0,0.2-0.1,0.3-0.2,0.4c-0.1,0.1-0.3,0.2-0.5,0.2c-0.1,0-0.3,0-0.5-0.1l-0.4-0.1l0,0.1l0,0.1
		c0,1.2,0.1,3.1,0.3,5.7c0.2,2.4,0.3,4.3,0.3,5.7c0,0.2-0.1,0.3-0.2,0.4s-0.3,0.2-0.5,0.2L159.8,36.7z"/>
	<path class="st4" d="M165.1,37.1c-0.3-0.2-0.5-0.5-0.7-0.9c-0.4-0.8-0.6-1.7-0.7-2.7c-0.1-0.9-0.2-1.8-0.2-2.6c0-0.2,0-0.3,0-0.4
		v-0.4c0-0.1,0-0.1,0-0.1v-0.4l0-1.4c0-0.4,0.1-1.1,0.2-2c0.1-0.6,0.2-1.3,0.5-1.9c0.1-0.3,0.2-0.5,0.4-0.6c0.1-0.1,0.3-0.2,0.5-0.2
		c0.5,0,1,0.1,1.4,0.3s0.8,0.5,1.1,0.8c0.3,0.3,0.5,0.7,0.7,1.2c0.2,0.5,0.3,1,0.4,1.5c0.1,0.6,0.1,1.2,0.1,1.8v0.2
		c0,0.4,0,0.8,0,1.1l0,1.1c0,3.8-0.9,5.8-2.7,5.8C165.8,37.4,165.4,37.3,165.1,37.1z M166.7,36.3c0.2-0.2,0.4-0.5,0.5-0.8
		c0.3-0.7,0.4-1.4,0.5-2.2c0.1-0.7,0.1-1.3,0.1-1.8c0-0.6,0-1.4-0.1-2.4c-0.1-1-0.1-1.8-0.1-2.3v-0.4c0-0.5-0.2-0.9-0.5-1.3
		c-0.3-0.4-0.7-0.6-1.1-0.6c-0.5,0-0.8,0.3-0.9,0.8c-0.1,0.4-0.2,0.9-0.2,1.6c0,0.3,0,0.5,0,0.6v0.5l0,0.9c0,0.3,0,0.6,0,0.9
		c0,0.7,0,1.4,0.1,2.1c0.1,1,0.2,2,0.4,2.9c0.2,1,0.5,1.5,0.9,1.5C166.3,36.6,166.5,36.5,166.7,36.3z"/>
	<path class="st4" d="M174.4,37.1c-0.2-0.1-0.3-0.3-0.3-0.5l0.2-0.3c0.1,0,0.2,0,0.4,0.1c0.2,0,0.4,0.1,0.5,0.1
		c0.2,0,0.5-0.1,0.6-0.3c0.2-0.2,0.3-0.5,0.4-0.8c0.2-0.6,0.3-1.2,0.3-1.7c0-0.9-0.3-1.8-0.8-2.8l-0.2-0.4c-0.3-0.4-0.5-0.8-0.6-1.2
		s-0.3-0.7-0.4-1.1c-0.2-0.5-0.2-1-0.2-1.6c0-0.6,0.1-1.2,0.4-1.8c0.1-0.3,0.3-0.6,0.6-0.8c0.2-0.2,0.5-0.3,0.8-0.3
		c0.2,0,0.5,0.1,0.7,0.2c0.2,0.2,0.3,0.3,0.3,0.5c0,0.1,0,0.2-0.1,0.3s-0.2,0.1-0.3,0.1c-0.1,0-0.3,0-0.4-0.1
		c-0.3,0-0.5,0.3-0.7,0.8c-0.1,0.5-0.2,0.9-0.2,1.2c0,0.4,0.1,0.8,0.2,1.2c0.1,0.4,0.3,0.8,0.5,1.1l0.4,0.8l0.7,1.3
		c0.2,0.4,0.3,0.8,0.5,1.3c0.1,0.5,0.2,1,0.2,1.5c0,0.8-0.2,1.6-0.6,2.3c-0.2,0.4-0.5,0.7-0.8,0.9s-0.7,0.3-1.1,0.3v0.1
		C174.7,37.3,174.5,37.2,174.4,37.1z"/>
	<path class="st4" d="M180.9,37.1c-0.2,0.1-0.4,0.2-0.7,0.2c-0.2,0-0.3-0.1-0.4-0.2c-0.1-0.1-0.2-0.3-0.2-0.5c0-1.1,0-2.6,0.1-4.5
		c0.1-2,0.1-3.5,0.1-4.5v-0.1c-0.1-0.8-0.1-1.5-0.1-1.9c0-1.3,0.2-1.9,0.7-1.9c0.1,0,0.2,0,0.4,0.2c0.1,0.1,0.1,0.2,0.1,0.3
		c0,0.2,0,0.4-0.1,0.8c0,0.3-0.1,0.6-0.1,0.8c0,0.9,0,1.7,0,2.4c0,0.7,0,1.5,0,2.4c-0.1,0.2-0.1,0.5-0.1,0.8v0.2l0,1.6
		c0,0.5,0,1,0,1.6c0,0.9,0.2,1.4,0.7,1.4c0,0,0.1,0,0.1,0s0.1,0,0.2,0c0.1,0,0.3,0,0.5,0c0.7,0,1.1,0.2,1.1,0.6
		c0,0.1-0.1,0.2-0.2,0.3c-0.1,0.1-0.3,0.2-0.4,0.2C182.2,37.2,181.6,37.1,180.9,37.1z"/>
	<path class="st4" d="M185.4,37.1c-0.1-0.1-0.2-0.3-0.2-0.4v-0.5v-0.4c0-0.1,0-0.3,0-0.4c0-0.3,0-0.7-0.1-1.3l0-1.3
		c0-0.7,0-1.6,0.1-2.9c0.1-1.2,0.1-2.1,0.1-2.9c0-0.2,0-0.5-0.1-0.8c0-0.4-0.1-0.7-0.1-0.8c0-0.9,0.3-1.4,0.8-1.4
		c0.4,0,1,0.1,1.5,0.3c0.6,0.2,0.9,0.4,0.9,0.6c0,0.1-0.1,0.3-0.2,0.4s-0.2,0.2-0.4,0.3c-0.6-0.2-1.1-0.3-1.5-0.4c0,0.2,0,0.5,0,0.9
		c0,0.5,0,1,0,1.4c0,0.6-0.1,1.1-0.1,1.4l0.1,0.3l0.3,0c0.1,0,0.2,0,0.4,0c0.6,0,1,0.2,1,0.6c0,0.1-0.1,0.3-0.2,0.4
		c-0.1,0.1-0.3,0.1-0.5,0.1c-0.2,0-0.4,0-0.6,0h-0.5c0,0.3,0,0.9,0,1.5s0,1.3,0,1.8c0,0.8-0.1,1.4-0.1,1.8c0,0.7,0,1.1,0,1.1l0.7,0
		c0.2,0,0.5,0,0.8,0c0.5,0,0.8,0.2,0.8,0.5c0,0.2-0.1,0.3-0.2,0.4c-0.2,0.1-0.4,0.1-0.6,0.1h-1.7C185.7,37.3,185.5,37.2,185.4,37.1z
		"/>
	<path class="st4" d="M191.1,37.1c-0.1-0.1-0.2-0.3-0.2-0.4v-0.5v-0.4c0-0.1,0-0.3,0-0.4c0-0.3,0-0.7-0.1-1.3l0-1.3
		c0-0.7,0-1.6,0.1-2.9c0.1-1.2,0.1-2.1,0.1-2.9c0-0.2,0-0.5-0.1-0.8c0-0.4-0.1-0.7-0.1-0.8c0-0.9,0.3-1.4,0.8-1.4
		c0.4,0,1,0.1,1.5,0.3c0.6,0.2,0.9,0.4,0.9,0.6c0,0.1-0.1,0.3-0.2,0.4s-0.2,0.2-0.4,0.3c-0.6-0.2-1.1-0.3-1.5-0.4c0,0.2,0,0.5,0,0.9
		c0,0.5,0,1,0,1.4c0,0.6-0.1,1.1-0.1,1.4l0.1,0.3l0.3,0c0.1,0,0.2,0,0.4,0c0.6,0,1,0.2,1,0.6c0,0.1-0.1,0.3-0.2,0.4
		c-0.1,0.1-0.3,0.1-0.5,0.1c-0.2,0-0.4,0-0.6,0h-0.5c0,0.3,0,0.9,0,1.5s0,1.3,0,1.8c0,0.8-0.1,1.4-0.1,1.8c0,0.7,0,1.1,0,1.1l0.7,0
		c0.2,0,0.5,0,0.8,0c0.5,0,0.8,0.2,0.8,0.5c0,0.2-0.1,0.3-0.2,0.4c-0.2,0.1-0.4,0.1-0.6,0.1h-1.7C191.4,37.3,191.2,37.2,191.1,37.1z
		"/>
	<path class="st4" d="M196.7,37.2c-0.2-0.7-0.3-1.7-0.3-2.9l0-1.8c0-0.5,0-1.1,0-1.8c-0.1-0.2-0.1-0.4-0.1-0.5v-0.1
		c0.1-0.3,0.2-0.8,0.2-1.7l0-0.9c0-0.3,0-0.6,0-1c0-0.8-0.1-1.4-0.2-1.9c0-0.2,0.1-0.3,0.2-0.5c0.1-0.1,0.2-0.2,0.3-0.2h0.9
		c0.4,0,0.7,0.1,1,0.2c0.3,0.2,0.5,0.4,0.6,0.7c0.3,0.5,0.4,1.2,0.4,1.9c0,0.5,0,1,0,1.3c0,0.4-0.1,0.7-0.2,1.1
		c0,0.2-0.1,0.3-0.2,0.4s-0.2,0.2-0.3,0.4c-0.2,0.2-0.5,0.4-0.9,0.6c-0.2,0.1-0.4,0.2-0.7,0.3V33l0,1.3l0,0.6
		c0.1,0.7,0.1,1.4,0.1,1.9c0,0.2-0.1,0.3-0.2,0.4s-0.3,0.2-0.5,0.2L196.7,37.2z M198.8,26.7c0-0.4,0-0.7-0.1-0.9
		c0-0.2-0.1-0.3-0.2-0.4c-0.1-0.1-0.2-0.2-0.3-0.2c-0.1-0.1-0.3-0.1-0.5-0.1c0,0-0.1,0-0.2,0v1.1c0,0.8,0,1.5,0,2.1
		c0,0.7,0,1.1,0,1.4V30v0C198.5,30,198.8,28.8,198.8,26.7z"/>
	<path class="st4" d="M204.8,36.4c0-0.3,0.2-0.5,0.6-0.5h0.2l0.2,0c0.1,0,0.2,0,0.2-0.1c0-0.1,0.1-0.2,0.1-0.4c0-0.2,0-0.6,0-1.1
		c0-0.3-0.1-0.9-0.1-1.7c-0.1-2-0.2-3.6-0.2-4.6c0-0.4,0-0.7,0-1l0-1c0-0.4,0-0.8-0.1-1.1c-0.2,0.1-0.4,0.1-0.5,0.1
		c-0.3,0-0.5-0.2-0.5-0.5c0-0.2,0.1-0.3,0.3-0.4c0.2-0.1,0.5-0.2,0.8-0.3c0.5-0.1,1-0.2,1.4-0.2c0.2,0,0.3,0.1,0.4,0.2
		c0.1,0.1,0.2,0.2,0.2,0.4s0,0.3-0.1,0.4c-0.1,0.1-0.2,0.2-0.3,0.2c-0.1,0-0.1,0-0.2,0h-0.2c-0.1,0-0.2,0-0.3,0.1
		c-0.1,0.1-0.1,0.2-0.1,0.3c0,1.3,0.1,3.2,0.2,5.8c0,0.5,0.1,1.2,0.2,2.1c0.1,0.6,0.1,1.2,0.1,1.9v0.8c0.1,0,0.2,0,0.4,0
		c0.6,0,0.8,0.2,0.8,0.7v0.1l-0.5,0.3c0,0-0.1,0-0.1,0c-0.1,0-0.2,0-0.4,0c-0.4,0-0.7,0-0.8,0C205.4,37,204.8,36.8,204.8,36.4z"/>
	<path class="st4" d="M215.2,37c-0.1-0.1-0.1-0.2-0.2-0.4l-0.1-0.4v0V36c0-0.4-0.5-1.9-1.4-4.5c-0.9-2.6-1.6-4.5-2.2-5.7v10.1
		l0.1,0.1c0,0,0,0.1,0.1,0.1s0.1,0.1,0.1,0.2c0,0.2-0.1,0.3-0.2,0.4S211.1,37,211,37c-0.4,0-0.6-0.4-0.6-1.2l0-3.4c0-1,0-2.2,0-3.4
		c0-0.4,0-1,0.1-1.9c0-0.8,0.1-1.5,0.1-1.9c0-0.6,0.2-1.1,0.7-1.5v0.1c0.1,0,0.1,0,0.2,0c0.3,0,0.7,0.5,1.2,1.6
		c0.4,0.9,0.7,1.8,1,2.7c0.3,0.9,0.7,2.3,1.2,4l0.2,0.7c0.3,1.1,0.5,1.9,0.7,2.3c0.3-2.9,0.4-6.3,0.4-10.2v-0.3c0-0.1,0-0.2,0-0.3
		c0-0.4,0.2-0.6,0.5-0.6c0.2,0,0.3,0.1,0.4,0.2c0.1,0.1,0.1,0.3,0.1,0.6v1.5c0,2.1-0.1,4.3-0.2,6.7c-0.1,2.4-0.3,3.8-0.5,4.1
		c-0.4,0.1-0.6,0.2-0.7,0.2C215.4,37.1,215.3,37.1,215.2,37z"/>
	<path class="st4" d="M224.4,36.7l0-0.8c0-0.2,0-0.5,0-0.8l0-0.7c0-0.1-0.1-1.6-0.3-4.4s-0.3-4.6-0.3-5.3c-0.8,0-1.3-0.1-1.5-0.2
		c-0.1-0.1-0.2-0.2-0.2-0.4c0-0.1,0.1-0.2,0.2-0.3c0.1-0.1,0.3-0.1,0.4-0.1c0.4,0,0.8,0,1.4,0.1c0.5,0.1,1,0.1,1.4,0.1h0.2h0.2
		c0.4,0,0.6,0.2,0.6,0.5c0,0.2-0.1,0.3-0.2,0.4c-0.1,0.1-0.3,0.2-0.5,0.2c-0.1,0-0.3,0-0.5-0.1l-0.4-0.1l0,0.1l0,0.1
		c0,1.2,0.1,3.1,0.3,5.7c0.2,2.4,0.3,4.3,0.3,5.7c0,0.2-0.1,0.3-0.2,0.4c-0.1,0.1-0.3,0.2-0.5,0.2L224.4,36.7z"/>
	<path class="st4" d="M231.3,33.7l0-1.1l0-0.9v-0.1v-0.2c0-0.1,0-0.2,0-0.4c0,0,0-0.1-0.1-0.1c0,0-0.1-0.1-0.1-0.1v0
		c-0.1,0-0.2,0-0.4,0c-0.2,0-0.4,0-0.6-0.1c-0.1,0-0.3,0-0.6-0.1V33c0,0.3,0,0.9,0.1,1.6c0,0.7,0.1,1.3,0.1,1.6
		c0,0.2-0.1,0.4-0.2,0.5c-0.1,0.1-0.2,0.2-0.4,0.2c-0.3,0-0.4-0.2-0.5-0.7c-0.1-0.5-0.2-1.2-0.2-2l0-1.6c0-0.5,0-0.9,0-1.4v-0.3
		v-0.3c0-0.2,0-0.4,0-0.4v-0.1l0.1-1.2c0-0.5,0-1.3-0.1-2.3c0-1-0.1-1.8-0.1-2.3c0-0.2,0.1-0.3,0.2-0.4c0.1-0.1,0.2-0.2,0.4-0.2
		c0.4,0,0.6,0.4,0.6,1.2l0,2.5c0,0.7,0,1.6,0,2.5c0.2,0.1,0.6,0.1,1.1,0.1h0.7c0-0.1,0-0.2,0-0.2c0-0.6,0-1.6-0.1-2.8
		c-0.1-1.2-0.1-2.1-0.1-2.9c0-0.1,0.1-0.3,0.2-0.4c0.1-0.1,0.2-0.2,0.4-0.2c0.1,0,0.2,0,0.4,0.1l0.2,0.1c0,1.9,0.1,4.4,0.2,7.6
		l0.2,5.1c0,0.2-0.1,0.3-0.2,0.4c-0.1,0.1-0.3,0.2-0.5,0.2C231.5,37,231.3,35.9,231.3,33.7z"/>
	<path class="st4" d="M235.5,37.1c-0.1-0.1-0.2-0.3-0.2-0.4v-0.5v-0.4c0-0.1,0-0.3,0-0.4c0-0.3,0-0.7-0.1-1.3l0-1.3
		c0-0.7,0-1.6,0.1-2.9c0.1-1.2,0.1-2.1,0.1-2.9c0-0.2,0-0.5-0.1-0.8c0-0.4-0.1-0.7-0.1-0.8c0-0.9,0.3-1.4,0.8-1.4
		c0.4,0,0.9,0.1,1.5,0.3c0.6,0.2,0.9,0.4,0.9,0.6c0,0.1-0.1,0.3-0.2,0.4c-0.1,0.1-0.2,0.2-0.4,0.3c-0.6-0.2-1.1-0.3-1.5-0.4
		c0,0.2,0,0.5,0,0.9c0,0.5,0,1,0,1.4c0,0.6-0.1,1.1-0.1,1.4l0.1,0.3l0.3,0c0.1,0,0.2,0,0.4,0c0.6,0,1,0.2,1,0.6
		c0,0.1-0.1,0.3-0.2,0.4c-0.1,0.1-0.3,0.1-0.5,0.1c-0.2,0-0.4,0-0.6,0h-0.5c0,0.3,0,0.9,0,1.5s0,1.3,0,1.8c0,0.8-0.1,1.4-0.1,1.8
		c0,0.7,0,1.1,0,1.1l0.7,0c0.2,0,0.5,0,0.8,0c0.5,0,0.8,0.2,0.8,0.5c0,0.2-0.1,0.3-0.2,0.4c-0.2,0.1-0.4,0.1-0.6,0.1H236
		C235.8,37.3,235.7,37.2,235.5,37.1z"/>
	<path class="st4" d="M245.8,37.1c-0.3-0.2-0.5-0.5-0.7-0.9c-0.4-0.8-0.6-1.7-0.7-2.7c-0.1-0.9-0.2-1.8-0.2-2.6c0-0.2,0-0.3,0-0.4
		v-0.4c0-0.1,0-0.1,0-0.1v-0.4l0-1.4c0-0.4,0.1-1.1,0.2-2c0.1-0.6,0.2-1.3,0.5-1.9c0.1-0.3,0.2-0.5,0.4-0.6s0.3-0.2,0.5-0.2
		c0.5,0,1,0.1,1.4,0.3s0.8,0.5,1.1,0.8c0.3,0.3,0.5,0.7,0.7,1.2c0.2,0.5,0.3,1,0.4,1.5c0.1,0.6,0.1,1.2,0.1,1.8v0.2
		c0,0.4,0,0.8,0,1.1l0,1.1c0,3.8-0.9,5.8-2.7,5.8C246.4,37.4,246.1,37.3,245.8,37.1z M247.3,36.3c0.2-0.2,0.4-0.5,0.5-0.8
		c0.3-0.7,0.4-1.4,0.5-2.2c0.1-0.7,0.1-1.3,0.1-1.8c0-0.6,0-1.4-0.1-2.4c-0.1-1-0.1-1.8-0.1-2.3v-0.4c0-0.5-0.2-0.9-0.5-1.3
		c-0.3-0.4-0.7-0.6-1.1-0.6c-0.5,0-0.8,0.3-0.9,0.8c-0.1,0.4-0.2,0.9-0.2,1.6c0,0.3,0,0.5,0,0.6v0.5l0,0.9c0,0.3,0,0.6,0,0.9
		c0,0.7,0,1.4,0.1,2.1c0.1,1,0.2,2,0.4,2.9c0.2,1,0.5,1.5,0.9,1.5C246.9,36.6,247.1,36.5,247.3,36.3z"/>
	<path class="st4" d="M251.3,36.9c0.1-1.1,0.2-2.8,0.3-5.1c0.1-2.4,0.1-3.8,0.1-4.3V27c0.1-1.3,0.1-2.2,0.1-2.7
		c0-0.2,0.1-0.3,0.2-0.4c0.2-0.1,0.3-0.2,0.5-0.2c0.5,0,1,0,1.5,0.1c0.3,0.1,0.6,0.1,0.8,0.3c0.2,0.1,0.3,0.3,0.3,0.4
		c0,0.4-0.3,0.6-1,0.6c-0.3-0.1-0.6-0.2-1-0.2h-0.2v0.2c0,0.5,0,1.2-0.1,2c-0.1,0.7-0.1,1.4-0.1,2v0.5h0.2h0.2c0.7,0,1,0.2,1,0.5
		c0,0.2-0.1,0.3-0.2,0.4c-0.1,0.1-0.3,0.2-0.5,0.2c-0.3,0-0.6,0-0.8-0.1v5.7c0,0.6-0.2,0.9-0.5,0.9
		C251.8,37.2,251.6,37.1,251.3,36.9z M256.2,36.9c0.1-1.1,0.2-2.8,0.3-5.1c0.1-2.4,0.1-3.8,0.1-4.3V27c0.1-1.3,0.1-2.2,0.1-2.7
		c0-0.2,0.1-0.3,0.2-0.4c0.2-0.1,0.3-0.2,0.5-0.2c0.5,0,1,0,1.5,0.1c0.3,0.1,0.6,0.1,0.8,0.3c0.2,0.1,0.3,0.3,0.3,0.4
		c0,0.4-0.3,0.6-1,0.6c-0.3-0.1-0.6-0.2-1-0.2h-0.2v0.2c0,0.5,0,1.2-0.1,2c-0.1,0.7-0.1,1.4-0.1,2v0.5h0.2h0.2c0.7,0,1,0.2,1,0.5
		c0,0.2-0.1,0.3-0.2,0.4s-0.3,0.2-0.5,0.2c-0.3,0-0.6,0-0.8-0.1v5.7c0,0.6-0.2,0.9-0.5,0.9C256.8,37.2,256.5,37.1,256.2,36.9z
		 M260.7,36.4c0-0.3,0.2-0.5,0.6-0.5h0.2l0.2,0c0.1,0,0.2,0,0.2-0.1c0-0.1,0.1-0.2,0.1-0.4c0-0.2,0-0.6,0-1.1c0-0.3-0.1-0.9-0.1-1.7
		c-0.1-2-0.2-3.6-0.2-4.6c0-0.4,0-0.7,0-1l0-1c0-0.4,0-0.8-0.1-1.1c-0.2,0.1-0.4,0.1-0.5,0.1c-0.3,0-0.5-0.2-0.5-0.5
		c0-0.2,0.1-0.3,0.3-0.4c0.2-0.1,0.5-0.2,0.8-0.3c0.5-0.1,1-0.2,1.4-0.2c0.2,0,0.3,0.1,0.4,0.2c0.1,0.1,0.2,0.2,0.2,0.4
		s0,0.3-0.1,0.4c-0.1,0.1-0.2,0.2-0.3,0.2c-0.1,0-0.1,0-0.2,0H263c-0.1,0-0.2,0-0.3,0.1c-0.1,0.1-0.1,0.2-0.1,0.3
		c0,1.3,0.1,3.2,0.2,5.8c0,0.5,0.1,1.2,0.2,2.1c0.1,0.6,0.1,1.2,0.1,1.9v0.8c0.1,0,0.2,0,0.4,0c0.6,0,0.8,0.2,0.8,0.7v0.1l-0.5,0.3
		c0,0-0.1,0-0.1,0c-0.1,0-0.2,0-0.4,0c-0.4,0-0.7,0-0.8,0C261.3,37,260.7,36.8,260.7,36.4z"/>
	<path class="st4" d="M267.8,37.2c-0.3-0.1-0.6-0.2-0.8-0.3c-0.9-0.6-1.3-2.1-1.3-4.7v-0.5V31v-0.5c0-0.5,0-1,0-1.4s0-0.9,0.1-1.4
		c0-0.5,0.1-0.9,0.2-1.3s0.2-0.7,0.4-1.1c0.2-0.4,0.4-0.7,0.6-0.9c0.2-0.2,0.5-0.4,0.9-0.5c0.3-0.1,0.7-0.2,1.2-0.2
		c0.2,0,0.4,0,0.5,0.1c0.1,0.1,0.2,0.2,0.2,0.4c0,0.1,0,0.3-0.1,0.4c-0.1,0.1-0.2,0.2-0.3,0.2h-0.9c-0.3,0-0.5,0.2-0.7,0.5
		c-0.2,0.3-0.3,0.8-0.4,1.3c-0.2,1-0.3,1.8-0.3,2.4v0.1l0,1.9c0,0.6,0,1.2,0,1.9c0,0.5,0,0.9,0.1,1.2c0.1,0.5,0.2,0.9,0.3,1.2
		c0.2,0.4,0.4,0.6,0.8,0.8c0.2,0.1,0.4,0.1,0.7,0.1c0.1,0,0.3-0.1,0.4-0.2c0.2,0,0.3,0,0.4,0.1s0.2,0.2,0.2,0.3
		c0,0.5-0.4,0.8-1.1,0.8C268.4,37.3,268.1,37.3,267.8,37.2z"/>
	<path class="st4" d="M272,37.1c-0.1-0.1-0.2-0.3-0.2-0.4v-0.5v-0.4c0-0.1,0-0.3,0-0.4c0-0.3,0-0.7-0.1-1.3l0-1.3
		c0-0.7,0-1.6,0.1-2.9c0.1-1.2,0.1-2.1,0.1-2.9c0-0.2,0-0.5-0.1-0.8c0-0.4-0.1-0.7-0.1-0.8c0-0.9,0.3-1.4,0.8-1.4
		c0.4,0,1,0.1,1.5,0.3c0.6,0.2,0.9,0.4,0.9,0.6c0,0.1-0.1,0.3-0.2,0.4s-0.2,0.2-0.4,0.3c-0.6-0.2-1.1-0.3-1.5-0.4c0,0.2,0,0.5,0,0.9
		c0,0.5,0,1,0,1.4c0,0.6-0.1,1.1-0.1,1.4l0.1,0.3l0.3,0c0.1,0,0.2,0,0.4,0c0.6,0,1,0.2,1,0.6c0,0.1-0.1,0.3-0.2,0.4
		c-0.1,0.1-0.3,0.1-0.5,0.1c-0.2,0-0.4,0-0.6,0h-0.5c0,0.3,0,0.9,0,1.5s0,1.3,0,1.8c0,0.8-0.1,1.4-0.1,1.8c0,0.7,0,1.1,0,1.1l0.7,0
		c0.2,0,0.5,0,0.8,0c0.5,0,0.8,0.2,0.8,0.5c0,0.2-0.1,0.3-0.2,0.4c-0.2,0.1-0.4,0.1-0.6,0.1h-1.7C272.3,37.3,272.2,37.2,272,37.1z"
		/>
	<path class="st4" d="M278.1,34.4c0-0.8,0.1-1.7,0.2-2.7s0.3-2.1,0.6-3.5l0.1-0.6c0.2-1.2,0.3-2.1,0.3-2.9c0-1.2-0.2-1.9-0.6-1.9
		c-0.3,0-0.4,0.3-0.4,0.9c0,0.1,0,0.5,0.1,1.1c0,0,0,0.1-0.1,0.1c-0.2,0.2-0.4,0.3-0.5,0.3c-0.4,0-0.6-0.4-0.6-1.3v-0.2
		c0-0.3,0-0.6,0.1-0.9c0.1-0.2,0.2-0.5,0.4-0.7c0.2-0.2,0.5-0.3,0.8-0.3c0.3,0,0.5,0.1,0.8,0.2c0.2,0.1,0.4,0.3,0.5,0.4
		c0.2,0.3,0.3,0.8,0.4,1.4c0,0.1,0,0.4,0,0.8c0,1.2-0.2,2.5-0.6,3.8c-0.2,0.6-0.3,1.3-0.4,2.2c-0.1,0.9-0.2,1.8-0.2,2.7
		c0,0.7,0,1.2,0,1.3c-0.2,0-0.4,0-0.4,0c0,0-0.1,0-0.1,0C278.3,34.9,278.2,34.7,278.1,34.4z M278.1,36.9c-0.1-0.1-0.2-0.3-0.2-0.5
		c0-0.2,0.1-0.4,0.2-0.5c0.2-0.2,0.3-0.2,0.5-0.2c0.2,0,0.3,0.1,0.5,0.3c0.2,0.2,0.2,0.3,0.2,0.5c0,0.5-0.3,0.8-0.8,0.8
		C278.4,37.1,278.2,37,278.1,36.9z"/>
</g>
<g id="Layer_3">
</g>
<g id="Layer_10">
</g>
<g id="Layer_4">
</g>
<g id="Layer_5">
</g>
<g id="Layer_6">
</g>
<g id="Layer_7">
	<ellipse class="st5" cx="177.2" cy="137.7" rx="44.4" ry="53.7"/>
	<g>
		<g>
			<path class="st5" d="M175.9,309.2h-9.3v-1.9c0-1.1,0.9-2,2-2h7.3V309.2z"/>
			<path class="st5" d="M182.2,309.2h9.3v-1.9c0-1.1-0.9-2-2-2h-7.3V309.2z"/>
		</g>
		<polyline class="st5" points="175.9,194.4 175.9,305.3 172.2,305.3 172.2,194.4 		"/>
		<polyline class="st5" points="185.8,194.4 185.8,305.3 182.2,305.3 182.2,194.4 		"/>
		<g>
			<path class="st4" d="M180.5,210.6c0,1.6,1.3,2.8,2.8,2.8"/>
			<path class="st4" d="M184.5,223.3c0,0.6-0.7,1.1-1.5,1.1"/>
			<path class="st4" d="M184.7,217.3c0,1.5,1.3,2.7,2.9,2.7"/>
			<path class="st4" d="M182.6,230.4c0,0.7-1,1.3-2.1,1.3"/>
			<path class="st4" d="M183.9,236.1c0,0.8,0.6,1.4,1.2,1.4"/>
			<path class="st4" d="M185.1,245.1c1-0.2,2,0.5,2.1,1.4"/>
		</g>
		<g>
			<path class="st4" d="M170.4,258.6c0,1.6,1.3,2.8,2.8,2.8"/>
			<path class="st4" d="M174.4,271.3c0,0.6-0.7,1.1-1.5,1.1"/>
			<path class="st4" d="M174.6,265.4c0,1.5,1.3,2.7,2.9,2.7"/>
			<path class="st4" d="M172.5,278.4c0,0.7-1,1.3-2.1,1.3"/>
			<path class="st4" d="M173.8,284.1c0,0.8,0.6,1.4,1.2,1.4"/>
			<path class="st4" d="M175,293.2c1-0.2,2,0.5,2.1,1.4"/>
		</g>
		<g>
			<path class="st4" d="M174.4,233.2c0,0.6-0.7,1.1-1.5,1.1"/>
			<path class="st4" d="M174.4,241.2c0,1.5,1.3,2.7,2.9,2.7"/>
			<path class="st4" d="M172.5,246.8c0,0.7-1,1.3-2.1,1.3"/>
			<path class="st4" d="M173.6,253.3c0,0.8,0.6,1.4,1.2,1.4"/>
			<path class="st4" d="M173.6,219.8c0,1.5-1.2,2.8-2.8,2.8"/>
		</g>
		<g>
			<path class="st4" d="M184.8,260.6c0,1.6,1.3,2.8,2.8,2.8"/>
			<path class="st4" d="M184.3,267.3c0,0.6-0.7,1.1-1.5,1.1"/>
			<path class="st4" d="M184.3,275.3c0,1.5,1.3,2.7,2.9,2.7"/>
			<path class="st4" d="M182.5,280.9c0,0.7-1,1.3-2.1,1.3"/>
			<path class="st4" d="M183.6,287.4c0,0.8,0.6,1.4,1.2,1.4"/>
			<path class="st4" d="M183.6,253.9c0,1.5-1.2,2.8-2.8,2.8"/>
		</g>
	</g>
	<g>
		<ellipse class="st6" cx="173.5" cy="118.3" rx="1.8" ry="3.7"/>
		<ellipse class="st6" cx="180.9" cy="118.3" rx="1.8" ry="3.7"/>
	</g>
	<ellipse class="st4" cx="177.2" cy="180.6" rx="44.4" ry="53.7"/>
	<g>
		<path class="st7" d="M238.2,179l1.1-2c-2.1-0.9-4.4-1.8-4.4-1.8c2.2-4.2,3.8-7.4,3.8-7.4l-2-0.7c-1.3,2.2-4.6,9.1-4.6,9.1
			l-17.8,3.6l-0.5,3.4l8.9-2.7l3.9,1.5l1.4-0.4l-3.3-1.7l9.3-2.8C237.1,178.9,238.2,179,238.2,179z"/>
		<polygon class="st7" points="187.6,190 190.5,189.2 189.9,190.1 191,190.1 192,188.8 206.3,185.1 206.7,181.5 197.9,184.5 
			195.3,184.1 193.9,184.5 195.8,185.2 186.6,188.1 		"/>
	</g>
	<line class="st8" x1="173.6" y1="147.5" x2="184.5" y2="144.5"/>
</g>
<g id="Layer_8">
</g>
<g id="Layer_11">
</g>
<g id="Layer_9">
</g>
</svg>
