<?xml version="1.0" encoding="utf-8"?>
<!-- Generator: Adobe Illustrator 19.1.0, SVG Export Plug-In . SVG Version: 6.00 Build 0)  -->
<svg version="1.1" xmlns="http://www.w3.org/2000/svg" xmlns:xlink="http://www.w3.org/1999/xlink" x="0px" y="0px"
	 viewBox="0 0 939.6 610.7" enable-background="new 0 0 939.6 610.7" xml:space="preserve">
<pattern  x="986.7" y="769" width="624.4" height="644.6" patternUnits="userSpaceOnUse" id="New_Pattern_6" viewBox="8.3 -644.6 624.4 644.6" overflow="visible">
	<g>
		<polygon fill="none" points="8.3,-644.6 632.8,-644.6 632.8,0 8.3,0 		"/>
		<g>
			<g>
				
					<line fill="none" stroke="#FFFFFF" stroke-width="5" stroke-linecap="round" stroke-linejoin="round" stroke-miterlimit="10" x1="524.2" y1="-55.3" x2="539.9" y2="-40.4"/>
				
					<line fill="none" stroke="#FFFFFF" stroke-width="5" stroke-linecap="round" stroke-linejoin="round" stroke-miterlimit="10" x1="539.5" y1="-55.7" x2="524.6" y2="-40"/>
			</g>
			<g>
				
					<line fill="none" stroke="#FFFFFF" stroke-width="5" stroke-linecap="round" stroke-linejoin="round" stroke-miterlimit="10" x1="626.9" y1="-289.4" x2="642.7" y2="-274.5"/>
				
					<line fill="none" stroke="#FFFFFF" stroke-width="5" stroke-linecap="round" stroke-linejoin="round" stroke-miterlimit="10" x1="642.3" y1="-289.8" x2="627.3" y2="-274.1"/>
			</g>
			<g>
				
					<line fill="none" stroke="#FFFFFF" stroke-width="5" stroke-linecap="round" stroke-linejoin="round" stroke-miterlimit="10" x1="572.9" y1="-148.8" x2="588.6" y2="-133.8"/>
				
					<line fill="none" stroke="#FFFFFF" stroke-width="5" stroke-linecap="round" stroke-linejoin="round" stroke-miterlimit="10" x1="588.2" y1="-149.1" x2="573.3" y2="-133.4"/>
			</g>
			<g>
				
					<line fill="none" stroke="#FFFFFF" stroke-width="5" stroke-linecap="round" stroke-linejoin="round" stroke-miterlimit="10" x1="524.2" y1="-250.5" x2="539.9" y2="-235.5"/>
				
					<line fill="none" stroke="#FFFFFF" stroke-width="5" stroke-linecap="round" stroke-linejoin="round" stroke-miterlimit="10" x1="539.5" y1="-250.9" x2="524.6" y2="-235.1"/>
			</g>
		</g>
		<g>
			<g>
				
					<line fill="none" stroke="#FFFFFF" stroke-width="5" stroke-linecap="round" stroke-linejoin="round" stroke-miterlimit="10" x1="378.6" y1="-22" x2="394.3" y2="-7.1"/>
				
					<line fill="none" stroke="#FFFFFF" stroke-width="5" stroke-linecap="round" stroke-linejoin="round" stroke-miterlimit="10" x1="393.9" y1="-22.4" x2="379" y2="-6.7"/>
			</g>
			<g>
				
					<line fill="none" stroke="#FFFFFF" stroke-width="5" stroke-linecap="round" stroke-linejoin="round" stroke-miterlimit="10" x1="314.7" y1="-128.2" x2="330.4" y2="-113.3"/>
				
					<line fill="none" stroke="#FFFFFF" stroke-width="5" stroke-linecap="round" stroke-linejoin="round" stroke-miterlimit="10" x1="330" y1="-128.6" x2="315.1" y2="-112.9"/>
			</g>
			<g>
				
					<line fill="none" stroke="#FFFFFF" stroke-width="5" stroke-linecap="round" stroke-linejoin="round" stroke-miterlimit="10" x1="211.9" y1="-89.3" x2="227.7" y2="-74.4"/>
				
					<line fill="none" stroke="#FFFFFF" stroke-width="5" stroke-linecap="round" stroke-linejoin="round" stroke-miterlimit="10" x1="227.3" y1="-89.7" x2="212.3" y2="-74"/>
			</g>
		</g>
		<g>
			<g>
				
					<line fill="none" stroke="#FFFFFF" stroke-width="5" stroke-linecap="round" stroke-linejoin="round" stroke-miterlimit="10" x1="101.2" y1="-47.8" x2="116.9" y2="-32.9"/>
				
					<line fill="none" stroke="#FFFFFF" stroke-width="5" stroke-linecap="round" stroke-linejoin="round" stroke-miterlimit="10" x1="116.5" y1="-48.2" x2="101.6" y2="-32.5"/>
			</g>
			<g>
				
					<line fill="none" stroke="#FFFFFF" stroke-width="5" stroke-linecap="round" stroke-linejoin="round" stroke-miterlimit="10" x1="66.3" y1="-183.2" x2="82.1" y2="-168.3"/>
				
					<line fill="none" stroke="#FFFFFF" stroke-width="5" stroke-linecap="round" stroke-linejoin="round" stroke-miterlimit="10" x1="81.7" y1="-183.6" x2="66.7" y2="-167.9"/>
			</g>
			<g>
				
					<line fill="none" stroke="#FFFFFF" stroke-width="5" stroke-linecap="round" stroke-linejoin="round" stroke-miterlimit="10" x1="2.5" y1="-289.4" x2="18.2" y2="-274.5"/>
				
					<line fill="none" stroke="#FFFFFF" stroke-width="5" stroke-linecap="round" stroke-linejoin="round" stroke-miterlimit="10" x1="17.8" y1="-289.8" x2="2.9" y2="-274.1"/>
			</g>
		</g>
		<g>
			<g>
				
					<line fill="none" stroke="#FFFFFF" stroke-width="5" stroke-linecap="round" stroke-linejoin="round" stroke-miterlimit="10" x1="524.2" y1="-377.6" x2="539.9" y2="-362.7"/>
				
					<line fill="none" stroke="#FFFFFF" stroke-width="5" stroke-linecap="round" stroke-linejoin="round" stroke-miterlimit="10" x1="539.5" y1="-378" x2="524.6" y2="-362.3"/>
			</g>
			<g>
				
					<line fill="none" stroke="#FFFFFF" stroke-width="5" stroke-linecap="round" stroke-linejoin="round" stroke-miterlimit="10" x1="626.9" y1="-611.7" x2="642.7" y2="-596.7"/>
				
					<line fill="none" stroke="#FFFFFF" stroke-width="5" stroke-linecap="round" stroke-linejoin="round" stroke-miterlimit="10" x1="642.3" y1="-612.1" x2="627.3" y2="-596.4"/>
			</g>
			<g>
				
					<line fill="none" stroke="#FFFFFF" stroke-width="5" stroke-linecap="round" stroke-linejoin="round" stroke-miterlimit="10" x1="572.9" y1="-471" x2="588.6" y2="-456.1"/>
				
					<line fill="none" stroke="#FFFFFF" stroke-width="5" stroke-linecap="round" stroke-linejoin="round" stroke-miterlimit="10" x1="588.2" y1="-471.4" x2="573.3" y2="-455.7"/>
			</g>
			<g>
				
					<line fill="none" stroke="#FFFFFF" stroke-width="5" stroke-linecap="round" stroke-linejoin="round" stroke-miterlimit="10" x1="524.2" y1="-572.8" x2="539.9" y2="-557.8"/>
				
					<line fill="none" stroke="#FFFFFF" stroke-width="5" stroke-linecap="round" stroke-linejoin="round" stroke-miterlimit="10" x1="539.5" y1="-573.2" x2="524.6" y2="-557.4"/>
			</g>
		</g>
		<g>
			<g>
				
					<line fill="none" stroke="#FFFFFF" stroke-width="5" stroke-linecap="round" stroke-linejoin="round" stroke-miterlimit="10" x1="413.4" y1="-209" x2="429.2" y2="-194"/>
				
					<line fill="none" stroke="#FFFFFF" stroke-width="5" stroke-linecap="round" stroke-linejoin="round" stroke-miterlimit="10" x1="428.8" y1="-209.4" x2="413.8" y2="-193.6"/>
			</g>
			<g>
				
					<line fill="none" stroke="#FFFFFF" stroke-width="5" stroke-linecap="round" stroke-linejoin="round" stroke-miterlimit="10" x1="211.9" y1="-216.4" x2="227.7" y2="-201.5"/>
				
					<line fill="none" stroke="#FFFFFF" stroke-width="5" stroke-linecap="round" stroke-linejoin="round" stroke-miterlimit="10" x1="227.3" y1="-216.8" x2="212.3" y2="-201.1"/>
			</g>
			<g>
				
					<line fill="none" stroke="#FFFFFF" stroke-width="5" stroke-linecap="round" stroke-linejoin="round" stroke-miterlimit="10" x1="378.6" y1="-344.3" x2="394.3" y2="-329.4"/>
				
					<line fill="none" stroke="#FFFFFF" stroke-width="5" stroke-linecap="round" stroke-linejoin="round" stroke-miterlimit="10" x1="393.9" y1="-344.7" x2="379" y2="-329"/>
			</g>
			<g>
				
					<line fill="none" stroke="#FFFFFF" stroke-width="5" stroke-linecap="round" stroke-linejoin="round" stroke-miterlimit="10" x1="314.7" y1="-450.5" x2="330.4" y2="-435.6"/>
				
					<line fill="none" stroke="#FFFFFF" stroke-width="5" stroke-linecap="round" stroke-linejoin="round" stroke-miterlimit="10" x1="330" y1="-450.9" x2="315.1" y2="-435.2"/>
			</g>
			<g>
				
					<line fill="none" stroke="#FFFFFF" stroke-width="5" stroke-linecap="round" stroke-linejoin="round" stroke-miterlimit="10" x1="260.7" y1="-309.9" x2="276.4" y2="-295"/>
				
					<line fill="none" stroke="#FFFFFF" stroke-width="5" stroke-linecap="round" stroke-linejoin="round" stroke-miterlimit="10" x1="276" y1="-310.3" x2="261.1" y2="-294.6"/>
			</g>
			<g>
				
					<line fill="none" stroke="#FFFFFF" stroke-width="5" stroke-linecap="round" stroke-linejoin="round" stroke-miterlimit="10" x1="211.9" y1="-411.6" x2="227.7" y2="-396.7"/>
				
					<line fill="none" stroke="#FFFFFF" stroke-width="5" stroke-linecap="round" stroke-linejoin="round" stroke-miterlimit="10" x1="227.3" y1="-412" x2="212.3" y2="-396.3"/>
			</g>
		</g>
		<g>
			<g>
				
					<line fill="none" stroke="#FFFFFF" stroke-width="5" stroke-linecap="round" stroke-linejoin="round" stroke-miterlimit="10" x1="101.2" y1="-370.1" x2="116.9" y2="-355.2"/>
				
					<line fill="none" stroke="#FFFFFF" stroke-width="5" stroke-linecap="round" stroke-linejoin="round" stroke-miterlimit="10" x1="116.5" y1="-370.5" x2="101.6" y2="-354.8"/>
			</g>
			<g>
				
					<line fill="none" stroke="#FFFFFF" stroke-width="5" stroke-linecap="round" stroke-linejoin="round" stroke-miterlimit="10" x1="66.3" y1="-505.5" x2="82.1" y2="-490.6"/>
				
					<line fill="none" stroke="#FFFFFF" stroke-width="5" stroke-linecap="round" stroke-linejoin="round" stroke-miterlimit="10" x1="81.7" y1="-505.9" x2="66.7" y2="-490.2"/>
			</g>
			<g>
				
					<line fill="none" stroke="#FFFFFF" stroke-width="5" stroke-linecap="round" stroke-linejoin="round" stroke-miterlimit="10" x1="2.5" y1="-611.7" x2="18.2" y2="-596.7"/>
				
					<line fill="none" stroke="#FFFFFF" stroke-width="5" stroke-linecap="round" stroke-linejoin="round" stroke-miterlimit="10" x1="17.8" y1="-612.1" x2="2.9" y2="-596.4"/>
			</g>
		</g>
		<g>
			<g>
				
					<line fill="none" stroke="#FFFFFF" stroke-width="5" stroke-linecap="round" stroke-linejoin="round" stroke-miterlimit="10" x1="413.4" y1="-531.3" x2="429.2" y2="-516.3"/>
				
					<line fill="none" stroke="#FFFFFF" stroke-width="5" stroke-linecap="round" stroke-linejoin="round" stroke-miterlimit="10" x1="428.8" y1="-531.7" x2="413.8" y2="-515.9"/>
			</g>
			<g>
				
					<line fill="none" stroke="#FFFFFF" stroke-width="5" stroke-linecap="round" stroke-linejoin="round" stroke-miterlimit="10" x1="211.9" y1="-538.7" x2="227.7" y2="-523.8"/>
				
					<line fill="none" stroke="#FFFFFF" stroke-width="5" stroke-linecap="round" stroke-linejoin="round" stroke-miterlimit="10" x1="227.3" y1="-539.1" x2="212.3" y2="-523.4"/>
			</g>
			<g>
				
					<line fill="none" stroke="#FFFFFF" stroke-width="5" stroke-linecap="round" stroke-linejoin="round" stroke-miterlimit="10" x1="260.7" y1="-632.2" x2="276.4" y2="-617.3"/>
				
					<line fill="none" stroke="#FFFFFF" stroke-width="5" stroke-linecap="round" stroke-linejoin="round" stroke-miterlimit="10" x1="276" y1="-632.6" x2="261.1" y2="-616.9"/>
			</g>
		</g>
	</g>
</pattern>
<g id="bg">
	<radialGradient id="SVGID_1_" cx="180.8971" cy="309.383" r="99.4506" gradientUnits="userSpaceOnUse">
		<stop  offset="0" style="stop-color:#603813"/>
		<stop  offset="1" style="stop-color:#FFFFFF"/>
	</radialGradient>
	<ellipse opacity="0.1" fill="url(#SVGID_1_)" cx="180.9" cy="309.4" rx="93.3" ry="4.4"/>
</g>
<g id="Layer_2">
</g>
<g id="Layer_3">
</g>
<g id="Layer_10">
</g>
<g id="Layer_4">
</g>
<g id="Layer_5">
</g>
<g id="Layer_6">
</g>
<g id="Layer_7">
</g>
<g id="Layer_8">
</g>
<g id="Layer_11">
</g>
<g id="Layer_9">
	<rect x="-1.4" y="-0.9" fill="#FF6300" width="941" height="611.6"/>
	<pattern  id="SVGID_2_" xlink:href="#New_Pattern_6" patternTransform="matrix(1.0548 0 0 1.055 110.5339 85.516)">
	</pattern>
	<rect x="-1.4" y="-0.9" opacity="0.2" fill="url(#SVGID_2_)" width="941" height="611.6"/>
	<g>
		<path fill="#FFFEE6" d="M279,256l-0.1,0.2c-0.2,0.9-0.3,2.2-0.3,4c0,1.8-0.3,3.7-0.7,5.8c-0.4,2.1-1,7-1.6,14.9
			c-0.6,7.8-0.9,13.2-0.9,16.1c0,0.2-0.2,0.4-0.5,0.8c-0.3,0.3-0.6,0.5-1,0.5s-0.7-0.2-1-0.5c-0.3-0.4-0.5-0.9-0.6-1.5
			s-0.2-1.2-0.3-1.7c-0.1-0.9-0.1-1.9-0.1-3c0-1.2-0.1-2.4-0.3-3.6c-0.2-1.2-0.4-2.6-0.7-4.1c-0.3-1.5-0.5-2.8-0.6-3.8
			c-0.1-1-0.6-5.1-1.5-12.2c-2.2-18.8-3.6-28.7-4.2-29.6c0.4-0.7,0.9-1.1,1.5-1.1c0.6,0,1.2,0.5,1.5,1.5s0.7,2.3,0.9,3.8
			c0.2,1.6,0.3,3.1,0.4,4.6c0.1,1.5,0.2,2.9,0.3,4.4c0.1,1.5,0.2,3.3,0.4,5.3c0.2,2.1,0.8,6.6,1.8,13.7c1,7.1,1.7,12,2.1,14.8h0.2
			c0-2.5,0.2-5.4,0.6-8.7c0.4-3.3,0.6-5.3,0.7-6.2c0.1-0.8,0.2-1.9,0.5-3.1c0.2-1.2,0.4-2.2,0.4-2.9c0.1-0.7,0.2-2.7,0.3-5.9
			c0.2-3.3,0.3-5.4,0.4-6.4c0.1-1,0.2-2.1,0.4-3.3c0.2-1.2,0.3-2.1,0.3-2.8l-0.1-1.4c0-0.7,0.4-1.2,1.1-1.6c1.6,0,2.4,0.5,2.4,1.4
			l-0.4,1.1c0,5.9,1.1,13,3.3,21.3c2.2,8.2,3.3,15.2,3.3,20.8l0.2,0.2c0.2-0.6,0.3-2.2,0.4-4.8c0.1-2.6,0.6-6.6,1.2-12
			c0.7-5.4,1.1-9.2,1.2-11.4c0.1-2.2,0.5-5.7,1-10.3c0.6-4.7,0.8-8.3,0.8-10.8l-0.1-1.5c0-1.3,0.7-1.9,2.1-1.9c0.3,0,0.7,0.1,1,0.4
			c0.3,0.2,0.5,0.6,0.5,1c0,0.4-0.3,0.9-0.9,1.4c0.1,0.1,0.1,0.3,0.1,0.5c0,0.3-0.1,0.9-0.3,1.8c-0.4,3.1-0.9,9-1.6,17.6
			c-0.7,8.7-1.6,16.1-2.6,22.3s-1.6,11.2-1.6,15.1v1.2c0,0.6-0.1,1.1-0.3,1.4c-0.2,0.3-0.6,0.5-1.2,0.5c-1.2,0-2.2-4.1-2.9-12.3
			c-0.2-2.5-1-7.2-2.5-14.2c-1.4-7-2.4-12.2-2.8-15.5L279,256z M287.4,287.9c-0.1,0-0.2,0-0.2,0.1L287.4,287.9z"/>
		<path fill="#FFFEE6" d="M313.9,244.1c0,0,0.1-0.1,0.4-0.4c0.3-0.2,0.5-0.4,0.7-0.4c0.2,0,0.7,0.2,1.7,0.5c0,4.2,0.2,10.4,0.5,18.7
			c0.3,8.3,0.5,15,0.5,20c0,5.1,0.2,9.9,0.5,14.5c0,0-1.4,0.1-3,0.1c-0.3-11.8-0.4-19-0.4-21.4l0.1-1c0-0.8-0.1-1.8-0.3-3l-1.2-0.3
			c-0.5,0.2-1,0.2-1.6,0.2l-5.1-0.8l-0.8,0.3l-0.2,10.1l0.2,0.4l0.5,13.4c0,1.4-0.4,2.1-1.3,2.1c-1.2,0-1.8-1.6-1.8-4.8l0.2-14.6
			c0-4.8-0.1-7.4-0.2-7.8c0.3-0.5,0.4-2.3,0.4-5.3l-0.6-18.7c0-0.4,0.1-0.7,0.4-1c0.3-0.3,0.6-0.5,1-0.5c1.1,0,1.6,1.5,1.6,4.6
			l-0.3,19.5c0,0.6,2.1,0.9,6.4,0.9c1,0,1.8-0.2,2.2-0.6c0.5-0.4,0.7-1.4,0.7-3.1s-0.2-5-0.5-9.9c-0.4-4.9-0.5-8.6-0.5-11
			C313.9,244.3,313.9,244.1,313.9,244.1z"/>
		<path fill="#FFFEE6" d="M336.9,285.2l-2.1,0.1c-0.8-0.3-1.6-0.5-2.5-0.5c-0.9,0-1.4,0-1.5,0.1c-0.1,0.1-0.1,0.1-0.2,0.3
			c0,0.1-0.1,0.2-0.1,0.3l-0.2,1.6c-0.1,1.4-0.4,3-0.7,4.9c-0.7,3.7-1.5,5.6-2.3,5.6c-0.3,0-0.7-0.1-1.1-0.4
			c-0.4-0.3-0.5-0.6-0.5-0.9c0.7-2,1.4-5,2.1-9.1c0.7-4.1,1.2-6.6,1.4-7.6c0.2-1,0.5-3,1-6.1c0.5-3,0.8-5.1,1-6c0.2-1,0.6-3,1.3-6.2
			c0.7-3.2,1.1-5.3,1.2-6.3c0.1-1,0.3-2.3,0.5-4c0.4-4.2,0.8-6.5,1.1-7l1.1,0.1c0.7,0,1.1-0.2,1.4-0.5c0.3,0,0.7,0.1,1,0.3
			c0.3,0.2,0.5,0.5,0.5,0.9c0,2.6,0.3,7.5,1,14.8c0.7,7.3,1.2,12.1,1.5,14.2c0.4,2.1,0.8,4.3,1.3,6.3c0.5,2.1,0.7,3.7,0.7,4.7
			l-0.4,1.1c0,1.2,0.2,3,0.7,5.3c0.4,2.3,0.7,4,0.7,4.9c0,1-0.2,1.5-0.6,1.8c-1.1,0-1.8-0.2-2-0.5c-0.2-0.3-0.4-0.8-0.4-1.5
			c0-0.7,0-1.5-0.1-2.5c-0.1-1-0.2-1.8-0.3-2.4c-0.1-0.6-0.2-1.5-0.5-2.8c-0.2-1.3-0.4-2.1-0.4-2.5
			C339.5,285.3,338.3,285.2,336.9,285.2z M331.3,281.2c0,0.5,0.6,1,1.9,1.4c2,0.5,4.1,0.8,6.5,0.8h0.8c-0.3-1-0.5-2.2-0.5-3.6V278
			c0-3.3-0.4-8.1-1.2-14.5s-1.3-11-1.3-14.1c-2.8,13.8-4.5,22.3-5.2,25.5S331.3,280.3,331.3,281.2z"/>
		<path fill="#FFFEE6" d="M365,246.9l-4.3-0.5l-0.4,0.5l0.2,0.3c-0.1,0.2-0.2,1.7-0.2,4.6c0,2.8,0.4,9.5,1.3,19.9
			c0.9,10.4,1.3,18.2,1.3,23.5c0,0.4-0.2,0.7-0.5,1.1s-0.7,0.5-1.1,0.5l-0.9-0.7l-0.2-5.8l0.2-2.8c0-0.7-0.1-1.4-0.3-1.9
			c0-4.5-0.3-11.1-1-19.8c-0.6-8.7-1-15.1-1-19.2c-4.2,0-6.4-0.5-6.7-1.5c0.2-0.6,0.7-0.9,1.5-0.9l10.9,0.7l1.4-0.1
			c1,0,1.4,0.3,1.4,1c0,0.4-0.2,0.7-0.6,0.9C365.8,246.8,365.4,246.9,365,246.9z"/>
		<path fill="#FFFEE6" d="M409.9,248.4l-0.2-2c0-1.1,0.4-1.7,1.1-1.7c0.5,0,0.9,0.2,1.3,0.7c0.3,0.5,0.5,1,0.5,1.6v5.4l-0.4,0.7
			c0,4.2-0.3,12.2-0.9,24.2c-0.6,12-1.1,18.5-1.7,19.6c-0.1,0-0.5,0.1-1.2,0.3c-0.6,0.2-1.1,0.3-1.3,0.3c-0.3,0-0.5-0.2-0.7-0.5
			c-0.2-0.4-0.4-0.8-0.5-1.4c-0.1-0.6-0.2-1-0.3-1.1l0.1-0.2c-0.3-2.2-1-4.7-2.1-7.6s-1.7-4.8-2.1-5.8c-0.2-0.2-0.9-2.2-2.1-6
			c-4.8-14.9-7.8-22.9-9.1-24.1c-0.4,1.6-0.6,3.5-0.6,5.6l0.2,6.3l-0.2,3.9c0,0.6,0.1,2.5,0.3,5.6h-0.2c0,8.9,0.2,13.8,0.5,14.7v7.2
			c0.2,0.4,0.3,0.8,0.3,1.4c0,1.2-0.5,1.9-1.5,1.9c-1.1,0-1.7-1.4-1.7-4.3l0.3-5.2l-0.5-23l0.5-14.2v-1.4c0-0.7,0-1.2,0.1-1.4
			s0.1-0.5,0.1-0.8c0-0.3,0.1-0.6,0.2-0.8c0.1-0.2,0.2-0.4,0.3-0.6c0.2-0.5,0.5-0.8,0.8-1.1l0.2,0.3l0.8-0.2c0.6,0.2,1,0.6,1.1,1.2
			c0,0.1,0,0.2,0.1,0.4c0.1,0.2,0.1,0.4,0.1,0.4c0.9,3.8,2.8,9.1,5.7,15.9c2.9,6.8,4.7,11.2,5.3,13.1c0.6,1.9,1.2,4,1.7,6.2
			c1.1,4.8,2.3,8.3,3.6,10.5l0.2-0.2C409.3,280.3,409.9,265.8,409.9,248.4z M408.2,297.2C408.2,297.2,408.3,297.2,408.2,297.2
			L408.2,297.2z"/>
		<path fill="#FFFEE6" d="M438.7,266.2l0.2,9.5c0,12-1.9,19.3-5.8,21.9c-0.9,0.7-2,1-3.2,1c-6.2,0-9.4-9.8-9.4-29.5
			c0-7.6,0.5-14.2,1.6-19.7c0.8-4.1,2-6.1,3.6-6.1c0.4,0,0.7,0.1,1,0.4c0.3,0.3,0.8,0.5,1.3,0.7c0.6,0.2,1.3,0.4,2.3,0.6
			c1,0.2,1.7,0.3,2.1,0.4c1.1,0.2,2.1,1.2,3.1,3.1c2.2,3.8,3.4,9.6,3.4,17.3L438.7,266.2z M423.1,269.1l0.2,6.3
			c0,5.1,0.6,9.9,1.7,14.5c0.4,1.7,1,3.2,1.9,4.5c0.8,1.3,1.8,1.9,2.8,1.9s2-0.4,2.8-1.2c0.8-0.8,1.4-1.9,1.9-3.3
			c0.5-1.4,0.9-2.8,1.2-4.3s0.5-3.1,0.7-4.9c0.2-2.9,0.3-5.4,0.3-7.7l-0.9-18.9l-0.3-0.6l0.2-0.4c0-2.3-0.7-4.3-2-6.1
			c-1.3-1.7-2.9-2.6-4.8-2.6h-3.4c-0.4,0-0.8,2.4-1.2,7.1c-0.3,4.8-0.6,7.4-0.7,7.9L423.1,269.1z"/>
		<path fill="#FFFEE6" d="M459.5,246.9l-4.3-0.5l-0.4,0.5l0.2,0.3c-0.1,0.2-0.2,1.7-0.2,4.6c0,2.8,0.4,9.5,1.3,19.9
			c0.9,10.4,1.3,18.2,1.3,23.5c0,0.4-0.2,0.7-0.5,1.1s-0.7,0.5-1.1,0.5L455,296l-0.2-5.8l0.2-2.8c0-0.7-0.1-1.4-0.3-1.9
			c0-4.5-0.3-11.1-1-19.8c-0.6-8.7-1-15.1-1-19.2c-4.2,0-6.4-0.5-6.7-1.5c0.2-0.6,0.7-0.9,1.5-0.9l10.9,0.7l1.4-0.1
			c1,0,1.4,0.3,1.4,1c0,0.4-0.2,0.7-0.6,0.9C460.3,246.8,459.9,246.9,459.5,246.9z"/>
		<path fill="#FFFEE6" d="M495.1,246.9l-4.3-0.5l-0.4,0.5l0.2,0.3c-0.1,0.2-0.2,1.7-0.2,4.6c0,2.8,0.4,9.5,1.3,19.9
			c0.9,10.4,1.3,18.2,1.3,23.5c0,0.4-0.2,0.7-0.5,1.1s-0.7,0.5-1.1,0.5l-0.9-0.7l-0.2-5.8l0.2-2.8c0-0.7-0.1-1.4-0.3-1.9
			c0-4.5-0.3-11.1-1-19.8c-0.6-8.7-1-15.1-1-19.2c-4.2,0-6.4-0.5-6.7-1.5c0.2-0.6,0.7-0.9,1.5-0.9l10.9,0.7l1.4-0.1
			c1,0,1.4,0.3,1.4,1c0,0.4-0.2,0.7-0.6,0.9C495.9,246.8,495.5,246.9,495.1,246.9z"/>
		<path fill="#FFFEE6" d="M521.9,266.2l0.2,9.5c0,12-1.9,19.3-5.8,21.9c-0.9,0.7-2,1-3.2,1c-6.3,0-9.4-9.8-9.4-29.5
			c0-7.6,0.5-14.2,1.6-19.7c0.8-4.1,2-6.1,3.6-6.1c0.4,0,0.7,0.1,1,0.4c0.3,0.3,0.8,0.5,1.3,0.7c0.6,0.2,1.3,0.4,2.3,0.6
			c1,0.2,1.7,0.3,2.1,0.4c1.1,0.2,2.1,1.2,3.1,3.1c2.2,3.8,3.4,9.6,3.4,17.3L521.9,266.2z M506.2,269.1l0.2,6.3
			c0,5.1,0.6,9.9,1.7,14.5c0.4,1.7,1,3.2,1.9,4.5c0.8,1.3,1.8,1.9,2.8,1.9c1.1,0,2-0.4,2.8-1.2c0.8-0.8,1.4-1.9,1.9-3.3
			c0.5-1.4,0.9-2.8,1.2-4.3s0.5-3.1,0.7-4.9c0.2-2.9,0.3-5.4,0.3-7.7l-0.9-18.9l-0.3-0.6l0.2-0.4c0-2.3-0.7-4.3-2-6.1
			c-1.3-1.7-2.9-2.6-4.8-2.6h-3.4c-0.4,0-0.8,2.4-1.2,7.1c-0.3,4.8-0.6,7.4-0.7,7.9L506.2,269.1z"/>
		<path fill="#FFFEE6" d="M555.5,246.1l-1.7-0.5c-0.8,0-1.6,0.3-2.2,1s-1.1,1.5-1.4,2.5c-0.7,1.9-1,3.4-1,4.5s0,1.9,0.1,2.3
			c0.1,0.5,0.1,1,0.3,1.6c0.1,0.6,0.2,1.1,0.3,1.3c0.1,0.3,0.2,0.8,0.4,1.6c0.2,0.8,0.4,1.3,0.4,1.4l0.6,1.4c0.5,0.9,1.2,2.1,2,3.5
			c0.8,1.4,1.5,2.5,1.9,3.2c0.4,0.7,0.9,1.7,1.4,2.9c0.5,1.2,0.9,2.3,1.2,3.2c0.7,2.5,1,4.7,1,6.7c0,2-0.1,3.5-0.2,4.7
			c-0.2,1.2-0.4,2.4-0.9,3.7s-1,2.3-1.6,3.3c-1.4,2.2-3.4,3.3-6,3.3l-0.4,0.2c-1.6-0.3-2.4-0.9-2.6-2l0.4-0.6l2.9,0.5
			c1.2,0,2.3-0.5,3.2-1.4c0.9-1,1.5-2.2,2-3.6c0.8-2.7,1.2-5.2,1.2-7.5s-0.3-4.5-1-6.5c-0.7-2-1.5-3.9-2.4-5.6
			c-0.9-1.7-1.9-3.4-2.8-5.1c-2.3-4.1-3.4-8.1-3.4-12.1c0-2,0.4-4,1.1-5.8c1.3-3.4,3.1-5.1,5.2-5.1c0.6,0,1.3,0.2,2,0.7
			c0.7,0.5,1.1,1,1.1,1.5C556.5,245.9,556.2,246.1,555.5,246.1z M556,245.8L556,245.8L556,245.8C556.1,245.8,556.1,245.8,556,245.8z
			"/>
		<path fill="#FFFEE6" d="M577.1,285.2l-2.1,0.1c-0.8-0.3-1.6-0.5-2.5-0.5c-0.9,0-1.4,0-1.5,0.1c-0.1,0.1-0.1,0.1-0.2,0.3
			c0,0.1-0.1,0.2-0.1,0.3l-0.2,1.6c-0.1,1.4-0.4,3-0.7,4.9c-0.7,3.7-1.5,5.6-2.3,5.6c-0.3,0-0.7-0.1-1.1-0.4
			c-0.4-0.3-0.5-0.6-0.5-0.9c0.7-2,1.4-5,2.1-9.1c0.7-4.1,1.2-6.6,1.4-7.6c0.2-1,0.5-3,1-6.1c0.5-3,0.8-5.1,1-6c0.2-1,0.6-3,1.3-6.2
			c0.7-3.2,1.1-5.3,1.2-6.3c0.1-1,0.3-2.3,0.5-4c0.4-4.2,0.8-6.5,1.1-7l1.1,0.1c0.7,0,1.1-0.2,1.4-0.5c0.3,0,0.7,0.1,1,0.3
			c0.3,0.2,0.5,0.5,0.5,0.9c0,2.6,0.3,7.5,1,14.8c0.7,7.3,1.2,12.1,1.5,14.2c0.4,2.1,0.8,4.3,1.3,6.3c0.5,2.1,0.7,3.7,0.7,4.7
			l-0.4,1.1c0,1.2,0.2,3,0.7,5.3c0.4,2.3,0.7,4,0.7,4.9c0,1-0.2,1.5-0.6,1.8c-1.1,0-1.8-0.2-2-0.5c-0.2-0.3-0.4-0.8-0.4-1.5
			c0-0.7,0-1.5-0.1-2.5c-0.1-1-0.2-1.8-0.3-2.4c-0.1-0.6-0.2-1.5-0.5-2.8c-0.2-1.3-0.4-2.1-0.4-2.5
			C579.7,285.3,578.5,285.2,577.1,285.2z M571.4,281.2c0,0.5,0.6,1,1.9,1.4c2,0.5,4.1,0.8,6.5,0.8h0.8c-0.3-1-0.5-2.2-0.5-3.6V278
			c0-3.3-0.4-8.1-1.2-14.5s-1.3-11-1.3-14.1c-2.8,13.8-4.5,22.3-5.2,25.5S571.4,280.3,571.4,281.2z"/>
		<path fill="#FFFEE6" d="M602.5,279.8l0.1,12.7c0,3.9-0.6,5.8-1.7,5.8c-0.2,0-0.4-0.1-0.7-0.3c-0.3-0.2-0.4-0.4-0.5-0.6
			c0.5-1.3,0.8-6,0.8-14c0-1.6-0.1-3.8-0.3-6.7s-0.3-4.8-0.3-5.7l-0.5-1l0.2-1c-0.7-1.6-1.9-4.9-3.8-10.1c-2.7-7.4-4-11.7-4.1-12.9
			l1.1-0.9c0.5,0.1,1.3,1.8,2.3,5.1c1,3.3,2.1,6.6,3.1,10c1,3.3,1.7,5.1,2.1,5.2l0.3-1.4l-0.2-0.4c0.4-0.5,0.9-2.4,1.5-5.7
			c0.6-3.3,1.3-6.5,2.1-9.5c0.7-3,1.4-4.5,2.1-4.5c0.7,0,1,0.3,1,0.9c0,0.6-0.3,1.9-0.9,3.9c-0.6,2-1.1,3.9-1.6,5.5
			c-0.5,1.7-0.9,3-1.1,3.9c-0.2,0.9-0.5,2.1-0.8,3.4c-0.6,2.6-0.9,5-0.9,7.3c0.3,0.7,0.4,1.1,0.4,1.4l-0.5,2.3L602.5,279.8z"/>
		<path fill="#FFFEE6" d="M640.6,296.5l-2.7-0.3c-0.4,0-0.9,0.2-1.5,0.4c-0.6,0.3-1.3,0.4-2.1,0.4c-0.8,0-1.3-0.3-1.5-0.8l-1.3,0.1
			c-1.1,0-1.9-0.3-2.2-0.8c0-0.3,0.1-0.6,0.4-0.8c0.3-0.2,0.5-0.4,0.6-0.5h2.3l0.3-0.3l0.3-1.7l-0.6-17.5l0.4-18.7
			c0-3.6-0.1-6.7-0.4-9.3c-0.5-0.2-1.3-0.2-2.4-0.2l-1.9,0.2c-1,0-1.5-0.5-1.5-1.4c0-0.2,0.2-0.5,0.7-0.7c0.5-0.2,0.9-0.3,1.2-0.3
			c7.4,0,11.1,0.8,11.1,2.4c0,0.2-0.1,0.4-0.2,0.6l-1.8,0.2c-0.4-0.3-1.2-0.5-2.3-0.5l-0.4,0.2c0.2,0.5,0.2,1.9,0.2,4.3l-0.2,19
			l0.5,17.5l-0.1,2.5c0,1.2,0.1,2,0.2,2.2l-0.1,0.2c0,0.5,0.6,0.8,1.8,0.8l2.3-0.1c1.6,0,2.4,0.4,2.4,1.1c0,0.5-0.2,0.9-0.5,1.2
			C641.5,296.3,641.1,296.5,640.6,296.5z"/>
		<path fill="#FFFEE6" d="M672.2,248.4l-0.2-2c0-1.1,0.4-1.7,1.1-1.7c0.5,0,0.9,0.2,1.3,0.7c0.3,0.5,0.5,1,0.5,1.6v5.4l-0.4,0.7
			c0,4.2-0.3,12.2-0.9,24.2c-0.6,12-1.1,18.5-1.7,19.6c-0.1,0-0.5,0.1-1.2,0.3c-0.6,0.2-1.1,0.3-1.3,0.3c-0.3,0-0.5-0.2-0.7-0.5
			c-0.2-0.4-0.4-0.8-0.5-1.4c-0.1-0.6-0.2-1-0.3-1.1l0.1-0.2c-0.3-2.2-1-4.7-2.1-7.6s-1.7-4.8-2.1-5.8c-0.2-0.2-0.9-2.2-2.1-6
			c-4.8-14.9-7.8-22.9-9.1-24.1c-0.4,1.6-0.6,3.5-0.6,5.6l0.2,6.3l-0.2,3.9c0,0.6,0.1,2.5,0.3,5.6h-0.2c0,8.9,0.2,13.8,0.5,14.7v7.2
			c0.2,0.4,0.3,0.8,0.3,1.4c0,1.2-0.5,1.9-1.5,1.9c-1.1,0-1.7-1.4-1.7-4.3l0.3-5.2l-0.5-23l0.5-14.2v-1.4c0-0.7,0-1.2,0.1-1.4
			s0.1-0.5,0.1-0.8c0-0.3,0.1-0.6,0.2-0.8c0.1-0.2,0.2-0.4,0.3-0.6c0.2-0.5,0.5-0.8,0.8-1.1l0.2,0.3l0.8-0.2c0.6,0.2,1,0.6,1.1,1.2
			c0,0.1,0,0.2,0.1,0.4c0.1,0.2,0.1,0.4,0.1,0.4c0.9,3.8,2.8,9.1,5.7,15.9c2.9,6.8,4.7,11.2,5.3,13.1c0.6,1.9,1.2,4,1.7,6.2
			c1.1,4.8,2.3,8.3,3.6,10.5l0.2-0.2C671.5,280.3,672.2,265.8,672.2,248.4z M670.5,297.2C670.5,297.2,670.6,297.2,670.5,297.2
			L670.5,297.2z"/>
		<path fill="#FFFEE6" d="M332.5,361.2l-2.1,0.1c-0.8-0.3-1.6-0.5-2.5-0.5c-0.9,0-1.4,0-1.5,0.1c-0.1,0.1-0.1,0.1-0.2,0.3
			c0,0.1-0.1,0.2-0.1,0.3L326,363c-0.1,1.4-0.4,3-0.7,4.9c-0.7,3.7-1.5,5.6-2.3,5.6c-0.3,0-0.7-0.1-1.1-0.4
			c-0.4-0.3-0.5-0.6-0.5-0.9c0.7-2,1.4-5,2.1-9.1c0.7-4.1,1.2-6.6,1.4-7.6c0.2-1,0.5-3,1-6.1c0.5-3,0.8-5.1,1-6c0.2-1,0.6-3,1.3-6.2
			c0.7-3.2,1.1-5.3,1.2-6.3c0.1-1,0.3-2.3,0.5-4c0.4-4.2,0.8-6.5,1.1-7l1.1,0.1c0.7,0,1.1-0.2,1.4-0.5c0.3,0,0.7,0.1,1,0.3
			c0.3,0.2,0.5,0.5,0.5,0.9c0,2.6,0.3,7.5,1,14.8c0.7,7.3,1.2,12.1,1.5,14.2c0.4,2.1,0.8,4.3,1.3,6.3c0.5,2.1,0.7,3.7,0.7,4.7
			l-0.4,1.1c0,1.2,0.2,3,0.7,5.3c0.4,2.3,0.7,4,0.7,4.9c0,1-0.2,1.5-0.6,1.8c-1.1,0-1.8-0.2-2-0.5c-0.2-0.3-0.4-0.8-0.4-1.5
			c0-0.7,0-1.5-0.1-2.5c-0.1-1-0.2-1.8-0.3-2.4c-0.1-0.6-0.2-1.5-0.5-2.8c-0.2-1.3-0.4-2.1-0.4-2.5
			C335,361.3,333.8,361.2,332.5,361.2z M326.8,357.2c0,0.5,0.6,1,1.9,1.4c2,0.5,4.1,0.8,6.5,0.8h0.8c-0.3-1-0.5-2.2-0.5-3.6V354
			c0-3.3-0.4-8.1-1.2-14.5s-1.3-11-1.3-14.1c-2.8,13.8-4.5,22.3-5.2,25.5S326.8,356.3,326.8,357.2z"/>
		<path fill="#FFFEE6" d="M370.8,324.4l-0.2-2c0-1.1,0.4-1.7,1.1-1.7c0.5,0,0.9,0.2,1.3,0.7c0.3,0.5,0.5,1,0.5,1.6v5.4l-0.4,0.7
			c0,4.2-0.3,12.2-0.9,24.2c-0.6,12-1.1,18.5-1.7,19.6c-0.1,0-0.5,0.1-1.2,0.3c-0.6,0.2-1.1,0.3-1.3,0.3c-0.3,0-0.5-0.2-0.7-0.5
			c-0.2-0.4-0.4-0.8-0.5-1.4c-0.1-0.6-0.2-1-0.3-1.1l0.1-0.2c-0.3-2.2-1-4.7-2.1-7.6s-1.7-4.8-2.1-5.8c-0.2-0.2-0.9-2.2-2.1-6
			c-4.8-14.9-7.8-22.9-9.1-24.1c-0.4,1.6-0.6,3.5-0.6,5.6l0.2,6.3l-0.2,3.9c0,0.6,0.1,2.5,0.3,5.6h-0.2c0,8.9,0.2,13.8,0.5,14.7v7.2
			c0.2,0.4,0.3,0.8,0.3,1.4c0,1.2-0.5,1.9-1.5,1.9c-1.1,0-1.7-1.4-1.7-4.3l0.3-5.2l-0.5-23l0.5-14.2v-1.4c0-0.7,0-1.2,0.1-1.4
			s0.1-0.5,0.1-0.8c0-0.3,0.1-0.6,0.2-0.8c0.1-0.2,0.2-0.4,0.3-0.6c0.2-0.5,0.5-0.8,0.8-1.1l0.2,0.3l0.8-0.2c0.6,0.2,1,0.6,1.1,1.2
			c0,0.1,0,0.2,0.1,0.4c0.1,0.2,0.1,0.4,0.1,0.4c0.9,3.8,2.8,9.1,5.7,15.9c2.9,6.8,4.7,11.2,5.3,13.1c0.6,1.9,1.2,4,1.7,6.2
			c1.1,4.8,2.3,8.3,3.6,10.5l0.2-0.2C370.2,356.3,370.8,341.8,370.8,324.4z M369.1,373.2C369.2,373.2,369.2,373.2,369.1,373.2
			L369.1,373.2z"/>
		<path fill="#FFFEE6" d="M410.7,372.5l-2.7-0.3c-0.4,0-0.9,0.2-1.5,0.4c-0.6,0.3-1.3,0.4-2.1,0.4c-0.8,0-1.3-0.3-1.5-0.8l-1.3,0.1
			c-1.1,0-1.9-0.3-2.2-0.8c0-0.3,0.1-0.6,0.4-0.8c0.3-0.2,0.5-0.4,0.6-0.5h2.3l0.3-0.3l0.3-1.7l-0.6-17.5l0.4-18.7
			c0-3.6-0.1-6.7-0.4-9.3c-0.5-0.2-1.3-0.2-2.4-0.2l-1.9,0.2c-1,0-1.5-0.5-1.5-1.4c0-0.2,0.2-0.5,0.7-0.7c0.5-0.2,0.9-0.3,1.2-0.3
			c7.4,0,11.1,0.8,11.1,2.4c0,0.2-0.1,0.4-0.2,0.6l-1.8,0.2c-0.4-0.3-1.2-0.5-2.3-0.5l-0.4,0.2c0.2,0.5,0.2,1.9,0.2,4.3l-0.2,19
			l0.5,17.5l-0.1,2.5c0,1.2,0.1,2,0.2,2.2L406,369c0,0.5,0.6,0.8,1.8,0.8l2.3-0.1c1.6,0,2.4,0.4,2.4,1.1c0,0.5-0.2,0.9-0.5,1.2
			C411.6,372.3,411.2,372.5,410.7,372.5z"/>
		<path fill="#FFFEE6" d="M442.3,324.4l-0.2-2c0-1.1,0.4-1.7,1.1-1.7c0.5,0,0.9,0.2,1.3,0.7c0.3,0.5,0.5,1,0.5,1.6v5.4l-0.4,0.7
			c0,4.2-0.3,12.2-0.9,24.2c-0.6,12-1.1,18.5-1.7,19.6c-0.1,0-0.5,0.1-1.2,0.3c-0.6,0.2-1.1,0.3-1.3,0.3c-0.3,0-0.5-0.2-0.7-0.5
			c-0.2-0.4-0.4-0.8-0.5-1.4c-0.1-0.6-0.2-1-0.3-1.1l0.1-0.2c-0.3-2.2-1-4.7-2.1-7.6s-1.7-4.8-2.1-5.8c-0.2-0.2-0.9-2.2-2.1-6
			c-4.8-14.9-7.8-22.9-9.1-24.1c-0.4,1.6-0.6,3.5-0.6,5.6l0.2,6.3l-0.2,3.9c0,0.6,0.1,2.5,0.3,5.6h-0.2c0,8.9,0.2,13.8,0.5,14.7v7.2
			c0.2,0.4,0.3,0.8,0.3,1.4c0,1.2-0.5,1.9-1.5,1.9c-1.1,0-1.7-1.4-1.7-4.3l0.3-5.2l-0.5-23l0.5-14.2v-1.4c0-0.7,0-1.2,0.1-1.4
			s0.1-0.5,0.1-0.8c0-0.3,0.1-0.6,0.2-0.8c0.1-0.2,0.2-0.4,0.3-0.6c0.2-0.5,0.5-0.8,0.8-1.1l0.2,0.3l0.8-0.2c0.6,0.2,1,0.6,1.1,1.2
			c0,0.1,0,0.2,0.1,0.4c0.1,0.2,0.1,0.4,0.1,0.4c0.9,3.8,2.8,9.1,5.7,15.9c2.9,6.8,4.7,11.2,5.3,13.1c0.6,1.9,1.2,4,1.7,6.2
			c1.1,4.8,2.3,8.3,3.6,10.5l0.2-0.2C441.7,356.3,442.3,341.8,442.3,324.4z M440.6,373.2C440.7,373.2,440.7,373.2,440.6,373.2
			L440.6,373.2z"/>
		<path fill="#FFFEE6" d="M465.7,322.9l-4.3-0.5l-0.4,0.5l0.2,0.3c-0.1,0.2-0.2,1.7-0.2,4.6c0,2.8,0.4,9.5,1.3,19.9
			c0.9,10.4,1.3,18.2,1.3,23.5c0,0.4-0.2,0.7-0.5,1.1s-0.7,0.5-1.1,0.5l-0.9-0.7l-0.2-5.8l0.2-2.8c0-0.7-0.1-1.4-0.3-1.9
			c0-4.5-0.3-11.1-1-19.8c-0.6-8.7-1-15.1-1-19.2c-4.2,0-6.4-0.5-6.7-1.5c0.2-0.6,0.7-0.9,1.5-0.9l10.9,0.7l1.4-0.1
			c1,0,1.4,0.3,1.4,1c0,0.4-0.2,0.7-0.6,0.9C466.4,322.8,466.1,322.9,465.7,322.9z"/>
		<path fill="#FFFEE6" d="M474.8,372.5l0.1-2l-0.3-0.3c0.4-1.1,0.6-2.2,0.6-3.3l-0.4-10.5l0.5-24.1l-0.3-9.6c0-1.5,0.8-2.3,2.3-2.3
			c0.6,0,1,0.2,1.3,0.5c0.2,0.1,1,0.2,2.3,0.3c3.3,0.4,5,1,5,2c0,0.4-0.5,0.9-1.5,1.5c-2.9-1-5.1-1.5-6.5-1.5l-0.4,0.5
			c0.1,0.8,0.1,1.9,0.1,3.4l-0.3,12.4c0,1.5,0.4,2.2,1.1,2.2l2.7-0.2c2,0,3.1,0.5,3.1,1.4c0,0.5-0.1,1-0.4,1.4
			c-0.3,0.4-0.8,0.6-1.5,0.6s-1.2-0.2-1.6-0.6l-2.6-0.4h-0.4l-0.4,0.4v0.2c0.1,1.4,0.2,3.5,0.2,6.3l-0.2,11.4c0,5.3,0.4,8.3,1.1,8.8
			c0.5,0.4,1.3,0.6,2.6,0.6l3-0.2c1.6,0,2.3,0.4,2.3,1.1c0,1-1.2,1.4-3.5,1.4h-6.6C475.5,374.1,474.9,373.6,474.8,372.5z"/>
		<path fill="#FFFEE6" d="M493.7,322.8c0-2,0.6-3,1.8-3c2.6,0,4.8,0.7,6.4,2c1.7,1.3,2.5,3.2,2.5,5.8v5.8c0,2.1-1,5-3.1,8.8
			c-0.7,1.3-1.1,2-1.1,2.1s1,4.3,3,12.7c2,8.3,3.1,12.6,3.2,12.9c0.1,0.3,0.4,0.8,0.8,1.6c0.4,0.8,0.6,1.5,0.6,2.1s-0.3,0.9-0.9,0.9
			l-1.2-0.4c-1.2-1.4-2.6-6.6-4.1-15.6c-1.4-8.7-2.7-13-3.7-13h-0.3c-1.2,0-1.8,0.4-1.8,1.1c0,2.9,0.2,7.8,0.5,14.6
			c0.3,6.8,0.6,10.6,0.9,11.4l-0.6,1.3h-1.2l-0.6-0.6C494.2,350.1,493.7,333.3,493.7,322.8z M496,323.9l0.3,19.4l0.2,0.2
			c1,0,1.9-0.5,2.7-1.6c0.8-1.1,1.4-2.3,1.8-3.8c0.9-3.1,1.3-5.5,1.3-7.1c0-1.6-0.1-2.8-0.2-3.7c-0.1-0.8-0.3-1.7-0.7-2.6
			c-0.7-1.9-2.2-2.8-4.6-2.8c-0.3,0-0.5,0.2-0.7,0.7C496.1,323,496,323.5,496,323.9z"/>
		<path fill="#FFFEE6" d="M534.8,318.6c0.6,0.2,0.9,0.5,0.9,1c0,0.5-0.1,1.1-0.2,1.9c-0.1,0.8-0.3,1.7-0.5,2.7
			c-0.2,1-0.4,1.8-0.5,2.3c-0.1,0.6-0.6,2.6-1.4,6.1c-0.8,3.5-1.3,6.2-1.6,8.1c-0.3,1.9-0.6,4.6-0.9,8c-0.3,3.5-0.6,5.8-0.7,6.9
			c-0.2,1.1-0.5,2.7-1,4.7c-0.5,2-0.8,3.2-0.9,3.8c-0.1,0.6-0.2,1.3-0.2,2.2c-0.1,0.9-0.1,1.7-0.2,2.5c-0.1,0.8-0.3,1.6-0.5,2.4
			c-0.4,1.8-1.2,2.7-2.5,2.7l-0.9-0.7c0-8.7-2.4-23.5-7.1-44.4c-0.1-0.4-0.3-1.2-0.7-2.5c-1-3.5-1.5-5.4-1.5-5.7s0.1-0.5,0.4-0.7
			s0.5-0.4,0.8-0.4c0.3,0,0.6,0.2,0.9,0.7c0.3,0.5,0.6,1.1,0.8,1.8c0.2,0.7,0.4,1.5,0.5,2.2s0.3,1.4,0.4,2.1
			c0.1,0.7,0.3,1.5,0.5,2.2c0.2,0.8,0.4,1.8,0.8,3.2c0.3,1.4,0.6,2.7,0.8,3.8c0.2,1.1,0.5,2.5,0.8,4.1c0.3,1.6,0.5,2.9,0.7,3.8
			c0.2,0.9,0.4,2.3,0.7,4.1c0.3,1.8,0.5,3.1,0.6,3.8c0.1,0.7,0.3,2.1,0.6,4.1c0.3,2,0.5,3.3,0.5,3.8c0.1,0.5,0.3,1.9,0.6,4.1
			c0.3,2.2,0.5,3.5,0.6,3.9c1.1-3.6,2-8.7,2.7-15.4c0.7-6.6,1.8-13.4,3.2-20.4s2.2-11.2,2.5-12.6L534.8,318.6z M523,329.9v0.2h-0.1
			C522.9,329.9,523,329.9,523,329.9z M525.2,367.6l-0.1,0.2l0.1,0.2V367.6z"/>
		<path fill="#FFFEE6" d="M555.7,372.5l-2.7-0.3c-0.4,0-0.9,0.2-1.5,0.4c-0.6,0.3-1.3,0.4-2.1,0.4c-0.8,0-1.3-0.3-1.5-0.8l-1.3,0.1
			c-1.1,0-1.9-0.3-2.2-0.8c0-0.3,0.1-0.6,0.4-0.8c0.3-0.2,0.5-0.4,0.6-0.5h2.3l0.3-0.3l0.3-1.7l-0.6-17.5l0.4-18.7
			c0-3.6-0.1-6.7-0.4-9.3c-0.5-0.2-1.3-0.2-2.4-0.2l-1.9,0.2c-1,0-1.5-0.5-1.5-1.4c0-0.2,0.2-0.5,0.7-0.7c0.5-0.2,0.9-0.3,1.2-0.3
			c7.4,0,11.1,0.8,11.1,2.4c0,0.2-0.1,0.4-0.2,0.6l-1.8,0.2c-0.4-0.3-1.2-0.5-2.3-0.5l-0.4,0.2c0.2,0.5,0.2,1.9,0.2,4.3l-0.2,19
			l0.5,17.5l-0.1,2.5c0,1.2,0.1,2,0.2,2.2L551,369c0,0.5,0.6,0.8,1.8,0.8l2.3-0.1c1.6,0,2.4,0.4,2.4,1.1c0,0.5-0.2,0.9-0.5,1.2
			C556.6,372.3,556.2,372.5,555.7,372.5z"/>
		<path fill="#FFFEE6" d="M564.9,372.5l0.1-2l-0.3-0.3c0.4-1.1,0.6-2.2,0.6-3.3l-0.4-10.5l0.5-24.1l-0.3-9.6c0-1.5,0.8-2.3,2.3-2.3
			c0.6,0,1,0.2,1.3,0.5c0.2,0.1,1,0.2,2.3,0.3c3.3,0.4,5,1,5,2c0,0.4-0.5,0.9-1.5,1.5c-2.9-1-5.1-1.5-6.5-1.5l-0.4,0.5
			c0.1,0.8,0.1,1.9,0.1,3.4l-0.3,12.4c0,1.5,0.4,2.2,1.1,2.2l2.7-0.2c2,0,3.1,0.5,3.1,1.4c0,0.5-0.1,1-0.4,1.4
			c-0.3,0.4-0.8,0.6-1.5,0.6s-1.2-0.2-1.6-0.6l-2.6-0.4H568l-0.4,0.4v0.2c0.1,1.4,0.2,3.5,0.2,6.3l-0.2,11.4c0,5.3,0.4,8.3,1.1,8.8
			c0.5,0.4,1.3,0.6,2.6,0.6l3-0.2c1.6,0,2.3,0.4,2.3,1.1c0,1-1.2,1.4-3.5,1.4h-6.6C565.5,374.1,565,373.6,564.9,372.5z"/>
		<path fill="#FFFEE6" d="M602.9,375.7c-0.9,0-1.4-1.2-1.4-3.6c-0.1-1.4-0.4-3.4-0.9-6c-0.5-2.6-0.8-4.3-0.9-5.1
			c-0.1-0.8-0.4-3.7-0.8-8.8c-1-12.6-2-19.4-2.9-20.3c-0.5,6-0.8,9.7-0.8,11.1c0,1.4-0.1,3.1-0.3,5.4c-0.2,2.2-0.6,5.1-1.2,8.7
			s-0.9,5.6-0.9,6.1c-0.1,0.5-0.2,1.2-0.3,2.3c-0.1,1-0.2,2-0.4,2.9c-0.1,0.9-0.3,1.9-0.5,3c-0.4,2.3-1,3.5-1.6,3.5
			c-0.8,0-1.4-1.2-1.9-3.6s-0.8-5.8-1-10.2c-0.3-4.4-0.4-7.1-0.5-8c-0.1-0.9-0.4-2.9-0.9-6.1s-0.7-5.4-0.8-6.7
			c-0.1-1.3-0.2-2.9-0.3-4.9c-0.1-2-0.2-3.6-0.3-4.8c-0.2-3.5-0.7-6.3-1.6-8.6c0.2-0.4,0.6-0.6,1.1-0.6c0.5,0,0.8,0.2,1.1,0.5
			c0.2,0.3,0.4,0.8,0.5,1.3c0.1,0.6,0.1,1.1,0.2,1.6c0.1,1,0.1,2.1,0.2,3.2c0.1,1.2,0.7,6.3,1.8,15.3c1.1,9.1,1.7,16,1.8,20.9
			c0.2,0.4,0.3,1.1,0.4,2.2s0.3,1.8,0.4,2.1h0.1c0.6-3.9,1-6.5,1.1-7.7c0.1-1.2,0.3-2.7,0.6-4.6c0.3-1.9,0.4-3.3,0.5-4.4
			c0.1-1,0.2-2.4,0.4-3.9c0.2-2.4,0.4-5.3,0.5-8.8c0.1-3.4,0.3-6.1,0.6-8.2c0.3-2.1,0.4-3.4,0.4-4.1l1.4-0.6c0.3,0,0.7,0.1,0.9,0.3
			c0.3,0.2,0.4,0.4,0.4,0.7c0,0.3-0.1,0.5-0.2,0.8c2.4,8.3,3.9,17.9,4.5,28.8c0.2,4.2,0.7,7.2,1.4,9.2c0.7-2,1.3-6.6,1.7-14
			c0.4-7.4,0.6-12.5,0.6-15.4s0.2-5.7,0.5-8.5c0.4-2.8,0.5-4.6,0.5-5.6s-0.1-1.6-0.3-2c0-0.8,0.5-1.2,1.6-1.2c0.4,0,0.7,0.1,0.9,0.2
			c0.1,0.1,0.2,0.6,0.2,1.5c0,0.9-0.1,1.8-0.4,2.7l0.2,0.5c-0.5,2.1-0.7,4-0.7,5.7c0,1.7,0.1,2.6,0.2,2.7l-0.5,1.6l0.2,0.5
			c-0.2,0.3-0.2,0.6-0.2,0.8s0.1,0.8,0.2,1.7l-0.2,0.4c0,1.9-0.2,6.1-0.6,12.6c-0.4,6.5-0.7,10.2-0.8,11.2c-0.1,1-0.3,2-0.6,3.2
			c-0.3,1.1-0.4,2-0.4,2.6C605.1,372.8,604.4,375.7,602.9,375.7z M603.1,366.1L603.1,366.1L603.1,366.1
			C603.2,366.2,603.1,366.1,603.1,366.1z"/>
		<g>
			<path fill="#FFFEE6" d="M383.9,306.7c27.8-0.9,55.6-2,83.4-3.3c1.9-0.1,1.9-3.1,0-3c-27.8,1.3-55.6,2.4-83.4,3.3
				C382,303.7,382,306.7,383.9,306.7L383.9,306.7z"/>
		</g>
	</g>
</g>
</svg>
