<?xml version="1.0" encoding="utf-8"?>
<!-- Generator: Adobe Illustrator 23.0.1, SVG Export Plug-In . SVG Version: 6.00 Build 0)  -->
<svg version="1.1" id="Layer_1" xmlns="http://www.w3.org/2000/svg" xmlns:xlink="http://www.w3.org/1999/xlink" x="0px" y="0px"
	 viewBox="0 0 360 360" style="enable-background:new 0 0 360 360;" xml:space="preserve">
<style type="text/css">
	.st0{fill:#005CFF;}
	.st1{opacity:0.1;fill:url(#SVGID_1_);enable-background:new    ;}
	.st2{opacity:0.1;fill:url(#SVGID_2_);enable-background:new    ;}
	.st3{fill:#FFC2DE;}
	.st4{fill:#FF6300;}
	.st5{fill:#5E5E5E;}
	.st6{fill:#FFFEE6;}
	.st7{fill:#F9E531;}
	.st8{fill:none;}
	.st9{clip-path:url(#SVGID_4_);}
	.st10{clip-path:url(#SVGID_6_);}
	.st11{fill:#FFFFFF;}
</style>
<g id="bg">
	<rect class="st0" width="360" height="360"/>
	
		<radialGradient id="SVGID_1_" cx="182.9" cy="54.3445" r="99.4118" gradientTransform="matrix(1 0 0 -1 0 362)" gradientUnits="userSpaceOnUse">
		<stop  offset="0" style="stop-color:#603813"/>
		<stop  offset="1" style="stop-color:#FFFFFF"/>
	</radialGradient>
	<ellipse class="st1" cx="182.9" cy="307.7" rx="93.3" ry="4.4"/>
	
		<radialGradient id="SVGID_2_" cx="180.9" cy="52.617" r="99.4475" gradientTransform="matrix(1 0 0 -1 0 362)" gradientUnits="userSpaceOnUse">
		<stop  offset="0" style="stop-color:#603813"/>
		<stop  offset="1" style="stop-color:#FFFFFF"/>
	</radialGradient>
	<ellipse class="st2" cx="180.9" cy="309.4" rx="93.3" ry="4.4"/>
</g>
<g id="Layer_3">
	<rect x="212.1" y="207.9" class="st3" width="3.6" height="40.9"/>
	<rect x="150.5" y="207.9" class="st3" width="3.6" height="40.9"/>
	<g>
		<rect x="176.5" y="233.8" class="st4" width="3.6" height="72.9"/>
		<rect x="186.5" y="233.8" class="st4" width="3.6" height="72.9"/>
	</g>
	<circle class="st5" cx="184.1" cy="114.2" r="50.9"/>
	<path class="st6" d="M183,241.2L183,241.2c-17.9,0-32.6-14.7-32.6-32.6v-83.7c0-17.9,14.7-32.6,32.6-32.6l0,0
		c17.9,0,32.6,14.7,32.6,32.6v83.7C215.6,226.5,200.9,241.2,183,241.2z"/>
	<ellipse class="st6" cx="213.9" cy="247.6" rx="4" ry="3.8"/>
	<ellipse class="st6" cx="152.3" cy="247.6" rx="4" ry="3.8"/>
	<g>
		<path class="st7" d="M155.9,226.6c-0.2-0.3-0.8-1.1-1.2-1.8h56.6c-0.2,0.4-0.9,1.5-1.2,1.8H155.9z"/>
	</g>
	<path class="st8" d="M152.8,220.8c0,0-0.3,3.4,2.3,3.9h56.2c0,0,1.5-0.8,1.9-3.9H152.8z"/>
	<g>
		<path class="st4" d="M155.9,226.6c5.9,8.8,15.8,14.6,27.1,14.6l0,0c11.3,0,21.3-5.8,27.1-14.6H155.9z"/>
	</g>
	<path class="st3" d="M215.6,219.1h-65.2l-0.1-19.8c0,0-1.2-1.4-1.2-2.8c0-1.4,0.4-2.8,0.4-2.8l0.8,0.8c0,0,1.4,2.1,11.6,3.2
		c5.8,0.6,20.9,7.5,20.9,7.5s14.4-6.9,19.5-6.8c11.6,0.1,13.3-3.1,13.3-3.1l0.6-1.3c0,0,0.1,1.3,0,2.2s-0.7,1.7-0.7,1.7L215.6,219.1
		L215.6,219.1z"/>
	<path class="st3" d="M169.6,205.1c0,0-2.6-1.2-11.4-2.6c-13.7-2.2-7.8-10.9-7.8-10.9s-0.6,4.7,7.8,5.3c9.8,0.7,24.8,8.2,24.8,8.2
		s14.5-6.6,21.8-7c4.3-0.2,10.9-1.6,10.8-6.5c0,0,5.4,9.3-10.7,11.3c-9.4,1.2-10.2,3.1-10.2,3.1"/>
	<g>
		<path class="st5" d="M191,212v-4.4c0-0.4-0.2-0.6-0.5-0.6s-0.5,0.3-0.5,0.6v4.4c-0.3,0.2-0.5,0.6-0.5,1c0,0.7,0.5,1.2,1,1.2
			c0.6,0,1-0.5,1-1.2C191.5,212.6,191.3,212.2,191,212z"/>
		<path class="st5" d="M176.2,212v-4.4c0-0.4-0.2-0.6-0.5-0.6s-0.5,0.3-0.5,0.6v4.4c-0.3,0.2-0.5,0.6-0.5,1c0,0.7,0.5,1.2,1,1.2
			s1-0.5,1-1.2C176.7,212.6,176.5,212.2,176.2,212z"/>
	</g>
	<path class="st8" d="M215.6,208.6c0,17.9-14.7,32.6-32.6,32.6l0,0c-17.9,0-32.5-14-32.6-32.6l-5-18.9h73.4L215.6,208.6z"/>
	<g>
		<path class="st4" d="M180.1,308.6h-9.3v-1.9c0-1.1,0.9-2,2-2h7.3V308.6z"/>
		<path class="st4" d="M186.5,308.6h9.3v-1.9c0-1.1-0.9-2-2-2h-7.3V308.6z"/>
	</g>
	<circle class="st5" cx="167.6" cy="96.1" r="40.7"/>
	<g>
		<ellipse class="st5" cx="176.6" cy="146" rx="2.4" ry="3.8"/>
		<ellipse class="st5" cx="187.6" cy="146" rx="2.4" ry="3.8"/>
	</g>
	<g>
		<g>
			<path id="XMLID_1_" class="st6" d="M152.8,220.8c0,0,0.4,3.3,1.9,3.9h56.6c0,0,1.9-1.5,1.9-3.9H152.8z"/>
		</g>
		<g>
			<defs>
				<path id="SVGID_3_" d="M152.8,220.8c0,0,0.4,3.3,1.9,3.9h56.6c0,0,1.9-1.5,1.9-3.9H152.8z"/>
			</defs>
			<clipPath id="SVGID_4_">
				<use xlink:href="#SVGID_3_"  style="overflow:visible;"/>
			</clipPath>
			<g class="st9">
				<g>
					<defs>
						<path id="SVGID_5_" d="M152.9,220.9c0,0,0.4,3.3,1.9,3.9h56.6c0,0,1.9-1.5,1.9-3.9H152.9z"/>
					</defs>
					<clipPath id="SVGID_6_">
						<use xlink:href="#SVGID_5_"  style="overflow:visible;"/>
					</clipPath>
					<g class="st10">
						<rect x="154.9" y="220.9" class="st7" width="1.3" height="4.2"/>
						<rect x="161.1" y="220.9" class="st7" width="1.3" height="4.2"/>
						<rect x="167.3" y="220.9" class="st7" width="1.3" height="4.2"/>
						<rect x="173.5" y="220.9" class="st7" width="1.3" height="4.2"/>
						<rect x="179.7" y="220.9" class="st7" width="1.3" height="4.2"/>
						<rect x="185.9" y="220.9" class="st7" width="1.3" height="4.2"/>
						<rect x="192" y="220.9" class="st7" width="1.3" height="4.2"/>
						<rect x="198.2" y="220.9" class="st7" width="1.3" height="4.2"/>
						<rect x="204.7" y="220.9" class="st7" width="1.2" height="4.2"/>
						<rect x="210.3" y="220.9" class="st7" width="1.2" height="4.2"/>
					</g>
				</g>
			</g>
		</g>
	</g>
	<path class="st6" d="M214.1,220.8h-61.5c-0.5,0-0.9-0.4-0.9-0.9l0,0c0-0.5,0.4-0.9,0.9-0.9h61.5c0.5,0,0.9,0.4,0.9,0.9l0,0
		C215,220.4,214.6,220.8,214.1,220.8z"/>
</g>
<g id="Layer_10">
</g>
<g id="Layer_4">
</g>
<g id="Layer_5">
</g>
<g id="Layer_6">
</g>
<g id="Layer_7">
</g>
<g id="Layer_8">
</g>
<g id="Layer_11">
</g>
<g>
	<path class="st11" d="M97.5,36.6c0-0.7-0.3-3-0.9-7.1c-0.6-4.1-0.9-6.3-1.1-6.7c0.2-0.3,0.4-0.5,0.7-0.5c0.3,0,0.6,0.7,0.9,2.2
		c0.3,1.5,0.5,3.3,0.7,5.2l0.1,1.7c0.1,0.9,0.1,1.4,0.1,1.4l0.2-1.7l0.1-1.1c0.2-1.6,0.3-2.7,0.4-3.4c0.1-0.9,0.1-1.4,0.1-1.8v-0.4
		c0-0.2,0.1-0.3,0.2-0.4c0.1-0.1,0.2-0.2,0.4-0.2c0.5,0,0.7,0.2,0.7,0.6v0.3c0,0.8,0.1,1.6,0.2,2.5c0.2,0.9,0.4,2,0.7,3.3
		c0.2,0.7,0.4,1.6,0.6,2.7c0-0.5,0.2-1.6,0.4-3.3c0.2-1.6,0.4-3,0.5-4.1c0.1-1.1,0.2-2.2,0.2-3.2c0-0.3,0.1-0.5,0.2-0.7
		s0.3-0.2,0.6-0.2c0.2,0,0.3,0.1,0.4,0.2c0.1,0.1,0.2,0.2,0.2,0.4c0,0.2-0.1,0.3-0.2,0.5c0,1-0.1,2.2-0.2,3.5
		c-0.2,1.3-0.3,2.6-0.6,3.8c-0.2,1.2-0.4,2.4-0.6,3.8s-0.2,2.5-0.2,3.6c0,0.2-0.1,0.4-0.2,0.5c-0.1,0.1-0.3,0.2-0.5,0.2
		c-0.2,0-0.3-0.3-0.5-0.9c-0.3-0.8-0.6-2.4-1-4.7l-0.4-2.4l-0.2-1.4c-0.2,1.3-0.3,2.3-0.4,3c-0.1,0.8-0.2,1.7-0.3,2.7
		c-0.1,1-0.1,2-0.1,3c0,0.1-0.1,0.3-0.2,0.4s-0.3,0.2-0.4,0.2C97.7,38.1,97.5,37.6,97.5,36.6z"/>
	<path class="st11" d="M109.4,34.4l0-1.2l0-1v-0.1V32c0-0.1,0-0.2,0-0.4c0,0,0-0.1-0.1-0.1c0,0-0.1-0.1-0.1-0.1v0
		c-0.1,0-0.2,0-0.4,0c-0.2,0-0.4,0-0.7-0.1c-0.1,0-0.3,0-0.7-0.1v2.4c0,0.4,0,0.9,0.1,1.7c0,0.8,0.1,1.3,0.1,1.7
		c0,0.2-0.1,0.4-0.2,0.5c-0.1,0.2-0.3,0.2-0.4,0.2c-0.3,0-0.5-0.3-0.6-0.8c-0.1-0.5-0.2-1.2-0.2-2.1l0-1.7c0-0.5,0-1,0-1.5v-0.4
		v-0.3c0-0.2,0-0.4,0-0.4v-0.1l0.1-1.2c0-0.5,0-1.3-0.1-2.4s-0.1-1.8-0.1-2.4c0-0.2,0.1-0.3,0.2-0.4c0.1-0.1,0.2-0.2,0.4-0.2
		c0.4,0,0.7,0.4,0.7,1.2l0,2.6c0,0.8,0,1.6,0,2.6c0.2,0.1,0.6,0.1,1.1,0.1h0.8c0-0.1,0-0.2,0-0.2c0-0.7,0-1.7-0.1-3
		c-0.1-1.2-0.1-2.2-0.1-3c0-0.2,0.1-0.3,0.2-0.4c0.1-0.1,0.3-0.2,0.4-0.2c0.1,0,0.2,0,0.4,0.1l0.2,0.1c0,2,0.1,4.6,0.2,7.9l0.2,5.3
		c0,0.2-0.1,0.3-0.2,0.5c-0.1,0.1-0.3,0.2-0.5,0.2C109.6,37.9,109.4,36.7,109.4,34.4z"/>
	<path class="st11" d="M113.8,37.9c-0.1-0.1-0.2-0.3-0.2-0.5v-0.5v-0.4c0-0.1,0-0.3,0-0.4c0-0.3,0-0.7-0.1-1.3l0-1.3
		c0-0.7,0-1.7,0.1-3c0.1-1.2,0.1-2.2,0.1-3c0-0.2,0-0.5-0.1-0.9c0-0.4-0.1-0.7-0.1-0.9c0-1,0.3-1.5,0.9-1.5c0.5,0,1,0.1,1.6,0.3
		c0.6,0.2,0.9,0.4,0.9,0.6c0,0.1-0.1,0.3-0.2,0.4c-0.1,0.1-0.3,0.2-0.4,0.3c-0.6-0.2-1.1-0.3-1.6-0.4c0,0.2,0,0.5,0,0.9
		c0,0.6,0,1.1,0,1.5c0,0.7-0.1,1.2-0.1,1.5l0.1,0.3l0.3,0c0.1,0,0.2,0,0.4,0c0.7,0,1,0.2,1,0.6c0,0.2-0.1,0.3-0.2,0.4
		c-0.1,0.1-0.3,0.2-0.5,0.2c-0.2,0-0.4,0-0.6,0h-0.5c0,0.4,0,0.9,0,1.6c0,0.7,0,1.3,0,1.9c0,0.8-0.1,1.5-0.1,1.9c0,0.8,0,1.2,0,1.2
		l0.7,0c0.2,0,0.5,0,0.9,0c0.5,0,0.8,0.2,0.8,0.5c0,0.2-0.1,0.3-0.3,0.4c-0.2,0.1-0.4,0.2-0.6,0.2h-1.8
		C114.1,38.1,114,38.1,113.8,37.9z"/>
	<path class="st11" d="M122.1,37.2c-0.3-0.7-0.5-1.5-0.6-2.2l-0.1-0.7c-0.4-2-0.7-3.1-0.8-3.4h-0.2c0,0.4,0,0.8,0,1.1v1.1
		c0,1.9,0.1,3.3,0.4,4.3l-0.2,0.6h-0.6l-0.3-0.3l0-1.4c0-1.2-0.1-3.1-0.2-5.7c-0.1-2.7-0.2-4.6-0.2-5.7c0-0.7,0.2-1,0.7-1
		c0.7,0,1.4,0.2,1.8,0.6c0.5,0.4,0.7,0.9,0.7,1.6v1.5c0,0.2,0,0.4-0.1,0.7s-0.1,0.5-0.2,0.7l-0.4,0.7l-0.3,0.6l0.1,0.5l0.3,1.5
		c0.2,1.1,0.4,1.9,0.6,2.6c0.2,0.7,0.4,1.3,0.7,1.8l0.1,0.2c0.1,0.3,0.2,0.5,0.2,0.7c0,0.1,0,0.3-0.1,0.4s-0.2,0.2-0.3,0.2
		C122.6,38.2,122.3,37.9,122.1,37.2z M121.1,28.6c0.2-0.7,0.3-1.3,0.3-1.9c0-0.4-0.1-0.9-0.2-1.2c-0.1-0.2-0.2-0.4-0.3-0.5
		c-0.2-0.1-0.4-0.2-0.6-0.2l0,0.1l0,0.2l0,2.5c0,0.7,0,1.5,0,2.4C120.6,29.7,120.9,29.3,121.1,28.6z"/>
	<path class="st11" d="M125.9,37.9c-0.1-0.1-0.2-0.3-0.2-0.5v-0.5v-0.4c0-0.1,0-0.3,0-0.4c0-0.3,0-0.7-0.1-1.3l0-1.3
		c0-0.7,0-1.7,0.1-3c0.1-1.2,0.1-2.2,0.1-3c0-0.2,0-0.5-0.1-0.9c0-0.4-0.1-0.7-0.1-0.9c0-1,0.3-1.5,0.9-1.5c0.5,0,1,0.1,1.6,0.3
		c0.6,0.2,0.9,0.4,0.9,0.6c0,0.1-0.1,0.3-0.2,0.4c-0.1,0.1-0.3,0.2-0.4,0.3c-0.6-0.2-1.1-0.3-1.6-0.4c0,0.2,0,0.5,0,0.9
		c0,0.6,0,1.1,0,1.5c0,0.7-0.1,1.2-0.1,1.5l0.1,0.3l0.3,0c0.1,0,0.2,0,0.4,0c0.7,0,1,0.2,1,0.6c0,0.2-0.1,0.3-0.2,0.4
		c-0.1,0.1-0.3,0.2-0.5,0.2c-0.2,0-0.4,0-0.6,0h-0.5c0,0.4,0,0.9,0,1.6c0,0.7,0,1.3,0,1.9c0,0.8-0.1,1.5-0.1,1.9c0,0.8,0,1.2,0,1.2
		l0.7,0c0.2,0,0.5,0,0.9,0c0.5,0,0.8,0.2,0.8,0.5c0,0.2-0.1,0.3-0.3,0.4c-0.2,0.1-0.4,0.2-0.6,0.2h-1.8
		C126.2,38.1,126,38.1,125.9,37.9z"/>
	<path class="st11" d="M134.3,37.2c0-0.3,0.2-0.5,0.6-0.5h0.2l0.2,0c0.1,0,0.2,0,0.2-0.1c0-0.1,0.1-0.2,0.1-0.4c0-0.2,0-0.6,0-1.1
		c0-0.3-0.1-0.9-0.1-1.8c-0.1-2.1-0.2-3.7-0.2-4.8c0-0.4,0-0.7,0-1.1l0-1.1c0-0.5,0-0.8-0.1-1.1c-0.2,0.1-0.4,0.1-0.5,0.1
		c-0.3,0-0.5-0.2-0.5-0.5c0-0.2,0.1-0.3,0.3-0.4c0.2-0.1,0.5-0.2,0.8-0.3c0.6-0.1,1-0.2,1.5-0.2c0.2,0,0.3,0.1,0.4,0.2
		c0.1,0.1,0.2,0.3,0.2,0.4s0,0.3-0.1,0.4c-0.1,0.1-0.2,0.2-0.3,0.2c-0.1,0-0.2,0-0.2,0h-0.2c-0.1,0-0.2,0-0.3,0.1
		c-0.1,0.1-0.1,0.2-0.1,0.3c0,1.3,0.1,3.4,0.2,6.1c0,0.5,0.1,1.2,0.2,2.2c0.1,0.6,0.1,1.3,0.1,2v0.8c0.1,0,0.2,0,0.4,0
		c0.6,0,0.9,0.2,0.9,0.7v0.1l-0.5,0.4c0,0-0.1,0-0.1,0s-0.2,0-0.4,0c-0.4,0-0.7,0-0.9,0C134.9,37.8,134.3,37.6,134.3,37.2z"/>
	<path class="st11" d="M139.5,37.9c-0.2-0.1-0.3-0.3-0.3-0.5l0.2-0.4c0.1,0,0.2,0,0.4,0.1c0.2,0,0.4,0.1,0.5,0.1
		c0.2,0,0.5-0.1,0.7-0.3s0.4-0.5,0.4-0.9c0.2-0.7,0.3-1.3,0.3-1.8c0-0.9-0.3-1.9-0.9-2.9l-0.2-0.4c-0.3-0.5-0.5-0.9-0.7-1.2
		c-0.2-0.4-0.3-0.7-0.5-1.2c-0.2-0.5-0.2-1.1-0.2-1.6c0-0.6,0.1-1.2,0.4-1.9c0.1-0.3,0.3-0.6,0.6-0.8c0.3-0.2,0.5-0.3,0.9-0.3
		c0.2,0,0.5,0.1,0.7,0.2c0.2,0.2,0.3,0.4,0.3,0.6c0,0.1,0,0.2-0.1,0.3c-0.1,0.1-0.2,0.1-0.4,0.1c-0.2,0-0.3,0-0.4-0.1
		c-0.3,0-0.5,0.3-0.7,0.8c-0.2,0.5-0.2,0.9-0.2,1.2c0,0.4,0.1,0.8,0.2,1.2c0.1,0.4,0.3,0.8,0.5,1.1l0.5,0.8l0.7,1.4
		c0.2,0.4,0.4,0.8,0.5,1.4c0.1,0.5,0.2,1,0.2,1.6c0,0.8-0.2,1.7-0.6,2.4c-0.2,0.4-0.5,0.7-0.8,0.9c-0.4,0.2-0.7,0.4-1.2,0.4v0.1
		C139.9,38.1,139.7,38,139.5,37.9z"/>
	<path class="st11" d="M149.9,37.5l0-0.8c0-0.2,0-0.5,0-0.8l0-0.7c0-0.2-0.1-1.7-0.3-4.6c-0.2-2.9-0.3-4.7-0.3-5.6
		c-0.8,0-1.3-0.1-1.5-0.2c-0.2-0.1-0.2-0.2-0.2-0.4c0-0.1,0.1-0.2,0.2-0.3c0.1-0.1,0.3-0.1,0.4-0.1c0.4,0,0.9,0,1.4,0.1
		c0.5,0.1,1,0.1,1.4,0.1h0.2h0.2c0.4,0,0.6,0.2,0.6,0.5c0,0.2-0.1,0.3-0.2,0.4s-0.3,0.2-0.5,0.2c-0.1,0-0.3,0-0.5-0.1l-0.4-0.1
		l0,0.1l0,0.1c0,1.2,0.1,3.2,0.4,5.9c0.2,2.5,0.3,4.5,0.3,5.9c0,0.2-0.1,0.3-0.2,0.4c-0.1,0.1-0.3,0.2-0.5,0.2L149.9,37.5z"/>
	<path class="st11" d="M157,34.4l0-1.2l0-1v-0.1V32c0-0.1,0-0.2,0-0.4c0,0,0-0.1-0.1-0.1c0,0-0.1-0.1-0.1-0.1v0c-0.1,0-0.2,0-0.4,0
		c-0.2,0-0.4,0-0.7-0.1c-0.1,0-0.3,0-0.7-0.1v2.4c0,0.4,0,0.9,0.1,1.7c0,0.8,0.1,1.3,0.1,1.7c0,0.2-0.1,0.4-0.2,0.5
		c-0.1,0.2-0.3,0.2-0.4,0.2c-0.3,0-0.5-0.3-0.6-0.8c-0.1-0.5-0.2-1.2-0.2-2.1l0-1.7c0-0.5,0-1,0-1.5v-0.4v-0.3c0-0.2,0-0.4,0-0.4
		v-0.1l0.1-1.2c0-0.5,0-1.3-0.1-2.4s-0.1-1.8-0.1-2.4c0-0.2,0.1-0.3,0.2-0.4c0.1-0.1,0.2-0.2,0.4-0.2c0.4,0,0.7,0.4,0.7,1.2l0,2.6
		c0,0.8,0,1.6,0,2.6c0.2,0.1,0.6,0.1,1.1,0.1h0.8c0-0.1,0-0.2,0-0.2c0-0.7,0-1.7-0.1-3c-0.1-1.2-0.1-2.2-0.1-3
		c0-0.2,0.1-0.3,0.2-0.4c0.1-0.1,0.3-0.2,0.4-0.2c0.1,0,0.2,0,0.4,0.1l0.2,0.1c0,2,0.1,4.6,0.2,7.9l0.2,5.3c0,0.2-0.1,0.3-0.2,0.5
		c-0.1,0.1-0.3,0.2-0.5,0.2C157.3,37.9,157,36.7,157,34.4z"/>
	<path class="st11" d="M161.4,37.9c-0.1-0.1-0.2-0.3-0.2-0.5v-0.5v-0.4c0-0.1,0-0.3,0-0.4c0-0.3,0-0.7-0.1-1.3l0-1.3
		c0-0.7,0-1.7,0.1-3c0.1-1.2,0.1-2.2,0.1-3c0-0.2,0-0.5-0.1-0.9c0-0.4-0.1-0.7-0.1-0.9c0-1,0.3-1.5,0.9-1.5c0.5,0,1,0.1,1.6,0.3
		c0.6,0.2,0.9,0.4,0.9,0.6c0,0.1-0.1,0.3-0.2,0.4c-0.1,0.1-0.3,0.2-0.4,0.3c-0.6-0.2-1.1-0.3-1.6-0.4c0,0.2,0,0.5,0,0.9
		c0,0.6,0,1.1,0,1.5c0,0.7-0.1,1.2-0.1,1.5l0.1,0.3l0.3,0c0.1,0,0.2,0,0.4,0c0.7,0,1,0.2,1,0.6c0,0.2-0.1,0.3-0.2,0.4
		c-0.1,0.1-0.3,0.2-0.5,0.2c-0.2,0-0.4,0-0.6,0h-0.5c0,0.4,0,0.9,0,1.6c0,0.7,0,1.3,0,1.9c0,0.8-0.1,1.5-0.1,1.9c0,0.8,0,1.2,0,1.2
		l0.7,0c0.2,0,0.5,0,0.9,0c0.5,0,0.8,0.2,0.8,0.5c0,0.2-0.1,0.3-0.3,0.4c-0.2,0.1-0.4,0.2-0.6,0.2h-1.8
		C161.7,38.1,161.6,38.1,161.4,37.9z"/>
	<path class="st11" d="M171.2,36.5c0-1.6-0.1-4.2-0.2-7.7c-0.1-3.5-0.3-5.4-0.4-5.6c0-0.4,0.2-0.7,0.5-0.9c0.1-0.1,0.3-0.1,0.5-0.2
		c0.2,0,0.4-0.1,0.6-0.1c0.1,0,0.3,0,0.5,0c0.3,0,0.5,0.1,0.7,0.2c0.1,0.1,0.2,0.3,0.2,0.6c0,0.2-0.1,0.3-0.2,0.3
		c-0.1,0.1-0.2,0.1-0.4,0.1l-0.2,0h-0.3c-0.4,0-0.6,0.1-0.6,0.2c0,0.7,0,1.7,0.1,2.8c0.1,1,0.1,1.9,0.2,2.8c0.1,0,0.3-0.1,0.6-0.1
		s0.5-0.1,0.6-0.1c0.2,0,0.3,0.1,0.4,0.2c0.1,0.1,0.2,0.3,0.2,0.4c0,0.2-0.1,0.3-0.3,0.4c0,0-0.1,0-0.2,0.1s-0.2,0.1-0.4,0.1
		c-0.1,0-0.3,0-0.6,0.1h-0.2c0,0.8,0.1,2,0.2,3.4c0.1,1.5,0.2,2.6,0.2,3.4l0,0.1l0,0c0,0.1,0,0.1,0,0.3c0,0.2-0.1,0.3-0.2,0.4
		c-0.1,0.1-0.3,0.2-0.5,0.2C171.4,37.9,171.2,37.4,171.2,36.5z"/>
	<path class="st11" d="M179,37.2c-0.3-0.7-0.5-1.5-0.6-2.2l-0.1-0.7c-0.4-2-0.7-3.1-0.8-3.4h-0.2c0,0.4,0,0.8,0,1.1v1.1
		c0,1.9,0.1,3.3,0.4,4.3l-0.2,0.6h-0.6l-0.3-0.3l0-1.4c0-1.2-0.1-3.1-0.2-5.7c-0.1-2.7-0.2-4.6-0.2-5.7c0-0.7,0.2-1,0.7-1
		c0.7,0,1.4,0.2,1.8,0.6c0.5,0.4,0.7,0.9,0.7,1.6v1.5c0,0.2,0,0.4-0.1,0.7s-0.1,0.5-0.2,0.7l-0.4,0.7l-0.3,0.6l0.1,0.5l0.3,1.5
		c0.2,1.1,0.4,1.9,0.6,2.6c0.2,0.7,0.4,1.3,0.7,1.8l0.1,0.2c0.1,0.3,0.2,0.5,0.2,0.7c0,0.1,0,0.3-0.1,0.4s-0.2,0.2-0.3,0.2
		C179.5,38.2,179.3,37.9,179,37.2z M178.1,28.6c0.2-0.7,0.3-1.3,0.3-1.9c0-0.4-0.1-0.9-0.2-1.2c-0.1-0.2-0.2-0.4-0.3-0.5
		c-0.2-0.1-0.4-0.2-0.6-0.2l0,0.1l0,0.2l0,2.5c0,0.7,0,1.5,0,2.4C177.6,29.7,177.8,29.3,178.1,28.6z"/>
	<path class="st11" d="M181.6,37.2c0-0.3,0.2-0.5,0.6-0.5h0.2l0.2,0c0.1,0,0.2,0,0.2-0.1c0-0.1,0.1-0.2,0.1-0.4c0-0.2,0-0.6,0-1.1
		c0-0.3-0.1-0.9-0.1-1.8c-0.1-2.1-0.2-3.7-0.2-4.8c0-0.4,0-0.7,0-1.1l0-1.1c0-0.5,0-0.8-0.1-1.1c-0.2,0.1-0.4,0.1-0.5,0.1
		c-0.3,0-0.5-0.2-0.5-0.5c0-0.2,0.1-0.3,0.3-0.4c0.2-0.1,0.5-0.2,0.8-0.3c0.6-0.1,1-0.2,1.5-0.2c0.2,0,0.3,0.1,0.4,0.2
		s0.2,0.3,0.2,0.4s0,0.3-0.1,0.4c-0.1,0.1-0.2,0.2-0.3,0.2c-0.1,0-0.2,0-0.2,0h-0.2c-0.1,0-0.2,0-0.3,0.1c-0.1,0.1-0.1,0.2-0.1,0.3
		c0,1.3,0.1,3.4,0.2,6.1c0,0.5,0.1,1.2,0.2,2.2c0.1,0.6,0.1,1.3,0.1,2v0.8c0.1,0,0.2,0,0.4,0c0.6,0,0.9,0.2,0.9,0.7v0.1l-0.5,0.4
		c0,0-0.1,0-0.1,0s-0.2,0-0.4,0c-0.4,0-0.7,0-0.9,0C182.2,37.8,181.6,37.6,181.6,37.2z"/>
	<path class="st11" d="M187.2,35.3l0-3.3c0-1,0-2.1,0-3.3c0-0.4,0-1.1-0.1-2.1c-0.1-1-0.1-1.6-0.1-1.9c0-0.2,0.1-0.3,0.2-0.5
		c0.2-0.1,0.3-0.2,0.5-0.2c0.5,0,1,0.1,1.4,0.3c0.5,0.2,0.8,0.5,1.2,0.9c0.7,0.8,1.2,1.8,1.5,2.8c0.1,0.5,0.2,1,0.2,1.5
		c0,0.2,0,0.3,0,0.5l0,0.6v1.1c0,0.9,0,1.6-0.1,2.1c-0.1,0.7-0.2,1.3-0.5,1.9c-0.3,0.6-0.7,1.1-1.2,1.6c-0.2,0.2-0.6,0.4-1,0.6h-1.5
		C187.3,38,187.2,37.1,187.2,35.3z M189.4,36.7c0.2-0.1,0.4-0.3,0.6-0.6c0.1-0.2,0.3-0.5,0.4-0.8c0.1-0.3,0.2-0.7,0.3-1
		c0.1-0.6,0.2-1.3,0.2-1.9c0-0.2,0-0.4,0-0.7c0-4.2-0.8-6.4-2.4-6.6c-0.1,0.6-0.1,1.3-0.1,2.2c0,0.9,0.1,2.4,0.2,4.6
		c0.1,1.9,0.1,3.5,0.1,4.6v0.5C188.9,36.9,189.2,36.8,189.4,36.7z"/>
	<path class="st11" d="M197.6,37.9c-0.2-0.1-0.2-0.3-0.2-0.5c0-0.4-0.1-1.1-0.2-2.1l-0.1-0.4l-2.1-0.3c-0.1,0.3-0.2,1-0.4,1.9
		c-0.1,0.7-0.2,1.1-0.4,1.4c-0.1,0.1-0.2,0.2-0.4,0.2c-0.2,0-0.3-0.1-0.5-0.2c-0.1-0.1-0.2-0.2-0.2-0.4l0-0.1l0-0.1
		c0.9-3.6,1.6-7.1,2.1-10.5c0-0.1,0-0.1,0-0.3c0-0.1,0-0.3,0-0.6c0-0.5,0.1-0.9,0.1-1.2c0-0.3,0.1-0.5,0.2-0.7h0.7
		c0.2,0,0.4,0,0.5,0.1c0.1,0.1,0.2,0.2,0.2,0.4c0,1.1,0.1,2.6,0.4,4.7c0.3,2.1,0.4,3.6,0.4,4.5c0,0.1,0,0.3,0.1,0.6
		c0.1,0.3,0.1,0.5,0.1,0.6s0.1,0.5,0.2,1.2c0.1,0.7,0.2,1.1,0.2,1.3v0c0,0.3-0.1,0.5-0.3,0.6C198,38,197.8,38,197.6,37.9z
		 M196.9,33.3c0-1.2-0.1-2.8-0.3-4.8l-0.2-2.2c-0.6,3.3-1,5.7-1.2,7.4c0.2,0.1,0.8,0.2,1.8,0.3C196.9,33.8,196.9,33.6,196.9,33.3z"
		/>
	<path class="st11" d="M201.6,37.7c0.2-0.3,0.2-1.5,0.2-3.5c0-0.5,0-1-0.1-1.6l-0.1-0.6c0-0.4-0.1-0.7-0.1-0.9v-0.5
		c-0.1-0.3-0.4-1-0.8-1.9c-0.4-0.9-0.7-1.7-0.9-2.4c-0.3-0.7-0.4-1.2-0.4-1.5v-0.1l0.5-0.4c0.2,0,0.5,0.3,0.7,0.9
		c0.2,0.5,0.5,1.2,0.7,2.2s0.4,1.5,0.4,1.5c0.1-0.2,0.2-0.7,0.3-1.6c0.2-0.9,0.4-1.7,0.6-2.4c0.2-0.7,0.5-1,0.7-1
		c0.1,0,0.3,0,0.4,0.1c0.1,0.1,0.2,0.2,0.2,0.3c0,0.7-0.2,1.7-0.6,3c-0.4,1.4-0.6,2.4-0.6,3v6.3c0,0.9-0.2,1.4-0.7,1.4
		C201.9,38.1,201.7,38,201.6,37.7z"/>
	<path class="st11" d="M210.2,37.7c-0.1-0.2-0.1-0.4-0.1-0.7c0-0.6,0-1.3,0.1-2.2c0.1-0.8,0.1-1.6,0.1-2.2c0-0.7,0-1.8,0.1-3.3
		l0-3.3c0-0.1,0-0.3-0.1-0.6l-0.1-0.5v-0.1c0-0.3,0-0.6,0.1-0.7c0.1-0.2,0.3-0.2,0.5-0.2c0.4,0,0.8,0.1,1.2,0.3
		c0.4,0.2,0.7,0.5,0.9,0.8c0.4,0.7,0.6,1.5,0.6,2.5c0,0.7-0.1,1.4-0.2,1.9c-0.1,0.5-0.3,1-0.6,1.4c0.4,0.4,0.6,0.8,0.8,1.4
		c0.1,0.6,0.2,1.3,0.2,2.1s-0.1,1.6-0.4,2.2c-0.3,0.7-0.8,1.2-1.5,1.5c-0.4,0.1-0.8,0.2-1.2,0.2C210.5,38.1,210.3,37.9,210.2,37.7z
		 M212.3,36.2c0.2-0.4,0.4-0.9,0.4-1.5c0-0.6,0-1.1-0.1-1.5c-0.1-0.3-0.1-0.6-0.2-0.9c-0.1-0.2-0.2-0.4-0.4-0.6
		c-0.2-0.2-0.4-0.3-0.6-0.4c-0.1,0.8-0.1,1.8-0.1,3.1c0,0.1,0,0.3,0,0.8l0,0.7c0,0,0,0,0,0.1v0V37C211.7,36.9,212.1,36.6,212.3,36.2
		z M212.5,27.6c0-1.8-0.3-2.7-0.9-2.8c-0.2,0.3-0.2,1.1-0.2,2.2v3.1C212.2,30.1,212.5,29.2,212.5,27.6z"/>
	<path class="st11" d="M216.6,37.9c-0.1-0.1-0.2-0.3-0.2-0.5v-0.5v-0.4c0-0.1,0-0.3,0-0.4c0-0.3,0-0.7-0.1-1.3l0-1.3
		c0-0.7,0-1.7,0.1-3c0.1-1.2,0.1-2.2,0.1-3c0-0.2,0-0.5-0.1-0.9c0-0.4-0.1-0.7-0.1-0.9c0-1,0.3-1.5,0.9-1.5c0.5,0,1,0.1,1.6,0.3
		c0.6,0.2,0.9,0.4,0.9,0.6c0,0.1-0.1,0.3-0.2,0.4s-0.3,0.2-0.4,0.3c-0.6-0.2-1.1-0.3-1.6-0.4c0,0.2,0,0.5,0,0.9c0,0.6,0,1.1,0,1.5
		c0,0.7-0.1,1.2-0.1,1.5l0.1,0.3l0.3,0c0.1,0,0.2,0,0.4,0c0.7,0,1,0.2,1,0.6c0,0.2-0.1,0.3-0.2,0.4s-0.3,0.2-0.5,0.2
		c-0.2,0-0.4,0-0.6,0h-0.5c0,0.4,0,0.9,0,1.6c0,0.7,0,1.3,0,1.9c0,0.8-0.1,1.5-0.1,1.9c0,0.8,0,1.2,0,1.2l0.7,0c0.2,0,0.5,0,0.9,0
		c0.5,0,0.8,0.2,0.8,0.5c0,0.2-0.1,0.3-0.3,0.4c-0.2,0.1-0.4,0.2-0.6,0.2H217C216.9,38.1,216.7,38.1,216.6,37.9z"/>
	<path class="st11" d="M222.5,37.9c-0.1-0.1-0.2-0.3-0.2-0.5v-0.5v-0.4c0-0.1,0-0.3,0-0.4c0-0.3,0-0.7-0.1-1.3l0-1.3
		c0-0.7,0-1.7,0.1-3c0.1-1.2,0.1-2.2,0.1-3c0-0.2,0-0.5-0.1-0.9c0-0.4-0.1-0.7-0.1-0.9c0-1,0.3-1.5,0.9-1.5c0.5,0,1,0.1,1.6,0.3
		c0.6,0.2,0.9,0.4,0.9,0.6c0,0.1-0.1,0.3-0.2,0.4s-0.3,0.2-0.4,0.3c-0.6-0.2-1.1-0.3-1.6-0.4c0,0.2,0,0.5,0,0.9c0,0.6,0,1.1,0,1.5
		c0,0.7-0.1,1.2-0.1,1.5l0.1,0.3l0.3,0c0.1,0,0.2,0,0.4,0c0.7,0,1,0.2,1,0.6c0,0.2-0.1,0.3-0.2,0.4s-0.3,0.2-0.5,0.2
		c-0.2,0-0.4,0-0.6,0h-0.5c0,0.4,0,0.9,0,1.6c0,0.7,0,1.3,0,1.9c0,0.8-0.1,1.5-0.1,1.9c0,0.8,0,1.2,0,1.2l0.7,0c0.2,0,0.5,0,0.9,0
		c0.5,0,0.8,0.2,0.8,0.5c0,0.2-0.1,0.3-0.3,0.4c-0.2,0.1-0.4,0.2-0.6,0.2H223C222.8,38.1,222.6,38.1,222.5,37.9z"/>
	<path class="st11" d="M230.7,37.2c-0.3-0.7-0.5-1.5-0.6-2.2l-0.1-0.7c-0.4-2-0.7-3.1-0.8-3.4h-0.2c0,0.4,0,0.8,0,1.1v1.1
		c0,1.9,0.1,3.3,0.4,4.3l-0.2,0.6h-0.6l-0.3-0.3l0-1.4c0-1.2-0.1-3.1-0.2-5.7c-0.1-2.7-0.2-4.6-0.2-5.7c0-0.7,0.2-1,0.7-1
		c0.7,0,1.4,0.2,1.8,0.6c0.5,0.4,0.7,0.9,0.7,1.6v1.5c0,0.2,0,0.4-0.1,0.7s-0.1,0.5-0.2,0.7l-0.4,0.7l-0.3,0.6l0.1,0.5l0.3,1.5
		c0.2,1.1,0.4,1.9,0.6,2.6c0.2,0.7,0.4,1.3,0.7,1.8l0.1,0.2c0.1,0.3,0.2,0.5,0.2,0.7c0,0.1,0,0.3-0.1,0.4s-0.2,0.2-0.3,0.2
		C231.2,38.2,231,37.9,230.7,37.2z M229.8,28.6c0.2-0.7,0.3-1.3,0.3-1.9c0-0.4-0.1-0.9-0.2-1.2c-0.1-0.2-0.2-0.4-0.3-0.5
		c-0.2-0.1-0.4-0.2-0.6-0.2l0,0.1l0,0.2l0,2.5c0,0.7,0,1.5,0,2.4C229.3,29.7,229.6,29.3,229.8,28.6z"/>
	<path class="st11" d="M239.7,38c-0.3-0.1-0.6-0.2-0.8-0.3c-0.9-0.6-1.4-2.2-1.4-4.9v-0.6v-0.6v-0.5c0-0.6,0-1.1,0-1.5
		s0-0.9,0.1-1.4c0-0.5,0.1-1,0.2-1.3s0.2-0.7,0.4-1.2c0.2-0.4,0.4-0.7,0.6-0.9c0.2-0.2,0.6-0.4,0.9-0.6c0.3-0.2,0.8-0.2,1.3-0.2
		c0.2,0,0.4,0,0.5,0.1c0.1,0.1,0.2,0.2,0.2,0.4c0,0.1,0,0.3-0.1,0.4c-0.1,0.1-0.2,0.2-0.3,0.2h-1c-0.3,0-0.5,0.2-0.7,0.5
		s-0.4,0.8-0.4,1.4c-0.2,1-0.3,1.9-0.3,2.5v0.1l0,2c0,0.6,0,1.3,0,2c0,0.5,0,1,0.1,1.3c0.1,0.5,0.2,0.9,0.4,1.2
		c0.2,0.4,0.5,0.6,0.9,0.8c0.2,0.1,0.4,0.1,0.7,0.1c0.2,0,0.3-0.1,0.5-0.2c0.2,0,0.3,0,0.4,0.1c0.1,0.1,0.2,0.2,0.2,0.3
		c0,0.5-0.4,0.8-1.1,0.8C240.3,38.1,240,38.1,239.7,38z"/>
	<path class="st11" d="M247.1,37.9c-0.2-0.1-0.2-0.3-0.2-0.5c0-0.4-0.1-1.1-0.2-2.1l-0.1-0.4l-2.1-0.3c-0.1,0.3-0.2,1-0.4,1.9
		c-0.1,0.7-0.2,1.1-0.4,1.4c-0.1,0.1-0.2,0.2-0.4,0.2c-0.2,0-0.3-0.1-0.5-0.2c-0.1-0.1-0.2-0.2-0.2-0.4l0-0.1l0-0.1
		c0.9-3.6,1.6-7.1,2.1-10.5c0-0.1,0-0.1,0-0.3c0-0.1,0-0.3,0-0.6c0-0.5,0.1-0.9,0.1-1.2c0-0.3,0.1-0.5,0.2-0.7h0.7
		c0.2,0,0.4,0,0.5,0.1c0.1,0.1,0.2,0.2,0.2,0.4c0,1.1,0.1,2.6,0.4,4.7c0.3,2.1,0.4,3.6,0.4,4.5c0,0.1,0,0.3,0.1,0.6
		c0.1,0.3,0.1,0.5,0.1,0.6s0.1,0.5,0.2,1.2c0.1,0.7,0.2,1.1,0.2,1.3v0c0,0.3-0.1,0.5-0.3,0.6C247.4,38,247.2,38,247.1,37.9z
		 M246.3,33.3c0-1.2-0.1-2.8-0.3-4.8l-0.2-2.2c-0.6,3.3-1,5.7-1.2,7.4c0.2,0.1,0.8,0.2,1.8,0.3C246.3,33.8,246.3,33.6,246.3,33.3z"
		/>
	<path class="st11" d="M252.7,37.2c-0.3-0.7-0.5-1.5-0.6-2.2l-0.1-0.7c-0.4-2-0.7-3.1-0.8-3.4h-0.2c0,0.4,0,0.8,0,1.1v1.1
		c0,1.9,0.1,3.3,0.4,4.3L251,38h-0.6l-0.3-0.3l0-1.4c0-1.2-0.1-3.1-0.2-5.7c-0.1-2.7-0.2-4.6-0.2-5.7c0-0.7,0.2-1,0.7-1
		c0.7,0,1.4,0.2,1.8,0.6c0.5,0.4,0.7,0.9,0.7,1.6v1.5c0,0.2,0,0.4-0.1,0.7s-0.1,0.5-0.2,0.7l-0.4,0.7l-0.3,0.6l0.1,0.5l0.3,1.5
		c0.2,1.1,0.4,1.9,0.6,2.6c0.2,0.7,0.4,1.3,0.7,1.8l0.1,0.2c0.1,0.3,0.2,0.5,0.2,0.7c0,0.1,0,0.3-0.1,0.4s-0.2,0.2-0.3,0.2
		C253.2,38.2,252.9,37.9,252.7,37.2z M251.7,28.6c0.2-0.7,0.3-1.3,0.3-1.9c0-0.4-0.1-0.9-0.2-1.2c-0.1-0.2-0.2-0.4-0.3-0.5
		c-0.2-0.1-0.4-0.2-0.6-0.2l0,0.1l0,0.2l0,2.5c0,0.7,0,1.5,0,2.4C251.3,29.7,251.5,29.3,251.7,28.6z"/>
	<path class="st11" d="M257.2,37.5l0-0.8c0-0.2,0-0.5,0-0.8l0-0.7c0-0.2-0.1-1.7-0.3-4.6c-0.2-2.9-0.3-4.7-0.3-5.6
		c-0.8,0-1.3-0.1-1.5-0.2c-0.2-0.1-0.2-0.2-0.2-0.4c0-0.1,0.1-0.2,0.2-0.3c0.1-0.1,0.3-0.1,0.4-0.1c0.4,0,0.9,0,1.4,0.1
		c0.5,0.1,1,0.1,1.4,0.1h0.2h0.2c0.4,0,0.6,0.2,0.6,0.5c0,0.2-0.1,0.3-0.2,0.4s-0.3,0.2-0.5,0.2c-0.1,0-0.3,0-0.5-0.1l-0.4-0.1
		l0,0.1l0,0.1c0,1.2,0.1,3.2,0.4,5.9c0.2,2.5,0.3,4.5,0.3,5.9c0,0.2-0.1,0.3-0.2,0.4c-0.1,0.1-0.3,0.2-0.5,0.2L257.2,37.5z"/>
	<path class="st11" d="M262.2,35.1c0-0.8,0.1-1.8,0.2-2.8c0.1-1,0.3-2.2,0.6-3.6l0.1-0.6c0.2-1.2,0.3-2.2,0.3-3
		c0-1.3-0.2-1.9-0.6-1.9c-0.3,0-0.4,0.3-0.4,0.9c0,0.2,0,0.5,0.1,1.1c0,0,0,0.1-0.1,0.1c-0.2,0.2-0.4,0.3-0.5,0.3
		c-0.4,0-0.6-0.5-0.6-1.4V24c0-0.4,0-0.7,0.1-0.9c0.1-0.3,0.2-0.5,0.4-0.7c0.2-0.2,0.5-0.3,0.9-0.3c0.3,0,0.6,0.1,0.8,0.2
		c0.2,0.1,0.4,0.3,0.5,0.5c0.2,0.3,0.4,0.8,0.4,1.5c0,0.2,0,0.4,0,0.8c0,1.2-0.2,2.6-0.6,4c-0.2,0.6-0.3,1.3-0.5,2.3
		s-0.2,1.8-0.2,2.8c0,0.8,0,1.2,0,1.4c-0.2,0-0.4,0-0.4,0c0,0-0.1,0-0.1,0C262.4,35.6,262.3,35.4,262.2,35.1z M262.2,37.7
		c-0.2-0.1-0.2-0.3-0.2-0.5c0-0.2,0.1-0.4,0.2-0.6c0.2-0.2,0.4-0.3,0.6-0.3c0.2,0,0.3,0.1,0.5,0.3c0.2,0.2,0.2,0.4,0.2,0.5
		c0,0.5-0.3,0.8-0.8,0.8C262.5,37.9,262.3,37.9,262.2,37.7z"/>
</g>
</svg>
