<?xml version="1.0" encoding="utf-8"?>
<!-- Generator: Adobe Illustrator 19.2.1, SVG Export Plug-In . SVG Version: 6.00 Build 0)  -->
<svg version="1.1" id="Layer_1" xmlns="http://www.w3.org/2000/svg" xmlns:xlink="http://www.w3.org/1999/xlink" x="0px" y="0px"
	 viewBox="0 0 220.9 331.7" enable-background="new 0 0 220.9 331.7" xml:space="preserve">
<g>
	<g>
		<rect x="0" y="0" fill="#7E5EA2" width="220.9" height="331.7"/>
	</g>
</g>
<g>
	<g>
		<g>
			<g>
				<path fill="#79C7D9" d="M114.1,263.4c-0.2,0-0.4-0.1-0.5-0.2l-57.6-37c-0.5-0.3-0.6-0.9-0.3-1.4c0.3-0.5,0.9-0.6,1.4-0.3
					l57.6,37c0.5,0.3,0.6,0.9,0.3,1.4C114.7,263.2,114.4,263.4,114.1,263.4z"/>
			</g>
		</g>
		<g>
			<g>
				<g>
					<g>
						<g>
							<g>
								<path fill="#673D92" d="M137,213.4c-0.6,0-1.3-0.2-1.9-0.5l-63-37c-1.8-1-2.3-3.3-1.3-5c1-1.8,3.3-2.3,5-1.3l63,37
									c1.8,1,2.3,3.3,1.3,5C139.5,212.8,138.3,213.4,137,213.4z"/>
							</g>
						</g>
					</g>
				</g>
			</g>
			<g>
				<g>
					<g>
						<g>
							<g>
								<path fill="#673D92" d="M151.2,207c-0.6,0-1.3-0.2-1.9-0.5l-63-37c-1.8-1-2.3-3.3-1.3-5s3.3-2.3,5-1.3l63,37
									c1.8,1,2.3,3.3,1.3,5C153.7,206.4,152.5,207,151.2,207z"/>
							</g>
						</g>
					</g>
				</g>
			</g>
			<g>
				<g>
					<g>
						<g>
							<path fill="#FFFFFF" d="M110.3,194.5c-0.2,0-0.4,0-0.5-0.1c-0.6-0.3-0.9-1-0.6-1.6l8-17l-12.3-14.2c-0.4-0.5-0.4-1.3,0.1-1.7
								c0.5-0.4,1.3-0.4,1.7,0.1l12.9,14.8c0.3,0.4,0.4,0.9,0.2,1.3l-8.4,17.7C111.2,194.2,110.8,194.5,110.3,194.5z"/>
						</g>
					</g>
				</g>
			</g>
			<g>
				<g>
					<g>
						<g>
							<path fill="#FFFFFF" d="M128.9,190.5c-0.2,0-0.4,0-0.6-0.1c-0.6-0.3-0.8-1.1-0.5-1.7l6.4-12.1l-11.4-15
								c-0.4-0.5-0.3-1.3,0.2-1.7c0.5-0.4,1.3-0.3,1.7,0.2l11.9,15.7c0.3,0.4,0.3,0.9,0.1,1.3l-6.8,12.8
								C129.8,190.2,129.3,190.5,128.9,190.5z"/>
						</g>
					</g>
				</g>
			</g>
			<g>
				<g>
					<g>
						<g>
							<path fill="#7E5EA2" d="M118.4,162.2h-8.1c-10.8,0-19.5-8.7-19.5-19.5v-39.6c0-10.8,8.7-19.5,19.5-19.5h8.1
								c10.8,0,19.5,8.7,19.5,19.5v39.6C137.8,153.5,129.1,162.2,118.4,162.2z"/>
						</g>
					</g>
				</g>
				<g>
					<g>
						<g>
							<path fill="#FFFFFF" d="M114.3,163.4c-13.7,0-24.8-11.1-24.8-24.8v-31.5c0-13.7,11.1-24.8,24.8-24.8s24.8,11.1,24.8,24.8
								v31.5C139.1,152.3,128,163.4,114.3,163.4z M114.3,84.8c-12.3,0-22.3,10-22.3,22.3v31.5c0,12.3,10,22.3,22.3,22.3h0
								c12.3,0,22.3-10,22.3-22.3v-31.5C136.6,94.8,126.6,84.8,114.3,84.8z"/>
						</g>
					</g>
				</g>
			</g>
			<g>
				<g>
					<g>
						<g>
							<g>
								<circle fill="#7E5EA2" cx="118.6" cy="106.4" r="12.8"/>
							</g>
						</g>
					</g>
					<g>
						<g>
							<g>
								<path fill="#FFFFFF" d="M118.6,120.4c-7.7,0-14-6.3-14-14c0-7.7,6.3-14,14-14c7.7,0,14,6.3,14,14
									C132.6,114.1,126.3,120.4,118.6,120.4z M118.6,94.9c-6.4,0-11.6,5.2-11.6,11.6s5.2,11.6,11.6,11.6c6.4,0,11.6-5.2,11.6-11.6
									S125,94.9,118.6,94.9z"/>
							</g>
						</g>
					</g>
				</g>
				<g>
					<g>
						<g>
							<g>
								<path fill="#FFFFFF" d="M118.6,114.7c-4.6,0-8.3-3.7-8.3-8.3c0-4.6,3.7-8.3,8.3-8.3c4.6,0,8.3,3.7,8.3,8.3
									C126.9,111,123.2,114.7,118.6,114.7z M118.6,98.7c-4.2,0-7.7,3.5-7.7,7.7c0,4.2,3.4,7.7,7.7,7.7c4.2,0,7.7-3.5,7.7-7.7
									C126.3,102.2,122.8,98.7,118.6,98.7z"/>
							</g>
						</g>
					</g>
				</g>
				<g>
					<g>
						<g>
							<g>
								<path fill="#FFFFFF" d="M118.6,112.6c-3.4,0-6.2-2.8-6.2-6.2c0-3.4,2.8-6.2,6.2-6.2c3.4,0,6.2,2.8,6.2,6.2
									C124.8,109.8,122,112.6,118.6,112.6z M118.6,100.8c-3.1,0-5.6,2.5-5.6,5.6c0,3.1,2.5,5.6,5.6,5.6c3.1,0,5.6-2.5,5.6-5.6
									C124.2,103.3,121.7,100.8,118.6,100.8z"/>
							</g>
						</g>
					</g>
				</g>
				<g>
					<g>
						<g>
							<g>
								<circle fill="#FFFFFF" cx="115.8" cy="100.5" r="4.1"/>
							</g>
						</g>
					</g>
				</g>
			</g>
			<g>
				<g>
					<g>
						<g>
							<g>
								<g>
									
										<rect x="58.1" y="166.3" transform="matrix(0.6309 -0.7759 0.7759 0.6309 -99.3457 126.1608)" fill="#FFFFFF" width="49.6" height="2.5"/>
								</g>
							</g>
						</g>
					</g>
					<g>
						<g>
							<g>
								<g>
									
										<ellipse transform="matrix(0.9953 -9.670617e-02 9.670617e-02 0.9953 -17.8585 7.2943)" fill="#FFFFFF" cx="66.3" cy="187.9" rx="2.1" ry="2.1"/>
								</g>
							</g>
						</g>
					</g>
				</g>
				<g>
					<g>
						<g>
							<g>
								<g>
									<path fill="#FFFFFF" d="M85,155c-0.3,0-0.7-0.1-0.9-0.4c-0.3-0.4-0.4-0.9-0.2-1.3l5.8-13.2c0.3-0.6,1-0.9,1.6-0.6
										c0.6,0.3,0.9,1,0.6,1.6l-4.6,10.5l11.4-4.5c0.6-0.2,1.3,0.1,1.6,0.7c0.2,0.6-0.1,1.3-0.7,1.6l-14.2,5.5
										C85.3,155,85.1,155,85,155z"/>
								</g>
							</g>
						</g>
					</g>
					<g>
						<g>
							<g>
								<g>
									<circle fill="#F2A15E" cx="98.9" cy="148.3" r="2.8"/>
								</g>
							</g>
						</g>
					</g>
				</g>
			</g>
			<g>
				<g>
					<g>
						<g>
							<g>
								<g>
									
										<rect x="118.6" y="157.3" transform="matrix(0.6317 -0.7752 0.7752 0.6317 -71.2528 167.0575)" fill="#FFFFFF" width="43.2" height="2.5"/>
								</g>
							</g>
						</g>
					</g>
					<g>
						<g>
							<g>
								<g>
									
										<ellipse transform="matrix(0.9953 -9.670617e-02 9.670617e-02 0.9953 -16.4727 12.972)" fill="#FFFFFF" cx="125.6" cy="176.4" rx="2.1" ry="2.1"/>
								</g>
							</g>
						</g>
					</g>
				</g>
				<g>
					<g>
						<g>
							<g>
								<g>
									<path fill="#FFFFFF" d="M140.2,152.3c-0.2,0-0.3,0-0.5-0.1c-0.4-0.2-0.7-0.5-0.7-0.9l-2.4-11.9c-0.1-0.7,0.3-1.3,1-1.4
										c0.7-0.1,1.3,0.3,1.4,1l2,10.1l12.1-8.3c0.6-0.4,1.3-0.2,1.7,0.3c0.4,0.6,0.2,1.3-0.3,1.7l-13.6,9.3
										C140.7,152.2,140.4,152.3,140.2,152.3z"/>
								</g>
							</g>
						</g>
					</g>
					<g>
						<g>
							<g>
								<g>
									
										<ellipse transform="matrix(0.9172 -0.3985 0.3985 0.9172 -43.7505 73.0492)" fill="#F2A15E" cx="153.8" cy="141.8" rx="2.8" ry="2.8"/>
								</g>
							</g>
						</g>
					</g>
				</g>
			</g>
			<g>
				<g>
					<g>
						<g>
							<g>
								<path fill="#FFFFFF" d="M110.1,129.5l-0.2-0.6c0.1-0.1,3.6-1.5,10-1.9c6.5-0.4,9.5,0.2,9.6,0.3l-0.1,0.6
									c0,0-3.1-0.7-9.5-0.2C113.7,128,110.1,129.5,110.1,129.5z"/>
							</g>
						</g>
					</g>
				</g>
				<g>
					<g>
						<g>
							<g>
								<path fill="#FFFFFF" d="M116.5,130.7l0-3.4l2.5,0l0,3.4L116.5,130.7z M117,127.9l0,2.2l1.3,0l0-2.2L117,127.9z"/>
							</g>
						</g>
					</g>
				</g>
				<g>
					<g>
						<g>
							<g>
								<path fill="#FFFFFF" d="M120.3,130.5l0-3.4l2.4,0l0,3.4L120.3,130.5z M120.9,127.7l0,2.2l1.2,0l0-2.2L120.9,127.7z"/>
							</g>
						</g>
					</g>
				</g>
			</g>
		</g>
		<path fill="#79C7D9" d="M199.3,37.6L140.9,0h-3.7l61,39.2c0.2,0.1,0.4,0.2,0.5,0.2c0.3,0,0.7-0.2,0.8-0.5
			C199.9,38.5,199.8,37.9,199.3,37.6z"/>
		<path fill="#79C7D9" d="M30.6,55.9L0,36.3v2.4l29.5,19c0.2,0.1,0.4,0.2,0.5,0.2c0.3,0,0.7-0.2,0.8-0.5
			C31.2,56.8,31,56.2,30.6,55.9z"/>
	</g>
</g>
<g>
	<g>
		<path fill="#FFFFFF" d="M206.1,263.8H14.7c-0.6,0-1-0.4-1-1s0.4-1,1-1h191.4c0.6,0,1,0.4,1,1S206.7,263.8,206.1,263.8z"/>
	</g>
</g>
<g>
	<g>
		<path fill="#FFFFFF" d="M25,279.9c0.3,0.2,0.9,0.4,1.4,0.4c0.7,0,1.1-0.3,1.1-0.8c0-0.4-0.3-0.7-1-1c-1-0.4-1.6-0.9-1.6-1.7
			c0-1,0.8-1.7,2.1-1.7c0.6,0,1.1,0.1,1.4,0.3l-0.3,0.9c-0.2-0.1-0.6-0.3-1.2-0.3c-0.7,0-1,0.4-1,0.7c0,0.5,0.3,0.7,1.1,1
			c1,0.4,1.5,0.9,1.5,1.8c0,1-0.7,1.8-2.2,1.8c-0.6,0-1.3-0.2-1.6-0.4L25,279.9z"/>
	</g>
	<g>
		<path fill="#FFFFFF" d="M29.9,278.2c0-0.6,0-1,0-1.4h1l0.1,0.7h0c0.3-0.5,0.8-0.8,1.5-0.8c1,0,1.8,0.8,1.8,2.2c0,1.5-1,2.3-2,2.3
			c-0.5,0-1-0.2-1.2-0.6h0v2.2h-1.1V278.2z M30.9,279.3c0,0.1,0,0.2,0,0.3c0.1,0.4,0.5,0.8,1,0.8c0.7,0,1.1-0.6,1.1-1.4
			c0-0.8-0.4-1.4-1.1-1.4c-0.4,0-0.9,0.3-1,0.8c0,0.1,0,0.2,0,0.3V279.3z"/>
	</g>
	<g>
		<path fill="#FFFFFF" d="M39.4,278.9c0,1.6-1.1,2.3-2.2,2.3c-1.2,0-2.1-0.8-2.1-2.2c0-1.4,0.9-2.3,2.2-2.3
			C38.6,276.7,39.4,277.6,39.4,278.9z M36.2,278.9c0,0.8,0.4,1.5,1.1,1.5c0.6,0,1-0.6,1-1.5c0-0.7-0.3-1.4-1-1.4
			C36.5,277.5,36.2,278.2,36.2,278.9z"/>
	</g>
	<g>
		<path fill="#FFFFFF" d="M41.9,275.7v1.1h1v0.8h-1v1.9c0,0.5,0.1,0.8,0.6,0.8c0.2,0,0.3,0,0.4,0l0,0.8c-0.2,0.1-0.4,0.1-0.8,0.1
			c-0.4,0-0.7-0.1-0.9-0.4c-0.2-0.2-0.3-0.6-0.3-1.2v-2h-0.6v-0.8h0.6V276L41.9,275.7z"/>
	</g>
	<g>
		<path fill="#FFFFFF" d="M45.4,275.7v1.1h1v0.8h-1v1.9c0,0.5,0.1,0.8,0.6,0.8c0.2,0,0.3,0,0.4,0l0,0.8c-0.2,0.1-0.4,0.1-0.8,0.1
			c-0.4,0-0.7-0.1-0.9-0.4c-0.2-0.2-0.3-0.6-0.3-1.2v-2h-0.6v-0.8h0.6V276L45.4,275.7z"/>
	</g>
	<g>
		<path fill="#FFFFFF" d="M48.3,276.8l0.8,2.3c0.1,0.3,0.2,0.6,0.2,0.8h0c0.1-0.2,0.1-0.6,0.2-0.8l0.7-2.3h1.2l-1.1,2.9
			c-0.6,1.6-1,2.3-1.5,2.8c-0.4,0.4-0.9,0.5-1.1,0.5l-0.2-0.9c0.2,0,0.4-0.1,0.6-0.3c0.2-0.1,0.4-0.4,0.6-0.7c0-0.1,0.1-0.1,0.1-0.2
			c0,0,0-0.1-0.1-0.2l-1.6-3.9H48.3z"/>
	</g>
	<g>
		<path fill="#FFFFFF" d="M54.5,274.8h1.1v6.3h-1.1V274.8z"/>
	</g>
	<g>
		<path fill="#FFFFFF" d="M58.3,275.6c0,0.3-0.2,0.6-0.6,0.6c-0.4,0-0.6-0.3-0.6-0.6c0-0.3,0.2-0.6,0.6-0.6
			C58.1,275,58.3,275.3,58.3,275.6z M57.2,281.1v-4.3h1.1v4.3H57.2z"/>
	</g>
	<g>
		<path fill="#FFFFFF" d="M60.8,278.7L60.8,278.7c0.1-0.2,0.2-0.4,0.4-0.5l1-1.4h1.3l-1.6,1.8l1.8,2.5h-1.3l-1.2-1.9l-0.4,0.4v1.5
			h-1.1v-6.3h1.1V278.7z"/>
	</g>
	<g>
		<path fill="#FFFFFF" d="M65.3,279.2c0,0.8,0.6,1.1,1.3,1.1c0.5,0,0.9-0.1,1.2-0.2l0.2,0.7c-0.4,0.2-0.9,0.3-1.5,0.3
			c-1.4,0-2.2-0.9-2.2-2.2c0-1.2,0.7-2.3,2.1-2.3c1.4,0,1.8,1.1,1.8,2.1c0,0.2,0,0.4,0,0.5H65.3z M67.2,278.5c0-0.4-0.2-1-0.9-1
			c-0.7,0-1,0.6-1,1H67.2z"/>
	</g>
	<g>
		<path fill="#FFFFFF" d="M69.4,280.1c0.2,0.1,0.7,0.3,1.1,0.3c0.5,0,0.7-0.2,0.7-0.5c0-0.3-0.2-0.4-0.7-0.6
			c-0.8-0.3-1.2-0.7-1.2-1.2c0-0.8,0.6-1.3,1.6-1.3c0.5,0,0.9,0.1,1.1,0.3l-0.2,0.8c-0.2-0.1-0.5-0.2-0.9-0.2
			c-0.4,0-0.6,0.2-0.6,0.5c0,0.3,0.2,0.4,0.7,0.6c0.8,0.3,1.1,0.7,1.1,1.3c0,0.8-0.6,1.3-1.7,1.3c-0.5,0-1-0.1-1.3-0.3L69.4,280.1z"
			/>
	</g>
	<g>
		<path fill="#FFFFFF" d="M75.6,280.1c0.2,0.1,0.7,0.3,1.1,0.3c0.5,0,0.7-0.2,0.7-0.5c0-0.3-0.2-0.4-0.7-0.6
			c-0.8-0.3-1.2-0.7-1.2-1.2c0-0.8,0.6-1.3,1.6-1.3c0.5,0,0.9,0.1,1.1,0.3l-0.2,0.8c-0.2-0.1-0.5-0.2-0.9-0.2
			c-0.4,0-0.6,0.2-0.6,0.5c0,0.3,0.2,0.4,0.7,0.6c0.8,0.3,1.1,0.7,1.1,1.3c0,0.8-0.6,1.3-1.7,1.3c-0.5,0-1-0.1-1.3-0.3L75.6,280.1z"
			/>
	</g>
	<g>
		<path fill="#FFFFFF" d="M80.7,278.7L80.7,278.7c0.1-0.2,0.2-0.4,0.4-0.5l1-1.4h1.3l-1.6,1.8l1.8,2.5h-1.3l-1.2-1.9l-0.4,0.4v1.5
			h-1.1v-6.3h1.1V278.7z"/>
	</g>
	<g>
		<path fill="#FFFFFF" d="M85.8,275.6c0,0.3-0.2,0.6-0.6,0.6c-0.4,0-0.6-0.3-0.6-0.6c0-0.3,0.2-0.6,0.6-0.6
			C85.5,275,85.7,275.3,85.8,275.6z M84.6,281.1v-4.3h1.1v4.3H84.6z"/>
	</g>
	<g>
		<path fill="#FFFFFF" d="M88.4,275.6c0,0.3-0.2,0.6-0.6,0.6c-0.4,0-0.6-0.3-0.6-0.6c0-0.3,0.2-0.6,0.6-0.6
			C88.1,275,88.4,275.3,88.4,275.6z M87.2,281.1v-4.3h1.1v4.3H87.2z"/>
	</g>
	<g>
		<path fill="#FFFFFF" d="M89.8,278.1c0-0.5,0-0.9,0-1.3h0.9l0.1,0.6h0c0.2-0.3,0.7-0.7,1.4-0.7c0.7,0,1.5,0.5,1.5,1.8v2.5h-1.1
			v-2.4c0-0.6-0.2-1.1-0.8-1.1c-0.4,0-0.7,0.3-0.8,0.6c0,0.1-0.1,0.2-0.1,0.3v2.5h-1.1V278.1z"/>
	</g>
	<g>
		<path fill="#FFFFFF" d="M99.1,280.5c0,0.9-0.2,1.5-0.6,1.9c-0.4,0.4-1.1,0.5-1.7,0.5c-0.5,0-1.1-0.1-1.5-0.3l0.2-0.8
			c0.3,0.2,0.7,0.3,1.3,0.3c0.7,0,1.2-0.4,1.2-1.3v-0.4h0c-0.2,0.4-0.7,0.6-1.2,0.6c-1.1,0-1.8-0.9-1.8-2.1c0-1.4,0.9-2.3,1.9-2.3
			c0.7,0,1,0.3,1.2,0.7h0l0-0.6h0.9c0,0.3,0,0.6,0,1.2V280.5z M98,278.5c0-0.1,0-0.2,0-0.3c-0.1-0.4-0.4-0.7-0.9-0.7
			c-0.6,0-1.1,0.5-1.1,1.4c0,0.7,0.4,1.3,1,1.3c0.4,0,0.8-0.3,0.9-0.7c0-0.1,0-0.3,0-0.4V278.5z"/>
	</g>
	<g>
		<path fill="#FFFFFF" d="M99.9,282.1c0.2-0.7,0.5-1.6,0.6-2.3l1.1-0.1c-0.3,0.8-0.6,1.8-1,2.3L99.9,282.1z"/>
	</g>
	<g>
		<path fill="#FFFFFF" d="M105.1,274.8h1.1v2.6h0c0.3-0.4,0.7-0.7,1.4-0.7c1,0,1.8,0.9,1.8,2.2c0,1.5-1,2.3-1.9,2.3
			c-0.6,0-1-0.2-1.4-0.7h0l-0.1,0.6H105c0-0.3,0-0.8,0-1.2V274.8z M106.1,279.3c0,0.1,0,0.2,0,0.3c0.1,0.4,0.5,0.8,1,0.8
			c0.7,0,1.1-0.5,1.1-1.4c0-0.8-0.4-1.4-1.1-1.4c-0.4,0-0.8,0.3-1,0.8c0,0.1,0,0.2,0,0.3V279.3z"/>
	</g>
	<g>
		<path fill="#FFFFFF" d="M114.4,279.8c0,0.5,0,0.9,0,1.3h-0.9l-0.1-0.6h0c-0.2,0.3-0.6,0.7-1.4,0.7c-0.8,0-1.5-0.5-1.5-1.9v-2.5
			h1.1v2.3c0,0.7,0.2,1.2,0.8,1.2c0.4,0,0.7-0.3,0.8-0.6c0-0.1,0.1-0.2,0.1-0.3v-2.6h1.1V279.8z"/>
	</g>
	<g>
		<path fill="#FFFFFF" d="M117.2,275.7v1.1h1v0.8h-1v1.9c0,0.5,0.1,0.8,0.6,0.8c0.2,0,0.3,0,0.4,0l0,0.8c-0.2,0.1-0.4,0.1-0.8,0.1
			c-0.4,0-0.7-0.1-0.9-0.4c-0.2-0.2-0.3-0.6-0.3-1.2v-2h-0.6v-0.8h0.6V276L117.2,275.7z"/>
	</g>
	<g>
		<path fill="#FFFFFF" d="M121.5,274.8h1.1v2.5h0c0.1-0.2,0.3-0.4,0.5-0.5c0.2-0.1,0.5-0.2,0.7-0.2c0.7,0,1.5,0.5,1.5,1.9v2.5h-1.1
			v-2.4c0-0.6-0.2-1.1-0.8-1.1c-0.4,0-0.7,0.3-0.8,0.6c0,0.1,0,0.2,0,0.3v2.6h-1.1V274.8z"/>
	</g>
	<g>
		<path fill="#FFFFFF" d="M128.1,275.6c0,0.3-0.2,0.6-0.6,0.6c-0.4,0-0.6-0.3-0.6-0.6c0-0.3,0.2-0.6,0.6-0.6
			C127.8,275,128.1,275.3,128.1,275.6z M126.9,281.1v-4.3h1.1v4.3H126.9z"/>
	</g>
	<g>
		<path fill="#FFFFFF" d="M130.8,275.7v1.1h1v0.8h-1v1.9c0,0.5,0.1,0.8,0.6,0.8c0.2,0,0.3,0,0.4,0l0,0.8c-0.2,0.1-0.4,0.1-0.8,0.1
			c-0.4,0-0.7-0.1-0.9-0.4c-0.2-0.2-0.3-0.6-0.3-1.2v-2h-0.6v-0.8h0.6V276L130.8,275.7z"/>
	</g>
	<g>
		<path fill="#FFFFFF" d="M134.2,275.7v1.1h1v0.8h-1v1.9c0,0.5,0.1,0.8,0.6,0.8c0.2,0,0.3,0,0.4,0l0,0.8c-0.2,0.1-0.4,0.1-0.8,0.1
			c-0.4,0-0.7-0.1-0.9-0.4c-0.2-0.2-0.3-0.6-0.3-1.2v-2h-0.6v-0.8h0.6V276L134.2,275.7z"/>
	</g>
	<g>
		<path fill="#FFFFFF" d="M137.6,275.6c0,0.3-0.2,0.6-0.6,0.6c-0.4,0-0.6-0.3-0.6-0.6c0-0.3,0.2-0.6,0.6-0.6
			C137.3,275,137.6,275.3,137.6,275.6z M136.4,281.1v-4.3h1.1v4.3H136.4z"/>
	</g>
	<g>
		<path fill="#FFFFFF" d="M139,278.1c0-0.5,0-0.9,0-1.3h0.9l0.1,0.6h0c0.2-0.3,0.7-0.7,1.4-0.7c0.7,0,1.5,0.5,1.5,1.8v2.5h-1.1v-2.4
			c0-0.6-0.2-1.1-0.8-1.1c-0.4,0-0.7,0.3-0.8,0.6c0,0.1-0.1,0.2-0.1,0.3v2.5H139V278.1z"/>
	</g>
	<g>
		<path fill="#FFFFFF" d="M148.3,280.5c0,0.9-0.2,1.5-0.6,1.9c-0.4,0.4-1.1,0.5-1.7,0.5c-0.5,0-1.1-0.1-1.5-0.3l0.2-0.8
			c0.3,0.2,0.7,0.3,1.3,0.3c0.7,0,1.2-0.4,1.2-1.3v-0.4h0c-0.2,0.4-0.7,0.6-1.2,0.6c-1.1,0-1.8-0.9-1.8-2.1c0-1.4,0.9-2.3,1.9-2.3
			c0.7,0,1,0.3,1.2,0.7h0l0-0.6h0.9c0,0.3,0,0.6,0,1.2V280.5z M147.2,278.5c0-0.1,0-0.2,0-0.3c-0.1-0.4-0.4-0.7-0.9-0.7
			c-0.6,0-1.1,0.5-1.1,1.4c0,0.7,0.4,1.3,1,1.3c0.4,0,0.8-0.3,0.9-0.7c0-0.1,0-0.3,0-0.4V278.5z"/>
	</g>
	<g>
		<path fill="#FFFFFF" d="M153.2,275.7v1.1h1v0.8h-1v1.9c0,0.5,0.1,0.8,0.6,0.8c0.2,0,0.3,0,0.4,0l0,0.8c-0.2,0.1-0.4,0.1-0.8,0.1
			c-0.4,0-0.7-0.1-0.9-0.4c-0.2-0.2-0.3-0.6-0.3-1.2v-2h-0.6v-0.8h0.6V276L153.2,275.7z"/>
	</g>
	<g>
		<path fill="#FFFFFF" d="M155.4,274.8h1.1v2.5h0c0.1-0.2,0.3-0.4,0.5-0.5c0.2-0.1,0.5-0.2,0.7-0.2c0.7,0,1.5,0.5,1.5,1.9v2.5h-1.1
			v-2.4c0-0.6-0.2-1.1-0.8-1.1c-0.4,0-0.7,0.3-0.8,0.6c0,0.1,0,0.2,0,0.3v2.6h-1.1V274.8z"/>
	</g>
	<g>
		<path fill="#FFFFFF" d="M161.6,279.2c0,0.8,0.6,1.1,1.3,1.1c0.5,0,0.9-0.1,1.2-0.2l0.2,0.7c-0.4,0.2-0.9,0.3-1.5,0.3
			c-1.4,0-2.2-0.9-2.2-2.2c0-1.2,0.7-2.3,2.1-2.3c1.4,0,1.8,1.1,1.8,2.1c0,0.2,0,0.4,0,0.5H161.6z M163.5,278.5c0-0.4-0.2-1-0.9-1
			c-0.7,0-1,0.6-1,1H163.5z"/>
	</g>
	<g>
		<path fill="#FFFFFF" d="M167.8,280.1c0.2,0.1,0.7,0.3,1.1,0.3c0.5,0,0.7-0.2,0.7-0.5c0-0.3-0.2-0.4-0.7-0.6
			c-0.8-0.3-1.2-0.7-1.2-1.2c0-0.8,0.6-1.3,1.6-1.3c0.5,0,0.9,0.1,1.1,0.3l-0.2,0.8c-0.2-0.1-0.5-0.2-0.9-0.2
			c-0.4,0-0.6,0.2-0.6,0.5c0,0.3,0.2,0.4,0.7,0.6c0.8,0.3,1.1,0.7,1.1,1.3c0,0.8-0.6,1.3-1.7,1.3c-0.5,0-1-0.1-1.3-0.3L167.8,280.1z
			"/>
	</g>
	<g>
		<path fill="#FFFFFF" d="M171.9,274.8h1.1v6.3h-1.1V274.8z"/>
	</g>
	<g>
		<path fill="#FFFFFF" d="M178.6,278.9c0,1.6-1.1,2.3-2.2,2.3c-1.2,0-2.1-0.8-2.1-2.2c0-1.4,0.9-2.3,2.2-2.3
			C177.7,276.7,178.6,277.6,178.6,278.9z M175.4,278.9c0,0.8,0.4,1.5,1.1,1.5c0.6,0,1-0.6,1-1.5c0-0.7-0.3-1.4-1-1.4
			C175.7,277.5,175.4,278.2,175.4,278.9z"/>
	</g>
	<g>
		<path fill="#FFFFFF" d="M179.8,278.2c0-0.6,0-1,0-1.4h1l0.1,0.7h0c0.3-0.5,0.8-0.8,1.5-0.8c1,0,1.8,0.8,1.8,2.2c0,1.5-1,2.3-2,2.3
			c-0.5,0-1-0.2-1.2-0.6h0v2.2h-1.1V278.2z M180.9,279.3c0,0.1,0,0.2,0,0.3c0.1,0.4,0.5,0.8,1,0.8c0.7,0,1.1-0.6,1.1-1.4
			c0-0.8-0.4-1.4-1.1-1.4c-0.4,0-0.9,0.3-1,0.8c0,0.1,0,0.2,0,0.3V279.3z"/>
	</g>
	<g>
		<path fill="#FFFFFF" d="M186.1,279.2c0,0.8,0.6,1.1,1.3,1.1c0.5,0,0.9-0.1,1.2-0.2l0.2,0.7c-0.4,0.2-0.9,0.3-1.5,0.3
			c-1.4,0-2.2-0.9-2.2-2.2c0-1.2,0.7-2.3,2.1-2.3c1.4,0,1.8,1.1,1.8,2.1c0,0.2,0,0.4,0,0.5H186.1z M188,278.5c0-0.4-0.2-1-0.9-1
			c-0.7,0-1,0.6-1,1H188z"/>
	</g>
	<g>
		<path fill="#FFFFFF" d="M190.2,280.1c0.2,0.1,0.7,0.3,1.1,0.3c0.5,0,0.7-0.2,0.7-0.5c0-0.3-0.2-0.4-0.7-0.6
			c-0.8-0.3-1.2-0.7-1.2-1.2c0-0.8,0.6-1.3,1.6-1.3c0.5,0,0.9,0.1,1.1,0.3l-0.2,0.8c-0.2-0.1-0.5-0.2-0.9-0.2
			c-0.4,0-0.6,0.2-0.6,0.5c0,0.3,0.2,0.4,0.7,0.6c0.8,0.3,1.1,0.7,1.1,1.3c0,0.8-0.6,1.3-1.7,1.3c-0.5,0-1-0.1-1.3-0.3L190.2,280.1z
			"/>
	</g>
	<g>
		<path fill="#FFFFFF" d="M28.3,290.6c0,0.4,0,0.8,0.1,1h-1l-0.1-0.5h0c-0.3,0.3-0.7,0.6-1.3,0.6c-0.9,0-1.3-0.6-1.3-1.3
			c0-1.1,1-1.6,2.5-1.6v-0.1c0-0.3-0.1-0.7-0.9-0.7c-0.4,0-0.9,0.1-1.2,0.3l-0.2-0.7c0.3-0.2,0.9-0.4,1.5-0.4c1.4,0,1.8,0.9,1.8,1.8
			V290.6z M27.2,289.6c-0.8,0-1.5,0.2-1.5,0.8c0,0.4,0.3,0.6,0.6,0.6c0.4,0,0.7-0.3,0.9-0.6c0-0.1,0-0.2,0-0.2V289.6z"/>
	</g>
	<g>
		<path fill="#FFFFFF" d="M29.8,285.4h1.1v6.3h-1.1V285.4z"/>
	</g>
	<g>
		<path fill="#FFFFFF" d="M36.4,289.5c0,1.6-1.1,2.3-2.2,2.3c-1.2,0-2.1-0.8-2.1-2.2c0-1.4,0.9-2.3,2.2-2.3
			C35.6,287.3,36.4,288.2,36.4,289.5z M33.2,289.5c0,0.8,0.4,1.5,1.1,1.5c0.6,0,1-0.6,1-1.5c0-0.7-0.3-1.4-1-1.4
			C33.5,288,33.2,288.8,33.2,289.5z"/>
	</g>
	<g>
		<path fill="#FFFFFF" d="M37.7,288.6c0-0.5,0-0.9,0-1.3h0.9l0.1,0.6h0c0.2-0.3,0.7-0.7,1.4-0.7c0.7,0,1.5,0.5,1.5,1.8v2.5h-1.1
			v-2.4c0-0.6-0.2-1.1-0.8-1.1c-0.4,0-0.7,0.3-0.8,0.6c0,0.1-0.1,0.2-0.1,0.3v2.5h-1.1V288.6z"/>
	</g>
	<g>
		<path fill="#FFFFFF" d="M43.8,289.8c0,0.8,0.6,1.1,1.3,1.1c0.5,0,0.9-0.1,1.2-0.2l0.2,0.7c-0.4,0.2-0.9,0.3-1.5,0.3
			c-1.4,0-2.2-0.9-2.2-2.2c0-1.2,0.7-2.3,2.1-2.3c1.4,0,1.8,1.1,1.8,2.1c0,0.2,0,0.4,0,0.5H43.8z M45.7,289c0-0.4-0.2-1-0.9-1
			c-0.7,0-1,0.6-1,1H45.7z"/>
	</g>
	<g>
		<path fill="#FFFFFF" d="M50.1,288.6c0-0.5,0-0.9,0-1.3H51l0.1,0.6h0c0.2-0.3,0.6-0.7,1.3-0.7c0.6,0,1,0.3,1.2,0.8h0
			c0.1-0.2,0.3-0.4,0.5-0.5c0.2-0.2,0.5-0.3,0.9-0.3c0.7,0,1.4,0.5,1.4,1.9v2.5h-1.1v-2.4c0-0.7-0.2-1.1-0.8-1.1
			c-0.4,0-0.6,0.3-0.8,0.6c0,0.1-0.1,0.2-0.1,0.4v2.6h-1.1v-2.5c0-0.6-0.2-1-0.7-1c-0.4,0-0.7,0.3-0.8,0.6c0,0.1-0.1,0.2-0.1,0.4
			v2.5h-1.1V288.6z"/>
	</g>
	<g>
		<path fill="#FFFFFF" d="M61.3,290.6c0,0.4,0,0.8,0.1,1h-1l-0.1-0.5h0c-0.3,0.3-0.7,0.6-1.3,0.6c-0.9,0-1.3-0.6-1.3-1.3
			c0-1.1,1-1.6,2.5-1.6v-0.1c0-0.3-0.1-0.7-0.9-0.7c-0.4,0-0.9,0.1-1.2,0.3l-0.2-0.7c0.3-0.2,0.9-0.4,1.5-0.4c1.4,0,1.8,0.9,1.8,1.8
			V290.6z M60.2,289.6c-0.8,0-1.5,0.2-1.5,0.8c0,0.4,0.3,0.6,0.6,0.6c0.4,0,0.7-0.3,0.9-0.6c0-0.1,0-0.2,0-0.2V289.6z"/>
	</g>
	<g>
		<path fill="#FFFFFF" d="M63.9,289.2L63.9,289.2c0.1-0.2,0.2-0.4,0.4-0.5l1-1.4h1.3l-1.6,1.8l1.8,2.5h-1.3l-1.2-1.9l-0.4,0.4v1.5
			h-1.1v-6.3h1.1V289.2z"/>
	</g>
	<g>
		<path fill="#FFFFFF" d="M68.3,289.8c0,0.8,0.6,1.1,1.3,1.1c0.5,0,0.9-0.1,1.2-0.2l0.2,0.7c-0.4,0.2-0.9,0.3-1.5,0.3
			c-1.4,0-2.2-0.9-2.2-2.2c0-1.2,0.7-2.3,2.1-2.3c1.4,0,1.8,1.1,1.8,2.1c0,0.2,0,0.4,0,0.5H68.3z M70.2,289c0-0.4-0.2-1-0.9-1
			c-0.7,0-1,0.6-1,1H70.2z"/>
	</g>
	<g>
		<path fill="#FFFFFF" d="M72.4,290.6c0.2,0.1,0.7,0.3,1.1,0.3c0.5,0,0.7-0.2,0.7-0.5c0-0.3-0.2-0.4-0.7-0.6
			c-0.8-0.3-1.2-0.7-1.2-1.2c0-0.8,0.6-1.3,1.6-1.3c0.5,0,0.9,0.1,1.1,0.3l-0.2,0.8c-0.2-0.1-0.5-0.2-0.9-0.2
			c-0.4,0-0.6,0.2-0.6,0.5c0,0.3,0.2,0.4,0.7,0.6c0.8,0.3,1.1,0.7,1.1,1.3c0,0.8-0.6,1.3-1.7,1.3c-0.5,0-1-0.1-1.3-0.3L72.4,290.6z"
			/>
	</g>
	<g>
		<path fill="#FFFFFF" d="M78.6,285.4h1.1v2.5h0c0.1-0.2,0.3-0.4,0.5-0.5c0.2-0.1,0.5-0.2,0.7-0.2c0.7,0,1.5,0.5,1.5,1.9v2.5h-1.1
			v-2.4c0-0.6-0.2-1.1-0.8-1.1c-0.4,0-0.7,0.3-0.8,0.6c0,0.1,0,0.2,0,0.3v2.6h-1.1V285.4z"/>
	</g>
	<g>
		<path fill="#FFFFFF" d="M85.2,286.2c0,0.3-0.2,0.6-0.6,0.6c-0.4,0-0.6-0.3-0.6-0.6c0-0.3,0.2-0.6,0.6-0.6
			C85,285.6,85.2,285.8,85.2,286.2z M84,291.6v-4.3h1.1v4.3H84z"/>
	</g>
	<g>
		<path fill="#FFFFFF" d="M86.6,288.6c0-0.5,0-0.9,0-1.3h0.9l0.1,0.6h0c0.2-0.3,0.6-0.7,1.3-0.7c0.6,0,1,0.3,1.2,0.8h0
			c0.1-0.2,0.3-0.4,0.5-0.5c0.2-0.2,0.5-0.3,0.9-0.3c0.7,0,1.4,0.5,1.4,1.9v2.5h-1.1v-2.4c0-0.7-0.2-1.1-0.8-1.1
			c-0.4,0-0.6,0.3-0.8,0.6c0,0.1-0.1,0.2-0.1,0.4v2.6h-1.1v-2.5c0-0.6-0.2-1-0.7-1c-0.4,0-0.7,0.3-0.8,0.6c0,0.1-0.1,0.2-0.1,0.4
			v2.5h-1.1V288.6z"/>
	</g>
	<g>
		<path fill="#FFFFFF" d="M96.8,291.6v-3.5h-0.6v-0.8h0.6v-0.2c0-0.6,0.1-1.1,0.5-1.5c0.3-0.3,0.7-0.4,1.1-0.4
			c0.3,0,0.5,0.1,0.7,0.1l-0.1,0.8c-0.1,0-0.3-0.1-0.5-0.1c-0.5,0-0.7,0.4-0.7,1v0.2h0.9v0.8h-0.9v3.5H96.8z"/>
	</g>
	<g>
		<path fill="#FFFFFF" d="M100.5,289.8c0,0.8,0.6,1.1,1.3,1.1c0.5,0,0.9-0.1,1.2-0.2l0.2,0.7c-0.4,0.2-0.9,0.3-1.5,0.3
			c-1.4,0-2.2-0.9-2.2-2.2c0-1.2,0.7-2.3,2.1-2.3c1.4,0,1.8,1.1,1.8,2.1c0,0.2,0,0.4,0,0.5H100.5z M102.3,289c0-0.4-0.2-1-0.9-1
			c-0.7,0-1,0.6-1,1H102.3z"/>
	</g>
	<g>
		<path fill="#FFFFFF" d="M105.4,289.8c0,0.8,0.6,1.1,1.3,1.1c0.5,0,0.9-0.1,1.2-0.2l0.2,0.7c-0.4,0.2-0.9,0.3-1.5,0.3
			c-1.4,0-2.2-0.9-2.2-2.2c0-1.2,0.7-2.3,2.1-2.3c1.4,0,1.8,1.1,1.8,2.1c0,0.2,0,0.4,0,0.5H105.4z M107.2,289c0-0.4-0.2-1-0.9-1
			c-0.7,0-1,0.6-1,1H107.2z"/>
	</g>
	<g>
		<path fill="#FFFFFF" d="M109.5,285.4h1.1v6.3h-1.1V285.4z"/>
	</g>
	<g>
		<path fill="#FFFFFF" d="M117.6,290.6c0,0.4,0,0.8,0.1,1h-1l-0.1-0.5h0c-0.3,0.3-0.7,0.6-1.3,0.6c-0.9,0-1.3-0.6-1.3-1.3
			c0-1.1,1-1.6,2.5-1.6v-0.1c0-0.3-0.1-0.7-0.9-0.7c-0.4,0-0.9,0.1-1.2,0.3l-0.2-0.7c0.3-0.2,0.9-0.4,1.5-0.4c1.4,0,1.8,0.9,1.8,1.8
			V290.6z M116.5,289.6c-0.8,0-1.5,0.2-1.5,0.8c0,0.4,0.3,0.6,0.6,0.6c0.4,0,0.7-0.3,0.9-0.6c0-0.1,0-0.2,0-0.2V289.6z"/>
	</g>
	<g>
		<path fill="#FFFFFF" d="M121.3,285.4h1.1v6.3h-1.1V285.4z"/>
	</g>
	<g>
		<path fill="#FFFFFF" d="M125,286.2c0,0.3-0.2,0.6-0.6,0.6c-0.4,0-0.6-0.3-0.6-0.6c0-0.3,0.2-0.6,0.6-0.6
			C124.8,285.6,125,285.8,125,286.2z M123.9,291.6v-4.3h1.1v4.3H123.9z"/>
	</g>
	<g>
		<path fill="#FFFFFF" d="M127.7,286.3v1.1h1v0.8h-1v1.9c0,0.5,0.1,0.8,0.6,0.8c0.2,0,0.3,0,0.4,0l0,0.8c-0.2,0.1-0.4,0.1-0.8,0.1
			c-0.4,0-0.7-0.1-0.9-0.4c-0.2-0.2-0.3-0.6-0.3-1.2v-2h-0.6v-0.8h0.6v-0.8L127.7,286.3z"/>
	</g>
	<g>
		<path fill="#FFFFFF" d="M131.2,286.3v1.1h1v0.8h-1v1.9c0,0.5,0.1,0.8,0.6,0.8c0.2,0,0.3,0,0.4,0l0,0.8c-0.2,0.1-0.4,0.1-0.8,0.1
			c-0.4,0-0.7-0.1-0.9-0.4c-0.2-0.2-0.3-0.6-0.3-1.2v-2h-0.6v-0.8h0.6v-0.8L131.2,286.3z"/>
	</g>
	<g>
		<path fill="#FFFFFF" d="M133.4,285.4h1.1v6.3h-1.1V285.4z"/>
	</g>
	<g>
		<path fill="#FFFFFF" d="M136.8,289.8c0,0.8,0.6,1.1,1.3,1.1c0.5,0,0.9-0.1,1.2-0.2l0.2,0.7c-0.4,0.2-0.9,0.3-1.5,0.3
			c-1.4,0-2.2-0.9-2.2-2.2c0-1.2,0.7-2.3,2.1-2.3c1.4,0,1.8,1.1,1.8,2.1c0,0.2,0,0.4,0,0.5H136.8z M138.6,289c0-0.4-0.2-1-0.9-1
			c-0.7,0-1,0.6-1,1H138.6z"/>
	</g>
	<g>
		<path fill="#FFFFFF" d="M143.1,285.4h1.1v6.3h-1.1V285.4z"/>
	</g>
	<g>
		<path fill="#FFFFFF" d="M149.8,289.5c0,1.6-1.1,2.3-2.2,2.3c-1.2,0-2.1-0.8-2.1-2.2c0-1.4,0.9-2.3,2.2-2.3
			C148.9,287.3,149.8,288.2,149.8,289.5z M146.5,289.5c0,0.8,0.4,1.5,1.1,1.5c0.6,0,1-0.6,1-1.5c0-0.7-0.3-1.4-1-1.4
			C146.8,288,146.5,288.8,146.5,289.5z"/>
	</g>
	<g>
		<path fill="#FFFFFF" d="M151,288.6c0-0.5,0-0.9,0-1.3h0.9l0.1,0.6h0c0.2-0.3,0.7-0.7,1.4-0.7c0.7,0,1.5,0.5,1.5,1.8v2.5h-1.1v-2.4
			c0-0.6-0.2-1.1-0.8-1.1c-0.4,0-0.7,0.3-0.8,0.6c0,0.1-0.1,0.2-0.1,0.3v2.5H151V288.6z"/>
	</g>
	<g>
		<path fill="#FFFFFF" d="M157.1,289.8c0,0.8,0.6,1.1,1.3,1.1c0.5,0,0.9-0.1,1.2-0.2l0.2,0.7c-0.4,0.2-0.9,0.3-1.5,0.3
			c-1.4,0-2.2-0.9-2.2-2.2c0-1.2,0.7-2.3,2.1-2.3c1.4,0,1.8,1.1,1.8,2.1c0,0.2,0,0.4,0,0.5H157.1z M159,289c0-0.4-0.2-1-0.9-1
			c-0.7,0-1,0.6-1,1H159z"/>
	</g>
	<g>
		<path fill="#FFFFFF" d="M161.3,285.4h1.1v6.3h-1.1V285.4z"/>
	</g>
	<g>
		<path fill="#FFFFFF" d="M164.6,287.4l0.8,2.3c0.1,0.3,0.2,0.6,0.2,0.8h0c0.1-0.2,0.1-0.6,0.2-0.8l0.7-2.3h1.2l-1.1,2.9
			c-0.6,1.6-1,2.3-1.5,2.8c-0.4,0.4-0.9,0.5-1.1,0.5l-0.2-0.9c0.2,0,0.4-0.1,0.6-0.3c0.2-0.1,0.4-0.4,0.6-0.7c0-0.1,0.1-0.1,0.1-0.2
			c0,0,0-0.1-0.1-0.2l-1.6-3.9H164.6z"/>
	</g>
	<g>
		<path fill="#FFFFFF" d="M168.1,291c0-0.4,0.3-0.7,0.7-0.7c0.4,0,0.7,0.3,0.7,0.7c0,0.4-0.3,0.7-0.7,0.7
			C168.4,291.7,168.1,291.4,168.1,291z"/>
	</g>
</g>
</svg>
