<?xml version="1.0" encoding="utf-8"?>
<!-- Generator: Adobe Illustrator 19.2.1, SVG Export Plug-In . SVG Version: 6.00 Build 0)  -->
<svg version="1.1" id="Layer_1" xmlns="http://www.w3.org/2000/svg" xmlns:xlink="http://www.w3.org/1999/xlink" x="0px" y="0px"
	 viewBox="0 0 790 390" enable-background="new 0 0 790 390" xml:space="preserve">
<g>
	<g>
		<rect x="0" y="0" fill="#6FB6C6" width="790" height="389.6"/>
	</g>
</g>
<g>
	<g>
		<g>
			<path fill="#FFFFFF" d="M23.6,22.2c0.7-0.1,1.7-0.2,3.1-0.2c1.4,0,2.4,0.3,3.1,0.8c0.7,0.5,1.1,1.3,1.1,2.3c0,1-0.3,1.8-0.9,2.4
				c-0.8,0.7-1.9,1.1-3.3,1.1c-0.3,0-0.6,0-0.8-0.1v3.6h-2.3V22.2z M25.9,26.8c0.2,0,0.4,0.1,0.8,0.1c1.2,0,2-0.6,2-1.6
				c0-0.9-0.6-1.5-1.8-1.5c-0.5,0-0.8,0-0.9,0.1V26.8z"/>
		</g>
		<g>
			<path fill="#FFFFFF" d="M33.6,29.2c0.1,0.9,1,1.4,2.1,1.4c0.8,0,1.4-0.1,2-0.3l0.3,1.5c-0.8,0.3-1.7,0.5-2.7,0.5
				c-2.5,0-3.9-1.4-3.9-3.7c0-1.9,1.2-3.9,3.7-3.9c2.4,0,3.3,1.8,3.3,3.7c0,0.4,0,0.7-0.1,0.9H33.6z M36.3,27.7
				c0-0.6-0.2-1.5-1.3-1.5c-1,0-1.4,0.9-1.4,1.5H36.3z"/>
		</g>
		<g>
			<path fill="#FFFFFF" d="M39.8,27.2c0-1.1,0-1.8-0.1-2.4h1.9l0.1,1.3h0.1c0.4-1.1,1.3-1.5,2-1.5c0.2,0,0.3,0,0.5,0v2.1
				c-0.2,0-0.4-0.1-0.6-0.1c-0.8,0-1.4,0.5-1.6,1.2c0,0.2,0,0.3,0,0.5v3.7h-2.3V27.2z"/>
		</g>
		<g>
			<path fill="#FFFFFF" d="M45.5,30.2c0.4,0.3,1.3,0.5,2,0.5c0.7,0,1-0.2,1-0.6c0-0.4-0.2-0.6-1.1-0.9c-1.5-0.5-2.1-1.3-2.1-2.2
				c0-1.4,1.2-2.4,3-2.4c0.9,0,1.6,0.2,2.1,0.4l-0.4,1.6c-0.3-0.2-1-0.4-1.6-0.4c-0.6,0-0.9,0.2-0.9,0.6s0.3,0.5,1.2,0.9
				c1.4,0.5,2,1.2,2,2.3c0,1.4-1.1,2.4-3.2,2.4c-1,0-1.8-0.2-2.4-0.5L45.5,30.2z"/>
		</g>
		<g>
			<path fill="#FFFFFF" d="M59.2,28.4c0,2.7-1.9,3.9-3.9,3.9c-2.1,0-3.8-1.4-3.8-3.8c0-2.4,1.6-3.9,3.9-3.9
				C57.7,24.7,59.2,26.2,59.2,28.4z M53.9,28.5c0,1.3,0.5,2.2,1.5,2.2c0.9,0,1.5-0.9,1.5-2.2c0-1.1-0.4-2.2-1.5-2.2
				C54.4,26.3,53.9,27.4,53.9,28.5z"/>
		</g>
		<g>
			<path fill="#FFFFFF" d="M60.7,27.2c0-0.9,0-1.7-0.1-2.3h2l0.1,1h0c0.3-0.5,1-1.2,2.3-1.2c1.5,0,2.6,1,2.6,3.2v4.3h-2.3v-4.1
				c0-0.9-0.3-1.6-1.2-1.6c-0.6,0-1,0.4-1.2,0.9c-0.1,0.2-0.1,0.4-0.1,0.6v4.2h-2.3V27.2z"/>
		</g>
		<g>
			<path fill="#FFFFFF" d="M75.5,30.4c0,0.7,0,1.4,0.1,1.8h-2.1l-0.1-0.7h0c-0.5,0.6-1.2,0.9-2.1,0.9c-1.5,0-2.4-1.1-2.4-2.2
				c0-1.9,1.7-2.8,4.3-2.8v-0.1c0-0.4-0.2-1-1.3-1c-0.8,0-1.5,0.3-2,0.6l-0.4-1.5c0.5-0.3,1.5-0.7,2.9-0.7c2.4,0,3.2,1.4,3.2,3.2
				V30.4z M73.3,28.7c-1.2,0-2.1,0.3-2.1,1.2c0,0.6,0.4,0.9,0.9,0.9c0.6,0,1-0.4,1.2-0.8c0-0.1,0-0.3,0-0.4V28.7z"/>
		</g>
		<g>
			<path fill="#FFFFFF" d="M33,47.2c0,4-1.6,6.8-4.9,6.8c-3.4,0-4.8-3-4.9-6.7c0-3.8,1.6-6.7,4.9-6.7C31.7,40.5,33,43.6,33,47.2z
				 M26.3,47.3c0,3,0.7,4.4,1.9,4.4c1.2,0,1.8-1.5,1.8-4.4c0-2.9-0.6-4.4-1.8-4.4C27.1,42.8,26.3,44.2,26.3,47.3z"/>
		</g>
		<g>
			<path fill="#FFFFFF" d="M38.4,43.5L38.4,43.5l-2.5,1.2l-0.5-2.3l3.5-1.6h2.5v13h-2.9V43.5z"/>
		</g>
	</g>
</g>
<g>
	<g>
		<path fill="#FFFFFF" d="M42.5,67.2H24.2c-0.6,0-1-0.4-1-1s0.4-1,1-1h18.2c0.6,0,1,0.4,1,1S43,67.2,42.5,67.2z"/>
	</g>
</g>
<g>
	<g>
		<g>
			<g>
				<g>
					<g>
						<path fill="#FFFFFF" d="M180.6,347.8c-1.8,0-3.3-1.5-3.3-3.3v-88.3c0-1.8,1.5-3.3,3.3-3.3c1.8,0,3.3,1.5,3.3,3.3v88.3
							C183.9,346.3,182.4,347.8,180.6,347.8z"/>
					</g>
				</g>
			</g>
		</g>
		<g>
			<g>
				<g>
					<g>
						<path fill="#FFFFFF" d="M209.2,348.5c-1.8,0-3.3-1.5-3.3-3.3v-89.8c0-1.8,1.5-3.3,3.3-3.3c1.8,0,3.3,1.5,3.3,3.3v89.8
							C212.6,347,211.1,348.5,209.2,348.5z"/>
					</g>
				</g>
			</g>
		</g>
	</g>
	<g>
		<g>
			<g>
				<g>
					<path fill="#6FB6C6" d="M194.9,258L194.9,258c-35.3,0-64-28.6-64-64v-85.7c0-35.3,28.6-64,64-64h0c35.3,0,64,28.6,64,64v85.7
						C258.9,229.4,230.2,258,194.9,258z"/>
				</g>
			</g>
		</g>
		<g>
			<g>
				<g>
					<path fill="#FFFFFF" d="M194.9,261.4c-37.1,0-67.3-30.2-67.3-67.3v-85.7c0-37.1,30.2-67.3,67.3-67.3s67.3,30.2,67.3,67.3v85.7
						C262.2,231.2,232,261.4,194.9,261.4z M194.9,47.8c-33.4,0-60.6,27.2-60.6,60.6v85.7c0,33.4,27.2,60.6,60.6,60.6
						s60.6-27.2,60.6-60.6v-85.7C255.5,75,228.3,47.8,194.9,47.8z"/>
				</g>
			</g>
		</g>
	</g>
	<g>
		<g>
			<g>
				<g>
					<g>
						<path fill="#FFFFFF" d="M191.9,160.9c-15.3,0-23.7-6.6-24-6.9l1-1.3c0.1,0.1,9.6,7.5,26.5,6.4c17.1-1.1,25.3-9.6,25.4-9.7
							l1.2,1.1c-0.3,0.4-8.7,9.1-26.5,10.3C194.2,160.9,193,160.9,191.9,160.9z"/>
					</g>
				</g>
			</g>
		</g>
		<g>
			<g>
				<g>
					<g>
						<path fill="#FFFFFF" d="M186,169.3l-0.1-9.3l6.8-0.1l0.1,9.3L186,169.3z M187.6,161.7l0.1,5.9l3.5,0l-0.1-5.9L187.6,161.7z"/>
					</g>
				</g>
			</g>
		</g>
		<g>
			<g>
				<g>
					<g>
						<path fill="#FFFFFF" d="M196.4,168.6l-0.1-9.3l6.5-0.1l0.1,9.3L196.4,168.6z M198,161l0.1,5.9l3.2,0l-0.1-5.9L198,161z"/>
					</g>
				</g>
			</g>
		</g>
	</g>
	<g>
		<g>
			<g>
				<g>
					<g>
						<path fill="#FFFFFF" d="M194.9,145.4c-21.5,0-38.9-17.5-38.9-38.9c0-21.5,17.5-38.9,38.9-38.9s38.9,17.5,38.9,38.9
							C233.8,127.9,216.4,145.4,194.9,145.4z M194.9,74.3c-17.7,0-32.1,14.4-32.1,32.1s14.4,32.1,32.1,32.1s32.1-14.4,32.1-32.1
							S212.6,74.3,194.9,74.3z"/>
					</g>
				</g>
			</g>
		</g>
		<g>
			<g>
				<g>
					<g>
						<path fill="#FFFFFF" d="M194.9,129c-12.5,0-22.6-10.1-22.6-22.6c0-12.4,10.1-22.6,22.6-22.6c12.4,0,22.6,10.1,22.6,22.6
							C217.5,118.9,207.4,129,194.9,129z M194.9,85.5c-11.5,0-20.9,9.4-20.9,20.9c0,11.5,9.4,20.9,20.9,20.9
							c11.5,0,20.9-9.4,20.9-20.9C215.8,94.9,206.4,85.5,194.9,85.5z"/>
					</g>
				</g>
			</g>
		</g>
		<g>
			<g>
				<g>
					<g>
						<path fill="#FFFFFF" d="M194.9,123.3c-9.3,0-16.9-7.6-16.9-16.9c0-9.3,7.6-16.9,16.9-16.9c9.3,0,16.9,7.6,16.9,16.9
							C211.8,115.7,204.2,123.3,194.9,123.3z M194.9,91.2c-8.4,0-15.2,6.8-15.2,15.2s6.8,15.2,15.2,15.2c8.4,0,15.2-6.8,15.2-15.2
							S203.3,91.2,194.9,91.2z"/>
					</g>
				</g>
			</g>
		</g>
		<g>
			<g>
				<g>
					<g>
						<circle fill="#FFFFFF" cx="187.3" cy="90.4" r="11.3"/>
					</g>
				</g>
			</g>
		</g>
	</g>
	<g>
		<g>
			<g>
				<g>
					<g>
						<path fill="#FFFFFF" d="M265.3,231.2c-0.4,0-0.9-0.1-1.3-0.2c-1-0.4-1.8-1.3-2-2.4l-6.5-32.4c-0.4-1.8,0.8-3.6,2.6-3.9
							c1.8-0.4,3.6,0.8,3.9,2.6l5.5,27.4l32.9-22.5c1.5-1,3.6-0.6,4.6,0.9c1,1.5,0.6,3.6-0.9,4.6l-37.1,25.3
							C266.6,231,265.9,231.2,265.3,231.2z"/>
					</g>
				</g>
			</g>
		</g>
		<g>
			<g>
				<g>
					<g>
						
							<ellipse transform="matrix(0.9172 -0.3985 0.3985 0.9172 -55.6657 137.2798)" fill="#F2A15E" cx="302.4" cy="202.5" rx="7.7" ry="7.7"/>
					</g>
				</g>
			</g>
		</g>
	</g>
	<g>
		<g>
			<g>
				<path fill="#FFFFFF" d="M130.9,264c-1.4,0-2.6-1.2-2.6-2.6v-69.2c0-1.4,1.2-2.6,2.6-2.6s2.6,1.2,2.6,2.6v69.2
					C133.5,262.8,132.4,264,130.9,264z"/>
			</g>
		</g>
		<g>
			<g>
				<g>
					<g>
						<g>
							<circle fill="#F2A15E" cx="130.9" cy="263.4" r="7.7"/>
						</g>
					</g>
				</g>
			</g>
		</g>
	</g>
</g>
<g>
	<g>
		<g>
			<g>
				<path fill="#FFFFFF" d="M402.6,114v-7.4h1.6l1.9,3.2c0.5,0.8,0.9,1.7,1.3,2.5h0c-0.1-1-0.1-1.9-0.1-3.1v-2.6h1.3v7.4h-1.4
					l-1.9-3.3c-0.5-0.8-1-1.7-1.3-2.6l0,0c0.1,1,0.1,1.9,0.1,3.2v2.7H402.6z"/>
			</g>
			<g>
				<path fill="#FFFFFF" d="M414.1,112.7c0,0.5,0,1,0.1,1.3H413l-0.1-0.6h0c-0.3,0.4-0.9,0.7-1.6,0.7c-1.1,0-1.7-0.8-1.7-1.6
					c0-1.3,1.2-2,3.2-2v-0.1c0-0.4-0.1-0.9-1.1-0.9c-0.5,0-1.1,0.2-1.4,0.4L410,109c0.4-0.2,1.1-0.5,1.9-0.5c1.7,0,2.2,1.1,2.2,2.3
					V112.7z M412.8,111.4c-1,0-1.9,0.2-1.9,1c0,0.5,0.3,0.8,0.8,0.8c0.6,0,0.9-0.4,1.1-0.7c0-0.1,0-0.2,0-0.3V111.4z"/>
			</g>
			<g>
				<path fill="#FFFFFF" d="M415.6,110.2c0-0.6,0-1.1,0-1.6h1.2l0.1,0.8h0c0.3-0.4,0.7-0.9,1.7-0.9c0.7,0,1.3,0.4,1.5,1h0
					c0.2-0.3,0.4-0.5,0.6-0.7c0.3-0.2,0.6-0.3,1.1-0.3c0.9,0,1.8,0.6,1.8,2.3v3.2h-1.3v-3c0-0.9-0.3-1.4-1-1.4
					c-0.5,0-0.8,0.3-0.9,0.7c0,0.1-0.1,0.3-0.1,0.5v3.2h-1.3v-3.1c0-0.7-0.3-1.3-0.9-1.3c-0.5,0-0.8,0.4-1,0.8
					c0,0.1-0.1,0.3-0.1,0.5v3.2h-1.3V110.2z"/>
			</g>
			<g>
				<path fill="#FFFFFF" d="M425.8,111.7c0,1,0.8,1.4,1.6,1.4c0.6,0,1.1-0.1,1.5-0.2l0.2,0.9c-0.5,0.2-1.1,0.3-1.9,0.3
					c-1.7,0-2.8-1.1-2.8-2.7c0-1.5,0.9-2.9,2.6-2.9c1.7,0,2.3,1.4,2.3,2.6c0,0.3,0,0.5,0,0.6H425.8z M428.2,110.7
					c0-0.5-0.2-1.3-1.1-1.3c-0.8,0-1.2,0.8-1.2,1.3H428.2z"/>
			</g>
			<g>
				<path fill="#FFFFFF" d="M430.4,109.5c0-0.5,0.3-0.9,0.8-0.9s0.8,0.4,0.8,0.9c0,0.5-0.3,0.9-0.8,0.9
					C430.7,110.4,430.4,110,430.4,109.5z M430.4,113.3c0-0.5,0.3-0.9,0.8-0.9s0.8,0.4,0.8,0.9c0,0.5-0.3,0.9-0.8,0.9
					C430.7,114.1,430.4,113.7,430.4,113.3z"/>
			</g>
			<g>
				<path fill="#FFFFFF" d="M517.2,112.5c0.4,0.3,1.1,0.5,1.8,0.5c0.9,0,1.3-0.4,1.3-1c0-0.6-0.4-0.9-1.3-1.2c-1.2-0.4-2-1.1-2-2.2
					c0-1.2,1-2.1,2.6-2.1c0.8,0,1.4,0.2,1.8,0.4l-0.3,1.1c-0.3-0.1-0.8-0.4-1.5-0.4c-0.9,0-1.2,0.5-1.2,0.9c0,0.6,0.4,0.8,1.4,1.2
					c1.3,0.5,1.9,1.1,1.9,2.2c0,1.2-0.9,2.2-2.8,2.2c-0.8,0-1.6-0.2-2-0.5L517.2,112.5z"/>
			</g>
			<g>
				<path fill="#FFFFFF" d="M522.9,110.4c0-0.7,0-1.3,0-1.8h1.2l0.1,0.8h0c0.4-0.6,1-0.9,1.8-0.9c1.2,0,2.3,1.1,2.3,2.7
					c0,1.9-1.2,2.9-2.4,2.9c-0.7,0-1.2-0.3-1.5-0.7h0v2.8h-1.4V110.4z M524.2,111.7c0,0.1,0,0.3,0,0.4c0.1,0.5,0.6,0.9,1.2,0.9
					c0.9,0,1.4-0.7,1.4-1.8c0-0.9-0.5-1.7-1.3-1.7c-0.6,0-1.1,0.4-1.2,1c0,0.1,0,0.2,0,0.3V111.7z"/>
			</g>
			<g>
				<path fill="#FFFFFF" d="M534.4,111.3c0,2-1.4,2.8-2.8,2.8c-1.5,0-2.7-1-2.7-2.8c0-1.8,1.2-2.8,2.8-2.8
					C533.3,108.5,534.4,109.6,534.4,111.3z M530.4,111.3c0,1,0.5,1.8,1.3,1.8c0.8,0,1.3-0.7,1.3-1.8c0-0.8-0.4-1.8-1.3-1.8
					C530.7,109.5,530.4,110.4,530.4,111.3z"/>
			</g>
			<g>
				<path fill="#FFFFFF" d="M537.1,107.3v1.4h1.3v1h-1.3v2.4c0,0.7,0.2,1,0.7,1c0.2,0,0.4,0,0.5-0.1l0,1c-0.2,0.1-0.6,0.1-1,0.1
					c-0.5,0-0.9-0.2-1.2-0.4c-0.3-0.3-0.4-0.8-0.4-1.5v-2.5H535v-1h0.8v-1L537.1,107.3z"/>
			</g>
			<g>
				<path fill="#FFFFFF" d="M540.9,107.3v1.4h1.3v1h-1.3v2.4c0,0.7,0.2,1,0.7,1c0.2,0,0.4,0,0.5-0.1l0,1c-0.2,0.1-0.6,0.1-1,0.1
					c-0.5,0-0.9-0.2-1.2-0.4c-0.3-0.3-0.4-0.8-0.4-1.5v-2.5h-0.8v-1h0.8v-1L540.9,107.3z"/>
			</g>
			<g>
				<path fill="#FFFFFF" d="M544.2,108.6l1,2.9c0.1,0.3,0.2,0.7,0.3,1h0c0.1-0.3,0.2-0.7,0.3-1l0.8-2.9h1.4l-1.3,3.7
					c-0.7,2-1.2,2.9-1.9,3.4c-0.5,0.5-1.1,0.6-1.4,0.7l-0.3-1.1c0.2-0.1,0.5-0.2,0.8-0.4c0.3-0.2,0.6-0.5,0.7-0.8
					c0.1-0.1,0.1-0.2,0.1-0.2c0-0.1,0-0.1-0.1-0.3l-2-4.9H544.2z"/>
			</g>
			<g>
				<path fill="#FFFFFF" d="M404.1,128.8l-0.6,2.1H402l2.4-7.4h1.7l2.4,7.4h-1.5l-0.7-2.1H404.1z M406.2,127.8l-0.6-1.8
					c-0.1-0.5-0.3-1-0.4-1.4h0c-0.1,0.4-0.2,0.9-0.4,1.4l-0.6,1.8H406.2z"/>
			</g>
			<g>
				<path fill="#FFFFFF" d="M414.2,130.1c0,1.1-0.2,1.9-0.8,2.4c-0.6,0.5-1.3,0.6-2.1,0.6c-0.7,0-1.4-0.2-1.9-0.4l0.3-1
					c0.3,0.2,0.9,0.4,1.6,0.4c0.9,0,1.5-0.5,1.5-1.6v-0.5h0c-0.3,0.5-0.8,0.8-1.6,0.8c-1.3,0-2.3-1.1-2.3-2.6c0-1.8,1.1-2.8,2.4-2.8
					c0.8,0,1.3,0.4,1.6,0.8h0l0.1-0.7h1.2c0,0.4,0,0.8,0,1.5V130.1z M412.9,127.7c0-0.1,0-0.3,0-0.4c-0.1-0.5-0.5-0.9-1.1-0.9
					c-0.8,0-1.3,0.7-1.3,1.7c0,0.9,0.5,1.7,1.3,1.7c0.5,0,0.9-0.3,1.1-0.8c0-0.1,0.1-0.3,0.1-0.5V127.7z"/>
			</g>
			<g>
				<path fill="#FFFFFF" d="M416.6,128.6c0,1,0.8,1.4,1.6,1.4c0.6,0,1.1-0.1,1.5-0.2l0.2,0.9c-0.5,0.2-1.1,0.3-1.9,0.3
					c-1.7,0-2.8-1.1-2.8-2.7c0-1.5,0.9-2.9,2.6-2.9c1.7,0,2.3,1.4,2.3,2.6c0,0.3,0,0.5,0,0.6H416.6z M419,127.6
					c0-0.5-0.2-1.3-1.1-1.3c-0.8,0-1.2,0.8-1.2,1.3H419z"/>
			</g>
			<g>
				<path fill="#FFFFFF" d="M421.2,126.4c0-0.5,0.3-0.9,0.8-0.9s0.8,0.4,0.8,0.9c0,0.5-0.3,0.9-0.8,0.9
					C421.5,127.3,421.2,126.9,421.2,126.4z M421.2,130.1c0-0.5,0.3-0.9,0.8-0.9s0.8,0.4,0.8,0.9c0,0.5-0.3,0.9-0.8,0.9
					C421.5,131,421.2,130.6,421.2,130.1z"/>
			</g>
			<g>
				<path fill="#FFFFFF" d="M519,124.9L519,124.9l-1.3,0.7l-0.2-1l1.7-0.9h1.1v7.2H519V124.9z"/>
			</g>
			<g>
				<path fill="#FFFFFF" d="M524,127.1c-0.7-0.4-1.1-1-1.1-1.6c0-1.2,1-2,2.4-2c1.6,0,2.2,0.9,2.2,1.8c0,0.6-0.3,1.2-1.1,1.6v0
					c0.8,0.3,1.4,0.9,1.4,1.8c0,1.3-1.1,2.1-2.6,2.1c-1.7,0-2.5-1-2.5-2C522.7,128.1,523.2,127.5,524,127.1L524,127.1z M526.5,129
					c0-0.7-0.5-1.1-1.3-1.3c-0.7,0.2-1.1,0.7-1.1,1.2c0,0.6,0.4,1.2,1.2,1.2C526,130,526.5,129.6,526.5,129z M524.2,125.5
					c0,0.6,0.5,0.9,1.2,1.1c0.5-0.1,0.9-0.5,0.9-1.1c0-0.5-0.3-1-1-1C524.6,124.5,524.2,125,524.2,125.5z"/>
			</g>
			<g>
				<path fill="#FFFFFF" d="M409.2,144c0,2.5-1.5,3.9-3.5,3.9c-2.1,0-3.4-1.6-3.4-3.8c0-2.3,1.4-3.9,3.5-3.9
					C407.9,140.2,409.2,141.9,409.2,144z M403.6,144.1c0,1.5,0.8,2.7,2.1,2.7c1.3,0,2-1.2,2-2.8c0-1.4-0.7-2.7-2-2.7
					C404.3,141.3,403.6,142.6,403.6,144.1z"/>
			</g>
			<g>
				<path fill="#FFFFFF" d="M414.2,147.6c-0.3,0.1-0.8,0.3-1.5,0.3c-1.7,0-2.8-1.1-2.8-2.7c0-1.6,1.1-2.8,3-2.8c0.5,0,1,0.1,1.3,0.2
					l-0.2,1c-0.2-0.1-0.5-0.2-1-0.2c-1,0-1.6,0.8-1.6,1.7c0,1.1,0.7,1.7,1.6,1.7c0.5,0,0.8-0.1,1.1-0.2L414.2,147.6z"/>
			</g>
			<g>
				<path fill="#FFFFFF" d="M419.1,147.6c-0.3,0.1-0.8,0.3-1.5,0.3c-1.7,0-2.8-1.1-2.8-2.7c0-1.6,1.1-2.8,3-2.8c0.5,0,1,0.1,1.3,0.2
					l-0.2,1c-0.2-0.1-0.5-0.2-1-0.2c-1,0-1.6,0.8-1.6,1.7c0,1.1,0.7,1.7,1.6,1.7c0.5,0,0.8-0.1,1.1-0.2L419.1,147.6z"/>
			</g>
			<g>
				<path fill="#FFFFFF" d="M424.9,146.2c0,0.6,0,1.2,0,1.6h-1.2l-0.1-0.8h0c-0.2,0.4-0.8,0.9-1.7,0.9s-1.9-0.6-1.9-2.3v-3.1h1.4
					v2.9c0,0.9,0.3,1.5,1,1.5c0.5,0,0.9-0.4,1-0.7c0.1-0.1,0.1-0.3,0.1-0.4v-3.2h1.4V146.2z"/>
			</g>
			<g>
				<path fill="#FFFFFF" d="M426.3,144.2c0-0.7,0-1.3,0-1.8h1.2l0.1,0.8h0c0.4-0.6,1-0.9,1.8-0.9c1.2,0,2.3,1.1,2.3,2.7
					c0,1.9-1.2,2.9-2.4,2.9c-0.7,0-1.2-0.3-1.5-0.7h0v2.8h-1.4V144.2z M427.7,145.5c0,0.1,0,0.3,0,0.4c0.1,0.5,0.6,0.9,1.2,0.9
					c0.9,0,1.4-0.7,1.4-1.8c0-0.9-0.5-1.7-1.3-1.7c-0.6,0-1.1,0.4-1.2,1c0,0.1,0,0.2,0,0.3V145.5z"/>
			</g>
			<g>
				<path fill="#FFFFFF" d="M436.9,146.5c0,0.5,0,1,0.1,1.3h-1.2l-0.1-0.6h0c-0.3,0.4-0.9,0.7-1.6,0.7c-1.1,0-1.7-0.8-1.7-1.6
					c0-1.3,1.2-2,3.2-2v-0.1c0-0.4-0.1-0.9-1.1-0.9c-0.5,0-1.1,0.2-1.4,0.4l-0.3-0.9c0.4-0.2,1.1-0.5,1.9-0.5c1.7,0,2.2,1.1,2.2,2.3
					V146.5z M435.6,145.2c-1,0-1.9,0.2-1.9,1c0,0.5,0.3,0.8,0.8,0.8c0.5,0,0.9-0.4,1.1-0.7c0-0.1,0-0.2,0-0.3V145.2z"/>
			</g>
			<g>
				<path fill="#FFFFFF" d="M439.8,141v1.4h1.3v1h-1.3v2.4c0,0.7,0.2,1,0.7,1c0.2,0,0.4,0,0.5-0.1l0,1c-0.2,0.1-0.6,0.1-1,0.1
					c-0.5,0-0.9-0.2-1.2-0.4c-0.3-0.3-0.4-0.8-0.4-1.5v-2.5h-0.8v-1h0.8v-1L439.8,141z"/>
			</g>
			<g>
				<path fill="#FFFFFF" d="M443.6,140.9c0,0.4-0.3,0.7-0.8,0.7c-0.5,0-0.7-0.3-0.7-0.7c0-0.4,0.3-0.7,0.8-0.7
					C443.3,140.2,443.6,140.5,443.6,140.9z M442.1,147.8v-5.4h1.4v5.4H442.1z"/>
			</g>
			<g>
				<path fill="#FFFFFF" d="M450,145c0,2-1.4,2.8-2.8,2.8c-1.5,0-2.7-1-2.7-2.8c0-1.8,1.2-2.8,2.8-2.8C449,142.3,450,143.4,450,145z
					 M446,145.1c0,1,0.5,1.8,1.3,1.8c0.8,0,1.3-0.7,1.3-1.8c0-0.8-0.4-1.8-1.3-1.8C446.4,143.3,446,144.2,446,145.1z"/>
			</g>
			<g>
				<path fill="#FFFFFF" d="M451.2,144c0-0.6,0-1.1,0-1.6h1.2l0.1,0.8h0c0.2-0.4,0.8-0.9,1.7-0.9c0.9,0,1.9,0.6,1.9,2.3v3.2h-1.4v-3
					c0-0.8-0.3-1.4-1-1.4c-0.5,0-0.9,0.4-1.1,0.8c0,0.1-0.1,0.3-0.1,0.4v3.2h-1.4V144z"/>
			</g>
			<g>
				<path fill="#FFFFFF" d="M457.3,143.3c0-0.5,0.3-0.9,0.8-0.9s0.8,0.4,0.8,0.9c0,0.5-0.3,0.9-0.8,0.9
					C457.6,144.2,457.3,143.8,457.3,143.3z M457.3,147c0-0.5,0.3-0.9,0.8-0.9s0.8,0.4,0.8,0.9c0,0.5-0.3,0.9-0.8,0.9
					C457.6,147.9,457.3,147.5,457.3,147z"/>
			</g>
			<g>
				<path fill="#FFFFFF" d="M517.2,146.3c0.4,0.3,1.1,0.5,1.8,0.5c0.9,0,1.3-0.4,1.3-1c0-0.6-0.4-0.9-1.3-1.2c-1.2-0.4-2-1.1-2-2.2
					c0-1.2,1-2.1,2.6-2.1c0.8,0,1.4,0.2,1.8,0.4l-0.3,1.1c-0.3-0.1-0.8-0.4-1.5-0.4c-0.9,0-1.2,0.5-1.2,0.9c0,0.6,0.4,0.8,1.4,1.2
					c1.3,0.5,1.9,1.1,1.9,2.2c0,1.2-0.9,2.2-2.8,2.2c-0.8,0-1.6-0.2-2-0.5L517.2,146.3z"/>
			</g>
			<g>
				<path fill="#FFFFFF" d="M524.4,141v1.4h1.3v1h-1.3v2.4c0,0.7,0.2,1,0.7,1c0.2,0,0.4,0,0.5-0.1l0,1c-0.2,0.1-0.6,0.1-1,0.1
					c-0.5,0-0.9-0.2-1.2-0.4c-0.3-0.3-0.4-0.8-0.4-1.5v-2.5h-0.8v-1h0.8v-1L524.4,141z"/>
			</g>
			<g>
				<path fill="#FFFFFF" d="M531.5,146.2c0,0.6,0,1.2,0,1.6h-1.2l-0.1-0.8h0c-0.2,0.4-0.8,0.9-1.7,0.9s-1.9-0.6-1.9-2.3v-3.1h1.4
					v2.9c0,0.9,0.3,1.5,1,1.5c0.5,0,0.9-0.4,1-0.7c0.1-0.1,0.1-0.3,0.1-0.4v-3.2h1.4V146.2z"/>
			</g>
			<g>
				<path fill="#FFFFFF" d="M537.9,140v6.3c0,0.5,0,1.1,0,1.5h-1.2l-0.1-0.8h0c-0.3,0.6-1,1-1.7,1c-1.3,0-2.3-1.1-2.3-2.7
					c0-1.8,1.1-2.9,2.4-2.9c0.7,0,1.3,0.3,1.5,0.7h0v-3H537.9z M536.5,144.6c0-0.1,0-0.3,0-0.4c-0.1-0.5-0.5-0.9-1.2-0.9
					c-0.9,0-1.4,0.8-1.4,1.8c0,1,0.5,1.7,1.3,1.7c0.5,0,1-0.4,1.2-1c0-0.1,0-0.3,0-0.4V144.6z"/>
			</g>
			<g>
				<path fill="#FFFFFF" d="M540.3,145.5c0,1,0.8,1.4,1.6,1.4c0.6,0,1.1-0.1,1.5-0.2l0.2,0.9c-0.5,0.2-1.1,0.3-1.9,0.3
					c-1.7,0-2.8-1.1-2.8-2.7c0-1.5,0.9-2.9,2.6-2.9c1.7,0,2.3,1.4,2.3,2.6c0,0.3,0,0.5,0,0.6H540.3z M542.7,144.5
					c0-0.5-0.2-1.3-1.1-1.3c-0.8,0-1.2,0.8-1.2,1.3H542.7z"/>
			</g>
			<g>
				<path fill="#FFFFFF" d="M545,144c0-0.6,0-1.1,0-1.6h1.2l0.1,0.8h0c0.2-0.4,0.8-0.9,1.7-0.9c0.9,0,1.9,0.6,1.9,2.3v3.2h-1.4v-3
					c0-0.8-0.3-1.4-1-1.4c-0.5,0-0.9,0.4-1.1,0.8c0,0.1-0.1,0.3-0.1,0.4v3.2H545V144z"/>
			</g>
			<g>
				<path fill="#FFFFFF" d="M552.8,141v1.4h1.3v1h-1.3v2.4c0,0.7,0.2,1,0.7,1c0.2,0,0.4,0,0.5-0.1l0,1c-0.2,0.1-0.6,0.1-1,0.1
					c-0.5,0-0.9-0.2-1.2-0.4c-0.3-0.3-0.4-0.8-0.4-1.5v-2.5h-0.8v-1h0.8v-1L552.8,141z"/>
			</g>
			<g>
				<path fill="#FFFFFF" d="M404,158.4h-2.1v-1.1h5.6v1.1h-2.1v6.3H404V158.4z"/>
			</g>
			<g>
				<path fill="#FFFFFF" d="M408.4,162.4c0,1,0.8,1.4,1.6,1.4c0.6,0,1.1-0.1,1.5-0.2l0.2,0.9c-0.5,0.2-1.1,0.3-1.9,0.3
					c-1.7,0-2.8-1.1-2.8-2.7c0-1.5,0.9-2.9,2.6-2.9c1.7,0,2.3,1.4,2.3,2.6c0,0.3,0,0.5,0,0.6H408.4z M410.8,161.4
					c0-0.5-0.2-1.3-1.1-1.3c-0.8,0-1.2,0.8-1.2,1.3H410.8z"/>
			</g>
			<g>
				<path fill="#FFFFFF" d="M417.1,164.5c-0.3,0.1-0.8,0.3-1.5,0.3c-1.7,0-2.8-1.1-2.8-2.7c0-1.6,1.1-2.8,3-2.8c0.5,0,1,0.1,1.3,0.2
					l-0.2,1c-0.2-0.1-0.5-0.2-1-0.2c-1,0-1.7,0.8-1.6,1.7c0,1.1,0.7,1.7,1.6,1.7c0.5,0,0.8-0.1,1.1-0.2L417.1,164.5z"/>
			</g>
			<g>
				<path fill="#FFFFFF" d="M418.1,156.8h1.4v3.2h0c0.2-0.3,0.4-0.5,0.7-0.6c0.3-0.2,0.6-0.2,0.9-0.2c0.9,0,1.9,0.6,1.9,2.3v3.2
					h-1.4v-3c0-0.8-0.3-1.4-1-1.4c-0.5,0-0.9,0.4-1.1,0.8c0,0.1-0.1,0.3-0.1,0.4v3.2h-1.4V156.8z"/>
			</g>
			<g>
				<path fill="#FFFFFF" d="M424.4,160.9c0-0.6,0-1.1,0-1.6h1.2l0.1,0.8h0c0.2-0.4,0.8-0.9,1.7-0.9c0.9,0,1.9,0.6,1.9,2.3v3.2h-1.4
					v-3c0-0.8-0.3-1.4-1-1.4c-0.5,0-0.9,0.4-1.1,0.8c0,0.1-0.1,0.3-0.1,0.4v3.2h-1.4V160.9z"/>
			</g>
			<g>
				<path fill="#FFFFFF" d="M432.1,157.8c0,0.4-0.3,0.7-0.8,0.7c-0.5,0-0.7-0.3-0.7-0.7c0-0.4,0.3-0.7,0.8-0.7
					C431.8,157.1,432.1,157.4,432.1,157.8z M430.7,164.7v-5.4h1.4v5.4H430.7z"/>
			</g>
			<g>
				<path fill="#FFFFFF" d="M437.4,164.5c-0.3,0.1-0.8,0.3-1.5,0.3c-1.7,0-2.8-1.1-2.8-2.7c0-1.6,1.1-2.8,3-2.8c0.5,0,1,0.1,1.3,0.2
					l-0.2,1c-0.2-0.1-0.5-0.2-1-0.2c-1,0-1.6,0.8-1.6,1.7c0,1.1,0.7,1.7,1.6,1.7c0.5,0,0.8-0.1,1.1-0.2L437.4,164.5z"/>
			</g>
			<g>
				<path fill="#FFFFFF" d="M442.6,163.4c0,0.5,0,1,0.1,1.3h-1.2l-0.1-0.6h0c-0.3,0.4-0.9,0.7-1.6,0.7c-1.1,0-1.7-0.8-1.7-1.6
					c0-1.3,1.2-2,3.2-2v-0.1c0-0.4-0.1-0.9-1.1-0.9c-0.5,0-1.1,0.2-1.4,0.4l-0.3-0.9c0.4-0.2,1.1-0.5,1.9-0.5c1.7,0,2.2,1.1,2.2,2.3
					V163.4z M441.3,162c-1,0-1.9,0.2-1.9,1c0,0.5,0.3,0.8,0.8,0.8c0.5,0,0.9-0.4,1.1-0.7c0-0.1,0-0.2,0-0.3V162z"/>
			</g>
			<g>
				<path fill="#FFFFFF" d="M444,156.8h1.4v7.8H444V156.8z"/>
			</g>
			<g>
				<path fill="#FFFFFF" d="M449.1,163.4c0.3,0.2,0.9,0.4,1.4,0.4c0.6,0,0.9-0.3,0.9-0.6c0-0.4-0.2-0.5-0.9-0.8
					c-1-0.4-1.5-0.9-1.5-1.6c0-0.9,0.8-1.7,2-1.7c0.6,0,1.1,0.1,1.4,0.3l-0.3,0.9c-0.2-0.1-0.7-0.3-1.1-0.3c-0.5,0-0.7,0.2-0.7,0.6
					c0,0.3,0.3,0.5,0.9,0.7c1,0.3,1.4,0.8,1.4,1.6c0,1-0.8,1.7-2.2,1.7c-0.6,0-1.2-0.2-1.6-0.4L449.1,163.4z"/>
			</g>
			<g>
				<path fill="#FFFFFF" d="M455,161.7L455,161.7c0.2-0.2,0.3-0.4,0.4-0.6l1.3-1.7h1.6l-2,2.2l2.3,3.2H457l-1.5-2.4l-0.5,0.5v1.8
					h-1.4v-7.8h1.4V161.7z"/>
			</g>
			<g>
				<path fill="#FFFFFF" d="M460.9,157.8c0,0.4-0.3,0.7-0.8,0.7c-0.5,0-0.7-0.3-0.7-0.7c0-0.4,0.3-0.7,0.8-0.7
					C460.6,157.1,460.9,157.4,460.9,157.8z M459.4,164.7v-5.4h1.4v5.4H459.4z"/>
			</g>
			<g>
				<path fill="#FFFFFF" d="M462.3,156.8h1.4v7.8h-1.4V156.8z"/>
			</g>
			<g>
				<path fill="#FFFFFF" d="M465.1,156.8h1.4v7.8h-1.4V156.8z"/>
			</g>
			<g>
				<path fill="#FFFFFF" d="M467.8,163.4c0.3,0.2,0.9,0.4,1.4,0.4c0.6,0,0.9-0.3,0.9-0.6c0-0.4-0.2-0.5-0.9-0.8
					c-1-0.4-1.5-0.9-1.5-1.6c0-0.9,0.8-1.7,2-1.7c0.6,0,1.1,0.1,1.4,0.3l-0.3,0.9c-0.2-0.1-0.7-0.3-1.1-0.3c-0.5,0-0.7,0.2-0.7,0.6
					c0,0.3,0.3,0.5,0.9,0.7c1,0.3,1.4,0.8,1.4,1.6c0,1-0.8,1.7-2.2,1.7c-0.6,0-1.2-0.2-1.6-0.4L467.8,163.4z"/>
			</g>
			<g>
				<path fill="#FFFFFF" d="M472.3,160.2c0-0.5,0.3-0.9,0.8-0.9s0.8,0.4,0.8,0.9c0,0.5-0.3,0.9-0.8,0.9
					C472.7,161.1,472.3,160.7,472.3,160.2z M472.3,163.9c0-0.5,0.3-0.9,0.8-0.9s0.8,0.4,0.8,0.9c0,0.5-0.3,0.9-0.8,0.9
					C472.7,164.8,472.3,164.4,472.3,163.9z"/>
			</g>
			<g>
				<path fill="#FFFFFF" d="M517.2,157.3c0.5-0.1,1.2-0.2,2.1-0.2c1,0,1.7,0.2,2.2,0.6c0.4,0.4,0.7,0.9,0.7,1.6
					c0,0.7-0.2,1.3-0.6,1.7c-0.5,0.5-1.4,0.8-2.3,0.8c-0.3,0-0.5,0-0.7-0.1v2.8h-1.3V157.3z M518.6,160.8c0.2,0.1,0.4,0.1,0.7,0.1
					c1,0,1.6-0.5,1.6-1.4c0-0.8-0.6-1.3-1.5-1.3c-0.4,0-0.6,0-0.8,0.1V160.8z"/>
			</g>
			<g>
				<path fill="#FFFFFF" d="M523.2,161c0-0.7,0-1.3,0-1.7h1.2l0.1,1h0c0.3-0.7,0.9-1.1,1.5-1.1c0.1,0,0.2,0,0.3,0v1.3
					c-0.1,0-0.2,0-0.4,0c-0.6,0-1.1,0.4-1.2,1c0,0.1,0,0.3,0,0.4v2.8h-1.4V161z"/>
			</g>
			<g>
				<path fill="#FFFFFF" d="M532.1,161.9c0,2-1.4,2.8-2.8,2.8c-1.5,0-2.7-1-2.7-2.8c0-1.8,1.2-2.8,2.8-2.8
					C531,159.2,532.1,160.3,532.1,161.9z M528.1,162c0,1,0.5,1.8,1.3,1.8c0.8,0,1.3-0.7,1.3-1.8c0-0.8-0.4-1.8-1.3-1.8
					C528.4,160.2,528.1,161.1,528.1,162z"/>
			</g>
			<g>
				<path fill="#FFFFFF" d="M533.4,164.7v-4.3h-0.7v-1h0.7v-0.2c0-0.7,0.2-1.4,0.6-1.8c0.4-0.4,0.9-0.5,1.4-0.5
					c0.4,0,0.6,0.1,0.9,0.1l-0.1,1c-0.2-0.1-0.3-0.1-0.6-0.1c-0.7,0-0.9,0.6-0.9,1.2v0.3h1.2v1h-1.2v4.3H533.4z"/>
			</g>
			<g>
				<path fill="#FFFFFF" d="M537.5,162.4c0,1,0.8,1.4,1.6,1.4c0.6,0,1.1-0.1,1.5-0.2l0.2,0.9c-0.5,0.2-1.1,0.3-1.9,0.3
					c-1.7,0-2.8-1.1-2.8-2.7c0-1.5,0.9-2.9,2.6-2.9c1.7,0,2.3,1.4,2.3,2.6c0,0.3,0,0.5,0,0.6H537.5z M539.9,161.4
					c0-0.5-0.2-1.3-1.1-1.3c-0.8,0-1.2,0.8-1.2,1.3H539.9z"/>
			</g>
			<g>
				<path fill="#FFFFFF" d="M542.2,163.4c0.3,0.2,0.9,0.4,1.4,0.4c0.6,0,0.9-0.3,0.9-0.6c0-0.4-0.2-0.5-0.9-0.8
					c-1-0.4-1.5-0.9-1.5-1.6c0-0.9,0.8-1.7,2-1.7c0.6,0,1.1,0.1,1.4,0.3l-0.3,0.9c-0.2-0.1-0.7-0.3-1.1-0.3c-0.5,0-0.7,0.2-0.7,0.6
					c0,0.3,0.3,0.5,0.9,0.7c1,0.3,1.4,0.8,1.4,1.6c0,1-0.8,1.7-2.2,1.7c-0.6,0-1.2-0.2-1.6-0.4L542.2,163.4z"/>
			</g>
			<g>
				<path fill="#FFFFFF" d="M546.8,163.4c0.3,0.2,0.9,0.4,1.4,0.4c0.6,0,0.9-0.3,0.9-0.6c0-0.4-0.2-0.5-0.9-0.8
					c-1-0.4-1.5-0.9-1.5-1.6c0-0.9,0.8-1.7,2-1.7c0.6,0,1.1,0.1,1.4,0.3l-0.3,0.9c-0.2-0.1-0.7-0.3-1.1-0.3c-0.5,0-0.7,0.2-0.7,0.6
					c0,0.3,0.3,0.5,0.9,0.7c1,0.3,1.4,0.8,1.4,1.6c0,1-0.8,1.7-2.2,1.7c-0.6,0-1.2-0.2-1.6-0.4L546.8,163.4z"/>
			</g>
			<g>
				<path fill="#FFFFFF" d="M552.9,157.8c0,0.4-0.3,0.7-0.8,0.7c-0.5,0-0.7-0.3-0.7-0.7c0-0.4,0.3-0.7,0.8-0.7
					C552.6,157.1,552.9,157.4,552.9,157.8z M551.4,164.7v-5.4h1.4v5.4H551.4z"/>
			</g>
			<g>
				<path fill="#FFFFFF" d="M559.4,161.9c0,2-1.4,2.8-2.8,2.8c-1.5,0-2.7-1-2.7-2.8c0-1.8,1.2-2.8,2.8-2.8
					C558.3,159.2,559.4,160.3,559.4,161.9z M555.3,162c0,1,0.5,1.8,1.3,1.8c0.8,0,1.3-0.7,1.3-1.8c0-0.8-0.4-1.8-1.3-1.8
					C555.7,160.2,555.3,161.1,555.3,162z"/>
			</g>
			<g>
				<path fill="#FFFFFF" d="M560.5,160.9c0-0.6,0-1.1,0-1.6h1.2l0.1,0.8h0c0.2-0.4,0.8-0.9,1.7-0.9c0.9,0,1.9,0.6,1.9,2.3v3.2H564
					v-3c0-0.8-0.3-1.4-1-1.4c-0.5,0-0.9,0.4-1.1,0.8c0,0.1-0.1,0.3-0.1,0.4v3.2h-1.4V160.9z"/>
			</g>
			<g>
				<path fill="#FFFFFF" d="M570.9,163.4c0,0.5,0,1,0.1,1.3h-1.2l-0.1-0.6h0c-0.3,0.4-0.9,0.7-1.6,0.7c-1.1,0-1.7-0.8-1.7-1.6
					c0-1.3,1.2-2,3.2-2v-0.1c0-0.4-0.1-0.9-1.1-0.9c-0.5,0-1.1,0.2-1.4,0.4l-0.3-0.9c0.4-0.2,1.1-0.5,1.9-0.5c1.7,0,2.2,1.1,2.2,2.3
					V163.4z M569.6,162c-1,0-1.9,0.2-1.9,1c0,0.5,0.3,0.8,0.8,0.8c0.6,0,0.9-0.4,1.1-0.7c0-0.1,0-0.2,0-0.3V162z"/>
			</g>
			<g>
				<path fill="#FFFFFF" d="M572.3,156.8h1.4v7.8h-1.4V156.8z"/>
			</g>
			<g>
				<path fill="#FFFFFF" d="M408.8,178.5c0-1-0.1-2.1-0.1-3.1h0c-0.2,0.9-0.5,1.9-0.9,2.8l-1.1,3.2h-1l-1-3.2
					c-0.3-0.9-0.6-2-0.7-2.9h0c0,1-0.1,2.1-0.1,3.2l-0.2,3h-1.3l0.5-7.4h1.8l1,3c0.3,0.9,0.5,1.7,0.7,2.6h0c0.2-0.8,0.5-1.7,0.7-2.6
					l1-3h1.8l0.4,7.4H409L408.8,178.5z"/>
			</g>
			<g>
				<path fill="#FFFFFF" d="M415.8,180.3c0,0.5,0,1,0.1,1.3h-1.2l-0.1-0.6h0c-0.3,0.4-0.9,0.7-1.6,0.7c-1.1,0-1.7-0.8-1.7-1.6
					c0-1.3,1.2-2,3.2-2V178c0-0.4-0.1-0.9-1.1-0.9c-0.5,0-1.1,0.2-1.4,0.4l-0.3-0.9c0.4-0.2,1.1-0.5,1.9-0.5c1.7,0,2.2,1.1,2.2,2.3
					V180.3z M414.5,178.9c-1,0-1.9,0.2-1.9,1c0,0.5,0.3,0.8,0.8,0.8c0.6,0,0.9-0.4,1.1-0.7c0-0.1,0-0.2,0-0.3V178.9z"/>
			</g>
			<g>
				<path fill="#FFFFFF" d="M417.3,177.9c0-0.7,0-1.3,0-1.7h1.2l0.1,1h0c0.3-0.7,0.9-1.1,1.5-1.1c0.1,0,0.2,0,0.3,0v1.3
					c-0.1,0-0.2,0-0.4,0c-0.6,0-1.1,0.4-1.2,1c0,0.1,0,0.3,0,0.4v2.8h-1.4V177.9z"/>
			</g>
			<g>
				<path fill="#FFFFFF" d="M422.6,174.7c0,0.4-0.3,0.7-0.8,0.7c-0.5,0-0.7-0.3-0.7-0.7c0-0.4,0.3-0.7,0.8-0.7
					C422.3,174,422.6,174.3,422.6,174.7z M421.2,181.6v-5.4h1.4v5.4H421.2z"/>
			</g>
			<g>
				<path fill="#FFFFFF" d="M425.5,174.8v1.4h1.3v1h-1.3v2.4c0,0.7,0.2,1,0.7,1c0.2,0,0.4,0,0.5-0.1l0,1c-0.2,0.1-0.6,0.1-1,0.1
					c-0.5,0-0.9-0.2-1.2-0.4c-0.3-0.3-0.4-0.8-0.4-1.5v-2.5h-0.8v-1h0.8v-1L425.5,174.8z"/>
			</g>
			<g>
				<path fill="#FFFFFF" d="M432,180.3c0,0.5,0,1,0.1,1.3h-1.2l-0.1-0.6h0c-0.3,0.4-0.9,0.7-1.6,0.7c-1.1,0-1.7-0.8-1.7-1.6
					c0-1.3,1.2-2,3.2-2V178c0-0.4-0.1-0.9-1.1-0.9c-0.5,0-1.1,0.2-1.4,0.4l-0.3-0.9c0.4-0.2,1.1-0.5,1.9-0.5c1.7,0,2.2,1.1,2.2,2.3
					V180.3z M430.7,178.9c-1,0-1.9,0.2-1.9,1c0,0.5,0.3,0.8,0.8,0.8c0.6,0,0.9-0.4,1.1-0.7c0-0.1,0-0.2,0-0.3V178.9z"/>
			</g>
			<g>
				<path fill="#FFFFFF" d="M433.4,173.7h1.4v7.8h-1.4V173.7z"/>
			</g>
			<g>
				<path fill="#FFFFFF" d="M438.6,180.1c0.4,0.3,1.1,0.5,1.8,0.5c0.9,0,1.3-0.4,1.3-1c0-0.6-0.4-0.9-1.3-1.2c-1.2-0.4-2-1.1-2-2.2
					c0-1.2,1-2.1,2.6-2.1c0.8,0,1.4,0.2,1.8,0.4l-0.3,1.1c-0.3-0.1-0.8-0.4-1.5-0.4c-0.9,0-1.2,0.5-1.2,0.9c0,0.6,0.4,0.8,1.4,1.2
					c1.3,0.5,1.9,1.1,1.9,2.2c0,1.2-0.9,2.2-2.8,2.2c-0.8,0-1.6-0.2-2-0.5L438.6,180.1z"/>
			</g>
			<g>
				<path fill="#FFFFFF" d="M445.8,174.8v1.4h1.3v1h-1.3v2.4c0,0.7,0.2,1,0.7,1c0.2,0,0.4,0,0.5-0.1l0,1c-0.2,0.1-0.6,0.1-1,0.1
					c-0.5,0-0.9-0.2-1.2-0.4c-0.3-0.3-0.4-0.8-0.4-1.5v-2.5h-0.8v-1h0.8v-1L445.8,174.8z"/>
			</g>
			<g>
				<path fill="#FFFFFF" d="M452.2,180.3c0,0.5,0,1,0.1,1.3h-1.2L451,181h0c-0.3,0.4-0.9,0.7-1.6,0.7c-1.1,0-1.7-0.8-1.7-1.6
					c0-1.3,1.2-2,3.2-2V178c0-0.4-0.1-0.9-1.1-0.9c-0.5,0-1.1,0.2-1.4,0.4l-0.3-0.9c0.4-0.2,1.1-0.5,1.9-0.5c1.7,0,2.2,1.1,2.2,2.3
					V180.3z M450.9,178.9c-1,0-1.9,0.2-1.9,1c0,0.5,0.3,0.8,0.8,0.8c0.5,0,0.9-0.4,1.1-0.7c0-0.1,0-0.2,0-0.3V178.9z"/>
			</g>
			<g>
				<path fill="#FFFFFF" d="M455.1,174.8v1.4h1.3v1h-1.3v2.4c0,0.7,0.2,1,0.7,1c0.2,0,0.4,0,0.5-0.1l0,1c-0.2,0.1-0.6,0.1-1,0.1
					c-0.5,0-0.9-0.2-1.2-0.4c-0.3-0.3-0.4-0.8-0.4-1.5v-2.5h-0.8v-1h0.8v-1L455.1,174.8z"/>
			</g>
			<g>
				<path fill="#FFFFFF" d="M462.3,179.9c0,0.6,0,1.2,0,1.6h-1.2l-0.1-0.8h0c-0.2,0.4-0.8,0.9-1.7,0.9s-1.9-0.6-1.9-2.3v-3.1h1.4
					v2.9c0,0.9,0.3,1.5,1,1.5c0.5,0,0.9-0.4,1-0.7c0.1-0.1,0.1-0.3,0.1-0.4v-3.2h1.4V179.9z"/>
			</g>
			<g>
				<path fill="#FFFFFF" d="M463.7,180.3c0.3,0.2,0.9,0.4,1.4,0.4c0.6,0,0.9-0.3,0.9-0.6c0-0.4-0.2-0.5-0.9-0.8
					c-1-0.4-1.5-0.9-1.5-1.6c0-0.9,0.8-1.7,2-1.7c0.6,0,1.1,0.1,1.4,0.3l-0.3,0.9c-0.2-0.1-0.7-0.3-1.1-0.3c-0.5,0-0.7,0.2-0.7,0.6
					c0,0.3,0.3,0.5,0.9,0.7c1,0.3,1.4,0.8,1.4,1.6c0,1-0.8,1.7-2.2,1.7c-0.6,0-1.2-0.2-1.6-0.4L463.7,180.3z"/>
			</g>
			<g>
				<path fill="#FFFFFF" d="M468.1,177.1c0-0.5,0.3-0.9,0.8-0.9s0.8,0.4,0.8,0.9c0,0.5-0.3,0.9-0.8,0.9
					C468.5,178,468.1,177.6,468.1,177.1z M468.1,180.8c0-0.5,0.3-0.9,0.8-0.9s0.8,0.4,0.8,0.9c0,0.5-0.3,0.9-0.8,0.9
					C468.5,181.7,468.1,181.3,468.1,180.8z"/>
			</g>
			<g>
				<path fill="#FFFFFF" d="M518.6,174.1v7.4h-1.4v-7.4H518.6z"/>
			</g>
			<g>
				<path fill="#FFFFFF" d="M521.7,174.8v1.4h1.3v1h-1.3v2.4c0,0.7,0.2,1,0.7,1c0.2,0,0.4,0,0.5-0.1l0,1c-0.2,0.1-0.6,0.1-1,0.1
					c-0.5,0-0.9-0.2-1.2-0.4c-0.3-0.3-0.4-0.8-0.4-1.5v-2.5h-0.8v-1h0.8v-1L521.7,174.8z"/>
			</g>
			<g>
				<path fill="#FFFFFF" d="M525.8,173.9c-0.3,1-0.8,2.1-1.2,2.8l-0.8,0.1c0.3-0.8,0.6-1.9,0.7-2.8L525.8,173.9z"/>
			</g>
			<g>
				<path fill="#FFFFFF" d="M525.9,180.3c0.3,0.2,0.9,0.4,1.4,0.4c0.6,0,0.9-0.3,0.9-0.6c0-0.4-0.2-0.5-0.9-0.8
					c-1-0.4-1.5-0.9-1.5-1.6c0-0.9,0.8-1.7,2-1.7c0.6,0,1.1,0.1,1.4,0.3l-0.3,0.9c-0.2-0.1-0.7-0.3-1.1-0.3c-0.5,0-0.7,0.2-0.7,0.6
					c0,0.3,0.3,0.5,0.9,0.7c1,0.3,1.4,0.8,1.4,1.6c0,1-0.8,1.7-2.2,1.7c-0.6,0-1.2-0.2-1.6-0.4L525.9,180.3z"/>
			</g>
			<g>
				<path fill="#FFFFFF" d="M536.7,181.4c-0.3,0.1-0.8,0.3-1.5,0.3c-1.7,0-2.8-1.1-2.8-2.7c0-1.6,1.1-2.8,3-2.8c0.5,0,1,0.1,1.3,0.2
					l-0.2,1c-0.2-0.1-0.5-0.2-1-0.2c-1,0-1.7,0.8-1.6,1.7c0,1.1,0.7,1.7,1.6,1.7c0.5,0,0.8-0.1,1.1-0.2L536.7,181.4z"/>
			</g>
			<g>
				<path fill="#FFFFFF" d="M542.7,178.8c0,2-1.4,2.8-2.8,2.8c-1.5,0-2.7-1-2.7-2.8c0-1.8,1.2-2.8,2.8-2.8
					C541.6,176.1,542.7,177.2,542.7,178.8z M538.7,178.9c0,1,0.5,1.8,1.3,1.8c0.8,0,1.3-0.7,1.3-1.8c0-0.8-0.4-1.8-1.3-1.8
					C539.1,177.1,538.7,178,538.7,178.9z"/>
			</g>
			<g>
				<path fill="#FFFFFF" d="M543.8,177.8c0-0.6,0-1.1,0-1.6h1.2l0.1,0.8h0c0.3-0.4,0.7-0.9,1.7-0.9c0.7,0,1.3,0.4,1.5,1h0
					c0.2-0.3,0.4-0.5,0.6-0.7c0.3-0.2,0.6-0.3,1.1-0.3c0.9,0,1.8,0.6,1.8,2.3v3.2h-1.3v-3c0-0.9-0.3-1.4-1-1.4
					c-0.5,0-0.8,0.3-0.9,0.7c0,0.1-0.1,0.3-0.1,0.5v3.2h-1.3v-3.1c0-0.7-0.3-1.3-0.9-1.3c-0.5,0-0.8,0.4-1,0.8
					c0,0.1-0.1,0.3-0.1,0.5v3.2h-1.3V177.8z"/>
			</g>
			<g>
				<path fill="#FFFFFF" d="M553.1,178c0-0.7,0-1.3,0-1.8h1.2l0.1,0.8h0c0.4-0.6,1-0.9,1.8-0.9c1.2,0,2.3,1.1,2.3,2.7
					c0,1.9-1.2,2.9-2.4,2.9c-0.7,0-1.2-0.3-1.5-0.7h0v2.8h-1.4V178z M554.5,179.3c0,0.1,0,0.3,0,0.4c0.1,0.5,0.6,0.9,1.2,0.9
					c0.9,0,1.4-0.7,1.4-1.8c0-0.9-0.5-1.7-1.3-1.7c-0.6,0-1.1,0.4-1.2,1c0,0.1,0,0.2,0,0.3V179.3z"/>
			</g>
			<g>
				<path fill="#FFFFFF" d="M559.6,173.7h1.4v7.8h-1.4V173.7z"/>
			</g>
			<g>
				<path fill="#FFFFFF" d="M563.8,174.7c0,0.4-0.3,0.7-0.8,0.7c-0.5,0-0.7-0.3-0.7-0.7c0-0.4,0.3-0.7,0.8-0.7
					C563.6,174,563.8,174.3,563.8,174.7z M562.4,181.6v-5.4h1.4v5.4H562.4z"/>
			</g>
			<g>
				<path fill="#FFFFFF" d="M569.2,181.4c-0.3,0.1-0.8,0.3-1.5,0.3c-1.7,0-2.8-1.1-2.8-2.7c0-1.6,1.1-2.8,3-2.8c0.5,0,1,0.1,1.3,0.2
					l-0.2,1c-0.2-0.1-0.5-0.2-1-0.2c-1,0-1.6,0.8-1.6,1.7c0,1.1,0.7,1.7,1.6,1.7c0.5,0,0.8-0.1,1.1-0.2L569.2,181.4z"/>
			</g>
			<g>
				<path fill="#FFFFFF" d="M574.3,180.3c0,0.5,0,1,0.1,1.3h-1.2l-0.1-0.6h0c-0.3,0.4-0.9,0.7-1.6,0.7c-1.1,0-1.7-0.8-1.7-1.6
					c0-1.3,1.2-2,3.2-2V178c0-0.4-0.1-0.9-1.1-0.9c-0.5,0-1.1,0.2-1.4,0.4l-0.3-0.9c0.4-0.2,1.1-0.5,1.9-0.5c1.7,0,2.2,1.1,2.2,2.3
					V180.3z M573,178.9c-1,0-1.9,0.2-1.9,1c0,0.5,0.3,0.8,0.8,0.8c0.5,0,0.9-0.4,1.1-0.7c0-0.1,0-0.2,0-0.3V178.9z"/>
			</g>
			<g>
				<path fill="#FFFFFF" d="M577.2,174.8v1.4h1.3v1h-1.3v2.4c0,0.7,0.2,1,0.7,1c0.2,0,0.4,0,0.5-0.1l0,1c-0.2,0.1-0.6,0.1-1,0.1
					c-0.5,0-0.9-0.2-1.2-0.4c-0.3-0.3-0.4-0.8-0.4-1.5v-2.5h-0.8v-1h0.8v-1L577.2,174.8z"/>
			</g>
			<g>
				<path fill="#FFFFFF" d="M580.4,179.3c0,1,0.8,1.4,1.6,1.4c0.6,0,1.1-0.1,1.5-0.2l0.2,0.9c-0.5,0.2-1.1,0.3-1.9,0.3
					c-1.7,0-2.8-1.1-2.8-2.7c0-1.5,0.9-2.9,2.6-2.9c1.7,0,2.3,1.4,2.3,2.6c0,0.3,0,0.5,0,0.6H580.4z M582.8,178.3
					c0-0.5-0.2-1.3-1.1-1.3c-0.8,0-1.2,0.8-1.2,1.3H582.8z"/>
			</g>
			<g>
				<path fill="#FFFFFF" d="M590.1,173.7v6.3c0,0.5,0,1.1,0,1.5h-1.2l-0.1-0.8h0c-0.3,0.6-1,1-1.7,1c-1.3,0-2.3-1.1-2.3-2.7
					c0-1.8,1.1-2.9,2.4-2.9c0.7,0,1.3,0.3,1.5,0.7h0v-3H590.1z M588.7,178.4c0-0.1,0-0.3,0-0.4c-0.1-0.5-0.5-0.9-1.2-0.9
					c-0.9,0-1.4,0.8-1.4,1.8c0,1,0.5,1.7,1.3,1.7c0.5,0,1-0.4,1.2-1c0-0.1,0-0.3,0-0.4V178.4z"/>
			</g>
			<g>
				<path fill="#FFFFFF" d="M402.6,191h4.3v1.1h-2.9v2h2.7v1.1h-2.7v3.2h-1.4V191z"/>
			</g>
			<g>
				<path fill="#FFFFFF" d="M407.9,194.8c0-0.7,0-1.3,0-1.7h1.2l0.1,1h0c0.3-0.7,0.9-1.1,1.5-1.1c0.1,0,0.2,0,0.3,0v1.3
					c-0.1,0-0.2,0-0.4,0c-0.6,0-1.1,0.4-1.2,1c0,0.1,0,0.3,0,0.4v2.8h-1.4V194.8z"/>
			</g>
			<g>
				<path fill="#FFFFFF" d="M416.6,196.8c0,0.6,0,1.2,0,1.6h-1.2l-0.1-0.8h0c-0.2,0.4-0.8,0.9-1.7,0.9s-1.9-0.6-1.9-2.3v-3.1h1.4
					v2.9c0,0.9,0.3,1.5,1,1.5c0.5,0,0.9-0.4,1-0.7c0.1-0.1,0.1-0.3,0.1-0.4v-3.2h1.4V196.8z"/>
			</g>
			<g>
				<path fill="#FFFFFF" d="M418,197.2c0.3,0.2,0.9,0.4,1.4,0.4c0.6,0,0.9-0.3,0.9-0.6c0-0.4-0.2-0.5-0.9-0.8
					c-1-0.4-1.5-0.9-1.5-1.6c0-0.9,0.8-1.7,2-1.7c0.6,0,1.1,0.1,1.4,0.3l-0.3,0.9c-0.2-0.1-0.7-0.3-1.1-0.3c-0.5,0-0.7,0.2-0.7,0.6
					c0,0.3,0.3,0.5,0.9,0.7c1,0.3,1.4,0.8,1.4,1.6c0,1-0.8,1.7-2.2,1.7c-0.6,0-1.2-0.2-1.6-0.4L418,197.2z"/>
			</g>
			<g>
				<path fill="#FFFFFF" d="M424.2,191.7v1.4h1.3v1h-1.3v2.4c0,0.7,0.2,1,0.7,1c0.2,0,0.4,0,0.5-0.1l0,1c-0.2,0.1-0.6,0.1-1,0.1
					c-0.5,0-0.9-0.2-1.2-0.4c-0.3-0.3-0.4-0.8-0.4-1.5v-2.5h-0.8v-1h0.8v-1L424.2,191.7z"/>
			</g>
			<g>
				<path fill="#FFFFFF" d="M426.5,194.8c0-0.7,0-1.3,0-1.7h1.2l0.1,1h0c0.3-0.7,0.9-1.1,1.5-1.1c0.1,0,0.2,0,0.3,0v1.3
					c-0.1,0-0.2,0-0.4,0c-0.6,0-1.1,0.4-1.2,1c0,0.1,0,0.3,0,0.4v2.8h-1.4V194.8z"/>
			</g>
			<g>
				<path fill="#FFFFFF" d="M434.5,197.2c0,0.5,0,1,0.1,1.3h-1.2l-0.1-0.6h0c-0.3,0.4-0.9,0.7-1.6,0.7c-1.1,0-1.7-0.8-1.7-1.6
					c0-1.3,1.2-2,3.2-2v-0.1c0-0.4-0.1-0.9-1.1-0.9c-0.5,0-1.1,0.2-1.4,0.4l-0.3-0.9c0.4-0.2,1.1-0.5,1.9-0.5c1.7,0,2.2,1.1,2.2,2.3
					V197.2z M433.2,195.8c-1,0-1.9,0.2-1.9,1c0,0.5,0.3,0.8,0.8,0.8c0.6,0,0.9-0.4,1.1-0.7c0-0.1,0-0.2,0-0.3V195.8z"/>
			</g>
			<g>
				<path fill="#FFFFFF" d="M437.4,191.7v1.4h1.3v1h-1.3v2.4c0,0.7,0.2,1,0.7,1c0.2,0,0.4,0,0.5-0.1l0,1c-0.2,0.1-0.6,0.1-1,0.1
					c-0.5,0-0.9-0.2-1.2-0.4c-0.3-0.3-0.4-0.8-0.4-1.5v-2.5h-0.8v-1h0.8v-1L437.4,191.7z"/>
			</g>
			<g>
				<path fill="#FFFFFF" d="M441.2,191.6c0,0.4-0.3,0.7-0.8,0.7c-0.5,0-0.7-0.3-0.7-0.7c0-0.4,0.3-0.7,0.8-0.7
					C440.9,190.9,441.1,191.2,441.2,191.6z M439.7,198.4v-5.4h1.4v5.4H439.7z"/>
			</g>
			<g>
				<path fill="#FFFFFF" d="M447.6,195.7c0,2-1.4,2.8-2.8,2.8c-1.5,0-2.7-1-2.7-2.8c0-1.8,1.2-2.8,2.8-2.8
					C446.6,193,447.6,194.1,447.6,195.7z M443.6,195.8c0,1,0.5,1.8,1.3,1.8c0.8,0,1.3-0.7,1.3-1.8c0-0.8-0.4-1.8-1.3-1.8
					C444,193.9,443.6,194.9,443.6,195.8z"/>
			</g>
			<g>
				<path fill="#FFFFFF" d="M448.7,194.7c0-0.6,0-1.1,0-1.6h1.2l0.1,0.8h0c0.2-0.4,0.8-0.9,1.7-0.9c0.9,0,1.9,0.6,1.9,2.3v3.2h-1.4
					v-3c0-0.8-0.3-1.4-1-1.4c-0.5,0-0.9,0.4-1.1,0.8c0,0.1-0.1,0.3-0.1,0.4v3.2h-1.4V194.7z"/>
			</g>
			<g>
				<path fill="#FFFFFF" d="M455,197.2c0.3,0.2,0.9,0.4,1.4,0.4c0.6,0,0.9-0.3,0.9-0.6c0-0.4-0.2-0.5-0.9-0.8
					c-1-0.4-1.5-0.9-1.5-1.6c0-0.9,0.8-1.7,2-1.7c0.6,0,1.1,0.1,1.4,0.3l-0.3,0.9c-0.2-0.1-0.7-0.3-1.1-0.3c-0.5,0-0.7,0.2-0.7,0.6
					c0,0.3,0.3,0.5,0.9,0.7c1,0.3,1.4,0.8,1.4,1.6c0,1-0.8,1.7-2.2,1.7c-0.6,0-1.2-0.2-1.6-0.4L455,197.2z"/>
			</g>
			<g>
				<path fill="#FFFFFF" d="M459.4,194c0-0.5,0.3-0.9,0.8-0.9s0.8,0.4,0.8,0.9c0,0.5-0.3,0.9-0.8,0.9
					C459.8,194.9,459.4,194.5,459.4,194z M459.4,197.7c0-0.5,0.3-0.9,0.8-0.9s0.8,0.4,0.8,0.9c0,0.5-0.3,0.9-0.8,0.9
					C459.8,198.6,459.4,198.2,459.4,197.7z"/>
			</g>
			<g>
				<path fill="#FFFFFF" d="M517.2,191h4.3v1.1h-2.9v2h2.7v1.1h-2.7v3.2h-1.4V191z"/>
			</g>
			<g>
				<path fill="#FFFFFF" d="M524,191.6c0,0.4-0.3,0.7-0.8,0.7c-0.5,0-0.7-0.3-0.7-0.7c0-0.4,0.3-0.7,0.8-0.7
					C523.7,190.9,524,191.2,524,191.6z M522.5,198.4v-5.4h1.4v5.4H522.5z"/>
			</g>
			<g>
				<path fill="#FFFFFF" d="M525.3,194.7c0-0.6,0-1.1,0-1.6h1.2l0.1,0.8h0c0.2-0.4,0.8-0.9,1.7-0.9c0.9,0,1.9,0.6,1.9,2.3v3.2h-1.4
					v-3c0-0.8-0.3-1.4-1-1.4c-0.5,0-0.9,0.4-1.1,0.8c0,0.1-0.1,0.3-0.1,0.4v3.2h-1.4V194.7z"/>
			</g>
			<g>
				<path fill="#FFFFFF" d="M536.6,190.6v6.3c0,0.5,0,1.1,0,1.5h-1.2l-0.1-0.8h0c-0.3,0.6-1,1-1.7,1c-1.3,0-2.3-1.1-2.3-2.7
					c0-1.8,1.1-2.9,2.4-2.9c0.7,0,1.3,0.3,1.5,0.7h0v-3H536.6z M535.2,195.3c0-0.1,0-0.3,0-0.4c-0.1-0.5-0.5-0.9-1.2-0.9
					c-0.9,0-1.4,0.8-1.4,1.8c0,1,0.5,1.7,1.3,1.7c0.5,0,1-0.4,1.2-1c0-0.1,0-0.3,0-0.4V195.3z"/>
			</g>
			<g>
				<path fill="#FFFFFF" d="M539.5,191.6c0,0.4-0.3,0.7-0.8,0.7c-0.5,0-0.7-0.3-0.7-0.7c0-0.4,0.3-0.7,0.8-0.7
					C539.2,190.9,539.5,191.2,539.5,191.6z M538,198.4v-5.4h1.4v5.4H538z"/>
			</g>
			<g>
				<path fill="#FFFFFF" d="M540.8,194.7c0-0.6,0-1.1,0-1.6h1.2l0.1,0.8h0c0.2-0.4,0.8-0.9,1.7-0.9c0.9,0,1.9,0.6,1.9,2.3v3.2h-1.4
					v-3c0-0.8-0.3-1.4-1-1.4c-0.5,0-0.9,0.4-1.1,0.8c0,0.1-0.1,0.3-0.1,0.4v3.2h-1.4V194.7z"/>
			</g>
			<g>
				<path fill="#FFFFFF" d="M552,197.7c0,1.1-0.2,1.9-0.8,2.4c-0.6,0.5-1.3,0.6-2.1,0.6c-0.7,0-1.4-0.2-1.9-0.4l0.3-1
					c0.3,0.2,0.9,0.4,1.6,0.4c0.9,0,1.5-0.5,1.5-1.6v-0.5h0c-0.3,0.5-0.8,0.8-1.6,0.8c-1.3,0-2.3-1.1-2.3-2.6c0-1.8,1.1-2.8,2.4-2.8
					c0.8,0,1.3,0.4,1.6,0.8h0l0.1-0.7h1.2c0,0.4,0,0.8,0,1.5V197.7z M550.6,195.2c0-0.1,0-0.3,0-0.4c-0.1-0.5-0.5-0.9-1.1-0.9
					c-0.8,0-1.3,0.7-1.3,1.7c0,0.9,0.5,1.7,1.3,1.7c0.5,0,0.9-0.3,1.1-0.8c0-0.1,0.1-0.3,0.1-0.5V195.2z"/>
			</g>
			<g>
				<path fill="#FFFFFF" d="M560.8,195.7c0,2-1.4,2.8-2.8,2.8c-1.5,0-2.7-1-2.7-2.8c0-1.8,1.2-2.8,2.8-2.8
					C559.7,193,560.8,194.1,560.8,195.7z M556.8,195.8c0,1,0.5,1.8,1.3,1.8c0.8,0,1.3-0.7,1.3-1.8c0-0.8-0.4-1.8-1.3-1.8
					C557.2,193.9,556.8,194.9,556.8,195.8z"/>
			</g>
			<g>
				<path fill="#FFFFFF" d="M566.7,196.8c0,0.6,0,1.2,0,1.6h-1.2l-0.1-0.8h0c-0.2,0.4-0.8,0.9-1.7,0.9s-1.9-0.6-1.9-2.3v-3.1h1.4
					v2.9c0,0.9,0.3,1.5,1,1.5c0.5,0,0.9-0.4,1-0.7c0.1-0.1,0.1-0.3,0.1-0.4v-3.2h1.4V196.8z"/>
			</g>
			<g>
				<path fill="#FFFFFF" d="M569.7,191.7v1.4h1.3v1h-1.3v2.4c0,0.7,0.2,1,0.7,1c0.2,0,0.4,0,0.5-0.1l0,1c-0.2,0.1-0.6,0.1-1,0.1
					c-0.5,0-0.9-0.2-1.2-0.4c-0.3-0.3-0.4-0.8-0.4-1.5v-2.5h-0.8v-1h0.8v-1L569.7,191.7z"/>
			</g>
			<g>
				<path fill="#FFFFFF" d="M575.1,193.1l0.5,2.4c0.1,0.6,0.3,1.2,0.4,1.7h0c0.1-0.6,0.3-1.2,0.4-1.7l0.7-2.4h1.1l0.7,2.4
					c0.2,0.6,0.3,1.2,0.4,1.8h0c0.1-0.6,0.2-1.2,0.4-1.8l0.6-2.4h1.3l-1.7,5.4h-1.3l-0.6-2.2c-0.2-0.6-0.3-1.1-0.4-1.7h0
					c-0.1,0.7-0.3,1.2-0.4,1.7l-0.7,2.2h-1.3l-1.6-5.4H575.1z"/>
			</g>
			<g>
				<path fill="#FFFFFF" d="M582.5,190.6h1.4v3.2h0c0.2-0.3,0.4-0.5,0.7-0.6c0.3-0.2,0.6-0.2,0.9-0.2c0.9,0,1.9,0.6,1.9,2.3v3.2H586
					v-3c0-0.8-0.3-1.4-1-1.4c-0.5,0-0.9,0.4-1.1,0.8c0,0.1-0.1,0.3-0.1,0.4v3.2h-1.4V190.6z"/>
			</g>
			<g>
				<path fill="#FFFFFF" d="M593.9,195.7c0,2-1.4,2.8-2.8,2.8c-1.5,0-2.7-1-2.7-2.8c0-1.8,1.2-2.8,2.8-2.8
					C592.9,193,593.9,194.1,593.9,195.7z M589.9,195.8c0,1,0.5,1.8,1.3,1.8c0.8,0,1.3-0.7,1.3-1.8c0-0.8-0.4-1.8-1.3-1.8
					C590.3,193.9,589.9,194.9,589.9,195.8z"/>
			</g>
			<g>
				<path fill="#FFFFFF" d="M598.1,193.1l0.5,2.4c0.1,0.6,0.3,1.2,0.4,1.7h0c0.1-0.6,0.3-1.2,0.4-1.7l0.7-2.4h1.1l0.7,2.4
					c0.2,0.6,0.3,1.2,0.4,1.8h0c0.1-0.6,0.2-1.2,0.4-1.8l0.6-2.4h1.3l-1.7,5.4h-1.3l-0.6-2.2c-0.2-0.6-0.3-1.1-0.4-1.7h0
					c-0.1,0.7-0.3,1.2-0.4,1.7l-0.7,2.2h-1.3l-1.6-5.4H598.1z"/>
			</g>
			<g>
				<path fill="#FFFFFF" d="M610.5,195.7c0,2-1.4,2.8-2.8,2.8c-1.5,0-2.7-1-2.7-2.8c0-1.8,1.2-2.8,2.8-2.8
					C609.4,193,610.5,194.1,610.5,195.7z M606.5,195.8c0,1,0.5,1.8,1.3,1.8c0.8,0,1.3-0.7,1.3-1.8c0-0.8-0.4-1.8-1.3-1.8
					C606.9,193.9,606.5,194.9,606.5,195.8z"/>
			</g>
			<g>
				<path fill="#FFFFFF" d="M616.4,196.8c0,0.6,0,1.2,0,1.6h-1.2l-0.1-0.8h0c-0.2,0.4-0.8,0.9-1.7,0.9s-1.9-0.6-1.9-2.3v-3.1h1.4
					v2.9c0,0.9,0.3,1.5,1,1.5c0.5,0,0.9-0.4,1-0.7c0.1-0.1,0.1-0.3,0.1-0.4v-3.2h1.4V196.8z"/>
			</g>
			<g>
				<path fill="#FFFFFF" d="M617.9,190.6h1.4v7.8h-1.4V190.6z"/>
			</g>
			<g>
				<path fill="#FFFFFF" d="M625.6,190.6v6.3c0,0.5,0,1.1,0,1.5h-1.2l-0.1-0.8h0c-0.3,0.6-1,1-1.7,1c-1.3,0-2.3-1.1-2.3-2.7
					c0-1.8,1.1-2.9,2.4-2.9c0.7,0,1.3,0.3,1.5,0.7h0v-3H625.6z M624.3,195.3c0-0.1,0-0.3,0-0.4c-0.1-0.5-0.5-0.9-1.2-0.9
					c-0.9,0-1.4,0.8-1.4,1.8c0,1,0.5,1.7,1.3,1.7c0.5,0,1-0.4,1.2-1c0-0.1,0-0.3,0-0.4V195.3z"/>
			</g>
			<g>
				<path fill="#FFFFFF" d="M629.4,190.6h1.4v3.2h0c0.3-0.5,0.9-0.9,1.7-0.9c1.3,0,2.2,1.1,2.2,2.7c0,1.9-1.2,2.9-2.4,2.9
					c-0.7,0-1.3-0.3-1.7-0.9h0l-0.1,0.8h-1.2c0-0.4,0-1,0-1.5V190.6z M630.7,196.2c0,0.1,0,0.2,0,0.3c0.1,0.6,0.6,0.9,1.2,0.9
					c0.8,0,1.4-0.7,1.4-1.8c0-0.9-0.5-1.7-1.4-1.7c-0.5,0-1.1,0.4-1.2,1c0,0.1,0,0.2,0,0.4V196.2z"/>
			</g>
			<g>
				<path fill="#FFFFFF" d="M636.8,196.1c0,1,0.8,1.4,1.6,1.4c0.6,0,1.1-0.1,1.5-0.2l0.2,0.9c-0.5,0.2-1.1,0.3-1.9,0.3
					c-1.7,0-2.8-1.1-2.8-2.7c0-1.5,0.9-2.9,2.6-2.9c1.7,0,2.3,1.4,2.3,2.6c0,0.3,0,0.5,0,0.6H636.8z M639.1,195.2
					c0-0.5-0.2-1.3-1.1-1.3c-0.8,0-1.2,0.8-1.2,1.3H639.1z"/>
			</g>
			<g>
				<path fill="#FFFFFF" d="M645.2,191.6c0,0.4-0.3,0.7-0.8,0.7c-0.5,0-0.7-0.3-0.7-0.7c0-0.4,0.3-0.7,0.8-0.7
					C644.9,190.9,645.2,191.2,645.2,191.6z M643.8,198.4v-5.4h1.4v5.4H643.8z"/>
			</g>
			<g>
				<path fill="#FFFFFF" d="M646.6,194.7c0-0.6,0-1.1,0-1.6h1.2l0.1,0.8h0c0.2-0.4,0.8-0.9,1.7-0.9c0.9,0,1.9,0.6,1.9,2.3v3.2h-1.4
					v-3c0-0.8-0.3-1.4-1-1.4c-0.5,0-0.9,0.4-1.1,0.8c0,0.1-0.1,0.3-0.1,0.4v3.2h-1.4V194.7z"/>
			</g>
			<g>
				<path fill="#FFFFFF" d="M654.4,191.7v1.4h1.3v1h-1.3v2.4c0,0.7,0.2,1,0.7,1c0.2,0,0.4,0,0.5-0.1l0,1c-0.2,0.1-0.6,0.1-1,0.1
					c-0.5,0-0.9-0.2-1.2-0.4c-0.3-0.3-0.4-0.8-0.4-1.5v-2.5h-0.8v-1h0.8v-1L654.4,191.7z"/>
			</g>
			<g>
				<path fill="#FFFFFF" d="M657.6,196.1c0,1,0.8,1.4,1.6,1.4c0.6,0,1.1-0.1,1.5-0.2l0.2,0.9c-0.5,0.2-1.1,0.3-1.9,0.3
					c-1.7,0-2.8-1.1-2.8-2.7c0-1.5,0.9-2.9,2.6-2.9c1.7,0,2.3,1.4,2.3,2.6c0,0.3,0,0.5,0,0.6H657.6z M659.9,195.2
					c0-0.5-0.2-1.3-1.1-1.3c-0.8,0-1.2,0.8-1.2,1.3H659.9z"/>
			</g>
			<g>
				<path fill="#FFFFFF" d="M662.3,194.8c0-0.7,0-1.3,0-1.7h1.2l0.1,1h0c0.3-0.7,0.9-1.1,1.5-1.1c0.1,0,0.2,0,0.3,0v1.3
					c-0.1,0-0.2,0-0.4,0c-0.6,0-1.1,0.4-1.2,1c0,0.1,0,0.3,0,0.4v2.8h-1.4V194.8z"/>
			</g>
			<g>
				<path fill="#FFFFFF" d="M667.1,196.1c0,1,0.8,1.4,1.6,1.4c0.6,0,1.1-0.1,1.5-0.2l0.2,0.9c-0.5,0.2-1.1,0.3-1.9,0.3
					c-1.7,0-2.8-1.1-2.8-2.7c0-1.5,0.9-2.9,2.6-2.9c1.7,0,2.3,1.4,2.3,2.6c0,0.3,0,0.5,0,0.6H667.1z M669.4,195.2
					c0-0.5-0.2-1.3-1.1-1.3c-0.8,0-1.2,0.8-1.2,1.3H669.4z"/>
			</g>
			<g>
				<path fill="#FFFFFF" d="M671.7,197.2c0.3,0.2,0.9,0.4,1.4,0.4c0.6,0,0.9-0.3,0.9-0.6c0-0.4-0.2-0.5-0.9-0.8
					c-1-0.4-1.5-0.9-1.5-1.6c0-0.9,0.8-1.7,2-1.7c0.6,0,1.1,0.1,1.4,0.3l-0.3,0.9c-0.2-0.1-0.7-0.3-1.1-0.3c-0.5,0-0.7,0.2-0.7,0.6
					c0,0.3,0.3,0.5,0.9,0.7c1,0.3,1.4,0.8,1.4,1.6c0,1-0.8,1.7-2.2,1.7c-0.6,0-1.2-0.2-1.6-0.4L671.7,197.2z"/>
			</g>
			<g>
				<path fill="#FFFFFF" d="M677.9,191.7v1.4h1.3v1h-1.3v2.4c0,0.7,0.2,1,0.7,1c0.2,0,0.4,0,0.5-0.1l0,1c-0.2,0.1-0.6,0.1-1,0.1
					c-0.5,0-0.9-0.2-1.2-0.4c-0.3-0.3-0.4-0.8-0.4-1.5v-2.5h-0.8v-1h0.8v-1L677.9,191.7z"/>
			</g>
			<g>
				<path fill="#FFFFFF" d="M681.1,196.1c0,1,0.8,1.4,1.6,1.4c0.6,0,1.1-0.1,1.5-0.2l0.2,0.9c-0.5,0.2-1.1,0.3-1.9,0.3
					c-1.7,0-2.8-1.1-2.8-2.7c0-1.5,0.9-2.9,2.6-2.9c1.7,0,2.3,1.4,2.3,2.6c0,0.3,0,0.5,0,0.6H681.1z M683.5,195.2
					c0-0.5-0.2-1.3-1.1-1.3c-0.8,0-1.2,0.8-1.2,1.3H683.5z"/>
			</g>
			<g>
				<path fill="#FFFFFF" d="M690.8,190.6v6.3c0,0.5,0,1.1,0,1.5h-1.2l-0.1-0.8h0c-0.3,0.6-1,1-1.7,1c-1.3,0-2.3-1.1-2.3-2.7
					c0-1.8,1.1-2.9,2.4-2.9c0.7,0,1.3,0.3,1.5,0.7h0v-3H690.8z M689.4,195.3c0-0.1,0-0.3,0-0.4c-0.1-0.5-0.5-0.9-1.2-0.9
					c-0.9,0-1.4,0.8-1.4,1.8c0,1,0.5,1.7,1.3,1.7c0.5,0,1-0.4,1.2-1c0-0.1,0-0.3,0-0.4V195.3z"/>
			</g>
			<g>
				<path fill="#FFFFFF" d="M402.6,208c0.6-0.1,1.4-0.2,2.2-0.2c1.4,0,2.3,0.3,3,0.9c0.7,0.6,1.2,1.5,1.2,2.7c0,1.3-0.5,2.3-1.2,2.9
					c-0.7,0.7-1.9,1-3.4,1c-0.8,0-1.4,0-1.8-0.1V208z M403.9,214.3c0.2,0,0.5,0,0.7,0c1.8,0,2.8-1,2.8-2.8c0-1.6-0.9-2.6-2.6-2.6
					c-0.4,0-0.7,0-0.9,0.1V214.3z"/>
			</g>
			<g>
				<path fill="#FFFFFF" d="M411,213c0,1,0.8,1.4,1.6,1.4c0.6,0,1.1-0.1,1.5-0.2l0.2,0.9c-0.5,0.2-1.1,0.3-1.9,0.3
					c-1.7,0-2.8-1.1-2.8-2.7c0-1.5,0.9-2.9,2.6-2.9c1.7,0,2.3,1.4,2.3,2.6c0,0.3,0,0.5,0,0.6H411z M413.4,212.1
					c0-0.5-0.2-1.3-1.1-1.3c-0.8,0-1.2,0.8-1.2,1.3H413.4z"/>
			</g>
			<g>
				<path fill="#FFFFFF" d="M415.7,214.1c0.3,0.2,0.9,0.4,1.4,0.4c0.6,0,0.9-0.3,0.9-0.6c0-0.4-0.2-0.5-0.9-0.8
					c-1-0.4-1.5-0.9-1.5-1.6c0-0.9,0.8-1.7,2-1.7c0.6,0,1.1,0.1,1.4,0.3l-0.3,0.9c-0.2-0.1-0.7-0.3-1.1-0.3c-0.5,0-0.7,0.2-0.7,0.6
					c0,0.3,0.3,0.5,0.9,0.7c1,0.3,1.4,0.8,1.4,1.6c0,1-0.8,1.7-2.2,1.7c-0.6,0-1.2-0.2-1.6-0.4L415.7,214.1z"/>
			</g>
			<g>
				<path fill="#FFFFFF" d="M424.2,215.2c-0.3,0.1-0.8,0.3-1.5,0.3c-1.7,0-2.8-1.1-2.8-2.7c0-1.6,1.1-2.8,3-2.8c0.5,0,1,0.1,1.3,0.2
					l-0.2,1c-0.2-0.1-0.5-0.2-1-0.2c-1,0-1.6,0.8-1.6,1.7c0,1.1,0.7,1.7,1.6,1.7c0.5,0,0.8-0.1,1.1-0.2L424.2,215.2z"/>
			</g>
			<g>
				<path fill="#FFFFFF" d="M425.2,211.7c0-0.7,0-1.3,0-1.7h1.2l0.1,1h0c0.3-0.7,0.9-1.1,1.5-1.1c0.1,0,0.2,0,0.3,0v1.3
					c-0.1,0-0.2,0-0.4,0c-0.6,0-1.1,0.4-1.2,1c0,0.1,0,0.3,0,0.4v2.8h-1.4V211.7z"/>
			</g>
			<g>
				<path fill="#FFFFFF" d="M430.6,208.5c0,0.4-0.3,0.7-0.8,0.7c-0.5,0-0.7-0.3-0.7-0.7c0-0.4,0.3-0.7,0.8-0.7
					C430.3,207.7,430.6,208.1,430.6,208.5z M429.2,215.3V210h1.4v5.4H429.2z"/>
			</g>
			<g>
				<path fill="#FFFFFF" d="M432,211.8c0-0.7,0-1.3,0-1.8h1.2l0.1,0.8h0c0.4-0.6,1-0.9,1.8-0.9c1.2,0,2.3,1.1,2.3,2.7
					c0,1.9-1.2,2.9-2.4,2.9c-0.7,0-1.2-0.3-1.5-0.7h0v2.8H432V211.8z M433.3,213.1c0,0.1,0,0.3,0,0.4c0.1,0.5,0.6,0.9,1.2,0.9
					c0.9,0,1.4-0.7,1.4-1.8c0-0.9-0.5-1.7-1.3-1.7c-0.6,0-1.1,0.4-1.2,1c0,0.1,0,0.2,0,0.3V213.1z"/>
			</g>
			<g>
				<path fill="#FFFFFF" d="M440,208.6v1.4h1.3v1H440v2.4c0,0.7,0.2,1,0.7,1c0.2,0,0.4,0,0.5-0.1l0,1c-0.2,0.1-0.6,0.1-1,0.1
					c-0.5,0-0.9-0.2-1.2-0.4c-0.3-0.3-0.4-0.8-0.4-1.5V211h-0.8v-1h0.8v-1L440,208.6z"/>
			</g>
			<g>
				<path fill="#FFFFFF" d="M443.7,208.5c0,0.4-0.3,0.7-0.8,0.7c-0.5,0-0.7-0.3-0.7-0.7c0-0.4,0.3-0.7,0.8-0.7
					C443.4,207.7,443.7,208.1,443.7,208.5z M442.3,215.3V210h1.4v5.4H442.3z"/>
			</g>
			<g>
				<path fill="#FFFFFF" d="M450.2,212.6c0,2-1.4,2.8-2.8,2.8c-1.5,0-2.7-1-2.7-2.8c0-1.8,1.2-2.8,2.8-2.8
					C449.1,209.9,450.2,211,450.2,212.6z M446.1,212.7c0,1,0.5,1.8,1.3,1.8c0.8,0,1.3-0.7,1.3-1.8c0-0.8-0.4-1.8-1.3-1.8
					C446.5,210.8,446.1,211.8,446.1,212.7z"/>
			</g>
			<g>
				<path fill="#FFFFFF" d="M451.3,211.6c0-0.6,0-1.1,0-1.6h1.2l0.1,0.8h0c0.2-0.4,0.8-0.9,1.7-0.9c0.9,0,1.9,0.6,1.9,2.3v3.2h-1.4
					v-3c0-0.8-0.3-1.4-1-1.4c-0.5,0-0.9,0.4-1.1,0.8c0,0.1-0.1,0.3-0.1,0.4v3.2h-1.4V211.6z"/>
			</g>
			<g>
				<path fill="#FFFFFF" d="M457.4,210.9c0-0.5,0.3-0.9,0.8-0.9s0.8,0.4,0.8,0.9c0,0.5-0.3,0.9-0.8,0.9
					C457.8,211.7,457.4,211.4,457.4,210.9z M457.4,214.6c0-0.5,0.3-0.9,0.8-0.9s0.8,0.4,0.8,0.9c0,0.5-0.3,0.9-0.8,0.9
					C457.8,215.5,457.4,215.1,457.4,214.6z"/>
			</g>
			<g>
				<path fill="#FFFFFF" d="M402.6,230.7c0.4,0.3,1.1,0.5,1.8,0.5c0.9,0,1.3-0.4,1.3-1c0-0.6-0.4-0.9-1.3-1.2c-1.2-0.4-2-1.1-2-2.2
					c0-1.2,1-2.1,2.6-2.1c0.8,0,1.4,0.2,1.8,0.4l-0.3,1.1c-0.3-0.1-0.8-0.4-1.5-0.4c-0.9,0-1.2,0.5-1.2,0.9c0,0.6,0.4,0.8,1.4,1.2
					c1.3,0.5,1.9,1.1,1.9,2.2c0,1.2-0.9,2.2-2.8,2.2c-0.8,0-1.6-0.2-2-0.5L402.6,230.7z"/>
			</g>
			<g>
				<path fill="#FFFFFF" d="M408.2,228.6c0-0.7,0-1.3,0-1.8h1.2l0.1,0.8h0c0.4-0.6,1-0.9,1.8-0.9c1.2,0,2.3,1.1,2.3,2.7
					c0,1.9-1.2,2.9-2.4,2.9c-0.7,0-1.2-0.3-1.5-0.7h0v2.8h-1.4V228.6z M409.6,230c0,0.1,0,0.3,0,0.4c0.1,0.5,0.6,0.9,1.2,0.9
					c0.9,0,1.4-0.7,1.4-1.8c0-0.9-0.5-1.7-1.3-1.7c-0.6,0-1.1,0.4-1.2,1c0,0.1,0,0.2,0,0.3V230z"/>
			</g>
			<g>
				<path fill="#FFFFFF" d="M419.8,229.5c0,2-1.4,2.8-2.8,2.8c-1.5,0-2.7-1-2.7-2.8c0-1.8,1.2-2.8,2.8-2.8
					C418.7,226.7,419.8,227.9,419.8,229.5z M415.7,229.5c0,1,0.5,1.8,1.3,1.8c0.8,0,1.3-0.7,1.3-1.8c0-0.8-0.4-1.8-1.3-1.8
					C416.1,227.7,415.7,228.7,415.7,229.5z"/>
			</g>
			<g>
				<path fill="#FFFFFF" d="M422.4,225.5v1.4h1.3v1h-1.3v2.4c0,0.7,0.2,1,0.7,1c0.2,0,0.4,0,0.5-0.1l0,1c-0.2,0.1-0.6,0.1-1,0.1
					c-0.5,0-0.9-0.2-1.2-0.4c-0.3-0.3-0.4-0.8-0.4-1.5v-2.5h-0.8v-1h0.8v-1L422.4,225.5z"/>
			</g>
			<g>
				<path fill="#FFFFFF" d="M426.3,225.5v1.4h1.3v1h-1.3v2.4c0,0.7,0.2,1,0.7,1c0.2,0,0.4,0,0.5-0.1l0,1c-0.2,0.1-0.6,0.1-1,0.1
					c-0.5,0-0.9-0.2-1.2-0.4c-0.3-0.3-0.4-0.8-0.4-1.5v-2.5h-0.8v-1h0.8v-1L426.3,225.5z"/>
			</g>
			<g>
				<path fill="#FFFFFF" d="M429.5,226.9l1,2.9c0.1,0.3,0.2,0.7,0.3,1h0c0.1-0.3,0.2-0.7,0.3-1l0.8-2.9h1.4l-1.3,3.7
					c-0.7,2-1.2,2.9-1.9,3.4c-0.5,0.5-1.1,0.6-1.4,0.7l-0.3-1.1c0.2-0.1,0.5-0.2,0.8-0.4c0.3-0.2,0.6-0.5,0.7-0.8
					c0.1-0.1,0.1-0.2,0.1-0.2c0-0.1,0-0.1-0.1-0.3l-2-4.9H429.5z"/>
			</g>
			<g>
				<path fill="#FFFFFF" d="M437.9,225.4c0,0.4-0.3,0.7-0.8,0.7c-0.5,0-0.7-0.3-0.7-0.7c0-0.4,0.3-0.7,0.8-0.7
					C437.6,224.6,437.9,225,437.9,225.4z M436.5,232.2v-5.4h1.4v5.4H436.5z"/>
			</g>
			<g>
				<path fill="#FFFFFF" d="M439.2,231c0.3,0.2,0.9,0.4,1.4,0.4c0.6,0,0.9-0.3,0.9-0.6c0-0.4-0.2-0.5-0.9-0.8
					c-1-0.4-1.5-0.9-1.5-1.6c0-0.9,0.8-1.7,2-1.7c0.6,0,1.1,0.1,1.4,0.3l-0.3,0.9c-0.2-0.1-0.7-0.3-1.1-0.3c-0.5,0-0.7,0.2-0.7,0.6
					c0,0.3,0.3,0.5,0.9,0.7c1,0.3,1.4,0.8,1.4,1.6c0,1-0.8,1.7-2.2,1.7c-0.6,0-1.2-0.2-1.6-0.4L439.2,231z"/>
			</g>
			<g>
				<path fill="#FFFFFF" d="M450.3,230.9c0,0.5,0,1,0.1,1.3h-1.2l-0.1-0.6h0c-0.3,0.4-0.9,0.7-1.6,0.7c-1.1,0-1.7-0.8-1.7-1.6
					c0-1.3,1.2-2,3.2-2v-0.1c0-0.4-0.1-0.9-1.1-0.9c-0.5,0-1.1,0.2-1.4,0.4l-0.3-0.9c0.4-0.2,1.1-0.5,1.9-0.5c1.7,0,2.2,1.1,2.2,2.3
					V230.9z M449,229.6c-1,0-1.9,0.2-1.9,1c0,0.5,0.3,0.8,0.8,0.8c0.6,0,0.9-0.4,1.1-0.7c0-0.1,0-0.2,0-0.3V229.6z"/>
			</g>
			<g>
				<path fill="#FFFFFF" d="M451.7,228.5c0-0.6,0-1.1,0-1.6h1.2l0.1,0.8h0c0.2-0.4,0.8-0.9,1.7-0.9c0.9,0,1.9,0.6,1.9,2.3v3.2h-1.4
					v-3c0-0.8-0.3-1.4-1-1.4c-0.5,0-0.9,0.4-1.1,0.8c0,0.1-0.1,0.3-0.1,0.4v3.2h-1.4V228.5z"/>
			</g>
			<g>
				<path fill="#FFFFFF" d="M461.7,225.4c0,0.4-0.3,0.7-0.8,0.7c-0.5,0-0.7-0.3-0.7-0.7c0-0.4,0.3-0.7,0.8-0.7
					C461.4,224.6,461.7,225,461.7,225.4z M460.3,232.2v-5.4h1.4v5.4H460.3z"/>
			</g>
			<g>
				<path fill="#FFFFFF" d="M463.1,228.5c0-0.6,0-1.1,0-1.6h1.2l0.1,0.8h0c0.2-0.4,0.8-0.9,1.7-0.9c0.9,0,1.9,0.6,1.9,2.3v3.2h-1.4
					v-3c0-0.8-0.3-1.4-1-1.4c-0.5,0-0.9,0.4-1.1,0.8c0,0.1-0.1,0.3-0.1,0.4v3.2h-1.4V228.5z"/>
			</g>
			<g>
				<path fill="#FFFFFF" d="M470.8,225.4c0,0.4-0.3,0.7-0.8,0.7c-0.5,0-0.7-0.3-0.7-0.7c0-0.4,0.3-0.7,0.8-0.7
					C470.5,224.6,470.8,225,470.8,225.4z M469.4,232.2v-5.4h1.4v5.4H469.4z"/>
			</g>
			<g>
				<path fill="#FFFFFF" d="M473.8,225.5v1.4h1.3v1h-1.3v2.4c0,0.7,0.2,1,0.7,1c0.2,0,0.4,0,0.5-0.1l0,1c-0.2,0.1-0.6,0.1-1,0.1
					c-0.5,0-0.9-0.2-1.2-0.4c-0.3-0.3-0.4-0.8-0.4-1.5v-2.5h-0.8v-1h0.8v-1L473.8,225.5z"/>
			</g>
			<g>
				<path fill="#FFFFFF" d="M477.5,225.4c0,0.4-0.3,0.7-0.8,0.7c-0.5,0-0.7-0.3-0.7-0.7c0-0.4,0.3-0.7,0.8-0.7
					C477.2,224.6,477.5,225,477.5,225.4z M476.1,232.2v-5.4h1.4v5.4H476.1z"/>
			</g>
			<g>
				<path fill="#FFFFFF" d="M483.1,230.9c0,0.5,0,1,0.1,1.3h-1.2l-0.1-0.6h0c-0.3,0.4-0.9,0.7-1.6,0.7c-1.1,0-1.7-0.8-1.7-1.6
					c0-1.3,1.2-2,3.2-2v-0.1c0-0.4-0.1-0.9-1.1-0.9c-0.5,0-1.1,0.2-1.4,0.4l-0.3-0.9c0.4-0.2,1.1-0.5,1.9-0.5c1.7,0,2.2,1.1,2.2,2.3
					V230.9z M481.7,229.6c-1,0-1.9,0.2-1.9,1c0,0.5,0.3,0.8,0.8,0.8c0.5,0,0.9-0.4,1.1-0.7c0-0.1,0-0.2,0-0.3V229.6z"/>
			</g>
			<g>
				<path fill="#FFFFFF" d="M486,225.5v1.4h1.3v1H486v2.4c0,0.7,0.2,1,0.7,1c0.2,0,0.4,0,0.5-0.1l0,1c-0.2,0.1-0.6,0.1-1,0.1
					c-0.5,0-0.9-0.2-1.2-0.4c-0.3-0.3-0.4-0.8-0.4-1.5v-2.5h-0.8v-1h0.8v-1L486,225.5z"/>
			</g>
			<g>
				<path fill="#FFFFFF" d="M493.3,229.5c0,2-1.4,2.8-2.8,2.8c-1.5,0-2.7-1-2.7-2.8c0-1.8,1.2-2.8,2.8-2.8
					C492.2,226.7,493.3,227.9,493.3,229.5z M489.3,229.5c0,1,0.5,1.8,1.3,1.8c0.8,0,1.3-0.7,1.3-1.8c0-0.8-0.4-1.8-1.3-1.8
					C489.7,227.7,489.3,228.7,489.3,229.5z"/>
			</g>
			<g>
				<path fill="#FFFFFF" d="M494.4,228.6c0-0.7,0-1.3,0-1.7h1.2l0.1,1h0c0.3-0.7,0.9-1.1,1.5-1.1c0.1,0,0.2,0,0.3,0v1.3
					c-0.1,0-0.2,0-0.4,0c-0.6,0-1.1,0.4-1.2,1c0,0.1,0,0.3,0,0.4v2.8h-1.4V228.6z"/>
			</g>
			<g>
				<path fill="#FFFFFF" d="M497.5,231.5c0-0.5,0.4-0.9,0.8-0.9c0.5,0,0.8,0.4,0.8,0.9c0,0.5-0.3,0.9-0.8,0.9
					C497.9,232.3,497.5,232,497.5,231.5z"/>
			</g>
			<g>
				<path fill="#FFFFFF" d="M504,224.8v3h3.1v-3h1.4v7.4h-1.4V229H504v3.3h-1.4v-7.4H504z"/>
			</g>
			<g>
				<path fill="#FFFFFF" d="M510.9,229.9c0,1,0.8,1.4,1.6,1.4c0.6,0,1.1-0.1,1.5-0.2l0.2,0.9c-0.5,0.2-1.1,0.3-1.9,0.3
					c-1.7,0-2.8-1.1-2.8-2.7c0-1.5,0.9-2.9,2.6-2.9c1.7,0,2.3,1.4,2.3,2.6c0,0.3,0,0.5,0,0.6H510.9z M513.3,229
					c0-0.5-0.2-1.3-1.1-1.3c-0.8,0-1.2,0.8-1.2,1.3H513.3z"/>
			</g>
			<g>
				<path fill="#FFFFFF" d="M518.9,229.9c0,1,0.8,1.4,1.6,1.4c0.6,0,1.1-0.1,1.5-0.2l0.2,0.9c-0.5,0.2-1.1,0.3-1.9,0.3
					c-1.7,0-2.8-1.1-2.8-2.7c0-1.5,0.9-2.9,2.6-2.9c1.7,0,2.3,1.4,2.3,2.6c0,0.3,0,0.5,0,0.6H518.9z M521.2,229
					c0-0.5-0.2-1.3-1.1-1.3c-0.8,0-1.2,0.8-1.2,1.3H521.2z"/>
			</g>
			<g>
				<path fill="#FFFFFF" d="M523.6,228.5c0-0.6,0-1.1,0-1.6h1.2l0.1,0.8h0c0.2-0.4,0.8-0.9,1.7-0.9c0.9,0,1.9,0.6,1.9,2.3v3.2h-1.4
					v-3c0-0.8-0.3-1.4-1-1.4c-0.5,0-0.9,0.4-1.1,0.8c0,0.1-0.1,0.3-0.1,0.4v3.2h-1.4V228.5z"/>
			</g>
			<g>
				<path fill="#FFFFFF" d="M528.7,233.5c0.4,0,0.8-0.2,1-0.4c0.3-0.3,0.4-0.7,0.4-1.9v-4.4h1.4v4.8c0,1.1-0.2,1.8-0.7,2.3
					c-0.5,0.4-1.2,0.6-1.9,0.6L528.7,233.5z M531.5,225.4c0,0.4-0.3,0.7-0.8,0.7c-0.5,0-0.7-0.3-0.7-0.7c0-0.4,0.3-0.7,0.8-0.7
					C531.2,224.6,531.5,225,531.5,225.4z"/>
			</g>
			<g>
				<path fill="#FFFFFF" d="M537.9,229.5c0,2-1.4,2.8-2.8,2.8c-1.5,0-2.7-1-2.7-2.8c0-1.8,1.2-2.8,2.8-2.8
					C536.9,226.7,537.9,227.9,537.9,229.5z M533.9,229.5c0,1,0.5,1.8,1.3,1.8c0.8,0,1.3-0.7,1.3-1.8c0-0.8-0.4-1.8-1.3-1.8
					C534.3,227.7,533.9,228.7,533.9,229.5z"/>
			</g>
			<g>
				<path fill="#FFFFFF" d="M539.8,226.9l1,2.9c0.1,0.3,0.2,0.7,0.3,1h0c0.1-0.3,0.2-0.7,0.3-1l0.8-2.9h1.4l-1.3,3.7
					c-0.7,2-1.2,2.9-1.9,3.4c-0.5,0.5-1.1,0.6-1.4,0.7l-0.3-1.1c0.2-0.1,0.5-0.2,0.8-0.4c0.3-0.2,0.6-0.5,0.7-0.8
					c0.1-0.1,0.1-0.2,0.1-0.2c0-0.1,0-0.1-0.1-0.3l-2-4.9H539.8z"/>
			</g>
			<g>
				<path fill="#FFFFFF" d="M544.3,231c0.3,0.2,0.9,0.4,1.4,0.4c0.6,0,0.9-0.3,0.9-0.6c0-0.4-0.2-0.5-0.9-0.8
					c-1-0.4-1.5-0.9-1.5-1.6c0-0.9,0.8-1.7,2-1.7c0.6,0,1.1,0.1,1.4,0.3l-0.3,0.9c-0.2-0.1-0.7-0.3-1.1-0.3c-0.5,0-0.7,0.2-0.7,0.6
					c0,0.3,0.3,0.5,0.9,0.7c1,0.3,1.4,0.8,1.4,1.6c0,1-0.8,1.7-2.2,1.7c-0.6,0-1.2-0.2-1.6-0.4L544.3,231z"/>
			</g>
			<g>
				<path fill="#FFFFFF" d="M551.2,224.4h1.4v3.2h0c0.2-0.3,0.4-0.5,0.7-0.6c0.3-0.2,0.6-0.2,0.9-0.2c0.9,0,1.9,0.6,1.9,2.3v3.2
					h-1.4v-3c0-0.8-0.3-1.4-1-1.4c-0.5,0-0.9,0.4-1.1,0.8c0,0.1-0.1,0.3-0.1,0.4v3.2h-1.4V224.4z"/>
			</g>
			<g>
				<path fill="#FFFFFF" d="M561.6,230.9c0,0.5,0,1,0.1,1.3h-1.2l-0.1-0.6h0c-0.3,0.4-0.9,0.7-1.6,0.7c-1.1,0-1.7-0.8-1.7-1.6
					c0-1.3,1.2-2,3.2-2v-0.1c0-0.4-0.1-0.9-1.1-0.9c-0.5,0-1.1,0.2-1.4,0.4l-0.3-0.9c0.4-0.2,1.1-0.5,1.9-0.5c1.7,0,2.2,1.1,2.2,2.3
					V230.9z M560.3,229.6c-1,0-1.9,0.2-1.9,1c0,0.5,0.3,0.8,0.8,0.8c0.6,0,0.9-0.4,1.1-0.7c0-0.1,0-0.2,0-0.3V229.6z"/>
			</g>
			<g>
				<path fill="#FFFFFF" d="M563.1,228.5c0-0.6,0-1.1,0-1.6h1.2l0.1,0.8h0c0.2-0.4,0.8-0.9,1.7-0.9c0.9,0,1.9,0.6,1.9,2.3v3.2h-1.4
					v-3c0-0.8-0.3-1.4-1-1.4c-0.5,0-0.9,0.4-1.1,0.8c0,0.1-0.1,0.3-0.1,0.4v3.2h-1.4V228.5z"/>
			</g>
			<g>
				<path fill="#FFFFFF" d="M574.2,231.4c0,1.1-0.2,1.9-0.8,2.4c-0.6,0.5-1.3,0.6-2.1,0.6c-0.7,0-1.4-0.2-1.9-0.4l0.3-1
					c0.3,0.2,0.9,0.4,1.6,0.4c0.9,0,1.5-0.5,1.5-1.6v-0.5h0c-0.3,0.5-0.8,0.8-1.6,0.8c-1.3,0-2.3-1.1-2.3-2.6c0-1.8,1.1-2.8,2.4-2.8
					c0.8,0,1.3,0.4,1.6,0.8h0l0.1-0.7h1.2c0,0.4,0,0.8,0,1.5V231.4z M572.9,229c0-0.1,0-0.3,0-0.4c-0.1-0.5-0.5-0.9-1.1-0.9
					c-0.8,0-1.3,0.7-1.3,1.7c0,0.9,0.5,1.7,1.3,1.7c0.5,0,0.9-0.3,1.1-0.8c0-0.1,0.1-0.3,0.1-0.5V229z"/>
			</g>
			<g>
				<path fill="#FFFFFF" d="M577.1,225.4c0,0.4-0.3,0.7-0.8,0.7c-0.5,0-0.7-0.3-0.7-0.7c0-0.4,0.3-0.7,0.8-0.7
					C576.8,224.6,577,225,577.1,225.4z M575.6,232.2v-5.4h1.4v5.4H575.6z"/>
			</g>
			<g>
				<path fill="#FFFFFF" d="M578.4,228.5c0-0.6,0-1.1,0-1.6h1.2l0.1,0.8h0c0.2-0.4,0.8-0.9,1.7-0.9c0.9,0,1.9,0.6,1.9,2.3v3.2h-1.4
					v-3c0-0.8-0.3-1.4-1-1.4c-0.5,0-0.9,0.4-1.1,0.8c0,0.1-0.1,0.3-0.1,0.4v3.2h-1.4V228.5z"/>
			</g>
			<g>
				<path fill="#FFFFFF" d="M589.6,231.4c0,1.1-0.2,1.9-0.8,2.4c-0.6,0.5-1.3,0.6-2.1,0.6c-0.7,0-1.4-0.2-1.9-0.4l0.3-1
					c0.3,0.2,0.9,0.4,1.6,0.4c0.9,0,1.5-0.5,1.5-1.6v-0.5h0c-0.3,0.5-0.8,0.8-1.6,0.8c-1.3,0-2.3-1.1-2.3-2.6c0-1.8,1.1-2.8,2.4-2.8
					c0.8,0,1.3,0.4,1.6,0.8h0l0.1-0.7h1.2c0,0.4,0,0.8,0,1.5V231.4z M588.2,229c0-0.1,0-0.3,0-0.4c-0.1-0.5-0.5-0.9-1.1-0.9
					c-0.8,0-1.3,0.7-1.3,1.7c0,0.9,0.5,1.7,1.3,1.7c0.5,0,0.9-0.3,1.1-0.8c0-0.1,0.1-0.3,0.1-0.5V229z"/>
			</g>
			<g>
				<path fill="#FFFFFF" d="M598.4,229.5c0,2-1.4,2.8-2.8,2.8c-1.5,0-2.7-1-2.7-2.8c0-1.8,1.2-2.8,2.8-2.8
					C597.3,226.7,598.4,227.9,598.4,229.5z M594.4,229.5c0,1,0.5,1.8,1.3,1.8c0.8,0,1.3-0.7,1.3-1.8c0-0.8-0.4-1.8-1.3-1.8
					C594.7,227.7,594.4,228.7,594.4,229.5z"/>
			</g>
			<g>
				<path fill="#FFFFFF" d="M604.3,230.6c0,0.6,0,1.2,0,1.6h-1.2l-0.1-0.8h0c-0.2,0.4-0.8,0.9-1.7,0.9s-1.9-0.6-1.9-2.3v-3.1h1.4
					v2.9c0,0.9,0.3,1.5,1,1.5c0.5,0,0.9-0.4,1-0.7c0.1-0.1,0.1-0.3,0.1-0.4v-3.2h1.4V230.6z"/>
			</g>
			<g>
				<path fill="#FFFFFF" d="M607.3,225.5v1.4h1.3v1h-1.3v2.4c0,0.7,0.2,1,0.7,1c0.2,0,0.4,0,0.5-0.1l0,1c-0.2,0.1-0.6,0.1-1,0.1
					c-0.5,0-0.9-0.2-1.2-0.4c-0.3-0.3-0.4-0.8-0.4-1.5v-2.5h-0.8v-1h0.8v-1L607.3,225.5z"/>
			</g>
			<g>
				<path fill="#FFFFFF" d="M612.7,226.9l0.5,2.4c0.1,0.6,0.3,1.2,0.4,1.7h0c0.1-0.6,0.3-1.2,0.4-1.7l0.7-2.4h1.1l0.7,2.4
					c0.2,0.6,0.3,1.2,0.4,1.8h0c0.1-0.6,0.2-1.2,0.4-1.8l0.6-2.4h1.3l-1.7,5.4h-1.3l-0.6-2.2c-0.2-0.6-0.3-1.1-0.4-1.7h0
					c-0.1,0.7-0.3,1.2-0.4,1.7l-0.7,2.2h-1.3l-1.6-5.4H612.7z"/>
			</g>
			<g>
				<path fill="#FFFFFF" d="M621.6,225.4c0,0.4-0.3,0.7-0.8,0.7c-0.5,0-0.7-0.3-0.7-0.7c0-0.4,0.3-0.7,0.8-0.7
					C621.3,224.6,621.6,225,621.6,225.4z M620.1,232.2v-5.4h1.4v5.4H620.1z"/>
			</g>
			<g>
				<path fill="#FFFFFF" d="M624.5,225.5v1.4h1.3v1h-1.3v2.4c0,0.7,0.2,1,0.7,1c0.2,0,0.4,0,0.5-0.1l0,1c-0.2,0.1-0.6,0.1-1,0.1
					c-0.5,0-0.9-0.2-1.2-0.4c-0.3-0.3-0.4-0.8-0.4-1.5v-2.5h-0.8v-1h0.8v-1L624.5,225.5z"/>
			</g>
			<g>
				<path fill="#FFFFFF" d="M626.8,224.4h1.4v3.2h0c0.2-0.3,0.4-0.5,0.7-0.6c0.3-0.2,0.6-0.2,0.9-0.2c0.9,0,1.9,0.6,1.9,2.3v3.2
					h-1.4v-3c0-0.8-0.3-1.4-1-1.4c-0.5,0-0.9,0.4-1.1,0.8c0,0.1-0.1,0.3-0.1,0.4v3.2h-1.4V224.4z"/>
			</g>
			<g>
				<path fill="#FFFFFF" d="M635.4,224.4h1.4v3.2h0c0.2-0.3,0.4-0.5,0.7-0.6c0.3-0.2,0.6-0.2,0.9-0.2c0.9,0,1.9,0.6,1.9,2.3v3.2
					h-1.4v-3c0-0.8-0.3-1.4-1-1.4c-0.5,0-0.9,0.4-1.1,0.8c0,0.1-0.1,0.3-0.1,0.4v3.2h-1.4V224.4z"/>
			</g>
			<g>
				<path fill="#FFFFFF" d="M643.1,225.4c0,0.4-0.3,0.7-0.8,0.7c-0.5,0-0.7-0.3-0.7-0.7c0-0.4,0.3-0.7,0.8-0.7
					C642.8,224.6,643.1,225,643.1,225.4z M641.7,232.2v-5.4h1.4v5.4H641.7z"/>
			</g>
			<g>
				<path fill="#FFFFFF" d="M644.4,231c0.3,0.2,0.9,0.4,1.4,0.4c0.6,0,0.9-0.3,0.9-0.6c0-0.4-0.2-0.5-0.9-0.8
					c-1-0.4-1.5-0.9-1.5-1.6c0-0.9,0.8-1.7,2-1.7c0.6,0,1.1,0.1,1.4,0.3l-0.3,0.9c-0.2-0.1-0.7-0.3-1.1-0.3c-0.5,0-0.7,0.2-0.7,0.6
					c0,0.3,0.3,0.5,0.9,0.7c1,0.3,1.4,0.8,1.4,1.6c0,1-0.8,1.7-2.2,1.7c-0.6,0-1.2-0.2-1.6-0.4L644.4,231z"/>
			</g>
			<g>
				<path fill="#FFFFFF" d="M651.5,232.2v-4.3h-0.7v-1h0.7v-0.2c0-0.7,0.2-1.4,0.6-1.8c0.4-0.4,0.9-0.5,1.4-0.5
					c0.4,0,0.6,0.1,0.9,0.1l-0.1,1c-0.2-0.1-0.3-0.1-0.6-0.1c-0.7,0-0.9,0.6-0.9,1.2v0.3h1.2v1h-1.2v4.3H651.5z"/>
			</g>
			<g>
				<path fill="#FFFFFF" d="M654.9,228.6c0-0.7,0-1.3,0-1.7h1.2l0.1,1h0c0.3-0.7,0.9-1.1,1.5-1.1c0.1,0,0.2,0,0.3,0v1.3
					c-0.1,0-0.2,0-0.4,0c-0.6,0-1.1,0.4-1.2,1c0,0.1,0,0.3,0,0.4v2.8h-1.4V228.6z"/>
			</g>
			<g>
				<path fill="#FFFFFF" d="M660.2,225.4c0,0.4-0.3,0.7-0.8,0.7c-0.5,0-0.7-0.3-0.7-0.7c0-0.4,0.3-0.7,0.8-0.7
					C659.9,224.6,660.2,225,660.2,225.4z M658.8,232.2v-5.4h1.4v5.4H658.8z"/>
			</g>
			<g>
				<path fill="#FFFFFF" d="M662.6,229.9c0,1,0.8,1.4,1.6,1.4c0.6,0,1.1-0.1,1.5-0.2l0.2,0.9c-0.5,0.2-1.1,0.3-1.9,0.3
					c-1.7,0-2.8-1.1-2.8-2.7c0-1.5,0.9-2.9,2.6-2.9c1.7,0,2.3,1.4,2.3,2.6c0,0.3,0,0.5,0,0.6H662.6z M664.9,229
					c0-0.5-0.2-1.3-1.1-1.3c-0.8,0-1.2,0.8-1.2,1.3H664.9z"/>
			</g>
			<g>
				<path fill="#FFFFFF" d="M667.3,228.5c0-0.6,0-1.1,0-1.6h1.2l0.1,0.8h0c0.2-0.4,0.8-0.9,1.7-0.9c0.9,0,1.9,0.6,1.9,2.3v3.2h-1.4
					v-3c0-0.8-0.3-1.4-1-1.4c-0.5,0-0.9,0.4-1.1,0.8c0,0.1-0.1,0.3-0.1,0.4v3.2h-1.4V228.5z"/>
			</g>
			<g>
				<path fill="#FFFFFF" d="M678.5,224.4v6.3c0,0.5,0,1.1,0,1.5h-1.2l-0.1-0.8h0c-0.3,0.6-1,1-1.7,1c-1.3,0-2.3-1.1-2.3-2.7
					c0-1.8,1.1-2.9,2.4-2.9c0.7,0,1.3,0.3,1.5,0.7h0v-3H678.5z M677.2,229.1c0-0.1,0-0.3,0-0.4c-0.1-0.5-0.5-0.9-1.2-0.9
					c-0.9,0-1.4,0.8-1.4,1.8c0,1,0.5,1.7,1.3,1.7c0.5,0,1-0.4,1.2-1c0-0.1,0-0.3,0-0.4V229.1z"/>
			</g>
			<g>
				<path fill="#FFFFFF" d="M679.9,231c0.3,0.2,0.9,0.4,1.4,0.4c0.6,0,0.9-0.3,0.9-0.6c0-0.4-0.2-0.5-0.9-0.8
					c-1-0.4-1.5-0.9-1.5-1.6c0-0.9,0.8-1.7,2-1.7c0.6,0,1.1,0.1,1.4,0.3L683,228c-0.2-0.1-0.7-0.3-1.1-0.3c-0.5,0-0.7,0.2-0.7,0.6
					c0,0.3,0.3,0.5,0.9,0.7c1,0.3,1.4,0.8,1.4,1.6c0,1-0.8,1.7-2.2,1.7c-0.6,0-1.2-0.2-1.6-0.4L679.9,231z"/>
			</g>
			<g>
				<path fill="#FFFFFF" d="M691,230.9c0,0.5,0,1,0.1,1.3h-1.2l-0.1-0.6h0c-0.3,0.4-0.9,0.7-1.6,0.7c-1.1,0-1.7-0.8-1.7-1.6
					c0-1.3,1.2-2,3.2-2v-0.1c0-0.4-0.1-0.9-1.1-0.9c-0.5,0-1.1,0.2-1.4,0.4l-0.3-0.9c0.4-0.2,1.1-0.5,1.9-0.5c1.7,0,2.2,1.1,2.2,2.3
					V230.9z M689.7,229.6c-1,0-1.9,0.2-1.9,1c0,0.5,0.3,0.8,0.8,0.8c0.5,0,0.9-0.4,1.1-0.7c0-0.1,0-0.2,0-0.3V229.6z"/>
			</g>
			<g>
				<path fill="#FFFFFF" d="M692.4,228.5c0-0.6,0-1.1,0-1.6h1.2l0.1,0.8h0c0.2-0.4,0.8-0.9,1.7-0.9c0.9,0,1.9,0.6,1.9,2.3v3.2h-1.4
					v-3c0-0.8-0.3-1.4-1-1.4c-0.5,0-0.9,0.4-1.1,0.8c0,0.1-0.1,0.3-0.1,0.4v3.2h-1.4V228.5z"/>
			</g>
			<g>
				<path fill="#FFFFFF" d="M703.6,224.4v6.3c0,0.5,0,1.1,0,1.5h-1.2l-0.1-0.8h0c-0.3,0.6-1,1-1.7,1c-1.3,0-2.3-1.1-2.3-2.7
					c0-1.8,1.1-2.9,2.4-2.9c0.7,0,1.3,0.3,1.5,0.7h0v-3H703.6z M702.3,229.1c0-0.1,0-0.3,0-0.4c-0.1-0.5-0.5-0.9-1.2-0.9
					c-0.9,0-1.4,0.8-1.4,1.8c0,1,0.5,1.7,1.3,1.7c0.5,0,1-0.4,1.2-1c0-0.1,0-0.3,0-0.4V229.1z"/>
			</g>
			<g>
				<path fill="#FFFFFF" d="M402.5,241.3h1.4v3.2h0c0.2-0.3,0.4-0.5,0.7-0.6c0.3-0.2,0.6-0.2,0.9-0.2c0.9,0,1.9,0.6,1.9,2.3v3.2H406
					v-3c0-0.8-0.3-1.4-1-1.4c-0.5,0-0.9,0.4-1.1,0.8c0,0.1-0.1,0.3-0.1,0.4v3.2h-1.4V241.3z"/>
			</g>
			<g>
				<path fill="#FFFFFF" d="M409.8,246.8c0,1,0.8,1.4,1.6,1.4c0.6,0,1.1-0.1,1.5-0.2l0.2,0.9c-0.5,0.2-1.1,0.3-1.9,0.3
					c-1.7,0-2.8-1.1-2.8-2.7c0-1.5,0.9-2.9,2.6-2.9c1.7,0,2.3,1.4,2.3,2.6c0,0.3,0,0.5,0,0.6H409.8z M412.1,245.9
					c0-0.5-0.2-1.3-1.1-1.3c-0.8,0-1.2,0.8-1.2,1.3H412.1z"/>
			</g>
			<g>
				<path fill="#FFFFFF" d="M421.7,241.3v6.3c0,0.5,0,1.1,0,1.5h-1.2l-0.1-0.8h0c-0.3,0.6-1,1-1.7,1c-1.3,0-2.3-1.1-2.3-2.7
					c0-1.8,1.1-2.9,2.4-2.9c0.7,0,1.3,0.3,1.5,0.7h0v-3H421.7z M420.4,246c0-0.1,0-0.3,0-0.4c-0.1-0.5-0.5-0.9-1.2-0.9
					c-0.9,0-1.4,0.8-1.4,1.8c0,1,0.5,1.7,1.3,1.7c0.5,0,1-0.4,1.2-1c0-0.1,0-0.3,0-0.4V246z"/>
			</g>
			<g>
				<path fill="#FFFFFF" d="M428.3,246.4c0,2-1.4,2.8-2.8,2.8c-1.5,0-2.7-1-2.7-2.8c0-1.8,1.2-2.8,2.8-2.8
					C427.2,243.6,428.3,244.8,428.3,246.4z M424.2,246.4c0,1,0.5,1.8,1.3,1.8c0.8,0,1.3-0.7,1.3-1.8c0-0.8-0.4-1.8-1.3-1.8
					C424.6,244.6,424.2,245.5,424.2,246.4z"/>
			</g>
			<g>
				<path fill="#FFFFFF" d="M430.3,246.8c0,1,0.8,1.4,1.6,1.4c0.6,0,1.1-0.1,1.5-0.2l0.2,0.9c-0.5,0.2-1.1,0.3-1.9,0.3
					c-1.7,0-2.8-1.1-2.8-2.7c0-1.5,0.9-2.9,2.6-2.9c1.7,0,2.3,1.4,2.3,2.6c0,0.3,0,0.5,0,0.6H430.3z M432.7,245.9
					c0-0.5-0.2-1.3-1.1-1.3c-0.8,0-1.2,0.8-1.2,1.3H432.7z"/>
			</g>
			<g>
				<path fill="#FFFFFF" d="M435,247.9c0.3,0.2,0.9,0.4,1.4,0.4c0.6,0,0.9-0.3,0.9-0.6c0-0.4-0.2-0.5-0.9-0.8
					c-1-0.4-1.5-0.9-1.5-1.6c0-0.9,0.8-1.7,2-1.7c0.6,0,1.1,0.1,1.4,0.3l-0.3,0.9c-0.2-0.1-0.7-0.3-1.1-0.3c-0.5,0-0.7,0.2-0.7,0.6
					c0,0.3,0.3,0.5,0.9,0.7c1,0.3,1.4,0.8,1.4,1.6c0,1-0.8,1.7-2.2,1.7c-0.6,0-1.2-0.2-1.6-0.4L435,247.9z"/>
			</g>
			<g>
				<path fill="#FFFFFF" d="M443.4,242.3c0,0.4-0.3,0.7-0.8,0.7c-0.5,0-0.7-0.3-0.7-0.7c0-0.4,0.3-0.7,0.8-0.7
					C443.1,241.5,443.3,241.8,443.4,242.3z M441.9,249.1v-5.4h1.4v5.4H441.9z"/>
			</g>
			<g>
				<path fill="#FFFFFF" d="M446.3,242.4v1.4h1.3v1h-1.3v2.4c0,0.7,0.2,1,0.7,1c0.2,0,0.4,0,0.5-0.1l0,1c-0.2,0.1-0.6,0.1-1,0.1
					c-0.5,0-0.9-0.2-1.2-0.4c-0.3-0.3-0.4-0.8-0.4-1.5v-2.5h-0.8v-1h0.8v-1L446.3,242.4z"/>
			</g>
			<g>
				<path fill="#FFFFFF" d="M456,246.4c0,2-1.4,2.8-2.8,2.8c-1.5,0-2.7-1-2.7-2.8c0-1.8,1.2-2.8,2.8-2.8
					C454.9,243.6,456,244.8,456,246.4z M451.9,246.4c0,1,0.5,1.8,1.3,1.8c0.8,0,1.3-0.7,1.3-1.8c0-0.8-0.4-1.8-1.3-1.8
					C452.3,244.6,451.9,245.5,451.9,246.4z"/>
			</g>
			<g>
				<path fill="#FFFFFF" d="M457.2,249.1v-4.3h-0.7v-1h0.7v-0.2c0-0.7,0.2-1.4,0.6-1.8c0.4-0.4,0.9-0.5,1.4-0.5
					c0.4,0,0.6,0.1,0.9,0.1l-0.1,1c-0.2-0.1-0.3-0.1-0.6-0.1c-0.7,0-0.9,0.6-0.9,1.2v0.3h1.2v1h-1.2v4.3H457.2z"/>
			</g>
			<g>
				<path fill="#FFFFFF" d="M462.3,242.4v1.4h1.3v1h-1.3v2.4c0,0.7,0.2,1,0.7,1c0.2,0,0.4,0,0.5-0.1l0,1c-0.2,0.1-0.6,0.1-1,0.1
					c-0.5,0-0.9-0.2-1.2-0.4c-0.3-0.3-0.4-0.8-0.4-1.5v-2.5h-0.8v-1h0.8v-1L462.3,242.4z"/>
			</g>
			<g>
				<path fill="#FFFFFF" d="M465.5,246.8c0,1,0.8,1.4,1.6,1.4c0.6,0,1.1-0.1,1.5-0.2l0.2,0.9c-0.5,0.2-1.1,0.3-1.9,0.3
					c-1.7,0-2.8-1.1-2.8-2.7c0-1.5,0.9-2.9,2.6-2.9c1.7,0,2.3,1.4,2.3,2.6c0,0.3,0,0.5,0,0.6H465.5z M467.8,245.9
					c0-0.5-0.2-1.3-1.1-1.3c-0.8,0-1.2,0.8-1.2,1.3H467.8z"/>
			</g>
			<g>
				<path fill="#FFFFFF" d="M470.2,245.4c0-0.6,0-1.1,0-1.6h1.2l0.1,0.8h0c0.2-0.4,0.8-0.9,1.7-0.9c0.9,0,1.9,0.6,1.9,2.3v3.2h-1.4
					v-3c0-0.8-0.3-1.4-1-1.4c-0.5,0-0.9,0.4-1.1,0.8c0,0.1-0.1,0.3-0.1,0.4v3.2h-1.4V245.4z"/>
			</g>
			<g>
				<path fill="#FFFFFF" d="M476.3,248.4c0-0.5,0.4-0.9,0.8-0.9c0.5,0,0.8,0.4,0.8,0.9c0,0.5-0.3,0.9-0.8,0.9
					C476.7,249.2,476.3,248.9,476.3,248.4z"/>
			</g>
			<g>
				<path fill="#FFFFFF" d="M481.4,241.8c0.4-0.1,1.2-0.2,2-0.2c1,0,1.6,0.1,2.1,0.5c0.5,0.3,0.8,0.8,0.8,1.4c0,0.7-0.4,1.3-1.2,1.6
					v0c0.8,0.2,1.5,0.8,1.5,1.8c0,0.7-0.3,1.2-0.7,1.5c-0.5,0.5-1.4,0.7-2.8,0.7c-0.7,0-1.3-0.1-1.7-0.1V241.8z M482.8,244.7h0.7
					c0.9,0,1.5-0.4,1.5-1.1c0-0.7-0.5-1-1.4-1c-0.4,0-0.6,0-0.8,0.1V244.7z M482.8,248.1c0.2,0,0.4,0,0.7,0c0.9,0,1.6-0.3,1.6-1.2
					c0-0.9-0.8-1.2-1.7-1.2h-0.7V248.1z"/>
			</g>
			<g>
				<path fill="#FFFFFF" d="M488.7,246.8c0,1,0.8,1.4,1.6,1.4c0.6,0,1.1-0.1,1.5-0.2l0.2,0.9c-0.5,0.2-1.1,0.3-1.9,0.3
					c-1.7,0-2.8-1.1-2.8-2.7c0-1.5,0.9-2.9,2.6-2.9c1.7,0,2.3,1.4,2.3,2.6c0,0.3,0,0.5,0,0.6H488.7z M491.1,245.9
					c0-0.5-0.2-1.3-1.1-1.3c-0.8,0-1.2,0.8-1.2,1.3H491.1z"/>
			</g>
			<g>
				<path fill="#FFFFFF" d="M494.9,242.3c0,0.4-0.3,0.7-0.8,0.7c-0.5,0-0.7-0.3-0.7-0.7c0-0.4,0.3-0.7,0.8-0.7
					C494.6,241.5,494.9,241.8,494.9,242.3z M493.4,249.1v-5.4h1.4v5.4H493.4z"/>
			</g>
			<g>
				<path fill="#FFFFFF" d="M496.2,245.4c0-0.6,0-1.1,0-1.6h1.2l0.1,0.8h0c0.2-0.4,0.8-0.9,1.7-0.9c0.9,0,1.9,0.6,1.9,2.3v3.2h-1.4
					v-3c0-0.8-0.3-1.4-1-1.4c-0.5,0-0.9,0.4-1.1,0.8c0,0.1-0.1,0.3-0.1,0.4v3.2h-1.4V245.4z"/>
			</g>
			<g>
				<path fill="#FFFFFF" d="M507.4,248.3c0,1.1-0.2,1.9-0.8,2.4c-0.6,0.5-1.3,0.6-2.1,0.6c-0.7,0-1.4-0.2-1.9-0.4l0.3-1
					c0.3,0.2,0.9,0.4,1.6,0.4c0.9,0,1.5-0.5,1.5-1.6v-0.5h0c-0.3,0.5-0.8,0.8-1.6,0.8c-1.3,0-2.3-1.1-2.3-2.6c0-1.8,1.1-2.8,2.4-2.8
					c0.8,0,1.3,0.4,1.6,0.8h0l0.1-0.7h1.2c0,0.4,0,0.8,0,1.5V248.3z M506,245.9c0-0.1,0-0.3,0-0.4c-0.1-0.5-0.5-0.9-1.1-0.9
					c-0.8,0-1.3,0.7-1.3,1.7c0,0.9,0.5,1.7,1.3,1.7c0.5,0,0.9-0.3,1.1-0.8c0-0.1,0.1-0.3,0.1-0.5V245.9z"/>
			</g>
			<g>
				<path fill="#FFFFFF" d="M515.3,247.8c0,0.5,0,1,0.1,1.3h-1.2l-0.1-0.6h0c-0.3,0.4-0.9,0.7-1.6,0.7c-1.1,0-1.7-0.8-1.7-1.6
					c0-1.3,1.2-2,3.2-2v-0.1c0-0.4-0.1-0.9-1.1-0.9c-0.5,0-1.1,0.2-1.4,0.4l-0.3-0.9c0.4-0.2,1.1-0.5,1.9-0.5c1.7,0,2.2,1.1,2.2,2.3
					V247.8z M513.9,246.5c-1,0-1.9,0.2-1.9,1c0,0.5,0.3,0.8,0.8,0.8c0.5,0,0.9-0.4,1.1-0.7c0-0.1,0-0.2,0-0.3V246.5z"/>
			</g>
			<g>
				<path fill="#FFFFFF" d="M518.9,247.9c0.3,0.2,0.9,0.4,1.4,0.4c0.6,0,0.9-0.3,0.9-0.6c0-0.4-0.2-0.5-0.9-0.8
					c-1-0.4-1.5-0.9-1.5-1.6c0-0.9,0.8-1.7,2-1.7c0.6,0,1.1,0.1,1.4,0.3l-0.3,0.9c-0.2-0.1-0.7-0.3-1.1-0.3c-0.5,0-0.7,0.2-0.7,0.6
					c0,0.3,0.3,0.5,0.9,0.7c1,0.3,1.4,0.8,1.4,1.6c0,1-0.8,1.7-2.2,1.7c-0.6,0-1.2-0.2-1.6-0.4L518.9,247.9z"/>
			</g>
			<g>
				<path fill="#FFFFFF" d="M525.1,242.4v1.4h1.3v1h-1.3v2.4c0,0.7,0.2,1,0.7,1c0.2,0,0.4,0,0.5-0.1l0,1c-0.2,0.1-0.6,0.1-1,0.1
					c-0.5,0-0.9-0.2-1.2-0.4c-0.3-0.3-0.4-0.8-0.4-1.5v-2.5H523v-1h0.8v-1L525.1,242.4z"/>
			</g>
			<g>
				<path fill="#FFFFFF" d="M532.2,247.5c0,0.6,0,1.2,0,1.6h-1.2l-0.1-0.8h0c-0.2,0.4-0.8,0.9-1.7,0.9s-1.9-0.6-1.9-2.3v-3.1h1.4
					v2.9c0,0.9,0.3,1.5,1,1.5c0.5,0,0.9-0.4,1-0.7c0.1-0.1,0.1-0.3,0.1-0.4v-3.2h1.4V247.5z"/>
			</g>
			<g>
				<path fill="#FFFFFF" d="M538.6,241.3v6.3c0,0.5,0,1.1,0,1.5h-1.2l-0.1-0.8h0c-0.3,0.6-1,1-1.7,1c-1.3,0-2.3-1.1-2.3-2.7
					c0-1.8,1.1-2.9,2.4-2.9c0.7,0,1.3,0.3,1.5,0.7h0v-3H538.6z M537.3,246c0-0.1,0-0.3,0-0.4c-0.1-0.5-0.5-0.9-1.2-0.9
					c-0.9,0-1.4,0.8-1.4,1.8c0,1,0.5,1.7,1.3,1.7c0.5,0,1-0.4,1.2-1c0-0.1,0-0.3,0-0.4V246z"/>
			</g>
			<g>
				<path fill="#FFFFFF" d="M541,246.8c0,1,0.8,1.4,1.6,1.4c0.6,0,1.1-0.1,1.5-0.2l0.2,0.9c-0.5,0.2-1.1,0.3-1.9,0.3
					c-1.7,0-2.8-1.1-2.8-2.7c0-1.5,0.9-2.9,2.6-2.9c1.7,0,2.3,1.4,2.3,2.6c0,0.3,0,0.5,0,0.6H541z M543.4,245.9
					c0-0.5-0.2-1.3-1.1-1.3c-0.8,0-1.2,0.8-1.2,1.3H543.4z"/>
			</g>
			<g>
				<path fill="#FFFFFF" d="M545.7,245.4c0-0.6,0-1.1,0-1.6h1.2l0.1,0.8h0c0.2-0.4,0.8-0.9,1.7-0.9c0.9,0,1.9,0.6,1.9,2.3v3.2h-1.4
					v-3c0-0.8-0.3-1.4-1-1.4c-0.5,0-0.9,0.4-1.1,0.8c0,0.1-0.1,0.3-0.1,0.4v3.2h-1.4V245.4z"/>
			</g>
			<g>
				<path fill="#FFFFFF" d="M553.5,242.4v1.4h1.3v1h-1.3v2.4c0,0.7,0.2,1,0.7,1c0.2,0,0.4,0,0.5-0.1l0,1c-0.2,0.1-0.6,0.1-1,0.1
					c-0.5,0-0.9-0.2-1.2-0.4c-0.3-0.3-0.4-0.8-0.4-1.5v-2.5h-0.8v-1h0.8v-1L553.5,242.4z"/>
			</g>
			<g>
				<path fill="#FFFFFF" d="M555.1,250.4c0.3-0.8,0.6-2,0.7-2.9l1.4-0.1c-0.3,1-0.8,2.2-1.2,2.9L555.1,250.4z"/>
			</g>
			<g>
				<path fill="#FFFFFF" d="M560.7,241.3h1.4v3.2h0c0.2-0.3,0.4-0.5,0.7-0.6c0.3-0.2,0.6-0.2,0.9-0.2c0.9,0,1.9,0.6,1.9,2.3v3.2
					h-1.4v-3c0-0.8-0.3-1.4-1-1.4c-0.5,0-0.9,0.4-1.1,0.8c0,0.1-0.1,0.3-0.1,0.4v3.2h-1.4V241.3z"/>
			</g>
			<g>
				<path fill="#FFFFFF" d="M567.9,246.8c0,1,0.8,1.4,1.6,1.4c0.6,0,1.1-0.1,1.5-0.2l0.2,0.9c-0.5,0.2-1.1,0.3-1.9,0.3
					c-1.7,0-2.8-1.1-2.8-2.7c0-1.5,0.9-2.9,2.6-2.9c1.7,0,2.3,1.4,2.3,2.6c0,0.3,0,0.5,0,0.6H567.9z M570.3,245.9
					c0-0.5-0.2-1.3-1.1-1.3c-0.8,0-1.2,0.8-1.2,1.3H570.3z"/>
			</g>
			<g>
				<path fill="#FFFFFF" d="M579.1,247.8c0,0.5,0,1,0.1,1.3h-1.2l-0.1-0.6h0c-0.3,0.4-0.9,0.7-1.6,0.7c-1.1,0-1.7-0.8-1.7-1.6
					c0-1.3,1.2-2,3.2-2v-0.1c0-0.4-0.1-0.9-1.1-0.9c-0.5,0-1.1,0.2-1.4,0.4l-0.3-0.9c0.4-0.2,1.1-0.5,1.9-0.5c1.7,0,2.2,1.1,2.2,2.3
					V247.8z M577.7,246.5c-1,0-1.9,0.2-1.9,1c0,0.5,0.3,0.8,0.8,0.8c0.6,0,0.9-0.4,1.1-0.7c0-0.1,0-0.2,0-0.3V246.5z"/>
			</g>
			<g>
				<path fill="#FFFFFF" d="M580.5,241.3h1.4v7.8h-1.4V241.3z"/>
			</g>
			<g>
				<path fill="#FFFFFF" d="M584.1,243.8l0.5,2.4c0.1,0.6,0.3,1.2,0.4,1.7h0c0.1-0.6,0.3-1.2,0.4-1.7l0.7-2.4h1.1l0.7,2.4
					c0.2,0.6,0.3,1.2,0.4,1.8h0c0.1-0.6,0.2-1.2,0.4-1.8l0.6-2.4h1.3l-1.7,5.4h-1.3l-0.6-2.2c-0.2-0.6-0.3-1.1-0.4-1.7h0
					c-0.1,0.7-0.3,1.2-0.4,1.7l-0.7,2.2h-1.3l-1.6-5.4H584.1z"/>
			</g>
			<g>
				<path fill="#FFFFFF" d="M595.6,247.8c0,0.5,0,1,0.1,1.3h-1.2l-0.1-0.6h0c-0.3,0.4-0.9,0.7-1.6,0.7c-1.1,0-1.7-0.8-1.7-1.6
					c0-1.3,1.2-2,3.2-2v-0.1c0-0.4-0.1-0.9-1.1-0.9c-0.5,0-1.1,0.2-1.4,0.4l-0.3-0.9c0.4-0.2,1.1-0.5,1.9-0.5c1.7,0,2.2,1.1,2.2,2.3
					V247.8z M594.3,246.5c-1,0-1.9,0.2-1.9,1c0,0.5,0.3,0.8,0.8,0.8c0.5,0,0.9-0.4,1.1-0.7c0-0.1,0-0.2,0-0.3V246.5z"/>
			</g>
			<g>
				<path fill="#FFFFFF" d="M597.8,243.8l1,2.9c0.1,0.3,0.2,0.7,0.3,1h0c0.1-0.3,0.2-0.7,0.3-1l0.8-2.9h1.4l-1.3,3.7
					c-0.7,2-1.2,2.9-1.9,3.4c-0.5,0.5-1.1,0.6-1.4,0.7l-0.3-1.1c0.2-0.1,0.5-0.2,0.8-0.4c0.3-0.2,0.6-0.5,0.7-0.8
					c0.1-0.1,0.1-0.2,0.1-0.2c0-0.1,0-0.1-0.1-0.3l-2-4.9H597.8z"/>
			</g>
			<g>
				<path fill="#FFFFFF" d="M602.3,247.9c0.3,0.2,0.9,0.4,1.4,0.4c0.6,0,0.9-0.3,0.9-0.6c0-0.4-0.2-0.5-0.9-0.8
					c-1-0.4-1.5-0.9-1.5-1.6c0-0.9,0.8-1.7,2-1.7c0.6,0,1.1,0.1,1.4,0.3l-0.3,0.9c-0.2-0.1-0.7-0.3-1.1-0.3c-0.5,0-0.7,0.2-0.7,0.6
					c0,0.3,0.3,0.5,0.9,0.7c1,0.3,1.4,0.8,1.4,1.6c0,1-0.8,1.7-2.2,1.7c-0.6,0-1.2-0.2-1.6-0.4L602.3,247.9z"/>
			</g>
			<g>
				<path fill="#FFFFFF" d="M609.2,245.4c0-0.6,0-1.1,0-1.6h1.2l0.1,0.8h0c0.2-0.4,0.8-0.9,1.7-0.9c0.9,0,1.9,0.6,1.9,2.3v3.2h-1.4
					v-3c0-0.8-0.3-1.4-1-1.4c-0.5,0-0.9,0.4-1.1,0.8c0,0.1-0.1,0.3-0.1,0.4v3.2h-1.4V245.4z"/>
			</g>
			<g>
				<path fill="#FFFFFF" d="M616.4,246.8c0,1,0.8,1.4,1.6,1.4c0.6,0,1.1-0.1,1.5-0.2l0.2,0.9c-0.5,0.2-1.1,0.3-1.9,0.3
					c-1.7,0-2.8-1.1-2.8-2.7c0-1.5,0.9-2.9,2.6-2.9c1.7,0,2.3,1.4,2.3,2.6c0,0.3,0,0.5,0,0.6H616.4z M618.8,245.9
					c0-0.5-0.2-1.3-1.1-1.3c-0.8,0-1.2,0.8-1.2,1.3H618.8z"/>
			</g>
			<g>
				<path fill="#FFFFFF" d="M622.1,246.8c0,1,0.8,1.4,1.6,1.4c0.6,0,1.1-0.1,1.5-0.2l0.2,0.9c-0.5,0.2-1.1,0.3-1.9,0.3
					c-1.7,0-2.8-1.1-2.8-2.7c0-1.5,0.9-2.9,2.6-2.9c1.7,0,2.3,1.4,2.3,2.6c0,0.3,0,0.5,0,0.6H622.1z M624.5,245.9
					c0-0.5-0.2-1.3-1.1-1.3c-0.8,0-1.2,0.8-1.2,1.3H624.5z"/>
			</g>
			<g>
				<path fill="#FFFFFF" d="M631.8,241.3v6.3c0,0.5,0,1.1,0,1.5h-1.2l-0.1-0.8h0c-0.3,0.6-1,1-1.7,1c-1.3,0-2.3-1.1-2.3-2.7
					c0-1.8,1.1-2.9,2.4-2.9c0.7,0,1.3,0.3,1.5,0.7h0v-3H631.8z M630.4,246c0-0.1,0-0.3,0-0.4c-0.1-0.5-0.5-0.9-1.2-0.9
					c-0.9,0-1.4,0.8-1.4,1.8c0,1,0.5,1.7,1.3,1.7c0.5,0,1-0.4,1.2-1c0-0.1,0-0.3,0-0.4V246z"/>
			</g>
			<g>
				<path fill="#FFFFFF" d="M633.2,247.9c0.3,0.2,0.9,0.4,1.4,0.4c0.6,0,0.9-0.3,0.9-0.6c0-0.4-0.2-0.5-0.9-0.8
					c-1-0.4-1.5-0.9-1.5-1.6c0-0.9,0.8-1.7,2-1.7c0.6,0,1.1,0.1,1.4,0.3l-0.3,0.9c-0.2-0.1-0.7-0.3-1.1-0.3c-0.5,0-0.7,0.2-0.7,0.6
					c0,0.3,0.3,0.5,0.9,0.7c1,0.3,1.4,0.8,1.4,1.6c0,1-0.8,1.7-2.2,1.7c-0.6,0-1.2-0.2-1.6-0.4L633.2,247.9z"/>
			</g>
			<g>
				<path fill="#FFFFFF" d="M644.2,247.8c0,0.5,0,1,0.1,1.3h-1.2l-0.1-0.6h0c-0.3,0.4-0.9,0.7-1.6,0.7c-1.1,0-1.7-0.8-1.7-1.6
					c0-1.3,1.2-2,3.2-2v-0.1c0-0.4-0.1-0.9-1.1-0.9c-0.5,0-1.1,0.2-1.4,0.4l-0.3-0.9c0.4-0.2,1.1-0.5,1.9-0.5c1.7,0,2.2,1.1,2.2,2.3
					V247.8z M642.9,246.5c-1,0-1.9,0.2-1.9,1c0,0.5,0.3,0.8,0.8,0.8c0.6,0,0.9-0.4,1.1-0.7c0-0.1,0-0.2,0-0.3V246.5z"/>
			</g>
			<g>
				<path fill="#FFFFFF" d="M648,241.3h1.4v3.2h0c0.3-0.5,0.9-0.9,1.7-0.9c1.3,0,2.2,1.1,2.2,2.7c0,1.9-1.2,2.9-2.4,2.9
					c-0.7,0-1.3-0.3-1.7-0.9h0l-0.1,0.8h-1.2c0-0.4,0-1,0-1.5V241.3z M649.3,246.9c0,0.1,0,0.2,0,0.3c0.1,0.6,0.6,0.9,1.2,0.9
					c0.8,0,1.4-0.7,1.4-1.8c0-0.9-0.5-1.7-1.4-1.7c-0.5,0-1.1,0.4-1.2,1c0,0.1,0,0.2,0,0.4V246.9z"/>
			</g>
			<g>
				<path fill="#FFFFFF" d="M654.4,245.5c0-0.7,0-1.3,0-1.7h1.2l0.1,1h0c0.3-0.7,0.9-1.1,1.5-1.1c0.1,0,0.2,0,0.3,0v1.3
					c-0.1,0-0.2,0-0.4,0c-0.6,0-1.1,0.4-1.2,1c0,0.1,0,0.3,0,0.4v2.8h-1.4V245.5z"/>
			</g>
			<g>
				<path fill="#FFFFFF" d="M659.2,246.8c0,1,0.8,1.4,1.6,1.4c0.6,0,1.1-0.1,1.5-0.2l0.2,0.9c-0.5,0.2-1.1,0.3-1.9,0.3
					c-1.7,0-2.8-1.1-2.8-2.7c0-1.5,0.9-2.9,2.6-2.9c1.7,0,2.3,1.4,2.3,2.6c0,0.3,0,0.5,0,0.6H659.2z M661.5,245.9
					c0-0.5-0.2-1.3-1.1-1.3c-0.8,0-1.2,0.8-1.2,1.3H661.5z"/>
			</g>
			<g>
				<path fill="#FFFFFF" d="M668,247.8c0,0.5,0,1,0.1,1.3h-1.2l-0.1-0.6h0c-0.3,0.4-0.9,0.7-1.6,0.7c-1.1,0-1.7-0.8-1.7-1.6
					c0-1.3,1.2-2,3.2-2v-0.1c0-0.4-0.1-0.9-1.1-0.9c-0.5,0-1.1,0.2-1.4,0.4l-0.3-0.9c0.4-0.2,1.1-0.5,1.9-0.5c1.7,0,2.2,1.1,2.2,2.3
					V247.8z M666.7,246.5c-1,0-1.9,0.2-1.9,1c0,0.5,0.3,0.8,0.8,0.8c0.5,0,0.9-0.4,1.1-0.7c0-0.1,0-0.2,0-0.3V246.5z"/>
			</g>
			<g>
				<path fill="#FFFFFF" d="M670.8,246.1L670.8,246.1c0.2-0.2,0.3-0.4,0.4-0.6l1.3-1.7h1.6l-2,2.2l2.3,3.2h-1.7l-1.5-2.4l-0.5,0.5
					v1.8h-1.4v-7.8h1.4V246.1z"/>
			</g>
			<g>
				<path fill="#FFFFFF" d="M677.5,249.1v-4.3h-0.7v-1h0.7v-0.2c0-0.7,0.2-1.4,0.6-1.8c0.4-0.4,0.9-0.5,1.4-0.5
					c0.4,0,0.6,0.1,0.9,0.1l-0.1,1c-0.2-0.1-0.3-0.1-0.6-0.1c-0.7,0-0.9,0.6-0.9,1.2v0.3h1.2v1h-1.2v4.3H677.5z"/>
			</g>
			<g>
				<path fill="#FFFFFF" d="M680.9,245.5c0-0.7,0-1.3,0-1.7h1.2l0.1,1h0c0.3-0.7,0.9-1.1,1.5-1.1c0.1,0,0.2,0,0.3,0v1.3
					c-0.1,0-0.2,0-0.4,0c-0.6,0-1.1,0.4-1.2,1c0,0.1,0,0.3,0,0.4v2.8h-1.4V245.5z"/>
			</g>
			<g>
				<path fill="#FFFFFF" d="M689.8,246.4c0,2-1.4,2.8-2.8,2.8c-1.5,0-2.7-1-2.7-2.8c0-1.8,1.2-2.8,2.8-2.8
					C688.7,243.6,689.8,244.8,689.8,246.4z M685.7,246.4c0,1,0.5,1.8,1.3,1.8c0.8,0,1.3-0.7,1.3-1.8c0-0.8-0.4-1.8-1.3-1.8
					C686.1,244.6,685.7,245.5,685.7,246.4z"/>
			</g>
			<g>
				<path fill="#FFFFFF" d="M690.9,245.4c0-0.6,0-1.1,0-1.6h1.2l0.1,0.8h0c0.3-0.4,0.7-0.9,1.7-0.9c0.7,0,1.3,0.4,1.5,1h0
					c0.2-0.3,0.4-0.5,0.6-0.7c0.3-0.2,0.6-0.3,1.1-0.3c0.9,0,1.8,0.6,1.8,2.3v3.2h-1.3v-3c0-0.9-0.3-1.4-1-1.4
					c-0.5,0-0.8,0.3-0.9,0.7c0,0.1-0.1,0.3-0.1,0.5v3.2h-1.3V246c0-0.7-0.3-1.3-0.9-1.3c-0.5,0-0.8,0.4-1,0.8c0,0.1-0.1,0.3-0.1,0.5
					v3.2h-1.3V245.4z"/>
			</g>
			<g>
				<path fill="#FFFFFF" d="M402.5,264.8c0.3,0.2,0.9,0.4,1.4,0.4c0.6,0,0.9-0.3,0.9-0.6c0-0.4-0.2-0.5-0.9-0.8
					c-1-0.4-1.5-0.9-1.5-1.6c0-0.9,0.8-1.7,2-1.7c0.6,0,1.1,0.1,1.4,0.3l-0.3,0.9c-0.2-0.1-0.7-0.3-1.1-0.3c-0.5,0-0.7,0.2-0.7,0.6
					c0,0.3,0.3,0.5,0.9,0.7c1,0.3,1.4,0.8,1.4,1.6c0,1-0.8,1.7-2.2,1.7c-0.6,0-1.2-0.2-1.6-0.4L402.5,264.8z"/>
			</g>
			<g>
				<path fill="#FFFFFF" d="M408.7,259.3v1.4h1.3v1h-1.3v2.4c0,0.7,0.2,1,0.7,1c0.2,0,0.4,0,0.5-0.1l0,1c-0.2,0.1-0.6,0.1-1,0.1
					c-0.5,0-0.9-0.2-1.2-0.4c-0.3-0.3-0.4-0.8-0.4-1.5v-2.5h-0.8v-1h0.8v-1L408.7,259.3z"/>
			</g>
			<g>
				<path fill="#FFFFFF" d="M415.8,264.4c0,0.6,0,1.2,0,1.6h-1.2l-0.1-0.8h0c-0.2,0.4-0.8,0.9-1.7,0.9s-1.9-0.6-1.9-2.3v-3.1h1.4
					v2.9c0,0.9,0.3,1.5,1,1.5c0.5,0,0.9-0.4,1-0.7c0.1-0.1,0.1-0.3,0.1-0.4v-3.2h1.4V264.4z"/>
			</g>
			<g>
				<path fill="#FFFFFF" d="M422.2,258.2v6.3c0,0.5,0,1.1,0,1.5H421l-0.1-0.8h0c-0.3,0.6-1,1-1.7,1c-1.3,0-2.3-1.1-2.3-2.7
					c0-1.8,1.1-2.9,2.4-2.9c0.7,0,1.3,0.3,1.5,0.7h0v-3H422.2z M420.8,262.9c0-0.1,0-0.3,0-0.4c-0.1-0.5-0.5-0.9-1.2-0.9
					c-0.9,0-1.4,0.8-1.4,1.8c0,1,0.5,1.7,1.3,1.7c0.5,0,1-0.4,1.2-1c0-0.1,0-0.3,0-0.4V262.9z"/>
			</g>
			<g>
				<path fill="#FFFFFF" d="M424.5,260.6l1,2.9c0.1,0.3,0.2,0.7,0.3,1h0c0.1-0.3,0.2-0.7,0.3-1l0.8-2.9h1.4l-1.3,3.7
					c-0.7,2-1.2,2.9-1.9,3.4c-0.5,0.5-1.1,0.6-1.4,0.7l-0.3-1.1c0.2-0.1,0.5-0.2,0.8-0.4c0.3-0.2,0.6-0.5,0.7-0.8
					c0.1-0.1,0.1-0.2,0.1-0.2c0-0.1,0-0.1-0.1-0.3l-2-4.9H424.5z"/>
			</g>
			<g>
				<path fill="#FFFFFF" d="M430.6,259.2c0,0.4-0.3,0.7-0.8,0.7c-0.5,0-0.7-0.3-0.7-0.7c0-0.4,0.3-0.7,0.8-0.7
					C430.3,258.4,430.6,258.7,430.6,259.2z M429.1,266v-5.4h1.4v5.4H429.1z"/>
			</g>
			<g>
				<path fill="#FFFFFF" d="M431.9,262.2c0-0.6,0-1.1,0-1.6h1.2l0.1,0.8h0c0.2-0.4,0.8-0.9,1.7-0.9c0.9,0,1.9,0.6,1.9,2.3v3.2h-1.4
					v-3c0-0.8-0.3-1.4-1-1.4c-0.5,0-0.9,0.4-1.1,0.8c0,0.1-0.1,0.3-0.1,0.4v3.2h-1.4V262.2z"/>
			</g>
			<g>
				<path fill="#FFFFFF" d="M443.1,265.2c0,1.1-0.2,1.9-0.8,2.4c-0.6,0.5-1.3,0.6-2.1,0.6c-0.7,0-1.4-0.2-1.9-0.4l0.3-1
					c0.3,0.2,0.9,0.4,1.6,0.4c0.9,0,1.5-0.5,1.5-1.6v-0.5h0c-0.3,0.5-0.8,0.8-1.6,0.8c-1.3,0-2.3-1.1-2.3-2.6c0-1.8,1.1-2.8,2.4-2.8
					c0.8,0,1.3,0.4,1.6,0.8h0l0.1-0.7h1.2c0,0.4,0,0.8,0,1.5V265.2z M441.7,262.8c0-0.1,0-0.3,0-0.4c-0.1-0.5-0.5-0.9-1.1-0.9
					c-0.8,0-1.3,0.7-1.3,1.7c0,0.9,0.5,1.7,1.3,1.7c0.5,0,0.9-0.3,1.1-0.8c0-0.1,0.1-0.3,0.1-0.5V262.8z"/>
			</g>
			<g>
				<path fill="#FFFFFF" d="M444.2,265.3c0-0.5,0.4-0.9,0.8-0.9c0.5,0,0.8,0.4,0.8,0.9c0,0.5-0.3,0.9-0.8,0.9
					C444.5,266.1,444.2,265.8,444.2,265.3z"/>
			</g>
			<g>
				<path fill="#FFFFFF" d="M450.1,266l-1.8-7.4h1.4l0.7,3.4c0.2,0.9,0.4,1.8,0.5,2.6h0c0.1-0.8,0.3-1.7,0.5-2.6l0.8-3.4h1.4
					l0.7,3.4c0.2,0.9,0.3,1.7,0.5,2.5h0c0.1-0.8,0.3-1.7,0.5-2.6l0.8-3.3h1.4l-2,7.4h-1.4l-0.8-3.5c-0.2-0.8-0.3-1.6-0.4-2.4h0
					c-0.1,0.8-0.3,1.5-0.5,2.4l-0.9,3.5H450.1z"/>
			</g>
			<g>
				<path fill="#FFFFFF" d="M458.3,258.2h1.4v3.2h0c0.2-0.3,0.4-0.5,0.7-0.6c0.3-0.2,0.6-0.2,0.9-0.2c0.9,0,1.9,0.6,1.9,2.3v3.2
					h-1.4v-3c0-0.8-0.3-1.4-1-1.4c-0.5,0-0.9,0.4-1.1,0.8c0,0.1-0.1,0.3-0.1,0.4v3.2h-1.4V258.2z"/>
			</g>
			<g>
				<path fill="#FFFFFF" d="M465.6,263.7c0,1,0.8,1.4,1.6,1.4c0.6,0,1.1-0.1,1.5-0.2l0.2,0.9c-0.5,0.2-1.1,0.3-1.9,0.3
					c-1.7,0-2.8-1.1-2.8-2.7c0-1.5,0.9-2.9,2.6-2.9c1.7,0,2.3,1.4,2.3,2.6c0,0.3,0,0.5,0,0.6H465.6z M467.9,262.8
					c0-0.5-0.2-1.3-1.1-1.3c-0.8,0-1.2,0.8-1.2,1.3H467.9z"/>
			</g>
			<g>
				<path fill="#FFFFFF" d="M470.3,262.2c0-0.6,0-1.1,0-1.6h1.2l0.1,0.8h0c0.2-0.4,0.8-0.9,1.7-0.9c0.9,0,1.9,0.6,1.9,2.3v3.2h-1.4
					v-3c0-0.8-0.3-1.4-1-1.4c-0.5,0-0.9,0.4-1.1,0.8c0,0.1-0.1,0.3-0.1,0.4v3.2h-1.4V262.2z"/>
			</g>
			<g>
				<path fill="#FFFFFF" d="M478.9,258.2h1.4v3.2h0c0.2-0.3,0.4-0.5,0.7-0.6c0.3-0.2,0.6-0.2,0.9-0.2c0.9,0,1.9,0.6,1.9,2.3v3.2
					h-1.4v-3c0-0.8-0.3-1.4-1-1.4c-0.5,0-0.9,0.4-1.1,0.8c0,0.1-0.1,0.3-0.1,0.4v3.2h-1.4V258.2z"/>
			</g>
			<g>
				<path fill="#FFFFFF" d="M486.1,263.7c0,1,0.8,1.4,1.6,1.4c0.6,0,1.1-0.1,1.5-0.2l0.2,0.9c-0.5,0.2-1.1,0.3-1.9,0.3
					c-1.7,0-2.8-1.1-2.8-2.7c0-1.5,0.9-2.9,2.6-2.9c1.7,0,2.3,1.4,2.3,2.6c0,0.3,0,0.5,0,0.6H486.1z M488.5,262.8
					c0-0.5-0.2-1.3-1.1-1.3c-0.8,0-1.2,0.8-1.2,1.3H488.5z"/>
			</g>
			<g>
				<path fill="#FFFFFF" d="M493.3,266v-4.3h-0.7v-1h0.7v-0.3c0-1.4,1-2.3,2.6-2.3c0.5,0,1.2,0.1,1.5,0.3l-0.3,1
					c-0.2-0.1-0.7-0.3-1.2-0.3c-0.9,0-1.2,0.6-1.2,1.3v0.2h3.2v5.4h-1.4v-4.3h-1.8v4.3H493.3z"/>
			</g>
			<g>
				<path fill="#FFFFFF" d="M499.3,262.2c0-0.6,0-1.1,0-1.6h1.2l0.1,0.8h0c0.2-0.4,0.8-0.9,1.7-0.9c0.9,0,1.9,0.6,1.9,2.3v3.2h-1.4
					v-3c0-0.8-0.3-1.4-1-1.4c-0.5,0-0.9,0.4-1.1,0.8c0,0.1-0.1,0.3-0.1,0.4v3.2h-1.4V262.2z"/>
			</g>
			<g>
				<path fill="#FFFFFF" d="M510.5,258.2v6.3c0,0.5,0,1.1,0,1.5h-1.2l-0.1-0.8h0c-0.3,0.6-1,1-1.7,1c-1.3,0-2.3-1.1-2.3-2.7
					c0-1.8,1.1-2.9,2.4-2.9c0.7,0,1.3,0.3,1.5,0.7h0v-3H510.5z M509.1,262.9c0-0.1,0-0.3,0-0.4c-0.1-0.5-0.5-0.9-1.2-0.9
					c-0.9,0-1.4,0.8-1.4,1.8c0,1,0.5,1.7,1.3,1.7c0.5,0,1-0.4,1.2-1c0-0.1,0-0.3,0-0.4V262.9z"/>
			</g>
			<g>
				<path fill="#FFFFFF" d="M511.9,264.8c0.3,0.2,0.9,0.4,1.4,0.4c0.6,0,0.9-0.3,0.9-0.6c0-0.4-0.2-0.5-0.9-0.8
					c-1-0.4-1.5-0.9-1.5-1.6c0-0.9,0.8-1.7,2-1.7c0.6,0,1.1,0.1,1.4,0.3l-0.3,0.9c-0.2-0.1-0.7-0.3-1.1-0.3c-0.5,0-0.7,0.2-0.7,0.6
					c0,0.3,0.3,0.5,0.9,0.7c1,0.3,1.4,0.8,1.4,1.6c0,1-0.8,1.7-2.2,1.7c-0.6,0-1.2-0.2-1.6-0.4L511.9,264.8z"/>
			</g>
			<g>
				<path fill="#FFFFFF" d="M523.7,258.2v6.3c0,0.5,0,1.1,0,1.5h-1.2l-0.1-0.8h0c-0.3,0.6-1,1-1.7,1c-1.3,0-2.3-1.1-2.3-2.7
					c0-1.8,1.1-2.9,2.4-2.9c0.7,0,1.3,0.3,1.5,0.7h0v-3H523.7z M522.4,262.9c0-0.1,0-0.3,0-0.4c-0.1-0.5-0.5-0.9-1.2-0.9
					c-0.9,0-1.4,0.8-1.4,1.8c0,1,0.5,1.7,1.3,1.7c0.5,0,1-0.4,1.2-1c0-0.1,0-0.3,0-0.4V262.9z"/>
			</g>
			<g>
				<path fill="#FFFFFF" d="M526.1,263.7c0,1,0.8,1.4,1.6,1.4c0.6,0,1.1-0.1,1.5-0.2l0.2,0.9c-0.5,0.2-1.1,0.3-1.9,0.3
					c-1.7,0-2.8-1.1-2.8-2.7c0-1.5,0.9-2.9,2.6-2.9c1.7,0,2.3,1.4,2.3,2.6c0,0.3,0,0.5,0,0.6H526.1z M528.5,262.8
					c0-0.5-0.2-1.3-1.1-1.3c-0.8,0-1.2,0.8-1.2,1.3H528.5z"/>
			</g>
			<g>
				<path fill="#FFFFFF" d="M535,264.7c0,0.5,0,1,0.1,1.3h-1.2l-0.1-0.6h0c-0.3,0.4-0.9,0.7-1.6,0.7c-1.1,0-1.7-0.8-1.7-1.6
					c0-1.3,1.2-2,3.2-2v-0.1c0-0.4-0.1-0.9-1.1-0.9c-0.5,0-1.1,0.2-1.4,0.4l-0.3-0.9c0.4-0.2,1.1-0.5,1.9-0.5c1.7,0,2.2,1.1,2.2,2.3
					V264.7z M533.7,263.4c-1,0-1.9,0.2-1.9,1c0,0.5,0.3,0.8,0.8,0.8c0.6,0,0.9-0.4,1.1-0.7c0-0.1,0-0.2,0-0.3V263.4z"/>
			</g>
			<g>
				<path fill="#FFFFFF" d="M536.5,258.2h1.4v7.8h-1.4V258.2z"/>
			</g>
			<g>
				<path fill="#FFFFFF" d="M539.2,264.8c0.3,0.2,0.9,0.4,1.4,0.4c0.6,0,0.9-0.3,0.9-0.6c0-0.4-0.2-0.5-0.9-0.8
					c-1-0.4-1.5-0.9-1.5-1.6c0-0.9,0.8-1.7,2-1.7c0.6,0,1.1,0.1,1.4,0.3l-0.3,0.9c-0.2-0.1-0.7-0.3-1.1-0.3c-0.5,0-0.7,0.2-0.7,0.6
					c0,0.3,0.3,0.5,0.9,0.7c1,0.3,1.4,0.8,1.4,1.6c0,1-0.8,1.7-2.2,1.7c-0.6,0-1.2-0.2-1.6-0.4L539.2,264.8z"/>
			</g>
			<g>
				<path fill="#FFFFFF" d="M546.3,266v-4.3h-0.7v-1h0.7v-0.2c0-0.7,0.2-1.4,0.6-1.8c0.4-0.4,0.9-0.5,1.4-0.5c0.4,0,0.6,0.1,0.9,0.1
					l-0.1,1c-0.2-0.1-0.3-0.1-0.6-0.1c-0.7,0-0.9,0.6-0.9,1.2v0.3h1.2v1h-1.2v4.3H546.3z"/>
			</g>
			<g>
				<path fill="#FFFFFF" d="M554.6,263.3c0,2-1.4,2.8-2.8,2.8c-1.5,0-2.7-1-2.7-2.8c0-1.8,1.2-2.8,2.8-2.8
					C553.6,260.5,554.6,261.6,554.6,263.3z M550.6,263.3c0,1,0.5,1.8,1.3,1.8c0.8,0,1.3-0.7,1.3-1.8c0-0.8-0.4-1.8-1.3-1.8
					C551,261.5,550.6,262.4,550.6,263.3z"/>
			</g>
			<g>
				<path fill="#FFFFFF" d="M555.7,262.4c0-0.7,0-1.3,0-1.7h1.2l0.1,1h0c0.3-0.7,0.9-1.1,1.5-1.1c0.1,0,0.2,0,0.3,0v1.3
					c-0.1,0-0.2,0-0.4,0c-0.6,0-1.1,0.4-1.2,1c0,0.1,0,0.3,0,0.4v2.8h-1.4V262.4z"/>
			</g>
			<g>
				<path fill="#FFFFFF" d="M566.1,264.7c0,0.5,0,1,0.1,1.3H565l-0.1-0.6h0c-0.3,0.4-0.9,0.7-1.6,0.7c-1.1,0-1.7-0.8-1.7-1.6
					c0-1.3,1.2-2,3.2-2v-0.1c0-0.4-0.1-0.9-1.1-0.9c-0.5,0-1.1,0.2-1.4,0.4l-0.3-0.9c0.4-0.2,1.1-0.5,1.9-0.5c1.7,0,2.2,1.1,2.2,2.3
					V264.7z M564.8,263.4c-1,0-1.9,0.2-1.9,1c0,0.5,0.3,0.8,0.8,0.8c0.6,0,0.9-0.4,1.1-0.7c0-0.1,0-0.2,0-0.3V263.4z"/>
			</g>
			<g>
				<path fill="#FFFFFF" d="M571.5,265.8c-0.3,0.1-0.8,0.3-1.5,0.3c-1.7,0-2.8-1.1-2.8-2.7c0-1.6,1.1-2.8,3-2.8c0.5,0,1,0.1,1.3,0.2
					l-0.2,1c-0.2-0.1-0.5-0.2-1-0.2c-1,0-1.6,0.8-1.6,1.7c0,1.1,0.7,1.7,1.6,1.7c0.5,0,0.8-0.1,1.1-0.2L571.5,265.8z"/>
			</g>
			<g>
				<path fill="#FFFFFF" d="M574.2,259.3v1.4h1.3v1h-1.3v2.4c0,0.7,0.2,1,0.7,1c0.2,0,0.4,0,0.5-0.1l0,1c-0.2,0.1-0.6,0.1-1,0.1
					c-0.5,0-0.9-0.2-1.2-0.4c-0.3-0.3-0.4-0.8-0.4-1.5v-2.5h-0.8v-1h0.8v-1L574.2,259.3z"/>
			</g>
			<g>
				<path fill="#FFFFFF" d="M577.9,259.2c0,0.4-0.3,0.7-0.8,0.7c-0.5,0-0.7-0.3-0.7-0.7c0-0.4,0.3-0.7,0.8-0.7
					C577.6,258.4,577.9,258.7,577.9,259.2z M576.5,266v-5.4h1.4v5.4H576.5z"/>
			</g>
			<g>
				<path fill="#FFFFFF" d="M580.2,260.6l0.9,2.7c0.2,0.5,0.3,0.9,0.4,1.3h0c0.1-0.4,0.2-0.9,0.4-1.3l0.9-2.7h1.4l-2,5.4h-1.3
					l-2-5.4H580.2z"/>
			</g>
			<g>
				<path fill="#FFFFFF" d="M586.3,259.2c0,0.4-0.3,0.7-0.8,0.7c-0.5,0-0.7-0.3-0.7-0.7c0-0.4,0.3-0.7,0.8-0.7
					C586,258.4,586.3,258.7,586.3,259.2z M584.9,266v-5.4h1.4v5.4H584.9z"/>
			</g>
			<g>
				<path fill="#FFFFFF" d="M589.3,259.3v1.4h1.3v1h-1.3v2.4c0,0.7,0.2,1,0.7,1c0.2,0,0.4,0,0.5-0.1l0,1c-0.2,0.1-0.6,0.1-1,0.1
					c-0.5,0-0.9-0.2-1.2-0.4c-0.3-0.3-0.4-0.8-0.4-1.5v-2.5h-0.8v-1h0.8v-1L589.3,259.3z"/>
			</g>
			<g>
				<path fill="#FFFFFF" d="M593,259.2c0,0.4-0.3,0.7-0.8,0.7c-0.5,0-0.7-0.3-0.7-0.7c0-0.4,0.3-0.7,0.8-0.7
					C592.7,258.4,593,258.7,593,259.2z M591.6,266v-5.4h1.4v5.4H591.6z"/>
			</g>
			<g>
				<path fill="#FFFFFF" d="M595.3,263.7c0,1,0.8,1.4,1.6,1.4c0.6,0,1.1-0.1,1.5-0.2l0.2,0.9c-0.5,0.2-1.1,0.3-1.9,0.3
					c-1.7,0-2.8-1.1-2.8-2.7c0-1.5,0.9-2.9,2.6-2.9c1.7,0,2.3,1.4,2.3,2.6c0,0.3,0,0.5,0,0.6H595.3z M597.7,262.8
					c0-0.5-0.2-1.3-1.1-1.3c-0.8,0-1.2,0.8-1.2,1.3H597.7z"/>
			</g>
			<g>
				<path fill="#FFFFFF" d="M600,264.8c0.3,0.2,0.9,0.4,1.4,0.4c0.6,0,0.9-0.3,0.9-0.6c0-0.4-0.2-0.5-0.9-0.8
					c-1-0.4-1.5-0.9-1.5-1.6c0-0.9,0.8-1.7,2-1.7c0.6,0,1.1,0.1,1.4,0.3l-0.3,0.9c-0.2-0.1-0.7-0.3-1.1-0.3c-0.5,0-0.7,0.2-0.7,0.6
					c0,0.3,0.3,0.5,0.9,0.7c1,0.3,1.4,0.8,1.4,1.6c0,1-0.8,1.7-2.2,1.7c-0.6,0-1.2-0.2-1.6-0.4L600,264.8z"/>
			</g>
			<g>
				<path fill="#FFFFFF" d="M611.1,264.7c0,0.5,0,1,0.1,1.3h-1.2l-0.1-0.6h0c-0.3,0.4-0.9,0.7-1.6,0.7c-1.1,0-1.7-0.8-1.7-1.6
					c0-1.3,1.2-2,3.2-2v-0.1c0-0.4-0.1-0.9-1.1-0.9c-0.5,0-1.1,0.2-1.4,0.4l-0.3-0.9c0.4-0.2,1.1-0.5,1.9-0.5c1.7,0,2.2,1.1,2.2,2.3
					V264.7z M609.8,263.4c-1,0-1.9,0.2-1.9,1c0,0.5,0.3,0.8,0.8,0.8c0.6,0,0.9-0.4,1.1-0.7c0-0.1,0-0.2,0-0.3V263.4z"/>
			</g>
			<g>
				<path fill="#FFFFFF" d="M612.5,262.4c0-0.7,0-1.3,0-1.7h1.2l0.1,1h0c0.3-0.7,0.9-1.1,1.5-1.1c0.1,0,0.2,0,0.3,0v1.3
					c-0.1,0-0.2,0-0.4,0c-0.6,0-1.1,0.4-1.2,1c0,0.1,0,0.3,0,0.4v2.8h-1.4V262.4z"/>
			</g>
			<g>
				<path fill="#FFFFFF" d="M621.4,263.3c0,2-1.4,2.8-2.8,2.8c-1.5,0-2.7-1-2.7-2.8c0-1.8,1.2-2.8,2.8-2.8
					C620.3,260.5,621.4,261.6,621.4,263.3z M617.4,263.3c0,1,0.5,1.8,1.3,1.8c0.8,0,1.3-0.7,1.3-1.8c0-0.8-0.4-1.8-1.3-1.8
					C617.8,261.5,617.4,262.4,617.4,263.3z"/>
			</g>
			<g>
				<path fill="#FFFFFF" d="M627.3,264.4c0,0.6,0,1.2,0,1.6h-1.2l-0.1-0.8h0c-0.2,0.4-0.8,0.9-1.7,0.9s-1.9-0.6-1.9-2.3v-3.1h1.4
					v2.9c0,0.9,0.3,1.5,1,1.5c0.5,0,0.9-0.4,1-0.7c0.1-0.1,0.1-0.3,0.1-0.4v-3.2h1.4V264.4z"/>
			</g>
			<g>
				<path fill="#FFFFFF" d="M628.8,262.2c0-0.6,0-1.1,0-1.6h1.2l0.1,0.8h0c0.2-0.4,0.8-0.9,1.7-0.9c0.9,0,1.9,0.6,1.9,2.3v3.2h-1.4
					v-3c0-0.8-0.3-1.4-1-1.4c-0.5,0-0.9,0.4-1.1,0.8c0,0.1-0.1,0.3-0.1,0.4v3.2h-1.4V262.2z"/>
			</g>
			<g>
				<path fill="#FFFFFF" d="M640,258.2v6.3c0,0.5,0,1.1,0,1.5h-1.2l-0.1-0.8h0c-0.3,0.6-1,1-1.7,1c-1.3,0-2.3-1.1-2.3-2.7
					c0-1.8,1.1-2.9,2.4-2.9c0.7,0,1.3,0.3,1.5,0.7h0v-3H640z M638.7,262.9c0-0.1,0-0.3,0-0.4c-0.1-0.5-0.5-0.9-1.2-0.9
					c-0.9,0-1.4,0.8-1.4,1.8c0,1,0.5,1.7,1.3,1.7c0.5,0,1-0.4,1.2-1c0-0.1,0-0.3,0-0.4V262.9z"/>
			</g>
			<g>
				<path fill="#FFFFFF" d="M643.7,258.2h1.4v3.2h0c0.2-0.3,0.4-0.5,0.7-0.6c0.3-0.2,0.6-0.2,0.9-0.2c0.9,0,1.9,0.6,1.9,2.3v3.2
					h-1.4v-3c0-0.8-0.3-1.4-1-1.4c-0.5,0-0.9,0.4-1.1,0.8c0,0.1-0.1,0.3-0.1,0.4v3.2h-1.4V258.2z"/>
			</g>
			<g>
				<path fill="#FFFFFF" d="M651.5,259.2c0,0.4-0.3,0.7-0.8,0.7c-0.5,0-0.7-0.3-0.7-0.7c0-0.4,0.3-0.7,0.8-0.7
					C651.2,258.4,651.5,258.7,651.5,259.2z M650,266v-5.4h1.4v5.4H650z"/>
			</g>
			<g>
				<path fill="#FFFFFF" d="M652.8,264.8c0.3,0.2,0.9,0.4,1.4,0.4c0.6,0,0.9-0.3,0.9-0.6c0-0.4-0.2-0.5-0.9-0.8
					c-1-0.4-1.5-0.9-1.5-1.6c0-0.9,0.8-1.7,2-1.7c0.6,0,1.1,0.1,1.4,0.3l-0.3,0.9c-0.2-0.1-0.7-0.3-1.1-0.3c-0.5,0-0.7,0.2-0.7,0.6
					c0,0.3,0.3,0.5,0.9,0.7c1,0.3,1.4,0.8,1.4,1.6c0,1-0.8,1.7-2.2,1.7c-0.6,0-1.2-0.2-1.6-0.4L652.8,264.8z"/>
			</g>
			<g>
				<path fill="#FFFFFF" d="M663.7,265.8c-0.3,0.1-0.8,0.3-1.5,0.3c-1.7,0-2.8-1.1-2.8-2.7c0-1.6,1.1-2.8,3-2.8c0.5,0,1,0.1,1.3,0.2
					l-0.2,1c-0.2-0.1-0.5-0.2-1-0.2c-1,0-1.6,0.8-1.6,1.7c0,1.1,0.7,1.7,1.6,1.7c0.5,0,0.8-0.1,1.1-0.2L663.7,265.8z"/>
			</g>
			<g>
				<path fill="#FFFFFF" d="M666.1,259.2c0,0.4-0.3,0.7-0.8,0.7c-0.5,0-0.7-0.3-0.7-0.7c0-0.4,0.3-0.7,0.8-0.7
					C665.8,258.4,666.1,258.7,666.1,259.2z M664.7,266v-5.4h1.4v5.4H664.7z"/>
			</g>
			<g>
				<path fill="#FFFFFF" d="M669,259.3v1.4h1.3v1H669v2.4c0,0.7,0.2,1,0.7,1c0.2,0,0.4,0,0.5-0.1l0,1c-0.2,0.1-0.6,0.1-1,0.1
					c-0.5,0-0.9-0.2-1.2-0.4c-0.3-0.3-0.4-0.8-0.4-1.5v-2.5h-0.8v-1h0.8v-1L669,259.3z"/>
			</g>
			<g>
				<path fill="#FFFFFF" d="M672.3,260.6l1,2.9c0.1,0.3,0.2,0.7,0.3,1h0c0.1-0.3,0.2-0.7,0.3-1l0.8-2.9h1.4l-1.3,3.7
					c-0.7,2-1.2,2.9-1.9,3.4c-0.5,0.5-1.1,0.6-1.4,0.7l-0.3-1.1c0.2-0.1,0.5-0.2,0.8-0.4c0.3-0.2,0.6-0.5,0.7-0.8
					c0.1-0.1,0.1-0.2,0.1-0.2c0-0.1,0-0.1-0.1-0.3l-2-4.9H672.3z"/>
			</g>
			<g>
				<path fill="#FFFFFF" d="M675.8,267.3c0.3-0.8,0.6-2,0.7-2.9l1.4-0.1c-0.3,1-0.8,2.2-1.2,2.9L675.8,267.3z"/>
			</g>
			<g>
				<path fill="#FFFFFF" d="M681.3,258.2h1.4v3.2h0c0.2-0.3,0.4-0.5,0.7-0.6c0.3-0.2,0.6-0.2,0.9-0.2c0.9,0,1.9,0.6,1.9,2.3v3.2
					h-1.4v-3c0-0.8-0.3-1.4-1-1.4c-0.5,0-0.9,0.4-1.1,0.8c0,0.1-0.1,0.3-0.1,0.4v3.2h-1.4V258.2z"/>
			</g>
			<g>
				<path fill="#FFFFFF" d="M688.5,263.7c0,1,0.8,1.4,1.6,1.4c0.6,0,1.1-0.1,1.5-0.2l0.2,0.9c-0.5,0.2-1.1,0.3-1.9,0.3
					c-1.7,0-2.8-1.1-2.8-2.7c0-1.5,0.9-2.9,2.6-2.9c1.7,0,2.3,1.4,2.3,2.6c0,0.3,0,0.5,0,0.6H688.5z M690.9,262.8
					c0-0.5-0.2-1.3-1.1-1.3c-0.8,0-1.2,0.8-1.2,1.3H690.9z"/>
			</g>
			<g>
				<path fill="#FFFFFF" d="M697,259.2c0,0.4-0.3,0.7-0.8,0.7c-0.5,0-0.7-0.3-0.7-0.7c0-0.4,0.3-0.7,0.8-0.7
					C696.7,258.4,697,258.7,697,259.2z M695.5,266v-5.4h1.4v5.4H695.5z"/>
			</g>
			<g>
				<path fill="#FFFFFF" d="M698.3,264.8c0.3,0.2,0.9,0.4,1.4,0.4c0.6,0,0.9-0.3,0.9-0.6c0-0.4-0.2-0.5-0.9-0.8
					c-1-0.4-1.5-0.9-1.5-1.6c0-0.9,0.8-1.7,2-1.7c0.6,0,1.1,0.1,1.4,0.3l-0.3,0.9c-0.2-0.1-0.7-0.3-1.1-0.3c-0.5,0-0.7,0.2-0.7,0.6
					c0,0.3,0.3,0.5,0.9,0.7c1,0.3,1.4,0.8,1.4,1.6c0,1-0.8,1.7-2.2,1.7c-0.6,0-1.2-0.2-1.6-0.4L698.3,264.8z"/>
			</g>
			<g>
				<path fill="#FFFFFF" d="M404.1,276.2v1.4h1.3v1h-1.3v2.4c0,0.7,0.2,1,0.7,1c0.2,0,0.4,0,0.5-0.1l0,1c-0.2,0.1-0.6,0.1-1,0.1
					c-0.5,0-0.9-0.2-1.2-0.4c-0.3-0.3-0.4-0.8-0.4-1.5v-2.5H402v-1h0.8v-1L404.1,276.2z"/>
			</g>
			<g>
				<path fill="#FFFFFF" d="M406.4,275.1h1.4v3.2h0c0.2-0.3,0.4-0.5,0.7-0.6c0.3-0.2,0.6-0.2,0.9-0.2c0.9,0,1.9,0.6,1.9,2.3v3.2
					h-1.4v-3c0-0.8-0.3-1.4-1-1.4c-0.5,0-0.9,0.4-1.1,0.8c0,0.1-0.1,0.3-0.1,0.4v3.2h-1.4V275.1z"/>
			</g>
			<g>
				<path fill="#FFFFFF" d="M413.6,280.6c0,1,0.8,1.4,1.6,1.4c0.6,0,1.1-0.1,1.5-0.2l0.2,0.9c-0.5,0.2-1.1,0.3-1.9,0.3
					c-1.7,0-2.8-1.1-2.8-2.7c0-1.5,0.9-2.9,2.6-2.9c1.7,0,2.3,1.4,2.3,2.6c0,0.3,0,0.5,0,0.6H413.6z M416,279.6
					c0-0.5-0.2-1.3-1.1-1.3c-0.8,0-1.2,0.8-1.2,1.3H416z"/>
			</g>
			<g>
				<path fill="#FFFFFF" d="M420.8,282.9v-4.3h-0.7v-1h0.7v-0.3c0-1.4,1-2.3,2.6-2.3c0.5,0,1.2,0.1,1.5,0.3l-0.3,1
					c-0.2-0.1-0.7-0.3-1.2-0.3c-0.9,0-1.2,0.6-1.2,1.3v0.2h3.2v5.4H424v-4.3h-1.8v4.3H420.8z"/>
			</g>
			<g>
				<path fill="#FFFFFF" d="M426.8,279.3c0-0.7,0-1.3,0-1.7h1.2l0.1,1h0c0.3-0.7,0.9-1.1,1.5-1.1c0.1,0,0.2,0,0.3,0v1.3
					c-0.1,0-0.2,0-0.4,0c-0.6,0-1.1,0.4-1.2,1c0,0.1,0,0.3,0,0.4v2.8h-1.4V279.3z"/>
			</g>
			<g>
				<path fill="#FFFFFF" d="M430.6,281.6c0.3,0.2,0.9,0.4,1.4,0.4c0.6,0,0.9-0.3,0.9-0.6c0-0.4-0.2-0.5-0.9-0.8
					c-1-0.4-1.5-0.9-1.5-1.6c0-0.9,0.8-1.7,2-1.7c0.6,0,1.1,0.1,1.4,0.3l-0.3,0.9c-0.2-0.1-0.7-0.3-1.1-0.3c-0.5,0-0.7,0.2-0.7,0.6
					c0,0.3,0.3,0.5,0.9,0.7c1,0.3,1.4,0.8,1.4,1.6c0,1-0.8,1.7-2.2,1.7c-0.6,0-1.2-0.2-1.6-0.4L430.6,281.6z"/>
			</g>
			<g>
				<path fill="#FFFFFF" d="M436.8,276.2v1.4h1.3v1h-1.3v2.4c0,0.7,0.2,1,0.7,1c0.2,0,0.4,0,0.5-0.1l0,1c-0.2,0.1-0.6,0.1-1,0.1
					c-0.5,0-0.9-0.2-1.2-0.4c-0.3-0.3-0.4-0.8-0.4-1.5v-2.5h-0.8v-1h0.8v-1L436.8,276.2z"/>
			</g>
			<g>
				<path fill="#FFFFFF" d="M446.5,280.2c0,2-1.4,2.8-2.8,2.8c-1.5,0-2.7-1-2.7-2.8c0-1.8,1.2-2.8,2.8-2.8
					C445.5,277.4,446.5,278.5,446.5,280.2z M442.5,280.2c0,1,0.5,1.8,1.3,1.8c0.8,0,1.3-0.7,1.3-1.8c0-0.8-0.4-1.8-1.3-1.8
					C442.9,278.4,442.5,279.3,442.5,280.2z"/>
			</g>
			<g>
				<path fill="#FFFFFF" d="M447.6,279.1c0-0.6,0-1.1,0-1.6h1.2l0.1,0.8h0c0.2-0.4,0.8-0.9,1.7-0.9c0.9,0,1.9,0.6,1.9,2.3v3.2h-1.4
					v-3c0-0.8-0.3-1.4-1-1.4c-0.5,0-0.9,0.4-1.1,0.8c0,0.1-0.1,0.3-0.1,0.4v3.2h-1.4V279.1z"/>
			</g>
			<g>
				<path fill="#FFFFFF" d="M454.9,280.6c0,1,0.8,1.4,1.6,1.4c0.6,0,1.1-0.1,1.5-0.2l0.2,0.9c-0.5,0.2-1.1,0.3-1.9,0.3
					c-1.7,0-2.8-1.1-2.8-2.7c0-1.5,0.9-2.9,2.6-2.9c1.7,0,2.3,1.4,2.3,2.6c0,0.3,0,0.5,0,0.6H454.9z M457.2,279.6
					c0-0.5-0.2-1.3-1.1-1.3c-0.8,0-1.2,0.8-1.2,1.3H457.2z"/>
			</g>
			<g>
				<path fill="#FFFFFF" d="M463.4,276.2v1.4h1.3v1h-1.3v2.4c0,0.7,0.2,1,0.7,1c0.2,0,0.4,0,0.5-0.1l0,1c-0.2,0.1-0.6,0.1-1,0.1
					c-0.5,0-0.9-0.2-1.2-0.4c-0.3-0.3-0.4-0.8-0.4-1.5v-2.5h-0.8v-1h0.8v-1L463.4,276.2z"/>
			</g>
			<g>
				<path fill="#FFFFFF" d="M470.8,280.2c0,2-1.4,2.8-2.8,2.8c-1.5,0-2.7-1-2.7-2.8c0-1.8,1.2-2.8,2.8-2.8
					C469.7,277.4,470.8,278.5,470.8,280.2z M466.7,280.2c0,1,0.5,1.8,1.3,1.8c0.8,0,1.3-0.7,1.3-1.8c0-0.8-0.4-1.8-1.3-1.8
					C467.1,278.4,466.7,279.3,466.7,280.2z"/>
			</g>
			<g>
				<path fill="#FFFFFF" d="M478.1,282.7c-0.3,0.1-0.8,0.3-1.5,0.3c-1.7,0-2.8-1.1-2.8-2.7c0-1.6,1.1-2.8,3-2.8c0.5,0,1,0.1,1.3,0.2
					l-0.2,1c-0.2-0.1-0.5-0.2-1-0.2c-1,0-1.7,0.8-1.6,1.7c0,1.1,0.7,1.7,1.6,1.7c0.5,0,0.8-0.1,1.1-0.2L478.1,282.7z"/>
			</g>
			<g>
				<path fill="#FFFFFF" d="M483.2,281.6c0,0.5,0,1,0.1,1.3h-1.2l-0.1-0.6h0c-0.3,0.4-0.9,0.7-1.6,0.7c-1.1,0-1.7-0.8-1.7-1.6
					c0-1.3,1.2-2,3.2-2v-0.1c0-0.4-0.1-0.9-1.1-0.9c-0.5,0-1.1,0.2-1.4,0.4l-0.3-0.9c0.4-0.2,1.1-0.5,1.9-0.5c1.7,0,2.2,1.1,2.2,2.3
					V281.6z M481.9,280.3c-1,0-1.9,0.2-1.9,1c0,0.5,0.3,0.8,0.8,0.8c0.6,0,0.9-0.4,1.1-0.7c0-0.1,0-0.2,0-0.3V280.3z"/>
			</g>
			<g>
				<path fill="#FFFFFF" d="M484.7,275.1h1.4v7.8h-1.4V275.1z"/>
			</g>
			<g>
				<path fill="#FFFFFF" d="M487.5,275.1h1.4v7.8h-1.4V275.1z"/>
			</g>
			<g>
				<path fill="#FFFFFF" d="M492.6,275.1h1.4v3.2h0c0.2-0.3,0.4-0.5,0.7-0.6c0.3-0.2,0.6-0.2,0.9-0.2c0.9,0,1.9,0.6,1.9,2.3v3.2
					h-1.4v-3c0-0.8-0.3-1.4-1-1.4c-0.5,0-0.9,0.4-1.1,0.8c0,0.1-0.1,0.3-0.1,0.4v3.2h-1.4V275.1z"/>
			</g>
			<g>
				<path fill="#FFFFFF" d="M500.3,276c0,0.4-0.3,0.7-0.8,0.7c-0.5,0-0.7-0.3-0.7-0.7c0-0.4,0.3-0.7,0.8-0.7
					C500,275.3,500.3,275.6,500.3,276z M498.9,282.9v-5.4h1.4v5.4H498.9z"/>
			</g>
			<g>
				<path fill="#FFFFFF" d="M501.7,281.6c0.3,0.2,0.9,0.4,1.4,0.4c0.6,0,0.9-0.3,0.9-0.6c0-0.4-0.2-0.5-0.9-0.8
					c-1-0.4-1.5-0.9-1.5-1.6c0-0.9,0.8-1.7,2-1.7c0.6,0,1.1,0.1,1.4,0.3l-0.3,0.9c-0.2-0.1-0.7-0.3-1.1-0.3c-0.5,0-0.7,0.2-0.7,0.6
					c0,0.3,0.3,0.5,0.9,0.7c1,0.3,1.4,0.8,1.4,1.6c0,1-0.8,1.7-2.2,1.7c-0.6,0-1.2-0.2-1.6-0.4L501.7,281.6z"/>
			</g>
			<g>
				<path fill="#FFFFFF" d="M508.7,282.9v-4.3H508v-1h0.7v-0.2c0-0.7,0.2-1.4,0.6-1.8c0.4-0.4,0.9-0.5,1.4-0.5
					c0.4,0,0.6,0.1,0.9,0.1l-0.1,1c-0.2-0.1-0.3-0.1-0.6-0.1c-0.7,0-0.9,0.6-0.9,1.2v0.3h1.2v1h-1.2v4.3H508.7z"/>
			</g>
			<g>
				<path fill="#FFFFFF" d="M512.1,279.3c0-0.7,0-1.3,0-1.7h1.2l0.1,1h0c0.3-0.7,0.9-1.1,1.5-1.1c0.1,0,0.2,0,0.3,0v1.3
					c-0.1,0-0.2,0-0.4,0c-0.6,0-1.1,0.4-1.2,1c0,0.1,0,0.3,0,0.4v2.8h-1.4V279.3z"/>
			</g>
			<g>
				<path fill="#FFFFFF" d="M517.4,276c0,0.4-0.3,0.7-0.8,0.7c-0.5,0-0.7-0.3-0.7-0.7c0-0.4,0.3-0.7,0.8-0.7
					C517.1,275.3,517.4,275.6,517.4,276z M516,282.9v-5.4h1.4v5.4H516z"/>
			</g>
			<g>
				<path fill="#FFFFFF" d="M519.8,280.6c0,1,0.8,1.4,1.6,1.4c0.6,0,1.1-0.1,1.5-0.2l0.2,0.9c-0.5,0.2-1.1,0.3-1.9,0.3
					c-1.7,0-2.8-1.1-2.8-2.7c0-1.5,0.9-2.9,2.6-2.9c1.7,0,2.3,1.4,2.3,2.6c0,0.3,0,0.5,0,0.6H519.8z M522.1,279.6
					c0-0.5-0.2-1.3-1.1-1.3c-0.8,0-1.2,0.8-1.2,1.3H522.1z"/>
			</g>
			<g>
				<path fill="#FFFFFF" d="M524.5,279.1c0-0.6,0-1.1,0-1.6h1.2l0.1,0.8h0c0.2-0.4,0.8-0.9,1.7-0.9c0.9,0,1.9,0.6,1.9,2.3v3.2H528
					v-3c0-0.8-0.3-1.4-1-1.4c-0.5,0-0.9,0.4-1.1,0.8c0,0.1-0.1,0.3-0.1,0.4v3.2h-1.4V279.1z"/>
			</g>
			<g>
				<path fill="#FFFFFF" d="M535.7,275.1v6.3c0,0.5,0,1.1,0,1.5h-1.2l-0.1-0.8h0c-0.3,0.6-1,1-1.7,1c-1.3,0-2.3-1.1-2.3-2.7
					c0-1.8,1.1-2.9,2.4-2.9c0.7,0,1.3,0.3,1.5,0.7h0v-3H535.7z M534.4,279.8c0-0.1,0-0.3,0-0.4c-0.1-0.5-0.5-0.9-1.2-0.9
					c-0.9,0-1.4,0.8-1.4,1.8c0,1,0.5,1.7,1.3,1.7c0.5,0,1-0.4,1.2-1c0-0.1,0-0.3,0-0.4V279.8z"/>
			</g>
			<g>
				<path fill="#FFFFFF" d="M537.1,281.6c0.3,0.2,0.9,0.4,1.4,0.4c0.6,0,0.9-0.3,0.9-0.6c0-0.4-0.2-0.5-0.9-0.8
					c-1-0.4-1.5-0.9-1.5-1.6c0-0.9,0.8-1.7,2-1.7c0.6,0,1.1,0.1,1.4,0.3l-0.3,0.9c-0.2-0.1-0.7-0.3-1.1-0.3c-0.5,0-0.7,0.2-0.7,0.6
					c0,0.3,0.3,0.5,0.9,0.7c1,0.3,1.4,0.8,1.4,1.6c0,1-0.8,1.7-2.2,1.7c-0.6,0-1.2-0.2-1.6-0.4L537.1,281.6z"/>
			</g>
			<g>
				<path fill="#FFFFFF" d="M541.5,282.1c0-0.5,0.4-0.9,0.8-0.9c0.5,0,0.8,0.4,0.8,0.9c0,0.5-0.3,0.9-0.8,0.9
					C541.8,283,541.5,282.6,541.5,282.1z"/>
			</g>
		</g>
		<g>
			<g>
				<path fill="#FFFFFF" d="M374.6,115.5c0,6-2.4,10.1-7.3,10.1c-5,0-7.2-4.5-7.2-10c0-5.6,2.4-10,7.4-10
					C372.6,105.6,374.6,110.2,374.6,115.5z M364.6,115.6c0,4.4,1.1,6.6,2.8,6.6c1.8,0,2.7-2.2,2.7-6.6c0-4.3-0.9-6.6-2.7-6.6
					C365.7,109,364.6,111.1,364.6,115.6z"/>
			</g>
			<g>
				<path fill="#FFFFFF" d="M382.6,109.9L382.6,109.9l-3.8,1.8l-0.7-3.4l5.2-2.4h3.7v19.4h-4.4V109.9z"/>
			</g>
		</g>
	</g>
	<g>
		<g>
			<path fill="#FFFFFF" d="M716.2,308H353.8c-10.2,0-18.6-8.3-18.6-18.6V100.2c0-10.2,8.3-18.6,18.6-18.6h362.4
				c10.2,0,18.6,8.3,18.6,18.6v189.1C734.8,299.6,726.4,308,716.2,308z M353.8,86.6c-7.5,0-13.6,6.1-13.6,13.6v189.1
				c0,7.5,6.1,13.6,13.6,13.6h362.4c7.5,0,13.6-6.1,13.6-13.6V100.2c0-7.5-6.1-13.6-13.6-13.6H353.8z"/>
		</g>
	</g>
</g>
</svg>
