<?xml version="1.0" encoding="utf-8"?>
<!-- Generator: Adobe Illustrator 19.2.1, SVG Export Plug-In . SVG Version: 6.00 Build 0)  -->
<svg version="1.1" id="Layer_1" xmlns="http://www.w3.org/2000/svg" xmlns:xlink="http://www.w3.org/1999/xlink" x="0px" y="0px"
	 viewBox="0 0 220.9 331.7" style="enable-background:new 0 0 220.9 331.7;" xml:space="preserve">
<style type="text/css">
	.st0{fill:#7E5EA2;}
	.st1{fill:#FFFFFF;}
	.st2{fill:#79C7D9;}
	.st3{fill:#F2A15E;}
</style>
<g>
	<g>
		<rect y="0" class="st0" width="220.9" height="331.7"/>
	</g>
</g>
<g>
	<g>
		<path class="st1" d="M206,263.8H14.6c-0.6,0-1-0.4-1-1s0.4-1,1-1H206c0.6,0,1,0.4,1,1S206.6,263.8,206,263.8z"/>
	</g>
</g>
<g>
	<g>
		<path class="st1" d="M29.3,280c0.4,0.2,0.9,0.4,1.5,0.4c0.7,0,1.1-0.3,1.1-0.8s-0.3-0.7-1.1-1c-1-0.4-1.7-0.9-1.7-1.8
			c0-1,0.8-1.8,2.2-1.8c0.7,0,1.1,0.1,1.5,0.3l-0.3,0.9c-0.2-0.1-0.7-0.3-1.2-0.3c-0.7,0-1,0.4-1,0.7c0,0.5,0.4,0.7,1.2,1
			c1.1,0.4,1.6,0.9,1.6,1.8c0,1-0.7,1.8-2.3,1.8c-0.7,0-1.3-0.2-1.7-0.4L29.3,280z"/>
	</g>
	<g>
		<path class="st1" d="M34.3,278.3c0-0.6,0-1,0-1.5h1l0.1,0.7l0,0c0.3-0.5,0.8-0.8,1.5-0.8c1,0,1.9,0.9,1.9,2.2c0,1.6-1,2.4-2,2.4
			c-0.6,0-1-0.2-1.2-0.6l0,0v2.3h-1.1v-4.7H34.3z M35.4,279.4c0,0.1,0,0.2,0,0.3c0.1,0.5,0.5,0.8,1,0.8c0.7,0,1.1-0.6,1.1-1.5
			c0-0.8-0.4-1.4-1.1-1.4c-0.5,0-0.9,0.3-1,0.8c0,0.1,0,0.2,0,0.3V279.4z"/>
	</g>
	<g>
		<path class="st1" d="M44.1,279c0,1.6-1.1,2.3-2.3,2.3s-2.2-0.8-2.2-2.3c0-1.4,0.9-2.3,2.3-2.3C43.3,276.8,44.1,277.7,44.1,279z
			 M40.8,279.1c0,0.8,0.4,1.5,1.1,1.5c0.6,0,1.1-0.6,1.1-1.5c0-0.7-0.3-1.5-1.1-1.5S40.8,278.3,40.8,279.1z"/>
	</g>
	<g>
		<path class="st1" d="M46.7,275.7v1.1h1.1v0.8h-1.1v1.9c0,0.5,0.1,0.8,0.6,0.8c0.2,0,0.3,0,0.4,0v0.8c-0.2,0.1-0.5,0.1-0.8,0.1
			c-0.4,0-0.8-0.1-1-0.4s-0.4-0.7-0.4-1.2v-2.1H45v-0.8h0.6V276L46.7,275.7z"/>
	</g>
	<g>
		<path class="st1" d="M50.2,275.7v1.1h1.1v0.8h-1.1v1.9c0,0.5,0.1,0.8,0.6,0.8c0.2,0,0.3,0,0.4,0v0.8c-0.2,0.1-0.5,0.1-0.8,0.1
			c-0.4,0-0.8-0.1-1-0.4s-0.4-0.7-0.4-1.2v-2.1h-0.6v-0.8H49V276L50.2,275.7z"/>
	</g>
	<g>
		<path class="st1" d="M53.3,276.8l0.8,2.4c0.1,0.3,0.2,0.6,0.3,0.8l0,0c0.1-0.2,0.1-0.6,0.2-0.9l0.7-2.3h1.2l-1.1,3
			c-0.6,1.6-1,2.4-1.5,2.8c-0.4,0.4-0.9,0.5-1.2,0.6l-0.3-0.9c0.2,0,0.4-0.1,0.6-0.3c0.2-0.1,0.5-0.4,0.6-0.7c0-0.1,0.1-0.1,0.1-0.2
			c0,0,0-0.1-0.1-0.2l-1.6-4L53.3,276.8L53.3,276.8z"/>
	</g>
	<g>
		<path class="st1" d="M62.9,281.1c-0.2,0.1-0.7,0.2-1.2,0.2c-1.4,0-2.3-0.9-2.3-2.2c0-1.3,0.9-2.3,2.4-2.3c0.4,0,0.8,0.1,1.1,0.2
			l-0.2,0.8c-0.2-0.1-0.4-0.2-0.8-0.2c-0.8,0-1.4,0.6-1.3,1.4c0,0.9,0.6,1.4,1.3,1.4c0.4,0,0.7-0.1,0.9-0.2L62.9,281.1z"/>
	</g>
	<g>
		<path class="st1" d="M67.5,280.2c0,0.4,0,0.8,0.1,1.1h-1l-0.1-0.5l0,0c-0.3,0.3-0.7,0.6-1.3,0.6c-0.9,0-1.4-0.6-1.4-1.3
			c0-1.1,1-1.7,2.6-1.7v-0.1c0-0.3-0.1-0.8-0.9-0.8c-0.4,0-0.9,0.1-1.2,0.3l-0.2-0.7c0.3-0.2,0.9-0.4,1.6-0.4c1.4,0,1.8,0.9,1.8,1.9
			V280.2z M66.4,279.1c-0.8,0-1.5,0.2-1.5,0.8c0,0.4,0.3,0.6,0.6,0.6c0.5,0,0.8-0.3,0.9-0.6c0-0.1,0-0.2,0-0.2V279.1z"/>
	</g>
	<g>
		<path class="st1" d="M69,278.2c0-0.5,0-0.9,0-1.3h1l0.1,0.7l0,0c0.2-0.3,0.7-0.8,1.4-0.8c0.8,0,1.6,0.5,1.6,1.9v2.6H72v-2.5
			c0-0.6-0.2-1.1-0.8-1.1c-0.4,0-0.8,0.3-0.9,0.7c0,0.1-0.1,0.2-0.1,0.4v2.6H69V278.2z"/>
	</g>
	<g>
		<path class="st1" d="M80.7,279.9c0,0.5,0,1,0,1.3h-1l-0.1-0.7l0,0c-0.2,0.3-0.6,0.8-1.4,0.8s-1.5-0.5-1.5-1.9v-2.6h1.1v2.4
			c0,0.7,0.2,1.2,0.8,1.2c0.5,0,0.7-0.3,0.8-0.6c0-0.1,0.1-0.2,0.1-0.3v-2.7h1.1L80.7,279.9L80.7,279.9z"/>
	</g>
	<g>
		<path class="st1" d="M82.3,280.2c0.2,0.2,0.7,0.3,1.1,0.3c0.5,0,0.7-0.2,0.7-0.5s-0.2-0.4-0.7-0.6c-0.9-0.3-1.2-0.8-1.2-1.3
			c0-0.8,0.6-1.4,1.7-1.4c0.5,0,0.9,0.1,1.2,0.3l-0.2,0.8c-0.2-0.1-0.5-0.3-0.9-0.3s-0.6,0.2-0.6,0.5s0.2,0.4,0.8,0.6
			c0.8,0.3,1.2,0.7,1.2,1.3c0,0.8-0.6,1.4-1.8,1.4c-0.5,0-1-0.1-1.3-0.3L82.3,280.2z"/>
	</g>
	<g>
		<path class="st1" d="M87.2,279.4c0,0.8,0.6,1.1,1.4,1.1c0.5,0,0.9-0.1,1.2-0.2l0.2,0.8c-0.4,0.2-0.9,0.3-1.5,0.3
			c-1.4,0-2.3-0.9-2.3-2.2c0-1.2,0.7-2.4,2.1-2.4s1.9,1.2,1.9,2.1c0,0.2,0,0.4,0,0.5L87.2,279.4L87.2,279.4z M89.2,278.6
			c0-0.4-0.2-1.1-0.9-1.1c-0.7,0-1,0.6-1,1.1H89.2z"/>
	</g>
	<g>
		<path class="st2" d="M94.9,275.2v6.1h-1.1v-6.1H94.9z"/>
	</g>
	<g>
		<path class="st2" d="M99.7,281.1c-0.2,0.1-0.7,0.2-1.2,0.2c-1.4,0-2.3-0.9-2.3-2.2c0-1.3,0.9-2.3,2.4-2.3c0.4,0,0.8,0.1,1.1,0.2
			l-0.2,0.8c-0.2-0.1-0.4-0.2-0.8-0.2c-0.8,0-1.4,0.6-1.3,1.4c0,0.9,0.6,1.4,1.3,1.4c0.4,0,0.7-0.1,0.9-0.2L99.7,281.1z"/>
	</g>
	<g>
		<path class="st2" d="M101.6,279.4c0,0.8,0.6,1.1,1.4,1.1c0.5,0,0.9-0.1,1.2-0.2l0.2,0.8c-0.4,0.2-0.9,0.3-1.5,0.3
			c-1.4,0-2.3-0.9-2.3-2.2c0-1.2,0.7-2.4,2.1-2.4s1.9,1.2,1.9,2.1c0,0.2,0,0.4,0,0.5L101.6,279.4L101.6,279.4z M103.5,278.6
			c0-0.4-0.2-1.1-0.9-1.1c-0.7,0-1,0.6-1,1.1H103.5z"/>
	</g>
	<g>
		<path class="st2" d="M105.8,274.8h1.1v2.6l0,0c0.3-0.4,0.8-0.7,1.4-0.7c1.1,0,1.8,0.9,1.8,2.2c0,1.6-1,2.4-2,2.4
			c-0.6,0-1.1-0.2-1.4-0.8l0,0l-0.1,0.7h-0.9c0-0.3,0-0.8,0-1.2L105.8,274.8L105.8,274.8z M106.9,279.4c0,0.1,0,0.2,0,0.3
			c0.1,0.5,0.5,0.8,1,0.8c0.7,0,1.1-0.6,1.1-1.4s-0.4-1.4-1.1-1.4c-0.5,0-0.9,0.3-1,0.8c0,0.1,0,0.2,0,0.3V279.4z"/>
	</g>
	<g>
		<path class="st2" d="M111.5,278.3c0-0.6,0-1,0-1.4h1v0.8l0,0c0.2-0.6,0.7-0.9,1.2-0.9c0.1,0,0.2,0,0.3,0v1c-0.1,0-0.2,0-0.3,0
			c-0.5,0-0.9,0.3-1,0.8c0,0.1,0,0.2,0,0.3v2.3h-1.1L111.5,278.3L111.5,278.3z"/>
	</g>
	<g>
		<path class="st2" d="M119,280.6c0,0.9-0.2,1.6-0.7,2s-1.1,0.5-1.7,0.5s-1.2-0.1-1.5-0.4l0.2-0.8c0.3,0.2,0.8,0.3,1.3,0.3
			c0.7,0,1.3-0.4,1.3-1.3v-0.4l0,0c-0.3,0.4-0.7,0.7-1.3,0.7c-1.1,0-1.9-0.9-1.9-2.1c0-1.4,0.9-2.3,2-2.3c0.7,0,1.1,0.3,1.3,0.7l0,0
			v-0.6h1c0,0.3,0,0.7,0,1.3C119,278.2,119,280.6,119,280.6z M117.8,278.6c0-0.1,0-0.2,0-0.3c-0.1-0.4-0.4-0.7-0.9-0.7
			c-0.6,0-1.1,0.5-1.1,1.4c0,0.8,0.4,1.4,1.1,1.4c0.4,0,0.8-0.3,0.9-0.7c0-0.1,0-0.3,0-0.4V278.6z"/>
	</g>
	<g>
		<path class="st1" d="M124,275.7v1.1h1.1v0.8H124v1.9c0,0.5,0.1,0.8,0.6,0.8c0.2,0,0.3,0,0.4,0v0.8c-0.2,0.1-0.5,0.1-0.8,0.1
			c-0.4,0-0.8-0.1-1-0.4s-0.4-0.7-0.4-1.2v-2.1h-0.6v-0.8h0.6V276L124,275.7z"/>
	</g>
	<g>
		<path class="st1" d="M130.4,279c0,1.6-1.1,2.3-2.3,2.3s-2.2-0.8-2.2-2.3c0-1.4,0.9-2.3,2.3-2.3C129.5,276.8,130.4,277.7,130.4,279
			z M127.1,279.1c0,0.8,0.4,1.5,1.1,1.5c0.6,0,1.1-0.6,1.1-1.5c0-0.7-0.3-1.5-1.1-1.5C127.4,277.6,127.1,278.3,127.1,279.1z"/>
	</g>
	<g>
		<path class="st1" d="M134.7,279.4c0,0.8,0.6,1.1,1.4,1.1c0.5,0,0.9-0.1,1.2-0.2l0.2,0.8c-0.4,0.2-0.9,0.3-1.5,0.3
			c-1.4,0-2.3-0.9-2.3-2.2c0-1.2,0.7-2.4,2.1-2.4c1.4,0,1.9,1.2,1.9,2.1c0,0.2,0,0.4,0,0.5L134.7,279.4L134.7,279.4z M136.6,278.6
			c0-0.4-0.2-1.1-0.9-1.1s-1,0.6-1,1.1H136.6z"/>
	</g>
	<g>
		<path class="st1" d="M138.9,274.8h1.1v6.4h-1.1V274.8z"/>
	</g>
	<g>
		<path class="st1" d="M142.8,275.6c0,0.3-0.2,0.6-0.6,0.6c-0.4,0-0.6-0.3-0.6-0.6c0-0.3,0.3-0.6,0.6-0.6
			C142.6,275,142.8,275.3,142.8,275.6z M141.6,281.2v-4.4h1.1v4.4H141.6z"/>
	</g>
	<g>
		<path class="st1" d="M144.3,278.2c0-0.5,0-0.9,0-1.3h0.9l0.1,0.7l0,0c0.2-0.3,0.6-0.7,1.4-0.7c0.6,0,1,0.3,1.2,0.8l0,0
			c0.2-0.2,0.3-0.4,0.5-0.6c0.3-0.2,0.5-0.3,0.9-0.3c0.7,0,1.5,0.5,1.5,1.9v2.6h-1.1v-2.4c0-0.7-0.3-1.2-0.8-1.2
			c-0.4,0-0.7,0.3-0.8,0.6c0,0.1-0.1,0.2-0.1,0.4v2.6h-1v-2.5c0-0.6-0.2-1-0.8-1c-0.4,0-0.7,0.3-0.8,0.6c0,0.1-0.1,0.2-0.1,0.4v2.6
			h-1.1v-3.2H144.3z"/>
	</g>
	<g>
		<path class="st1" d="M153.5,275.6c0,0.3-0.2,0.6-0.6,0.6c-0.4,0-0.6-0.3-0.6-0.6c0-0.3,0.3-0.6,0.6-0.6
			C153.3,275,153.5,275.3,153.5,275.6z M152.3,281.2v-4.4h1.1v4.4H152.3z"/>
	</g>
	<g>
		<path class="st1" d="M155,278.2c0-0.5,0-0.9,0-1.3h1l0.1,0.7l0,0c0.2-0.3,0.7-0.8,1.4-0.8c0.8,0,1.6,0.5,1.6,1.9v2.6H158v-2.5
			c0-0.6-0.2-1.1-0.8-1.1c-0.4,0-0.8,0.3-0.9,0.7c0,0.1-0.1,0.2-0.1,0.4v2.6H155V278.2z"/>
	</g>
	<g>
		<path class="st1" d="M164,280.2c0,0.4,0,0.8,0.1,1.1h-1l-0.1-0.5l0,0c-0.3,0.3-0.7,0.6-1.3,0.6c-0.9,0-1.4-0.6-1.4-1.3
			c0-1.1,1-1.7,2.6-1.7v-0.1c0-0.3-0.1-0.8-0.9-0.8c-0.4,0-0.9,0.1-1.2,0.3l-0.2-0.7c0.3-0.2,0.9-0.4,1.6-0.4c1.4,0,1.8,0.9,1.8,1.9
			L164,280.2L164,280.2z M162.9,279.1c-0.8,0-1.5,0.2-1.5,0.8c0,0.4,0.3,0.6,0.6,0.6c0.5,0,0.8-0.3,0.9-0.6c0-0.1,0-0.2,0-0.2V279.1
			z"/>
	</g>
	<g>
		<path class="st1" d="M166.7,275.7v1.1h1.1v0.8h-1.1v1.9c0,0.5,0.1,0.8,0.6,0.8c0.2,0,0.3,0,0.4,0v0.8c-0.2,0.1-0.5,0.1-0.8,0.1
			c-0.4,0-0.8-0.1-1-0.4s-0.4-0.7-0.4-1.2v-2.1H165v-0.8h0.6V276L166.7,275.7z"/>
	</g>
	<g>
		<path class="st1" d="M169.7,279.4c0,0.8,0.6,1.1,1.4,1.1c0.5,0,0.9-0.1,1.2-0.2l0.2,0.8c-0.4,0.2-0.9,0.3-1.5,0.3
			c-1.4,0-2.3-0.9-2.3-2.2c0-1.2,0.7-2.4,2.1-2.4c1.4,0,1.9,1.2,1.9,2.1c0,0.2,0,0.4,0,0.5L169.7,279.4L169.7,279.4z M171.6,278.6
			c0-0.4-0.2-1.1-0.9-1.1s-1,0.6-1,1.1H171.6z"/>
	</g>
	<g>
		<path class="st1" d="M176.2,274.8h1.1v2.6l0,0c0.1-0.2,0.3-0.4,0.6-0.5c0.2-0.1,0.5-0.2,0.8-0.2c0.8,0,1.5,0.5,1.5,1.9v2.6h-1.1
			v-2.5c0-0.6-0.2-1.1-0.8-1.1c-0.4,0-0.7,0.3-0.9,0.6c0,0.1,0,0.2,0,0.3v2.6h-1.1v-6.3H176.2z"/>
	</g>
	<g>
		<path class="st1" d="M182.9,275.6c0,0.3-0.2,0.6-0.6,0.6c-0.4,0-0.6-0.3-0.6-0.6c0-0.3,0.3-0.6,0.6-0.6
			C182.7,275,182.9,275.3,182.9,275.6z M181.7,281.2v-4.4h1.1v4.4H181.7z"/>
	</g>
	<g>
		<path class="st1" d="M184.3,280.2c0.2,0.2,0.7,0.3,1.1,0.3c0.5,0,0.7-0.2,0.7-0.5s-0.2-0.4-0.7-0.6c-0.9-0.3-1.2-0.8-1.2-1.3
			c0-0.8,0.6-1.4,1.7-1.4c0.5,0,0.9,0.1,1.2,0.3l-0.2,0.8c-0.2-0.1-0.5-0.3-0.9-0.3s-0.6,0.2-0.6,0.5s0.2,0.4,0.8,0.6
			c0.8,0.3,1.2,0.7,1.2,1.3c0,0.8-0.6,1.4-1.8,1.4c-0.5,0-1-0.1-1.3-0.3V280.2z"/>
	</g>
	<g>
		<path class="st1" d="M29.4,292.1v-3.6h-0.6v-0.8h0.6v-0.2c0-0.6,0.2-1.1,0.5-1.5c0.3-0.3,0.8-0.4,1.1-0.4c0.3,0,0.5,0.1,0.7,0.1
			l-0.1,0.9c-0.1,0-0.3-0.1-0.5-0.1c-0.6,0-0.7,0.5-0.7,1v0.2h1v0.8h-0.9v3.6H29.4z"/>
	</g>
	<g>
		<path class="st1" d="M32.5,289.1c0-0.6,0-1,0-1.4h1v0.8l0,0c0.2-0.6,0.7-0.9,1.2-0.9c0.1,0,0.2,0,0.3,0v1c-0.1,0-0.2,0-0.3,0
			c-0.5,0-0.9,0.3-1,0.8c0,0.1,0,0.2,0,0.3v2.3h-1.1v-2.9H32.5z"/>
	</g>
	<g>
		<path class="st1" d="M40,290.8c0,0.5,0,1,0,1.3h-1l-0.1-0.7l0,0c-0.2,0.3-0.6,0.8-1.4,0.8s-1.5-0.5-1.5-1.9v-2.6h1.1v2.4
			c0,0.7,0.2,1.2,0.8,1.2c0.5,0,0.7-0.3,0.8-0.6c0-0.1,0.1-0.2,0.1-0.3v-2.7H40V290.8z"/>
	</g>
	<g>
		<path class="st1" d="M41.5,291.1c0.2,0.2,0.7,0.3,1.1,0.3c0.5,0,0.7-0.2,0.7-0.5s-0.2-0.4-0.7-0.6c-0.9-0.3-1.2-0.8-1.2-1.3
			c0-0.8,0.6-1.4,1.7-1.4c0.5,0,0.9,0.1,1.2,0.3l-0.2,0.8c-0.2-0.1-0.5-0.3-0.9-0.3s-0.6,0.2-0.6,0.5s0.2,0.4,0.8,0.6
			c0.8,0.3,1.2,0.7,1.2,1.3c0,0.8-0.6,1.4-1.8,1.4c-0.5,0-1-0.1-1.3-0.3V291.1z"/>
	</g>
	<g>
		<path class="st1" d="M47,286.6v1.1h1.1v0.8H47v1.9c0,0.5,0.1,0.8,0.6,0.8c0.2,0,0.3,0,0.4,0v0.8c-0.2,0.1-0.5,0.1-0.8,0.1
			c-0.4,0-0.8-0.1-1-0.4s-0.4-0.7-0.4-1.2v-2.1h-0.6v-0.8h0.6v-0.8L47,286.6z"/>
	</g>
	<g>
		<path class="st1" d="M49.3,289.1c0-0.6,0-1,0-1.4h1v0.8l0,0c0.2-0.6,0.7-0.9,1.2-0.9c0.1,0,0.2,0,0.3,0v1c-0.1,0-0.2,0-0.3,0
			c-0.5,0-0.9,0.3-1,0.8c0,0.1,0,0.2,0,0.3v2.3h-1.1v-2.9H49.3z"/>
	</g>
	<g>
		<path class="st1" d="M56.2,291c0,0.4,0,0.8,0.1,1.1h-1l-0.1-0.5l0,0c-0.3,0.3-0.7,0.6-1.3,0.6c-0.9,0-1.4-0.6-1.4-1.3
			c0-1.1,1-1.7,2.6-1.7v-0.1c0-0.3-0.1-0.8-0.9-0.8c-0.4,0-0.9,0.1-1.2,0.3l-0.2-0.7c0.3-0.2,0.9-0.4,1.6-0.4c1.4,0,1.8,0.9,1.8,1.9
			C56.2,289.4,56.2,291,56.2,291z M55.1,289.9c-0.8,0-1.5,0.2-1.5,0.8c0,0.4,0.3,0.6,0.6,0.6c0.5,0,0.8-0.3,0.9-0.6
			c0-0.1,0-0.2,0-0.2V289.9z"/>
	</g>
	<g>
		<path class="st1" d="M58.9,286.6v1.1H60v0.8h-1.1v1.9c0,0.5,0.1,0.8,0.6,0.8c0.2,0,0.3,0,0.4,0v0.8c-0.2,0.1-0.5,0.1-0.8,0.1
			c-0.4,0-0.8-0.1-1-0.4s-0.4-0.7-0.4-1.2v-2.1h-0.6v-0.8h0.6v-0.8L58.9,286.6z"/>
	</g>
	<g>
		<path class="st1" d="M62.4,286.5c0,0.3-0.2,0.6-0.6,0.6c-0.4,0-0.6-0.3-0.6-0.6c0-0.3,0.3-0.6,0.6-0.6
			C62.1,285.9,62.4,286.1,62.4,286.5z M61.2,292.1v-4.4h1.1v4.4H61.2z"/>
	</g>
	<g>
		<path class="st1" d="M68,289.9c0,1.6-1.1,2.3-2.3,2.3c-1.2,0-2.2-0.8-2.2-2.3c0-1.4,0.9-2.3,2.3-2.3S68,288.5,68,289.9z
			 M64.7,289.9c0,0.8,0.4,1.5,1.1,1.5c0.6,0,1.1-0.6,1.1-1.5c0-0.7-0.3-1.5-1.1-1.5S64.7,289.2,64.7,289.9z"/>
	</g>
	<g>
		<path class="st1" d="M69.3,289c0-0.5,0-0.9,0-1.3h1l0.1,0.7l0,0c0.2-0.3,0.7-0.8,1.4-0.8c0.8,0,1.6,0.5,1.6,1.9v2.6h-1.1v-2.5
			c0-0.6-0.2-1.1-0.8-1.1c-0.4,0-0.8,0.3-0.9,0.7c0,0.1-0.1,0.2-0.1,0.4v2.6h-1.1L69.3,289L69.3,289z"/>
	</g>
	<g>
		<path class="st1" d="M77.1,285.7h1.1v2.6l0,0c0.3-0.4,0.7-0.7,1.4-0.7c1.1,0,1.8,0.9,1.8,2.2c0,1.6-1,2.4-2,2.4
			c-0.6,0-1.1-0.2-1.4-0.8l0,0l-0.1,0.7H77c0-0.3,0-0.8,0-1.2L77.1,285.7L77.1,285.7z M78.2,290.3c0,0.1,0,0.2,0,0.3
			c0.1,0.5,0.5,0.8,1,0.8c0.7,0,1.1-0.6,1.1-1.4s-0.4-1.4-1.1-1.4c-0.5,0-0.9,0.3-1,0.8c0,0.1,0,0.2,0,0.3V290.3z"/>
	</g>
	<g>
		<path class="st1" d="M83.4,287.7l0.8,2.4c0.1,0.3,0.2,0.6,0.3,0.8l0,0c0.1-0.2,0.1-0.6,0.2-0.9l0.7-2.3h1.2l-1.1,3
			c-0.6,1.6-1,2.4-1.5,2.8c-0.4,0.4-0.9,0.5-1.2,0.6l-0.3-0.9c0.2,0,0.4-0.1,0.6-0.3c0.2-0.1,0.5-0.4,0.6-0.7c0-0.1,0.1-0.1,0.1-0.2
			c0,0,0-0.1-0.1-0.2l-1.6-4L83.4,287.7L83.4,287.7z"/>
	</g>
	<g>
		<path class="st1" d="M90.5,287.7l0.7,2.2c0.1,0.4,0.2,0.7,0.3,1.1l0,0c0.1-0.4,0.2-0.7,0.3-1.1l0.7-2.2h1.2l-1.7,4.4h-1.1
			l-1.6-4.4H90.5z"/>
	</g>
	<g>
		<path class="st1" d="M95.9,286.5c0,0.3-0.2,0.6-0.6,0.6s-0.6-0.3-0.6-0.6c0-0.3,0.3-0.6,0.6-0.6C95.7,285.9,95.9,286.1,95.9,286.5
			z M94.7,292.1v-4.4h1.1v4.4H94.7z"/>
	</g>
	<g>
		<path class="st1" d="M98.2,290.2c0,0.8,0.6,1.1,1.4,1.1c0.5,0,0.9-0.1,1.2-0.2l0.2,0.8c-0.4,0.2-0.9,0.3-1.5,0.3
			c-1.4,0-2.3-0.9-2.3-2.2c0-1.2,0.7-2.4,2.1-2.4s1.9,1.2,1.9,2.1c0,0.2,0,0.4,0,0.5L98.2,290.2L98.2,290.2z M100.1,289.4
			c0-0.4-0.2-1.1-0.9-1.1c-0.7,0-1,0.6-1,1.1H100.1z"/>
	</g>
	<g>
		<path class="st1" d="M103.1,287.7l0.5,2c0.1,0.5,0.2,0.9,0.3,1.4l0,0c0.1-0.5,0.2-1,0.4-1.4l0.6-2h0.9l0.6,2
			c0.1,0.5,0.3,1,0.4,1.5l0,0c0.1-0.5,0.2-1,0.3-1.5l0.5-2h1.1l-1.4,4.4h-1l-0.5-1.8c-0.1-0.5-0.2-0.9-0.3-1.4l0,0
			c-0.1,0.5-0.2,1-0.3,1.4l-0.6,1.8h-1l-1.3-4.4H103.1z"/>
	</g>
	<g>
		<path class="st1" d="M110.7,286.5c0,0.3-0.2,0.6-0.6,0.6s-0.6-0.3-0.6-0.6c0-0.3,0.3-0.6,0.6-0.6
			C110.5,285.9,110.7,286.1,110.7,286.5z M109.5,292.1v-4.4h1.1v4.4H109.5z"/>
	</g>
	<g>
		<path class="st1" d="M112.2,289c0-0.5,0-0.9,0-1.3h1l0.1,0.7l0,0c0.2-0.3,0.7-0.8,1.4-0.8c0.8,0,1.6,0.5,1.6,1.9v2.6h-1.1v-2.5
			c0-0.6-0.2-1.1-0.8-1.1c-0.4,0-0.8,0.3-0.9,0.7c0,0.1-0.1,0.2-0.1,0.4v2.6h-1.1L112.2,289L112.2,289z"/>
	</g>
	<g>
		<path class="st1" d="M121.7,291.5c0,0.9-0.2,1.6-0.7,2s-1.1,0.5-1.7,0.5s-1.2-0.1-1.5-0.4l0.2-0.8c0.3,0.2,0.8,0.3,1.3,0.3
			c0.7,0,1.3-0.4,1.3-1.3v-0.4l0,0c-0.3,0.4-0.7,0.7-1.3,0.7c-1.1,0-1.9-0.9-1.9-2.1c0-1.4,0.9-2.3,2-2.3c0.7,0,1.1,0.3,1.3,0.7l0,0
			v-0.6h1c0,0.3,0,0.7,0,1.3C121.7,289.1,121.7,291.5,121.7,291.5z M120.6,289.5c0-0.1,0-0.2,0-0.3c-0.1-0.4-0.4-0.7-0.9-0.7
			c-0.6,0-1.1,0.5-1.1,1.4c0,0.8,0.4,1.4,1.1,1.4c0.4,0,0.8-0.3,0.9-0.7c0-0.1,0-0.3,0-0.4V289.5z"/>
	</g>
	<g>
		<path class="st1" d="M125.5,285.7h1.1v2.6l0,0c0.1-0.2,0.3-0.4,0.6-0.5c0.2-0.1,0.5-0.2,0.8-0.2c0.8,0,1.5,0.5,1.5,1.9v2.6h-1.1
			v-2.5c0-0.6-0.2-1.1-0.8-1.1c-0.4,0-0.7,0.3-0.9,0.6c0,0.1,0,0.2,0,0.3v2.6h-1.1L125.5,285.7L125.5,285.7z"/>
	</g>
	<g>
		<path class="st1" d="M132.2,286.5c0,0.3-0.2,0.6-0.6,0.6c-0.4,0-0.6-0.3-0.6-0.6c0-0.3,0.3-0.6,0.6-0.6
			C132,285.9,132.2,286.1,132.2,286.5z M131.1,292.1v-4.4h1.1v4.4H131.1z"/>
	</g>
	<g>
		<path class="st1" d="M133.7,291.1c0.2,0.2,0.7,0.3,1.1,0.3c0.5,0,0.7-0.2,0.7-0.5s-0.2-0.4-0.7-0.6c-0.9-0.3-1.2-0.8-1.2-1.3
			c0-0.8,0.6-1.4,1.7-1.4c0.5,0,0.9,0.1,1.2,0.3l-0.2,0.8c-0.2-0.1-0.5-0.3-0.9-0.3s-0.6,0.2-0.6,0.5s0.2,0.4,0.8,0.6
			c0.8,0.3,1.2,0.7,1.2,1.3c0,0.8-0.6,1.4-1.8,1.4c-0.5,0-1-0.1-1.3-0.3V291.1z"/>
	</g>
	<g>
		<path class="st1" d="M140.2,292.1v-3.6h-0.6v-0.8h0.6v-0.2c0-0.6,0.2-1.1,0.5-1.5c0.3-0.3,0.8-0.4,1.1-0.4s0.5,0.1,0.7,0.1
			l-0.1,0.9c-0.1,0-0.3-0.1-0.5-0.1c-0.6,0-0.7,0.5-0.7,1v0.2h1v0.8h-0.9v3.6H140.2z"/>
	</g>
	<g>
		<path class="st1" d="M143.3,289.1c0-0.6,0-1,0-1.4h1v0.8l0,0c0.2-0.6,0.7-0.9,1.2-0.9c0.1,0,0.2,0,0.3,0v1c-0.1,0-0.2,0-0.3,0
			c-0.5,0-0.9,0.3-1,0.8c0,0.1,0,0.2,0,0.3v2.3h-1.1L143.3,289.1L143.3,289.1z"/>
	</g>
	<g>
		<path class="st1" d="M148.1,286.5c0,0.3-0.2,0.6-0.6,0.6c-0.4,0-0.6-0.3-0.6-0.6c0-0.3,0.3-0.6,0.6-0.6
			C147.9,285.9,148.1,286.1,148.1,286.5z M146.9,292.1v-4.4h1.1v4.4H146.9z"/>
	</g>
	<g>
		<path class="st1" d="M150.4,290.2c0,0.8,0.6,1.1,1.4,1.1c0.5,0,0.9-0.1,1.2-0.2l0.2,0.8c-0.4,0.2-0.9,0.3-1.5,0.3
			c-1.4,0-2.3-0.9-2.3-2.2c0-1.2,0.7-2.4,2.1-2.4c1.4,0,1.9,1.2,1.9,2.1c0,0.2,0,0.4,0,0.5L150.4,290.2L150.4,290.2z M152.3,289.4
			c0-0.4-0.2-1.1-0.9-1.1s-1,0.6-1,1.1H152.3z"/>
	</g>
	<g>
		<path class="st1" d="M154.6,289c0-0.5,0-0.9,0-1.3h1l0.1,0.7l0,0c0.2-0.3,0.7-0.8,1.4-0.8c0.8,0,1.6,0.5,1.6,1.9v2.6h-1.1v-2.5
			c0-0.6-0.2-1.1-0.8-1.1c-0.4,0-0.8,0.3-0.9,0.7c0,0.1-0.1,0.2-0.1,0.4v2.6h-1.1L154.6,289L154.6,289z"/>
	</g>
	<g>
		<path class="st1" d="M164.2,285.7v5.2c0,0.5,0,0.9,0,1.2h-1l-0.1-0.7l0,0c-0.3,0.5-0.8,0.8-1.4,0.8c-1.1,0-1.9-0.9-1.9-2.2
			c0-1.5,0.9-2.3,2-2.3c0.6,0,1,0.2,1.2,0.6l0,0v-2.5h1.2V285.7z M163.1,289.5c0-0.1,0-0.2,0-0.3c-0.1-0.4-0.5-0.8-1-0.8
			c-0.7,0-1.1,0.6-1.1,1.4s0.4,1.4,1.1,1.4c0.5,0,0.8-0.3,1-0.8c0-0.1,0-0.2,0-0.3V289.5z"/>
	</g>
	<g>
		<path class="st1" d="M165.7,291.1c0.2,0.2,0.7,0.3,1.1,0.3c0.5,0,0.7-0.2,0.7-0.5s-0.2-0.4-0.7-0.6c-0.9-0.3-1.2-0.8-1.2-1.3
			c0-0.8,0.6-1.4,1.7-1.4c0.5,0,0.9,0.1,1.2,0.3l-0.2,0.8c-0.2-0.1-0.5-0.3-0.9-0.3s-0.6,0.2-0.6,0.5s0.2,0.4,0.8,0.6
			c0.8,0.3,1.2,0.7,1.2,1.3c0,0.8-0.6,1.4-1.8,1.4c-0.5,0-1-0.1-1.3-0.3V291.1z"/>
	</g>
	<g>
		<path class="st1" d="M172.1,285.7h1.1v2.6l0,0c0.3-0.4,0.7-0.7,1.4-0.7c1.1,0,1.8,0.9,1.8,2.2c0,1.6-1,2.4-2,2.4
			c-0.6,0-1.1-0.2-1.4-0.8l0,0l-0.1,0.7H172c0-0.3,0-0.8,0-1.2L172.1,285.7L172.1,285.7z M173.2,290.3c0,0.1,0,0.2,0,0.3
			c0.1,0.5,0.5,0.8,1,0.8c0.7,0,1.1-0.6,1.1-1.4s-0.4-1.4-1.1-1.4c-0.5,0-0.9,0.3-1,0.8c0,0.1,0,0.2,0,0.3V290.3z"/>
	</g>
	<g>
		<path class="st1" d="M178.4,287.7l0.8,2.4c0.1,0.3,0.2,0.6,0.3,0.8l0,0c0.1-0.2,0.1-0.6,0.2-0.9l0.7-2.3h1.2l-1.1,3
			c-0.6,1.6-1,2.4-1.5,2.8c-0.4,0.4-0.9,0.5-1.2,0.6l-0.3-0.9c0.2,0,0.4-0.1,0.6-0.3c0.2-0.1,0.5-0.4,0.6-0.7c0-0.1,0.1-0.1,0.1-0.2
			c0,0,0-0.1-0.1-0.2l-1.6-4L178.4,287.7L178.4,287.7z"/>
	</g>
	<g>
		<path class="st1" d="M30.5,297.4v1.1h1.1v0.8h-1.1v1.9c0,0.5,0.1,0.8,0.6,0.8c0.2,0,0.3,0,0.4,0v0.8c-0.2,0.1-0.5,0.1-0.8,0.1
			c-0.4,0-0.8-0.1-1-0.4s-0.4-0.7-0.4-1.2v-2.1h-0.6v-0.8h0.6v-0.8L30.5,297.4z"/>
	</g>
	<g>
		<path class="st1" d="M32.8,296.5h1.1v2.6l0,0c0.1-0.2,0.3-0.4,0.6-0.5c0.2-0.1,0.5-0.2,0.8-0.2c0.8,0,1.5,0.5,1.5,1.9v2.6h-1.1
			v-2.5c0-0.6-0.2-1.1-0.8-1.1c-0.4,0-0.7,0.3-0.9,0.6c0,0.1,0,0.2,0,0.3v2.6h-1.1L32.8,296.5L32.8,296.5z"/>
	</g>
	<g>
		<path class="st1" d="M39.1,301.1c0,0.8,0.6,1.1,1.4,1.1c0.5,0,0.9-0.1,1.2-0.2l0.2,0.8c-0.4,0.2-0.9,0.3-1.5,0.3
			c-1.4,0-2.3-0.9-2.3-2.2c0-1.2,0.7-2.4,2.1-2.4c1.4,0,1.9,1.2,1.9,2.1c0,0.2,0,0.4,0,0.5L39.1,301.1L39.1,301.1z M41,300.3
			c0-0.4-0.2-1.1-0.9-1.1s-1,0.6-1,1.1H41z"/>
	</g>
	<g>
		<path class="st1" d="M44.5,297.3c0,0.3-0.2,0.6-0.6,0.6c-0.4,0-0.6-0.3-0.6-0.6c0-0.3,0.3-0.6,0.6-0.6
			C44.3,296.7,44.5,297,44.5,297.3z M43.4,302.9v-4.4h1.1v4.4H43.4z"/>
	</g>
	<g>
		<path class="st1" d="M46,300c0-0.6,0-1,0-1.4h1v0.8l0,0c0.2-0.6,0.7-0.9,1.2-0.9c0.1,0,0.2,0,0.3,0v1c-0.1,0-0.2,0-0.3,0
			c-0.5,0-0.9,0.3-1,0.8c0,0.1,0,0.2,0,0.3v2.3H46V300z"/>
	</g>
	<g>
		<path class="st1" d="M53,297.3c0,0.3-0.2,0.6-0.6,0.6c-0.4,0-0.6-0.3-0.6-0.6c0-0.3,0.3-0.6,0.6-0.6C52.8,296.7,53,297,53,297.3z
			 M51.8,302.9v-4.4H53v4.4H51.8z"/>
	</g>
	<g>
		<path class="st1" d="M54.5,299.9c0-0.5,0-0.9,0-1.3h1l0.1,0.7l0,0c0.2-0.3,0.7-0.8,1.4-0.8c0.8,0,1.6,0.5,1.6,1.9v2.6h-1.1v-2.5
			c0-0.6-0.2-1.1-0.8-1.1c-0.4,0-0.8,0.3-0.9,0.7c0,0.1-0.1,0.2-0.1,0.4v2.6h-1.1v-3.2H54.5z"/>
	</g>
	<g>
		<path class="st1" d="M61.3,297.4v1.1h1.1v0.8h-1.1v1.9c0,0.5,0.1,0.8,0.6,0.8c0.2,0,0.3,0,0.4,0v0.8c-0.2,0.1-0.5,0.1-0.8,0.1
			c-0.4,0-0.8-0.1-1-0.4s-0.4-0.7-0.4-1.2v-2.1h-0.6v-0.8h0.6v-0.8L61.3,297.4z"/>
	</g>
	<g>
		<path class="st1" d="M64.3,301.1c0,0.8,0.6,1.1,1.4,1.1c0.5,0,0.9-0.1,1.2-0.2l0.2,0.8c-0.4,0.2-0.9,0.3-1.5,0.3
			c-1.4,0-2.3-0.9-2.3-2.2c0-1.2,0.7-2.4,2.1-2.4s1.9,1.2,1.9,2.1c0,0.2,0,0.4,0,0.5L64.3,301.1L64.3,301.1z M66.2,300.3
			c0-0.4-0.2-1.1-0.9-1.1c-0.7,0-1,0.6-1,1.1H66.2z"/>
	</g>
	<g>
		<path class="st1" d="M68.5,300c0-0.6,0-1,0-1.4h1v0.8l0,0c0.2-0.6,0.7-0.9,1.2-0.9c0.1,0,0.2,0,0.3,0v1c-0.1,0-0.2,0-0.3,0
			c-0.5,0-0.9,0.3-1,0.8c0,0.1,0,0.2,0,0.3v2.3h-1.1L68.5,300L68.5,300z"/>
	</g>
	<g>
		<path class="st1" d="M72.8,301.1c0,0.8,0.6,1.1,1.4,1.1c0.5,0,0.9-0.1,1.2-0.2l0.2,0.8c-0.4,0.2-0.9,0.3-1.5,0.3
			c-1.4,0-2.3-0.9-2.3-2.2c0-1.2,0.7-2.4,2.1-2.4s1.9,1.2,1.9,2.1c0,0.2,0,0.4,0,0.5L72.8,301.1L72.8,301.1z M74.7,300.3
			c0-0.4-0.2-1.1-0.9-1.1c-0.7,0-1,0.6-1,1.1H74.7z"/>
	</g>
	<g>
		<path class="st1" d="M77,301.9c0.2,0.2,0.7,0.3,1.1,0.3c0.5,0,0.7-0.2,0.7-0.5s-0.2-0.4-0.7-0.6c-0.9-0.3-1.2-0.8-1.2-1.3
			c0-0.8,0.6-1.4,1.7-1.4c0.5,0,0.9,0.1,1.2,0.3l-0.2,0.8c-0.2-0.1-0.5-0.3-0.9-0.3s-0.6,0.2-0.6,0.5s0.2,0.4,0.8,0.6
			c0.8,0.3,1.2,0.7,1.2,1.3c0,0.8-0.6,1.4-1.8,1.4c-0.5,0-1-0.1-1.3-0.3L77,301.9z"/>
	</g>
	<g>
		<path class="st1" d="M82.4,297.4v1.1h1.1v0.8h-1.1v1.9c0,0.5,0.1,0.8,0.6,0.8c0.2,0,0.3,0,0.4,0v0.8c-0.2,0.1-0.5,0.1-0.8,0.1
			c-0.4,0-0.8-0.1-1-0.4s-0.4-0.7-0.4-1.2v-2.1h-0.6v-0.8h0.6v-0.8L82.4,297.4z"/>
	</g>
	<g>
		<path class="st1" d="M84.7,301.9c0.2,0.2,0.7,0.3,1.1,0.3c0.5,0,0.7-0.2,0.7-0.5s-0.2-0.4-0.7-0.6c-0.9-0.3-1.2-0.8-1.2-1.3
			c0-0.8,0.6-1.4,1.7-1.4c0.5,0,0.9,0.1,1.2,0.3l-0.2,0.8c-0.2-0.1-0.5-0.3-0.9-0.3s-0.6,0.2-0.6,0.5s0.2,0.4,0.8,0.6
			c0.8,0.3,1.2,0.7,1.2,1.3c0,0.8-0.6,1.4-1.8,1.4c-0.5,0-1-0.1-1.3-0.3L84.7,301.9z"/>
	</g>
	<g>
		<path class="st1" d="M88.6,302.3c0-0.4,0.3-0.7,0.7-0.7c0.4,0,0.7,0.3,0.7,0.7c0,0.4-0.3,0.7-0.7,0.7S88.6,302.7,88.6,302.3z"/>
	</g>
</g>
<g>
	<g>
		<g>
			<g>
				<g>
					<g>
						<g>
							<path class="st1" d="M35.5,206.6c-0.5,0-1-0.4-1-1v-25.9c0-0.5,0.4-1,1-1s1,0.4,1,1v25.9C36.5,206.2,36.1,206.6,35.5,206.6z"
								/>
						</g>
					</g>
				</g>
			</g>
			<g>
				<g>
					<g>
						<g>
							<path class="st1" d="M43.9,206.6c-0.5,0-1-0.4-1-1v-25.9c0-0.5,0.4-1,1-1s1,0.4,1,1v25.9C44.9,206.2,44.5,206.6,43.9,206.6z"
								/>
						</g>
					</g>
				</g>
			</g>
		</g>
		<g>
			<g>
				<g>
					<g>
						<path class="st0" d="M41.7,180h-4c-9.2,0-16.7-7.5-16.7-16.7v-29.1c0-9.2,7.5-16.7,16.7-16.7h4c9.2,0,16.7,7.5,16.7,16.7v29.1
							C58.5,172.5,51,180,41.7,180z"/>
					</g>
				</g>
			</g>
			<g>
				<g>
					<g>
						<path class="st1" d="M39.7,181c-10.9,0-19.7-8.8-19.7-19.7v-25.1c0-10.9,8.8-19.7,19.7-19.7s19.7,8.8,19.7,19.7v25.1
							C59.4,172.1,50.6,181,39.7,181z M39.7,118.4c-9.8,0-17.8,8-17.8,17.8v25.1c0,9.8,8,17.8,17.8,17.8s17.8-8,17.8-17.8v-25.1
							C57.5,126.4,49.5,118.4,39.7,118.4z"/>
					</g>
				</g>
			</g>
		</g>
		<g>
			<g>
				<g>
					<g>
						<g>
							<path class="st1" d="M40.9,151.6c-4.5,0-6.9-1.9-7-2l0.3-0.4c0,0,2.8,2.2,7.7,1.9c5-0.3,7.4-2.8,7.4-2.9l0.4,0.3
								c-0.1,0.1-2.6,2.7-7.8,3C41.6,151.5,41.2,151.6,40.9,151.6z"/>
						</g>
					</g>
				</g>
			</g>
			<g>
				<g>
					<g>
						<g>
							<path class="st1" d="M39.2,154v-2.7h2v2.7H39.2z M39.6,151.8v1.7h1v-1.7H39.6z"/>
						</g>
					</g>
				</g>
			</g>
			<g>
				<g>
					<g>
						<g>
							<path class="st1" d="M42.2,153.8v-2.7h1.9v2.7H42.2z M42.7,151.6v1.7h0.9v-1.7H42.7z"/>
						</g>
					</g>
				</g>
			</g>
		</g>
		<g>
			<g>
				<g>
					<g>
						<g>
							<path class="st1" d="M40.7,146.7c-6.2,0-11.2-5-11.2-11.2s5-11.2,11.2-11.2s11.2,5,11.2,11.2S46.9,146.7,40.7,146.7z
								 M40.7,126.4c-5.1,0-9.2,4.1-9.2,9.2s4.1,9.2,9.2,9.2s9.2-4.1,9.2-9.2C49.9,130.5,45.8,126.4,40.7,126.4z"/>
						</g>
					</g>
				</g>
			</g>
			<g>
				<g>
					<g>
						<g>
							<path class="st1" d="M40.7,142.2c-3.6,0-6.6-3-6.6-6.6s3-6.6,6.6-6.6s6.6,3,6.6,6.6S44.4,142.2,40.7,142.2z M40.7,129.5
								c-3.4,0-6.1,2.7-6.1,6.1c0,3.4,2.7,6.1,6.1,6.1c3.4,0,6.1-2.7,6.1-6.1S44.1,129.5,40.7,129.5z"/>
						</g>
					</g>
				</g>
			</g>
			<g>
				<g>
					<g>
						<g>
							<path class="st1" d="M40.7,140.5c-2.7,0-4.9-2.2-4.9-4.9s2.2-4.9,4.9-4.9s4.9,2.2,4.9,4.9C45.7,138.3,43.4,140.5,40.7,140.5z
								 M40.7,131.1c-2.5,0-4.5,2-4.5,4.5s2,4.5,4.5,4.5s4.5-2,4.5-4.5S43.2,131.1,40.7,131.1z"/>
						</g>
					</g>
				</g>
			</g>
			<g>
				<g>
					<g>
						<g>
							<circle class="st1" cx="38.5" cy="130.9" r="3.3"/>
						</g>
					</g>
				</g>
			</g>
		</g>
		<g>
			<g>
				<g>
					<g>
						<g>
							<g>
								
									<rect x="26.7" y="169.6" transform="matrix(1 -1.764537e-03 1.764537e-03 1 -0.3341 4.917249e-02)" class="st1" width="2" height="39.5"/>
							</g>
						</g>
					</g>
				</g>
				<g>
					<g>
						<g>
							<g>
								
									<ellipse transform="matrix(0.7099 -0.7043 0.7043 0.7099 -140.0785 80.499)" class="st1" cx="27.7" cy="210.3" rx="1.7" ry="1.7"/>
							</g>
						</g>
					</g>
				</g>
			</g>
			<g>
				<g>
					<g>
						<g>
							<g>
								<path class="st1" d="M16.4,174.3c-0.3,0-0.5-0.1-0.7-0.3c-0.3-0.3-0.3-0.7-0.2-1.1l4.6-10.5c0.2-0.5,0.8-0.7,1.3-0.5
									s0.7,0.8,0.5,1.3l-3.7,8.4l9.1-3.5c0.5-0.2,1.1,0.1,1.3,0.6c0.2,0.5-0.1,1.1-0.6,1.3l-11.3,4.4
									C16.6,174.3,16.5,174.3,16.4,174.3z"/>
							</g>
						</g>
					</g>
				</g>
				<g>
					<g>
						<g>
							<g>
								<circle class="st3" cx="27.5" cy="168.9" r="2.3"/>
							</g>
						</g>
					</g>
				</g>
			</g>
		</g>
		<g>
			<g>
				<g>
					<g>
						<g>
							<g>
								
									<rect x="70.3" y="163.6" transform="matrix(0.9999 -1.274557e-02 1.274557e-02 0.9999 -2.2986 0.9234)" class="st1" width="2" height="34.4"/>
							</g>
						</g>
					</g>
				</g>
				<g>
					<g>
						<g>
							<g>
								
									<ellipse transform="matrix(0.7016 -0.7126 0.7126 0.7016 -120.6446 110.4046)" class="st1" cx="71.5" cy="199.2" rx="1.7" ry="1.7"/>
							</g>
						</g>
					</g>
				</g>
			</g>
			<g>
				<g>
					<g>
						<g>
							<g>
								<path class="st1" d="M60.3,172.1c-0.1,0-0.3,0-0.4-0.1c-0.3-0.1-0.5-0.4-0.6-0.7l-1.9-9.5c-0.1-0.5,0.2-1,0.8-1.2
									c0.5-0.1,1,0.2,1.2,0.8l1.6,8l9.7-6.6c0.4-0.3,1.1-0.2,1.4,0.3c0.3,0.4,0.2,1.1-0.3,1.4L60.9,172
									C60.7,172.1,60.5,172.1,60.3,172.1z"/>
							</g>
						</g>
					</g>
				</g>
				<g>
					<g>
						<g>
							<g>
								
									<ellipse transform="matrix(0.9172 -0.3985 0.3985 0.9172 -59.342 41.9274)" class="st3" cx="71.2" cy="163.7" rx="2.3" ry="2.3"/>
							</g>
						</g>
					</g>
				</g>
			</g>
		</g>
	</g>
	<g>
		<g>
			<g>
				<g>
					<g>
						<g>
							<path class="st1" d="M147.1,168.4c-0.5,0-1-0.4-1-1v-25.9c0-0.5,0.4-1,1-1s1,0.4,1,1v25.9C148.1,168,147.6,168.4,147.1,168.4
								z"/>
						</g>
					</g>
				</g>
			</g>
			<g>
				<g>
					<g>
						<g>
							<path class="st1" d="M155.5,168.4c-0.5,0-1-0.4-1-1v-26.8c0-0.5,0.4-1,1-1s1,0.4,1,1v26.8C156.5,168,156,168.4,155.5,168.4z"
								/>
						</g>
					</g>
				</g>
			</g>
			<g>
				<g>
					<g>
						<g>
							<path class="st0" d="M154.1,141.8h-4c-9.2,0-16.7-7.5-16.7-16.7V95.9c0-9.2,7.5-16.7,16.7-16.7h4c9.2,0,16.7,7.5,16.7,16.7
								V125C170.8,134.3,163.3,141.8,154.1,141.8z"/>
						</g>
					</g>
				</g>
				<g>
					<g>
						<g>
							<path class="st1" d="M152,142.8c-10.9,0-19.7-8.8-19.7-19.7V98c0-10.9,8.8-19.7,19.7-19.7s19.7,8.8,19.7,19.7v25
								C171.8,133.9,162.9,142.8,152,142.8z M152,80.2c-9.8,0-17.8,8-17.8,17.8v25c0,9.8,8,17.8,17.8,17.8s17.8-8,17.8-17.8V98
								C169.8,88.2,161.8,80.2,152,80.2z"/>
						</g>
					</g>
				</g>
			</g>
			<g>
				<g>
					<g>
						<g>
							<g>
								<path class="st1" d="M149.6,108.5c-6.2,0-11.2-5-11.2-11.2s5-11.2,11.2-11.2s11.2,5,11.2,11.2S155.7,108.5,149.6,108.5z
									 M149.6,88.2c-5.1,0-9.2,4.1-9.2,9.2s4.1,9.2,9.2,9.2s9.2-4.1,9.2-9.2C158.8,92.3,154.7,88.2,149.6,88.2z"/>
							</g>
						</g>
					</g>
				</g>
				<g>
					<g>
						<g>
							<g>
								<path class="st1" d="M149.6,104c-3.6,0-6.6-3-6.6-6.6s3-6.6,6.6-6.6s6.6,3,6.6,6.6C156.2,101,153.2,104,149.6,104z
									 M149.6,91.2c-3.4,0-6.1,2.7-6.1,6.1s2.7,6.1,6.1,6.1s6.1-2.7,6.1-6.1C155.7,94,153,91.2,149.6,91.2z"/>
							</g>
						</g>
					</g>
				</g>
				<g>
					<g>
						<g>
							<g>
								<path class="st1" d="M149.6,102.3c-2.7,0-4.9-2.2-4.9-4.9c0-2.7,2.2-4.9,4.9-4.9s4.9,2.2,4.9,4.9
									C154.5,100.1,152.3,102.3,149.6,102.3z M149.6,92.9c-2.5,0-4.5,2-4.5,4.5s2,4.5,4.5,4.5s4.5-2,4.5-4.5
									C154,94.9,152.1,92.9,149.6,92.9z"/>
							</g>
						</g>
					</g>
				</g>
				<g>
					<g>
						<g>
							<g>
								<circle class="st1" cx="147.4" cy="92.7" r="3.3"/>
							</g>
						</g>
					</g>
				</g>
			</g>
			<g>
				<g>
					<g>
						<g>
							<path class="st1" d="M148.4,115.1c-0.1,0-0.3,0-0.4,0c-3.6-0.2-5.4-2.7-5.5-2.8l0.4-0.3c0,0,1.7,2.4,5.1,2.6
								c3.4,0.2,5.3-2.1,5.3-2.1l0.4,0.3C153.7,112.9,151.9,115.1,148.4,115.1z"/>
						</g>
					</g>
				</g>
			</g>
			<g>
				<g>
					<g>
						<g>
							<circle class="st1" cx="153.6" cy="110.2" r="0.9"/>
						</g>
					</g>
				</g>
			</g>
		</g>
		<g>
			<g>
				<g>
					<g>
						<g>
							<path class="st1" d="M180.4,179.7c-0.5,0-1-0.4-1-1v-25.9c0-0.5,0.4-1,1-1s1,0.4,1,1v25.9
								C181.4,179.2,180.9,179.7,180.4,179.7z"/>
						</g>
					</g>
				</g>
			</g>
			<g>
				<g>
					<g>
						<g>
							<path class="st1" d="M188.8,179.7c-0.5,0-1-0.4-1-1v-26.8c0-0.5,0.4-1,1-1s1,0.4,1,1v26.8
								C189.8,179.2,189.3,179.7,188.8,179.7z"/>
						</g>
					</g>
				</g>
			</g>
			<g>
				<g>
					<g>
						<g>
							<path class="st0" d="M187.3,153h-4c-9.2,0-16.7-7.5-16.7-16.7v-29.1c0-9.2,7.5-16.7,16.7-16.7h4c9.2,0,16.7,7.5,16.7,16.7
								v29.1C204.1,145.6,196.6,153,187.3,153z"/>
						</g>
					</g>
				</g>
				<g>
					<g>
						<g>
							<path class="st1" d="M185.3,154c-10.9,0-19.7-8.8-19.7-19.7v-25.1c0-10.9,8.8-19.7,19.7-19.7s19.7,8.8,19.7,19.7v25.1
								C205,145.2,196.2,154,185.3,154z M185.3,91.5c-9.8,0-17.8,8-17.8,17.8v25.1c0,9.8,8,17.8,17.8,17.8s17.8-8,17.8-17.8v-25.1
								C203.1,99.4,195.1,91.5,185.3,91.5z"/>
						</g>
					</g>
				</g>
			</g>
			<g>
				<g>
					<g>
						<g>
							<g>
								<path class="st1" d="M182.9,119.8c-6.2,0-11.2-5-11.2-11.2s5-11.2,11.2-11.2s11.2,5,11.2,11.2
									C194,114.8,189,119.8,182.9,119.8z M182.9,99.4c-5.1,0-9.2,4.1-9.2,9.2s4.1,9.2,9.2,9.2s9.2-4.1,9.2-9.2
									C192.1,103.6,188,99.4,182.9,99.4z"/>
							</g>
						</g>
					</g>
				</g>
				<g>
					<g>
						<g>
							<g>
								<path class="st1" d="M182.9,115.2c-3.6,0-6.6-3-6.6-6.6s3-6.6,6.6-6.6s6.6,3,6.6,6.6C189.5,112.3,186.5,115.2,182.9,115.2z
									 M182.9,102.5c-3.4,0-6.1,2.7-6.1,6.1s2.7,6.1,6.1,6.1c3.4,0,6.1-2.7,6.1-6.1C189,105.3,186.3,102.5,182.9,102.5z"/>
							</g>
						</g>
					</g>
				</g>
				<g>
					<g>
						<g>
							<g>
								<path class="st1" d="M182.9,113.6c-2.7,0-4.9-2.2-4.9-4.9c0-2.7,2.2-4.9,4.9-4.9s4.9,2.2,4.9,4.9
									C187.8,111.4,185.6,113.6,182.9,113.6z M182.9,104.2c-2.5,0-4.5,2-4.5,4.5s2,4.5,4.5,4.5s4.5-2,4.5-4.5
									C187.3,106.2,185.3,104.2,182.9,104.2z"/>
							</g>
						</g>
					</g>
				</g>
				<g>
					<g>
						<g>
							<g>
								<circle class="st1" cx="180.7" cy="103.9" r="3.3"/>
							</g>
						</g>
					</g>
				</g>
			</g>
			<g>
				<g>
					<g>
						<g>
							<path class="st1" d="M181.7,126.3c-0.1,0-0.3,0-0.4,0c-3.6-0.2-5.4-2.7-5.5-2.8l0.4-0.3c0,0,1.7,2.4,5.1,2.6
								c3.4,0.2,5.3-2.1,5.3-2.1l0.4,0.3C187,124.2,185.1,126.3,181.7,126.3z"/>
						</g>
					</g>
				</g>
			</g>
			<g>
				<g>
					<g>
						<g>
							
								<rect x="181.1" y="120.2" transform="matrix(2.750584e-02 -0.9996 0.9996 2.750584e-02 53.5088 300.8675)" class="st1" width="0.5" height="5.4"/>
						</g>
					</g>
				</g>
			</g>
			<g>
				<g>
					<g>
						<path class="st1" d="M204.1,153.5c-0.6,0-1-0.4-1-1v-20.2c0-0.6,0.4-1,1-1s1,0.4,1,1v20.2
							C205.1,153.1,204.6,153.5,204.1,153.5z"/>
					</g>
				</g>
				<g>
					<g>
						<g>
							<g>
								<g>
									<circle class="st3" cx="204.1" cy="153.1" r="2.2"/>
								</g>
							</g>
						</g>
					</g>
				</g>
			</g>
		</g>
		<g>
			<g>
				<g>
					<g>
						<g>
							<path class="st1" d="M114,193.3c-0.5,0-1-0.4-1-1v-25.9c0-0.5,0.4-1,1-1s1,0.4,1,1v25.9C115,192.9,114.6,193.3,114,193.3z"/>
						</g>
					</g>
				</g>
			</g>
			<g>
				<g>
					<g>
						<g>
							<path class="st1" d="M122.4,193.3c-0.5,0-1-0.4-1-1v-26.8c0-0.5,0.4-1,1-1s1,0.4,1,1v26.8C123.4,192.9,123,193.3,122.4,193.3
								z"/>
						</g>
					</g>
				</g>
			</g>
			<g>
				<g>
					<g>
						<g>
							<path class="st0" d="M121,166.7h-4c-9.2,0-16.7-7.5-16.7-16.7v-29.1c0-9.2,7.5-16.7,16.7-16.7h4c9.2,0,16.7,7.5,16.7,16.7
								V150C137.7,159.2,130.2,166.7,121,166.7z"/>
						</g>
					</g>
				</g>
				<g>
					<g>
						<g>
							<path class="st1" d="M119,167.7c-10.9,0-19.7-8.8-19.7-19.7v-25.1c0-10.9,8.8-19.7,19.7-19.7s19.7,8.8,19.7,19.7V148
								C138.7,158.9,129.9,167.7,119,167.7z M119,105.1c-9.8,0-17.8,8-17.8,17.8V148c0,9.8,8,17.8,17.8,17.8s17.8-8,17.8-17.8v-25.1
								C136.8,113.1,128.8,105.1,119,105.1z"/>
						</g>
					</g>
				</g>
			</g>
			<g>
				<g>
					<g>
						<g>
							<g>
								<path class="st1" d="M116.5,133.5c-6.2,0-11.2-5-11.2-11.2s5-11.2,11.2-11.2s11.2,5,11.2,11.2S122.7,133.5,116.5,133.5z
									 M116.5,113.1c-5.1,0-9.2,4.1-9.2,9.2s4.1,9.2,9.2,9.2s9.2-4.1,9.2-9.2S121.6,113.1,116.5,113.1z"/>
							</g>
						</g>
					</g>
				</g>
				<g>
					<g>
						<g>
							<g>
								<path class="st1" d="M116.5,128.9c-3.6,0-6.6-3-6.6-6.6s3-6.6,6.6-6.6s6.6,3,6.6,6.6C123.2,126,120.2,128.9,116.5,128.9z
									 M116.5,116.2c-3.4,0-6.1,2.7-6.1,6.1s2.7,6.1,6.1,6.1s6.1-2.7,6.1-6.1C122.7,118.9,119.9,116.2,116.5,116.2z"/>
							</g>
						</g>
					</g>
				</g>
				<g>
					<g>
						<g>
							<g>
								<path class="st1" d="M116.5,127.3c-2.7,0-4.9-2.2-4.9-4.9c0-2.7,2.2-4.9,4.9-4.9c2.7,0,4.9,2.2,4.9,4.9
									C121.5,125,119.3,127.3,116.5,127.3z M116.5,117.9c-2.5,0-4.5,2-4.5,4.5s2,4.5,4.5,4.5s4.5-2,4.5-4.5S119,117.9,116.5,117.9
									z"/>
							</g>
						</g>
					</g>
				</g>
				<g>
					<g>
						<g>
							<g>
								<circle class="st1" cx="114.3" cy="117.6" r="3.3"/>
							</g>
						</g>
					</g>
				</g>
			</g>
			<g>
				<g>
					<g>
						<g>
							<path class="st1" d="M115.4,140c-0.1,0-0.3,0-0.4,0c-3.6-0.2-5.4-2.7-5.5-2.8l0.4-0.3c0,0,1.7,2.4,5.1,2.6
								c3.4,0.2,5.3-2.1,5.3-2.1l0.4,0.3C120.6,137.9,118.8,140,115.4,140z"/>
						</g>
					</g>
				</g>
			</g>
			<g>
				<g>
					<g>
						<g>
							<path class="st1" d="M117,144.4c-0.9,0-1.7-0.8-1.7-1.8v-2.8h0.5v2.8c0,0.7,0.5,1.3,1.2,1.3s1.2-0.6,1.2-1.3v-3.5h0.5v3.5
								C118.7,143.6,117.9,144.4,117,144.4z"/>
						</g>
					</g>
				</g>
			</g>
			<g>
				<g>
					<g>
						<path class="st1" d="M137.7,166.7c-0.6,0-1-0.4-1-1v-20.2c0-0.6,0.4-1,1-1s1,0.4,1,1v20.2
							C138.7,166.2,138.3,166.7,137.7,166.7z"/>
					</g>
				</g>
				<g>
					<g>
						<g>
							<g>
								<g>
									<circle class="st3" cx="137.7" cy="166.3" r="2.2"/>
								</g>
							</g>
						</g>
					</g>
				</g>
			</g>
			<g>
				<g>
					<g>
						<path class="st1" d="M100.2,166.7c-0.6,0-1-0.4-1-1v-20.2c0-0.6,0.4-1,1-1s1,0.4,1,1v20.2
							C101.2,166.2,100.8,166.7,100.2,166.7z"/>
					</g>
				</g>
				<g>
					<g>
						<g>
							<g>
								<g>
									<circle class="st3" cx="100.2" cy="166.3" r="2.2"/>
								</g>
							</g>
						</g>
					</g>
				</g>
			</g>
		</g>
		<g>
			<g>
				<g>
					<g>
						<g>
							<path class="st1" d="M158.4,216.9c-0.5,0-1-0.4-1-1V190c0-0.5,0.4-1,1-1s1,0.4,1,1v25.9C159.4,216.5,159,216.9,158.4,216.9z"
								/>
						</g>
					</g>
				</g>
			</g>
			<g>
				<g>
					<g>
						<g>
							<path class="st1" d="M166.8,216.9c-0.5,0-1-0.4-1-1v-26.8c0-0.5,0.4-1,1-1s1,0.4,1,1v26.8
								C167.8,216.5,167.4,216.9,166.8,216.9z"/>
						</g>
					</g>
				</g>
			</g>
			<g>
				<g>
					<g>
						<g>
							<path class="st0" d="M165.4,190.3h-4c-9.2,0-16.7-7.5-16.7-16.7v-29.1c0-9.2,7.5-16.7,16.7-16.7h4c9.2,0,16.7,7.5,16.7,16.7
								v29.1C182.1,182.8,174.6,190.3,165.4,190.3z"/>
						</g>
					</g>
				</g>
				<g>
					<g>
						<g>
							<path class="st1" d="M163.4,191.3c-10.9,0-19.7-8.8-19.7-19.7v-25.1c0-10.9,8.8-19.7,19.7-19.7s19.7,8.8,19.7,19.7v25.1
								C183.1,182.4,174.2,191.3,163.4,191.3z M163.4,128.7c-9.8,0-17.8,8-17.8,17.8v25.1c0,9.8,8,17.8,17.8,17.8s17.8-8,17.8-17.8
								v-25.1C181.1,136.7,173.2,128.7,163.4,128.7z"/>
						</g>
					</g>
				</g>
			</g>
			<g>
				<g>
					<g>
						<g>
							<g>
								<path class="st1" d="M160.9,157c-6.2,0-11.2-5-11.2-11.2s5-11.2,11.2-11.2s11.2,5,11.2,11.2C172.1,152,167.1,157,160.9,157z
									 M160.9,136.7c-5.1,0-9.2,4.1-9.2,9.2c0,5.1,4.1,9.2,9.2,9.2c5.1,0,9.2-4.1,9.2-9.2C170.1,140.8,166,136.7,160.9,136.7z"/>
							</g>
						</g>
					</g>
				</g>
				<g>
					<g>
						<g>
							<g>
								<path class="st1" d="M160.9,152.5c-3.6,0-6.6-3-6.6-6.6s3-6.6,6.6-6.6s6.6,3,6.6,6.6S164.6,152.5,160.9,152.5z M160.9,139.7
									c-3.4,0-6.1,2.7-6.1,6.1c0,3.4,2.7,6.1,6.1,6.1c3.4,0,6.1-2.7,6.1-6.1C167,142.5,164.3,139.7,160.9,139.7z"/>
							</g>
						</g>
					</g>
				</g>
				<g>
					<g>
						<g>
							<g>
								<path class="st1" d="M160.9,150.8c-2.7,0-4.9-2.2-4.9-4.9s2.2-4.9,4.9-4.9s4.9,2.2,4.9,4.9
									C165.9,148.6,163.7,150.8,160.9,150.8z M160.9,141.4c-2.5,0-4.5,2-4.5,4.5s2,4.5,4.5,4.5s4.5-2,4.5-4.5
									S163.4,141.4,160.9,141.4z"/>
							</g>
						</g>
					</g>
				</g>
				<g>
					<g>
						<g>
							<g>
								<circle class="st1" cx="158.7" cy="141.2" r="3.3"/>
							</g>
						</g>
					</g>
				</g>
			</g>
			<g>
				<g>
					<g>
						<g>
							<path class="st1" d="M159.8,163.6c-0.1,0-0.3,0-0.4,0c-3.6-0.2-5.4-2.7-5.5-2.8l0.4-0.3c0,0,1.7,2.4,5.1,2.6
								c3.4,0.2,5.3-2.1,5.3-2.1l0.4,0.3C165,161.4,163.2,163.6,159.8,163.6z"/>
						</g>
					</g>
				</g>
			</g>
			<g>
				<g>
					<g>
						<g>
							<path class="st1" d="M159.2,167.2c-1.7,0-3.1-1.4-3.1-3.1v-1c0-1.7,1.4-3.1,3.1-3.1c1.7,0,3.1,1.4,3.1,3.1v1
								C162.2,165.8,160.9,167.2,159.2,167.2z M159.2,160.5c-1.4,0-2.6,1.2-2.6,2.6v1c0,1.4,1.2,2.6,2.6,2.6c1.4,0,2.6-1.2,2.6-2.6
								v-1C161.8,161.6,160.6,160.5,159.2,160.5z"/>
						</g>
					</g>
				</g>
			</g>
			<g>
				<g>
					<g>
						<path class="st1" d="M144.6,191.7c-0.6,0-1-0.4-1-1v-20.2c0-0.6,0.4-1,1-1s1,0.4,1,1v20.2
							C145.6,191.3,145.2,191.7,144.6,191.7z"/>
					</g>
				</g>
				<g>
					<g>
						<g>
							<g>
								<g>
									<circle class="st3" cx="144.6" cy="191.3" r="2.2"/>
								</g>
							</g>
						</g>
					</g>
				</g>
			</g>
			<g>
				<g>
					<g>
						<path class="st1" d="M182.1,191.7c-0.6,0-1-0.4-1-1v-20.2c0-0.6,0.4-1,1-1s1,0.4,1,1v20.2
							C183.1,191.3,182.7,191.7,182.1,191.7z"/>
					</g>
				</g>
				<g>
					<g>
						<g>
							<g>
								<g>
									<circle class="st3" cx="182.1" cy="191.3" r="2.2"/>
								</g>
							</g>
						</g>
					</g>
				</g>
			</g>
		</g>
	</g>
	<g>
		<g>
			<g>
				<g>
					<g>
						<path class="st1" d="M100.6,40.8c0.8,0.4,2.1,0.8,3.4,0.8c1.2,0,1.8-0.4,1.8-1.1c0-0.6-0.6-1-2.1-1.5c-2.2-0.8-3.7-2-3.7-3.9
							c0-2.3,2-4.1,5.2-4.1c1.5,0,2.7,0.3,3.5,0.7l-0.7,2.8c-0.6-0.3-1.5-0.6-2.8-0.6c-1.1,0-1.6,0.4-1.6,1c0,0.7,0.7,0.9,2.3,1.5
							c2.3,0.9,3.4,2.1,3.4,3.9c0,2.2-1.7,4.2-5.6,4.2c-1.6,0-3.1-0.4-3.8-0.8L100.6,40.8z"/>
					</g>
				</g>
			</g>
			<g>
				<g>
					<g>
						<path class="st1" d="M114.5,38.6L114.5,38.6c0.3-0.4,0.4-0.8,0.7-1.2l1.6-2.7h4.2l-3.3,3.8l3.8,5.7h-4.3l-1.9-3.6l-0.7,0.9
							v2.7H111V30.5h3.5V38.6z"/>
					</g>
				</g>
			</g>
			<g>
				<g>
					<g>
						<path class="st1" d="M125.8,32.1c0,0.9-0.7,1.6-1.8,1.6c-1.1,0-1.8-0.7-1.8-1.6c0-1,0.7-1.7,1.8-1.7
							C125.1,30.5,125.8,31.2,125.8,32.1z M122.2,44.3v-9.5h3.5v9.5H122.2z"/>
					</g>
				</g>
			</g>
			<g>
				<g>
					<g>
						<path class="st1" d="M131.4,32.1c0,0.9-0.7,1.6-1.8,1.6s-1.8-0.7-1.8-1.6c0-1,0.7-1.7,1.8-1.7
							C130.7,30.5,131.4,31.2,131.4,32.1z M127.9,44.3v-9.5h3.5v9.5H127.9z"/>
					</g>
				</g>
			</g>
			<g>
				<g>
					<g>
						<path class="st1" d="M133.6,38c0-1.3,0-2.4-0.1-3.3h3l0.2,1.2h0.1c0.3-0.5,1.3-1.4,2.9-1.4c2.2,0,3.4,1.5,3.4,4.1v5.6h-3.5V39
							c0-1.1-0.4-1.7-1.2-1.7c-0.7,0-1,0.5-1.1,0.8c-0.1,0.2-0.1,0.4-0.1,0.7v5.4h-3.5L133.6,38L133.6,38z"/>
					</g>
				</g>
			</g>
			<g>
				<g>
					<g>
						<path class="st1" d="M154.5,42.9c0,1.7-0.3,3.3-1.5,4.3c-1.1,0.9-2.5,1.2-4,1.2c-1.3,0-2.7-0.3-3.5-0.7l0.7-2.6
							c0.6,0.3,1.7,0.7,2.7,0.7c1.2,0,2.2-0.7,2.2-2.1v-0.4l0,0c-0.6,0.7-1.4,1.1-2.4,1.1c-2.3,0-4-1.9-4-4.6c0-3,1.9-5,4.3-5
							c1.2,0,2,0.4,2.5,1.2l0,0l0.1-1h3c0,0.6-0.1,1.4-0.1,2.9V42.9z M151.1,38.7c0-0.2,0-0.3,0-0.4c-0.2-0.7-0.6-1.1-1.2-1.1
							c-0.8,0-1.5,0.8-1.5,2.3c0,1.2,0.6,2.1,1.5,2.1c0.6,0,1.1-0.4,1.2-0.9c0.1-0.2,0.1-0.5,0.1-0.7v-1.3H151.1z"/>
					</g>
				</g>
			</g>
		</g>
		<g>
			<g>
				<g>
					<g>
						<path class="st1" d="M171.7,48.3l-0.6-0.5c-0.1-0.1-2.4-1.9-4.8-4.4c-3.3-3.5-4.9-6.4-4.9-8.8v-0.9l0,0
							c0.4-2.9,2.8-5.2,5.8-5.2c1.7,0,3.3,0.7,4.4,1.9c1.1-1.2,2.7-1.9,4.4-1.9c3,0,5.5,2.3,5.8,5.2l0,0v0.5c0,0.1,0,0.2,0,0.2v0.1
							v0.1c0,2.4-1.7,5.3-4.9,8.8c-2.3,2.5-4.7,4.3-4.8,4.4L171.7,48.3z M163.4,35.2c0.5,3.6,5.7,8.5,8.3,10.7
							c2.7-2.2,8-7.3,8.3-10.9v-0.6c0-2.2-1.8-4-4-4c-1.5,0-2.8,0.8-3.5,2.1l-0.8,1.6l-0.8-1.6c-0.7-1.3-2-2.1-3.5-2.1
							c-2.2,0-4,1.8-4,4V35.2z"/>
					</g>
				</g>
			</g>
		</g>
		<g>
			<g>
				<g>
					<g>
						<path class="st2" d="M97.2,82.6c-0.3,0-0.6-0.1-0.8-0.3c-4.5-4.5-6.9-11.3-6.8-19.6c0-4.8,0.9-8.8,1.2-10.4
							c-4.6-3.8-7.2-9.3-7.2-15.3c0-11,8.9-19.9,19.9-19.9h72.1c11,0,19.9,8.9,19.9,19.9s-8.9,19.9-19.9,19.9h-68.1
							c-10.6,4.1-9.2,24.2-9.2,24.4c0,0.5-0.2,1-0.7,1.2C97.6,82.5,97.4,82.6,97.2,82.6z M93.3,52.1C93.2,52.5,89,67.9,96,78
							c0-2.1,0.2-5,0.7-8.1c1.5-8.2,5-13.5,10.3-15.3c0.1,0,0.3-0.1,0.4-0.1h68.3c9.7,0,17.5-7.9,17.5-17.5
							c0-9.7-7.9-17.5-17.5-17.5h-72.1C93.9,19.4,86,27.3,86,37c0,5.5,2.5,10.6,6.9,13.9C93.2,51.2,93.4,51.7,93.3,52.1z"/>
					</g>
				</g>
			</g>
		</g>
	</g>
</g>
</svg>
