<?xml version="1.0" encoding="utf-8"?>
<!-- Generator: Adobe Illustrator 19.2.1, SVG Export Plug-In . SVG Version: 6.00 Build 0)  -->
<svg version="1.1" id="Layer_1" xmlns="http://www.w3.org/2000/svg" xmlns:xlink="http://www.w3.org/1999/xlink" x="0px" y="0px"
	 viewBox="0 0 220.9 331.7" enable-background="new 0 0 220.9 331.7" xml:space="preserve">
<g>
	<g>
		<rect x="0" y="0" fill="#7E5EA2" width="220.9" height="331.7"/>
	</g>
</g>
<g>
	<g>
		<path fill="#FFFFFF" d="M206.1,263.8H14.7c-0.6,0-1-0.4-1-1s0.4-1,1-1h191.4c0.6,0,1,0.4,1,1S206.7,263.8,206.1,263.8z"/>
	</g>
</g>
<g>
	<g>
		<path fill="#FFFFFF" d="M27.4,278.1c0,2-1.2,3.1-2.8,3.1c-1.7,0-2.7-1.3-2.7-3c0-1.8,1.2-3.1,2.8-3.1
			C26.4,275,27.4,276.4,27.4,278.1z M23,278.1c0,1.2,0.6,2.2,1.6,2.2c1,0,1.6-1,1.6-2.2c0-1.1-0.6-2.2-1.6-2.2
			C23.6,275.9,23,276.9,23,278.1z"/>
	</g>
	<g>
		<path fill="#FFFFFF" d="M28.7,278.2c0-0.6,0-1,0-1.4h0.9l0,0.8h0c0.2-0.6,0.7-0.9,1.2-0.9c0.1,0,0.2,0,0.3,0v1c-0.1,0-0.2,0-0.3,0
			c-0.5,0-0.9,0.3-1,0.8c0,0.1,0,0.2,0,0.3v2.2h-1.1V278.2z"/>
	</g>
	<g>
		<path fill="#FFFFFF" d="M36,280.5c0,0.9-0.2,1.5-0.6,1.9c-0.4,0.4-1.1,0.5-1.7,0.5c-0.5,0-1.1-0.1-1.5-0.3l0.2-0.8
			c0.3,0.2,0.7,0.3,1.3,0.3c0.7,0,1.2-0.4,1.2-1.3v-0.4h0c-0.2,0.4-0.7,0.6-1.2,0.6c-1.1,0-1.8-0.9-1.8-2.1c0-1.4,0.9-2.3,1.9-2.3
			c0.7,0,1,0.3,1.2,0.7h0l0-0.6H36c0,0.3,0,0.6,0,1.2V280.5z M34.9,278.5c0-0.1,0-0.2,0-0.3c-0.1-0.4-0.4-0.7-0.9-0.7
			c-0.6,0-1.1,0.5-1.1,1.4c0,0.7,0.4,1.3,1,1.3c0.4,0,0.8-0.3,0.9-0.7c0-0.1,0-0.3,0-0.4V278.5z"/>
	</g>
	<g>
		<path fill="#FFFFFF" d="M40.9,280.1c0,0.4,0,0.8,0.1,1h-1l-0.1-0.5h0c-0.3,0.3-0.7,0.6-1.3,0.6c-0.9,0-1.3-0.6-1.3-1.3
			c0-1.1,1-1.6,2.5-1.6v-0.1c0-0.3-0.1-0.7-0.9-0.7c-0.4,0-0.9,0.1-1.2,0.3l-0.2-0.7c0.3-0.2,0.9-0.4,1.5-0.4c1.4,0,1.8,0.9,1.8,1.8
			V280.1z M39.8,279c-0.8,0-1.5,0.2-1.5,0.8c0,0.4,0.3,0.6,0.6,0.6c0.4,0,0.7-0.3,0.9-0.6c0-0.1,0-0.2,0-0.2V279z"/>
	</g>
	<g>
		<path fill="#FFFFFF" d="M42.3,278.1c0-0.5,0-0.9,0-1.3h0.9l0.1,0.6h0c0.2-0.3,0.7-0.7,1.4-0.7c0.7,0,1.5,0.5,1.5,1.8v2.5h-1.1
			v-2.4c0-0.6-0.2-1.1-0.8-1.1c-0.4,0-0.7,0.3-0.8,0.6c0,0.1-0.1,0.2-0.1,0.3v2.5h-1.1V278.1z"/>
	</g>
	<g>
		<path fill="#FFFFFF" d="M48.9,275.6c0,0.3-0.2,0.6-0.6,0.6c-0.4,0-0.6-0.3-0.6-0.6c0-0.3,0.2-0.6,0.6-0.6
			C48.7,275,48.9,275.3,48.9,275.6z M47.7,281.1v-4.3h1.1v4.3H47.7z"/>
	</g>
	<g>
		<path fill="#FFFFFF" d="M49.9,280.5l1.6-2.1c0.2-0.3,0.4-0.5,0.6-0.7v0h-2.1v-0.9h3.4v0.7l-1.6,2c-0.2,0.3-0.4,0.5-0.6,0.7v0h2.3
			v0.9h-3.6V280.5z"/>
	</g>
	<g>
		<path fill="#FFFFFF" d="M55.8,275.6c0,0.3-0.2,0.6-0.6,0.6c-0.4,0-0.6-0.3-0.6-0.6c0-0.3,0.2-0.6,0.6-0.6
			C55.6,275,55.8,275.3,55.8,275.6z M54.7,281.1v-4.3h1.1v4.3H54.7z"/>
	</g>
	<g>
		<path fill="#FFFFFF" d="M57.3,278.1c0-0.5,0-0.9,0-1.3h0.9l0.1,0.6h0c0.2-0.3,0.7-0.7,1.4-0.7c0.7,0,1.5,0.5,1.5,1.8v2.5h-1.1
			v-2.4c0-0.6-0.2-1.1-0.8-1.1c-0.4,0-0.7,0.3-0.8,0.6c0,0.1-0.1,0.2-0.1,0.3v2.5h-1.1V278.1z"/>
	</g>
	<g>
		<path fill="#FFFFFF" d="M66.5,280.5c0,0.9-0.2,1.5-0.6,1.9c-0.4,0.4-1.1,0.5-1.7,0.5c-0.5,0-1.1-0.1-1.5-0.3l0.2-0.8
			c0.3,0.2,0.7,0.3,1.3,0.3c0.7,0,1.2-0.4,1.2-1.3v-0.4h0c-0.2,0.4-0.7,0.6-1.2,0.6c-1.1,0-1.8-0.9-1.8-2.1c0-1.4,0.9-2.3,1.9-2.3
			c0.7,0,1,0.3,1.2,0.7h0l0-0.6h0.9c0,0.3,0,0.6,0,1.2V280.5z M65.4,278.5c0-0.1,0-0.2,0-0.3c-0.1-0.4-0.4-0.7-0.9-0.7
			c-0.6,0-1.1,0.5-1.1,1.4c0,0.7,0.4,1.3,1,1.3c0.4,0,0.8-0.3,0.9-0.7c0-0.1,0-0.3,0-0.4V278.5z"/>
	</g>
	<g>
		<path fill="#FFFFFF" d="M70.2,274.8h1.1v2.5h0c0.1-0.2,0.3-0.4,0.5-0.5c0.2-0.1,0.5-0.2,0.7-0.2c0.7,0,1.5,0.5,1.5,1.9v2.5H73
			v-2.4c0-0.6-0.2-1.1-0.8-1.1c-0.4,0-0.7,0.3-0.8,0.6c0,0.1,0,0.2,0,0.3v2.6h-1.1V274.8z"/>
	</g>
	<g>
		<path fill="#FFFFFF" d="M78.9,280.1c0,0.4,0,0.8,0.1,1h-1l-0.1-0.5h0c-0.3,0.3-0.7,0.6-1.3,0.6c-0.9,0-1.3-0.6-1.3-1.3
			c0-1.1,1-1.6,2.5-1.6v-0.1c0-0.3-0.1-0.7-0.9-0.7c-0.4,0-0.9,0.1-1.2,0.3l-0.2-0.7c0.3-0.2,0.9-0.4,1.5-0.4c1.4,0,1.8,0.9,1.8,1.8
			V280.1z M77.9,279c-0.8,0-1.5,0.2-1.5,0.8c0,0.4,0.3,0.6,0.6,0.6c0.4,0,0.7-0.3,0.9-0.6c0-0.1,0-0.2,0-0.2V279z"/>
	</g>
	<g>
		<path fill="#FFFFFF" d="M80.4,278.1c0-0.5,0-0.9,0-1.3h0.9l0.1,0.6h0c0.2-0.3,0.7-0.7,1.4-0.7c0.7,0,1.5,0.5,1.5,1.8v2.5h-1.1
			v-2.4c0-0.6-0.2-1.1-0.8-1.1c-0.4,0-0.7,0.3-0.8,0.6c0,0.1-0.1,0.2-0.1,0.3v2.5h-1.1V278.1z"/>
	</g>
	<g>
		<path fill="#FFFFFF" d="M89.7,280.5c0,0.9-0.2,1.5-0.6,1.9c-0.4,0.4-1.1,0.5-1.7,0.5c-0.5,0-1.1-0.1-1.5-0.3l0.2-0.8
			c0.3,0.2,0.7,0.3,1.2,0.3c0.7,0,1.2-0.4,1.2-1.3v-0.4h0c-0.2,0.4-0.7,0.6-1.2,0.6c-1.1,0-1.8-0.9-1.8-2.1c0-1.4,0.9-2.3,1.9-2.3
			c0.7,0,1,0.3,1.2,0.7h0l0-0.6h0.9c0,0.3,0,0.6,0,1.2V280.5z M88.6,278.5c0-0.1,0-0.2,0-0.3c-0.1-0.4-0.4-0.7-0.9-0.7
			c-0.6,0-1.1,0.5-1.1,1.4c0,0.7,0.4,1.3,1,1.3c0.4,0,0.8-0.3,0.9-0.7c0-0.1,0-0.3,0-0.4V278.5z"/>
	</g>
	<g>
		<path fill="#FFFFFF" d="M95.3,278.9c0,1.6-1.1,2.3-2.2,2.3c-1.2,0-2.1-0.8-2.1-2.2c0-1.4,0.9-2.3,2.2-2.3
			C94.4,276.7,95.3,277.6,95.3,278.9z M92.1,278.9c0,0.8,0.4,1.5,1.1,1.5c0.6,0,1-0.6,1-1.5c0-0.7-0.3-1.4-1-1.4
			C92.4,277.5,92.1,278.2,92.1,278.9z"/>
	</g>
	<g>
		<path fill="#FFFFFF" d="M100.4,279.8c0,0.5,0,0.9,0,1.3h-0.9l-0.1-0.6h0c-0.2,0.3-0.6,0.7-1.4,0.7c-0.8,0-1.5-0.5-1.5-1.9v-2.5
			h1.1v2.3c0,0.7,0.2,1.2,0.8,1.2c0.4,0,0.7-0.3,0.8-0.6c0-0.1,0.1-0.2,0.1-0.3v-2.6h1.1V279.8z"/>
	</g>
	<g>
		<path fill="#FFFFFF" d="M103.1,275.7v1.1h1v0.8h-1v1.9c0,0.5,0.1,0.8,0.6,0.8c0.2,0,0.3,0,0.4,0l0,0.8c-0.2,0.1-0.4,0.1-0.8,0.1
			c-0.4,0-0.7-0.1-0.9-0.4c-0.2-0.2-0.3-0.6-0.3-1.2v-2h-0.6v-0.8h0.6V276L103.1,275.7z"/>
	</g>
	<g>
		<path fill="#FFFFFF" d="M105.3,280.1c0.2,0.1,0.7,0.3,1.1,0.3c0.5,0,0.7-0.2,0.7-0.5c0-0.3-0.2-0.4-0.7-0.6
			c-0.8-0.3-1.2-0.7-1.2-1.2c0-0.8,0.6-1.3,1.6-1.3c0.5,0,0.9,0.1,1.1,0.3l-0.2,0.8c-0.2-0.1-0.5-0.2-0.9-0.2
			c-0.4,0-0.6,0.2-0.6,0.5c0,0.3,0.2,0.4,0.7,0.6c0.8,0.3,1.1,0.7,1.1,1.3c0,0.8-0.6,1.3-1.7,1.3c-0.5,0-1-0.1-1.3-0.3L105.3,280.1z
			"/>
	</g>
	<g>
		<path fill="#FFFFFF" d="M112.7,275.6c0,0.3-0.2,0.6-0.6,0.6c-0.4,0-0.6-0.3-0.6-0.6c0-0.3,0.2-0.6,0.6-0.6
			C112.4,275,112.7,275.3,112.7,275.6z M111.5,281.1v-4.3h1.1v4.3H111.5z"/>
	</g>
	<g>
		<path fill="#FFFFFF" d="M114.1,280.1c0.2,0.1,0.7,0.3,1.1,0.3c0.5,0,0.7-0.2,0.7-0.5c0-0.3-0.2-0.4-0.7-0.6
			c-0.8-0.3-1.2-0.7-1.2-1.2c0-0.8,0.6-1.3,1.6-1.3c0.5,0,0.9,0.1,1.1,0.3l-0.2,0.8c-0.2-0.1-0.5-0.2-0.9-0.2
			c-0.4,0-0.6,0.2-0.6,0.5c0,0.3,0.2,0.4,0.7,0.6c0.8,0.3,1.1,0.7,1.1,1.3c0,0.8-0.6,1.3-1.7,1.3c-0.5,0-1-0.1-1.3-0.3L114.1,280.1z
			"/>
	</g>
	<g>
		<path fill="#FFFFFF" d="M121,276.8l0.7,2.2c0.1,0.4,0.2,0.7,0.3,1.1h0c0.1-0.4,0.2-0.7,0.3-1.1l0.7-2.2h1.1l-1.6,4.3h-1.1
			l-1.6-4.3H121z"/>
	</g>
	<g>
		<path fill="#FFFFFF" d="M125.8,279.2c0,0.8,0.6,1.1,1.3,1.1c0.5,0,0.9-0.1,1.2-0.2l0.2,0.7c-0.4,0.2-0.9,0.3-1.5,0.3
			c-1.4,0-2.2-0.9-2.2-2.2c0-1.2,0.7-2.3,2.1-2.3c1.4,0,1.8,1.1,1.8,2.1c0,0.2,0,0.4,0,0.5H125.8z M127.7,278.5c0-0.4-0.2-1-0.9-1
			c-0.7,0-1,0.6-1,1H127.7z"/>
	</g>
	<g>
		<path fill="#FFFFFF" d="M129.9,278.2c0-0.6,0-1,0-1.4h0.9l0,0.8h0c0.2-0.6,0.7-0.9,1.2-0.9c0.1,0,0.2,0,0.3,0v1
			c-0.1,0-0.2,0-0.3,0c-0.5,0-0.9,0.3-1,0.8c0,0.1,0,0.2,0,0.3v2.2h-1.1V278.2z"/>
	</g>
	<g>
		<path fill="#FFFFFF" d="M134.3,276.8l0.8,2.3c0.1,0.3,0.2,0.6,0.2,0.8h0c0.1-0.2,0.1-0.6,0.2-0.8l0.7-2.3h1.2l-1.1,2.9
			c-0.6,1.6-1,2.3-1.5,2.8c-0.4,0.4-0.9,0.5-1.1,0.5l-0.2-0.9c0.2,0,0.4-0.1,0.6-0.3c0.2-0.1,0.4-0.4,0.6-0.7c0-0.1,0.1-0.1,0.1-0.2
			c0,0,0-0.1-0.1-0.2l-1.6-3.9H134.3z"/>
	</g>
	<g>
		<path fill="#FFFFFF" d="M140.7,281.1v-3.5h-0.6v-0.8h0.6v-0.2c0-0.6,0.2-1.1,0.5-1.5c0.3-0.3,0.7-0.4,1.1-0.4
			c0.3,0,0.5,0.1,0.7,0.1l-0.1,0.8c-0.1,0-0.3-0.1-0.5-0.1c-0.5,0-0.7,0.4-0.7,1v0.2h0.9v0.8h-0.9v3.5H140.7z"/>
	</g>
	<g>
		<path fill="#FFFFFF" d="M143.7,278.2c0-0.6,0-1,0-1.4h0.9l0,0.8h0c0.2-0.6,0.7-0.9,1.2-0.9c0.1,0,0.2,0,0.3,0v1
			c-0.1,0-0.2,0-0.3,0c-0.5,0-0.9,0.3-1,0.8c0,0.1,0,0.2,0,0.3v2.2h-1.1V278.2z"/>
	</g>
	<g>
		<path fill="#FFFFFF" d="M151,279.8c0,0.5,0,0.9,0,1.3h-0.9l-0.1-0.6h0c-0.2,0.3-0.6,0.7-1.4,0.7c-0.8,0-1.5-0.5-1.5-1.9v-2.5h1.1
			v2.3c0,0.7,0.2,1.2,0.8,1.2c0.4,0,0.7-0.3,0.8-0.6c0-0.1,0.1-0.2,0.1-0.3v-2.6h1.1V279.8z"/>
	</g>
	<g>
		<path fill="#FFFFFF" d="M152.5,280.1c0.2,0.1,0.7,0.3,1.1,0.3c0.5,0,0.7-0.2,0.7-0.5c0-0.3-0.2-0.4-0.7-0.6
			c-0.8-0.3-1.2-0.7-1.2-1.2c0-0.8,0.6-1.3,1.6-1.3c0.5,0,0.9,0.1,1.1,0.3l-0.2,0.8c-0.2-0.1-0.5-0.2-0.9-0.2
			c-0.4,0-0.6,0.2-0.6,0.5c0,0.3,0.2,0.4,0.7,0.6c0.8,0.3,1.1,0.7,1.1,1.3c0,0.8-0.6,1.3-1.7,1.3c-0.5,0-1-0.1-1.3-0.3L152.5,280.1z
			"/>
	</g>
	<g>
		<path fill="#FFFFFF" d="M157.8,275.7v1.1h1v0.8h-1v1.9c0,0.5,0.1,0.8,0.6,0.8c0.2,0,0.3,0,0.4,0l0,0.8c-0.2,0.1-0.4,0.1-0.8,0.1
			c-0.4,0-0.7-0.1-0.9-0.4c-0.2-0.2-0.3-0.6-0.3-1.2v-2h-0.6v-0.8h0.6V276L157.8,275.7z"/>
	</g>
	<g>
		<path fill="#FFFFFF" d="M160,278.2c0-0.6,0-1,0-1.4h0.9l0,0.8h0c0.2-0.6,0.7-0.9,1.2-0.9c0.1,0,0.2,0,0.3,0v1c-0.1,0-0.2,0-0.3,0
			c-0.5,0-0.9,0.3-1,0.8c0,0.1,0,0.2,0,0.3v2.2H160V278.2z"/>
	</g>
	<g>
		<path fill="#FFFFFF" d="M166.8,280.1c0,0.4,0,0.8,0.1,1h-1l-0.1-0.5h0c-0.3,0.3-0.7,0.6-1.3,0.6c-0.9,0-1.3-0.6-1.3-1.3
			c0-1.1,1-1.6,2.5-1.6v-0.1c0-0.3-0.1-0.7-0.9-0.7c-0.4,0-0.9,0.1-1.2,0.3l-0.2-0.7c0.3-0.2,0.9-0.4,1.5-0.4c1.4,0,1.8,0.9,1.8,1.8
			V280.1z M165.7,279c-0.8,0-1.5,0.2-1.5,0.8c0,0.4,0.3,0.6,0.6,0.6c0.4,0,0.7-0.3,0.9-0.6c0-0.1,0-0.2,0-0.2V279z"/>
	</g>
	<g>
		<path fill="#FFFFFF" d="M169.4,275.7v1.1h1v0.8h-1v1.9c0,0.5,0.1,0.8,0.6,0.8c0.2,0,0.3,0,0.4,0l0,0.8c-0.2,0.1-0.4,0.1-0.8,0.1
			c-0.4,0-0.7-0.1-0.9-0.4c-0.2-0.2-0.3-0.6-0.3-1.2v-2h-0.6v-0.8h0.6V276L169.4,275.7z"/>
	</g>
	<g>
		<path fill="#FFFFFF" d="M172.8,275.6c0,0.3-0.2,0.6-0.6,0.6c-0.4,0-0.6-0.3-0.6-0.6c0-0.3,0.2-0.6,0.6-0.6
			C172.6,275,172.8,275.3,172.8,275.6z M171.6,281.1v-4.3h1.1v4.3H171.6z"/>
	</g>
	<g>
		<path fill="#FFFFFF" d="M174.2,278.1c0-0.5,0-0.9,0-1.3h0.9l0.1,0.6h0c0.2-0.3,0.7-0.7,1.4-0.7c0.7,0,1.5,0.5,1.5,1.8v2.5H177
			v-2.4c0-0.6-0.2-1.1-0.8-1.1c-0.4,0-0.7,0.3-0.8,0.6c0,0.1-0.1,0.2-0.1,0.3v2.5h-1.1V278.1z"/>
	</g>
	<g>
		<path fill="#FFFFFF" d="M183.5,280.5c0,0.9-0.2,1.5-0.6,1.9c-0.4,0.4-1.1,0.5-1.7,0.5c-0.5,0-1.1-0.1-1.5-0.3l0.2-0.8
			c0.3,0.2,0.7,0.3,1.2,0.3c0.7,0,1.2-0.4,1.2-1.3v-0.4h0c-0.2,0.4-0.7,0.6-1.2,0.6c-1.1,0-1.8-0.9-1.8-2.1c0-1.4,0.9-2.3,1.9-2.3
			c0.7,0,1,0.3,1.2,0.7h0l0-0.6h0.9c0,0.3,0,0.6,0,1.2V280.5z M182.4,278.5c0-0.1,0-0.2,0-0.3c-0.1-0.4-0.4-0.7-0.9-0.7
			c-0.6,0-1.1,0.5-1.1,1.4c0,0.7,0.4,1.3,1,1.3c0.4,0,0.8-0.3,0.9-0.7c0-0.1,0-0.3,0-0.4V278.5z"/>
	</g>
	<g>
		<path fill="#FFFFFF" d="M22.3,291.6v-3.5h-0.6v-0.8h0.6v-0.2c0-0.6,0.1-1.1,0.5-1.5c0.3-0.3,0.7-0.4,1.1-0.4
			c0.3,0,0.5,0.1,0.7,0.1l-0.1,0.8c-0.1,0-0.3-0.1-0.5-0.1c-0.5,0-0.7,0.4-0.7,1v0.2h0.9v0.8h-0.9v3.5H22.3z"/>
	</g>
	<g>
		<path fill="#FFFFFF" d="M29.3,289.5c0,1.6-1.1,2.3-2.2,2.3c-1.2,0-2.1-0.8-2.1-2.2c0-1.4,0.9-2.3,2.2-2.3
			C28.4,287.3,29.3,288.2,29.3,289.5z M26,289.5c0,0.8,0.4,1.5,1.1,1.5c0.6,0,1-0.6,1-1.5c0-0.7-0.3-1.4-1-1.4
			C26.4,288,26,288.8,26,289.5z"/>
	</g>
	<g>
		<path fill="#FFFFFF" d="M30.5,288.7c0-0.6,0-1,0-1.4h0.9l0,0.8h0c0.2-0.6,0.7-0.9,1.2-0.9c0.1,0,0.2,0,0.3,0v1c-0.1,0-0.2,0-0.3,0
			c-0.5,0-0.9,0.3-1,0.8c0,0.1,0,0.2,0,0.3v2.2h-1.1V288.7z"/>
	</g>
	<g>
		<path fill="#FFFFFF" d="M36.2,285.4h1.1v2.5h0c0.1-0.2,0.3-0.4,0.5-0.5c0.2-0.1,0.5-0.2,0.7-0.2c0.7,0,1.5,0.5,1.5,1.9v2.5H39
			v-2.4c0-0.6-0.2-1.1-0.8-1.1c-0.4,0-0.7,0.3-0.8,0.6c0,0.1,0,0.2,0,0.3v2.6h-1.1V285.4z"/>
	</g>
	<g>
		<path fill="#FFFFFF" d="M42.7,286.2c0,0.3-0.2,0.6-0.6,0.6c-0.4,0-0.6-0.3-0.6-0.6c0-0.3,0.2-0.6,0.6-0.6
			C42.5,285.6,42.7,285.8,42.7,286.2z M41.6,291.6v-4.3h1.1v4.3H41.6z"/>
	</g>
	<g>
		<path fill="#FFFFFF" d="M44.2,288.6c0-0.5,0-0.9,0-1.3h0.9l0.1,0.6h0c0.2-0.3,0.6-0.7,1.3-0.7c0.6,0,1,0.3,1.2,0.8h0
			c0.1-0.2,0.3-0.4,0.5-0.5c0.2-0.2,0.5-0.3,0.9-0.3c0.7,0,1.4,0.5,1.4,1.9v2.5h-1.1v-2.4c0-0.7-0.2-1.1-0.8-1.1
			c-0.4,0-0.6,0.3-0.8,0.6c0,0.1-0.1,0.2-0.1,0.4v2.6h-1.1v-2.5c0-0.6-0.2-1-0.7-1c-0.4,0-0.7,0.3-0.8,0.6c0,0.1-0.1,0.2-0.1,0.4
			v2.5h-1.1V288.6z"/>
	</g>
	<g>
		<path fill="#FFFFFF" d="M51.9,291c0-0.4,0.3-0.7,0.7-0.7c0.4,0,0.7,0.3,0.7,0.7c0,0.4-0.3,0.7-0.7,0.7
			C52.1,291.7,51.9,291.4,51.9,291z"/>
	</g>
	<g>
		<path fill="#FFFFFF" d="M57.4,286.6h-1.7v-0.9h4.5v0.9h-1.7v5h-1.1V286.6z"/>
	</g>
	<g>
		<path fill="#FFFFFF" d="M64.6,289.5c0,1.6-1.1,2.3-2.2,2.3c-1.2,0-2.1-0.8-2.1-2.2c0-1.4,0.9-2.3,2.2-2.3
			C63.8,287.3,64.6,288.2,64.6,289.5z M61.4,289.5c0,0.8,0.4,1.5,1.1,1.5c0.6,0,1-0.6,1-1.5c0-0.7-0.3-1.4-1-1.4
			C61.7,288,61.4,288.8,61.4,289.5z"/>
	</g>
	<g>
		<path fill="#FFFFFF" d="M68.1,291.6v-3.5h-0.6v-0.8h0.6v-0.2c0-1.2,0.8-1.9,2.1-1.9c0.4,0,0.9,0.1,1.2,0.3l-0.2,0.8
			c-0.2-0.1-0.5-0.2-0.9-0.2c-0.7,0-1,0.5-1,1v0.2h2.6v4.3h-1.1v-3.5h-1.5v3.5H68.1z"/>
	</g>
	<g>
		<path fill="#FFFFFF" d="M73.3,288.6c0-0.5,0-0.9,0-1.3h0.9l0.1,0.6h0c0.2-0.3,0.7-0.7,1.4-0.7c0.7,0,1.5,0.5,1.5,1.8v2.5h-1.1
			v-2.4c0-0.6-0.2-1.1-0.8-1.1c-0.4,0-0.7,0.3-0.8,0.6c0,0.1-0.1,0.2-0.1,0.3v2.5h-1.1V288.6z"/>
	</g>
	<g>
		<path fill="#FFFFFF" d="M82.6,285.4v5c0,0.4,0,0.9,0,1.2h-1l-0.1-0.7h0c-0.3,0.5-0.8,0.8-1.4,0.8c-1,0-1.8-0.9-1.8-2.2
			c0-1.4,0.9-2.3,1.9-2.3c0.6,0,1,0.2,1.2,0.6h0v-2.4H82.6z M81.6,289.1c0-0.1,0-0.2,0-0.3c-0.1-0.4-0.4-0.8-0.9-0.8
			c-0.7,0-1.1,0.6-1.1,1.4c0,0.8,0.4,1.4,1.1,1.4c0.4,0,0.8-0.3,0.9-0.8c0-0.1,0-0.2,0-0.3V289.1z"/>
	</g>
	<g>
		<path fill="#FFFFFF" d="M90.4,289.5c0,1.6-1.1,2.3-2.2,2.3c-1.2,0-2.1-0.8-2.1-2.2c0-1.4,0.9-2.3,2.2-2.3
			C89.6,287.3,90.4,288.2,90.4,289.5z M87.2,289.5c0,0.8,0.4,1.5,1.1,1.5c0.6,0,1-0.6,1-1.5c0-0.7-0.3-1.4-1-1.4
			C87.5,288,87.2,288.8,87.2,289.5z"/>
	</g>
	<g>
		<path fill="#FFFFFF" d="M95.5,290.4c0,0.5,0,0.9,0,1.3h-0.9l-0.1-0.6h0c-0.2,0.3-0.6,0.7-1.4,0.7c-0.8,0-1.5-0.5-1.5-1.9v-2.5h1.1
			v2.3c0,0.7,0.2,1.2,0.8,1.2c0.4,0,0.7-0.3,0.8-0.6c0-0.1,0.1-0.2,0.1-0.3v-2.6h1.1V290.4z"/>
	</g>
	<g>
		<path fill="#FFFFFF" d="M98.2,286.3v1.1h1v0.8h-1v1.9c0,0.5,0.1,0.8,0.6,0.8c0.2,0,0.3,0,0.4,0l0,0.8c-0.2,0.1-0.4,0.1-0.8,0.1
			c-0.4,0-0.7-0.1-0.9-0.4c-0.2-0.2-0.3-0.6-0.3-1.2v-2h-0.6v-0.8h0.6v-0.8L98.2,286.3z"/>
	</g>
	<g>
		<path fill="#FFFFFF" d="M103.3,287.4l0.4,1.9c0.1,0.5,0.2,0.9,0.3,1.4h0c0.1-0.5,0.2-0.9,0.3-1.4l0.6-2h0.9l0.5,1.9
			c0.1,0.5,0.2,1,0.3,1.4h0c0.1-0.5,0.2-0.9,0.3-1.4l0.5-1.9h1.1l-1.3,4.3h-1l-0.5-1.7c-0.1-0.4-0.2-0.9-0.3-1.4h0
			c-0.1,0.5-0.2,1-0.3,1.4l-0.5,1.7h-1l-1.3-4.3H103.3z"/>
	</g>
	<g>
		<path fill="#FFFFFF" d="M109.6,285.4h1.1v2.5h0c0.1-0.2,0.3-0.4,0.5-0.5c0.2-0.1,0.5-0.2,0.7-0.2c0.7,0,1.5,0.5,1.5,1.9v2.5h-1.1
			v-2.4c0-0.6-0.2-1.1-0.8-1.1c-0.4,0-0.7,0.3-0.8,0.6c0,0.1,0,0.2,0,0.3v2.6h-1.1V285.4z"/>
	</g>
	<g>
		<path fill="#FFFFFF" d="M119,289.5c0,1.6-1.1,2.3-2.2,2.3c-1.2,0-2.1-0.8-2.1-2.2c0-1.4,0.9-2.3,2.2-2.3
			C118.2,287.3,119,288.2,119,289.5z M115.8,289.5c0,0.8,0.4,1.5,1.1,1.5c0.6,0,1-0.6,1-1.5c0-0.7-0.3-1.4-1-1.4
			C116.1,288,115.8,288.8,115.8,289.5z"/>
	</g>
	<g>
		<path fill="#FFFFFF" d="M123.1,287.4l0.4,1.9c0.1,0.5,0.2,0.9,0.3,1.4h0c0.1-0.5,0.2-0.9,0.3-1.4l0.6-2h0.9l0.5,1.9
			c0.1,0.5,0.2,1,0.3,1.4h0c0.1-0.5,0.2-0.9,0.3-1.4l0.5-1.9h1.1l-1.3,4.3h-1l-0.5-1.7c-0.1-0.4-0.2-0.9-0.3-1.4h0
			c-0.1,0.5-0.2,1-0.3,1.4l-0.5,1.7h-1l-1.3-4.3H123.1z"/>
	</g>
	<g>
		<path fill="#FFFFFF" d="M133.4,289.5c0,1.6-1.1,2.3-2.2,2.3c-1.2,0-2.1-0.8-2.1-2.2c0-1.4,0.9-2.3,2.2-2.3
			C132.5,287.3,133.4,288.2,133.4,289.5z M130.1,289.5c0,0.8,0.4,1.5,1.1,1.5c0.6,0,1-0.6,1-1.5c0-0.7-0.3-1.4-1-1.4
			C130.4,288,130.1,288.8,130.1,289.5z"/>
	</g>
	<g>
		<path fill="#FFFFFF" d="M138.4,290.4c0,0.5,0,0.9,0,1.3h-0.9l-0.1-0.6h0c-0.2,0.3-0.6,0.7-1.4,0.7c-0.8,0-1.5-0.5-1.5-1.9v-2.5
			h1.1v2.3c0,0.7,0.2,1.2,0.8,1.2c0.4,0,0.7-0.3,0.8-0.6c0-0.1,0.1-0.2,0.1-0.3v-2.6h1.1V290.4z"/>
	</g>
	<g>
		<path fill="#FFFFFF" d="M140,285.4h1.1v6.3H140V285.4z"/>
	</g>
	<g>
		<path fill="#FFFFFF" d="M146.5,285.4v5c0,0.4,0,0.9,0,1.2h-1l-0.1-0.7h0c-0.3,0.5-0.8,0.8-1.4,0.8c-1,0-1.8-0.9-1.8-2.2
			c0-1.4,0.9-2.3,1.9-2.3c0.6,0,1,0.2,1.2,0.6h0v-2.4H146.5z M145.4,289.1c0-0.1,0-0.2,0-0.3c-0.1-0.4-0.4-0.8-0.9-0.8
			c-0.7,0-1.1,0.6-1.1,1.4c0,0.8,0.4,1.4,1.1,1.4c0.4,0,0.8-0.3,0.9-0.8c0-0.1,0-0.2,0-0.3V289.1z"/>
	</g>
	<g>
		<path fill="#FFFFFF" d="M150.2,285.4h1.1v2.6h0c0.3-0.4,0.7-0.7,1.4-0.7c1,0,1.8,0.9,1.8,2.2c0,1.5-1,2.3-1.9,2.3
			c-0.6,0-1-0.2-1.4-0.7h0l-0.1,0.6h-0.9c0-0.3,0-0.8,0-1.2V285.4z M151.3,289.9c0,0.1,0,0.2,0,0.3c0.1,0.4,0.5,0.8,1,0.8
			c0.7,0,1.1-0.5,1.1-1.4c0-0.8-0.4-1.4-1.1-1.4c-0.4,0-0.8,0.3-1,0.8c0,0.1,0,0.2,0,0.3V289.9z"/>
	</g>
	<g>
		<path fill="#FFFFFF" d="M156.5,289.8c0,0.8,0.6,1.1,1.3,1.1c0.5,0,0.9-0.1,1.2-0.2l0.2,0.7c-0.4,0.2-0.9,0.3-1.5,0.3
			c-1.4,0-2.2-0.9-2.2-2.2c0-1.2,0.7-2.3,2.1-2.3c1.4,0,1.8,1.1,1.8,2.1c0,0.2,0,0.4,0,0.5H156.5z M158.4,289c0-0.4-0.2-1-0.9-1
			c-0.7,0-1,0.6-1,1H158.4z"/>
	</g>
	<g>
		<path fill="#FFFFFF" d="M23.3,296.7c0,0.3-0.2,0.6-0.6,0.6c-0.4,0-0.6-0.3-0.6-0.6c0-0.3,0.2-0.6,0.6-0.6
			C23.1,296.1,23.3,296.4,23.3,296.7z M22.1,302.2v-4.3h1.1v4.3H22.1z"/>
	</g>
	<g>
		<path fill="#FFFFFF" d="M24.7,299.2c0-0.5,0-0.9,0-1.3h0.9l0.1,0.6h0c0.2-0.3,0.7-0.7,1.4-0.7c0.7,0,1.5,0.5,1.5,1.8v2.5h-1.1
			v-2.4c0-0.6-0.2-1.1-0.8-1.1c-0.4,0-0.7,0.3-0.8,0.6c0,0.1-0.1,0.2-0.1,0.3v2.5h-1.1V299.2z"/>
	</g>
	<g>
		<path fill="#FFFFFF" d="M31.3,296.8v1.1h1v0.8h-1v1.9c0,0.5,0.1,0.8,0.6,0.8c0.2,0,0.3,0,0.4,0l0,0.8c-0.2,0.1-0.4,0.1-0.8,0.1
			c-0.4,0-0.7-0.1-0.9-0.4c-0.2-0.2-0.3-0.6-0.3-1.2v-2h-0.6v-0.8h0.6v-0.8L31.3,296.8z"/>
	</g>
	<g>
		<path fill="#FFFFFF" d="M34.2,300.4c0,0.8,0.6,1.1,1.3,1.1c0.5,0,0.9-0.1,1.2-0.2l0.2,0.7c-0.4,0.2-0.9,0.3-1.5,0.3
			c-1.4,0-2.2-0.9-2.2-2.2c0-1.2,0.7-2.3,2.1-2.3c1.4,0,1.8,1.1,1.8,2.1c0,0.2,0,0.4,0,0.5H34.2z M36.1,299.6c0-0.4-0.2-1-0.9-1
			c-0.7,0-1,0.6-1,1H36.1z"/>
	</g>
	<g>
		<path fill="#FFFFFF" d="M38.4,299.3c0-0.6,0-1,0-1.4h0.9l0,0.8h0c0.2-0.6,0.7-0.9,1.2-0.9c0.1,0,0.2,0,0.3,0v1c-0.1,0-0.2,0-0.3,0
			c-0.5,0-0.9,0.3-1,0.8c0,0.1,0,0.2,0,0.3v2.2h-1.1V299.3z"/>
	</g>
	<g>
		<path fill="#FFFFFF" d="M42.5,300.4c0,0.8,0.6,1.1,1.3,1.1c0.5,0,0.9-0.1,1.2-0.2l0.2,0.7c-0.4,0.2-0.9,0.3-1.5,0.3
			c-1.4,0-2.2-0.9-2.2-2.2c0-1.2,0.7-2.3,2.1-2.3c1.4,0,1.8,1.1,1.8,2.1c0,0.2,0,0.4,0,0.5H42.5z M44.4,299.6c0-0.4-0.2-1-0.9-1
			c-0.7,0-1,0.6-1,1H44.4z"/>
	</g>
	<g>
		<path fill="#FFFFFF" d="M46.6,301.2c0.2,0.1,0.7,0.3,1.1,0.3c0.5,0,0.7-0.2,0.7-0.5c0-0.3-0.2-0.4-0.7-0.6
			c-0.8-0.3-1.2-0.7-1.2-1.2c0-0.8,0.6-1.3,1.6-1.3c0.5,0,0.9,0.1,1.1,0.3l-0.2,0.8c-0.2-0.1-0.5-0.2-0.9-0.2
			c-0.4,0-0.6,0.2-0.6,0.5c0,0.3,0.2,0.4,0.7,0.6c0.8,0.3,1.1,0.7,1.1,1.3c0,0.8-0.6,1.3-1.7,1.3c-0.5,0-1-0.1-1.3-0.3L46.6,301.2z"
			/>
	</g>
	<g>
		<path fill="#FFFFFF" d="M51.9,296.8v1.1h1v0.8h-1v1.9c0,0.5,0.1,0.8,0.6,0.8c0.2,0,0.3,0,0.4,0l0,0.8c-0.2,0.1-0.4,0.1-0.8,0.1
			c-0.4,0-0.7-0.1-0.9-0.4c-0.2-0.2-0.3-0.6-0.3-1.2v-2h-0.6v-0.8h0.6v-0.8L51.9,296.8z"/>
	</g>
	<g>
		<path fill="#FFFFFF" d="M54.8,300.4c0,0.8,0.6,1.1,1.3,1.1c0.5,0,0.9-0.1,1.2-0.2l0.2,0.7c-0.4,0.2-0.9,0.3-1.5,0.3
			c-1.4,0-2.2-0.9-2.2-2.2c0-1.2,0.7-2.3,2.1-2.3c1.4,0,1.8,1.1,1.8,2.1c0,0.2,0,0.4,0,0.5H54.8z M56.7,299.6c0-0.4-0.2-1-0.9-1
			c-0.7,0-1,0.6-1,1H56.7z"/>
	</g>
	<g>
		<path fill="#FFFFFF" d="M62.9,296v5c0,0.4,0,0.9,0,1.2h-1l-0.1-0.7h0c-0.3,0.5-0.8,0.8-1.4,0.8c-1,0-1.8-0.9-1.8-2.2
			c0-1.4,0.9-2.3,1.9-2.3c0.6,0,1,0.2,1.2,0.6h0V296H62.9z M61.8,299.7c0-0.1,0-0.2,0-0.3c-0.1-0.4-0.4-0.8-0.9-0.8
			c-0.7,0-1.1,0.6-1.1,1.4c0,0.8,0.4,1.4,1.1,1.4c0.4,0,0.8-0.3,0.9-0.8c0-0.1,0-0.2,0-0.3V299.7z"/>
	</g>
	<g>
		<path fill="#FFFFFF" d="M63.8,303.3c0.2-0.7,0.5-1.6,0.6-2.3l1.1-0.1c-0.3,0.8-0.6,1.8-1,2.3L63.8,303.3z"/>
	</g>
	<g>
		<path fill="#FFFFFF" d="M69,296H70v2.5h0c0.1-0.2,0.3-0.4,0.5-0.5c0.2-0.1,0.5-0.2,0.7-0.2c0.7,0,1.5,0.5,1.5,1.9v2.5h-1.1v-2.4
			c0-0.6-0.2-1.1-0.8-1.1c-0.4,0-0.7,0.3-0.8,0.6c0,0.1,0,0.2,0,0.3v2.6H69V296z"/>
	</g>
	<g>
		<path fill="#FFFFFF" d="M75.1,300.4c0,0.8,0.6,1.1,1.3,1.1c0.5,0,0.9-0.1,1.2-0.2l0.2,0.7c-0.4,0.2-0.9,0.3-1.5,0.3
			c-1.4,0-2.2-0.9-2.2-2.2c0-1.2,0.7-2.3,2.1-2.3c1.4,0,1.8,1.1,1.8,2.1c0,0.2,0,0.4,0,0.5H75.1z M77,299.6c0-0.4-0.2-1-0.9-1
			c-0.7,0-1,0.6-1,1H77z"/>
	</g>
	<g>
		<path fill="#FFFFFF" d="M81.4,296h1.1v2.5h0c0.1-0.2,0.3-0.4,0.5-0.5c0.2-0.1,0.5-0.2,0.7-0.2c0.7,0,1.5,0.5,1.5,1.9v2.5h-1.1
			v-2.4c0-0.6-0.2-1.1-0.8-1.1c-0.4,0-0.7,0.3-0.8,0.6c0,0.1,0,0.2,0,0.3v2.6h-1.1V296z"/>
	</g>
	<g>
		<path fill="#FFFFFF" d="M90.1,301.2c0,0.4,0,0.8,0.1,1h-1l-0.1-0.5h0c-0.3,0.3-0.7,0.6-1.3,0.6c-0.9,0-1.3-0.6-1.3-1.3
			c0-1.1,1-1.6,2.5-1.6v-0.1c0-0.3-0.1-0.7-0.9-0.7c-0.4,0-0.9,0.1-1.2,0.3l-0.2-0.7c0.3-0.2,0.9-0.4,1.5-0.4c1.4,0,1.8,0.9,1.8,1.8
			V301.2z M89.1,300.1c-0.8,0-1.5,0.2-1.5,0.8c0,0.4,0.3,0.6,0.6,0.6c0.4,0,0.7-0.3,0.9-0.6c0-0.1,0-0.2,0-0.2V300.1z"/>
	</g>
	<g>
		<path fill="#FFFFFF" d="M91.6,301.2c0.2,0.1,0.7,0.3,1.1,0.3c0.5,0,0.7-0.2,0.7-0.5c0-0.3-0.2-0.4-0.7-0.6
			c-0.8-0.3-1.2-0.7-1.2-1.2c0-0.8,0.6-1.3,1.6-1.3c0.5,0,0.9,0.1,1.1,0.3l-0.2,0.8c-0.2-0.1-0.5-0.2-0.9-0.2
			c-0.4,0-0.6,0.2-0.6,0.5c0,0.3,0.2,0.4,0.7,0.6c0.8,0.3,1.1,0.7,1.1,1.3c0,0.8-0.6,1.3-1.7,1.3c-0.5,0-1-0.1-1.3-0.3L91.6,301.2z"
			/>
	</g>
	<g>
		<path fill="#FFFFFF" d="M99.1,296.8v1.1h1v0.8h-1v1.9c0,0.5,0.1,0.8,0.6,0.8c0.2,0,0.3,0,0.4,0l0,0.8c-0.2,0.1-0.4,0.1-0.8,0.1
			c-0.4,0-0.7-0.1-0.9-0.4c-0.2-0.2-0.3-0.6-0.3-1.2v-2h-0.6v-0.8H98v-0.8L99.1,296.8z"/>
	</g>
	<g>
		<path fill="#FFFFFF" d="M105.3,300c0,1.6-1.1,2.3-2.2,2.3c-1.2,0-2.1-0.8-2.1-2.2c0-1.4,0.9-2.3,2.2-2.3
			C104.4,297.8,105.3,298.7,105.3,300z M102.1,300.1c0,0.8,0.4,1.5,1.1,1.5c0.6,0,1-0.6,1-1.5c0-0.7-0.3-1.4-1-1.4
			C102.4,298.6,102.1,299.4,102.1,300.1z"/>
	</g>
	<g>
		<path fill="#FFFFFF" d="M109.9,296.7c0,0.3-0.2,0.6-0.6,0.6c-0.4,0-0.6-0.3-0.6-0.6c0-0.3,0.2-0.6,0.6-0.6
			C109.6,296.1,109.9,296.4,109.9,296.7z M108.7,302.2v-4.3h1.1v4.3H108.7z"/>
	</g>
	<g>
		<path fill="#FFFFFF" d="M111.3,299.2c0-0.5,0-0.9,0-1.3h0.9l0.1,0.6h0c0.2-0.3,0.7-0.7,1.4-0.7c0.7,0,1.5,0.5,1.5,1.8v2.5h-1.1
			v-2.4c0-0.6-0.2-1.1-0.8-1.1c-0.4,0-0.7,0.3-0.8,0.6c0,0.1-0.1,0.2-0.1,0.3v2.5h-1.1V299.2z"/>
	</g>
	<g>
		<path fill="#FFFFFF" d="M117.2,297.9l0.7,2.2c0.1,0.4,0.2,0.7,0.3,1.1h0c0.1-0.4,0.2-0.7,0.3-1.1l0.7-2.2h1.1l-1.6,4.3h-1.1
			l-1.6-4.3H117.2z"/>
	</g>
	<g>
		<path fill="#FFFFFF" d="M122.5,296.7c0,0.3-0.2,0.6-0.6,0.6c-0.4,0-0.6-0.3-0.6-0.6c0-0.3,0.2-0.6,0.6-0.6
			C122.3,296.1,122.5,296.4,122.5,296.7z M121.4,302.2v-4.3h1.1v4.3H121.4z"/>
	</g>
	<g>
		<path fill="#FFFFFF" d="M125.2,296.8v1.1h1v0.8h-1v1.9c0,0.5,0.1,0.8,0.6,0.8c0.2,0,0.3,0,0.4,0l0,0.8c-0.2,0.1-0.4,0.1-0.8,0.1
			c-0.4,0-0.7-0.1-0.9-0.4c-0.2-0.2-0.3-0.6-0.3-1.2v-2h-0.6v-0.8h0.6v-0.8L125.2,296.8z"/>
	</g>
	<g>
		<path fill="#FFFFFF" d="M128.1,300.4c0,0.8,0.6,1.1,1.3,1.1c0.5,0,0.9-0.1,1.2-0.2l0.2,0.7c-0.4,0.2-0.9,0.3-1.5,0.3
			c-1.4,0-2.2-0.9-2.2-2.2c0-1.2,0.7-2.3,2.1-2.3c1.4,0,1.8,1.1,1.8,2.1c0,0.2,0,0.4,0,0.5H128.1z M130,299.6c0-0.4-0.2-1-0.9-1
			c-0.7,0-1,0.6-1,1H130z"/>
	</g>
	<g>
		<path fill="#FFFFFF" d="M135.2,300.4c0,0.8,0.6,1.1,1.3,1.1c0.5,0,0.9-0.1,1.2-0.2l0.2,0.7c-0.4,0.2-0.9,0.3-1.5,0.3
			c-1.4,0-2.2-0.9-2.2-2.2c0-1.2,0.7-2.3,2.1-2.3c1.4,0,1.8,1.1,1.8,2.1c0,0.2,0,0.4,0,0.5H135.2z M137.1,299.6c0-0.4-0.2-1-0.9-1
			c-0.7,0-1,0.6-1,1H137.1z"/>
	</g>
	<g>
		<path fill="#FFFFFF" d="M140,297.9l0.7,2.2c0.1,0.4,0.2,0.7,0.3,1.1h0c0.1-0.4,0.2-0.7,0.3-1.1l0.7-2.2h1.1l-1.6,4.3h-1.1
			l-1.6-4.3H140z"/>
	</g>
	<g>
		<path fill="#FFFFFF" d="M144.8,300.4c0,0.8,0.6,1.1,1.3,1.1c0.5,0,0.9-0.1,1.2-0.2l0.2,0.7c-0.4,0.2-0.9,0.3-1.5,0.3
			c-1.4,0-2.2-0.9-2.2-2.2c0-1.2,0.7-2.3,2.1-2.3c1.4,0,1.8,1.1,1.8,2.1c0,0.2,0,0.4,0,0.5H144.8z M146.7,299.6c0-0.4-0.2-1-0.9-1
			c-0.7,0-1,0.6-1,1H146.7z"/>
	</g>
	<g>
		<path fill="#FFFFFF" d="M148.9,299.3c0-0.6,0-1,0-1.4h0.9l0,0.8h0c0.2-0.6,0.7-0.9,1.2-0.9c0.1,0,0.2,0,0.3,0v1
			c-0.1,0-0.2,0-0.3,0c-0.5,0-0.9,0.3-1,0.8c0,0.1,0,0.2,0,0.3v2.2h-1.1V299.3z"/>
	</g>
	<g>
		<path fill="#FFFFFF" d="M153.3,297.9l0.8,2.3c0.1,0.3,0.2,0.6,0.2,0.8h0c0.1-0.2,0.1-0.6,0.2-0.8l0.7-2.3h1.2l-1.1,2.9
			c-0.6,1.6-1,2.3-1.5,2.8c-0.4,0.4-0.9,0.5-1.1,0.5l-0.2-0.9c0.2,0,0.4-0.1,0.6-0.3c0.2-0.1,0.4-0.4,0.6-0.7c0-0.1,0.1-0.1,0.1-0.2
			c0,0,0-0.1-0.1-0.2l-1.6-3.9H153.3z"/>
	</g>
	<g>
		<path fill="#FFFFFF" d="M161.3,300c0,1.6-1.1,2.3-2.2,2.3c-1.2,0-2.1-0.8-2.1-2.2c0-1.4,0.9-2.3,2.2-2.3
			C160.5,297.8,161.3,298.7,161.3,300z M158.1,300.1c0,0.8,0.4,1.5,1.1,1.5c0.6,0,1-0.6,1-1.5c0-0.7-0.3-1.4-1-1.4
			C158.4,298.6,158.1,299.4,158.1,300.1z"/>
	</g>
	<g>
		<path fill="#FFFFFF" d="M162.6,299.2c0-0.5,0-0.9,0-1.3h0.9l0.1,0.6h0c0.2-0.3,0.7-0.7,1.4-0.7c0.7,0,1.5,0.5,1.5,1.8v2.5h-1.1
			v-2.4c0-0.6-0.2-1.1-0.8-1.1c-0.4,0-0.7,0.3-0.8,0.6c0,0.1-0.1,0.2-0.1,0.3v2.5h-1.1V299.2z"/>
	</g>
	<g>
		<path fill="#FFFFFF" d="M168.7,300.4c0,0.8,0.6,1.1,1.3,1.1c0.5,0,0.9-0.1,1.2-0.2l0.2,0.7c-0.4,0.2-0.9,0.3-1.5,0.3
			c-1.4,0-2.2-0.9-2.2-2.2c0-1.2,0.7-2.3,2.1-2.3c1.4,0,1.8,1.1,1.8,2.1c0,0.2,0,0.4,0,0.5H168.7z M170.6,299.6c0-0.4-0.2-1-0.9-1
			c-0.7,0-1,0.6-1,1H170.6z"/>
	</g>
	<g>
		<path fill="#FFFFFF" d="M175,296h1.1v2.5h0c0.1-0.2,0.3-0.4,0.5-0.5c0.2-0.1,0.5-0.2,0.7-0.2c0.7,0,1.5,0.5,1.5,1.9v2.5h-1.1v-2.4
			c0-0.6-0.2-1.1-0.8-1.1c-0.4,0-0.7,0.3-0.8,0.6c0,0.1,0,0.2,0,0.3v2.6H175V296z"/>
	</g>
	<g>
		<path fill="#FFFFFF" d="M181.2,300.4c0,0.8,0.6,1.1,1.3,1.1c0.5,0,0.9-0.1,1.2-0.2l0.2,0.7c-0.4,0.2-0.9,0.3-1.5,0.3
			c-1.4,0-2.2-0.9-2.2-2.2c0-1.2,0.7-2.3,2.1-2.3c1.4,0,1.8,1.1,1.8,2.1c0,0.2,0,0.4,0,0.5H181.2z M183,299.6c0-0.4-0.2-1-0.9-1
			c-0.7,0-1,0.6-1,1H183z"/>
	</g>
	<g>
		<path fill="#FFFFFF" d="M23.2,310.4L23.2,310.4c0.1-0.2,0.2-0.4,0.4-0.5l1-1.4h1.3l-1.6,1.8l1.8,2.5h-1.3l-1.2-1.9l-0.4,0.4v1.5
			h-1.1v-6.3h1.1V310.4z"/>
	</g>
	<g>
		<path fill="#FFFFFF" d="M27.1,309.8c0-0.5,0-0.9,0-1.3H28l0.1,0.6h0c0.2-0.3,0.7-0.7,1.4-0.7c0.7,0,1.5,0.5,1.5,1.8v2.5h-1.1v-2.4
			c0-0.6-0.2-1.1-0.8-1.1c-0.4,0-0.7,0.3-0.8,0.6c0,0.1-0.1,0.2-0.1,0.3v2.5h-1.1V309.8z"/>
	</g>
	<g>
		<path fill="#FFFFFF" d="M36.5,310.6c0,1.6-1.1,2.3-2.2,2.3c-1.2,0-2.1-0.8-2.1-2.2c0-1.4,0.9-2.3,2.2-2.3
			C35.7,308.4,36.5,309.3,36.5,310.6z M33.3,310.6c0,0.8,0.4,1.5,1.1,1.5c0.6,0,1-0.6,1-1.5c0-0.7-0.3-1.4-1-1.4
			C33.6,309.2,33.3,309.9,33.3,310.6z"/>
	</g>
	<g>
		<path fill="#FFFFFF" d="M38.4,308.5l0.4,1.9c0.1,0.5,0.2,0.9,0.3,1.4h0c0.1-0.5,0.2-0.9,0.3-1.4l0.6-2h0.9l0.5,1.9
			c0.1,0.5,0.2,1,0.3,1.4h0c0.1-0.5,0.2-0.9,0.3-1.4l0.5-1.9h1.1l-1.3,4.3h-1l-0.5-1.7c-0.1-0.4-0.2-0.9-0.3-1.4h0
			c-0.1,0.5-0.2,1-0.3,1.4l-0.5,1.7h-1l-1.3-4.3H38.4z"/>
	</g>
	<g>
		<path fill="#FFFFFF" d="M44.5,311.8c0.2,0.1,0.7,0.3,1.1,0.3c0.5,0,0.7-0.2,0.7-0.5c0-0.3-0.2-0.4-0.7-0.6
			c-0.8-0.3-1.2-0.7-1.2-1.2c0-0.8,0.6-1.3,1.6-1.3c0.5,0,0.9,0.1,1.1,0.3l-0.2,0.8c-0.2-0.1-0.5-0.2-0.9-0.2
			c-0.4,0-0.6,0.2-0.6,0.5c0,0.3,0.2,0.4,0.7,0.6c0.8,0.3,1.1,0.7,1.1,1.3c0,0.8-0.6,1.3-1.7,1.3c-0.5,0-1-0.1-1.3-0.3L44.5,311.8z"
			/>
	</g>
	<g>
		<path fill="#FFFFFF" d="M51.9,307.3c0,0.3-0.2,0.6-0.6,0.6c-0.4,0-0.6-0.3-0.6-0.6c0-0.3,0.2-0.6,0.6-0.6
			C51.7,306.7,51.9,307,51.9,307.3z M50.8,312.8v-4.3h1.1v4.3H50.8z"/>
	</g>
	<g>
		<path fill="#FFFFFF" d="M53.4,309.8c0-0.5,0-0.9,0-1.3h0.9l0.1,0.6h0c0.2-0.3,0.7-0.7,1.4-0.7c0.7,0,1.5,0.5,1.5,1.8v2.5h-1.1
			v-2.4c0-0.6-0.2-1.1-0.8-1.1c-0.4,0-0.7,0.3-0.8,0.6c0,0.1-0.1,0.2-0.1,0.3v2.5h-1.1V309.8z"/>
	</g>
	<g>
		<path fill="#FFFFFF" d="M60.9,306.5H62v2.5h0c0.1-0.2,0.3-0.4,0.5-0.5c0.2-0.1,0.5-0.2,0.7-0.2c0.7,0,1.5,0.5,1.5,1.9v2.5h-1.1
			v-2.4c0-0.6-0.2-1.1-0.8-1.1c-0.4,0-0.7,0.3-0.8,0.6c0,0.1,0,0.2,0,0.3v2.6h-1.1V306.5z"/>
	</g>
	<g>
		<path fill="#FFFFFF" d="M67.5,307.3c0,0.3-0.2,0.6-0.6,0.6c-0.4,0-0.6-0.3-0.6-0.6c0-0.3,0.2-0.6,0.6-0.6
			C67.2,306.7,67.5,307,67.5,307.3z M66.3,312.8v-4.3h1.1v4.3H66.3z"/>
	</g>
	<g>
		<path fill="#FFFFFF" d="M68.9,311.8c0.2,0.1,0.7,0.3,1.1,0.3c0.5,0,0.7-0.2,0.7-0.5c0-0.3-0.2-0.4-0.7-0.6
			c-0.8-0.3-1.2-0.7-1.2-1.2c0-0.8,0.6-1.3,1.6-1.3c0.5,0,0.9,0.1,1.1,0.3l-0.2,0.8c-0.2-0.1-0.5-0.2-0.9-0.2
			c-0.4,0-0.6,0.2-0.6,0.5c0,0.3,0.2,0.4,0.7,0.6c0.8,0.3,1.1,0.7,1.1,1.3c0,0.8-0.6,1.3-1.7,1.3c-0.5,0-1-0.1-1.3-0.3L68.9,311.8z"
			/>
	</g>
	<g>
		<path fill="#FFFFFF" d="M75.1,309.8c0-0.5,0-0.9,0-1.3H76l0.1,0.6h0c0.2-0.3,0.7-0.7,1.4-0.7c0.7,0,1.5,0.5,1.5,1.8v2.5h-1.1v-2.4
			c0-0.6-0.2-1.1-0.8-1.1c-0.4,0-0.7,0.3-0.8,0.6c0,0.1-0.1,0.2-0.1,0.3v2.5h-1.1V309.8z"/>
	</g>
	<g>
		<path fill="#FFFFFF" d="M81.3,310.9c0,0.8,0.6,1.1,1.3,1.1c0.5,0,0.9-0.1,1.2-0.2l0.2,0.7c-0.4,0.2-0.9,0.3-1.5,0.3
			c-1.4,0-2.2-0.9-2.2-2.2c0-1.2,0.7-2.3,2.1-2.3c1.4,0,1.8,1.1,1.8,2.1c0,0.2,0,0.4,0,0.5H81.3z M83.1,310.2c0-0.4-0.2-1-0.9-1
			c-0.7,0-1,0.6-1,1H83.1z"/>
	</g>
	<g>
		<path fill="#FFFFFF" d="M86.6,307.4v1.1h1v0.8h-1v1.9c0,0.5,0.1,0.8,0.6,0.8c0.2,0,0.3,0,0.4,0l0,0.8c-0.2,0.1-0.4,0.1-0.8,0.1
			c-0.4,0-0.7-0.1-0.9-0.4c-0.2-0.2-0.3-0.6-0.3-1.2v-2H85v-0.8h0.6v-0.8L86.6,307.4z"/>
	</g>
	<g>
		<path fill="#FFFFFF" d="M89.6,308.5l0.4,1.9c0.1,0.5,0.2,0.9,0.3,1.4h0c0.1-0.5,0.2-0.9,0.3-1.4l0.6-2h0.9l0.5,1.9
			c0.1,0.5,0.2,1,0.3,1.4h0c0.1-0.5,0.2-0.9,0.3-1.4l0.5-1.9h1.1l-1.3,4.3h-1l-0.5-1.7c-0.1-0.4-0.2-0.9-0.3-1.4h0
			c-0.1,0.5-0.2,1-0.3,1.4l-0.5,1.7h-1l-1.3-4.3H89.6z"/>
	</g>
	<g>
		<path fill="#FFFFFF" d="M99.8,310.6c0,1.6-1.1,2.3-2.2,2.3c-1.2,0-2.1-0.8-2.1-2.2c0-1.4,0.9-2.3,2.2-2.3
			C99,308.4,99.8,309.3,99.8,310.6z M96.6,310.6c0,0.8,0.4,1.5,1.1,1.5c0.6,0,1-0.6,1-1.5c0-0.7-0.3-1.4-1-1.4
			C96.9,309.2,96.6,309.9,96.6,310.6z"/>
	</g>
	<g>
		<path fill="#FFFFFF" d="M101,309.9c0-0.6,0-1,0-1.4h0.9l0,0.8h0c0.2-0.6,0.7-0.9,1.2-0.9c0.1,0,0.2,0,0.3,0v1c-0.1,0-0.2,0-0.3,0
			c-0.5,0-0.9,0.3-1,0.8c0,0.1,0,0.2,0,0.3v2.2H101V309.9z"/>
	</g>
	<g>
		<path fill="#FFFFFF" d="M105.6,310.4L105.6,310.4c0.1-0.2,0.2-0.4,0.4-0.5l1-1.4h1.3l-1.6,1.8l1.8,2.5h-1.3l-1.2-1.9l-0.4,0.4v1.5
			h-1.1v-6.3h1.1V310.4z"/>
	</g>
	<g>
		<path fill="#FFFFFF" d="M109.3,312.2c0-0.4,0.3-0.7,0.7-0.7c0.4,0,0.7,0.3,0.7,0.7c0,0.4-0.3,0.7-0.7,0.7
			C109.6,312.9,109.3,312.6,109.3,312.2z"/>
	</g>
</g>
<g>
	<g>
		<g>
			<g>
				<g>
					<path fill="#7E5EA2" d="M92.8,114.9h-3.5c-8.8,0-15.9-7.1-15.9-15.9V71.7c0-8.8,7.1-15.9,15.9-15.9h3.5
						c8.8,0,15.9,7.1,15.9,15.9v27.2C108.7,107.7,101.6,114.9,92.8,114.9z"/>
				</g>
			</g>
		</g>
		<g>
			<g>
				<g>
					<path fill="#FFFFFF" d="M95,116h-7.9c-8.2,0-14.8-6.7-14.8-14.8V69.5c0-8.2,6.7-14.8,14.8-14.8H95c8.2,0,14.8,6.7,14.8,14.8
						v31.6C109.9,109.3,103.2,116,95,116z M87.1,56.9c-6.9,0-12.6,5.6-12.6,12.6v31.6c0,6.9,5.6,12.6,12.6,12.6H95
						c6.9,0,12.6-5.6,12.6-12.6V69.5c0-6.9-5.6-12.6-12.6-12.6H87.1z"/>
				</g>
			</g>
		</g>
	</g>
	<g>
		<g>
			<g>
				<g>
					<path fill="#7E5EA2" d="M128.2,112.3h-3.5c-8.8,0-15.9-7.1-15.9-15.9V69.2c0-8.8,7.1-15.9,15.9-15.9h3.5
						c8.8,0,15.9,7.1,15.9,15.9v27.2C144.1,105.2,137,112.3,128.2,112.3z"/>
				</g>
			</g>
		</g>
		<g>
			<g>
				<g>
					<path fill="#FFFFFF" d="M130.4,113.5h-7.9c-8.2,0-14.8-6.7-14.8-14.8V67c0-8.2,6.7-14.8,14.8-14.8h7.9
						c8.2,0,14.8,6.7,14.8,14.8v31.6C145.2,106.8,138.6,113.5,130.4,113.5z M122.4,54.4c-6.9,0-12.6,5.6-12.6,12.6v31.6
						c0,6.9,5.6,12.6,12.6,12.6h7.9c6.9,0,12.6-5.6,12.6-12.6V67c0-6.9-5.6-12.6-12.6-12.6H122.4z"/>
				</g>
			</g>
		</g>
	</g>
	<g>
		<g>
			<g>
				<g>
					<path fill="#7E5EA2" d="M185.2,119.2h-3.5c-8.8,0-15.9-7.1-15.9-15.9V76.1c0-8.8,7.1-15.9,15.9-15.9h3.5
						c8.8,0,15.9,7.1,15.9,15.9v27.2C201.1,112.1,194,119.2,185.2,119.2z"/>
				</g>
			</g>
		</g>
		<g>
			<g>
				<g>
					<path fill="#FFFFFF" d="M183.4,120.3c-10.4,0-18.8-8.4-18.8-18.8V77.8c0-10.4,8.4-18.8,18.8-18.8s18.8,8.4,18.8,18.8v23.7
						C202.2,111.9,193.8,120.3,183.4,120.3z M183.4,61.3c-9.1,0-16.6,7.4-16.6,16.6v23.7c0,9.1,7.4,16.6,16.6,16.6
						s16.6-7.4,16.6-16.6V77.8C200,68.7,192.5,61.3,183.4,61.3z"/>
				</g>
			</g>
		</g>
	</g>
	<g>
		<g>
			<g>
				<g>
					<path fill="#7E5EA2" d="M146.9,126.5h-3.5c-8.8,0-15.9-7.1-15.9-15.9V83.4c0-8.8,7.1-15.9,15.9-15.9h3.5
						c8.8,0,15.9,7.1,15.9,15.9v27.2C162.8,119.4,155.7,126.5,146.9,126.5z"/>
				</g>
			</g>
		</g>
		<g>
			<g>
				<g>
					<path fill="#FFFFFF" d="M145.1,127.6c-10.4,0-18.8-8.4-18.8-18.8V85.2c0-10.4,8.4-18.8,18.8-18.8S164,74.8,164,85.2v23.7
						C164,119.2,155.5,127.6,145.1,127.6z M145.1,68.6c-9.1,0-16.6,7.4-16.6,16.6v23.7c0,9.1,7.4,16.6,16.6,16.6s16.6-7.4,16.6-16.6
						V85.2C161.7,76,154.3,68.6,145.1,68.6z"/>
				</g>
			</g>
		</g>
	</g>
	<g>
		<g>
			<g>
				<g>
					<path fill="#7E5EA2" d="M70.1,126.5h-3.5c-8.8,0-15.9-7.1-15.9-15.9V83.4c0-8.8,7.1-15.9,15.9-15.9h3.5
						c8.8,0,15.9,7.1,15.9,15.9v27.2C86,119.4,78.9,126.5,70.1,126.5z"/>
				</g>
			</g>
		</g>
		<g>
			<g>
				<g>
					<path fill="#FFFFFF" d="M68.3,127.6c-10.4,0-18.8-8.4-18.8-18.8V85.2c0-10.4,8.4-18.8,18.8-18.8s18.8,8.4,18.8,18.8v23.7
						C87.2,119.2,78.7,127.6,68.3,127.6z M68.3,68.6c-9.1,0-16.6,7.4-16.6,16.6v23.7c0,9.1,7.4,16.6,16.6,16.6
						c9.1,0,16.6-7.4,16.6-16.6V85.2C84.9,76,77.5,68.6,68.3,68.6z"/>
				</g>
			</g>
		</g>
	</g>
	<g>
		<g>
			<g>
				<g>
					<path fill="#7E5EA2" d="M37.7,125h-3.5c-8.8,0-15.9-7.1-15.9-15.9V81.8c0-8.8,7.1-15.9,15.9-15.9h3.5c8.8,0,15.9,7.1,15.9,15.9
						v27.2C53.6,117.8,46.5,125,37.7,125z"/>
				</g>
			</g>
		</g>
		<g>
			<g>
				<g>
					<path fill="#FFFFFF" d="M35.9,126.1c-10.4,0-18.8-8.4-18.8-18.8V83.6c0-10.4,8.4-18.8,18.8-18.8s18.8,8.4,18.8,18.8v23.7
						C54.7,117.7,46.3,126.1,35.9,126.1z M35.9,67.1c-9.1,0-16.6,7.4-16.6,16.6v23.7c0,9.1,7.4,16.6,16.6,16.6s16.6-7.4,16.6-16.6
						V83.6C52.5,74.5,45,67.1,35.9,67.1z"/>
				</g>
			</g>
		</g>
	</g>
	<g>
		<g>
			<g>
				<g>
					<path fill="#7E5EA2" d="M44,148.7h-3.5c-8.8,0-15.9-7.1-15.9-15.9v-27.2c0-8.8,7.1-15.9,15.9-15.9H44c8.8,0,15.9,7.1,15.9,15.9
						v27.2C59.9,141.6,52.8,148.7,44,148.7z"/>
				</g>
			</g>
		</g>
		<g>
			<g>
				<g>
					<path fill="#FFFFFF" d="M42.2,149.8c-10.4,0-18.8-8.4-18.8-18.8v-23.7c0-10.4,8.4-18.8,18.8-18.8S61,97,61,107.3V131
						C61,141.4,52.6,149.8,42.2,149.8z M42.2,90.8c-9.1,0-16.6,7.4-16.6,16.6V131c0,9.1,7.4,16.6,16.6,16.6
						c9.1,0,16.6-7.4,16.6-16.6v-23.7C58.8,98.2,51.3,90.8,42.2,90.8z"/>
				</g>
			</g>
		</g>
	</g>
	<g>
		<g>
			<g>
				<g>
					<path fill="#7E5EA2" d="M166,139h-3.5c-8.8,0-15.9-7.1-15.9-15.9V95.9c0-8.8,7.1-15.9,15.9-15.9h3.5c8.8,0,15.9,7.1,15.9,15.9
						v27.2C181.9,131.9,174.7,139,166,139z"/>
				</g>
			</g>
		</g>
		<g>
			<g>
				<g>
					<path fill="#FFFFFF" d="M164.2,140.2c-10.4,0-18.8-8.4-18.8-18.8V97.7c0-10.4,8.4-18.8,18.8-18.8S183,87.3,183,97.7v23.7
						C183,131.7,174.6,140.2,164.2,140.2z M164.2,81.1c-9.1,0-16.6,7.4-16.6,16.6v23.7c0,9.1,7.4,16.6,16.6,16.6s16.6-7.4,16.6-16.6
						V97.7C180.7,88.5,173.3,81.1,164.2,81.1z"/>
				</g>
			</g>
		</g>
	</g>
	<g>
		<g>
			<g>
				<g>
					<path fill="#7E5EA2" d="M175.6,172.8h-3.5c-8.8,0-15.9-7.1-15.9-15.9v-27.2c0-8.8,7.1-15.9,15.9-15.9h3.5
						c8.8,0,15.9,7.1,15.9,15.9v27.2C191.6,165.7,184.4,172.8,175.6,172.8z"/>
				</g>
			</g>
		</g>
		<g>
			<g>
				<g>
					<path fill="#FFFFFF" d="M173.9,174c-10.4,0-18.8-8.4-18.8-18.8v-23.7c0-10.4,8.4-18.8,18.8-18.8s18.8,8.4,18.8,18.8v23.7
						C192.7,165.5,184.2,174,173.9,174z M173.9,114.9c-9.1,0-16.6,7.4-16.6,16.6v23.7c0,9.1,7.4,16.6,16.6,16.6s16.6-7.4,16.6-16.6
						v-23.7C190.4,122.3,183,114.9,173.9,114.9z"/>
				</g>
			</g>
		</g>
	</g>
	<g>
		<g>
			<g>
				<g>
					<path fill="#7E5EA2" d="M134.7,151.7h-3.5c-8.8,0-15.9-7.1-15.9-15.9v-27.2c0-8.8,7.1-15.9,15.9-15.9h3.5
						c8.8,0,15.9,7.1,15.9,15.9v27.2C150.6,144.5,143.5,151.7,134.7,151.7z"/>
				</g>
			</g>
		</g>
		<g>
			<g>
				<g>
					<path fill="#FFFFFF" d="M132.9,152.8c-10.4,0-18.8-8.4-18.8-18.8v-23.7c0-10.4,8.4-18.8,18.8-18.8s18.8,8.4,18.8,18.8V134
						C151.7,144.3,143.3,152.8,132.9,152.8z M132.9,93.7c-9.1,0-16.6,7.4-16.6,16.6V134c0,9.1,7.4,16.6,16.6,16.6h0
						c9.1,0,16.6-7.4,16.6-16.6v-23.7C149.4,101.2,142,93.7,132.9,93.7z"/>
				</g>
			</g>
		</g>
	</g>
	<g>
		<g>
			<g>
				<g>
					<path fill="#7E5EA2" d="M86.6,142H83c-8.8,0-15.9-7.1-15.9-15.9V98.9C67.1,90.1,74.2,83,83,83h3.5c8.8,0,15.9,7.1,15.9,15.9
						v27.2C102.5,134.9,95.4,142,86.6,142z"/>
				</g>
			</g>
		</g>
		<g>
			<g>
				<g>
					<path fill="#FFFFFF" d="M84.8,143.2c-10.4,0-18.8-8.4-18.8-18.8v-23.7c0-10.4,8.4-18.8,18.8-18.8s18.8,8.4,18.8,18.8v23.7
						C103.6,134.7,95.2,143.2,84.8,143.2z M84.8,84.1c-9.1,0-16.6,7.4-16.6,16.6v23.7c0,9.1,7.4,16.6,16.6,16.6s16.6-7.4,16.6-16.6
						v-23.7C101.4,91.5,93.9,84.1,84.8,84.1z"/>
				</g>
			</g>
		</g>
	</g>
	<g>
		<g>
			<g>
				<g>
					<path fill="#7E5EA2" d="M66.3,157.5h-3.5c-8.8,0-15.9-7.1-15.9-15.9v-27.2c0-8.8,7.1-15.9,15.9-15.9h3.5
						c8.8,0,15.9,7.1,15.9,15.9v27.2C82.2,150.4,75.1,157.5,66.3,157.5z"/>
				</g>
			</g>
		</g>
		<g>
			<g>
				<g>
					<path fill="#FFFFFF" d="M64.5,158.6c-10.4,0-18.8-8.4-18.8-18.8v-23.7c0-10.4,8.4-18.8,18.8-18.8s18.8,8.4,18.8,18.8v23.7
						C83.3,150.2,74.9,158.6,64.5,158.6z M64.5,99.6c-9.1,0-16.6,7.4-16.6,16.6v23.7c0,9.1,7.4,16.6,16.6,16.6h0
						c9.1,0,16.6-7.4,16.6-16.6v-23.7C81.1,107,73.6,99.6,64.5,99.6z"/>
				</g>
			</g>
		</g>
	</g>
	<g>
		<g>
			<g>
				<g>
					<g>
						<path fill="#7E5EA2" d="M107.4,147.1h-3.5c-8.8,0-15.9-7.1-15.9-15.9v-27.2c0-8.8,7.1-15.9,15.9-15.9h3.5
							c8.8,0,15.9,7.1,15.9,15.9v27.2C123.3,139.9,116.2,147.1,107.4,147.1z"/>
					</g>
				</g>
			</g>
			<g>
				<g>
					<g>
						<path fill="#FFFFFF" d="M105.6,148.2c-10.4,0-18.8-8.4-18.8-18.8v-23.7c0-10.4,8.4-18.8,18.8-18.8s18.8,8.4,18.8,18.8v23.7
							C124.4,139.8,116,148.2,105.6,148.2z M105.6,89.1c-9.1,0-16.6,7.4-16.6,16.6v23.7c0,9.1,7.4,16.6,16.6,16.6
							c9.1,0,16.6-7.4,16.6-16.6v-23.7C122.2,96.6,114.7,89.1,105.6,89.1z"/>
					</g>
				</g>
			</g>
		</g>
		<g>
			<g>
				<g>
					<g>
						<path fill="#FFFFFF" d="M105.6,116.5c-6.3,0-11.4-5.1-11.4-11.4s5.1-11.4,11.4-11.4s11.4,5.1,11.4,11.4
							S111.9,116.5,105.6,116.5z M105.6,96.2c-4.9,0-9,4-9,9c0,4.9,4,9,9,9c4.9,0,9-4,9-9C114.6,100.2,110.5,96.2,105.6,96.2z"/>
					</g>
				</g>
			</g>
		</g>
		<g>
			<g>
				<g>
					<g>
						<path fill="#FFFFFF" d="M105.6,111.4c-3.5,0-6.3-2.8-6.3-6.3c0-3.5,2.8-6.3,6.3-6.3c3.5,0,6.3,2.8,6.3,6.3
							C111.9,108.6,109.1,111.4,105.6,111.4z M105.6,99.4c-3.2,0-5.7,2.6-5.7,5.7c0,3.2,2.6,5.7,5.7,5.7c3.2,0,5.7-2.6,5.7-5.7
							C111.3,102,108.8,99.4,105.6,99.4z"/>
					</g>
				</g>
			</g>
		</g>
		<g>
			<g>
				<g>
					<g>
						<path fill="#FFFFFF" d="M105.6,109.9c-2.6,0-4.7-2.1-4.7-4.7c0-2.6,2.1-4.7,4.7-4.7s4.7,2.1,4.7,4.7
							C110.3,107.8,108.2,109.9,105.6,109.9z M105.6,101c-2.3,0-4.2,1.9-4.2,4.2s1.9,4.2,4.2,4.2s4.2-1.9,4.2-4.2
							S107.9,101,105.6,101z"/>
					</g>
				</g>
			</g>
		</g>
		<g>
			<g>
				<g>
					<g>
						<circle fill="#FFFFFF" cx="103.3" cy="101.3" r="3.1"/>
					</g>
				</g>
			</g>
		</g>
	</g>
	<g>
		<g>
			<g>
				<g>
					<path fill="#7E5EA2" d="M102.3,177.7h-3.5c-8.8,0-15.9-7.1-15.9-15.9v-27.2c0-8.8,7.1-15.9,15.9-15.9h3.5
						c8.8,0,15.9,7.1,15.9,15.9v27.2C118.2,170.6,111,177.7,102.3,177.7z"/>
				</g>
			</g>
		</g>
		<g>
			<g>
				<g>
					<path fill="#FFFFFF" d="M100.5,178.8c-10.4,0-18.8-8.4-18.8-18.8v-23.7c0-10.4,8.4-18.8,18.8-18.8s18.8,8.4,18.8,18.8V160
						C119.3,170.4,110.9,178.8,100.5,178.8z M100.5,119.8c-9.1,0-16.6,7.4-16.6,16.6V160c0,9.1,7.4,16.6,16.6,16.6h0
						c9.1,0,16.6-7.4,16.6-16.6v-23.7C117,127.2,109.6,119.8,100.5,119.8z"/>
				</g>
			</g>
		</g>
	</g>
	<g>
		<g>
			<g>
				<g>
					<path fill="#7E5EA2" d="M82,193.2h-3.5c-8.8,0-15.9-7.1-15.9-15.9v-27.2c0-8.8,7.1-15.9,15.9-15.9H82c8.8,0,15.9,7.1,15.9,15.9
						v27.2C97.9,186.1,90.7,193.2,82,193.2z"/>
				</g>
			</g>
		</g>
		<g>
			<g>
				<g>
					<path fill="#FFFFFF" d="M80.2,194.3c-10.4,0-18.8-8.4-18.8-18.8v-23.7c0-10.4,8.4-18.8,18.8-18.8S99,141.5,99,151.8v23.7
						C99,185.9,90.6,194.3,80.2,194.3z M80.2,135.3c-9.1,0-16.6,7.4-16.6,16.6v23.7c0,9.1,7.4,16.6,16.6,16.6s16.6-7.4,16.6-16.6
						v-23.7C96.7,142.7,89.3,135.3,80.2,135.3z"/>
				</g>
			</g>
		</g>
	</g>
	<g>
		<g>
			<g>
				<g>
					<path fill="#7E5EA2" d="M146.9,181.2h-3.5c-8.8,0-15.9-7.1-15.9-15.9V138c0-8.8,7.1-15.9,15.9-15.9h3.5
						c8.8,0,15.9,7.1,15.9,15.9v27.2C162.8,174.1,155.7,181.2,146.9,181.2z"/>
				</g>
			</g>
		</g>
		<g>
			<g>
				<g>
					<path fill="#FFFFFF" d="M145.1,182.3c-10.4,0-18.8-8.4-18.8-18.8v-23.7c0-10.4,8.4-18.8,18.8-18.8s18.8,8.4,18.8,18.8v23.7
						C164,173.9,155.5,182.3,145.1,182.3z M145.1,123.3c-9.1,0-16.6,7.4-16.6,16.6v23.7c0,9.1,7.4,16.6,16.6,16.6
						s16.6-7.4,16.6-16.6v-23.7C161.7,130.7,154.3,123.3,145.1,123.3z"/>
				</g>
			</g>
		</g>
	</g>
	<g>
		<g>
			<g>
				<g>
					<path fill="#7E5EA2" d="M124.1,193.2h-3.5c-8.8,0-15.9-7.1-15.9-15.9v-27.2c0-8.8,7.1-15.9,15.9-15.9h3.5
						c8.8,0,15.9,7.1,15.9,15.9v27.2C140,186.1,132.8,193.2,124.1,193.2z"/>
				</g>
			</g>
		</g>
		<g>
			<g>
				<g>
					<path fill="#FFFFFF" d="M122.3,194.3c-10.4,0-18.8-8.4-18.8-18.8v-23.7c0-10.4,8.4-18.8,18.8-18.8s18.8,8.4,18.8,18.8v23.7
						C141.1,185.9,132.7,194.3,122.3,194.3z M122.3,135.3c-9.1,0-16.6,7.4-16.6,16.6v23.7c0,9.1,7.4,16.6,16.6,16.6
						s16.6-7.4,16.6-16.6v-23.7C138.8,142.7,131.4,135.3,122.3,135.3z"/>
				</g>
			</g>
		</g>
	</g>
	<g>
		<g>
			<g>
				<g>
					<path fill="#7E5EA2" d="M167.5,198.1H164c-8.8,0-15.9-7.1-15.9-15.9v-27.2c0-8.8,7.1-15.9,15.9-15.9h3.5
						c8.8,0,15.9,7.1,15.9,15.9v27.2C183.4,191,176.3,198.1,167.5,198.1z"/>
				</g>
			</g>
		</g>
		<g>
			<g>
				<g>
					<path fill="#FFFFFF" d="M165.7,199.2c-10.4,0-18.8-8.4-18.8-18.8v-23.7c0-10.4,8.4-18.8,18.8-18.8s18.8,8.4,18.8,18.8v23.7
						C184.5,190.8,176.1,199.2,165.7,199.2z M165.7,140.2c-9.1,0-16.6,7.4-16.6,16.6v23.7c0,9.1,7.4,16.6,16.6,16.6
						c9.1,0,16.6-7.4,16.6-16.6v-23.7C182.3,147.6,174.9,140.2,165.7,140.2z"/>
				</g>
			</g>
		</g>
	</g>
	<g>
		<g>
			<g>
				<g>
					<path fill="#7E5EA2" d="M38.4,185h-3.5c-8.8,0-15.9-7.1-15.9-15.9v-27.2c0-8.8,7.1-15.9,15.9-15.9h3.5
						c8.8,0,15.9,7.1,15.9,15.9v27.2C54.3,177.8,47.2,185,38.4,185z"/>
				</g>
			</g>
		</g>
		<g>
			<g>
				<g>
					<path fill="#FFFFFF" d="M36.6,186.1c-10.4,0-18.8-8.4-18.8-18.8v-23.7c0-10.4,8.4-18.8,18.8-18.8s18.8,8.4,18.8,18.8v23.7
						C55.4,177.7,47,186.1,36.6,186.1z M36.6,127.1c-9.1,0-16.6,7.4-16.6,16.6v23.7c0,9.1,7.4,16.6,16.6,16.6
						c9.1,0,16.6-7.4,16.6-16.6v-23.7C53.2,134.5,45.7,127.1,36.6,127.1z"/>
				</g>
			</g>
		</g>
	</g>
	<g>
		<g>
			<g>
				<g>
					<path fill="#7E5EA2" d="M58.6,208.7h-3.5c-8.8,0-15.9-7.1-15.9-15.9v-27.2c0-8.8,7.1-15.9,15.9-15.9h3.5
						c8.8,0,15.9,7.1,15.9,15.9v27.2C74.5,201.6,67.4,208.7,58.6,208.7z"/>
				</g>
			</g>
		</g>
		<g>
			<g>
				<g>
					<path fill="#FFFFFF" d="M56.8,209.8c-10.4,0-18.8-8.4-18.8-18.8v-23.7c0-10.4,8.4-18.8,18.8-18.8s18.8,8.4,18.8,18.8V191
						C75.7,201.4,67.2,209.8,56.8,209.8z M56.8,150.8c-9.1,0-16.6,7.4-16.6,16.6V191c0,9.1,7.4,16.6,16.6,16.6s16.6-7.4,16.6-16.6
						v-23.7C73.4,158.2,66,150.8,56.8,150.8z"/>
				</g>
			</g>
		</g>
	</g>
	<g>
		<g>
			<g>
				<g>
					<g>
						<path fill="#7E5EA2" d="M159.3,45.6H90.5c-7.2,0-12.9,5.8-12.9,12.9v0c0,4.2,2,7.9,5.1,10.3l0,0c0,0-3.7,13.2,3.5,20.5
							c0,0-1.1-14.8,7-17.8h66.1c7.2,0,12.9-5.8,12.9-12.9v0C172.2,51.4,166.4,45.6,159.3,45.6z"/>
					</g>
				</g>
			</g>
			<g>
				<g>
					<g>
						<path fill="#79C7D9" d="M86.1,90.7c-0.4,0-0.7-0.1-1-0.4c-6.7-6.7-4.8-17.7-4.1-20.9c-3.1-2.7-4.9-6.6-4.9-10.8
							c0-7.9,6.4-14.4,14.4-14.4h68.8c7.9,0,14.4,6.4,14.4,14.4S167.2,73,159.3,73H93.4c-3.4,1.4-4.8,5.5-5.4,8.8
							c-0.7,3.9-0.4,7.4-0.4,7.4c0,0.6-0.3,1.1-0.8,1.4C86.5,90.7,86.3,90.7,86.1,90.7z M84,69.3c-0.1,0.2-2.4,9,0.8,15.7
							c0.3-5,1.9-12.5,7.9-14.7c0.2-0.1,0.3-0.1,0.5-0.1h66.1c6.4,0,11.5-5.2,11.5-11.5c0-6.4-5.2-11.5-11.5-11.5H90.5
							c-6.4,0-11.5,5.2-11.5,11.5c0,3.6,1.6,6.9,4.5,9.1C83.9,68.1,84.1,68.7,84,69.3z"/>
					</g>
				</g>
			</g>
		</g>
		<g>
			<g>
				<g>
					<g>
						<path fill="#FFFFFF" d="M87.4,60.3c0.5,0.2,1.2,0.5,1.9,0.5c0.7,0,1-0.2,1-0.6c0-0.4-0.3-0.6-1.2-0.9C87.9,58.8,87,58.1,87,57
							c0-1.3,1.1-2.3,3-2.3c0.9,0,1.5,0.2,2,0.4l-0.4,1.6c-0.3-0.1-0.9-0.4-1.6-0.4c-0.6,0-0.9,0.2-0.9,0.6c0,0.4,0.4,0.5,1.3,0.9
							c1.3,0.5,1.9,1.2,1.9,2.3c0,1.3-1,2.4-3.2,2.4c-0.9,0-1.8-0.2-2.2-0.5L87.4,60.3z"/>
					</g>
				</g>
			</g>
			<g>
				<g>
					<g>
						<path fill="#FFFFFF" d="M95.3,59L95.3,59c0.1-0.2,0.3-0.5,0.4-0.7l0.9-1.5h2.4L97.1,59l2.2,3.2h-2.5l-1.1-2.1l-0.4,0.5v1.5h-2
							v-7.8h2V59z"/>
					</g>
				</g>
			</g>
			<g>
				<g>
					<g>
						<path fill="#FFFFFF" d="M101.7,55.3c0,0.5-0.4,0.9-1,0.9c-0.6,0-1-0.4-1-0.9c0-0.6,0.4-0.9,1-0.9
							C101.3,54.4,101.7,54.8,101.7,55.3z M99.7,62.2v-5.4h2v5.4H99.7z"/>
					</g>
				</g>
			</g>
			<g>
				<g>
					<g>
						<path fill="#FFFFFF" d="M105,55.3c0,0.5-0.4,0.9-1,0.9c-0.6,0-1-0.4-1-0.9c0-0.6,0.4-0.9,1-0.9
							C104.6,54.4,104.9,54.8,105,55.3z M102.9,62.2v-5.4h2v5.4H102.9z"/>
					</g>
				</g>
			</g>
			<g>
				<g>
					<g>
						<path fill="#FFFFFF" d="M106.2,58.7c0-0.7,0-1.3,0-1.9h1.7l0.1,0.7h0c0.2-0.3,0.7-0.8,1.6-0.8c1.3,0,2,0.9,2,2.4v3.2h-2v-3
							c0-0.6-0.2-1-0.7-1c-0.4,0-0.6,0.3-0.7,0.5c0,0.1-0.1,0.3-0.1,0.4v3.1h-2V58.7z"/>
					</g>
				</g>
			</g>
			<g>
				<g>
					<g>
						<path fill="#FFFFFF" d="M118.1,61.4c0,0.9-0.2,1.9-0.9,2.4c-0.6,0.5-1.4,0.7-2.3,0.7c-0.8,0-1.5-0.1-2-0.4l0.4-1.5
							c0.3,0.2,0.9,0.4,1.6,0.4c0.7,0,1.3-0.4,1.3-1.2v-0.2h0c-0.3,0.4-0.8,0.6-1.4,0.6c-1.3,0-2.3-1.1-2.3-2.6
							c0-1.7,1.1-2.8,2.5-2.8c0.7,0,1.1,0.3,1.4,0.7h0l0.1-0.6h1.7c0,0.3,0,0.8,0,1.7V61.4z M116.2,59c0-0.1,0-0.2,0-0.3
							c-0.1-0.4-0.3-0.6-0.7-0.6c-0.5,0-0.9,0.5-0.9,1.3c0,0.7,0.3,1.2,0.9,1.2c0.4,0,0.6-0.2,0.7-0.5c0-0.1,0-0.3,0-0.4V59z"/>
					</g>
				</g>
			</g>
			<g>
				<g>
					<g>
						<path fill="#FFFFFF" d="M126.4,60.9c0,0.5,0,1,0.1,1.3h-1.8l-0.1-0.5h0c-0.4,0.4-0.9,0.6-1.5,0.6c-1.1,0-1.8-0.8-1.8-1.7
							c0-1.5,1.3-2.1,3.2-2.1v0c0-0.2-0.2-0.5-0.9-0.5c-0.6,0-1.2,0.2-1.5,0.4l-0.3-1.2c0.3-0.2,1.1-0.5,2.3-0.5
							c1.9,0,2.5,1,2.5,2.4V60.9z M124.5,59.8c-0.8,0-1.3,0.2-1.3,0.7c0,0.3,0.2,0.5,0.6,0.5c0.3,0,0.6-0.2,0.7-0.5
							c0-0.1,0-0.2,0-0.3V59.8z"/>
					</g>
				</g>
			</g>
			<g>
				<g>
					<g>
						<path fill="#FFFFFF" d="M127.6,58.7c0-0.7,0-1.3,0-1.9h1.7l0.1,0.7h0c0.2-0.3,0.7-0.8,1.6-0.8c1.3,0,2,0.9,2,2.4v3.2h-2v-3
							c0-0.6-0.2-1-0.7-1c-0.4,0-0.6,0.3-0.7,0.5c0,0.1-0.1,0.3-0.1,0.4v3.1h-2V58.7z"/>
					</g>
				</g>
			</g>
			<g>
				<g>
					<g>
						<path fill="#FFFFFF" d="M135.7,56.8l0.7,2.4c0.1,0.3,0.2,0.7,0.2,1h0c0.1-0.3,0.1-0.7,0.2-1l0.5-2.5h2.1l-1.2,3.5
							c-0.8,2.3-1.3,3.1-1.9,3.6c-0.6,0.6-1.3,0.7-1.8,0.8l-0.4-1.7c0.2,0,0.4-0.1,0.7-0.2c0.3-0.1,0.5-0.3,0.6-0.5
							c0.1-0.1,0.1-0.2,0.1-0.2c0-0.1,0-0.2-0.1-0.3l-2-5H135.7z"/>
					</g>
				</g>
			</g>
			<g>
				<g>
					<g>
						<path fill="#FFFFFF" d="M145.4,59.5c0,2-1.4,2.9-2.9,2.9c-1.6,0-2.9-1-2.9-2.8c0-1.7,1.1-2.9,3-2.9
							C144.3,56.7,145.4,57.8,145.4,59.5z M141.6,59.5c0,0.8,0.3,1.4,0.9,1.4c0.5,0,0.8-0.6,0.8-1.4c0-0.8-0.2-1.4-0.8-1.4
							C141.8,58.1,141.6,58.8,141.6,59.5z"/>
					</g>
				</g>
			</g>
			<g>
				<g>
					<g>
						<path fill="#FFFFFF" d="M146.3,58.7c0-0.7,0-1.3,0-1.9h1.7l0.1,0.7h0c0.2-0.3,0.7-0.8,1.6-0.8c1.3,0,2,0.9,2,2.4v3.2h-2v-3
							c0-0.6-0.2-1-0.7-1c-0.4,0-0.6,0.3-0.7,0.5c0,0.1-0.1,0.3-0.1,0.4v3.1h-2V58.7z"/>
					</g>
				</g>
			</g>
			<g>
				<g>
					<g>
						<path fill="#FFFFFF" d="M154.6,60.2c0.1,0.4,0.7,0.7,1.4,0.7c0.5,0,1-0.1,1.5-0.2l0.3,1.3c-0.7,0.3-1.4,0.3-2,0.3
							c-1.9,0-3-1.1-3-2.8c0-1.3,0.8-2.9,2.8-2.9c1.8,0,2.5,1.3,2.5,2.8c0,0.3,0,0.6-0.1,0.8H154.6z M156.2,58.9
							c0-0.3-0.1-0.9-0.8-0.9c-0.6,0-0.8,0.5-0.8,0.9H156.2z"/>
					</g>
				</g>
			</g>
			<g>
				<g>
					<g>
						<path fill="#FFFFFF" d="M159.8,59.7v-0.3c0-0.6,0.2-1.1,0.6-1.6c0.3-0.4,0.6-0.7,0.6-1c0-0.3-0.2-0.5-0.7-0.5
							c-0.4,0-0.8,0.1-1.1,0.3l-0.4-1.4c0.4-0.2,1.1-0.5,2-0.5c1.5,0,2.2,0.8,2.2,1.8c0,0.9-0.6,1.4-0.9,1.8
							c-0.4,0.4-0.5,0.8-0.5,1.3v0.2H159.8z M159.5,61.2c0-0.7,0.5-1.1,1.1-1.1c0.7,0,1.1,0.5,1.1,1.1c0,0.7-0.5,1.1-1.1,1.1
							C160,62.4,159.5,61.9,159.5,61.2z"/>
					</g>
				</g>
			</g>
		</g>
	</g>
</g>
</svg>
