<?xml version="1.0" encoding="utf-8"?>
<!-- Generator: Adobe Illustrator 19.2.1, SVG Export Plug-In . SVG Version: 6.00 Build 0)  -->
<svg version="1.1" id="Layer_1" xmlns="http://www.w3.org/2000/svg" xmlns:xlink="http://www.w3.org/1999/xlink" x="0px" y="0px"
	 viewBox="0 0 790 355" enable-background="new 0 0 790 355" xml:space="preserve">
<g>
	<g>
		<g>
			<g>
				<g>
					<path fill="#808285" d="M195.7,85.4H139c-6.9,0-12.6-5.6-12.6-12.6v-0.2c0-6.9,5.6-12.6,12.6-12.6h56.7
						c6.9,0,12.6,5.6,12.6,12.6v0.2C208.2,79.8,202.6,85.4,195.7,85.4z M139,61.1c-6.4,0-11.6,5.2-11.6,11.6v0.2
						c0,6.4,5.2,11.6,11.6,11.6h56.7c6.4,0,11.6-5.2,11.6-11.6v-0.2c0-6.4-5.2-11.6-11.6-11.6H139z"/>
				</g>
			</g>
		</g>
		<g>
			<g>
				<g>
					<path fill="#808285" d="M139,69.3h0.8v5.4h2.6v0.7H139V69.3z"/>
				</g>
			</g>
			<g>
				<g>
					<path fill="#808285" d="M147.1,73.2c0,1.6-1.1,2.3-2.2,2.3c-1.2,0-2.1-0.9-2.1-2.2c0-1.5,1-2.3,2.2-2.3
						C146.2,70.9,147.1,71.9,147.1,73.2z M143.6,73.2c0,1,0.5,1.7,1.3,1.7c0.8,0,1.3-0.7,1.3-1.7c0-0.7-0.4-1.7-1.3-1.7
						C144,71.5,143.6,72.4,143.6,73.2z"/>
				</g>
			</g>
			<g>
				<g>
					<path fill="#808285" d="M151.1,74.3c0,0.4,0,0.7,0.1,1h-0.7l-0.1-0.6h0c-0.2,0.3-0.7,0.6-1.3,0.6c-0.9,0-1.3-0.6-1.3-1.3
						c0-1.1,0.9-1.6,2.6-1.6v-0.1c0-0.4-0.1-1-1-1c-0.4,0-0.8,0.1-1.1,0.3l-0.2-0.5c0.4-0.2,0.9-0.4,1.4-0.4c1.3,0,1.7,0.9,1.7,1.8
						V74.3z M150.4,73.2c-0.9,0-1.8,0.1-1.8,1c0,0.5,0.3,0.8,0.7,0.8c0.6,0,0.9-0.4,1.1-0.7c0-0.1,0-0.2,0-0.3V73.2z"/>
				</g>
			</g>
			<g>
				<g>
					<path fill="#808285" d="M156.2,69v5.3c0,0.4,0,0.8,0,1.1h-0.7l0-0.8h0c-0.2,0.5-0.8,0.9-1.5,0.9c-1.1,0-1.9-0.9-1.9-2.2
						c0-1.5,0.9-2.3,2-2.3c0.7,0,1.1,0.3,1.3,0.7h0V69H156.2z M155.4,72.8c0-0.1,0-0.2,0-0.3c-0.1-0.5-0.6-0.9-1.1-0.9
						c-0.8,0-1.3,0.7-1.3,1.7c0,0.9,0.4,1.6,1.3,1.6c0.5,0,1-0.4,1.2-0.9c0-0.1,0-0.2,0-0.3V72.8z"/>
				</g>
			</g>
			<g>
				<g>
					<path fill="#808285" d="M158.4,69.8c0,0.3-0.2,0.5-0.5,0.5c-0.3,0-0.5-0.2-0.5-0.5s0.2-0.5,0.5-0.5
						C158.2,69.3,158.4,69.5,158.4,69.8z M157.5,75.4V71h0.8v4.4H157.5z"/>
				</g>
			</g>
			<g>
				<g>
					<path fill="#808285" d="M159.6,72.2c0-0.5,0-0.8,0-1.2h0.7l0,0.7h0c0.2-0.4,0.7-0.8,1.4-0.8c0.6,0,1.5,0.4,1.5,1.9v2.6h-0.8
						v-2.5c0-0.7-0.3-1.3-1-1.3c-0.5,0-0.9,0.4-1.1,0.8c0,0.1-0.1,0.2-0.1,0.4v2.6h-0.8V72.2z"/>
				</g>
			</g>
			<g>
				<g>
					<path fill="#808285" d="M168.3,74.8c0,1-0.2,1.6-0.6,2c-0.4,0.4-1,0.5-1.6,0.5c-0.5,0-1.1-0.1-1.5-0.4l0.2-0.6
						c0.3,0.2,0.7,0.4,1.3,0.4c0.8,0,1.4-0.4,1.4-1.5v-0.5h0c-0.2,0.4-0.7,0.7-1.4,0.7c-1.1,0-1.9-0.9-1.9-2.1c0-1.5,1-2.3,2-2.3
						c0.8,0,1.2,0.4,1.4,0.7h0l0-0.7h0.7c0,0.3,0,0.7,0,1.2V74.8z M167.6,72.8c0-0.1,0-0.3,0-0.4c-0.1-0.5-0.5-0.8-1.1-0.8
						c-0.8,0-1.3,0.6-1.3,1.7c0,0.9,0.4,1.6,1.3,1.6c0.5,0,0.9-0.3,1.1-0.8c0-0.1,0.1-0.3,0.1-0.4V72.8z"/>
				</g>
			</g>
			<g>
				<g>
					<path fill="#808285" d="M171.5,74.4c0.4,0.2,0.9,0.4,1.4,0.4c0.8,0,1.3-0.4,1.3-1c0-0.6-0.3-0.9-1.1-1.2
						c-1-0.4-1.6-0.9-1.6-1.7c0-0.9,0.8-1.7,2-1.7c0.6,0,1.1,0.1,1.3,0.3l-0.2,0.6c-0.2-0.1-0.6-0.3-1.1-0.3c-0.8,0-1.1,0.5-1.1,0.9
						c0,0.6,0.4,0.8,1.2,1.2c1,0.4,1.5,0.9,1.5,1.8c0,0.9-0.7,1.8-2.1,1.8c-0.6,0-1.2-0.2-1.6-0.4L171.5,74.4z"/>
				</g>
			</g>
			<g>
				<g>
					<path fill="#808285" d="M179.2,75.2c-0.2,0.1-0.7,0.3-1.3,0.3c-1.3,0-2.2-0.9-2.2-2.2c0-1.3,0.9-2.3,2.3-2.3
						c0.5,0,0.9,0.1,1.1,0.2l-0.2,0.6c-0.2-0.1-0.5-0.2-0.9-0.2c-1,0-1.5,0.7-1.5,1.7c0,1,0.6,1.6,1.5,1.6c0.5,0,0.7-0.1,1-0.2
						L179.2,75.2z"/>
				</g>
			</g>
			<g>
				<g>
					<path fill="#808285" d="M180.1,72.4c0-0.5,0-1,0-1.4h0.7l0,0.9h0c0.2-0.6,0.7-1,1.2-1c0.1,0,0.1,0,0.2,0v0.7
						c-0.1,0-0.2,0-0.3,0c-0.6,0-1,0.4-1.1,1c0,0.1,0,0.2,0,0.4v2.3h-0.8V72.4z"/>
				</g>
			</g>
			<g>
				<g>
					<path fill="#808285" d="M183.4,73.4c0,1.1,0.7,1.5,1.5,1.5c0.6,0,0.9-0.1,1.2-0.2l0.1,0.6c-0.3,0.1-0.8,0.3-1.5,0.3
						c-1.3,0-2.1-0.9-2.1-2.2c0-1.3,0.8-2.3,2-2.3c1.4,0,1.8,1.2,1.8,2c0,0.2,0,0.3,0,0.4H183.4z M185.7,72.8c0-0.5-0.2-1.3-1.1-1.3
						c-0.8,0-1.2,0.7-1.2,1.3H185.7z"/>
				</g>
			</g>
			<g>
				<g>
					<path fill="#808285" d="M187.9,73.4c0,1.1,0.7,1.5,1.5,1.5c0.6,0,0.9-0.1,1.2-0.2l0.1,0.6c-0.3,0.1-0.8,0.3-1.5,0.3
						c-1.3,0-2.1-0.9-2.1-2.2c0-1.3,0.8-2.3,2-2.3c1.4,0,1.8,1.2,1.8,2c0,0.2,0,0.3,0,0.4H187.9z M190.2,72.8c0-0.5-0.2-1.3-1.1-1.3
						c-0.8,0-1.2,0.7-1.2,1.3H190.2z"/>
				</g>
			</g>
			<g>
				<g>
					<path fill="#808285" d="M192,72.2c0-0.5,0-0.8,0-1.2h0.7l0,0.7h0c0.2-0.4,0.7-0.8,1.4-0.8c0.6,0,1.5,0.4,1.5,1.9v2.6h-0.8v-2.5
						c0-0.7-0.3-1.3-1-1.3c-0.5,0-0.9,0.4-1.1,0.8c0,0.1-0.1,0.2-0.1,0.4v2.6H192V72.2z"/>
				</g>
			</g>
		</g>
	</g>
	<g>
		<g>
			<g>
				<g>
					<path fill="#808285" d="M126,130.7h-50c-6.9,0-12.6-5.6-12.6-12.6v-0.2c0-6.9,5.6-12.6,12.6-12.6h50c6.9,0,12.6,5.6,12.6,12.6
						v0.2C138.6,125,133,130.7,126,130.7z M76.1,106.3c-6.4,0-11.6,5.2-11.6,11.6v0.2c0,6.4,5.2,11.6,11.6,11.6h50
						c6.4,0,11.6-5.2,11.6-11.6v-0.2c0-6.4-5.2-11.6-11.6-11.6H76.1z"/>
				</g>
			</g>
		</g>
		<g>
			<g>
				<g>
					<path fill="#808285" d="M79.2,119.7c0.4,0.2,0.9,0.4,1.4,0.4c0.8,0,1.3-0.4,1.3-1c0-0.6-0.3-0.9-1.1-1.2
						c-1-0.4-1.6-0.9-1.6-1.7c0-0.9,0.8-1.7,2-1.7c0.6,0,1.1,0.1,1.3,0.3l-0.2,0.6c-0.2-0.1-0.6-0.3-1.1-0.3c-0.8,0-1.1,0.5-1.1,0.9
						c0,0.6,0.4,0.8,1.2,1.2c1,0.4,1.5,0.9,1.5,1.8c0,0.9-0.7,1.8-2.1,1.8c-0.6,0-1.2-0.2-1.6-0.4L79.2,119.7z"/>
				</g>
			</g>
			<g>
				<g>
					<path fill="#808285" d="M84.6,115.1c0,0.3-0.2,0.5-0.5,0.5c-0.3,0-0.5-0.2-0.5-0.5s0.2-0.5,0.5-0.5
						C84.4,114.6,84.6,114.8,84.6,115.1z M83.7,120.7v-4.4h0.8v4.4H83.7z"/>
				</g>
			</g>
			<g>
				<g>
					<path fill="#808285" d="M89.5,120c0,1-0.2,1.6-0.6,2c-0.4,0.4-1,0.5-1.6,0.5c-0.5,0-1.1-0.1-1.5-0.4l0.2-0.6
						c0.3,0.2,0.7,0.4,1.3,0.4c0.8,0,1.4-0.4,1.4-1.5v-0.5h0c-0.2,0.4-0.7,0.7-1.4,0.7c-1.1,0-1.9-0.9-1.9-2.1c0-1.5,1-2.3,2-2.3
						c0.8,0,1.2,0.4,1.4,0.7h0l0-0.7h0.7c0,0.3,0,0.7,0,1.2V120z M88.7,118c0-0.1,0-0.3,0-0.4c-0.1-0.5-0.5-0.8-1.1-0.8
						c-0.8,0-1.3,0.6-1.3,1.7c0,0.9,0.4,1.6,1.3,1.6c0.5,0,0.9-0.3,1.1-0.8c0-0.1,0.1-0.3,0.1-0.4V118z"/>
				</g>
			</g>
			<g>
				<g>
					<path fill="#808285" d="M90.8,117.5c0-0.5,0-0.8,0-1.2h0.7l0,0.7h0c0.2-0.4,0.7-0.8,1.4-0.8c0.6,0,1.5,0.4,1.5,1.9v2.6h-0.8
						v-2.5c0-0.7-0.3-1.3-1-1.3c-0.5,0-0.9,0.4-1.1,0.8c0,0.1-0.1,0.2-0.1,0.4v2.6h-0.8V117.5z"/>
				</g>
			</g>
			<g>
				<g>
					<path fill="#808285" d="M101.3,119.5c0,0.5,0,0.9,0,1.2h-0.7l0-0.7h0c-0.2,0.4-0.7,0.8-1.4,0.8c-0.7,0-1.5-0.4-1.5-1.9v-2.6
						h0.8v2.4c0,0.8,0.3,1.4,1,1.4c0.5,0,0.9-0.4,1-0.7c0-0.1,0.1-0.3,0.1-0.4v-2.7h0.8V119.5z"/>
				</g>
			</g>
			<g>
				<g>
					<path fill="#808285" d="M102.7,117.7c0-0.6,0-1,0-1.4h0.7l0,0.7h0c0.3-0.5,0.8-0.8,1.6-0.8c1.1,0,1.9,0.9,1.9,2.2
						c0,1.6-1,2.3-2,2.3c-0.6,0-1.1-0.3-1.3-0.7h0v2.4h-0.8V117.7z M103.4,118.9c0,0.1,0,0.2,0,0.3c0.1,0.5,0.6,0.9,1.2,0.9
						c0.8,0,1.3-0.7,1.3-1.7c0-0.9-0.5-1.6-1.3-1.6c-0.5,0-1.1,0.4-1.2,1c0,0.1-0.1,0.2-0.1,0.3V118.9z"/>
				</g>
			</g>
			<g>
				<g>
					<path fill="#808285" d="M111.4,114.4c-0.7,0.9-1.1,2.1-1.1,3.7c0,1.6,0.5,2.8,1.1,3.7h-0.6c-0.6-0.7-1.2-1.9-1.2-3.7
						c0-1.8,0.6-2.9,1.2-3.7H111.4z"/>
				</g>
			</g>
			<g>
				<g>
					<path fill="#808285" d="M112.3,114.6h3.3v0.7h-2.5v2h2.3v0.6h-2.3v2.8h-0.8V114.6z"/>
				</g>
			</g>
			<g>
				<g>
					<path fill="#808285" d="M116.5,114.3h0.8v2.7h0c0.3-0.5,0.8-0.8,1.5-0.8c1.1,0,1.8,0.9,1.8,2.2c0,1.6-1,2.3-2,2.3
						c-0.6,0-1.1-0.2-1.5-0.8h0l0,0.7h-0.7c0-0.3,0-0.7,0-1.1V114.3z M117.3,118.9c0,0.1,0,0.2,0,0.3c0.1,0.6,0.6,0.9,1.2,0.9
						c0.8,0,1.3-0.7,1.3-1.7c0-0.9-0.5-1.6-1.3-1.6c-0.5,0-1,0.4-1.2,1c0,0.1,0,0.2,0,0.3V118.9z"/>
				</g>
			</g>
			<g>
				<g>
					<path fill="#808285" d="M121.1,121.8c0.6-0.9,1.1-2.1,1.1-3.7c0-1.6-0.5-2.8-1.1-3.7h0.6c0.6,0.7,1.2,1.9,1.2,3.7
						c0,1.8-0.6,2.9-1.2,3.7H121.1z"/>
				</g>
			</g>
		</g>
	</g>
	<g>
		<g>
			<g>
				<g>
					<path fill="#808285" d="M143.6,166.9H77.9c-6.9,0-12.6-5.6-12.6-12.6v-0.2c0-6.9,5.6-12.6,12.6-12.6h65.7
						c6.9,0,12.6,5.6,12.6,12.6v0.2C156.2,161.3,150.5,166.9,143.6,166.9z M77.9,142.6c-6.4,0-11.6,5.2-11.6,11.6v0.2
						c0,6.4,5.2,11.6,11.6,11.6h65.7c6.4,0,11.6-5.2,11.6-11.6v-0.2c0-6.4-5.2-11.6-11.6-11.6H77.9z"/>
				</g>
			</g>
		</g>
		<g>
			<g>
				<g>
					<path fill="#808285" d="M75.1,156.9v-6.1h0.9l1.9,3.1c0.4,0.7,0.8,1.4,1.1,2l0,0c-0.1-0.8-0.1-1.6-0.1-2.5v-2.5h0.7v6.1h-0.8
						l-1.9-3.1c-0.4-0.7-0.8-1.4-1.1-2l0,0c0,0.8,0.1,1.5,0.1,2.5v2.6H75.1z"/>
				</g>
			</g>
			<g>
				<g>
					<path fill="#808285" d="M84.6,155.7c0,0.5,0,0.9,0,1.2H84l0-0.7h0c-0.2,0.4-0.7,0.8-1.4,0.8c-0.7,0-1.5-0.4-1.5-1.9v-2.6h0.8
						v2.4c0,0.8,0.3,1.4,1,1.4c0.5,0,0.9-0.4,1-0.7c0-0.1,0.1-0.3,0.1-0.4v-2.7h0.8V155.7z"/>
				</g>
			</g>
			<g>
				<g>
					<path fill="#808285" d="M85.9,153.7c0-0.5,0-0.8,0-1.2h0.7l0,0.7h0c0.2-0.4,0.6-0.8,1.4-0.8c0.6,0,1,0.4,1.2,0.9h0
						c0.1-0.3,0.3-0.4,0.5-0.6c0.3-0.2,0.5-0.3,1-0.3c0.6,0,1.4,0.4,1.4,1.9v2.6h-0.8v-2.5c0-0.8-0.3-1.3-0.9-1.3
						c-0.5,0-0.8,0.3-0.9,0.7c0,0.1-0.1,0.3-0.1,0.4v2.7h-0.8v-2.6c0-0.7-0.3-1.2-0.9-1.2c-0.5,0-0.9,0.4-1,0.8
						c0,0.1-0.1,0.3-0.1,0.4v2.6h-0.8V153.7z"/>
				</g>
			</g>
			<g>
				<g>
					<path fill="#808285" d="M93.5,150.5h0.8v2.7h0c0.3-0.5,0.8-0.8,1.5-0.8c1.1,0,1.8,0.9,1.8,2.2c0,1.6-1,2.3-2,2.3
						c-0.6,0-1.1-0.2-1.5-0.8h0l0,0.7h-0.7c0-0.3,0-0.7,0-1.1V150.5z M94.2,155.1c0,0.1,0,0.2,0,0.3c0.1,0.6,0.6,0.9,1.2,0.9
						c0.8,0,1.3-0.7,1.3-1.7c0-0.9-0.5-1.6-1.3-1.6c-0.5,0-1,0.4-1.2,1c0,0.1,0,0.2,0,0.3V155.1z"/>
				</g>
			</g>
			<g>
				<g>
					<path fill="#808285" d="M99,154.8c0,1.1,0.7,1.5,1.5,1.5c0.6,0,0.9-0.1,1.2-0.2l0.1,0.6c-0.3,0.1-0.8,0.3-1.5,0.3
						c-1.3,0-2.1-0.9-2.1-2.2c0-1.3,0.8-2.3,2-2.3c1.4,0,1.8,1.2,1.8,2c0,0.2,0,0.3,0,0.4H99z M101.4,154.3c0-0.5-0.2-1.3-1.1-1.3
						c-0.8,0-1.2,0.7-1.2,1.3H101.4z"/>
				</g>
			</g>
			<g>
				<g>
					<path fill="#808285" d="M103.1,153.9c0-0.5,0-1,0-1.4h0.7l0,0.9h0c0.2-0.6,0.7-1,1.2-1c0.1,0,0.1,0,0.2,0v0.7
						c-0.1,0-0.2,0-0.3,0c-0.6,0-1,0.4-1.1,1c0,0.1,0,0.2,0,0.4v2.3h-0.8V153.9z"/>
				</g>
			</g>
			<g>
				<g>
					<path fill="#808285" d="M111.8,156.9c-0.2-0.2-0.3-0.4-0.6-0.6c-0.5,0.5-1.1,0.7-1.8,0.7c-1.2,0-1.9-0.8-1.9-1.7
						c0-0.8,0.5-1.4,1.2-1.8v0c-0.3-0.4-0.5-0.8-0.5-1.3c0-0.7,0.5-1.5,1.5-1.5c0.8,0,1.3,0.5,1.3,1.3c0,0.6-0.4,1.1-1.3,1.6v0
						c0.5,0.6,1.1,1.3,1.5,1.7c0.3-0.4,0.5-1,0.6-1.8h0.7c-0.2,1-0.4,1.7-0.9,2.2c0.3,0.4,0.6,0.7,1,1.1H111.8z M110.8,155.8
						c-0.4-0.4-1-1.1-1.7-1.9c-0.3,0.2-0.8,0.6-0.8,1.2c0,0.7,0.5,1.2,1.3,1.2C110.1,156.4,110.5,156.1,110.8,155.8z M109,152.1
						c0,0.4,0.2,0.8,0.5,1.1c0.6-0.4,1-0.7,1-1.2c0-0.4-0.2-0.8-0.7-0.8C109.2,151.2,109,151.6,109,152.1z"/>
				</g>
			</g>
			<g>
				<g>
					<path fill="#808285" d="M115.3,150.8h0.8v5.4h2.6v0.7h-3.4V150.8z"/>
				</g>
			</g>
			<g>
				<g>
					<path fill="#808285" d="M123.4,154.7c0,1.6-1.1,2.3-2.2,2.3c-1.2,0-2.1-0.9-2.1-2.2c0-1.5,1-2.3,2.2-2.3
						C122.5,152.4,123.4,153.3,123.4,154.7z M119.9,154.7c0,1,0.5,1.7,1.3,1.7c0.8,0,1.3-0.7,1.3-1.7c0-0.7-0.4-1.7-1.3-1.7
						C120.3,153,119.9,153.9,119.9,154.7z"/>
				</g>
			</g>
			<g>
				<g>
					<path fill="#808285" d="M127.5,156.7c-0.2,0.1-0.7,0.3-1.3,0.3c-1.3,0-2.2-0.9-2.2-2.2c0-1.3,0.9-2.3,2.3-2.3
						c0.5,0,0.9,0.1,1.1,0.2l-0.2,0.6c-0.2-0.1-0.5-0.2-0.9-0.2c-1,0-1.5,0.7-1.5,1.7c0,1,0.6,1.6,1.5,1.6c0.5,0,0.7-0.1,1-0.2
						L127.5,156.7z"/>
				</g>
			</g>
			<g>
				<g>
					<path fill="#808285" d="M131.5,155.8c0,0.4,0,0.7,0.1,1h-0.7l-0.1-0.6h0c-0.2,0.3-0.7,0.6-1.3,0.6c-0.9,0-1.3-0.6-1.3-1.3
						c0-1.1,0.9-1.6,2.6-1.6V154c0-0.4-0.1-1-1-1c-0.4,0-0.8,0.1-1.1,0.3l-0.2-0.5c0.4-0.2,0.9-0.4,1.4-0.4c1.3,0,1.7,0.9,1.7,1.8
						V155.8z M130.7,154.6c-0.9,0-1.8,0.1-1.8,1c0,0.5,0.3,0.8,0.7,0.8c0.6,0,0.9-0.4,1.1-0.7c0-0.1,0-0.2,0-0.3V154.6z"/>
				</g>
			</g>
			<g>
				<g>
					<path fill="#808285" d="M133.7,151.5v1h1.1v0.6h-1.1v2.4c0,0.5,0.2,0.8,0.6,0.8c0.2,0,0.3,0,0.5-0.1l0,0.6
						c-0.2,0.1-0.4,0.1-0.7,0.1c-0.4,0-0.7-0.1-0.9-0.3c-0.2-0.2-0.3-0.6-0.3-1.1v-2.4h-0.7v-0.6h0.7v-0.8L133.7,151.5z"/>
				</g>
			</g>
			<g>
				<g>
					<path fill="#808285" d="M136.6,151.3c0,0.3-0.2,0.5-0.5,0.5c-0.3,0-0.5-0.2-0.5-0.5s0.2-0.5,0.5-0.5
						C136.4,150.8,136.6,151,136.6,151.3z M135.7,156.9v-4.4h0.8v4.4H135.7z"/>
				</g>
			</g>
			<g>
				<g>
					<path fill="#808285" d="M141.8,154.7c0,1.6-1.1,2.3-2.2,2.3c-1.2,0-2.1-0.9-2.1-2.2c0-1.5,1-2.3,2.2-2.3
						C140.9,152.4,141.8,153.3,141.8,154.7z M138.3,154.7c0,1,0.5,1.7,1.3,1.7c0.8,0,1.3-0.7,1.3-1.7c0-0.7-0.4-1.7-1.3-1.7
						C138.7,153,138.3,153.9,138.3,154.7z"/>
				</g>
			</g>
			<g>
				<g>
					<path fill="#808285" d="M142.8,153.7c0-0.5,0-0.8,0-1.2h0.7l0,0.7h0c0.2-0.4,0.7-0.8,1.4-0.8c0.6,0,1.5,0.4,1.5,1.9v2.6h-0.8
						v-2.5c0-0.7-0.3-1.3-1-1.3c-0.5,0-0.9,0.4-1.1,0.8c0,0.1-0.1,0.2-0.1,0.4v2.6h-0.8V153.7z"/>
				</g>
			</g>
		</g>
	</g>
	<g>
		<g>
			<g>
				<g>
					<path fill="#808285" d="M76.4,191.2l-0.6,1.9H75L77,187H78l2.1,6.1h-0.8l-0.6-1.9H76.4z M78.4,190.6l-0.6-1.7
						c-0.1-0.4-0.2-0.8-0.3-1.1h0c-0.1,0.4-0.2,0.7-0.3,1.1l-0.6,1.8H78.4z"/>
				</g>
			</g>
			<g>
				<g>
					<path fill="#808285" d="M84.5,191.9c0,0.5,0,0.9,0,1.2h-0.7l0-0.7h0c-0.2,0.4-0.7,0.8-1.4,0.8c-0.7,0-1.5-0.4-1.5-1.9v-2.6h0.8
						v2.4c0,0.8,0.3,1.4,1,1.4c0.5,0,0.9-0.4,1-0.7c0-0.1,0.1-0.3,0.1-0.4v-2.7h0.8V191.9z"/>
				</g>
			</g>
			<g>
				<g>
					<path fill="#808285" d="M86.7,187.7v1h1.1v0.6h-1.1v2.4c0,0.5,0.2,0.8,0.6,0.8c0.2,0,0.3,0,0.5-0.1l0,0.6
						c-0.2,0.1-0.4,0.1-0.7,0.1c-0.4,0-0.7-0.1-0.9-0.3c-0.2-0.2-0.3-0.6-0.3-1.1v-2.4h-0.7v-0.6H86v-0.8L86.7,187.7z"/>
				</g>
			</g>
			<g>
				<g>
					<path fill="#808285" d="M88.8,186.7h0.8v2.7h0c0.1-0.2,0.3-0.4,0.6-0.6c0.2-0.1,0.5-0.2,0.8-0.2c0.6,0,1.5,0.4,1.5,1.9v2.6
						h-0.8v-2.5c0-0.7-0.3-1.3-1-1.3c-0.5,0-0.9,0.4-1.1,0.8c0,0.1-0.1,0.2-0.1,0.4v2.6h-0.8V186.7z"/>
				</g>
			</g>
			<g>
				<g>
					<path fill="#808285" d="M94.2,191c0,1.1,0.7,1.5,1.5,1.5c0.6,0,0.9-0.1,1.2-0.2l0.1,0.6c-0.3,0.1-0.8,0.3-1.5,0.3
						c-1.3,0-2.1-0.9-2.1-2.2c0-1.3,0.8-2.3,2-2.3c1.4,0,1.8,1.2,1.8,2c0,0.2,0,0.3,0,0.4H94.2z M96.5,190.5c0-0.5-0.2-1.3-1.1-1.3
						c-0.8,0-1.2,0.7-1.2,1.3H96.5z"/>
				</g>
			</g>
			<g>
				<g>
					<path fill="#808285" d="M98.3,189.9c0-0.5,0-0.8,0-1.2h0.7l0,0.7h0c0.2-0.4,0.7-0.8,1.4-0.8c0.6,0,1.5,0.4,1.5,1.9v2.6h-0.8
						v-2.5c0-0.7-0.3-1.3-1-1.3c-0.5,0-0.9,0.4-1.1,0.8c0,0.1-0.1,0.2-0.1,0.4v2.6h-0.8V189.9z"/>
				</g>
			</g>
			<g>
				<g>
					<path fill="#808285" d="M104.2,187.7v1h1.1v0.6h-1.1v2.4c0,0.5,0.2,0.8,0.6,0.8c0.2,0,0.3,0,0.5-0.1l0,0.6
						c-0.2,0.1-0.4,0.1-0.7,0.1c-0.4,0-0.7-0.1-0.9-0.3c-0.2-0.2-0.3-0.6-0.3-1.1v-2.4h-0.7v-0.6h0.7v-0.8L104.2,187.7z"/>
				</g>
			</g>
			<g>
				<g>
					<path fill="#808285" d="M107.1,187.5c0,0.3-0.2,0.5-0.5,0.5c-0.3,0-0.5-0.2-0.5-0.5s0.2-0.5,0.5-0.5
						C106.9,187,107.1,187.2,107.1,187.5z M106.2,193.1v-4.4h0.8v4.4H106.2z"/>
				</g>
			</g>
			<g>
				<g>
					<path fill="#808285" d="M111.4,192.9c-0.2,0.1-0.7,0.3-1.3,0.3c-1.3,0-2.2-0.9-2.2-2.2c0-1.3,0.9-2.3,2.3-2.3
						c0.5,0,0.9,0.1,1.1,0.2l-0.2,0.6c-0.2-0.1-0.5-0.2-0.9-0.2c-1,0-1.5,0.7-1.5,1.7c0,1,0.6,1.6,1.5,1.6c0.5,0,0.7-0.1,1-0.2
						L111.4,192.9z"/>
				</g>
			</g>
			<g>
				<g>
					<path fill="#808285" d="M115.4,192c0,0.4,0,0.7,0.1,1h-0.7l-0.1-0.6h0c-0.2,0.3-0.7,0.6-1.3,0.6c-0.9,0-1.3-0.6-1.3-1.3
						c0-1.1,0.9-1.6,2.6-1.6v-0.1c0-0.4-0.1-1-1-1c-0.4,0-0.8,0.1-1.1,0.3l-0.2-0.5c0.4-0.2,0.9-0.4,1.4-0.4c1.3,0,1.7,0.9,1.7,1.8
						V192z M114.7,190.9c-0.9,0-1.8,0.1-1.8,1c0,0.5,0.3,0.8,0.7,0.8c0.6,0,0.9-0.4,1.1-0.7c0-0.1,0-0.2,0-0.3V190.9z"/>
				</g>
			</g>
			<g>
				<g>
					<path fill="#808285" d="M117.6,187.7v1h1.1v0.6h-1.1v2.4c0,0.5,0.2,0.8,0.6,0.8c0.2,0,0.3,0,0.5-0.1l0,0.6
						c-0.2,0.1-0.4,0.1-0.7,0.1c-0.4,0-0.7-0.1-0.9-0.3c-0.2-0.2-0.3-0.6-0.3-1.1v-2.4h-0.7v-0.6h0.7v-0.8L117.6,187.7z"/>
				</g>
			</g>
			<g>
				<g>
					<path fill="#808285" d="M120.5,187.5c0,0.3-0.2,0.5-0.5,0.5c-0.3,0-0.5-0.2-0.5-0.5s0.2-0.5,0.5-0.5
						C120.3,187,120.5,187.2,120.5,187.5z M119.7,193.1v-4.4h0.8v4.4H119.7z"/>
				</g>
			</g>
			<g>
				<g>
					<path fill="#808285" d="M125.7,190.9c0,1.6-1.1,2.3-2.2,2.3c-1.2,0-2.1-0.9-2.1-2.2c0-1.5,1-2.3,2.2-2.3
						C124.9,188.6,125.7,189.5,125.7,190.9z M122.3,190.9c0,1,0.5,1.7,1.3,1.7c0.8,0,1.3-0.7,1.3-1.7c0-0.7-0.4-1.7-1.3-1.7
						C122.7,189.2,122.3,190.1,122.3,190.9z"/>
				</g>
			</g>
			<g>
				<g>
					<path fill="#808285" d="M126.7,189.9c0-0.5,0-0.8,0-1.2h0.7l0,0.7h0c0.2-0.4,0.7-0.8,1.4-0.8c0.6,0,1.5,0.4,1.5,1.9v2.6h-0.8
						v-2.5c0-0.7-0.3-1.3-1-1.3c-0.5,0-0.9,0.4-1.1,0.8c0,0.1-0.1,0.2-0.1,0.4v2.6h-0.8V189.9z"/>
				</g>
			</g>
		</g>
		<g>
			<g>
				<g>
					<path fill="#808285" d="M127.9,203.1h-50c-6.9,0-12.6-5.6-12.6-12.6v-0.2c0-6.9,5.6-12.6,12.6-12.6h50
						c6.9,0,12.6,5.6,12.6,12.6v0.2C140.5,197.5,134.8,203.1,127.9,203.1z M77.9,178.8c-6.4,0-11.6,5.2-11.6,11.6v0.2
						c0,6.4,5.2,11.6,11.6,11.6h50c6.4,0,11.6-5.2,11.6-11.6v-0.2c0-6.4-5.2-11.6-11.6-11.6H77.9z"/>
				</g>
			</g>
		</g>
	</g>
	<g>
		<g>
			<g>
				<g>
					<path fill="#808285" d="M248.9,130.7h-50c-6.9,0-12.6-5.6-12.6-12.6v-0.2c0-6.9,5.6-12.6,12.6-12.6h50
						c6.9,0,12.6,5.6,12.6,12.6v0.2C261.5,125,255.8,130.7,248.9,130.7z M198.9,106.3c-6.4,0-11.6,5.2-11.6,11.6v0.2
						c0,6.4,5.2,11.6,11.6,11.6h50c6.4,0,11.6-5.2,11.6-11.6v-0.2c0-6.4-5.2-11.6-11.6-11.6H198.9z"/>
				</g>
			</g>
		</g>
		<g>
			<g>
				<g>
					<path fill="#808285" d="M210.2,119.7c0.4,0.2,0.9,0.4,1.4,0.4c0.8,0,1.3-0.4,1.3-1c0-0.6-0.3-0.9-1.1-1.2
						c-1-0.4-1.6-0.9-1.6-1.7c0-0.9,0.8-1.7,2-1.7c0.6,0,1.1,0.1,1.3,0.3l-0.2,0.6c-0.2-0.1-0.6-0.3-1.1-0.3c-0.8,0-1.1,0.5-1.1,0.9
						c0,0.6,0.4,0.8,1.2,1.2c1,0.4,1.5,0.9,1.5,1.8c0,0.9-0.7,1.8-2.1,1.8c-0.6,0-1.2-0.2-1.6-0.4L210.2,119.7z"/>
				</g>
			</g>
			<g>
				<g>
					<path fill="#808285" d="M215.6,115.1c0,0.3-0.2,0.5-0.5,0.5c-0.3,0-0.5-0.2-0.5-0.5s0.2-0.5,0.5-0.5
						C215.4,114.6,215.6,114.8,215.6,115.1z M214.7,120.7v-4.4h0.8v4.4H214.7z"/>
				</g>
			</g>
			<g>
				<g>
					<path fill="#808285" d="M220.6,120c0,1-0.2,1.6-0.6,2c-0.4,0.4-1,0.5-1.6,0.5c-0.5,0-1.1-0.1-1.5-0.4l0.2-0.6
						c0.3,0.2,0.7,0.4,1.3,0.4c0.8,0,1.4-0.4,1.4-1.5v-0.5h0c-0.2,0.4-0.7,0.7-1.4,0.7c-1.1,0-1.9-0.9-1.9-2.1c0-1.5,1-2.3,2-2.3
						c0.8,0,1.2,0.4,1.4,0.7h0l0-0.7h0.7c0,0.3,0,0.7,0,1.2V120z M219.8,118c0-0.1,0-0.3,0-0.4c-0.1-0.5-0.5-0.8-1.1-0.8
						c-0.8,0-1.3,0.6-1.3,1.7c0,0.9,0.4,1.6,1.3,1.6c0.5,0,0.9-0.3,1.1-0.8c0-0.1,0.1-0.3,0.1-0.4V118z"/>
				</g>
			</g>
			<g>
				<g>
					<path fill="#808285" d="M221.8,117.5c0-0.5,0-0.8,0-1.2h0.7l0,0.7h0c0.2-0.4,0.7-0.8,1.4-0.8c0.6,0,1.5,0.4,1.5,1.9v2.6h-0.8
						v-2.5c0-0.7-0.3-1.3-1-1.3c-0.5,0-0.9,0.4-1.1,0.8c0,0.1-0.1,0.2-0.1,0.4v2.6h-0.8V117.5z"/>
				</g>
			</g>
			<g>
				<g>
					<path fill="#808285" d="M232.4,119.5c0,0.5,0,0.9,0,1.2h-0.7l0-0.7h0c-0.2,0.4-0.7,0.8-1.4,0.8c-0.7,0-1.5-0.4-1.5-1.9v-2.6
						h0.8v2.4c0,0.8,0.3,1.4,1,1.4c0.5,0,0.9-0.4,1-0.7c0-0.1,0.1-0.3,0.1-0.4v-2.7h0.8V119.5z"/>
				</g>
			</g>
			<g>
				<g>
					<path fill="#808285" d="M233.7,117.7c0-0.6,0-1,0-1.4h0.7l0,0.7h0c0.3-0.5,0.8-0.8,1.6-0.8c1.1,0,1.9,0.9,1.9,2.2
						c0,1.6-1,2.3-2,2.3c-0.6,0-1.1-0.3-1.3-0.7h0v2.4h-0.8V117.7z M234.5,118.9c0,0.1,0,0.2,0,0.3c0.1,0.5,0.6,0.9,1.2,0.9
						c0.8,0,1.3-0.7,1.3-1.7c0-0.9-0.5-1.6-1.3-1.6c-0.5,0-1.1,0.4-1.2,1c0,0.1-0.1,0.2-0.1,0.3V118.9z"/>
				</g>
			</g>
		</g>
	</g>
	<g>
		<g>
			<g>
				<g>
					<path fill="#808285" d="M248.9,166.9h-50c-6.9,0-12.6-5.6-12.6-12.6v-0.2c0-6.9,5.6-12.6,12.6-12.6h50
						c6.9,0,12.6,5.6,12.6,12.6v0.2C261.5,161.3,255.8,166.9,248.9,166.9z M198.9,142.6c-6.4,0-11.6,5.2-11.6,11.6v0.2
						c0,6.4,5.2,11.6,11.6,11.6h50c6.4,0,11.6-5.2,11.6-11.6v-0.2c0-6.4-5.2-11.6-11.6-11.6H198.9z"/>
				</g>
			</g>
		</g>
		<g>
			<g>
				<g>
					<path fill="#808285" d="M212.7,150.9c0.4-0.1,0.9-0.1,1.5-0.1c0.8,0,1.3,0.2,1.7,0.5c0.3,0.3,0.5,0.7,0.5,1.3
						c0,0.6-0.2,1-0.5,1.3c-0.4,0.4-1.1,0.7-1.9,0.7c-0.2,0-0.5,0-0.6-0.1v2.4h-0.8V150.9z M213.5,153.8c0.2,0,0.4,0.1,0.6,0.1
						c0.9,0,1.5-0.5,1.5-1.3c0-0.8-0.6-1.2-1.4-1.2c-0.3,0-0.6,0-0.7,0.1V153.8z"/>
				</g>
			</g>
			<g>
				<g>
					<path fill="#808285" d="M217.3,153.9c0-0.5,0-1,0-1.4h0.7l0,0.9h0c0.2-0.6,0.7-1,1.2-1c0.1,0,0.1,0,0.2,0v0.7
						c-0.1,0-0.2,0-0.3,0c-0.6,0-1,0.4-1.1,1c0,0.1,0,0.2,0,0.4v2.3h-0.8V153.9z"/>
				</g>
			</g>
			<g>
				<g>
					<path fill="#808285" d="M224.1,154.7c0,1.6-1.1,2.3-2.2,2.3c-1.2,0-2.1-0.9-2.1-2.2c0-1.5,1-2.3,2.2-2.3
						C223.3,152.4,224.1,153.3,224.1,154.7z M220.7,154.7c0,1,0.5,1.7,1.3,1.7c0.8,0,1.3-0.7,1.3-1.7c0-0.7-0.4-1.7-1.3-1.7
						C221.1,153,220.7,153.9,220.7,154.7z"/>
				</g>
			</g>
			<g>
				<g>
					<path fill="#808285" d="M225.2,156.9v-3.8h-0.6v-0.6h0.6v-0.2c0-1.1,0.7-1.9,1.9-1.9c0.4,0,0.9,0.1,1.1,0.3l-0.2,0.6
						c-0.2-0.1-0.5-0.3-0.9-0.3c-0.8,0-1.1,0.6-1.1,1.3v0.2h2.5v4.4h-0.8v-3.8H226v3.8H225.2z"/>
				</g>
			</g>
			<g>
				<g>
					<path fill="#808285" d="M229.8,150.5h0.8v6.4h-0.8V150.5z"/>
				</g>
			</g>
			<g>
				<g>
					<path fill="#808285" d="M232.4,154.8c0,1.1,0.7,1.5,1.5,1.5c0.6,0,0.9-0.1,1.2-0.2l0.1,0.6c-0.3,0.1-0.8,0.3-1.5,0.3
						c-1.3,0-2.1-0.9-2.1-2.2c0-1.3,0.8-2.3,2-2.3c1.4,0,1.8,1.2,1.8,2c0,0.2,0,0.3,0,0.4H232.4z M234.7,154.3
						c0-0.5-0.2-1.3-1.1-1.3c-0.8,0-1.2,0.7-1.2,1.3H234.7z"/>
				</g>
			</g>
		</g>
	</g>
	<g>
		<g>
			<g>
				<g>
					<path fill="#808285" d="M196.7,239.3h-62.1c-6.9,0-12.6-5.6-12.6-12.6v-0.2c0-6.9,5.6-12.6,12.6-12.6h62.1
						c6.9,0,12.6,5.6,12.6,12.6v0.2C209.2,233.7,203.6,239.3,196.7,239.3z M134.6,215c-6.4,0-11.6,5.2-11.6,11.6v0.2
						c0,6.4,5.2,11.6,11.6,11.6h62.1c6.4,0,11.6-5.2,11.6-11.6v-0.2c0-6.4-5.2-11.6-11.6-11.6H134.6z"/>
				</g>
			</g>
		</g>
		<g>
			<g>
				<g>
					<path fill="#808285" d="M132.2,223.3c0.4-0.1,0.9-0.1,1.5-0.1c0.8,0,1.3,0.2,1.7,0.5c0.3,0.3,0.5,0.7,0.5,1.3
						c0,0.6-0.2,1-0.5,1.3c-0.4,0.4-1.1,0.7-1.9,0.7c-0.2,0-0.5,0-0.6-0.1v2.4h-0.8V223.3z M133,226.2c0.2,0,0.4,0.1,0.6,0.1
						c0.9,0,1.5-0.5,1.5-1.3c0-0.8-0.6-1.2-1.4-1.2c-0.3,0-0.6,0-0.7,0.1V226.2z"/>
				</g>
			</g>
			<g>
				<g>
					<path fill="#808285" d="M136.9,222.9h0.8v2.7h0c0.1-0.2,0.3-0.4,0.6-0.6c0.2-0.1,0.5-0.2,0.8-0.2c0.6,0,1.5,0.4,1.5,1.9v2.6
						h-0.8v-2.5c0-0.7-0.3-1.3-1-1.3c-0.5,0-0.9,0.4-1.1,0.8c0,0.1-0.1,0.2-0.1,0.4v2.6h-0.8V222.9z"/>
				</g>
			</g>
			<g>
				<g>
					<path fill="#808285" d="M145.9,227.1c0,1.6-1.1,2.3-2.2,2.3c-1.2,0-2.1-0.9-2.1-2.2c0-1.5,1-2.3,2.2-2.3
						C145,224.8,145.9,225.8,145.9,227.1z M142.4,227.1c0,1,0.5,1.7,1.3,1.7c0.8,0,1.3-0.7,1.3-1.7c0-0.7-0.4-1.7-1.3-1.7
						C142.8,225.4,142.4,226.3,142.4,227.1z"/>
				</g>
			</g>
			<g>
				<g>
					<path fill="#808285" d="M146.9,226.1c0-0.5,0-0.8,0-1.2h0.7l0,0.7h0c0.2-0.4,0.7-0.8,1.4-0.8c0.6,0,1.5,0.4,1.5,1.9v2.6h-0.8
						v-2.5c0-0.7-0.3-1.3-1-1.3c-0.5,0-0.9,0.4-1.1,0.8c0,0.1-0.1,0.2-0.1,0.4v2.6h-0.8V226.1z"/>
				</g>
			</g>
			<g>
				<g>
					<path fill="#808285" d="M152.3,227.3c0,1.1,0.7,1.5,1.5,1.5c0.6,0,0.9-0.1,1.2-0.2l0.1,0.6c-0.3,0.1-0.8,0.3-1.5,0.3
						c-1.3,0-2.1-0.9-2.1-2.2c0-1.3,0.8-2.3,2-2.3c1.4,0,1.8,1.2,1.8,2c0,0.2,0,0.3,0,0.4H152.3z M154.6,226.7
						c0-0.5-0.2-1.3-1.1-1.3c-0.8,0-1.2,0.7-1.2,1.3H154.6z"/>
				</g>
			</g>
			<g>
				<g>
					<path fill="#808285" d="M159.3,229.3l-2-6.1h0.9l0.9,3c0.3,0.8,0.5,1.6,0.6,2.3h0c0.2-0.7,0.4-1.5,0.7-2.3l1-3h0.8l-2.2,6.1
						H159.3z"/>
				</g>
			</g>
			<g>
				<g>
					<path fill="#808285" d="M163.2,227.3c0,1.1,0.7,1.5,1.5,1.5c0.6,0,0.9-0.1,1.2-0.2l0.1,0.6c-0.3,0.1-0.8,0.3-1.5,0.3
						c-1.3,0-2.1-0.9-2.1-2.2c0-1.3,0.8-2.3,2-2.3c1.4,0,1.8,1.2,1.8,2c0,0.2,0,0.3,0,0.4H163.2z M165.5,226.7
						c0-0.5-0.2-1.3-1.1-1.3c-0.8,0-1.2,0.7-1.2,1.3H165.5z"/>
				</g>
			</g>
			<g>
				<g>
					<path fill="#808285" d="M167.2,226.3c0-0.5,0-1,0-1.4h0.7l0,0.9h0c0.2-0.6,0.7-1,1.2-1c0.1,0,0.1,0,0.2,0v0.7
						c-0.1,0-0.2,0-0.3,0c-0.6,0-1,0.4-1.1,1c0,0.1,0,0.2,0,0.4v2.3h-0.8V226.3z"/>
				</g>
			</g>
			<g>
				<g>
					<path fill="#808285" d="M171.1,223.7c0,0.3-0.2,0.5-0.5,0.5c-0.3,0-0.5-0.2-0.5-0.5s0.2-0.5,0.5-0.5
						C170.9,223.2,171.1,223.4,171.1,223.7z M170.2,229.3v-4.4h0.8v4.4H170.2z"/>
				</g>
			</g>
			<g>
				<g>
					<path fill="#808285" d="M172.4,229.3v-3.8h-0.6v-0.6h0.6v-0.2c0-1.1,0.7-1.9,1.9-1.9c0.4,0,0.9,0.1,1.1,0.3l-0.2,0.6
						c-0.2-0.1-0.5-0.3-0.9-0.3c-0.8,0-1.1,0.6-1.1,1.3v0.2h2.5v4.4h-0.8v-3.8h-1.7v3.8H172.4z"/>
				</g>
			</g>
			<g>
				<g>
					<path fill="#808285" d="M180.1,229.1c-0.2,0.1-0.7,0.3-1.3,0.3c-1.3,0-2.2-0.9-2.2-2.2c0-1.3,0.9-2.3,2.3-2.3
						c0.5,0,0.9,0.1,1.1,0.2l-0.2,0.6c-0.2-0.1-0.5-0.2-0.9-0.2c-1,0-1.5,0.7-1.5,1.7c0,1,0.6,1.6,1.5,1.6c0.5,0,0.7-0.1,1-0.2
						L180.1,229.1z"/>
				</g>
			</g>
			<g>
				<g>
					<path fill="#808285" d="M184.1,228.3c0,0.4,0,0.7,0.1,1h-0.7l-0.1-0.6h0c-0.2,0.3-0.7,0.6-1.3,0.6c-0.9,0-1.3-0.6-1.3-1.3
						c0-1.1,0.9-1.6,2.6-1.6v-0.1c0-0.4-0.1-1-1-1c-0.4,0-0.8,0.1-1.1,0.3l-0.2-0.5c0.4-0.2,0.9-0.4,1.4-0.4c1.3,0,1.7,0.9,1.7,1.8
						V228.3z M183.4,227.1c-0.9,0-1.8,0.1-1.8,1c0,0.5,0.3,0.8,0.7,0.8c0.6,0,0.9-0.4,1.1-0.7c0-0.1,0-0.2,0-0.3V227.1z"/>
				</g>
			</g>
			<g>
				<g>
					<path fill="#808285" d="M186.3,223.9v1h1.1v0.6h-1.1v2.4c0,0.5,0.2,0.8,0.6,0.8c0.2,0,0.3,0,0.5-0.1l0,0.6
						c-0.2,0.1-0.4,0.1-0.7,0.1c-0.4,0-0.7-0.1-0.9-0.3c-0.2-0.2-0.3-0.6-0.3-1.1v-2.4h-0.7v-0.6h0.7v-0.8L186.3,223.9z"/>
				</g>
			</g>
			<g>
				<g>
					<path fill="#808285" d="M189.2,223.7c0,0.3-0.2,0.5-0.5,0.5c-0.3,0-0.5-0.2-0.5-0.5s0.2-0.5,0.5-0.5
						C189,223.2,189.2,223.4,189.2,223.7z M188.4,229.3v-4.4h0.8v4.4H188.4z"/>
				</g>
			</g>
			<g>
				<g>
					<path fill="#808285" d="M194.4,227.1c0,1.6-1.1,2.3-2.2,2.3c-1.2,0-2.1-0.9-2.1-2.2c0-1.5,1-2.3,2.2-2.3
						C193.6,224.8,194.4,225.8,194.4,227.1z M191,227.1c0,1,0.5,1.7,1.3,1.7c0.8,0,1.3-0.7,1.3-1.7c0-0.7-0.4-1.7-1.3-1.7
						C191.4,225.4,191,226.3,191,227.1z"/>
				</g>
			</g>
			<g>
				<g>
					<path fill="#808285" d="M195.4,226.1c0-0.5,0-0.8,0-1.2h0.7l0,0.7h0c0.2-0.4,0.7-0.8,1.4-0.8c0.6,0,1.5,0.4,1.5,1.9v2.6h-0.8
						v-2.5c0-0.7-0.3-1.3-1-1.3c-0.5,0-0.9,0.4-1.1,0.8c0,0.1-0.1,0.2-0.1,0.4v2.6h-0.8V226.1z"/>
				</g>
			</g>
		</g>
	</g>
	<g>
		<g>
			<g>
				<g>
					<path fill="#808285" d="M196.7,275.5h-62.1c-6.9,0-12.6-5.6-12.6-12.6v-0.2c0-6.9,5.6-12.6,12.6-12.6h62.1
						c6.9,0,12.6,5.6,12.6,12.6v0.2C209.2,269.9,203.6,275.5,196.7,275.5z M134.6,251.2c-6.4,0-11.6,5.2-11.6,11.6v0.2
						c0,6.4,5.2,11.6,11.6,11.6h62.1c6.4,0,11.6-5.2,11.6-11.6v-0.2c0-6.4-5.2-11.6-11.6-11.6H134.6z"/>
				</g>
			</g>
		</g>
		<g>
			<g>
				<g>
					<path fill="#808285" d="M134.8,259.4v6.1H134v-6.1H134.8z"/>
				</g>
			</g>
			<g>
				<g>
					<path fill="#808285" d="M136.2,262.3c0-0.5,0-0.8,0-1.2h0.7l0,0.7h0c0.2-0.4,0.7-0.8,1.4-0.8c0.6,0,1.5,0.4,1.5,1.9v2.6h-0.8
						V263c0-0.7-0.3-1.3-1-1.3c-0.5,0-0.9,0.4-1.1,0.8c0,0.1-0.1,0.2-0.1,0.4v2.6h-0.8V262.3z"/>
				</g>
			</g>
			<g>
				<g>
					<path fill="#808285" d="M142.1,260.1v1h1.1v0.6h-1.1v2.4c0,0.5,0.2,0.8,0.6,0.8c0.2,0,0.3,0,0.5-0.1l0,0.6
						c-0.2,0.1-0.4,0.1-0.7,0.1c-0.4,0-0.7-0.1-0.9-0.3c-0.2-0.2-0.3-0.6-0.3-1.1v-2.4h-0.7v-0.6h0.7v-0.8L142.1,260.1z"/>
				</g>
			</g>
			<g>
				<g>
					<path fill="#808285" d="M144.5,263.5c0,1.1,0.7,1.5,1.5,1.5c0.6,0,0.9-0.1,1.2-0.2l0.1,0.6c-0.3,0.1-0.8,0.3-1.5,0.3
						c-1.3,0-2.1-0.9-2.1-2.2c0-1.3,0.8-2.3,2-2.3c1.4,0,1.8,1.2,1.8,2c0,0.2,0,0.3,0,0.4H144.5z M146.9,262.9
						c0-0.5-0.2-1.3-1.1-1.3c-0.8,0-1.2,0.7-1.2,1.3H146.9z"/>
				</g>
			</g>
			<g>
				<g>
					<path fill="#808285" d="M148.6,262.5c0-0.5,0-1,0-1.4h0.7l0,0.9h0c0.2-0.6,0.7-1,1.2-1c0.1,0,0.1,0,0.2,0v0.7
						c-0.1,0-0.2,0-0.3,0c-0.6,0-1,0.4-1.1,1c0,0.1,0,0.2,0,0.4v2.3h-0.8V262.5z"/>
				</g>
			</g>
			<g>
				<g>
					<path fill="#808285" d="M151.9,263.5c0,1.1,0.7,1.5,1.5,1.5c0.6,0,0.9-0.1,1.2-0.2l0.1,0.6c-0.3,0.1-0.8,0.3-1.5,0.3
						c-1.3,0-2.1-0.9-2.1-2.2c0-1.3,0.8-2.3,2-2.3c1.4,0,1.8,1.2,1.8,2c0,0.2,0,0.3,0,0.4H151.9z M154.2,262.9
						c0-0.5-0.2-1.3-1.1-1.3c-0.8,0-1.2,0.7-1.2,1.3H154.2z"/>
				</g>
			</g>
			<g>
				<g>
					<path fill="#808285" d="M155.9,264.7c0.2,0.1,0.7,0.3,1.1,0.3c0.6,0,0.8-0.3,0.8-0.6c0-0.4-0.2-0.6-0.8-0.8
						c-0.8-0.3-1.2-0.7-1.2-1.2c0-0.7,0.6-1.3,1.5-1.3c0.4,0,0.8,0.1,1.1,0.3l-0.2,0.6c-0.2-0.1-0.5-0.3-0.9-0.3
						c-0.5,0-0.7,0.3-0.7,0.6c0,0.4,0.3,0.5,0.8,0.7c0.7,0.3,1.1,0.7,1.1,1.3c0,0.8-0.6,1.3-1.6,1.3c-0.5,0-0.9-0.1-1.2-0.3
						L155.9,264.7z"/>
				</g>
			</g>
			<g>
				<g>
					<path fill="#808285" d="M160.5,260.1v1h1.1v0.6h-1.1v2.4c0,0.5,0.2,0.8,0.6,0.8c0.2,0,0.3,0,0.5-0.1l0,0.6
						c-0.2,0.1-0.4,0.1-0.7,0.1c-0.4,0-0.7-0.1-0.9-0.3c-0.2-0.2-0.3-0.6-0.3-1.1v-2.4h-0.7v-0.6h0.7v-0.8L160.5,260.1z"/>
				</g>
			</g>
			<g>
				<g>
					<path fill="#808285" d="M162.4,264.7c0.2,0.1,0.7,0.3,1.1,0.3c0.6,0,0.8-0.3,0.8-0.6c0-0.4-0.2-0.6-0.8-0.8
						c-0.8-0.3-1.2-0.7-1.2-1.2c0-0.7,0.6-1.3,1.5-1.3c0.4,0,0.8,0.1,1.1,0.3l-0.2,0.6c-0.2-0.1-0.5-0.3-0.9-0.3
						c-0.5,0-0.7,0.3-0.7,0.6c0,0.4,0.3,0.5,0.8,0.7c0.7,0.3,1.1,0.7,1.1,1.3c0,0.8-0.6,1.3-1.6,1.3c-0.5,0-0.9-0.1-1.2-0.3
						L162.4,264.7z"/>
				</g>
			</g>
			<g>
				<g>
					<path fill="#808285" d="M167.9,264.6c0.4,0.2,0.9,0.4,1.4,0.4c0.8,0,1.3-0.4,1.3-1c0-0.6-0.3-0.9-1.1-1.2
						c-1-0.4-1.6-0.9-1.6-1.7c0-0.9,0.8-1.7,2-1.7c0.6,0,1.1,0.1,1.3,0.3l-0.2,0.6c-0.2-0.1-0.6-0.3-1.1-0.3c-0.8,0-1.1,0.5-1.1,0.9
						c0,0.6,0.4,0.8,1.2,1.2c1,0.4,1.5,0.9,1.5,1.8c0,0.9-0.7,1.8-2.1,1.8c-0.6,0-1.2-0.2-1.6-0.4L167.9,264.6z"/>
				</g>
			</g>
			<g>
				<g>
					<path fill="#808285" d="M172.9,263.5c0,1.1,0.7,1.5,1.5,1.5c0.6,0,0.9-0.1,1.2-0.2l0.1,0.6c-0.3,0.1-0.8,0.3-1.5,0.3
						c-1.3,0-2.1-0.9-2.1-2.2c0-1.3,0.8-2.3,2-2.3c1.4,0,1.8,1.2,1.8,2c0,0.2,0,0.3,0,0.4H172.9z M175.3,262.9
						c0-0.5-0.2-1.3-1.1-1.3c-0.8,0-1.2,0.7-1.2,1.3H175.3z"/>
				</g>
			</g>
			<g>
				<g>
					<path fill="#808285" d="M177,259.1h0.8v6.4H177V259.1z"/>
				</g>
			</g>
			<g>
				<g>
					<path fill="#808285" d="M179.6,263.5c0,1.1,0.7,1.5,1.5,1.5c0.6,0,0.9-0.1,1.2-0.2l0.1,0.6c-0.3,0.1-0.8,0.3-1.5,0.3
						c-1.3,0-2.1-0.9-2.1-2.2c0-1.3,0.8-2.3,2-2.3c1.4,0,1.8,1.2,1.8,2c0,0.2,0,0.3,0,0.4H179.6z M181.9,262.9
						c0-0.5-0.2-1.3-1.1-1.3c-0.8,0-1.2,0.7-1.2,1.3H181.9z"/>
				</g>
			</g>
			<g>
				<g>
					<path fill="#808285" d="M186.8,265.4c-0.2,0.1-0.7,0.3-1.3,0.3c-1.3,0-2.2-0.9-2.2-2.2c0-1.3,0.9-2.3,2.3-2.3
						c0.5,0,0.9,0.1,1.1,0.2l-0.2,0.6c-0.2-0.1-0.5-0.2-0.9-0.2c-1,0-1.5,0.7-1.5,1.7c0,1,0.6,1.6,1.5,1.6c0.5,0,0.7-0.1,1-0.2
						L186.8,265.4z"/>
				</g>
			</g>
			<g>
				<g>
					<path fill="#808285" d="M188.8,260.1v1h1.1v0.6h-1.1v2.4c0,0.5,0.2,0.8,0.6,0.8c0.2,0,0.3,0,0.5-0.1l0,0.6
						c-0.2,0.1-0.4,0.1-0.7,0.1c-0.4,0-0.7-0.1-0.9-0.3c-0.2-0.2-0.3-0.6-0.3-1.1v-2.4h-0.7v-0.6h0.7v-0.8L188.8,260.1z"/>
				</g>
			</g>
			<g>
				<g>
					<path fill="#808285" d="M194.7,263.3c0,1.6-1.1,2.3-2.2,2.3c-1.2,0-2.1-0.9-2.1-2.2c0-1.5,1-2.3,2.2-2.3
						C193.8,261.1,194.7,262,194.7,263.3z M191.2,263.3c0,1,0.5,1.7,1.3,1.7c0.8,0,1.3-0.7,1.3-1.7c0-0.7-0.4-1.7-1.3-1.7
						C191.6,261.7,191.2,262.5,191.2,263.3z"/>
				</g>
			</g>
			<g>
				<g>
					<path fill="#808285" d="M195.7,262.5c0-0.5,0-1,0-1.4h0.7l0,0.9h0c0.2-0.6,0.7-1,1.2-1c0.1,0,0.1,0,0.2,0v0.7
						c-0.1,0-0.2,0-0.3,0c-0.6,0-1,0.4-1.1,1c0,0.1,0,0.2,0,0.4v2.3h-0.8V262.5z"/>
				</g>
			</g>
		</g>
	</g>
	<g>
		<g>
			<g>
				<g>
					<path fill="#808285" d="M181.1,311.7h-30.9c-6.9,0-12.6-5.6-12.6-12.6V299c0-6.9,5.6-12.6,12.6-12.6h30.9
						c6.9,0,12.6,5.6,12.6,12.6v0.2C193.7,306.1,188,311.7,181.1,311.7z M150.2,287.4c-6.4,0-11.6,5.2-11.6,11.6v0.2
						c0,6.4,5.2,11.6,11.6,11.6h30.9c6.4,0,11.6-5.2,11.6-11.6V299c0-6.4-5.2-11.6-11.6-11.6H150.2z"/>
				</g>
			</g>
		</g>
		<g>
			<g>
				<g>
					<path fill="#808285" d="M153.6,300.8c0.4,0.2,0.9,0.4,1.4,0.4c0.8,0,1.3-0.4,1.3-1c0-0.6-0.3-0.9-1.1-1.2
						c-1-0.4-1.6-0.9-1.6-1.7c0-0.9,0.8-1.7,2-1.7c0.6,0,1.1,0.1,1.3,0.3l-0.2,0.6c-0.2-0.1-0.6-0.3-1.1-0.3c-0.8,0-1.1,0.5-1.1,0.9
						c0,0.6,0.4,0.8,1.2,1.2c1,0.4,1.5,0.9,1.5,1.8c0,0.9-0.7,1.8-2.1,1.8c-0.6,0-1.2-0.2-1.6-0.4L153.6,300.8z"/>
				</g>
			</g>
			<g>
				<g>
					<path fill="#808285" d="M158.6,299.7c0,1.1,0.7,1.5,1.5,1.5c0.6,0,0.9-0.1,1.2-0.2l0.1,0.6c-0.3,0.1-0.8,0.3-1.5,0.3
						c-1.3,0-2.1-0.9-2.1-2.2s0.8-2.3,2-2.3c1.4,0,1.8,1.2,1.8,2c0,0.2,0,0.3,0,0.4H158.6z M160.9,299.1c0-0.5-0.2-1.3-1.1-1.3
						c-0.8,0-1.2,0.7-1.2,1.3H160.9z"/>
				</g>
			</g>
			<g>
				<g>
					<path fill="#808285" d="M165.8,300.7c0,0.4,0,0.7,0.1,1h-0.7l-0.1-0.5h0c-0.2,0.3-0.7,0.6-1.3,0.6c-0.9,0-1.3-0.6-1.3-1.3
						c0-1.1,0.9-1.6,2.6-1.6v-0.1c0-0.4-0.1-1-1-1c-0.4,0-0.8,0.1-1.1,0.3l-0.2-0.5c0.4-0.2,0.9-0.4,1.4-0.4c1.3,0,1.7,0.9,1.7,1.8
						V300.7z M165,299.5c-0.9,0-1.8,0.1-1.8,1c0,0.5,0.3,0.8,0.7,0.8c0.6,0,0.9-0.4,1.1-0.7c0-0.1,0-0.2,0-0.3V299.5z"/>
				</g>
			</g>
			<g>
				<g>
					<path fill="#808285" d="M167,298.7c0-0.5,0-1,0-1.4h0.7l0,0.9h0c0.2-0.6,0.7-1,1.2-1c0.1,0,0.1,0,0.2,0v0.7c-0.1,0-0.2,0-0.3,0
						c-0.6,0-1,0.4-1.1,1c0,0.1,0,0.2,0,0.4v2.3H167V298.7z"/>
				</g>
			</g>
			<g>
				<g>
					<path fill="#808285" d="M173,301.6c-0.2,0.1-0.7,0.3-1.3,0.3c-1.3,0-2.2-0.9-2.2-2.2c0-1.3,0.9-2.3,2.3-2.3
						c0.5,0,0.9,0.1,1.1,0.2l-0.2,0.6c-0.2-0.1-0.5-0.2-0.9-0.2c-1,0-1.5,0.7-1.5,1.7c0,1,0.6,1.6,1.5,1.6c0.5,0,0.7-0.1,1-0.2
						L173,301.6z"/>
				</g>
			</g>
			<g>
				<g>
					<path fill="#808285" d="M173.9,295.3h0.8v2.7h0c0.1-0.2,0.3-0.4,0.6-0.6c0.2-0.1,0.5-0.2,0.8-0.2c0.6,0,1.5,0.4,1.5,1.9v2.6
						h-0.8v-2.5c0-0.7-0.3-1.3-1-1.3c-0.5,0-0.9,0.4-1.1,0.8c0,0.1-0.1,0.2-0.1,0.4v2.6h-0.8V295.3z"/>
				</g>
			</g>
		</g>
	</g>
	<g>
		<g>
			<g>
				<polygon fill="#808285" points="231.3,105.8 230.3,105.8 230.3,73.2 207.7,73.2 207.7,72.2 231.3,72.2 				"/>
			</g>
		</g>
	</g>
	<g>
		<g>
			<g>
				<polygon fill="#808285" points="101.7,105.8 100.7,105.8 100.7,72.2 126.9,72.2 126.9,73.2 101.7,73.2 				"/>
			</g>
		</g>
	</g>
	<g>
		<g>
			<g>
				<rect x="230.3" y="130.2" fill="#808285" width="1" height="11.9"/>
			</g>
		</g>
	</g>
	<g>
		<g>
			<g>
				<rect x="165.1" y="238.9" fill="#808285" width="1" height="11.9"/>
			</g>
		</g>
	</g>
	<g>
		<g>
			<g>
				<rect x="165.1" y="275" fill="#808285" width="1" height="11.9"/>
			</g>
		</g>
	</g>
	<g>
		<g>
			<g>
				<rect x="100.7" y="130.2" fill="#808285" width="1" height="11.9"/>
			</g>
		</g>
	</g>
	<g>
		<g>
			<g>
				<rect x="100.7" y="166.4" fill="#808285" width="1" height="11.9"/>
			</g>
		</g>
	</g>
	<g>
		<g>
			<g>
				<polygon fill="#808285" points="122.5,227.2 100.7,227.2 100.7,202.6 101.7,202.6 101.7,226.2 122.5,226.2 				"/>
			</g>
		</g>
	</g>
	<g>
		<g>
			<g>
				<polygon fill="#808285" points="231.3,227.2 208.7,227.2 208.7,226.2 230.3,226.2 230.3,166.4 231.3,166.4 				"/>
			</g>
		</g>
	</g>
</g>
<g>
	<g>
		<g>
			<g>
				<g>
					<path fill="#808285" d="M544.5,77.7h-32.8c-7.4,0-13.5-6.1-13.5-13.5s6.1-13.5,13.5-13.5h32.8c7.4,0,13.5,6.1,13.5,13.5
						S552,77.7,544.5,77.7z M511.7,51.7c-6.9,0-12.5,5.6-12.5,12.5s5.6,12.5,12.5,12.5h32.8c6.9,0,12.5-5.6,12.5-12.5
						s-5.6-12.5-12.5-12.5H511.7z"/>
				</g>
			</g>
		</g>
		<g>
			<g>
				<g>
					<path fill="#808285" d="M515.3,66c0.4,0.2,0.9,0.4,1.5,0.4c0.9,0,1.4-0.5,1.4-1.1c0-0.6-0.3-1-1.2-1.3
						c-1.1-0.4-1.7-0.9-1.7-1.8c0-1,0.8-1.8,2.1-1.8c0.7,0,1.1,0.2,1.4,0.3l-0.2,0.7c-0.2-0.1-0.6-0.3-1.2-0.3c-0.9,0-1.2,0.5-1.2,1
						c0,0.6,0.4,0.9,1.3,1.2c1.1,0.4,1.6,1,1.6,1.9c0,1-0.7,1.9-2.3,1.9c-0.6,0-1.3-0.2-1.7-0.4L515.3,66z"/>
				</g>
			</g>
			<g>
				<g>
					<path fill="#808285" d="M520.6,64.9c0,1.1,0.7,1.6,1.6,1.6c0.6,0,1-0.1,1.3-0.2l0.2,0.6c-0.3,0.1-0.8,0.3-1.6,0.3
						c-1.4,0-2.3-1-2.3-2.4c0-1.4,0.8-2.5,2.2-2.5c1.5,0,1.9,1.3,1.9,2.2c0,0.2,0,0.3,0,0.4H520.6z M523.1,64.2
						c0-0.5-0.2-1.4-1.2-1.4c-0.9,0-1.2,0.8-1.3,1.4H523.1z"/>
				</g>
			</g>
			<g>
				<g>
					<path fill="#808285" d="M528.2,65.9c0,0.4,0,0.8,0.1,1.1h-0.8l-0.1-0.6h0c-0.3,0.4-0.8,0.7-1.4,0.7c-0.9,0-1.4-0.7-1.4-1.3
						c0-1.1,1-1.7,2.8-1.7V64c0-0.4-0.1-1.1-1.1-1.1c-0.4,0-0.9,0.1-1.2,0.3l-0.2-0.6c0.4-0.2,1-0.4,1.5-0.4c1.4,0,1.8,1,1.8,1.9
						V65.9z M527.4,64.7c-0.9,0-2,0.1-2,1c0,0.6,0.4,0.8,0.8,0.8c0.6,0,1-0.4,1.1-0.8c0-0.1,0-0.2,0-0.3V64.7z"/>
				</g>
			</g>
			<g>
				<g>
					<path fill="#808285" d="M529.6,63.8c0-0.5,0-1,0-1.5h0.7l0,0.9h0c0.2-0.6,0.7-1,1.3-1c0.1,0,0.2,0,0.2,0v0.8
						c-0.1,0-0.2,0-0.3,0c-0.6,0-1,0.4-1.1,1.1c0,0.1,0,0.3,0,0.4V67h-0.8V63.8z"/>
				</g>
			</g>
			<g>
				<g>
					<path fill="#808285" d="M536,66.9c-0.2,0.1-0.7,0.3-1.3,0.3c-1.4,0-2.3-1-2.3-2.4c0-1.4,1-2.5,2.5-2.5c0.5,0,0.9,0.1,1.2,0.2
						l-0.2,0.6c-0.2-0.1-0.5-0.2-1-0.2c-1.1,0-1.6,0.8-1.6,1.8c0,1.1,0.7,1.7,1.6,1.7c0.5,0,0.8-0.1,1-0.2L536,66.9z"/>
				</g>
			</g>
			<g>
				<g>
					<path fill="#808285" d="M537,60.2h0.8v2.9h0c0.1-0.2,0.3-0.5,0.6-0.6c0.2-0.1,0.5-0.2,0.9-0.2c0.6,0,1.6,0.4,1.6,2V67h-0.8
						v-2.7c0-0.8-0.3-1.4-1.1-1.4c-0.5,0-1,0.4-1.1,0.8c0,0.1-0.1,0.2-0.1,0.4V67H537V60.2z"/>
				</g>
			</g>
		</g>
	</g>
	<g>
		<g>
			<g>
				<g>
					<path fill="#808285" d="M435.3,123.2h-32.8c-7.4,0-13.5-6.1-13.5-13.5s6.1-13.5,13.5-13.5h32.8c7.4,0,13.5,6.1,13.5,13.5
						S442.7,123.2,435.3,123.2z M402.5,97.2c-6.9,0-12.5,5.6-12.5,12.5s5.6,12.5,12.5,12.5h32.8c6.9,0,12.5-5.6,12.5-12.5
						s-5.6-12.5-12.5-12.5H402.5z"/>
				</g>
			</g>
		</g>
		<g>
			<g>
				<g>
					<path fill="#808285" d="M411.9,112.5V106h0.9l2.1,3.3c0.5,0.8,0.9,1.4,1.2,2.1l0,0c-0.1-0.9-0.1-1.7-0.1-2.7V106h0.8v6.5h-0.8
						l-2.1-3.3c-0.5-0.7-0.9-1.5-1.2-2.2l0,0c0,0.8,0.1,1.6,0.1,2.7v2.8H411.9z"/>
				</g>
			</g>
			<g>
				<g>
					<path fill="#808285" d="M421.4,111.4c0,0.4,0,0.8,0.1,1.1h-0.8l-0.1-0.6h0c-0.3,0.4-0.8,0.7-1.4,0.7c-0.9,0-1.4-0.7-1.4-1.3
						c0-1.1,1-1.7,2.8-1.7v-0.1c0-0.4-0.1-1.1-1.1-1.1c-0.4,0-0.9,0.1-1.2,0.3l-0.2-0.6c0.4-0.2,1-0.4,1.5-0.4c1.4,0,1.8,1,1.8,1.9
						V111.4z M420.6,110.2c-0.9,0-2,0.1-2,1c0,0.6,0.4,0.8,0.8,0.8c0.6,0,1-0.4,1.1-0.8c0-0.1,0-0.2,0-0.3V110.2z"/>
				</g>
			</g>
			<g>
				<g>
					<path fill="#808285" d="M423,107.9l0.9,2.6c0.2,0.4,0.3,0.8,0.4,1.2h0c0.1-0.4,0.2-0.8,0.4-1.2l0.9-2.6h0.9l-1.8,4.7h-0.8
						l-1.8-4.7H423z"/>
				</g>
			</g>
		</g>
	</g>
	<g>
		<g>
			<g>
				<g>
					<path fill="#808285" d="M480.3,174.8h-32.8c-7.4,0-13.5-6.1-13.5-13.5s6.1-13.5,13.5-13.5h32.8c7.4,0,13.5,6.1,13.5,13.5
						S487.7,174.8,480.3,174.8z M447.4,148.9c-6.9,0-12.5,5.6-12.5,12.5s5.6,12.5,12.5,12.5h32.8c6.9,0,12.5-5.6,12.5-12.5
						s-5.6-12.5-12.5-12.5H447.4z"/>
				</g>
			</g>
		</g>
		<g>
			<g>
				<g>
					<path fill="#808285" d="M452,157.7h3.5v0.7h-2.6v2.2h2.4v0.7h-2.4v2.9H452V157.7z"/>
				</g>
			</g>
			<g>
				<g>
					<path fill="#808285" d="M456.4,161c0-0.5,0-1,0-1.5h0.7l0,0.9h0c0.2-0.6,0.7-1,1.3-1c0.1,0,0.2,0,0.2,0v0.8c-0.1,0-0.2,0-0.3,0
						c-0.6,0-1,0.4-1.1,1.1c0,0.1,0,0.3,0,0.4v2.5h-0.8V161z"/>
				</g>
			</g>
			<g>
				<g>
					<path fill="#808285" d="M460.5,158.2c0,0.3-0.2,0.5-0.5,0.5c-0.3,0-0.5-0.2-0.5-0.5c0-0.3,0.2-0.5,0.5-0.5
						C460.3,157.7,460.5,157.9,460.5,158.2z M459.6,164.2v-4.7h0.8v4.7H459.6z"/>
				</g>
			</g>
			<g>
				<g>
					<path fill="#808285" d="M462.3,162c0,1.1,0.7,1.6,1.6,1.6c0.6,0,1-0.1,1.3-0.2l0.2,0.6c-0.3,0.1-0.8,0.3-1.6,0.3
						c-1.4,0-2.3-1-2.3-2.4c0-1.4,0.8-2.5,2.2-2.5c1.5,0,1.9,1.3,1.9,2.2c0,0.2,0,0.3,0,0.4H462.3z M464.8,161.4
						c0-0.5-0.2-1.4-1.2-1.4c-0.9,0-1.2,0.8-1.3,1.4H464.8z"/>
				</g>
			</g>
			<g>
				<g>
					<path fill="#808285" d="M466.6,160.8c0-0.5,0-0.9,0-1.3h0.8l0,0.8h0c0.2-0.4,0.8-0.9,1.5-0.9c0.6,0,1.6,0.4,1.6,2v2.8h-0.8
						v-2.7c0-0.7-0.3-1.4-1.1-1.4c-0.5,0-1,0.4-1.1,0.9c0,0.1-0.1,0.2-0.1,0.4v2.8h-0.8V160.8z"/>
				</g>
			</g>
			<g>
				<g>
					<path fill="#808285" d="M476,157.4v5.6c0,0.4,0,0.9,0,1.2h-0.8l0-0.8h0c-0.2,0.5-0.8,0.9-1.6,0.9c-1.1,0-2-1-2-2.4
						c0-1.5,1-2.5,2.1-2.5c0.7,0,1.2,0.3,1.4,0.7h0v-2.8H476z M475.1,161.4c0-0.1,0-0.2,0-0.4c-0.1-0.5-0.6-1-1.2-1
						c-0.9,0-1.4,0.8-1.4,1.8c0,0.9,0.5,1.7,1.4,1.7c0.6,0,1.1-0.4,1.2-1c0-0.1,0-0.2,0-0.4V161.4z"/>
				</g>
			</g>
			<g>
				<g>
					<path fill="#808285" d="M477.3,163.3c0.3,0.2,0.7,0.3,1.1,0.3c0.6,0,0.9-0.3,0.9-0.7c0-0.4-0.2-0.6-0.9-0.8
						c-0.8-0.3-1.2-0.8-1.2-1.3c0-0.8,0.6-1.4,1.6-1.4c0.5,0,0.9,0.1,1.1,0.3l-0.2,0.6c-0.2-0.1-0.5-0.3-1-0.3
						c-0.5,0-0.8,0.3-0.8,0.6c0,0.4,0.3,0.6,0.9,0.8c0.8,0.3,1.2,0.7,1.2,1.4c0,0.8-0.6,1.4-1.7,1.4c-0.5,0-1-0.1-1.3-0.3
						L477.3,163.3z"/>
				</g>
			</g>
		</g>
	</g>
	<g>
		<g>
			<g>
				<g>
					<path fill="#808285" d="M480.3,213.7h-32.8c-7.4,0-13.5-6.1-13.5-13.5s6.1-13.5,13.5-13.5h32.8c7.4,0,13.5,6.1,13.5,13.5
						S487.7,213.7,480.3,213.7z M447.4,187.7c-6.9,0-12.5,5.6-12.5,12.5s5.6,12.5,12.5,12.5h32.8c6.9,0,12.5-5.6,12.5-12.5
						s-5.6-12.5-12.5-12.5H447.4z"/>
				</g>
			</g>
		</g>
		<g>
			<g>
				<g>
					<path fill="#808285" d="M447.2,201l-0.7,2h-0.9l2.2-6.5h1l2.2,6.5h-0.9l-0.7-2H447.2z M449.3,200.3l-0.6-1.9
						c-0.1-0.4-0.2-0.8-0.3-1.2h0c-0.1,0.4-0.2,0.8-0.3,1.2l-0.6,1.9H449.3z"/>
				</g>
			</g>
			<g>
				<g>
					<path fill="#808285" d="M455.9,196.2v5.6c0,0.4,0,0.9,0,1.2h-0.8l0-0.8h0c-0.2,0.5-0.8,0.9-1.6,0.9c-1.1,0-2-1-2-2.4
						c0-1.5,1-2.5,2.1-2.5c0.7,0,1.2,0.3,1.4,0.7h0v-2.8H455.9z M455,200.2c0-0.1,0-0.2,0-0.4c-0.1-0.5-0.6-1-1.2-1
						c-0.9,0-1.4,0.8-1.4,1.8c0,0.9,0.5,1.7,1.4,1.7c0.6,0,1.1-0.4,1.2-1c0-0.1,0-0.2,0-0.4V200.2z"/>
				</g>
			</g>
			<g>
				<g>
					<path fill="#808285" d="M461.3,196.2v5.6c0,0.4,0,0.9,0,1.2h-0.8l0-0.8h0c-0.2,0.5-0.8,0.9-1.6,0.9c-1.1,0-2-1-2-2.4
						c0-1.5,1-2.5,2.1-2.5c0.7,0,1.2,0.3,1.4,0.7h0v-2.8H461.3z M460.5,200.2c0-0.1,0-0.2,0-0.4c-0.1-0.5-0.6-1-1.2-1
						c-0.9,0-1.4,0.8-1.4,1.8c0,0.9,0.5,1.7,1.4,1.7c0.6,0,1.1-0.4,1.2-1c0-0.1,0-0.2,0-0.4V200.2z"/>
				</g>
			</g>
			<g>
				<g>
					<path fill="#808285" d="M464.8,203v-6.5h0.9l2.1,3.3c0.5,0.8,0.9,1.4,1.2,2.1l0,0c-0.1-0.9-0.1-1.7-0.1-2.7v-2.7h0.8v6.5h-0.8
						l-2.1-3.3c-0.5-0.7-0.9-1.5-1.2-2.2l0,0c0,0.8,0.1,1.6,0.1,2.7v2.8H464.8z"/>
				</g>
			</g>
			<g>
				<g>
					<path fill="#808285" d="M471.6,200.8c0,1.1,0.7,1.6,1.6,1.6c0.6,0,1-0.1,1.3-0.2l0.2,0.6c-0.3,0.1-0.8,0.3-1.6,0.3
						c-1.4,0-2.3-1-2.3-2.4c0-1.4,0.8-2.5,2.2-2.5c1.5,0,1.9,1.3,1.9,2.2c0,0.2,0,0.3,0,0.4H471.6z M474,200.2
						c0-0.5-0.2-1.4-1.2-1.4c-0.9,0-1.2,0.8-1.3,1.4H474z"/>
				</g>
			</g>
			<g>
				<g>
					<path fill="#808285" d="M476.2,198.3l0.6,2.4c0.1,0.5,0.2,1,0.3,1.5h0c0.1-0.5,0.3-1,0.4-1.5l0.8-2.4h0.7l0.7,2.3
						c0.2,0.6,0.3,1,0.4,1.5h0c0.1-0.5,0.2-1,0.4-1.5l0.7-2.3h0.8l-1.5,4.7h-0.8l-0.7-2.2c-0.2-0.5-0.3-1-0.4-1.5h0
						c-0.1,0.6-0.3,1-0.4,1.5l-0.8,2.2h-0.8l-1.4-4.7H476.2z"/>
				</g>
			</g>
		</g>
	</g>
	<g>
		<g>
			<g>
				<g>
					<path fill="#808285" d="M380,174.8h-32.8c-7.4,0-13.5-6.1-13.5-13.5s6.1-13.5,13.5-13.5H380c7.4,0,13.5,6.1,13.5,13.5
						S387.4,174.8,380,174.8z M347.2,148.9c-6.9,0-12.5,5.6-12.5,12.5s5.6,12.5,12.5,12.5H380c6.9,0,12.5-5.6,12.5-12.5
						s-5.6-12.5-12.5-12.5H347.2z"/>
				</g>
			</g>
		</g>
		<g>
			<g>
				<g>
					<path fill="#808285" d="M354.5,161.1H352v2.3h2.8v0.7h-3.7v-6.5h3.5v0.7H352v2h2.5V161.1z"/>
				</g>
			</g>
			<g>
				<g>
					<path fill="#808285" d="M356.1,159.5l0.9,2.6c0.2,0.4,0.3,0.8,0.4,1.2h0c0.1-0.4,0.2-0.8,0.4-1.2l0.9-2.6h0.9l-1.8,4.7H357
						l-1.8-4.7H356.1z"/>
				</g>
			</g>
			<g>
				<g>
					<path fill="#808285" d="M360.8,162c0,1.1,0.7,1.6,1.6,1.6c0.6,0,1-0.1,1.3-0.2l0.2,0.6c-0.3,0.1-0.8,0.3-1.6,0.3
						c-1.4,0-2.3-1-2.3-2.4c0-1.4,0.8-2.5,2.2-2.5c1.5,0,1.9,1.3,1.9,2.2c0,0.2,0,0.3,0,0.4H360.8z M363.3,161.4
						c0-0.5-0.2-1.4-1.2-1.4c-0.9,0-1.2,0.8-1.3,1.4H363.3z"/>
				</g>
			</g>
			<g>
				<g>
					<path fill="#808285" d="M365.2,160.8c0-0.5,0-0.9,0-1.3h0.8l0,0.8h0c0.2-0.4,0.8-0.9,1.5-0.9c0.6,0,1.6,0.4,1.6,2v2.8h-0.8
						v-2.7c0-0.7-0.3-1.4-1.1-1.4c-0.5,0-1,0.4-1.1,0.9c0,0.1-0.1,0.2-0.1,0.4v2.8h-0.8V160.8z"/>
				</g>
			</g>
			<g>
				<g>
					<path fill="#808285" d="M371.5,158.4v1.1h1.2v0.6h-1.2v2.5c0,0.6,0.2,0.9,0.6,0.9c0.2,0,0.4,0,0.5-0.1l0,0.6
						c-0.2,0.1-0.4,0.1-0.8,0.1c-0.4,0-0.7-0.1-0.9-0.4c-0.2-0.3-0.3-0.7-0.3-1.2v-2.5h-0.7v-0.6h0.7v-0.9L371.5,158.4z"/>
				</g>
			</g>
			<g>
				<g>
					<path fill="#808285" d="M373.5,163.3c0.3,0.2,0.7,0.3,1.1,0.3c0.6,0,0.9-0.3,0.9-0.7c0-0.4-0.2-0.6-0.9-0.8
						c-0.8-0.3-1.2-0.8-1.2-1.3c0-0.8,0.6-1.4,1.6-1.4c0.5,0,0.9,0.1,1.1,0.3l-0.2,0.6c-0.2-0.1-0.5-0.3-1-0.3
						c-0.5,0-0.8,0.3-0.8,0.6c0,0.4,0.3,0.6,0.9,0.8c0.8,0.3,1.2,0.7,1.2,1.4c0,0.8-0.6,1.4-1.7,1.4c-0.5,0-1-0.1-1.3-0.3
						L373.5,163.3z"/>
				</g>
			</g>
		</g>
	</g>
	<g>
		<g>
			<g>
				<g>
					<path fill="#808285" d="M336.8,213.5H304c-7.4,0-13.5-6.1-13.5-13.5s6.1-13.5,13.5-13.5h32.8c7.4,0,13.5,6.1,13.5,13.5
						S344.2,213.5,336.8,213.5z M304,187.5c-6.9,0-12.5,5.6-12.5,12.5s5.6,12.5,12.5,12.5h32.8c6.9,0,12.5-5.6,12.5-12.5
						s-5.6-12.5-12.5-12.5H304z"/>
				</g>
			</g>
		</g>
		<g>
			<g>
				<g>
					<path fill="#808285" d="M307.5,201.8c0.4,0.2,0.9,0.4,1.5,0.4c0.9,0,1.4-0.5,1.4-1.1c0-0.6-0.3-1-1.2-1.3
						c-1.1-0.4-1.7-0.9-1.7-1.8c0-1,0.8-1.8,2.1-1.8c0.7,0,1.1,0.2,1.4,0.3l-0.2,0.7c-0.2-0.1-0.6-0.3-1.2-0.3c-0.9,0-1.2,0.5-1.2,1
						c0,0.6,0.4,0.9,1.3,1.2c1.1,0.4,1.6,1,1.6,1.9c0,1-0.7,1.9-2.3,1.9c-0.6,0-1.3-0.2-1.7-0.4L307.5,201.8z"/>
				</g>
			</g>
			<g>
				<g>
					<path fill="#808285" d="M312.9,200.7c0,1.1,0.7,1.6,1.6,1.6c0.6,0,1-0.1,1.3-0.2l0.2,0.6c-0.3,0.1-0.8,0.3-1.6,0.3
						c-1.4,0-2.3-1-2.3-2.4c0-1.4,0.8-2.5,2.2-2.5c1.5,0,1.9,1.3,1.9,2.2c0,0.2,0,0.3,0,0.4H312.9z M315.4,200.1
						c0-0.5-0.2-1.4-1.2-1.4c-0.9,0-1.2,0.8-1.3,1.4H315.4z"/>
				</g>
			</g>
			<g>
				<g>
					<path fill="#808285" d="M320.5,201.7c0,0.4,0,0.8,0.1,1.1h-0.8l-0.1-0.6h0c-0.3,0.4-0.8,0.7-1.4,0.7c-0.9,0-1.4-0.7-1.4-1.3
						c0-1.1,1-1.7,2.8-1.7v-0.1c0-0.4-0.1-1.1-1.1-1.1c-0.4,0-0.9,0.1-1.2,0.3l-0.2-0.6c0.4-0.2,1-0.4,1.5-0.4c1.4,0,1.8,1,1.8,1.9
						V201.7z M319.7,200.5c-0.9,0-2,0.1-2,1c0,0.6,0.4,0.8,0.8,0.8c0.6,0,1-0.4,1.1-0.8c0-0.1,0-0.2,0-0.3V200.5z"/>
				</g>
			</g>
			<g>
				<g>
					<path fill="#808285" d="M321.9,199.6c0-0.5,0-1,0-1.5h0.7l0,0.9h0c0.2-0.6,0.7-1,1.3-1c0.1,0,0.2,0,0.2,0v0.8
						c-0.1,0-0.2,0-0.3,0c-0.6,0-1,0.4-1.1,1.1c0,0.1,0,0.3,0,0.4v2.5h-0.8V199.6z"/>
				</g>
			</g>
			<g>
				<g>
					<path fill="#808285" d="M328.2,202.7c-0.2,0.1-0.7,0.3-1.3,0.3c-1.4,0-2.3-1-2.3-2.4c0-1.4,1-2.5,2.5-2.5
						c0.5,0,0.9,0.1,1.2,0.2l-0.2,0.6c-0.2-0.1-0.5-0.2-1-0.2c-1.1,0-1.6,0.8-1.6,1.8c0,1.1,0.7,1.7,1.6,1.7c0.5,0,0.8-0.1,1-0.2
						L328.2,202.7z"/>
				</g>
			</g>
			<g>
				<g>
					<path fill="#808285" d="M329.2,196h0.8v2.9h0c0.1-0.2,0.3-0.5,0.6-0.6c0.2-0.1,0.5-0.2,0.9-0.2c0.6,0,1.6,0.4,1.6,2v2.8h-0.8
						v-2.7c0-0.8-0.3-1.4-1.1-1.4c-0.5,0-1,0.4-1.1,0.8c0,0.1-0.1,0.2-0.1,0.4v2.8h-0.8V196z"/>
				</g>
			</g>
		</g>
	</g>
	<g>
		<g>
			<g>
				<g>
					<path fill="#808285" d="M421,239.5h-32.8c-7.4,0-13.5-6.1-13.5-13.5s6.1-13.5,13.5-13.5H421c7.4,0,13.5,6.1,13.5,13.5
						S428.5,239.5,421,239.5z M388.2,213.5c-6.9,0-12.5,5.6-12.5,12.5s5.6,12.5,12.5,12.5H421c6.9,0,12.5-5.6,12.5-12.5
						s-5.6-12.5-12.5-12.5H388.2z"/>
				</g>
			</g>
		</g>
		<g>
			<g>
				<g>
					<path fill="#808285" d="M389,222.3v6.5h-0.8v-6.5H389z"/>
				</g>
			</g>
			<g>
				<g>
					<path fill="#808285" d="M390.5,225.4c0-0.5,0-0.9,0-1.3h0.8l0,0.8h0c0.2-0.4,0.8-0.9,1.5-0.9c0.6,0,1.6,0.4,1.6,2v2.8h-0.8
						v-2.7c0-0.7-0.3-1.4-1.1-1.4c-0.5,0-1,0.4-1.1,0.9c0,0.1-0.1,0.2-0.1,0.4v2.8h-0.8V225.4z"/>
				</g>
			</g>
			<g>
				<g>
					<path fill="#808285" d="M396.9,223v1.1h1.2v0.6h-1.2v2.5c0,0.6,0.2,0.9,0.6,0.9c0.2,0,0.4,0,0.5-0.1l0,0.6
						c-0.2,0.1-0.4,0.1-0.8,0.1c-0.4,0-0.7-0.1-0.9-0.4c-0.2-0.3-0.3-0.7-0.3-1.2v-2.5h-0.7v-0.6h0.7v-0.9L396.9,223z"/>
				</g>
			</g>
			<g>
				<g>
					<path fill="#808285" d="M399.4,226.6c0,1.1,0.7,1.6,1.6,1.6c0.6,0,1-0.1,1.3-0.2l0.2,0.6c-0.3,0.1-0.8,0.3-1.6,0.3
						c-1.4,0-2.3-1-2.3-2.4c0-1.4,0.8-2.5,2.2-2.5c1.5,0,1.9,1.3,1.9,2.2c0,0.2,0,0.3,0,0.4H399.4z M401.9,226
						c0-0.5-0.2-1.4-1.2-1.4c-0.9,0-1.2,0.8-1.3,1.4H401.9z"/>
				</g>
			</g>
			<g>
				<g>
					<path fill="#808285" d="M403.8,225.6c0-0.5,0-1,0-1.5h0.7l0,0.9h0c0.2-0.6,0.7-1,1.3-1c0.1,0,0.2,0,0.2,0v0.8
						c-0.1,0-0.2,0-0.3,0c-0.6,0-1,0.4-1.1,1.1c0,0.1,0,0.3,0,0.4v2.5h-0.8V225.6z"/>
				</g>
			</g>
			<g>
				<g>
					<path fill="#808285" d="M407.3,226.6c0,1.1,0.7,1.6,1.6,1.6c0.6,0,1-0.1,1.3-0.2l0.2,0.6c-0.3,0.1-0.8,0.3-1.6,0.3
						c-1.4,0-2.3-1-2.3-2.4c0-1.4,0.8-2.5,2.2-2.5c1.5,0,1.9,1.3,1.9,2.2c0,0.2,0,0.3,0,0.4H407.3z M409.8,226
						c0-0.5-0.2-1.4-1.2-1.4c-0.9,0-1.2,0.8-1.3,1.4H409.8z"/>
				</g>
			</g>
			<g>
				<g>
					<path fill="#808285" d="M411.5,227.9c0.3,0.2,0.7,0.3,1.1,0.3c0.6,0,0.9-0.3,0.9-0.7c0-0.4-0.2-0.6-0.9-0.8
						c-0.8-0.3-1.2-0.8-1.2-1.3c0-0.8,0.6-1.4,1.6-1.4c0.5,0,0.9,0.1,1.1,0.3l-0.2,0.6c-0.2-0.1-0.5-0.3-1-0.3
						c-0.5,0-0.8,0.3-0.8,0.6c0,0.4,0.3,0.6,0.9,0.8c0.8,0.3,1.2,0.7,1.2,1.4c0,0.8-0.6,1.4-1.7,1.4c-0.5,0-1-0.1-1.3-0.3
						L411.5,227.9z"/>
				</g>
			</g>
			<g>
				<g>
					<path fill="#808285" d="M416.5,223v1.1h1.2v0.6h-1.2v2.5c0,0.6,0.2,0.9,0.6,0.9c0.2,0,0.4,0,0.5-0.1l0,0.6
						c-0.2,0.1-0.4,0.1-0.8,0.1c-0.4,0-0.7-0.1-0.9-0.4c-0.2-0.3-0.3-0.7-0.3-1.2v-2.5h-0.7v-0.6h0.7v-0.9L416.5,223z"/>
				</g>
			</g>
			<g>
				<g>
					<path fill="#808285" d="M418.5,227.9c0.3,0.2,0.7,0.3,1.1,0.3c0.6,0,0.9-0.3,0.9-0.7c0-0.4-0.2-0.6-0.9-0.8
						c-0.8-0.3-1.2-0.8-1.2-1.3c0-0.8,0.6-1.4,1.6-1.4c0.5,0,0.9,0.1,1.1,0.3l-0.2,0.6c-0.2-0.1-0.5-0.3-1-0.3
						c-0.5,0-0.8,0.3-0.8,0.6c0,0.4,0.3,0.6,0.9,0.8c0.8,0.3,1.2,0.7,1.2,1.4c0,0.8-0.6,1.4-1.7,1.4c-0.5,0-1-0.1-1.3-0.3
						L418.5,227.9z"/>
				</g>
			</g>
		</g>
	</g>
	<g>
		<g>
			<g>
				<g>
					<path fill="#808285" d="M429.9,278.4h-50.6c-7.4,0-13.5-6.1-13.5-13.5s6.1-13.5,13.5-13.5h50.6c7.4,0,13.5,6.1,13.5,13.5
						S437.3,278.4,429.9,278.4z M379.3,252.4c-6.9,0-12.5,5.6-12.5,12.5s5.6,12.5,12.5,12.5h50.6c6.9,0,12.5-5.6,12.5-12.5
						s-5.6-12.5-12.5-12.5H379.3z"/>
				</g>
			</g>
		</g>
		<g>
			<g>
				<g>
					<path fill="#808285" d="M376,261.3v6.5h-0.8v-6.5H376z"/>
				</g>
			</g>
			<g>
				<g>
					<path fill="#808285" d="M377.6,264.4c0-0.5,0-0.9,0-1.3h0.8l0,0.8h0c0.2-0.4,0.8-0.9,1.5-0.9c0.6,0,1.6,0.4,1.6,2v2.8h-0.8
						v-2.7c0-0.8-0.3-1.4-1.1-1.4c-0.5,0-1,0.4-1.1,0.9c0,0.1-0.1,0.2-0.1,0.4v2.8h-0.8V264.4z"/>
				</g>
			</g>
			<g>
				<g>
					<path fill="#808285" d="M383.9,262v1.1h1.2v0.6h-1.2v2.5c0,0.6,0.2,0.9,0.6,0.9c0.2,0,0.4,0,0.5-0.1l0,0.6
						c-0.2,0.1-0.4,0.1-0.8,0.1c-0.4,0-0.7-0.1-0.9-0.4c-0.2-0.3-0.3-0.7-0.3-1.2v-2.5h-0.7v-0.6h0.7v-0.9L383.9,262z"/>
				</g>
			</g>
			<g>
				<g>
					<path fill="#808285" d="M386.5,265.6c0,1.1,0.7,1.6,1.6,1.6c0.6,0,1-0.1,1.3-0.2l0.2,0.6c-0.3,0.1-0.8,0.3-1.6,0.3
						c-1.4,0-2.3-1-2.3-2.4c0-1.4,0.8-2.5,2.2-2.5c1.5,0,1.9,1.3,1.9,2.2c0,0.2,0,0.3,0,0.4H386.5z M388.9,265
						c0-0.5-0.2-1.4-1.2-1.4c-0.9,0-1.2,0.8-1.3,1.4H388.9z"/>
				</g>
			</g>
			<g>
				<g>
					<path fill="#808285" d="M390.8,264.6c0-0.5,0-1,0-1.5h0.7l0,0.9h0c0.2-0.6,0.7-1,1.3-1c0.1,0,0.2,0,0.2,0v0.8
						c-0.1,0-0.2,0-0.3,0c-0.6,0-1,0.4-1.1,1.1c0,0.1,0,0.3,0,0.4v2.5h-0.8V264.6z"/>
				</g>
			</g>
			<g>
				<g>
					<path fill="#808285" d="M394.3,265.6c0,1.1,0.7,1.6,1.6,1.6c0.6,0,1-0.1,1.3-0.2l0.2,0.6c-0.3,0.1-0.8,0.3-1.6,0.3
						c-1.4,0-2.3-1-2.3-2.4c0-1.4,0.8-2.5,2.2-2.5c1.5,0,1.9,1.3,1.9,2.2c0,0.2,0,0.3,0,0.4H394.3z M396.8,265
						c0-0.5-0.2-1.4-1.2-1.4c-0.9,0-1.2,0.8-1.3,1.4H396.8z"/>
				</g>
			</g>
			<g>
				<g>
					<path fill="#808285" d="M398.6,266.9c0.3,0.2,0.7,0.3,1.1,0.3c0.6,0,0.9-0.3,0.9-0.7c0-0.4-0.2-0.6-0.9-0.8
						c-0.8-0.3-1.2-0.8-1.2-1.3c0-0.8,0.6-1.4,1.6-1.4c0.5,0,0.9,0.1,1.1,0.3l-0.2,0.6c-0.2-0.1-0.5-0.3-1-0.3
						c-0.5,0-0.8,0.3-0.8,0.6c0,0.4,0.3,0.6,0.9,0.8c0.8,0.3,1.2,0.7,1.2,1.4c0,0.8-0.6,1.4-1.7,1.4c-0.5,0-1-0.1-1.3-0.3
						L398.6,266.9z"/>
				</g>
			</g>
			<g>
				<g>
					<path fill="#808285" d="M403.5,262v1.1h1.2v0.6h-1.2v2.5c0,0.6,0.2,0.9,0.6,0.9c0.2,0,0.4,0,0.5-0.1l0,0.6
						c-0.2,0.1-0.4,0.1-0.8,0.1c-0.4,0-0.7-0.1-0.9-0.4c-0.2-0.3-0.3-0.7-0.3-1.2v-2.5H402v-0.6h0.7v-0.9L403.5,262z"/>
				</g>
			</g>
			<g>
				<g>
					<path fill="#808285" d="M405.6,266.9c0.3,0.2,0.7,0.3,1.1,0.3c0.6,0,0.9-0.3,0.9-0.7c0-0.4-0.2-0.6-0.9-0.8
						c-0.8-0.3-1.2-0.8-1.2-1.3c0-0.8,0.6-1.4,1.6-1.4c0.5,0,0.9,0.1,1.1,0.3l-0.2,0.6c-0.2-0.1-0.5-0.3-1-0.3
						c-0.5,0-0.8,0.3-0.8,0.6c0,0.4,0.3,0.6,0.9,0.8c0.8,0.3,1.2,0.7,1.2,1.4c0,0.8-0.6,1.4-1.7,1.4c-0.5,0-1-0.1-1.3-0.3
						L405.6,266.9z"/>
				</g>
			</g>
			<g>
				<g>
					<path fill="#808285" d="M414.9,264.7h-2.5v2.3h2.8v0.7h-3.7v-6.5h3.5v0.7h-2.7v2h2.5V264.7z"/>
				</g>
			</g>
			<g>
				<g>
					<path fill="#808285" d="M420.2,260.9v5.6c0,0.4,0,0.9,0,1.2h-0.8l0-0.8h0c-0.2,0.5-0.8,0.9-1.6,0.9c-1.1,0-2-1-2-2.4
						c0-1.5,1-2.5,2.1-2.5c0.7,0,1.2,0.3,1.4,0.7h0v-2.8H420.2z M419.4,265c0-0.1,0-0.2,0-0.4c-0.1-0.5-0.6-1-1.2-1
						c-0.9,0-1.4,0.8-1.4,1.8c0,0.9,0.5,1.7,1.4,1.7c0.6,0,1.1-0.4,1.2-1c0-0.1,0-0.2,0-0.4V265z"/>
				</g>
			</g>
			<g>
				<g>
					<path fill="#808285" d="M422.6,261.8c0,0.3-0.2,0.5-0.5,0.5c-0.3,0-0.5-0.2-0.5-0.5s0.2-0.5,0.5-0.5
						C422.4,261.3,422.6,261.5,422.6,261.8z M421.6,267.8v-4.7h0.8v4.7H421.6z"/>
				</g>
			</g>
			<g>
				<g>
					<path fill="#808285" d="M424.9,262v1.1h1.2v0.6h-1.2v2.5c0,0.6,0.2,0.9,0.6,0.9c0.2,0,0.4,0,0.5-0.1l0,0.6
						c-0.2,0.1-0.4,0.1-0.8,0.1c-0.4,0-0.7-0.1-0.9-0.4c-0.2-0.3-0.3-0.7-0.3-1.2v-2.5h-0.7v-0.6h0.7v-0.9L424.9,262z"/>
				</g>
			</g>
			<g>
				<g>
					<path fill="#808285" d="M431.2,265.4c0,1.7-1.2,2.5-2.3,2.5c-1.2,0-2.2-0.9-2.2-2.4c0-1.5,1-2.5,2.3-2.5
						C430.3,263,431.2,264,431.2,265.4z M427.5,265.4c0,1,0.6,1.8,1.4,1.8c0.8,0,1.4-0.8,1.4-1.8c0-0.8-0.4-1.8-1.4-1.8
						C428,263.6,427.5,264.6,427.5,265.4z"/>
				</g>
			</g>
			<g>
				<g>
					<path fill="#808285" d="M432.3,264.6c0-0.5,0-1,0-1.5h0.7l0,0.9h0c0.2-0.6,0.7-1,1.3-1c0.1,0,0.2,0,0.2,0v0.8
						c-0.1,0-0.2,0-0.3,0c-0.6,0-1,0.4-1.1,1.1c0,0.1,0,0.3,0,0.4v2.5h-0.8V264.6z"/>
				</g>
			</g>
		</g>
	</g>
	<g>
		<g>
			<g>
				<g>
					<path fill="#808285" d="M550.8,123.2h-45.4c-7.4,0-13.5-6.1-13.5-13.5s6.1-13.5,13.5-13.5h45.4c7.4,0,13.5,6.1,13.5,13.5
						S558.2,123.2,550.8,123.2z M505.4,97.2c-6.9,0-12.5,5.6-12.5,12.5s5.6,12.5,12.5,12.5h45.4c6.9,0,12.5-5.6,12.5-12.5
						s-5.6-12.5-12.5-12.5H505.4z"/>
				</g>
			</g>
		</g>
		<g>
			<g>
				<g>
					<path fill="#808285" d="M507.4,106h3.5v0.7h-2.6v2.2h2.4v0.7h-2.4v2.9h-0.8V106z"/>
				</g>
			</g>
			<g>
				<g>
					<path fill="#808285" d="M511.8,109.3c0-0.5,0-1,0-1.5h0.7l0,0.9h0c0.2-0.6,0.7-1,1.3-1c0.1,0,0.2,0,0.2,0v0.8
						c-0.1,0-0.2,0-0.3,0c-0.6,0-1,0.4-1.1,1.1c0,0.1,0,0.3,0,0.4v2.5h-0.8V109.3z"/>
				</g>
			</g>
			<g>
				<g>
					<path fill="#808285" d="M516,106.6c0,0.3-0.2,0.5-0.5,0.5c-0.3,0-0.5-0.2-0.5-0.5c0-0.3,0.2-0.5,0.5-0.5
						C515.8,106,516,106.3,516,106.6z M515,112.5v-4.7h0.8v4.7H515z"/>
				</g>
			</g>
			<g>
				<g>
					<path fill="#808285" d="M517.7,110.4c0,1.1,0.7,1.6,1.6,1.6c0.6,0,1-0.1,1.3-0.2l0.2,0.6c-0.3,0.1-0.8,0.3-1.6,0.3
						c-1.4,0-2.3-1-2.3-2.4c0-1.4,0.8-2.5,2.2-2.5c1.5,0,1.9,1.3,1.9,2.2c0,0.2,0,0.3,0,0.4H517.7z M520.2,109.8
						c0-0.5-0.2-1.4-1.2-1.4c-0.9,0-1.2,0.8-1.3,1.4H520.2z"/>
				</g>
			</g>
			<g>
				<g>
					<path fill="#808285" d="M522.1,109.1c0-0.5,0-0.9,0-1.3h0.8l0,0.8h0c0.2-0.4,0.8-0.9,1.5-0.9c0.6,0,1.6,0.4,1.6,2v2.8h-0.8
						v-2.7c0-0.7-0.3-1.4-1.1-1.4c-0.5,0-1,0.4-1.1,0.9c0,0.1-0.1,0.2-0.1,0.4v2.8h-0.8V109.1z"/>
				</g>
			</g>
			<g>
				<g>
					<path fill="#808285" d="M531.4,105.7v5.6c0,0.4,0,0.9,0,1.2h-0.8l0-0.8h0c-0.2,0.5-0.8,0.9-1.6,0.9c-1.1,0-2-1-2-2.4
						c0-1.5,1-2.5,2.1-2.5c0.7,0,1.2,0.3,1.4,0.7h0v-2.8H531.4z M530.6,109.8c0-0.1,0-0.2,0-0.4c-0.1-0.5-0.6-1-1.2-1
						c-0.9,0-1.4,0.8-1.4,1.8c0,0.9,0.5,1.7,1.4,1.7c0.6,0,1.1-0.4,1.2-1c0-0.1,0-0.2,0-0.4V109.8z"/>
				</g>
			</g>
			<g>
				<g>
					<path fill="#808285" d="M532.7,111.7c0.3,0.2,0.7,0.3,1.1,0.3c0.6,0,0.9-0.3,0.9-0.7c0-0.4-0.2-0.6-0.9-0.8
						c-0.8-0.3-1.2-0.8-1.2-1.3c0-0.8,0.6-1.4,1.6-1.4c0.5,0,0.9,0.1,1.1,0.3l-0.2,0.6c-0.2-0.1-0.5-0.3-1-0.3
						c-0.5,0-0.8,0.3-0.8,0.6c0,0.4,0.3,0.6,0.9,0.8c0.8,0.3,1.2,0.7,1.2,1.4c0,0.8-0.6,1.4-1.7,1.4c-0.5,0-1-0.1-1.3-0.3
						L532.7,111.7z"/>
				</g>
			</g>
			<g>
				<g>
					<path fill="#808285" d="M538.7,105.7h0.8v6.8h-0.8V105.7z"/>
				</g>
			</g>
			<g>
				<g>
					<path fill="#808285" d="M541.9,106.6c0,0.3-0.2,0.5-0.5,0.5c-0.3,0-0.5-0.2-0.5-0.5c0-0.3,0.2-0.5,0.5-0.5
						C541.7,106,541.9,106.3,541.9,106.6z M541,112.5v-4.7h0.8v4.7H541z"/>
				</g>
			</g>
			<g>
				<g>
					<path fill="#808285" d="M543.1,111.7c0.3,0.2,0.7,0.3,1.1,0.3c0.6,0,0.9-0.3,0.9-0.7c0-0.4-0.2-0.6-0.9-0.8
						c-0.8-0.3-1.2-0.8-1.2-1.3c0-0.8,0.6-1.4,1.6-1.4c0.5,0,0.9,0.1,1.1,0.3l-0.2,0.6c-0.2-0.1-0.5-0.3-1-0.3
						c-0.5,0-0.8,0.3-0.8,0.6c0,0.4,0.3,0.6,0.9,0.8c0.8,0.3,1.2,0.7,1.2,1.4c0,0.8-0.6,1.4-1.7,1.4c-0.5,0-1-0.1-1.3-0.3
						L543.1,111.7z"/>
				</g>
			</g>
			<g>
				<g>
					<path fill="#808285" d="M548.1,106.8v1.1h1.2v0.6h-1.2v2.5c0,0.6,0.2,0.9,0.6,0.9c0.2,0,0.4,0,0.5-0.1l0,0.6
						c-0.2,0.1-0.4,0.1-0.8,0.1c-0.4,0-0.7-0.1-0.9-0.4c-0.2-0.3-0.3-0.7-0.3-1.2v-2.5h-0.7v-0.6h0.7V107L548.1,106.8z"/>
				</g>
			</g>
		</g>
	</g>
	<g>
		<g>
			<g>
				<g>
					<path fill="#808285" d="M544.5,161.7h-32.8c-7.4,0-13.5-6.1-13.5-13.5s6.1-13.5,13.5-13.5h32.8c7.4,0,13.5,6.1,13.5,13.5
						S552,161.7,544.5,161.7z M511.7,135.7c-6.9,0-12.5,5.6-12.5,12.5s5.6,12.5,12.5,12.5h32.8c6.9,0,12.5-5.6,12.5-12.5
						s-5.6-12.5-12.5-12.5H511.7z"/>
				</g>
			</g>
		</g>
		<g>
			<g>
				<g>
					<path fill="#808285" d="M510.5,144.6v6.5h-0.8v-6.5H510.5z"/>
				</g>
			</g>
			<g>
				<g>
					<path fill="#808285" d="M512,147.6c0-0.5,0-0.9,0-1.3h0.8l0,0.8h0c0.2-0.4,0.8-0.9,1.5-0.9c0.6,0,1.6,0.4,1.6,2v2.8h-0.8v-2.7
						c0-0.7-0.3-1.4-1.1-1.4c-0.5,0-1,0.4-1.1,0.9c0,0.1-0.1,0.2-0.1,0.4v2.8H512V147.6z"/>
				</g>
			</g>
			<g>
				<g>
					<path fill="#808285" d="M517.6,146.4l0.9,2.6c0.2,0.4,0.3,0.8,0.4,1.2h0c0.1-0.4,0.2-0.8,0.4-1.2l0.9-2.6h0.9l-1.8,4.7h-0.8
						l-1.8-4.7H517.6z"/>
				</g>
			</g>
			<g>
				<g>
					<path fill="#808285" d="M522.8,145.1c0,0.3-0.2,0.5-0.5,0.5c-0.3,0-0.5-0.2-0.5-0.5c0-0.3,0.2-0.5,0.5-0.5
						C522.6,144.5,522.8,144.8,522.8,145.1z M521.9,151v-4.7h0.8v4.7H521.9z"/>
				</g>
			</g>
			<g>
				<g>
					<path fill="#808285" d="M525.2,145.3v1.1h1.2v0.6h-1.2v2.5c0,0.6,0.2,0.9,0.6,0.9c0.2,0,0.4,0,0.5-0.1l0,0.6
						c-0.2,0.1-0.4,0.1-0.8,0.1c-0.4,0-0.7-0.1-0.9-0.4c-0.2-0.3-0.3-0.7-0.3-1.2V147h-0.7v-0.6h0.7v-0.9L525.2,145.3z"/>
				</g>
			</g>
			<g>
				<g>
					<path fill="#808285" d="M530.6,149.9c0,0.4,0,0.8,0.1,1.1h-0.8l-0.1-0.6h0c-0.3,0.4-0.8,0.7-1.4,0.7c-0.9,0-1.4-0.7-1.4-1.3
						c0-1.1,1-1.7,2.8-1.7V148c0-0.4-0.1-1.1-1.1-1.1c-0.4,0-0.9,0.1-1.2,0.3l-0.2-0.6c0.4-0.2,1-0.4,1.5-0.4c1.4,0,1.8,1,1.8,1.9
						V149.9z M529.8,148.7c-0.9,0-2,0.1-2,1c0,0.6,0.4,0.8,0.8,0.8c0.6,0,1-0.4,1.1-0.8c0-0.1,0-0.2,0-0.3V148.7z"/>
				</g>
			</g>
			<g>
				<g>
					<path fill="#808285" d="M532.9,145.3v1.1h1.2v0.6h-1.2v2.5c0,0.6,0.2,0.9,0.6,0.9c0.2,0,0.4,0,0.5-0.1l0,0.6
						c-0.2,0.1-0.4,0.1-0.8,0.1c-0.4,0-0.7-0.1-0.9-0.4c-0.2-0.3-0.3-0.7-0.3-1.2V147h-0.7v-0.6h0.7v-0.9L532.9,145.3z"/>
				</g>
			</g>
			<g>
				<g>
					<path fill="#808285" d="M536,145.1c0,0.3-0.2,0.5-0.5,0.5c-0.3,0-0.5-0.2-0.5-0.5c0-0.3,0.2-0.5,0.5-0.5
						C535.8,144.5,536,144.8,536,145.1z M535.1,151v-4.7h0.8v4.7H535.1z"/>
				</g>
			</g>
			<g>
				<g>
					<path fill="#808285" d="M541.6,148.7c0,1.7-1.2,2.5-2.3,2.5c-1.2,0-2.2-0.9-2.2-2.4c0-1.5,1-2.5,2.3-2.5
						C540.7,146.3,541.6,147.3,541.6,148.7z M537.9,148.7c0,1,0.6,1.8,1.4,1.8c0.8,0,1.4-0.8,1.4-1.8c0-0.8-0.4-1.8-1.4-1.8
						C538.3,146.9,537.9,147.8,537.9,148.7z"/>
				</g>
			</g>
			<g>
				<g>
					<path fill="#808285" d="M542.6,147.6c0-0.5,0-0.9,0-1.3h0.8l0,0.8h0c0.2-0.4,0.8-0.9,1.5-0.9c0.6,0,1.6,0.4,1.6,2v2.8h-0.8
						v-2.7c0-0.7-0.3-1.4-1.1-1.4c-0.5,0-1,0.4-1.1,0.9c0,0.1-0.1,0.2-0.1,0.4v2.8h-0.8V147.6z"/>
				</g>
			</g>
		</g>
	</g>
	<g>
		<g>
			<g>
				<g>
					<path fill="#808285" d="M643.4,123.2h-32.8c-7.4,0-13.5-6.1-13.5-13.5s6.1-13.5,13.5-13.5h32.8c7.4,0,13.5,6.1,13.5,13.5
						S650.8,123.2,643.4,123.2z M610.5,97.2c-6.9,0-12.5,5.6-12.5,12.5s5.6,12.5,12.5,12.5h32.8c6.9,0,12.5-5.6,12.5-12.5
						s-5.6-12.5-12.5-12.5H610.5z"/>
				</g>
			</g>
		</g>
		<g>
			<g>
				<g>
					<path fill="#808285" d="M617.9,109.5h-2.5v2.3h2.8v0.7h-3.7V106h3.5v0.7h-2.7v2h2.5V109.5z"/>
				</g>
			</g>
			<g>
				<g>
					<path fill="#808285" d="M619.5,107.9l0.9,2.6c0.2,0.4,0.3,0.8,0.4,1.2h0c0.1-0.4,0.2-0.8,0.4-1.2l0.9-2.6h0.9l-1.8,4.7h-0.8
						l-1.8-4.7H619.5z"/>
				</g>
			</g>
			<g>
				<g>
					<path fill="#808285" d="M624.2,110.4c0,1.1,0.7,1.6,1.6,1.6c0.6,0,1-0.1,1.3-0.2l0.2,0.6c-0.3,0.1-0.8,0.3-1.6,0.3
						c-1.4,0-2.3-1-2.3-2.4c0-1.4,0.8-2.5,2.2-2.5c1.5,0,1.9,1.3,1.9,2.2c0,0.2,0,0.3,0,0.4H624.2z M626.7,109.8
						c0-0.5-0.2-1.4-1.2-1.4c-0.9,0-1.2,0.8-1.3,1.4H626.7z"/>
				</g>
			</g>
			<g>
				<g>
					<path fill="#808285" d="M628.5,109.1c0-0.5,0-0.9,0-1.3h0.8l0,0.8h0c0.2-0.4,0.8-0.9,1.5-0.9c0.6,0,1.6,0.4,1.6,2v2.8h-0.8
						v-2.7c0-0.7-0.3-1.4-1.1-1.4c-0.5,0-1,0.4-1.1,0.9c0,0.1-0.1,0.2-0.1,0.4v2.8h-0.8V109.1z"/>
				</g>
			</g>
			<g>
				<g>
					<path fill="#808285" d="M634.8,106.8v1.1h1.2v0.6h-1.2v2.5c0,0.6,0.2,0.9,0.6,0.9c0.2,0,0.4,0,0.5-0.1l0,0.6
						c-0.2,0.1-0.4,0.1-0.8,0.1c-0.4,0-0.7-0.1-0.9-0.4c-0.2-0.3-0.3-0.7-0.3-1.2v-2.5h-0.7v-0.6h0.7V107L634.8,106.8z"/>
				</g>
			</g>
			<g>
				<g>
					<path fill="#808285" d="M636.9,111.7c0.3,0.2,0.7,0.3,1.1,0.3c0.6,0,0.9-0.3,0.9-0.7c0-0.4-0.2-0.6-0.9-0.8
						c-0.8-0.3-1.2-0.8-1.2-1.3c0-0.8,0.6-1.4,1.6-1.4c0.5,0,0.9,0.1,1.1,0.3l-0.2,0.6c-0.2-0.1-0.5-0.3-1-0.3
						c-0.5,0-0.8,0.3-0.8,0.6c0,0.4,0.3,0.6,0.9,0.8c0.8,0.3,1.2,0.7,1.2,1.4c0,0.8-0.6,1.4-1.7,1.4c-0.5,0-1-0.1-1.3-0.3
						L636.9,111.7z"/>
				</g>
			</g>
		</g>
	</g>
	<g>
		<g>
			<g>
				<g>
					<path fill="#808285" d="M727.9,123.2h-32.8c-7.4,0-13.5-6.1-13.5-13.5s6.1-13.5,13.5-13.5h32.8c7.4,0,13.5,6.1,13.5,13.5
						S735.4,123.2,727.9,123.2z M695.1,97.2c-6.9,0-12.5,5.6-12.5,12.5s5.6,12.5,12.5,12.5h32.8c6.9,0,12.5-5.6,12.5-12.5
						s-5.6-12.5-12.5-12.5H695.1z"/>
				</g>
			</g>
		</g>
		<g>
			<g>
				<g>
					<path fill="#808285" d="M701.3,106.1c0.5-0.1,1.1-0.1,1.8-0.1c1.2,0,2.1,0.3,2.6,0.8c0.6,0.5,0.9,1.3,0.9,2.3
						c0,1.1-0.3,1.9-0.9,2.5c-0.6,0.6-1.6,0.9-2.9,0.9c-0.6,0-1.1,0-1.5-0.1V106.1z M702.1,111.9c0.2,0,0.5,0,0.8,0
						c1.8,0,2.8-1,2.8-2.7c0-1.5-0.9-2.5-2.6-2.5c-0.4,0-0.8,0-1,0.1V111.9z"/>
				</g>
			</g>
			<g>
				<g>
					<path fill="#808285" d="M708.2,110.4c0,1.1,0.7,1.6,1.6,1.6c0.6,0,1-0.1,1.3-0.2l0.2,0.6c-0.3,0.1-0.8,0.3-1.6,0.3
						c-1.4,0-2.3-1-2.3-2.4c0-1.4,0.8-2.5,2.2-2.5c1.5,0,1.9,1.3,1.9,2.2c0,0.2,0,0.3,0,0.4H708.2z M710.6,109.8
						c0-0.5-0.2-1.4-1.2-1.4c-0.9,0-1.2,0.8-1.3,1.4H710.6z"/>
				</g>
			</g>
			<g>
				<g>
					<path fill="#808285" d="M715.8,111.4c0,0.4,0,0.8,0.1,1.1h-0.8l-0.1-0.6h0c-0.3,0.4-0.8,0.7-1.4,0.7c-0.9,0-1.4-0.7-1.4-1.3
						c0-1.1,1-1.7,2.8-1.7v-0.1c0-0.4-0.1-1.1-1.1-1.1c-0.4,0-0.9,0.1-1.2,0.3l-0.2-0.6c0.4-0.2,1-0.4,1.5-0.4c1.4,0,1.8,1,1.8,1.9
						V111.4z M715,110.2c-0.9,0-2,0.1-2,1c0,0.6,0.4,0.8,0.8,0.8c0.6,0,1-0.4,1.1-0.8c0-0.1,0-0.2,0-0.3V110.2z"/>
				</g>
			</g>
			<g>
				<g>
					<path fill="#808285" d="M717.1,105.7h0.8v6.8h-0.8V105.7z"/>
				</g>
			</g>
			<g>
				<g>
					<path fill="#808285" d="M719.3,111.7c0.3,0.2,0.7,0.3,1.1,0.3c0.6,0,0.9-0.3,0.9-0.7c0-0.4-0.2-0.6-0.9-0.8
						c-0.8-0.3-1.2-0.8-1.2-1.3c0-0.8,0.6-1.4,1.6-1.4c0.5,0,0.9,0.1,1.1,0.3l-0.2,0.6c-0.2-0.1-0.5-0.3-1-0.3
						c-0.5,0-0.8,0.3-0.8,0.6c0,0.4,0.3,0.6,0.9,0.8c0.8,0.3,1.2,0.7,1.2,1.4c0,0.8-0.6,1.4-1.7,1.4c-0.5,0-1-0.1-1.3-0.3
						L719.3,111.7z"/>
				</g>
			</g>
		</g>
	</g>
	<g>
		<g>
			<g>
				<rect x="363.1" y="135.5" fill="#808285" width="1" height="12.7"/>
			</g>
		</g>
	</g>
	<g>
		<g>
			<g>
				<rect x="463.3" y="174" fill="#808285" width="1" height="12.7"/>
			</g>
		</g>
	</g>
	<g>
		<g>
			<g>
				<rect x="404.1" y="238.7" fill="#808285" width="1" height="12.7"/>
			</g>
		</g>
	</g>
	<g>
		<g>
			<g>
				<rect x="404.1" y="135.5" fill="#808285" width="1" height="77.5"/>
			</g>
		</g>
	</g>
	<g>
		<g>
			<g>
				<polygon fill="#808285" points="320.9,187 319.9,187 319.9,134.9 418.4,134.9 418.4,122.7 419.4,122.7 419.4,135.9 320.9,135.9 
									"/>
			</g>
		</g>
	</g>
	<g>
		<g>
			<g>
				<rect x="527.6" y="77.2" fill="#808285" width="1" height="19.5"/>
			</g>
		</g>
	</g>
	<g>
		<g>
			<g>
				<polygon fill="#808285" points="419.4,96.7 418.4,96.7 418.4,63.7 498.7,63.7 498.7,64.7 419.4,64.7 				"/>
			</g>
		</g>
	</g>
	<g>
		<g>
			<g>
				<polygon fill="#808285" points="627.5,96.7 626.5,96.7 626.5,64.7 557.5,64.7 557.5,63.7 627.5,63.7 				"/>
			</g>
		</g>
	</g>
	<g>
		<g>
			<g>
				<polygon fill="#808285" points="712,96.7 711,96.7 711,64.7 627,64.7 627,63.7 712,63.7 				"/>
			</g>
		</g>
	</g>
	<g>
		<g>
			<g>
				<polygon fill="#808285" points="464.3,148.4 463.3,148.4 463.3,135.9 418.9,135.9 418.9,134.9 464.3,134.9 				"/>
			</g>
		</g>
	</g>
	<g>
		<g>
			<g>
				<g>
					<path fill="#808285" d="M611.6,196.8h-32.8c-7.4,0-13.5-6.1-13.5-13.5s6.1-13.5,13.5-13.5h32.8c7.4,0,13.5,6.1,13.5,13.5
						S619,196.8,611.6,196.8z M578.7,170.9c-6.9,0-12.5,5.6-12.5,12.5s5.6,12.5,12.5,12.5h32.8c6.9,0,12.5-5.6,12.5-12.5
						s-5.6-12.5-12.5-12.5H578.7z"/>
				</g>
			</g>
		</g>
		<g>
			<g>
				<g>
					<path fill="#808285" d="M668.2,179.8c0.4-0.1,0.9-0.1,1.6-0.1c0.8,0,1.4,0.2,1.8,0.5c0.3,0.3,0.6,0.8,0.6,1.4
						c0,0.6-0.2,1-0.5,1.4c-0.5,0.5-1.2,0.7-2,0.7c-0.2,0-0.5,0-0.7-0.1v2.6h-0.8V179.8z M669,182.9c0.2,0,0.4,0.1,0.7,0.1
						c1,0,1.6-0.5,1.6-1.4c0-0.9-0.6-1.3-1.5-1.3c-0.4,0-0.6,0-0.8,0.1V182.9z"/>
				</g>
			</g>
			<g>
				<g>
					<path fill="#808285" d="M673.5,184c0,1.1,0.7,1.6,1.6,1.6c0.6,0,1-0.1,1.3-0.2l0.2,0.6c-0.3,0.1-0.8,0.3-1.6,0.3
						c-1.4,0-2.3-1-2.3-2.4c0-1.4,0.8-2.5,2.2-2.5c1.5,0,1.9,1.3,1.9,2.2c0,0.2,0,0.3,0,0.4H673.5z M676,183.4
						c0-0.5-0.2-1.4-1.2-1.4c-0.9,0-1.2,0.8-1.3,1.4H676z"/>
				</g>
			</g>
			<g>
				<g>
					<path fill="#808285" d="M677.9,182.8c0-0.5,0-0.9,0-1.3h0.8l0,0.8h0c0.2-0.4,0.8-0.9,1.5-0.9c0.6,0,1.6,0.4,1.6,2v2.8H681v-2.7
						c0-0.7-0.3-1.4-1.1-1.4c-0.5,0-1,0.4-1.1,0.9c0,0.1-0.1,0.2-0.1,0.4v2.8h-0.8V182.8z"/>
				</g>
			</g>
			<g>
				<g>
					<path fill="#808285" d="M687.2,179.4v5.6c0,0.4,0,0.9,0,1.2h-0.8l0-0.8h0c-0.2,0.5-0.8,0.9-1.6,0.9c-1.1,0-2-1-2-2.4
						c0-1.5,1-2.5,2.1-2.5c0.7,0,1.2,0.3,1.4,0.7h0v-2.8H687.2z M686.4,183.4c0-0.1,0-0.2,0-0.4c-0.1-0.5-0.6-1-1.2-1
						c-0.9,0-1.4,0.8-1.4,1.8c0,0.9,0.5,1.7,1.4,1.7c0.6,0,1.1-0.4,1.2-1c0-0.1,0-0.2,0-0.4V183.4z"/>
				</g>
			</g>
			<g>
				<g>
					<path fill="#808285" d="M689.6,180.2c0,0.3-0.2,0.5-0.5,0.5c-0.3,0-0.5-0.2-0.5-0.5c0-0.3,0.2-0.5,0.5-0.5
						C689.3,179.7,689.6,179.9,689.6,180.2z M688.6,186.2v-4.7h0.8v4.7H688.6z"/>
				</g>
			</g>
			<g>
				<g>
					<path fill="#808285" d="M690.9,182.8c0-0.5,0-0.9,0-1.3h0.8l0,0.8h0c0.2-0.4,0.8-0.9,1.5-0.9c0.6,0,1.6,0.4,1.6,2v2.8H694v-2.7
						c0-0.7-0.3-1.4-1.1-1.4c-0.5,0-1,0.4-1.1,0.9c0,0.1-0.1,0.2-0.1,0.4v2.8h-0.8V182.8z"/>
				</g>
			</g>
			<g>
				<g>
					<path fill="#808285" d="M700.2,185.5c0,1.1-0.2,1.7-0.7,2.1c-0.5,0.4-1.1,0.6-1.7,0.6c-0.6,0-1.2-0.1-1.5-0.4l0.2-0.7
						c0.3,0.2,0.8,0.4,1.4,0.4c0.9,0,1.5-0.5,1.5-1.6v-0.5h0c-0.2,0.4-0.8,0.8-1.5,0.8c-1.2,0-2-1-2-2.3c0-1.6,1-2.5,2.1-2.5
						c0.8,0,1.2,0.4,1.5,0.8h0l0-0.7h0.8c0,0.3,0,0.7,0,1.3V185.5z M699.3,183.4c0-0.1,0-0.3,0-0.4c-0.2-0.5-0.6-0.9-1.2-0.9
						c-0.8,0-1.4,0.7-1.4,1.8c0,0.9,0.5,1.7,1.4,1.7c0.5,0,1-0.3,1.2-0.9c0-0.1,0.1-0.3,0.1-0.5V183.4z"/>
				</g>
			</g>
		</g>
	</g>
	<g>
		<g>
			<g>
				<g>
					<path fill="#808285" d="M698.8,196.8H666c-7.4,0-13.5-6.1-13.5-13.5s6.1-13.5,13.5-13.5h32.8c7.4,0,13.5,6.1,13.5,13.5
						S706.3,196.8,698.8,196.8z M666,170.9c-6.9,0-12.5,5.6-12.5,12.5s5.6,12.5,12.5,12.5h32.8c6.9,0,12.5-5.6,12.5-12.5
						s-5.6-12.5-12.5-12.5H666z"/>
				</g>
			</g>
		</g>
		<g>
			<g>
				<g>
					<path fill="#808285" d="M578,184.1l-0.7,2h-0.9l2.2-6.5h1l2.2,6.5H581l-0.7-2H578z M580.1,183.5l-0.6-1.9
						c-0.1-0.4-0.2-0.8-0.3-1.2h0c-0.1,0.4-0.2,0.8-0.3,1.2l-0.6,1.9H580.1z"/>
				</g>
			</g>
			<g>
				<g>
					<path fill="#808285" d="M586,186c-0.2,0.1-0.7,0.3-1.3,0.3c-1.4,0-2.3-1-2.3-2.4c0-1.4,1-2.5,2.5-2.5c0.5,0,0.9,0.1,1.2,0.2
						l-0.2,0.6c-0.2-0.1-0.5-0.2-1-0.2c-1.1,0-1.6,0.8-1.6,1.8c0,1.1,0.7,1.7,1.6,1.7c0.5,0,0.8-0.1,1-0.2L586,186z"/>
				</g>
			</g>
			<g>
				<g>
					<path fill="#808285" d="M590.2,186c-0.2,0.1-0.7,0.3-1.3,0.3c-1.4,0-2.3-1-2.3-2.4c0-1.4,1-2.5,2.5-2.5c0.5,0,0.9,0.1,1.2,0.2
						l-0.2,0.6c-0.2-0.1-0.5-0.2-1-0.2c-1.1,0-1.6,0.8-1.6,1.8c0,1.1,0.7,1.7,1.6,1.7c0.5,0,0.8-0.1,1-0.2L590.2,186z"/>
				</g>
			</g>
			<g>
				<g>
					<path fill="#808285" d="M591.6,184c0,1.1,0.7,1.6,1.6,1.6c0.6,0,1-0.1,1.3-0.2l0.2,0.6c-0.3,0.1-0.8,0.3-1.6,0.3
						c-1.4,0-2.3-1-2.3-2.4c0-1.4,0.8-2.5,2.2-2.5c1.5,0,1.9,1.3,1.9,2.2c0,0.2,0,0.3,0,0.4H591.6z M594.1,183.4
						c0-0.5-0.2-1.4-1.2-1.4c-0.9,0-1.2,0.8-1.3,1.4H594.1z"/>
				</g>
			</g>
			<g>
				<g>
					<path fill="#808285" d="M596,183c0-0.6,0-1.1,0-1.5h0.8l0,0.8h0c0.3-0.6,0.9-0.9,1.7-0.9c1.1,0,2,1,2,2.4c0,1.7-1,2.5-2.1,2.5
						c-0.6,0-1.2-0.3-1.4-0.7h0v2.5H596V183z M596.8,184.3c0,0.1,0,0.2,0,0.3c0.2,0.6,0.7,1,1.3,1c0.9,0,1.4-0.7,1.4-1.8
						c0-0.9-0.5-1.7-1.4-1.7c-0.6,0-1.1,0.4-1.3,1c0,0.1-0.1,0.2-0.1,0.3V184.3z"/>
				</g>
			</g>
			<g>
				<g>
					<path fill="#808285" d="M602.5,180.4v1.1h1.2v0.6h-1.2v2.5c0,0.6,0.2,0.9,0.6,0.9c0.2,0,0.4,0,0.5-0.1l0,0.6
						c-0.2,0.1-0.4,0.1-0.8,0.1c-0.4,0-0.7-0.1-0.9-0.4c-0.2-0.3-0.3-0.7-0.3-1.2v-2.5h-0.7v-0.6h0.7v-0.9L602.5,180.4z"/>
				</g>
			</g>
			<g>
				<g>
					<path fill="#808285" d="M605.1,184c0,1.1,0.7,1.6,1.6,1.6c0.6,0,1-0.1,1.3-0.2l0.2,0.6c-0.3,0.1-0.8,0.3-1.6,0.3
						c-1.4,0-2.3-1-2.3-2.4c0-1.4,0.8-2.5,2.2-2.5c1.5,0,1.9,1.3,1.9,2.2c0,0.2,0,0.3,0,0.4H605.1z M607.5,183.4
						c0-0.5-0.2-1.4-1.2-1.4c-0.9,0-1.2,0.8-1.3,1.4H607.5z"/>
				</g>
			</g>
			<g>
				<g>
					<path fill="#808285" d="M613.4,179.4v5.6c0,0.4,0,0.9,0,1.2h-0.8l0-0.8h0c-0.2,0.5-0.8,0.9-1.6,0.9c-1.1,0-2-1-2-2.4
						c0-1.5,1-2.5,2.1-2.5c0.7,0,1.2,0.3,1.4,0.7h0v-2.8H613.4z M612.6,183.4c0-0.1,0-0.2,0-0.4c-0.1-0.5-0.6-1-1.2-1
						c-0.9,0-1.4,0.8-1.4,1.8c0,0.9,0.5,1.7,1.4,1.7c0.6,0,1.1-0.4,1.2-1c0-0.1,0-0.2,0-0.4V183.4z"/>
				</g>
			</g>
		</g>
	</g>
	<g>
		<g>
			<g>
				<g>
					<path fill="#808285" d="M742.1,235.5h-32.8c-7.4,0-13.5-6.1-13.5-13.5s6.1-13.5,13.5-13.5h32.8c7.4,0,13.5,6.1,13.5,13.5
						S749.5,235.5,742.1,235.5z M709.2,209.5c-6.9,0-12.5,5.6-12.5,12.5s5.6,12.5,12.5,12.5h32.8c6.9,0,12.5-5.6,12.5-12.5
						s-5.6-12.5-12.5-12.5H709.2z"/>
				</g>
			</g>
		</g>
		<g>
			<g>
				<g>
					<path fill="#808285" d="M627.3,222c0-0.9-0.1-2-0.1-2.8h0c-0.2,0.8-0.5,1.6-0.8,2.5l-1.1,3.1h-0.6l-1.1-3.1
						c-0.3-0.9-0.6-1.8-0.7-2.5h0c0,0.8-0.1,1.9-0.1,2.9l-0.2,2.8h-0.8l0.5-6.5h1.1l1.1,3.1c0.3,0.8,0.5,1.5,0.7,2.2h0
						c0.2-0.7,0.4-1.4,0.7-2.2l1.2-3.1h1.1l0.4,6.5h-0.8L627.3,222z"/>
				</g>
			</g>
			<g>
				<g>
					<path fill="#808285" d="M629.9,220.2l1,2.7c0.1,0.3,0.2,0.7,0.3,1h0c0.1-0.3,0.2-0.6,0.3-1l0.9-2.7h0.9l-1.3,3.3
						c-0.6,1.6-1,2.4-1.6,2.9c-0.4,0.4-0.8,0.5-1,0.5l-0.2-0.7c0.2-0.1,0.5-0.2,0.7-0.4c0.2-0.2,0.5-0.5,0.7-0.9
						c0-0.1,0.1-0.2,0.1-0.2c0,0,0-0.1-0.1-0.2l-1.7-4.3H629.9z"/>
				</g>
			</g>
			<g>
				<g>
					<path fill="#808285" d="M639.5,221.8H637v2.3h2.8v0.7h-3.7v-6.5h3.5v0.7H637v2h2.5V221.8z"/>
				</g>
			</g>
			<g>
				<g>
					<path fill="#808285" d="M641.1,220.2l0.9,2.6c0.2,0.4,0.3,0.8,0.4,1.2h0c0.1-0.4,0.2-0.8,0.4-1.2l0.9-2.6h0.9l-1.8,4.7H642
						l-1.8-4.7H641.1z"/>
				</g>
			</g>
			<g>
				<g>
					<path fill="#808285" d="M645.8,222.7c0,1.1,0.7,1.6,1.6,1.6c0.6,0,1-0.1,1.3-0.2l0.2,0.6c-0.3,0.1-0.8,0.3-1.6,0.3
						c-1.4,0-2.3-1-2.3-2.4c0-1.4,0.8-2.5,2.2-2.5c1.5,0,1.9,1.3,1.9,2.2c0,0.2,0,0.3,0,0.4H645.8z M648.3,222.1
						c0-0.5-0.2-1.4-1.2-1.4c-0.9,0-1.2,0.8-1.3,1.4H648.3z"/>
				</g>
			</g>
			<g>
				<g>
					<path fill="#808285" d="M650.2,221.4c0-0.5,0-0.9,0-1.3h0.8l0,0.8h0c0.2-0.4,0.8-0.9,1.5-0.9c0.6,0,1.6,0.4,1.6,2v2.8h-0.8
						v-2.7c0-0.7-0.3-1.4-1.1-1.4c-0.5,0-1,0.4-1.1,0.9c0,0.1-0.1,0.2-0.1,0.4v2.8h-0.8V221.4z"/>
				</g>
			</g>
			<g>
				<g>
					<path fill="#808285" d="M656.5,219.1v1.1h1.2v0.6h-1.2v2.5c0,0.6,0.2,0.9,0.6,0.9c0.2,0,0.4,0,0.5-0.1l0,0.6
						c-0.2,0.1-0.4,0.1-0.8,0.1c-0.4,0-0.7-0.1-0.9-0.4c-0.2-0.3-0.3-0.7-0.3-1.2v-2.5h-0.7v-0.6h0.7v-0.9L656.5,219.1z"/>
				</g>
			</g>
			<g>
				<g>
					<path fill="#808285" d="M658.5,224c0.3,0.2,0.7,0.3,1.1,0.3c0.6,0,0.9-0.3,0.9-0.7c0-0.4-0.2-0.6-0.9-0.8
						c-0.8-0.3-1.2-0.8-1.2-1.3c0-0.8,0.6-1.4,1.6-1.4c0.5,0,0.9,0.1,1.1,0.3L661,221c-0.2-0.1-0.5-0.3-1-0.3
						c-0.5,0-0.8,0.3-0.8,0.6c0,0.4,0.3,0.6,0.9,0.8c0.8,0.3,1.2,0.7,1.2,1.4c0,0.8-0.6,1.4-1.7,1.4c-0.5,0-1-0.1-1.3-0.3L658.5,224
						z"/>
				</g>
			</g>
		</g>
	</g>
	<g>
		<g>
			<g>
				<g>
					<path fill="#808285" d="M657.8,235.5H625c-7.4,0-13.5-6.1-13.5-13.5s6.1-13.5,13.5-13.5h32.8c7.4,0,13.5,6.1,13.5,13.5
						S665.3,235.5,657.8,235.5z M625,209.5c-6.9,0-12.5,5.6-12.5,12.5s5.6,12.5,12.5,12.5h32.8c6.9,0,12.5-5.6,12.5-12.5
						s-5.6-12.5-12.5-12.5H625z"/>
				</g>
			</g>
		</g>
		<g>
			<g>
				<g>
					<path fill="#808285" d="M711.6,218.5c0.5-0.1,1.1-0.1,1.8-0.1c1.2,0,2.1,0.3,2.6,0.8c0.6,0.5,0.9,1.3,0.9,2.3
						c0,1.1-0.3,1.9-0.9,2.5c-0.6,0.6-1.6,0.9-2.9,0.9c-0.6,0-1.1,0-1.5-0.1V218.5z M712.4,224.2c0.2,0,0.5,0,0.8,0
						c1.8,0,2.8-1,2.8-2.7c0-1.5-0.9-2.5-2.6-2.5c-0.4,0-0.8,0-1,0.1V224.2z"/>
				</g>
			</g>
			<g>
				<g>
					<path fill="#808285" d="M718.5,222.7c0,1.1,0.7,1.6,1.6,1.6c0.6,0,1-0.1,1.3-0.2l0.2,0.6c-0.3,0.1-0.8,0.3-1.6,0.3
						c-1.4,0-2.3-1-2.3-2.4c0-1.4,0.8-2.5,2.2-2.5c1.5,0,1.9,1.3,1.9,2.2c0,0.2,0,0.3,0,0.4H718.5z M721,222.1
						c0-0.5-0.2-1.4-1.2-1.4c-0.9,0-1.2,0.8-1.3,1.4H721z"/>
				</g>
			</g>
			<g>
				<g>
					<path fill="#808285" d="M726.1,224.7c-0.2,0.1-0.7,0.3-1.3,0.3c-1.4,0-2.3-1-2.3-2.4c0-1.4,1-2.5,2.5-2.5
						c0.5,0,0.9,0.1,1.2,0.2L726,221c-0.2-0.1-0.5-0.2-1-0.2c-1.1,0-1.6,0.8-1.6,1.8c0,1.1,0.7,1.7,1.6,1.7c0.5,0,0.8-0.1,1-0.2
						L726.1,224.7z"/>
				</g>
			</g>
			<g>
				<g>
					<path fill="#808285" d="M727.1,218h0.8v6.8h-0.8V218z"/>
				</g>
			</g>
			<g>
				<g>
					<path fill="#808285" d="M730.3,218.9c0,0.3-0.2,0.5-0.5,0.5c-0.3,0-0.5-0.2-0.5-0.5c0-0.3,0.2-0.5,0.5-0.5
						C730.1,218.4,730.3,218.6,730.3,218.9z M729.4,224.8v-4.7h0.8v4.7H729.4z"/>
				</g>
			</g>
			<g>
				<g>
					<path fill="#808285" d="M731.7,221.4c0-0.5,0-0.9,0-1.3h0.8l0,0.8h0c0.2-0.4,0.8-0.9,1.5-0.9c0.6,0,1.6,0.4,1.6,2v2.8h-0.8
						v-2.7c0-0.7-0.3-1.4-1.1-1.4c-0.5,0-1,0.4-1.1,0.9c0,0.1-0.1,0.2-0.1,0.4v2.8h-0.8V221.4z"/>
				</g>
			</g>
			<g>
				<g>
					<path fill="#808285" d="M737.5,222.7c0,1.1,0.7,1.6,1.6,1.6c0.6,0,1-0.1,1.3-0.2l0.2,0.6c-0.3,0.1-0.8,0.3-1.6,0.3
						c-1.4,0-2.3-1-2.3-2.4c0-1.4,0.8-2.5,2.2-2.5c1.5,0,1.9,1.3,1.9,2.2c0,0.2,0,0.3,0,0.4H737.5z M739.9,222.1
						c0-0.5-0.2-1.4-1.2-1.4c-0.9,0-1.2,0.8-1.3,1.4H739.9z"/>
				</g>
			</g>
			<g>
				<g>
					<path fill="#808285" d="M745.8,218v5.6c0,0.4,0,0.9,0,1.2h-0.8l0-0.8h0c-0.2,0.5-0.8,0.9-1.6,0.9c-1.1,0-2-1-2-2.4
						c0-1.5,1-2.5,2.1-2.5c0.7,0,1.2,0.3,1.4,0.7h0V218H745.8z M745,222.1c0-0.1,0-0.2,0-0.4c-0.1-0.5-0.6-1-1.2-1
						c-0.9,0-1.4,0.8-1.4,1.8c0,0.9,0.5,1.7,1.4,1.7c0.6,0,1.1-0.4,1.2-1c0-0.1,0-0.2,0-0.4V222.1z"/>
				</g>
			</g>
		</g>
	</g>
	<g>
		<g>
			<g>
				<rect x="681.9" y="157.5" fill="#808285" width="1" height="12.7"/>
			</g>
		</g>
	</g>
	<g>
		<g>
			<g>
				<rect x="640.9" y="157.5" fill="#808285" width="1" height="51.5"/>
			</g>
		</g>
	</g>
	<g>
		<g>
			<g>
				<polygon fill="#808285" points="726.1,209 725.1,209 725.1,157.9 626.6,157.9 626.6,122.7 627.6,122.7 627.6,156.9 726.1,156.9 
									"/>
			</g>
		</g>
	</g>
	<g>
		<g>
			<g>
				<polygon fill="#808285" points="595.7,170.4 594.7,170.4 594.7,156.9 627.1,156.9 627.1,157.9 595.7,157.9 				"/>
			</g>
		</g>
	</g>
	<g>
		<g>
			<g>
				<rect x="527.6" y="122.7" fill="#808285" width="1" height="12.7"/>
			</g>
		</g>
	</g>
</g>
<g>
	<g>
		<g>
			<g>
				<path fill="#808285" d="M23.6,22.1h6.2v1.9h-3.9v2.3h3.6v1.9h-3.6v4.1h-2.3V22.1z"/>
			</g>
		</g>
		<g>
			<g>
				<path fill="#808285" d="M31.2,21.5h2.3v10.6h-2.3V21.5z"/>
			</g>
		</g>
		<g>
			<g>
				<path fill="#808285" d="M42.6,28.4c0,2.7-1.9,3.9-3.9,3.9c-2.1,0-3.8-1.4-3.8-3.8c0-2.4,1.6-3.9,3.9-3.9
					C41.1,24.7,42.6,26.2,42.6,28.4z M37.3,28.5c0,1.3,0.5,2.2,1.5,2.2c0.9,0,1.5-0.9,1.5-2.2c0-1.1-0.4-2.2-1.5-2.2
					C37.7,26.3,37.3,27.4,37.3,28.5z"/>
			</g>
		</g>
		<g>
			<g>
				<path fill="#808285" d="M45.4,24.8l0.6,3c0.1,0.8,0.3,1.6,0.4,2.4h0c0.1-0.8,0.4-1.7,0.5-2.4l0.8-3h1.8l0.7,2.9
					c0.2,0.8,0.4,1.6,0.5,2.5h0c0.1-0.8,0.3-1.7,0.4-2.5l0.6-2.9h2.2l-2.2,7.3h-2.1l-0.7-2.6c-0.2-0.7-0.3-1.4-0.5-2.3h0
					c-0.1,0.9-0.3,1.6-0.5,2.3l-0.7,2.6h-2.1l-2.1-7.3H45.4z"/>
			</g>
		</g>
		<g>
			<g>
				<path fill="#808285" d="M31,47.5c-0.4,0.2-1.4,0.4-2.6,0.4c-3.5,0-5.3-2.2-5.3-5.1c0-3.4,2.5-5.4,5.5-5.4c1.2,0,2.1,0.2,2.5,0.5
					l-0.5,1.8c-0.5-0.2-1.1-0.4-1.9-0.4c-1.8,0-3.2,1.1-3.2,3.3c0,2,1.2,3.3,3.2,3.3c0.7,0,1.5-0.1,1.9-0.3L31,47.5z"/>
			</g>
		</g>
		<g>
			<g>
				<path fill="#808285" d="M32.4,37.1h2.3v4.2h0c0.2-0.3,0.5-0.6,0.9-0.8c0.3-0.2,0.8-0.3,1.2-0.3c1.5,0,2.6,1,2.6,3.2v4.3h-2.3v-4
					c0-1-0.3-1.6-1.2-1.6c-0.6,0-1,0.4-1.1,0.8c-0.1,0.1-0.1,0.3-0.1,0.5v4.3h-2.3V37.1z"/>
			</g>
		</g>
		<g>
			<g>
				<path fill="#808285" d="M47.3,46c0,0.7,0,1.4,0.1,1.8h-2.1L45.2,47h0c-0.5,0.6-1.2,0.9-2.1,0.9c-1.5,0-2.4-1.1-2.4-2.2
					c0-1.9,1.7-2.8,4.3-2.8v-0.1c0-0.4-0.2-1-1.3-1c-0.8,0-1.5,0.3-2,0.6l-0.4-1.5c0.5-0.3,1.5-0.7,2.9-0.7c2.4,0,3.2,1.4,3.2,3.2
					V46z M45.1,44.3c-1.2,0-2.1,0.3-2.1,1.2c0,0.6,0.4,0.9,0.9,0.9c0.6,0,1-0.4,1.2-0.8c0-0.1,0-0.3,0-0.4V44.3z"/>
			</g>
		</g>
		<g>
			<g>
				<path fill="#808285" d="M49.1,42.8c0-1.1,0-1.8-0.1-2.4H51l0.1,1.3h0.1c0.4-1.1,1.3-1.5,2-1.5c0.2,0,0.3,0,0.5,0v2.1
					c-0.2,0-0.4-0.1-0.6-0.1c-0.8,0-1.4,0.5-1.6,1.2c0,0.1,0,0.3,0,0.5v3.7h-2.3V42.8z"/>
			</g>
		</g>
		<g>
			<g>
				<path fill="#808285" d="M57.7,38.5v2h1.6v1.7h-1.6v2.7c0,0.9,0.2,1.3,0.9,1.3c0.3,0,0.5,0,0.7-0.1l0,1.7
					c-0.3,0.1-0.8,0.2-1.5,0.2c-0.7,0-1.4-0.3-1.7-0.6c-0.4-0.4-0.6-1.1-0.6-2.2v-3h-1v-1.7h1v-1.4L57.7,38.5z"/>
			</g>
		</g>
	</g>
</g>
<g>
	<g>
		<g>
			<rect x="24.2" y="59.2" fill="#808285" width="18.2" height="2"/>
		</g>
	</g>
</g>
</svg>
