<?xml version="1.0" encoding="utf-8"?>
<!-- Generator: Adobe Illustrator 19.1.0, SVG Export Plug-In . SVG Version: 6.00 Build 0)  -->
<svg version="1.1" id="Layer_1" xmlns="http://www.w3.org/2000/svg" xmlns:xlink="http://www.w3.org/1999/xlink" x="0px" y="0px"
	 viewBox="-384 179.1 48.2 30" enable-background="new -384 179.1 48.2 30" xml:space="preserve">
<g>
	<path id="Behance_2_" fill="#ACACAC" d="M-340.5,183.1h-12v-3.1h12V183.1z M-360.6,195.5c0.8,1.3,1.1,2.6,1.1,4.5
		c0,1.8-0.3,3.4-1.3,4.8c-0.6,1-1.3,1.6-2.1,2.4c-1,0.8-2.1,1.3-3.4,1.4c-1.3,0.3-2.7,0.3-4.2,0.3H-384v-29.9h14.5
		c3.7,0.2,6.3,1.1,7.9,3.2c1,1.3,1.3,2.7,1.3,4.7c0,1.8-0.5,3.2-1.3,4.3c-0.6,0.6-1.3,1.3-2.2,1.6
		C-362.5,193.4-361.4,194.2-360.6,195.5z M-377.1,190.8h6.4c1.3,0,2.4-0.3,3.2-0.8s1.3-1.3,1.3-2.6c0-1.4-0.6-2.2-1.6-2.7
		c-1-0.3-2.1-0.5-3.5-0.5h-5.6L-377.1,190.8L-377.1,190.8z M-365.7,199.5c0-1.6-0.6-2.6-1.9-3.2c-0.8-0.3-1.6-0.5-3.1-0.6h-6.4v8
		h6.4c1.3,0,2.2-0.2,3.1-0.6C-366.3,202.5-365.7,201.3-365.7,199.5z M-336,194.7c0.2,1,0.2,2.4,0.2,4.2h-15.6
		c0.2,2.1,0.8,3.7,2.2,4.5c0.8,0.6,1.9,0.8,3.1,0.8c1.3,0,2.2-0.3,3.1-1.1c0.3-0.3,0.8-0.8,1.1-1.4h5.6c-0.2,1.3-0.8,2.6-2.1,3.9
		c-1.9,2.1-4.7,3.1-8,3.1c-2.7,0-5.3-0.8-7.5-2.6c-2.1-1.8-3.2-4.7-3.2-8.5c0-3.7,1.1-6.6,3.1-8.5s4.5-3.1,7.7-3.1
		c1.9,0,3.5,0.3,5.1,1.1c1.4,0.6,2.7,1.8,3.7,3.2C-337,191.5-336.3,192.9-336,194.7z M-341.8,195.2c-0.2-1.4-0.6-2.6-1.4-3.4
		s-2.1-1.1-3.2-1.1c-1.4,0-2.6,0.3-3.4,1.3c-0.8,0.8-1.3,1.9-1.4,3.2H-341.8L-341.8,195.2z"/>
</g>
</svg>
