<?xml version="1.0" encoding="utf-8"?>
<!-- Generator: Adobe Illustrator 19.1.0, SVG Export Plug-In . SVG Version: 6.00 Build 0)  -->
<svg version="1.1" id="Layer_1" xmlns="http://www.w3.org/2000/svg" xmlns:xlink="http://www.w3.org/1999/xlink" x="0px" y="0px"
	 viewBox="55.1 115.7 29.8 28.7" enable-background="new 55.1 115.7 29.8 28.7" xml:space="preserve">
<g>
	<path id="LinkedIn_1_" fill="#ACACAC" d="M84.9,133.2v11.1h-6.4V134c0-2.5-0.9-4.4-3.3-4.4c-1.8,0-2.8,1.2-3.3,2.4
		c-0.2,0.4-0.2,1-0.2,1.6v10.8h-6.4c0,0,0.1-17.5,0-19.3h6.4v2.7l-0.1,0.1h0.1v-0.1c0.8-1.3,2.4-3.2,5.8-3.2
		C81.8,124.6,84.9,127.3,84.9,133.2z M58.7,115.7c-2.2,0-3.6,1.5-3.6,3.3c0,1.8,1.4,3.3,3.6,3.3h0.1c2.2,0,3.6-1.5,3.6-3.3
		C62.2,117.1,60.9,115.7,58.7,115.7z M55.4,144.3h6.4V125h-6.4V144.3z"/>
</g>
</svg>
