<?xml version="1.0" encoding="utf-8"?>
<!-- Generator: Adobe Illustrator 19.1.0, SVG Export Plug-In . SVG Version: 6.00 Build 0)  -->
<svg version="1.1" id="Icons" xmlns="http://www.w3.org/2000/svg" xmlns:xlink="http://www.w3.org/1999/xlink" x="0px" y="0px"
	 viewBox="-75 23 100 100" enable-background="new -75 23 100 100" xml:space="preserve">
<path id="Tumblr" fill="#ACACAC" d="M-17.1,101.6c-1.5-0.9-2.9-2.4-3.5-3.9c-0.5-1.5-0.4-4.5-0.4-9.7V64.9H0V48.8h-21V28h-13
	c-0.6,4.6-1.6,8.5-3.2,11.5c-1.5,3-3.6,5.6-6.1,7.7c-2.5,2.1-6.7,3.8-10.2,4.9v12.7h12.3v31.6c0,4.1,0.4,7.3,1.3,9.4
	c0.9,2.2,2.4,4.2,4.7,6.1s5,3.4,8.2,4.4s5.6,1.6,9.8,1.6c3.7,0,7-0.4,10.2-1.1c3.1-0.7,6.7-2,10.5-3.8V98.9c-4.5,3-9.1,4.4-13.7,4.4
	C-12.8,103.3-15.1,102.7-17.1,101.6z"/>
</svg>
