<?xml version="1.0" encoding="utf-8"?>
<!-- Generator: Adobe Illustrator 19.1.0, SVG Export Plug-In . SVG Version: 6.00 Build 0)  -->
<svg version="1.1" id="Layer_1" xmlns="http://www.w3.org/2000/svg" xmlns:xlink="http://www.w3.org/1999/xlink" x="0px" y="0px"
	 viewBox="55 117.9 30 24.3" enable-background="new 55 117.9 30 24.3" xml:space="preserve">
<g>
	<path id="Twitter_3_" fill="#ACACAC" d="M85,120.7c-1.1,0.5-2.3,0.8-3.6,1c1.3-0.7,2.2-2,2.7-3.4c-1.2,0.7-2.5,1.2-3.9,1.5
		c-1.1-1.2-2.7-1.9-4.5-1.9c-3.4,0-6.1,2.7-6.1,6.1c0,0.5,0.1,0.9,0.2,1.4c-5.1-0.2-9.6-2.7-12.7-6.5c-0.5,0.9-0.8,1.9-0.8,3.1
		c0,2.1,1.1,4,2.7,5.1c-1-0.1-1.9-0.3-2.8-0.7c0,0.1,0,0.1,0,0.1c0,3,2.1,5.4,5,6c-0.5,0.1-1.1,0.2-1.6,0.2c-0.4,0-0.7-0.1-1.1-0.1
		c0.8,2.4,3,4.2,5.7,4.3c-2.1,1.6-4.8,2.6-7.7,2.6c-0.5,0-1-0.1-1.5-0.1c2.7,1.8,5.9,2.8,9.4,2.8c11.3,0,17.5-9.4,17.5-17.5
		c0-0.2,0-0.5,0-0.8C83,123.1,84.1,122,85,120.7z"/>
</g>
</svg>
