<?xml version="1.0" encoding="utf-8"?>
<!-- Generator: Adobe Illustrator 19.1.0, SVG Export Plug-In . SVG Version: 6.00 Build 0)  -->
<svg version="1.1" id="Layer_1" xmlns="http://www.w3.org/2000/svg" xmlns:xlink="http://www.w3.org/1999/xlink" x="0px" y="0px"
	 viewBox="-109.2 181.6 24.1 21.2" enable-background="new -109.2 181.6 24.1 21.2" xml:space="preserve">
<path id="Vimeo" fill="#ACACAC" d="M-88.3,181.6c-3.3-0.1-5.7,1.8-6.9,5.7c0.6-0.2,1.2-0.4,1.8-0.4c1.2,0,1.8,0.6,1.6,2.1
	c-0.1,0.8-0.6,2-1.6,3.6c-1.1,1.6-1.8,2.3-2.3,2.3c-0.6,0-1.3-1.2-1.8-3.7c-0.2-0.7-0.5-2.6-1-5.5c-0.4-2.8-1.6-4-3.5-3.9
	c-0.8,0.1-2,0.8-3.6,2.2c-1.1,1.1-2.3,2.1-3.6,3.2l1.1,1.5c1.1-0.8,1.7-1.1,1.9-1.1c0.8,0,1.6,1.3,2.3,4c0.6,2.3,1.3,4.8,1.9,7.2
	c1,2.6,2.2,4,3.6,4c2.3,0,5-2.1,8.3-6.4c3.2-4,4.8-7.4,4.9-9.7C-84.7,183.3-85.8,181.7-88.3,181.6z"/>
</svg>
